<?xml version="1.0" standalone="no"?>
<!DOCTYPE svg PUBLIC "-//W3C//DTD SVG 1.1//EN" "http://www.w3.org/Graphics/SVG/1.1/DTD/svg11.dtd" >
<svg xmlns="http://www.w3.org/2000/svg" xmlns:xlink="http://www.w3.org/1999/xlink" version="1.1">
<metadata>
Created by FontForge 20201107 at Wed Jan 11 22:20:41 2023
 By 
Copyright 2019 The Sofia Sans Project Authors (https://github.com/lettersoup/Sofia-Sans)
</metadata>
<defs>
<font id="SofiaSansExtraCondensed-Regular" horiz-adv-x="0" >
  <font-face 
    font-family="Sofia Sans Extra Condensed"
    font-weight="400"
    font-stretch="normal"
    units-per-em="1000"
    panose-1="0 0 0 0 0 0 0 0 0 0"
    ascent="800"
    descent="-200"
    x-height="486"
    cap-height="655"
    bbox="-84.4 -225 1021 867"
    underline-thickness="50"
    underline-position="-125"
    unicode-range="U+000D-FB02"
  />
<missing-glyph horiz-adv-x="340" 
d="M64 0q-6 0 -6 9v661q0 9 6 9h212q7 0 7 -9v-661q0 -9 -7 -9h-212zM113 54h116v571h-116v-571z" />
    <glyph glyph-name="f_f" unicode="ff" horiz-adv-x="476" 
d="M76 0q-7 0 -7 9v415h-44q-8 0 -8 8v45q0 9 8 9h44v72q0 66 23.5 98.5t72.5 32.5q22 0 39.5 -3.5t26.5 -8.5q8 -6 8 -14v-42q0 -4 -3.5 -6t-8.5 1q-10 4 -22 7t-26 3q-24 0 -34.5 -15.5t-10.5 -53.5v-71h78q8 0 8 -9v-45q0 -8 -8 -8h-78v-415q0 -9 -8 -9h-50zM312 0
q-7 0 -7 9v415h-44q-8 0 -8 8v45q0 9 8 9h44v72q0 66 23.5 98.5t72.5 32.5q22 0 39.5 -3.5t26.5 -8.5q8 -6 8 -14v-42q0 -4 -3.5 -6t-8.5 1q-10 4 -22 7t-26 3q-24 0 -34.5 -15.5t-10.5 -53.5v-71h78q8 0 8 -9v-45q0 -8 -8 -8h-78v-415q0 -9 -8 -9h-50z" />
    <glyph glyph-name="f_i" unicode="fi" horiz-adv-x="356" 
d="M75 0q-6 0 -6 9v415h-44q-8 0 -8 8v45q0 9 8 9h44v72q0 66 23 98.5t75 32.5q27 0 46.5 -4t28.5 -8q8 -5 8 -14v-42q0 -10 -12 -5q-10 4 -26 7t-33 3q-23 0 -34 -16t-11 -54v-70h170q6 0 6 -9v-468q0 -9 -6 -9h-53q-6 0 -6 9v415h-111v-415q0 -9 -7 -9h-52z" />
    <glyph glyph-name="f_l" unicode="fl" horiz-adv-x="356" 
d="M75 0q-6 0 -6 9v415h-44q-8 0 -8 8v45q0 9 8 9h44v73q0 65 23.5 97.5t74.5 32.5q22 0 43 -3t40 -7l53 4q7 0 7 -9v-665q0 -9 -7 -9h-51q-7 0 -7 9v609q-13 3 -29.5 5.5t-34.5 2.5q-25 0 -36 -15.5t-11 -52.5v-72h56q8 0 8 -9v-45q0 -8 -8 -8h-56v-415q0 -9 -7 -9h-52z
" />
    <glyph glyph-name=".notdef" horiz-adv-x="340" 
d="M64 0q-6 0 -6 9v661q0 9 6 9h212q7 0 7 -9v-661q0 -9 -7 -9h-212zM113 54h116v571h-116v-571z" />
    <glyph glyph-name=".null" 
 />
    <glyph glyph-name="nonmarkingreturn" horiz-adv-x="333" 
 />
    <glyph glyph-name="CR" unicode="&#xd;" horiz-adv-x="3" 
 />
    <glyph glyph-name="space" unicode=" " horiz-adv-x="125" 
 />
    <glyph glyph-name="exclam" unicode="!" horiz-adv-x="162" 
d="M55 192q-6 0 -6 8l-5 447q0 8 6 8h61q7 0 7 -9l-5 -446q0 -8 -6 -8h-52zM81 -6q-22 0 -33 11t-11 33v8q0 22 11 33t33 11t33 -11t11 -33v-8q0 -22 -11 -33t-33 -11z" />
    <glyph glyph-name="quotedbl" unicode="&#x22;" horiz-adv-x="268" 
d="M176 432q-9 0 -9 9v233q0 9 9 9h46q9 0 9 -9v-233q0 -9 -9 -9h-46zM46 432q-9 0 -9 9v233q0 9 9 9h46q9 0 9 -9v-233q0 -9 -9 -9h-46z" />
    <glyph glyph-name="numbersign" unicode="#" horiz-adv-x="364" 
d="M80 0q-9 0 -9 9v119h-44q-9 0 -9 8v41q0 9 9 9h44v241h-44q-9 0 -9 9v41q0 8 9 8h44v119q0 9 9 9h38q9 0 9 -9v-119h109v119q0 9 9 9h39q8 0 8 -9v-119h45q9 0 9 -8v-41q0 -9 -9 -9h-45v-241h45q9 0 9 -9v-41q0 -8 -9 -8h-45v-119q0 -9 -8 -9h-39q-9 0 -9 9v119h-109
v-119q0 -9 -9 -9h-38zM127 186h109v241h-109v-241z" />
    <glyph glyph-name="dollar" unicode="$" horiz-adv-x="420" 
d="M207 -6q-76 0 -107.5 52.5t-24.5 131.5q1 10 8 10h49q8 0 7 -10q-6 -61 13.5 -91t57.5 -30q35 0 53.5 23.5t18.5 73.5q0 44 -10 72t-39 51l-79 64q-40 33 -57.5 73t-17.5 97q1 71 36 110.5t93 39.5q70 0 104 -48t26 -131q-1 -11 -9 -11h-48q-8 0 -7 11q5 56 -12.5 86
t-52.5 30q-28 0 -46 -21t-19 -64q0 -40 12 -67t40 -51l76 -61q28 -23 44.5 -48t23.5 -56t7 -73q0 -76 -34.5 -119.5t-105.5 -43.5zM193 -89q-9 0 -9 9v83l56 4v-87q0 -9 -9 -9h-38zM184 651v82q0 9 9 9h38q9 0 9 -9v-86z" />
    <glyph glyph-name="percent" unicode="%" horiz-adv-x="587" 
d="M156 0q-8 0 -5 10l118 329l106 312q2 6 8 6h47q11 0 5 -11l-112 -311l-112 -329q-1 -6 -8 -6h-47zM146 324q-49 0 -75 31t-26 80v113q0 50 26 81.5t75 31.5q50 0 76 -31.5t26 -81.5v-113q0 -49 -26 -80t-76 -31zM146 373q50 0 50 61v117q0 31 -12 46t-38 15
q-25 0 -37 -15t-12 -46v-117q0 -61 49 -61zM441 -6q-49 0 -75.5 31t-26.5 80v113q0 50 26.5 81.5t75.5 31.5q50 0 76 -31.5t26 -81.5v-113q0 -49 -26 -80t-76 -31zM441 43q26 0 37.5 15t11.5 46v117q0 31 -11.5 46t-37.5 15t-37.5 -15t-11.5 -46v-117q0 -31 11.5 -46
t37.5 -15z" />
    <glyph glyph-name="ampersand" unicode="&#x26;" horiz-adv-x="402" 
d="M333 0q-6 0 -9 4l-228 386q-16 27 -28.5 65.5t-12.5 81.5q0 61 27.5 92.5t78.5 31.5q45 0 68.5 -30t23.5 -85q0 -31 -7.5 -60.5t-26 -61.5t-51.5 -72l-30 42q29 39 42.5 72t13.5 75q0 32 -9.5 47t-27.5 15q-19 0 -31 -15t-12 -50q0 -31 9.5 -60t25.5 -58l244 -409
q2 -5 1.5 -8t-5.5 -3h-56zM157 -6q-61 0 -94 43.5t-33 120.5q0 30 5.5 58t17 55.5t29.5 54.5t42 53l30 -41q-24 -35 -38.5 -63t-20.5 -54.5t-6 -59.5q0 -52 20 -80.5t56 -28.5q62 0 93 73.5t31 224.5q0 8 9 8h42q8 0 8 -8q0 -115 -22.5 -194.5t-65 -120.5t-103.5 -41z" />
    <glyph glyph-name="quotesingle" unicode="'" horiz-adv-x="138" 
d="M46 432q-9 0 -9 9v233q0 9 9 9h46q9 0 9 -9v-233q0 -9 -9 -9h-46z" />
    <glyph glyph-name="parenleft" unicode="(" horiz-adv-x="182" 
d="M119 -140q-34 35 -51 61t-22.5 55.5t-5.5 74.5v453q0 46 5.5 75.5t22.5 55.5t51 60q7 5 13 0l29 -30q3 -3 3 -6t-3 -6q-23 -28 -36 -48t-18 -42.5t-5 -58.5v-453q0 -36 4.5 -59t17.5 -42.5t37 -47.5q3 -3 3 -6t-3 -6l-29 -30q-6 -5 -13 0z" />
    <glyph glyph-name="parenright" unicode=")" horiz-adv-x="182" 
d="M50 -140l-29 30q-4 3 -3.5 6t3.5 6q24 28 37 47.5t17.5 42.5t4.5 59v453q0 36 -5 58.5t-18 42.5t-36 48q-3 3 -3.5 6t3.5 6l29 30q6 6 12 0q35 -34 52 -60t22.5 -55.5t5.5 -75.5v-453q0 -45 -5.5 -74.5t-22.5 -55.5t-52 -61q-6 -6 -12 0z" />
    <glyph glyph-name="asterisk" unicode="*" horiz-adv-x="309" 
d="M102 449l-29 23q-5 5 -1 10l52 59l-76 18q-4 2 -5 3.5t0 5.5l12 34q2 7 10 5l71 -31l-6 80q0 7 6 7h36q4 0 5.5 -2t1.5 -5l-6 -81l72 32q3 1 6 0.5t4 -5.5l12 -34q2 -4 0 -6t-5 -3l-79 -19l54 -59q2 -1 1.5 -4.5t-2.5 -5.5l-31 -21q-4 -4 -9 2l-42 66l-42 -67
q-4 -7 -10 -2z" />
    <glyph glyph-name="plus" unicode="+" horiz-adv-x="420" 
d="M189 173q-9 0 -9 9v89h-90q-8 0 -8 8v43q0 9 8 9h90v90q0 8 9 8h42q9 0 9 -8v-90h89q9 0 9 -9v-43q0 -8 -9 -8h-89v-89q0 -9 -9 -9h-42z" />
    <glyph glyph-name="comma" unicode="," horiz-adv-x="166" 
d="M25 -130q-8 0 -7 9l42 211q2 9 8 9h60q5 0 7 -3t1 -8l-61 -212q-1 -6 -7 -6h-43z" />
    <glyph glyph-name="hyphen" unicode="-" horiz-adv-x="290" 
d="M46 238q-8 0 -8 9v36q0 9 8 9h198q9 0 9 -9v-36q0 -9 -9 -9h-198z" />
    <glyph glyph-name="period" unicode="." horiz-adv-x="162" 
d="M81 -6q-21 0 -32.5 11t-11.5 33v8q0 22 11.5 33t32.5 11q22 0 33 -11t11 -33v-8q0 -22 -11 -33t-33 -11z" />
    <glyph glyph-name="slash" unicode="/" horiz-adv-x="240" 
d="M12 0q-8 0 -5 9l167 639q1 7 8 7h47q7 0 4 -10l-166 -638q-2 -7 -7 -7h-48z" />
    <glyph glyph-name="zero" unicode="0" horiz-adv-x="361" 
d="M181 -6q-70 0 -106 46.5t-36 134.5v305q0 89 36 135t106 46q69 0 105 -46t36 -135v-305q0 -88 -36 -134.5t-105 -46.5zM181 57q39 0 57 29.5t18 90.5v300q0 62 -18 91.5t-57 29.5t-57.5 -29.5t-18.5 -91.5v-300q0 -61 18.5 -90.5t57.5 -29.5z" />
    <glyph glyph-name="one" unicode="1" horiz-adv-x="284" 
d="M31 0q-9 0 -9 9v46q0 9 9 9h89l1 512l-88 -35q-3 -1 -5.5 0.5t-2.5 5.5v47q0 6 6 9l129 53q5 3 10 3h7q9 0 9 -9v-586h81q9 0 9 -9v-46q0 -9 -9 -9h-236z" />
    <glyph glyph-name="two" unicode="2" horiz-adv-x="331" 
d="M45 0q-9 0 -9 9v56q0 60 14 103t36 75.5t47 59.5t47 54.5t36 60t14 76.5v19q0 47 -14.5 66t-48.5 19q-36 0 -50 -27t-13 -77q0 -9 -9 -9h-45q-9 0 -9 9q-1 83 30.5 125t96.5 42q63 0 95.5 -37t32.5 -116q0 -60 -14 -101t-35.5 -70.5t-46.5 -55.5t-46.5 -54.5t-35.5 -67.5
t-14 -95h182q8 0 8 -9v-46q0 -9 -8 -9h-241z" />
    <glyph glyph-name="three" unicode="3" horiz-adv-x="337" 
d="M160 -6q-69 0 -98 45.5t-29 122.5q0 9 9 9h45q9 0 9 -9q0 -52 15 -78.5t53 -26.5q36 0 54.5 26.5t18.5 81.5v31q0 53 -18 81.5t-68 28.5h-32q-9 0 -9 8v44q0 9 9 9h33q36 0 56.5 29.5t20.5 84.5v29q0 49 -16.5 68.5t-48.5 19.5q-37 0 -52.5 -26t-14.5 -78q0 -9 -9 -9h-45
q-9 0 -9 9q0 83 33 125t100 42q63 0 95 -38t32 -122q0 -66 -18.5 -104.5t-47.5 -54.5v-2q35 -16 55 -53t20 -108q0 -93 -37.5 -139t-105.5 -46z" />
    <glyph glyph-name="four" unicode="4" horiz-adv-x="340" 
d="M222 0q-9 0 -9 9v124h-197q-9 0 -9 9v5q0 3 0.5 6.5t1.5 5.5l157 489q3 7 9 7h48q9 0 6 -10l-140 -448h124l4 226q0 9 8 9h43q9 0 9 -9v-226h40q8 0 8 -8v-47q0 -9 -8 -9h-40v-124q0 -9 -9 -9h-46z" />
    <glyph glyph-name="five" unicode="5" horiz-adv-x="323" 
d="M153 -6q-44 0 -73 19.5t-42 57t-12 91.5q0 5 2.5 7t6.5 2h45q8 0 8 -9q-1 -48 13 -76.5t54 -28.5q39 0 57 31.5t18 95.5v47q0 42 -7.5 68.5t-24 39.5t-43.5 13q-24 0 -51 -10t-53 -26q-5 -4 -9 -1.5t-4 7.5l21 324q0 9 9 9h194q9 0 9 -9v-46q0 -9 -9 -9h-145l-13 -195
q20 8 37 12t36 4q59 0 89 -49.5t30 -157.5q0 -102 -36 -156.5t-107 -54.5z" />
    <glyph glyph-name="six" unicode="6" horiz-adv-x="356" 
d="M181 -6q-73 0 -107.5 43.5t-34.5 137.5v302q0 94 35.5 139t107.5 45q59 0 92.5 -34t33.5 -96q0 -9 -8 -9h-45q-9 0 -9 9q0 31 -17 49t-47 18q-41 0 -59 -27t-18 -92v-302q0 -64 17 -92t57 -28q41 0 59 35.5t18 116.5v17q0 70 -13.5 97.5t-48.5 27.5q-22 0 -47 -13
t-51 -39v62q32 28 60.5 40t56.5 12q56 0 82.5 -46t26.5 -147q0 -112 -35 -169t-106 -57z" />
    <glyph glyph-name="seven" unicode="7" horiz-adv-x="320" 
d="M85 0q-4 0 -5 3t0 8l154 580h-146v-85q0 -9 -9 -9h-47q-9 0 -9 9v140q0 9 9 9h274q8 0 8 -9v-5q0 -8 -1 -12l-166 -623q-3 -6 -9 -6h-53z" />
    <glyph glyph-name="eight" unicode="8" horiz-adv-x="351" 
d="M176 -6q-148 0 -148 180q0 67 19.5 111.5t56.5 64.5q-30 22 -44 57t-14 90q0 78 34 121t96 43t95.5 -43t33.5 -121q0 -55 -13.5 -90t-44.5 -57q38 -20 57 -64.5t19 -111.5q0 -180 -147 -180zM176 54q42 0 61.5 27t19.5 86v20q0 70 -20 102.5t-61 32.5q-42 0 -62 -32.5
t-20 -102.5v-20q0 -59 19.5 -86t62.5 -27zM176 377q32 0 48.5 27t16.5 79v19q0 51 -16 75t-49 24q-34 0 -50 -24t-16 -75v-19q0 -52 17 -79t49 -27z" />
    <glyph glyph-name="nine" unicode="9" horiz-adv-x="358" 
d="M175 -6q-65 0 -97 40.5t-32 110.5q0 8 9 8h45q8 0 8 -8q0 -39 15.5 -63.5t50.5 -24.5q42 0 60 26.5t18 92.5v297q0 65 -17 95t-56 30q-41 0 -59 -30.5t-18 -117.5v-17q0 -70 14 -99.5t48 -29.5q23 0 47.5 13.5t50.5 38.5v-62q-32 -28 -60 -40t-56 -12q-56 0 -83 48.5
t-27 148.5q0 120 34.5 171t107.5 51q72 0 106 -46t34 -135v-302q0 -94 -35 -139t-108 -45z" />
    <glyph glyph-name="colon" unicode=":" horiz-adv-x="162" 
d="M81 367q-21 0 -32.5 11t-11.5 33v8q0 21 11.5 32.5t32.5 11.5q22 0 33 -11.5t11 -32.5v-8q0 -22 -11 -33t-33 -11zM81 -6q-21 0 -32.5 11t-11.5 33v8q0 22 11.5 33t32.5 11q22 0 33 -11t11 -33v-8q0 -22 -11 -33t-33 -11z" />
    <glyph glyph-name="semicolon" unicode=";" horiz-adv-x="169" 
d="M18 -130q-7 0 -6 9l42 211q2 9 8 9h60q5 0 7 -3t0 -8l-60 -212q-1 -6 -8 -6h-43zM88 367q-22 0 -33 11t-11 33v8q0 21 11 32.5t33 11.5t32.5 -11.5t10.5 -32.5v-8q0 -22 -10.5 -33t-32.5 -11z" />
    <glyph glyph-name="less" unicode="&#x3c;" horiz-adv-x="420" 
d="M326 148l-236 115q-5 3 -5 10v49q0 7 5 10l235 115q5 2 7.5 0t2.5 -7v-62q0 -8 -5 -10l-179 -70l179 -71q5 -3 5 -10v-62q0 -4 -2 -6t-7 -1z" />
    <glyph glyph-name="equal" unicode="=" horiz-adv-x="420" 
d="M91 343q-9 0 -9 8v43q0 9 9 9h238q9 0 9 -9v-43q0 -8 -9 -8h-238zM91 199q-9 0 -9 9v42q0 9 9 9h238q9 0 9 -9v-42q0 -9 -9 -9h-238z" />
    <glyph glyph-name="greater" unicode="&#x3e;" horiz-adv-x="420" 
d="M94 148q-4 -1 -6.5 1t-2.5 6v62q0 7 5 10l179 71l-179 70q-5 2 -5 10v62q0 5 3 7t7 0l236 -115q4 -4 4 -10v-49q0 -6 -4 -10z" />
    <glyph glyph-name="question" unicode="?" horiz-adv-x="293" 
d="M106 192q-5 0 -5 8v43q0 34 10 60.5t25.5 50t30.5 48t25 55t10 70.5q0 42 -12.5 58t-42.5 16q-37 0 -48.5 -28t-8.5 -86q0 -10 -7 -10h-48q-4 0 -6 3.5t-2 7.5q-4 90 27.5 131.5t95.5 41.5q62 0 89.5 -31.5t27.5 -98.5q0 -43 -10 -77t-25 -62t-30 -52t-25.5 -47
t-10.5 -49l-1 -44q0 -8 -7 -8h-52zM134 -6q-22 0 -32.5 11t-10.5 33v8q0 22 10.5 33t32.5 11t33 -11t11 -33v-8q0 -22 -11 -33t-33 -11z" />
    <glyph glyph-name="at" unicode="@" horiz-adv-x="590" 
d="M294 -185q-83 0 -141.5 42t-89 120.5t-30.5 185.5v178q0 108 30.5 186t89 120t141.5 42q84 0 142.5 -42t89 -120t30.5 -186v-85q0 -74 -16 -127.5t-46 -82t-72 -28.5q-31 0 -54 16t-34 46.5t-7 72.5l29 265q-11 3 -25 6t-31 3q-26 0 -38.5 -22t-17.5 -72l-19 -182
q-4 -38 4.5 -56t27.5 -18q20 0 46.5 22t47.5 55l4 -64q-35 -39 -62.5 -56t-57.5 -17q-37 0 -55.5 34t-11.5 97l19 192q8 73 34.5 109.5t76.5 36.5q29 0 56.5 -8.5t55.5 -13.5q6 -1 6 -11l-32 -287q-4 -46 8 -67.5t35 -21.5t38 20t22.5 60t7.5 99v85q0 92 -22.5 156.5
t-67 98.5t-111.5 34q-65 0 -109.5 -34t-67.5 -98.5t-23 -156.5v-178q0 -91 23 -156t68 -99t110 -34h78q9 0 9 -9v-41q0 -9 -9 -9h-79z" />
    <glyph glyph-name="A" unicode="A" horiz-adv-x="345" 
d="M4 0q-7 0 -6 10l130 638q1 7 9 7h70q8 0 9 -7l131 -638q1 -10 -6 -10h-55q-6 0 -8 6l-81 433q-7 35 -13.5 69.5t-11.5 69.5h-2q-5 -35 -10.5 -69.5t-12.5 -70.5l-81 -432q-1 -6 -7 -6h-55zM84 161l12 63h150l14 -63h-176z" />
    <glyph glyph-name="B" unicode="B" horiz-adv-x="363" 
d="M61 0q-9 0 -9 9v637q0 9 9 9h96q82 0 120.5 -39.5t38.5 -120.5q0 -53 -17.5 -90t-52.5 -58v-2q43 -14 65.5 -55t22.5 -106q0 -90 -41 -137t-121 -47h-111zM117 63h53q50 0 74.5 30.5t24.5 95.5q0 62 -23.5 91t-72.5 29h-56v-246zM117 370h49q42 0 63.5 29.5t21.5 86.5
t-21 81.5t-67 24.5h-46v-222z" />
    <glyph glyph-name="C" unicode="C" horiz-adv-x="392" 
d="M199 -6q-76 0 -116 49t-40 148v273q0 99 40 148t116 49q55 0 91 -26.5t51 -75t7 -115.5q-2 -8 -7 -8h-51q-9 0 -7 10q6 75 -14.5 113.5t-69.5 38.5q-44 0 -67.5 -33t-23.5 -106v-263q0 -72 23.5 -105.5t67.5 -33.5q52 0 71.5 41t14.5 111q-2 10 7 10h47q9 0 10 -10
q6 -103 -32 -159t-118 -56z" />
    <glyph glyph-name="D" unicode="D" horiz-adv-x="398" 
d="M61 0q-9 0 -9 9v637q0 9 8 9h98q103 0 152.5 -64.5t49.5 -198.5v-99q0 -149 -48 -221t-149 -72h-102zM117 63h41q74 0 105.5 53.5t31.5 171.5v106q0 103 -33 150.5t-107 47.5h-38v-529z" />
    <glyph glyph-name="E" unicode="E" horiz-adv-x="333" 
d="M60 0q-8 0 -8 9v637q0 9 7 9h226q7 0 7 -9v-45q0 -9 -7 -9h-168v-228h154q7 0 7 -9v-42q0 -9 -7 -9h-154v-241h168q7 0 7 -9v-45q0 -9 -7 -9h-225z" />
    <glyph glyph-name="F" unicode="F" horiz-adv-x="322" 
d="M58 0q-6 0 -6 9v637q0 9 7 9h226q7 0 7 -9v-45q0 -9 -7 -9h-168v-238h146q8 0 8 -9v-42q0 -9 -8 -9h-146v-285q0 -9 -6 -9h-53z" />
    <glyph glyph-name="G" unicode="G" horiz-adv-x="406" 
d="M183 -6q-72 0 -106 47.5t-34 143.5v281q0 95 40 145t115 50q79 0 119 -55t32 -152q0 -8 -7 -8h-52q-8 0 -6 8q7 68 -16 106t-68 38q-46 0 -69 -33t-23 -102v-273q0 -71 20 -102t67 -31t71 38t24 117v56h-83q-7 0 -7 9v44q0 9 7 9h139q7 0 7 -9v-193q0 -44 1 -69.5
t4 -48.5q1 -10 -6 -10h-41q-8 0 -8 7q-2 13 -3 30t-2 43h-1q-13 -40 -41.5 -63t-72.5 -23z" />
    <glyph glyph-name="H" unicode="H" horiz-adv-x="411" 
d="M59 0q-7 0 -7 9v637q0 9 7 9h51q7 0 7 -9v-276h178v276q0 9 7 9h50q8 0 8 -9v-637q0 -9 -8 -9h-50q-7 0 -7 9v299h-178v-299q0 -9 -7 -9h-51z" />
    <glyph glyph-name="I" unicode="I" horiz-adv-x="168" 
d="M59 0q-7 0 -7 9v637q0 9 7 9h51q7 0 7 -9v-637q0 -9 -7 -9h-51z" />
    <glyph glyph-name="J" unicode="J" horiz-adv-x="168" 
d="M22 -138q-10 -4 -13 6l-14 47q-1 5 0 8.5t6 4.5q17 6 28.5 21.5t17 44.5t5.5 77v575q0 9 7 9h52q6 0 6 -9v-574q0 -70 -11 -112.5t-32 -65t-52 -32.5z" />
    <glyph glyph-name="K" unicode="K" horiz-adv-x="367" 
d="M59 0q-7 0 -7 9v637q0 9 7 9h51q7 0 7 -9v-212q0 -21 -0.5 -42.5t-1 -42t-1.5 -42.5h1q13 33 27 64t29 62l108 218q1 4 8 4h59q10 0 4 -11l-134 -253l147 -380q5 -11 -4 -11h-61q-6 0 -8 6l-115 310l-58 -109v-198q0 -9 -7 -9h-51z" />
    <glyph glyph-name="L" unicode="L" horiz-adv-x="302" 
d="M59 0q-7 0 -7 9v637q0 9 7 9h51q7 0 7 -9v-583h162q8 0 8 -9v-45q0 -9 -8 -9h-220z" />
    <glyph glyph-name="M" unicode="M" horiz-adv-x="485" 
d="M50 0q-6 0 -6 9l8 637q0 9 8 9h78q8 0 9 -7l95 -391l96 391q1 7 9 7h78q7 0 7 -9l9 -637q0 -9 -7 -9h-50q-8 0 -8 9l-4 420v64t1 67h-1q-6 -31 -14 -62t-16 -61l-89 -338q-1 -7 -9 -7h-4q-7 0 -8 7l-91 339q-8 30 -15 60.5t-13 61.5h-2q2 -32 2 -66.5v-63.5l-5 -421
q0 -9 -7 -9h-51z" />
    <glyph glyph-name="N" unicode="N" horiz-adv-x="412" 
d="M58 0q-6 0 -6 9v637q0 9 7 9h82q7 0 8 -6l108 -384q8 -26 16 -58.5t15.5 -65t12.5 -58.5h2q-1 20 -2 44t-1.5 49t-1 49t-0.5 44v378q0 8 7 8h49q7 0 7 -8v-638q0 -9 -7 -9h-82q-5 0 -7 5l-105 372q-15 53 -26 102.5t-20 92.5h-2q1 -29 1.5 -64.5l1 -71t0.5 -64.5v-363
q0 -9 -6 -9h-51z" />
    <glyph glyph-name="O" unicode="O" horiz-adv-x="399" 
d="M199 -6q-75 0 -115.5 46t-40.5 139v295q0 95 40.5 141t115.5 46t116 -46t41 -141v-295q0 -93 -41 -139t-116 -46zM199 57q45 0 68.5 30.5t23.5 96.5v286q0 67 -23.5 97.5t-68.5 30.5q-44 0 -67.5 -30.5t-23.5 -97.5v-286q0 -66 23.5 -96.5t67.5 -30.5z" />
    <glyph glyph-name="P" unicode="P" horiz-adv-x="343" 
d="M59 0q-7 0 -7 9v637q0 9 7 9h96q85 0 124.5 -48.5t39.5 -152.5q0 -97 -40 -148.5t-118 -51.5h-44v-245q0 -9 -7 -9h-51zM117 316h38q52 0 75.5 33t23.5 103q0 76 -23.5 108.5t-71.5 32.5h-42v-277z" />
    <glyph glyph-name="Q" unicode="Q" horiz-adv-x="399" 
d="M274 -180q-28 0 -49 18t-32 62t-10 121q0 4 3.5 6t5.5 2l51 3q5 0 5 -9q-1 -56 3.5 -86.5t13.5 -42t21 -11.5q6 0 11 1.5t10 2.5q6 2 6 -7v-43q0 -9 -7 -11q-5 -2 -13 -4t-19 -2zM199 -6q-75 0 -115.5 46t-40.5 139v295q0 95 40.5 141t115.5 46t116 -46t41 -141v-295
q0 -93 -41 -139t-116 -46zM199 57q45 0 68.5 30.5t23.5 96.5v286q0 67 -23.5 97.5t-68.5 30.5q-44 0 -67.5 -30.5t-23.5 -97.5v-286q0 -66 23.5 -96.5t67.5 -30.5z" />
    <glyph glyph-name="R" unicode="R" horiz-adv-x="372" 
d="M59 0q-7 0 -7 9v637q0 9 7 9h110q83 0 121.5 -44t38.5 -134q0 -75 -21.5 -118.5t-59.5 -58.5v-1l103 -288q2 -11 -7 -11h-55q-5 0 -8 6l-97 279h-67v-276q0 -9 -7 -9h-51zM117 345h54q50 0 71.5 31.5t21.5 95.5q0 65 -23.5 92.5t-72.5 27.5h-51v-247z" />
    <glyph glyph-name="S" unicode="S" horiz-adv-x="341" 
d="M167 -6q-54 0 -86 24t-44 65.5t-8 94.5q1 10 7 10h50q8 0 7 -10q-7 -61 13.5 -91t63.5 -30q39 0 58.5 23.5t19.5 73.5q0 44 -12 72.5t-42 50.5l-81 64q-41 32 -60.5 72.5t-19.5 97.5q1 71 36.5 110.5t98.5 39.5q74 0 108.5 -48t26.5 -131q0 -11 -7 -11h-51q-7 0 -6 11
q6 56 -13 86t-57 30q-32 0 -51 -21t-20 -64q0 -40 14 -68t43 -51l78 -61q29 -22 46.5 -46.5t25.5 -56t8 -73.5q0 -76 -35.5 -119.5t-110.5 -43.5z" />
    <glyph glyph-name="T" unicode="T" horiz-adv-x="324" 
d="M137 0q-7 0 -7 9v583h-105q-8 0 -8 9v45q0 9 8 9h275q7 0 7 -9v-45q0 -9 -7 -9h-105v-583q0 -9 -8 -9h-50z" />
    <glyph glyph-name="U" unicode="U" horiz-adv-x="401" 
d="M200 -6q-79 0 -115.5 51t-36.5 154v448q0 8 7 8h51q7 0 7 -8v-447q0 -74 20.5 -108.5t66.5 -34.5q47 0 67.5 34t20.5 109v447q0 8 7 8h51q7 0 7 -8v-448q0 -103 -38 -154t-115 -51z" />
    <glyph glyph-name="V" unicode="V" horiz-adv-x="365" 
d="M144 0q-5 0 -7 6l-126 639q-1 10 6 10h54q7 0 8 -6l80 -431q6 -35 11.5 -70.5t10.5 -70.5h2q5 35 11 70.5t12 70.5l80 430q1 7 7 7h55q7 0 6 -10l-126 -638q-2 -7 -7 -7h-77z" />
    <glyph glyph-name="W" unicode="W" horiz-adv-x="526" 
d="M127 0q-5 0 -6 7l-107 638q-1 10 5 10h53q7 0 8 -7l63 -402q4 -26 7.5 -56t6 -59t4.5 -51h2q5 33 10 66.5t11 66.5l51 295l-21 128q-1 9 6 9h52q8 0 9 -8l66 -423q5 -34 9.5 -67t7.5 -67h2q2 23 4.5 49.5t6 56.5t7.5 60l61 402q1 7 7 7h54q7 0 6 -10l-105 -638
q-1 -7 -7 -7h-67q-7 0 -8 7l-41 265q-5 30 -9 60t-7 60h-2q-4 -30 -9 -59.5t-10 -59.5l-48 -266q-1 -4 -3 -5.5t-4 -1.5h-65z" />
    <glyph glyph-name="X" unicode="X" horiz-adv-x="340" 
d="M7 0q-8 0 -5 11l128 327l-120 306q-3 11 4 11h62q5 0 7 -4l52 -150q9 -27 18.5 -54.5t17.5 -54.5h1q8 28 17.5 55t19.5 55l52 148q2 5 7 5h59q9 0 4 -11l-119 -308l126 -326q5 -10 -4 -10h-62q-5 0 -7 5l-58 162q-10 29 -19.5 57.5t-17.5 56.5h-1q-8 -28 -17.5 -56.5
t-19.5 -57.5l-58 -161q-2 -6 -7 -6h-60z" />
    <glyph glyph-name="Y" unicode="Y" horiz-adv-x="343" 
d="M146 0q-7 0 -7 9v215l-130 420q-3 11 5 11h59q6 0 7 -6l61 -226q8 -28 15.5 -57.5t14.5 -58.5h1q8 29 16 58.5t15 58.5l61 225q2 6 7 6h57q8 0 6 -11l-130 -419v-216q0 -9 -6 -9h-52z" />
    <glyph glyph-name="Z" unicode="Z" horiz-adv-x="332" 
d="M16 0q-6 0 -6 7v3q0 5 3 11l178 467q10 26 20 51.5t20 51.5v2q-19 -1 -37.5 -1h-37.5h-120q-7 0 -7 9v45q0 9 7 9h277q7 0 7 -7v-2q0 -3 -0.5 -6t-1.5 -6l-187 -484q-8 -22 -16.5 -43t-17.5 -43v-2q23 1 39 1h35h126q7 0 7 -9v-45q0 -9 -7 -9h-281z" />
    <glyph glyph-name="bracketleft" unicode="[" horiz-adv-x="166" 
d="M49 -140q-9 0 -9 9v818q0 8 9 8h113q9 0 9 -8v-42q0 -9 -9 -9h-61v-717h61q9 0 9 -9v-41q0 -9 -9 -9h-113z" />
    <glyph glyph-name="backslash" unicode="\" horiz-adv-x="241" 
d="M182 0q-8 0 -8 7l-167 638q-3 10 6 10h44q9 0 11 -7l166 -638q3 -10 -5 -10h-47z" />
    <glyph glyph-name="bracketright" unicode="]" horiz-adv-x="166" 
d="M4 -140q-8 0 -8 9v41q0 9 8 9h62v717h-62q-8 0 -8 9v42q0 8 8 8h114q8 0 8 -8v-818q0 -9 -8 -9h-114z" />
    <glyph glyph-name="asciicircum" unicode="^" horiz-adv-x="311" 
d="M31 350q-8 0 -5 10l101 317q3 6 8 6h42q5 0 8 -6l100 -316q3 -11 -5 -11h-48q-6 0 -8 6l-69 253l-68 -253q-1 -6 -8 -6h-48z" />
    <glyph glyph-name="underscore" unicode="_" horiz-adv-x="316" 
d="M14 -118q-9 0 -9 9v36q0 9 9 9h288q9 0 9 -9v-36q0 -9 -9 -9h-288z" />
    <glyph glyph-name="grave" unicode="`" horiz-adv-x="191" 
d="M115 557q-7 0 -12 6l-71 119q-3 5 -1.5 8t5.5 3h51q7 0 10 -7l63 -120q2 -4 1 -6.5t-6 -2.5h-40z" />
    <glyph glyph-name="a" unicode="a" horiz-adv-x="316" 
d="M222 0q-6 0 -7 9q-2 18 -4 45.5t-2 46.5l-4 5v252q0 41 -9.5 56.5t-38.5 15.5q-28 0 -39 -15.5t-8 -50.5q0 -9 -8 -9h-44q-10 0 -11 12q-5 59 23.5 92t87.5 33q61 0 86.5 -29t25.5 -103v-240q0 -40 1 -68t2 -42q1 -10 -5 -10h-46zM115 -6q-39 0 -60.5 34t-21.5 95
q0 68 30 109.5t98 48.5l52 6v-53l-45 -6q-35 -4 -52.5 -29t-17.5 -71q0 -33 10 -52t27 -19t34.5 13.5t45.5 50.5l3 -58q-30 -37 -52 -53t-51 -16z" />
    <glyph glyph-name="b" unicode="b" horiz-adv-x="338" 
d="M175 -6q-34 0 -64 7.5t-65 11.5v661q0 9 7 9h51q7 0 7 -9v-609q14 -2 29 -5t29 -3q34 0 49 23.5t15 85.5v200q0 34 -10 49t-32 15t-45.5 -19t-46.5 -52l-5 59q27 35 57.5 54.5t61.5 19.5q44 0 64.5 -29.5t20.5 -92.5v-207q0 -92 -29.5 -130.5t-93.5 -38.5z" />
    <glyph glyph-name="c" unicode="c" horiz-adv-x="326" 
d="M169 -6q-67 0 -99 40.5t-32 124.5v169q0 83 32 123.5t99 40.5q41 0 69 -17t41 -49t10 -77q0 -12 -8 -12h-47q-4 0 -5.5 2.5t-0.5 6.5q2 39 -13 61.5t-46 22.5q-35 0 -50.5 -23.5t-15.5 -80.5v-166q0 -55 15.5 -79t50.5 -24q31 0 45 20t12 62q0 11 8 11h47q8 0 8 -9
q0 -73 -29.5 -110t-90.5 -37z" />
    <glyph glyph-name="d" unicode="d" horiz-adv-x="338" 
d="M127 -6q-43 0 -65 31.5t-22 96.5v226q0 71 28.5 107.5t79.5 36.5q29 0 51 -7.5t39 -17.5v-62q-46 25 -75 25q-28 0 -43 -21.5t-15 -69.5v-217q0 -36 10.5 -50.5t32.5 -14.5q21 0 43 17t47 52l3 -59q-28 -36 -54.5 -54.5t-59.5 -18.5zM245 0q-6 0 -8 9q-2 21 -3.5 49.5
t-1.5 42.5l-5 6v567q0 9 8 9h50q7 0 7 -9v-554q0 -42 1 -68.5t2 -40.5q1 -11 -6 -11h-44z" />
    <glyph glyph-name="e" unicode="e" horiz-adv-x="327" 
d="M169 -6q-67 0 -99 42t-32 130v167q0 83 32 121t95 38q62 0 94.5 -39.5t32.5 -117.5v-99q0 -8 -7 -8h-182v-61q0 -58 15.5 -84t50.5 -26q30 0 44 16.5t12 49.5q-2 10 6 10h48q7 0 7 -8q2 -63 -28.5 -97t-88.5 -34zM103 289h124v45q0 51 -14.5 73.5t-47.5 22.5
q-32 0 -47 -23t-15 -73v-45z" />
    <glyph glyph-name="f" unicode="f" horiz-adv-x="240" 
d="M76 0q-7 0 -7 9v415h-44q-8 0 -8 8v45q0 9 8 9h44v72q0 66 23.5 98.5t72.5 32.5q22 0 39.5 -3.5t26.5 -8.5q8 -6 8 -14v-42q0 -4 -3.5 -6t-8.5 1q-10 4 -22 7t-26 3q-24 0 -34.5 -15.5t-10.5 -53.5v-71h78q8 0 8 -9v-45q0 -8 -8 -8h-78v-415q0 -9 -8 -9h-50z" />
    <glyph glyph-name="g" unicode="g" horiz-adv-x="325" 
d="M161 -191q-72 0 -105 30.5t-33 90.5q0 43 19 73.5t54 49.5l43 -23q-22 -11 -36.5 -35t-14.5 -54q0 -37 17.5 -53.5t57.5 -16.5q44 0 61.5 18.5t17.5 57.5q0 35 -13 52.5t-44 20.5l-66 6q-37 3 -57 26t-20 57q0 26 11 44t26 30t27 19l40 -28q-20 -7 -32 -19.5t-12 -30.5
q0 -16 9 -26.5t29 -12.5l67 -8q51 -5 75 -37t24 -97q0 -68 -34.5 -101t-110.5 -33zM167 162q-61 0 -89 39t-28 126t27.5 126t89.5 39t89 -39t27 -126t-27 -126t-89 -39zM167 223q32 0 42.5 23t10.5 81t-10.5 81t-42.5 23q-31 0 -42 -23t-11 -81t11 -81t42 -23zM245 447
l-50 24q2 46 5.5 79.5t6.5 55.5q1 10 7 10h43q8 0 6 -9q-5 -29 -10.5 -66.5t-7.5 -93.5z" />
    <glyph glyph-name="h" unicode="h" horiz-adv-x="347" 
d="M243 0q-7 0 -7 9v357q0 33 -10 48.5t-32 15.5q-20 0 -42.5 -16.5t-47.5 -48.5l-5 54q29 36 57.5 54.5t61.5 18.5q41 0 62 -30t21 -92v-361q0 -9 -7 -9h-51zM53 0q-7 0 -7 9v665q0 9 7 9h51q7 0 7 -9v-665q0 -9 -7 -9h-51z" />
    <glyph glyph-name="i" unicode="i" horiz-adv-x="157" 
d="M53 0q-7 0 -7 9v468q0 9 7 9h51q7 0 7 -9v-468q0 -9 -7 -9h-51zM79 575q-22 0 -33 11t-11 32v9q0 21 11 32.5t33 11.5t32.5 -11.5t10.5 -32.5v-9q0 -21 -10.5 -32t-32.5 -11z" />
    <glyph glyph-name="j" unicode="j" horiz-adv-x="143" 
d="M32 -188q-2 -1 -5 -1t-5 3l-29 41q-7 7 0 12q28 25 37 70t9 119v421q0 9 7 9h51q7 0 7 -9v-427q0 -60 -6 -105.5t-21.5 -78t-44.5 -54.5zM73 575q-22 0 -33 11t-11 32v9q0 21 11 32.5t33 11.5t32.5 -11.5t10.5 -32.5v-9q0 -21 -10.5 -32t-32.5 -11z" />
    <glyph glyph-name="k" unicode="k" horiz-adv-x="313" 
d="M52 0q-6 0 -6 9v665q0 9 7 9h51q7 0 7 -9v-302v-35.5v-33t-1 -35.5h1q11 26 23 48t25 47l64 119q3 4 8 4h59q9 0 5 -10l-102 -171l112 -294q3 -11 -5 -11h-58q-5 0 -7 6l-84 232l-40 -71v-158q0 -9 -6 -9h-53z" />
    <glyph glyph-name="l" unicode="l" horiz-adv-x="157" 
d="M53 0q-7 0 -7 9v665q0 9 7 9h51q7 0 7 -9v-665q0 -9 -7 -9h-51z" />
    <glyph glyph-name="m" unicode="m" horiz-adv-x="515" 
d="M53 0q-7 0 -7 9v357q0 42 -0.5 68.5t-2.5 40.5q-1 11 6 11h46q5 0 6 -9q2 -13 2.5 -25t1.5 -25q26 31 51.5 48t56.5 17q27 0 46 -16t26 -48q25 30 50.5 47t56.5 17q36 0 56.5 -28t20.5 -81v-374q0 -9 -7 -9h-51q-7 0 -7 9v365q0 29 -9 42.5t-28 13.5q-18 0 -37 -14.5
t-40 -41.5v-365q0 -9 -7 -9h-51q-7 0 -7 9v365q0 29 -9 42.5t-28 13.5q-18 0 -37 -14.5t-40 -41.5v-365q0 -9 -7 -9h-51z" />
    <glyph glyph-name="n" unicode="n" horiz-adv-x="347" 
d="M243 0q-7 0 -7 9v357q0 33 -10 48.5t-32 15.5q-20 0 -42.5 -16.5t-47.5 -48.5l-5 54q29 36 57.5 54.5t61.5 18.5q41 0 62 -30t21 -92v-361q0 -9 -7 -9h-51zM53 0q-7 0 -7 9v357q0 42 -0.5 68.5t-2.5 40.5q-1 11 6 11h43q8 0 9 -9q3 -19 4.5 -48t1.5 -44l4 -6v-370
q0 -9 -7 -9h-51z" />
    <glyph glyph-name="o" unicode="o" horiz-adv-x="338" 
d="M169 -6q-67 0 -99 39.5t-32 121.5v175q0 83 32 122.5t99 39.5t99 -39.5t32 -122.5v-175q0 -82 -32 -121.5t-99 -39.5zM169 57q35 0 50.5 23t15.5 76v172q0 54 -15.5 78t-50.5 24t-50.5 -24t-15.5 -78v-172q0 -53 16 -76t50 -23z" />
    <glyph glyph-name="p" unicode="p" horiz-adv-x="336" 
d="M196 -6q-25 0 -50 8t-44 19l-1 61q17 -9 36.5 -17t41.5 -8q26 0 39 23.5t13 76.5v209q0 35 -9.5 49.5t-29.5 14.5q-24 0 -47.5 -20t-46.5 -52l-5 58q28 36 56.5 56t62.5 20q42 0 63 -28.5t21 -91.5v-217q0 -81 -25.5 -121t-74.5 -40zM53 -185q-7 0 -7 9v550
q0 36 -0.5 60.5t-2.5 41.5q-1 10 6 10h43q8 0 9 -9q2 -10 3 -28.5t2 -37.5l5 -24v-563q0 -9 -7 -9h-51z" />
    <glyph glyph-name="q" unicode="q" horiz-adv-x="338" 
d="M233 -185q-6 0 -6 9v597q-13 3 -30 6t-30 3q-33 0 -47.5 -24t-14.5 -74v-213q0 -34 9.5 -48t31.5 -14t46.5 19t46.5 51l5 -58q-28 -36 -58 -55.5t-61 -19.5q-44 0 -64.5 29t-20.5 91v220q0 86 32 122t87 36q35 0 66 -7t67 -11v-650q0 -9 -6 -9h-53z" />
    <glyph glyph-name="r" unicode="r" horiz-adv-x="242" 
d="M53 0q-7 0 -7 9v357q0 42 -0.5 68.5t-2.5 40.5q-1 11 6 11h46q5 0 6 -9q2 -20 4 -48.5t2 -43.5l4 -6v-370q0 -9 -7 -9h-51zM105 352l-4 63q12 19 27.5 36.5t34 29t39.5 11.5q9 0 15 -1q4 -1 5.5 -4t1.5 -8q0 -17 -0.5 -32t-2.5 -32q-1 -7 -7 -6q-5 2 -10.5 2.5t-12.5 0.5
q-21 0 -45 -16t-41 -44z" />
    <glyph glyph-name="s" unicode="s" horiz-adv-x="293" 
d="M147 -6q-61 0 -89 38t-23 111q0 8 7 8h51q6 0 6 -7q-1 -48 9.5 -68t40.5 -20q51 0 51 66q0 26 -8.5 43.5t-28.5 33.5l-66 52q-31 24 -45 54.5t-14 73.5q0 54 28.5 83.5t82.5 29.5q56 0 84.5 -34t22.5 -93q0 -8 -7 -8h-50q-2 0 -4.5 1t-1.5 9q2 30 -9 47t-37 17
q-46 0 -46 -52q0 -25 9.5 -42t28.5 -34l65 -52q34 -28 46.5 -55t12.5 -71q0 -64 -29.5 -97.5t-86.5 -33.5z" />
    <glyph glyph-name="t" unicode="t" horiz-adv-x="253" 
d="M163 -6q-51 0 -73 31t-22 104v295h-43q-8 0 -8 8v45q0 9 8 9h45l8 122q1 8 8 8h41q6 0 6 -8v-122h90q8 0 8 -9v-45q0 -8 -8 -8h-90v-293q0 -41 10 -58t34 -17q13 0 25 3t22 7q8 3 8 -5v-46q0 -9 -7 -11q-13 -4 -29 -7t-33 -3z" />
    <glyph glyph-name="u" unicode="u" horiz-adv-x="339" 
d="M129 -6q-46 0 -64.5 29.5t-18.5 92.5v361q0 9 7 9h51q7 0 7 -9v-360q0 -36 8.5 -48t27.5 -12q26 0 49.5 20t45.5 54l6 -56q-26 -35 -56 -58t-63 -23zM246 0q-6 0 -8 9q-2 21 -3.5 49.5t-1.5 42.5l-5 6v370q0 9 8 9h50q7 0 7 -9v-357q0 -42 1 -68.5t2 -40.5q1 -11 -6 -11
h-44z" />
    <glyph glyph-name="v" unicode="v" horiz-adv-x="318" 
d="M125 0q-5 0 -7 7l-98 469q-2 10 5 10h56q7 0 8 -7l49 -280q6 -32 11 -64.5t9 -64.5h2q3 32 8 65t11 65l52 279q1 7 7 7h56q7 0 4 -11l-97 -468q-1 -7 -9 -7h-67z" />
    <glyph glyph-name="w" unicode="w" horiz-adv-x="462" 
d="M116 0q-7 0 -9 8l-86 468q-1 10 5 10h53q7 0 8 -9l46 -276q6 -32 10 -66t7 -66h3q5 32 10 65t10 65l31 169l-17 99q-1 10 5 10h51q6 0 7 -7l43 -270q5 -33 8.5 -66t6.5 -65h3q5 33 9 67.5t9 66.5l46 274q2 9 7 9h53q7 0 6 -10l-87 -468q-1 -8 -9 -8h-67q-7 0 -9 6
l-20 120q-5 31 -9 64.5t-7 77.5h-4q-4 -44 -8.5 -77.5t-9.5 -65.5l-18 -118q-1 -7 -8 -7h-69z" />
    <glyph glyph-name="x" unicode="x" horiz-adv-x="310" 
d="M17 0q-4 0 -5.5 3.5t0.5 7.5l103 240l-95 225q-2 4 -1 7t5 3h54q8 0 10 -6l36 -98q8 -19 15.5 -41.5t14.5 -42.5h1q8 20 15.5 42.5t14.5 41.5l37 99q3 5 9 5h54q4 0 5 -3t-1 -7l-96 -223l105 -242q1 -4 0 -7.5t-5 -3.5h-56q-6 0 -9 5l-42 112q-7 21 -15.5 44t-16.5 43h-1
q-7 -20 -15 -43.5t-16 -43.5l-43 -112q-2 -5 -10 -5h-52z" />
    <glyph glyph-name="y" unicode="y" horiz-adv-x="317" 
d="M91 -185q-7 0 -5 11l43 180l-111 470q-3 10 4 10h56q7 0 8 -7l48 -237q8 -33 13.5 -68t10.5 -68h2q5 33 11.5 68.5t13.5 68.5l46 236q1 7 8 7h54q3 0 5 -3t0 -8l-148 -653q-1 -7 -8 -7h-51z" />
    <glyph glyph-name="z" unicode="z" horiz-adv-x="293" 
d="M25 0q-7 0 -7 7v2q0 9 3 13l134 316q9 22 17.5 42.5t16.5 42.5v1h-31h-32h-86q-7 0 -7 8v45q0 9 7 9h228q7 0 7 -6v-2q0 -7 -3 -13l-134 -317l-18 -42t-17 -42v-1h30.5h29.5h96q7 0 7 -9v-45q0 -9 -7 -9h-234z" />
    <glyph glyph-name="braceleft" unicode="{" horiz-adv-x="172" 
d="M165 -142q-40 0 -63.5 11.5t-33.5 43t-10 91.5v179q0 33 -7 49t-24 16h-11q-9 0 -9 9v40q0 9 9 9h11q17 0 24 16t7 50v179q0 61 10 92t33.5 42.5t63.5 11.5q9 0 9 -9v-41q0 -8 -9 -8q-19 0 -29 -7t-13.5 -24t-3.5 -49v-188q0 -37 -10 -60.5t-29 -33.5q19 -10 29 -33.5
t10 -59.5v-188q0 -31 4 -48.5t14 -24.5t28 -7q9 0 9 -8v-41q0 -9 -9 -9z" />
    <glyph glyph-name="bar" unicode="|" horiz-adv-x="174" 
d="M63 -185q-9 0 -9 9v997q0 9 9 9h48q8 0 8 -9v-997q0 -9 -8 -9h-48z" />
    <glyph glyph-name="braceright" unicode="}" horiz-adv-x="172" 
d="M7 -142q-8 0 -8 9v41q0 8 8 8q19 0 29 7t14 24.5t4 48.5v188q0 36 9.5 59.5t28.5 33.5q-19 10 -28.5 33.5t-9.5 60.5v188q0 32 -4 49t-14 24t-29 7q-8 0 -8 8v41q0 9 8 9q40 0 63.5 -11.5t33.5 -42.5t10 -92v-179q0 -34 7.5 -50t24.5 -16h10q9 0 9 -9v-40q0 -9 -9 -9h-10
q-17 0 -24.5 -16t-7.5 -49v-179q0 -60 -10 -91.5t-33.5 -43t-63.5 -11.5z" />
    <glyph glyph-name="asciitilde" unicode="~" horiz-adv-x="420" 
d="M263 256q-23 0 -38.5 7.5t-31 14.5t-38.5 7q-18 0 -36 -7t-27 -13q-8 -4 -8 6v42q0 8 5 10q9 6 25.5 14t41.5 8t40.5 -7t30.5 -14.5t37 -7.5q18 0 36 8.5t28 14.5q8 2 8 -6v-41q0 -8 -5 -12q-9 -7 -26.5 -15.5t-41.5 -8.5z" />
    <glyph glyph-name="uni00A0" unicode="&#xa0;" horiz-adv-x="125" 
 />
    <glyph glyph-name="exclamdown" unicode="&#xa1;" horiz-adv-x="162" 
d="M55 294h52q6 0 6 -8l5 -446q0 -9 -7 -9h-61q-6 0 -6 8l5 447q0 8 6 8zM81 492q22 0 33 -11t11 -33v-8q0 -22 -11 -33t-33 -11t-33 11t-11 33v8q0 22 11 33t33 11z" />
    <glyph glyph-name="cent" unicode="&#xa2;" horiz-adv-x="420" 
d="M184 528v88q0 9 9 9h38q9 0 9 -9v-84zM193 -38q-9 0 -9 9v86l56 -3v-83q0 -9 -9 -9h-38zM215 44q-67 0 -99 40.5t-32 124.5v169q0 83 32 123.5t99 40.5q41 0 69 -17t41 -49t10 -77q0 -12 -8 -12h-47q-4 0 -5.5 2.5t-0.5 6.5q2 39 -13 61.5t-46 22.5q-35 0 -50.5 -23.5
t-15.5 -80.5v-166q0 -55 15.5 -79t50.5 -24q31 0 45 20t12 62q0 11 8 11h47q8 0 8 -9q0 -73 -29.5 -110t-90.5 -37z" />
    <glyph glyph-name="sterling" unicode="&#xa3;" horiz-adv-x="420" 
d="M95 0q-9 0 -9 9v34q0 5 3 11q13 25 19 51.5t6 57.5v332q0 83 27 124.5t88 41.5q39 0 63.5 -16.5t36 -53t11.5 -96.5q0 -9 -9 -9h-42q-9 0 -9 9q0 31 -3 54t-13.5 36t-32.5 13q-28 0 -40 -20.5t-12 -85.5v-317q0 -44 -7 -69t-18 -42h191q8 0 8 -9v-46q0 -9 -8 -9h-250z
M75 313q-8 0 -8 9v41q0 9 8 9h191q8 0 8 -9v-41q0 -9 -8 -9h-191z" />
    <glyph glyph-name="currency" unicode="&#xa4;" horiz-adv-x="420" 
d="M103 121q-6 -6 -11 -1l-28 28q-5 5 0 13l43 51q-7 20 -10.5 45.5t-3.5 56.5t3.5 56.5t10.5 45.5l-43 51q-5 8 0 13l27 27q6 6 12 0l33 -41q28 31 74 31t74 -31l33 41q5 7 11 1l28 -28q5 -5 0 -13l-43 -51q7 -20 10.5 -45.5t3.5 -56.5t-3.5 -56.5t-10.5 -45.5l43 -51
q5 -8 0 -13l-28 -28q-5 -5 -11 1l-33 41q-28 -31 -74 -31t-74 31zM210 185q35 0 48 32t13 97t-13 97t-48 32t-48 -32t-13 -97t13 -97t48 -32z" />
    <glyph glyph-name="yen" unicode="&#xa5;" horiz-adv-x="420" 
d="M184 0q-6 0 -6 9v215l-122 420q-3 11 6 11h57q7 0 8 -7l57 -227q8 -28 13.5 -56.5t12.5 -57.5h1q7 29 13 57.5t13 56.5l57 228q2 6 8 6h58q7 0 4 -11l-121 -419v-216q0 -9 -6 -9h-53zM114 112q-9 0 -9 8v35q0 9 9 9h193q9 0 9 -9v-35q0 -8 -9 -8h-193zM114 225q-9 0 -9 9
v35q0 9 9 9h193q9 0 9 -9v-35q0 -9 -9 -9h-193z" />
    <glyph glyph-name="brokenbar" unicode="&#xa6;" horiz-adv-x="174" 
d="M63 392q-9 0 -9 9v420q0 9 9 9h48q8 0 8 -9v-420q0 -9 -8 -9h-48zM63 -185q-9 0 -9 9v420q0 9 9 9h48q8 0 8 -9v-420q0 -9 -8 -9h-48z" />
    <glyph glyph-name="section" unicode="&#xa7;" horiz-adv-x="293" 
d="M175 115l-25 44q29 9 45 34.5t16 59.5q0 32 -10 56t-36 50l-77 79q-27 27 -38 55t-11 67q0 60 29 92t83 32q53 0 83 -33t30 -93q0 -8 -6 -8h-49q-6 0 -6 8q0 64 -51 64q-47 0 -47 -59q0 -25 7.5 -43.5t25.5 -38.5l87 -91q26 -27 38 -60t12 -74q0 -54 -26.5 -92t-73.5 -49
zM142 -118q-53 0 -83 33.5t-30 93.5q0 8 6 8h49q7 0 7 -9q0 -63 50 -63q48 0 48 59q0 26 -7.5 44.5t-26.5 37.5l-86 90q-26 29 -38.5 62t-12.5 73q0 54 27 91.5t73 48.5l25 -43q-28 -10 -44.5 -35.5t-16.5 -59.5q0 -31 10.5 -55t35.5 -50l77 -80q27 -27 38.5 -55t11.5 -67
q0 -59 -29.5 -91.5t-83.5 -32.5z" />
    <glyph glyph-name="dieresis" unicode="&#xa8;" horiz-adv-x="254" 
d="M71 578q-20 0 -30.5 11t-10.5 30v9q0 20 10.5 30.5t30.5 10.5t30.5 -10.5t10.5 -30.5v-9q0 -19 -10.5 -30t-30.5 -11zM183 578q-19 0 -29.5 11t-10.5 30v9q0 20 10.5 30.5t29.5 10.5q21 0 31 -10.5t10 -30.5v-9q0 -19 -10 -30t-31 -11z" />
    <glyph glyph-name="copyright" unicode="&#xa9;" horiz-adv-x="420" 
d="M210 -6q-59 0 -97 23.5t-56 71.5t-18 119v188q0 72 18 119.5t56 71t97 23.5q60 0 97.5 -23.5t55.5 -71t18 -119.5v-188q0 -71 -18 -119t-55.5 -71.5t-97.5 -23.5zM210 40q62 0 93 37.5t31 127.5v194q0 90 -31 127.5t-93 37.5t-93 -37.5t-31 -127.5v-194q0 -90 31 -127.5
t93 -37.5zM211 126q-43 0 -62 28t-19 76v139q0 48 19 77.5t62 29.5q44 0 62.5 -30t18.5 -83q0 -4 -1.5 -6.5t-4.5 -2.5h-33q-6 0 -6 9q0 38 -8.5 54t-27.5 16q-37 0 -37 -66v-133q0 -66 37 -66q19 0 27.5 17t8.5 54q0 9 6 9h33q3 0 4.5 -2t1.5 -7q0 -54 -18.5 -83.5
t-62.5 -29.5z" />
    <glyph glyph-name="ordfeminine" unicode="&#xaa;" horiz-adv-x="238" 
d="M89 325q-25 0 -41 23t-16 69q0 52 25 76t65 28l30 4v42q0 25 -6.5 35.5t-24.5 10.5q-36 0 -31 -40q1 -8 -5 -8h-32q-9 0 -10 9q-4 35 16.5 61t62.5 26q29 0 46.5 -9.5t25.5 -29t8 -49.5v-157q0 -23 1 -42t1 -33q0 -9 -5 -9h-33q-7 0 -7 6q-1 6 -2 13t-2 15
q-14 -17 -30 -29t-36 -12zM43 212q-7 0 -7 9v35q0 9 7 9h157q7 0 7 -9v-35q0 -9 -7 -9h-157zM106 373q10 0 21.5 8t24.5 24v78l-29 -4q-19 -3 -30 -18t-11 -43q0 -26 6 -35.5t18 -9.5z" />
    <glyph glyph-name="guillemotleft" unicode="&#xab;" horiz-adv-x="332" 
d="M240 93q-4 0 -7 6l-77 158q-2 4 0 11l77 158q3 6 7 6h51q4 0 5.5 -2.5t-0.5 -7.5l-75 -160l74 -158q5 -11 -4 -11h-51zM119 93q-4 0 -7 6l-76 158q-2 4 0 11l76 158q3 6 8 6h50q4 0 5.5 -2.5t-0.5 -7.5l-74 -160l74 -158q3 -11 -5 -11h-51z" />
    <glyph glyph-name="logicalnot" unicode="&#xac;" horiz-adv-x="420" 
d="M282 147q-9 0 -9 9v115h-180q-9 0 -9 8v43q0 9 9 9h234q9 0 9 -9v-166q0 -9 -9 -9h-45z" />
    <glyph glyph-name="uni00AD" unicode="&#xad;" horiz-adv-x="290" 
d="M46 238q-8 0 -8 9v36q0 9 8 9h198q9 0 9 -9v-36q0 -9 -9 -9h-198z" />
    <glyph glyph-name="registered" unicode="&#xae;" horiz-adv-x="347" 
d="M173 308q-67 0 -103 44.5t-36 127.5v45q0 84 36 128t103 44q68 0 104 -44t36 -128v-45q0 -83 -36 -127.5t-104 -44.5zM173 348q50 0 74 32t24 98v49q0 67 -24 99t-74 32q-32 0 -54 -14t-32.5 -43t-10.5 -74v-49q0 -44 10.5 -73t32.5 -43t54 -14zM127 392q-4 0 -4 4v213
q0 6 5 6h39q32 0 47.5 -16t15.5 -50q0 -25 -7 -39.5t-21 -22.5l30 -90q2 -5 -2 -5h-27q-3 0 -5 4l-27 83h-15v-83q0 -4 -4 -4h-25zM156 508h14q26 0 26 30v17q0 16 -6 23t-20 7h-14v-77z" />
    <glyph glyph-name="macron" unicode="&#xaf;" horiz-adv-x="199" 
d="M38 572q-8 0 -8 8v45q0 8 8 8h123q8 0 8 -8v-45q0 -8 -8 -8h-123z" />
    <glyph glyph-name="degree" unicode="&#xb0;" horiz-adv-x="239" 
d="M119 416q-47 0 -69 30.5t-22 76.5v59q0 47 22 77t69 30q48 0 69.5 -30t21.5 -77v-59q0 -46 -21.5 -76.5t-69.5 -30.5zM119 461q25 0 34.5 16.5t9.5 45.5v59q0 29 -9.5 45.5t-34.5 16.5t-34 -16.5t-9 -45.5v-59q0 -29 9 -45.5t34 -16.5z" />
    <glyph glyph-name="plusminus" unicode="&#xb1;" horiz-adv-x="420" 
d="M189 173q-9 0 -9 9v89h-89q-9 0 -9 8v43q0 9 9 9h89v90q0 8 9 8h43q8 0 8 -8v-90h90q8 0 8 -9v-43q0 -8 -8 -8h-90v-89q0 -9 -8 -9h-43zM94 67q-9 0 -9 9v42q0 9 9 9h232q9 0 9 -9v-42q0 -9 -9 -9h-232z" />
    <glyph glyph-name="uni00B2" unicode="&#xb2;" horiz-adv-x="256" 
d="M44 354q-9 0 -9 9v38q0 45 13 75.5t31.5 52.5t37.5 40.5t32 40t13 52.5v9q0 25 -7 37.5t-27 12.5q-21 0 -29 -15.5t-7 -47.5q0 -9 -9 -9h-34q-9 0 -9 9q-4 54 19 85.5t71 31.5q47 0 67 -26.5t20 -79.5q0 -44 -12.5 -71.5t-30.5 -47t-36 -38t-30.5 -42.5t-12.5 -62h115
q4 0 6.5 -2t2.5 -7v-36q0 -9 -9 -9h-166z" />
    <glyph glyph-name="uni00B3" unicode="&#xb3;" horiz-adv-x="256" 
d="M124 350q-33 0 -52.5 13.5t-28.5 39.5t-9 62q0 9 9 9h34q9 0 9 -9q0 -29 8 -44.5t30 -15.5t32.5 16t10.5 44v16q0 29 -9.5 44t-32.5 15h-26q-9 0 -9 9v36q0 9 9 9h22q20 0 30.5 15.5t10.5 46.5v14q0 25 -9 38t-29 13q-24 0 -31.5 -17.5t-6.5 -45.5q0 -9 -9 -9h-34
q-9 0 -9 9q-3 56 20 86.5t72 30.5q46 0 68.5 -26t22.5 -81q0 -34 -10.5 -58.5t-27.5 -38.5v-1q23 -13 33 -37.5t10 -61.5q0 -58 -25 -89.5t-73 -31.5z" />
    <glyph glyph-name="acute" unicode="&#xb4;" horiz-adv-x="191" 
d="M35 557q-4 0 -5 2.5t1 6.5l63 120q3 7 10 7h50q5 0 6.5 -3t-1.5 -8l-71 -119q-4 -6 -13 -6h-40z" />
    <glyph glyph-name="uni00B5" unicode="&#xb5;" horiz-adv-x="340" 
d="M53 -185q-7 0 -7 9v653q0 9 7 9h51q7 0 7 -9v-347q0 -35 10.5 -54t33.5 -19q20 0 37.5 14t36.5 39v367q0 9 7 9h50q8 0 8 -9v-384q0 -21 4 -29.5t15 -8.5q5 0 9.5 1t8.5 2q6 1 6 -7v-44q0 -5 -7 -8t-17 -4t-18 -1q-25 0 -40 12.5t-20 42.5v1q-19 -25 -37 -40.5t-44 -15.5
q-16 0 -27.5 8t-17.5 17v-195q0 -9 -7 -9h-49z" />
    <glyph glyph-name="paragraph" unicode="&#xb6;" horiz-adv-x="368" 
d="M132 -185q-9 0 -9 9v490h-16q-47 0 -70 29.5t-23 93.5v123q0 64 23 93.5t70 29.5h212q7 0 7 -9v-850q0 -9 -9 -9h-43q-9 0 -9 9v795h-81v-795q0 -9 -9 -9h-43z" />
    <glyph glyph-name="periodcentered" unicode="&#xb7;" horiz-adv-x="172" 
d="M89 214q-21 0 -32.5 11t-11.5 33v8q0 22 11.5 33t32.5 11q22 0 33 -11t11 -33v-8q0 -22 -11 -33t-33 -11z" />
    <glyph glyph-name="cedilla" unicode="&#xb8;" horiz-adv-x="163" 
d="M75 -191q-13 0 -22.5 1.5t-16.5 2.5q-6 2 -6 8v31q0 8 6 6q4 -1 9.5 -1.5t13.5 -0.5q13 0 18.5 6.5t5.5 22.5v13q0 17 -7.5 23.5t-18.5 6.5h-12q-5 0 -5 7v9t1 9l19 71q2 5 7 5h33q6 0 5 -9l-19 -58h4q19 0 31 -13t12 -45v-21q0 -39 -14.5 -56.5t-43.5 -17.5z" />
    <glyph glyph-name="uni00B9" unicode="&#xb9;" horiz-adv-x="256" 
d="M48 354q-9 0 -9 9v36q0 9 9 9h55v293l-53 -20q-9 -3 -9 5v40q0 8 6 11l87 32q3 1 5.5 1.5t5.5 0.5h4q9 0 9 -9v-354h49q9 0 9 -9v-36q0 -9 -9 -9h-159z" />
    <glyph glyph-name="ordmasculine" unicode="&#xba;" horiz-adv-x="240" 
d="M120 325q-43 0 -65 25.5t-22 76.5v132q0 50 22 76t65 26t65 -26t22 -76v-132q0 -51 -22 -76.5t-65 -25.5zM45 212q-7 0 -7 9v35q0 9 7 9h150q7 0 7 -9v-35q0 -9 -7 -9h-150zM120 373q19 0 28 12t9 37v142q0 25 -9 37t-28 12t-28 -12t-9 -37v-142q0 -25 9 -37t28 -12z" />
    <glyph glyph-name="guillemotright" unicode="&#xbb;" horiz-adv-x="332" 
d="M162 93q-9 0 -4 11l74 158l-74 160q-2 5 -0.5 7.5t4.5 2.5h51q4 0 7 -6l77 -158q2 -7 0 -11l-77 -158q-3 -6 -7 -6h-51zM42 93q-10 0 -5 11l74 158l-74 160q-2 5 -0.5 7.5t4.5 2.5h51q4 0 7 -6l77 -158q2 -7 0 -11l-76 -158q-3 -6 -8 -6h-50z" />
    <glyph glyph-name="onequarter" unicode="&#xbc;" horiz-adv-x="588" 
d="M48 240q-9 0 -9 9v36q0 9 9 9h55v293l-53 -20q-9 -3 -9 5v40q0 8 6 11l87 32q3 1 5.5 1.5t5.5 0.5h4q9 0 9 -9v-354h49q9 0 9 -9v-36q0 -9 -9 -9h-159zM184 -28q-8 0 -6 11l110 366l100 327q2 7 8 7h44q9 0 6 -9l-108 -347l-101 -349q-3 -6 -10 -6h-43zM495 0q-9 0 -9 9
v72h-128q-9 0 -9 9v5q0 4 1 7.5t2 7.5l100 295q3 10 9 10h39q4 0 6 -2.5t0 -8.5l-89 -269h71l2 136q0 9 9 9h28q8 0 8 -9v-136h28q5 0 5 -9v-36q0 -9 -5 -9h-28v-72q0 -9 -9 -9h-31z" />
    <glyph glyph-name="onehalf" unicode="&#xbd;" horiz-adv-x="618" 
d="M48 240q-9 0 -9 9v36q0 9 9 9h55v293l-53 -20q-9 -3 -9 5v40q0 8 6 11l87 32q3 1 5.5 1.5t5.5 0.5h4q9 0 9 -9v-354h49q9 0 9 -9v-36q0 -9 -9 -9h-159zM184 -28q-8 0 -6 11l110 366l100 327q2 7 8 7h44q9 0 6 -9l-108 -347l-101 -349q-3 -6 -10 -6h-43zM406 0q-9 0 -9 9
v38q0 45 13 75.5t31.5 52.5t37.5 40.5t32 40t13 52.5v9q0 25 -7 37.5t-27 12.5q-21 0 -29 -15.5t-7 -47.5q0 -9 -9 -9h-34q-9 0 -9 9q-4 54 19 85.5t71 31.5q47 0 67 -26.5t20 -79.5q0 -44 -12.5 -71.5t-30.5 -47t-36 -38t-30.5 -42.5t-12.5 -62h115q4 0 6.5 -2t2.5 -7v-36
q0 -9 -9 -9h-166z" />
    <glyph glyph-name="threequarters" unicode="&#xbe;" horiz-adv-x="582" 
d="M124 236q-33 0 -52.5 13.5t-28.5 39.5t-9 62q0 9 9 9h34q9 0 9 -9q0 -29 8 -44.5t30 -15.5t32.5 16t10.5 44v16q0 29 -9.5 44t-32.5 15h-26q-9 0 -9 9v36q0 9 9 9h22q20 0 30.5 15.5t10.5 46.5v14q0 25 -9 38t-29 13q-24 0 -31.5 -17.5t-6.5 -45.5q0 -9 -9 -9h-34
q-9 0 -9 9q-3 56 20 86.5t72 30.5q46 0 68.5 -26t22.5 -81q0 -34 -10.5 -58.5t-27.5 -38.5v-1q23 -13 33 -37.5t10 -61.5q0 -58 -25 -89.5t-73 -31.5zM178 -28q-8 0 -6 11l110 366l100 327q2 7 8 7h44q9 0 6 -9l-108 -347l-101 -349q-3 -6 -10 -6h-43zM489 0q-9 0 -9 9v72
h-128q-9 0 -9 9v5q0 4 1 7.5t2 7.5l100 295q3 10 9 10h39q4 0 6 -2.5t0 -8.5l-89 -269h71l2 136q0 9 9 9h28q8 0 8 -9v-136h28q5 0 5 -9v-36q0 -9 -5 -9h-28v-72q0 -9 -9 -9h-31z" />
    <glyph glyph-name="questiondown" unicode="&#xbf;" horiz-adv-x="290" 
d="M187 294q5 0 5 -8v-43q0 -34 -10 -60.5t-25 -50t-30.5 -48t-25.5 -55t-10 -70.5q0 -42 12.5 -58t42.5 -16q37 0 48.5 28t8.5 86q0 10 7 10h48q5 0 6.5 -3t1.5 -8q5 -90 -27 -131.5t-96 -41.5q-61 0 -89 31.5t-28 98.5q0 44 10 77.5t25 61.5t30 52t25.5 47t10.5 49l1 44
q0 8 7 8h52zM159 492q22 0 32.5 -11t10.5 -33v-8q0 -22 -10.5 -33t-32.5 -11t-33 11t-11 33v8q0 22 11 33t33 11z" />
    <glyph glyph-name="Agrave" unicode="&#xc0;" horiz-adv-x="345" 
d="M4 0q-7 0 -6 10l130 638q1 7 9 7h70q8 0 9 -7l131 -638q1 -10 -6 -10h-55q-6 0 -8 6l-81 433q-7 35 -13.5 69.5t-11.5 69.5h-2q-5 -35 -10.5 -69.5t-12.5 -70.5l-81 -432q-1 -6 -7 -6h-55zM84 161l12 63h150l14 -63h-176zM171 714q-10 0 -12 6l-61 100q-3 5 -1.5 8.5
t5.5 3.5h52q5 0 7 -2t4 -5l52 -102q2 -4 1 -6.5t-5 -2.5h-42z" />
    <glyph glyph-name="Aacute" unicode="&#xc1;" horiz-adv-x="345" 
d="M4 0q-7 0 -6 10l130 638q1 7 9 7h70q8 0 9 -7l131 -638q1 -10 -6 -10h-55q-6 0 -8 6l-81 433q-7 35 -13.5 69.5t-11.5 69.5h-2q-5 -35 -10.5 -69.5t-12.5 -70.5l-81 -432q-1 -6 -7 -6h-55zM84 161l12 63h150l14 -63h-176zM131 714q-4 0 -5 2.5t1 6.5l52 102q5 7 11 7h52
q5 0 6 -3.5t-2 -8.5l-61 -100q-2 -6 -12 -6h-42z" />
    <glyph glyph-name="Acircumflex" unicode="&#xc2;" horiz-adv-x="345" 
d="M4 0q-7 0 -6 10l130 638q1 7 9 7h70q8 0 9 -7l131 -638q1 -10 -6 -10h-55q-6 0 -8 6l-81 433q-7 35 -13.5 69.5t-11.5 69.5h-2q-5 -35 -10.5 -69.5t-12.5 -70.5l-81 -432q-1 -6 -7 -6h-55zM84 161l12 63h150l14 -63h-176zM97 723q-8 -4 -8 3v38q0 7 4 10l75 37q5 3 10 0
l75 -37q4 -3 4 -10v-38q0 -6 -8 -3l-76 34z" />
    <glyph glyph-name="Atilde" unicode="&#xc3;" horiz-adv-x="345" 
d="M4 0q-7 0 -6 10l130 638q1 7 9 7h70q8 0 9 -7l131 -638q1 -10 -6 -10h-55q-6 0 -8 6l-81 433q-7 35 -13.5 69.5t-11.5 69.5h-2q-5 -35 -10.5 -69.5t-12.5 -70.5l-81 -432q-1 -6 -7 -6h-55zM84 161l12 63h150l14 -63h-176zM204 727q-22 0 -35 7.5t-30 7.5
q-13 0 -22.5 -3.5t-17.5 -8.5t-8 5v37q0 8 4 11q6 6 18 12t31 6q22 0 35 -7.5t29 -7.5q14 0 24 3.5t18 8.5q8 4 8 -6v-36q0 -8 -4 -12q-7 -6 -18.5 -11.5t-31.5 -5.5z" />
    <glyph glyph-name="Adieresis" unicode="&#xc4;" horiz-adv-x="345" 
d="M4 0q-7 0 -6 10l130 638q1 7 9 7h70q8 0 9 -7l131 -638q1 -10 -6 -10h-55q-6 0 -8 6l-81 433q-7 35 -13.5 69.5t-11.5 69.5h-2q-5 -35 -10.5 -69.5t-12.5 -70.5l-81 -432q-1 -6 -7 -6h-55zM84 161l12 63h150l14 -63h-176zM117 723q-20 0 -30.5 10.5t-10.5 30.5v8
q0 20 10.5 31t30.5 11t30.5 -11t10.5 -31v-8q0 -20 -10.5 -30.5t-30.5 -10.5zM229 723q-19 0 -29.5 10.5t-10.5 30.5v8q0 20 10.5 31t29.5 11q21 0 31 -11t10 -31v-8q0 -20 -10 -30.5t-31 -10.5z" />
    <glyph glyph-name="Aring" unicode="&#xc5;" horiz-adv-x="345" 
d="M347 10q1 -10 -6 -10h-55q-6 0 -8 6l-29 155h-154l-29 -155q-1 -6 -7 -6h-55q-7 0 -6 10l127 624q-26 21 -26 66q0 39 19.5 60.5t54.5 21.5t54 -21.5t19 -60.5q0 -48 -27 -66zM143 699q0 -46 30 -46q29 0 29 46q0 45 -29 45q-30 0 -30 -45zM106 224h132l-41 215
q-7 35 -13.5 71.5t-11.5 70.5h-2q-5 -34 -10.5 -70.5t-12.5 -72.5z" />
    <glyph glyph-name="AE" unicode="&#xc6;" horiz-adv-x="509" 
d="M5 0q-9 0 -6 10l182 639q2 6 7 6h273q7 0 7 -9v-45q0 -9 -7 -9h-168v-228h154q7 0 7 -9v-42q0 -9 -7 -9h-154v-241h168q7 0 7 -9v-45q0 -9 -7 -9h-227q-6 0 -6 9v152h-117l-42 -155q-1 -6 -7 -6h-57zM127 224h101v288v44t1 45h-1q-6 -24 -11.5 -46.5t-12.5 -45.5z" />
    <glyph glyph-name="Ccedilla" unicode="&#xc7;" horiz-adv-x="392" 
d="M199 -6q-76 0 -116 49t-40 148v273q0 99 40 148t116 49q55 0 91 -26.5t51 -75t7 -115.5q-2 -8 -7 -8h-51q-9 0 -7 10q6 75 -14.5 113.5t-69.5 38.5q-44 0 -67.5 -33t-23.5 -106v-263q0 -72 23.5 -105.5t67.5 -33.5q52 0 71.5 41t14.5 111q-2 10 7 10h47q9 0 10 -10
q6 -103 -32 -159t-118 -56zM204 -191q-13 0 -22.5 1.5t-16.5 2.5q-6 2 -6 8v31q0 8 6 6q4 -1 9.5 -1.5t13.5 -0.5q13 0 18.5 6.5t5.5 22.5v13q0 17 -7.5 23.5t-18.5 6.5h-12q-5 0 -5 7v9t1 9l19 71q2 5 7 5h33q6 0 5 -9l-19 -58h4q19 0 31 -13t12 -45v-21q0 -39 -14.5 -56.5
t-43.5 -17.5z" />
    <glyph glyph-name="Egrave" unicode="&#xc8;" horiz-adv-x="333" 
d="M60 0q-8 0 -8 9v637q0 9 7 9h226q7 0 7 -9v-45q0 -9 -7 -9h-168v-228h154q7 0 7 -9v-42q0 -9 -7 -9h-154v-241h168q7 0 7 -9v-45q0 -9 -7 -9h-225zM170 714q-10 0 -12 6l-61 100q-3 5 -1.5 8.5t5.5 3.5h52q5 0 7 -2t4 -5l52 -102q2 -4 1 -6.5t-5 -2.5h-42z" />
    <glyph glyph-name="Eacute" unicode="&#xc9;" horiz-adv-x="333" 
d="M60 0q-8 0 -8 9v637q0 9 7 9h226q7 0 7 -9v-45q0 -9 -7 -9h-168v-228h154q7 0 7 -9v-42q0 -9 -7 -9h-154v-241h168q7 0 7 -9v-45q0 -9 -7 -9h-225zM130 714q-4 0 -5 2.5t1 6.5l52 102q5 7 11 7h52q5 0 6 -3.5t-2 -8.5l-61 -100q-2 -6 -12 -6h-42z" />
    <glyph glyph-name="Ecircumflex" unicode="&#xca;" horiz-adv-x="333" 
d="M60 0q-8 0 -8 9v637q0 9 7 9h226q7 0 7 -9v-45q0 -9 -7 -9h-168v-228h154q7 0 7 -9v-42q0 -9 -7 -9h-154v-241h168q7 0 7 -9v-45q0 -9 -7 -9h-225zM96 723q-8 -4 -8 3v38q0 7 4 10l75 37q5 3 10 0l75 -37q4 -3 4 -10v-38q0 -6 -8 -3l-76 34z" />
    <glyph glyph-name="Edieresis" unicode="&#xcb;" horiz-adv-x="333" 
d="M60 0q-8 0 -8 9v637q0 9 7 9h226q7 0 7 -9v-45q0 -9 -7 -9h-168v-228h154q7 0 7 -9v-42q0 -9 -7 -9h-154v-241h168q7 0 7 -9v-45q0 -9 -7 -9h-225zM116 723q-20 0 -30.5 10.5t-10.5 30.5v8q0 20 10.5 31t30.5 11t30.5 -11t10.5 -31v-8q0 -20 -10.5 -30.5t-30.5 -10.5z
M228 723q-19 0 -29.5 10.5t-10.5 30.5v8q0 20 10.5 31t29.5 11q21 0 31 -11t10 -31v-8q0 -20 -10 -30.5t-31 -10.5z" />
    <glyph glyph-name="Igrave" unicode="&#xcc;" horiz-adv-x="168" 
d="M59 0q-7 0 -7 9v637q0 9 7 9h51q7 0 7 -9v-637q0 -9 -7 -9h-51zM84 714q-10 0 -12 6l-61 100q-3 5 -1.5 8.5t5.5 3.5h52q5 0 7 -2t4 -5l52 -102q2 -4 1 -6.5t-5 -2.5h-42z" />
    <glyph glyph-name="Iacute" unicode="&#xcd;" horiz-adv-x="168" 
d="M59 0q-7 0 -7 9v637q0 9 7 9h51q7 0 7 -9v-637q0 -9 -7 -9h-51zM44 714q-4 0 -5 2.5t1 6.5l52 102q5 7 11 7h52q5 0 6 -3.5t-2 -8.5l-61 -100q-2 -6 -12 -6h-42z" />
    <glyph glyph-name="Icircumflex" unicode="&#xce;" horiz-adv-x="168" 
d="M59 0q-7 0 -7 9v637q0 9 7 9h51q7 0 7 -9v-637q0 -9 -7 -9h-51zM10 723q-8 -4 -8 3v38q0 7 4 10l75 37q5 3 10 0l75 -37q4 -3 4 -10v-38q0 -6 -8 -3l-76 34z" />
    <glyph glyph-name="Idieresis" unicode="&#xcf;" horiz-adv-x="168" 
d="M59 0q-7 0 -7 9v637q0 9 7 9h51q7 0 7 -9v-637q0 -9 -7 -9h-51zM30 723q-20 0 -30.5 10.5t-10.5 30.5v8q0 20 10.5 31t30.5 11t30.5 -11t10.5 -31v-8q0 -20 -10.5 -30.5t-30.5 -10.5zM142 723q-19 0 -29.5 10.5t-10.5 30.5v8q0 20 10.5 31t29.5 11q21 0 31 -11t10 -31v-8
q0 -20 -10 -30.5t-31 -10.5z" />
    <glyph glyph-name="Eth" unicode="&#xd0;" horiz-adv-x="398" 
d="M14 305q-7 0 -7 9v40q0 9 7 9h38h139q7 0 7 -9v-40q0 -9 -7 -9h-177zM61 0q-9 0 -9 9v637q0 9 8 9h98q103 0 152.5 -64.5t49.5 -198.5v-99q0 -149 -48 -221t-149 -72h-102zM117 63h41q74 0 105.5 53.5t31.5 171.5v106q0 103 -33 150.5t-107 47.5h-38v-529z" />
    <glyph glyph-name="Ntilde" unicode="&#xd1;" horiz-adv-x="412" 
d="M58 0q-6 0 -6 9v637q0 9 7 9h82q7 0 8 -6l108 -384q8 -26 16 -58.5t15.5 -65t12.5 -58.5h2q-1 20 -2 44t-1.5 49t-1 49t-0.5 44v378q0 8 7 8h49q7 0 7 -8v-638q0 -9 -7 -9h-82q-5 0 -7 5l-105 372q-15 53 -26 102.5t-20 92.5h-2q1 -29 1.5 -64.5l1 -71t0.5 -64.5v-363
q0 -9 -6 -9h-51zM237 727q-22 0 -35 7.5t-30 7.5q-13 0 -22.5 -3.5t-17.5 -8.5t-8 5v37q0 8 4 11q6 6 18 12t31 6q22 0 35 -7.5t29 -7.5q14 0 24 3.5t18 8.5q8 4 8 -6v-36q0 -8 -4 -12q-7 -6 -18.5 -11.5t-31.5 -5.5z" />
    <glyph glyph-name="Ograve" unicode="&#xd2;" horiz-adv-x="399" 
d="M199 -6q-75 0 -115.5 46t-40.5 139v295q0 95 40.5 141t115.5 46t116 -46t41 -141v-295q0 -93 -41 -139t-116 -46zM199 57q45 0 68.5 30.5t23.5 96.5v286q0 67 -23.5 97.5t-68.5 30.5q-44 0 -67.5 -30.5t-23.5 -97.5v-286q0 -66 23.5 -96.5t67.5 -30.5zM197 714
q-10 0 -12 6l-61 100q-3 5 -1.5 8.5t5.5 3.5h52q5 0 7 -2t4 -5l52 -102q2 -4 1 -6.5t-5 -2.5h-42z" />
    <glyph glyph-name="Oacute" unicode="&#xd3;" horiz-adv-x="399" 
d="M199 -6q-75 0 -115.5 46t-40.5 139v295q0 95 40.5 141t115.5 46t116 -46t41 -141v-295q0 -93 -41 -139t-116 -46zM199 57q45 0 68.5 30.5t23.5 96.5v286q0 67 -23.5 97.5t-68.5 30.5q-44 0 -67.5 -30.5t-23.5 -97.5v-286q0 -66 23.5 -96.5t67.5 -30.5zM157 714
q-4 0 -5 2.5t1 6.5l52 102q5 7 11 7h52q5 0 6 -3.5t-2 -8.5l-61 -100q-2 -6 -12 -6h-42z" />
    <glyph glyph-name="Ocircumflex" unicode="&#xd4;" horiz-adv-x="399" 
d="M199 -6q-75 0 -115.5 46t-40.5 139v295q0 95 40.5 141t115.5 46t116 -46t41 -141v-295q0 -93 -41 -139t-116 -46zM199 57q45 0 68.5 30.5t23.5 96.5v286q0 67 -23.5 97.5t-68.5 30.5q-44 0 -67.5 -30.5t-23.5 -97.5v-286q0 -66 23.5 -96.5t67.5 -30.5zM123 723
q-8 -4 -8 3v38q0 7 4 10l75 37q5 3 10 0l75 -37q4 -3 4 -10v-38q0 -6 -8 -3l-76 34z" />
    <glyph glyph-name="Otilde" unicode="&#xd5;" horiz-adv-x="399" 
d="M199 -6q-75 0 -115.5 46t-40.5 139v295q0 95 40.5 141t115.5 46t116 -46t41 -141v-295q0 -93 -41 -139t-116 -46zM199 57q45 0 68.5 30.5t23.5 96.5v286q0 67 -23.5 97.5t-68.5 30.5q-44 0 -67.5 -30.5t-23.5 -97.5v-286q0 -66 23.5 -96.5t67.5 -30.5zM230 727
q-22 0 -35 7.5t-30 7.5q-13 0 -22.5 -3.5t-17.5 -8.5t-8 5v37q0 8 4 11q6 6 18 12t31 6q22 0 35 -7.5t29 -7.5q14 0 24 3.5t18 8.5q8 4 8 -6v-36q0 -8 -4 -12q-7 -6 -18.5 -11.5t-31.5 -5.5z" />
    <glyph glyph-name="Odieresis" unicode="&#xd6;" horiz-adv-x="399" 
d="M199 -6q-75 0 -115.5 46t-40.5 139v295q0 95 40.5 141t115.5 46t116 -46t41 -141v-295q0 -93 -41 -139t-116 -46zM199 57q45 0 68.5 30.5t23.5 96.5v286q0 67 -23.5 97.5t-68.5 30.5q-44 0 -67.5 -30.5t-23.5 -97.5v-286q0 -66 23.5 -96.5t67.5 -30.5zM143 723
q-20 0 -30.5 10.5t-10.5 30.5v8q0 20 10.5 31t30.5 11t30.5 -11t10.5 -31v-8q0 -20 -10.5 -30.5t-30.5 -10.5zM255 723q-19 0 -29.5 10.5t-10.5 30.5v8q0 20 10.5 31t29.5 11q21 0 31 -11t10 -31v-8q0 -20 -10 -30.5t-31 -10.5z" />
    <glyph glyph-name="multiply" unicode="&#xd7;" horiz-adv-x="420" 
d="M134 195l-30 30q-5 7 0 12l64 64l-64 64q-4 6 0 12l30 30q7 7 13 0l64 -63l63 63q6 5 12 0l30 -30q7 -6 0 -13l-63 -63l63 -63q7 -6 0 -13l-30 -30q-6 -4 -12 0l-63 63l-64 -63q-6 -6 -13 0z" />
    <glyph glyph-name="Oslash" unicode="&#xd8;" horiz-adv-x="399" 
d="M40 -50q-6 0 -3 8l42 118l19 51l168 464l11 33l27 75q1 6 8 6h45q8 0 5 -9l-41 -113l-22 -59l-166 -461l-11 -34l-27 -73q-1 -6 -7 -6h-48zM199 -6q-75 0 -115.5 46t-40.5 139v295q0 95 40.5 141t115.5 46t116 -46t41 -141v-295q0 -93 -41 -139t-116 -46zM199 57
q45 0 68.5 30.5t23.5 96.5v286q0 67 -23.5 97.5t-68.5 30.5q-44 0 -67.5 -30.5t-23.5 -97.5v-286q0 -66 23.5 -96.5t67.5 -30.5z" />
    <glyph glyph-name="Ugrave" unicode="&#xd9;" horiz-adv-x="401" 
d="M200 -6q-79 0 -115.5 51t-36.5 154v448q0 8 7 8h51q7 0 7 -8v-447q0 -74 20.5 -108.5t66.5 -34.5q47 0 67.5 34t20.5 109v447q0 8 7 8h51q7 0 7 -8v-448q0 -103 -38 -154t-115 -51zM198 714q-10 0 -12 6l-61 100q-3 5 -1.5 8.5t5.5 3.5h52q5 0 7 -2t4 -5l52 -102
q2 -4 1 -6.5t-5 -2.5h-42z" />
    <glyph glyph-name="Uacute" unicode="&#xda;" horiz-adv-x="401" 
d="M200 -6q-79 0 -115.5 51t-36.5 154v448q0 8 7 8h51q7 0 7 -8v-447q0 -74 20.5 -108.5t66.5 -34.5q47 0 67.5 34t20.5 109v447q0 8 7 8h51q7 0 7 -8v-448q0 -103 -38 -154t-115 -51zM158 714q-4 0 -5 2.5t1 6.5l52 102q5 7 11 7h52q5 0 6 -3.5t-2 -8.5l-61 -100
q-2 -6 -12 -6h-42z" />
    <glyph glyph-name="Ucircumflex" unicode="&#xdb;" horiz-adv-x="401" 
d="M200 -6q-79 0 -115.5 51t-36.5 154v448q0 8 7 8h51q7 0 7 -8v-447q0 -74 20.5 -108.5t66.5 -34.5q47 0 67.5 34t20.5 109v447q0 8 7 8h51q7 0 7 -8v-448q0 -103 -38 -154t-115 -51zM124 723q-8 -4 -8 3v38q0 7 4 10l75 37q5 3 10 0l75 -37q4 -3 4 -10v-38q0 -6 -8 -3
l-76 34z" />
    <glyph glyph-name="Udieresis" unicode="&#xdc;" horiz-adv-x="401" 
d="M200 -6q-79 0 -115.5 51t-36.5 154v448q0 8 7 8h51q7 0 7 -8v-447q0 -74 20.5 -108.5t66.5 -34.5q47 0 67.5 34t20.5 109v447q0 8 7 8h51q7 0 7 -8v-448q0 -103 -38 -154t-115 -51zM144 723q-20 0 -30.5 10.5t-10.5 30.5v8q0 20 10.5 31t30.5 11t30.5 -11t10.5 -31v-8
q0 -20 -10.5 -30.5t-30.5 -10.5zM256 723q-19 0 -29.5 10.5t-10.5 30.5v8q0 20 10.5 31t29.5 11q21 0 31 -11t10 -31v-8q0 -20 -10 -30.5t-31 -10.5z" />
    <glyph glyph-name="Yacute" unicode="&#xdd;" horiz-adv-x="343" 
d="M146 0q-7 0 -7 9v215l-130 420q-3 11 5 11h59q6 0 7 -6l61 -226q8 -28 15.5 -57.5t14.5 -58.5h1q8 29 16 58.5t15 58.5l61 225q2 6 7 6h57q8 0 6 -11l-130 -419v-216q0 -9 -6 -9h-52zM129 714q-4 0 -5 2.5t1 6.5l52 102q5 7 11 7h52q5 0 6 -3.5t-2 -8.5l-61 -100
q-2 -6 -12 -6h-42z" />
    <glyph glyph-name="Thorn" unicode="&#xde;" horiz-adv-x="343" 
d="M59 0q-7 0 -7 9v637q0 9 7 9h51q7 0 7 -9v-106h38q85 0 124.5 -48.5t39.5 -151.5q0 -98 -40 -149.5t-118 -51.5h-44v-130q0 -9 -7 -9h-51zM117 202h38q52 0 75.5 32.5t23.5 102.5q0 77 -23.5 109.5t-71.5 32.5h-42v-277z" />
    <glyph glyph-name="germandbls" unicode="&#xdf;" horiz-adv-x="344" 
d="M227 -6q-48 0 -70.5 27.5t-20.5 84.5q0 8 6 8h49q6 0 6 -9q0 -25 7.5 -36.5t23.5 -11.5q19 0 26 13.5t7 50.5q0 32 -10 54.5t-24 41t-28.5 38.5t-24.5 46t-10 65q0 28 8 51t18 45t18 46t8 53q0 35 -12.5 50t-38.5 15q-29 0 -41.5 -20t-12.5 -70v-527q0 -9 -6 -9h-53
q-6 0 -6 9v518q0 86 28.5 124t92.5 38q56 0 85 -30t29 -92q0 -37 -8 -64t-18 -48t-18 -41t-8 -44q0 -29 10 -49.5t24 -38.5t28.5 -39t24.5 -49.5t10 -70.5q0 -64 -24.5 -96.5t-74.5 -32.5z" />
    <glyph glyph-name="agrave" unicode="&#xe0;" horiz-adv-x="316" 
d="M222 0q-6 0 -7 9q-2 18 -4 45.5t-2 46.5l-4 5v252q0 41 -9.5 56.5t-38.5 15.5q-28 0 -39 -15.5t-8 -50.5q0 -9 -8 -9h-44q-10 0 -11 12q-5 59 23.5 92t87.5 33q61 0 86.5 -29t25.5 -103v-240q0 -40 1 -68t2 -42q1 -10 -5 -10h-46zM115 -6q-39 0 -60.5 34t-21.5 95
q0 68 30 109.5t98 48.5l52 6v-53l-45 -6q-35 -4 -52.5 -29t-17.5 -71q0 -33 10 -52t27 -19t34.5 13.5t45.5 50.5l3 -58q-30 -37 -52 -53t-51 -16zM158 557q-7 0 -12 6l-71 119q-3 5 -1.5 8t5.5 3h51q7 0 10 -7l63 -120q2 -4 1 -6.5t-6 -2.5h-40z" />
    <glyph glyph-name="aacute" unicode="&#xe1;" horiz-adv-x="316" 
d="M222 0q-6 0 -7 9q-2 18 -4 45.5t-2 46.5l-4 5v252q0 41 -9.5 56.5t-38.5 15.5q-28 0 -39 -15.5t-8 -50.5q0 -9 -8 -9h-44q-10 0 -11 12q-5 59 23.5 92t87.5 33q61 0 86.5 -29t25.5 -103v-240q0 -40 1 -68t2 -42q1 -10 -5 -10h-46zM115 -6q-39 0 -60.5 34t-21.5 95
q0 68 30 109.5t98 48.5l52 6v-53l-45 -6q-35 -4 -52.5 -29t-17.5 -71q0 -33 10 -52t27 -19t34.5 13.5t45.5 50.5l3 -58q-30 -37 -52 -53t-51 -16zM120 557q-4 0 -5 2.5t1 6.5l63 120q3 7 10 7h50q5 0 6.5 -3t-1.5 -8l-71 -119q-4 -6 -13 -6h-40z" />
    <glyph glyph-name="acircumflex" unicode="&#xe2;" horiz-adv-x="316" 
d="M222 0q-6 0 -7 9q-2 18 -4 45.5t-2 46.5l-4 5v252q0 41 -9.5 56.5t-38.5 15.5q-28 0 -39 -15.5t-8 -50.5q0 -9 -8 -9h-44q-10 0 -11 12q-5 59 23.5 92t87.5 33q61 0 86.5 -29t25.5 -103v-240q0 -40 1 -68t2 -42q1 -10 -5 -10h-46zM115 -6q-39 0 -60.5 34t-21.5 95
q0 68 30 109.5t98 48.5l52 6v-53l-45 -6q-35 -4 -52.5 -29t-17.5 -71q0 -33 10 -52t27 -19t34.5 13.5t45.5 50.5l3 -58q-30 -37 -52 -53t-51 -16zM89 558q-8 -4 -8 4v41q0 8 4 10l70 40q5 3 10 0l71 -40q3 -2 3 -10v-41q0 -7 -8 -4l-71 39z" />
    <glyph glyph-name="atilde" unicode="&#xe3;" horiz-adv-x="316" 
d="M222 0q-6 0 -7 9q-2 18 -4 45.5t-2 46.5l-4 5v252q0 41 -9.5 56.5t-38.5 15.5q-28 0 -39 -15.5t-8 -50.5q0 -9 -8 -9h-44q-10 0 -11 12q-5 59 23.5 92t87.5 33q61 0 86.5 -29t25.5 -103v-240q0 -40 1 -68t2 -42q1 -10 -5 -10h-46zM115 -6q-39 0 -60.5 34t-21.5 95
q0 68 30 109.5t98 48.5l52 6v-53l-45 -6q-35 -4 -52.5 -29t-17.5 -71q0 -33 10 -52t27 -19t34.5 13.5t45.5 50.5l3 -58q-30 -37 -52 -53t-51 -16zM189 569q-14 0 -24.5 4t-19 7.5t-18.5 3.5t-19.5 -4t-17.5 -9t-8 5v37q0 8 4 11q6 7 18.5 12.5t27.5 5.5t24.5 -3.5t18 -7.5
t18.5 -4q11 0 20 3.5t17 8.5q9 4 9 -6v-36q0 -8 -4 -11q-7 -7 -19 -12t-27 -5z" />
    <glyph glyph-name="adieresis" unicode="&#xe4;" horiz-adv-x="316" 
d="M222 0q-6 0 -7 9q-2 18 -4 45.5t-2 46.5l-4 5v252q0 41 -9.5 56.5t-38.5 15.5q-28 0 -39 -15.5t-8 -50.5q0 -9 -8 -9h-44q-10 0 -11 12q-5 59 23.5 92t87.5 33q61 0 86.5 -29t25.5 -103v-240q0 -40 1 -68t2 -42q1 -10 -5 -10h-46zM115 -6q-39 0 -60.5 34t-21.5 95
q0 68 30 109.5t98 48.5l52 6v-53l-45 -6q-35 -4 -52.5 -29t-17.5 -71q0 -33 10 -52t27 -19t34.5 13.5t45.5 50.5l3 -58q-30 -37 -52 -53t-51 -16zM104 578q-20 0 -30.5 11t-10.5 30v9q0 20 10.5 30.5t30.5 10.5t30.5 -10.5t10.5 -30.5v-9q0 -19 -10.5 -30t-30.5 -11z
M216 578q-19 0 -29.5 11t-10.5 30v9q0 20 10.5 30.5t29.5 10.5q21 0 31 -10.5t10 -30.5v-9q0 -19 -10 -30t-31 -11z" />
    <glyph glyph-name="aring" unicode="&#xe5;" horiz-adv-x="316" 
d="M222 0q-6 0 -7 9q-2 18 -4 45.5t-2 46.5l-4 5v252q0 41 -9.5 56.5t-38.5 15.5q-28 0 -39 -15.5t-8 -50.5q0 -9 -8 -9h-44q-10 0 -11 12q-5 59 23.5 92t87.5 33q61 0 86.5 -29t25.5 -103v-240q0 -40 1 -68t2 -42q1 -10 -5 -10h-46zM115 -6q-39 0 -60.5 34t-21.5 95
q0 68 30 109.5t98 48.5l52 6v-53l-45 -6q-35 -4 -52.5 -29t-17.5 -71q0 -33 10 -52t27 -19t34.5 13.5t45.5 50.5l3 -58q-30 -37 -52 -53t-51 -16zM160 550q-34 0 -53.5 22t-19.5 60q0 39 19.5 61t53.5 22q35 0 54.5 -22t19.5 -61q0 -38 -19.5 -60t-54.5 -22zM160 588
q30 0 30 44t-30 44q-29 0 -29 -44t29 -44z" />
    <glyph glyph-name="ae" unicode="&#xe6;" horiz-adv-x="486" 
d="M115 -6q-39 0 -60.5 34t-21.5 95q0 68 30 109t98 51l44 7v68q0 41 -9.5 56.5t-38.5 15.5q-28 0 -37.5 -15.5t-9.5 -50.5q0 -9 -8 -9h-44q-10 0 -11 12q-5 59 23.5 92t87.5 33q34 0 53 -10.5t33 -33.5q16 23 38 33.5t48 10.5q58 0 89.5 -39.5t31.5 -117.5v-99q0 -8 -7 -8
h-174v-61q0 -58 15.5 -84t46.5 -26q27 0 39.5 16.5t12.5 49.5q0 10 6 10h49q7 0 7 -8q0 -63 -29.5 -97t-84.5 -34q-41 0 -69 18t-42 54q-28 -34 -51 -53t-55 -19zM135 57q16 0 32.5 12t41.5 45q-1 10 -2.5 21t-1.5 24v73l-37 -5q-35 -4 -52.5 -28.5t-17.5 -70.5
q0 -33 10 -52t27 -19zM270 289h116v45q0 51 -14 73.5t-43 22.5q-30 0 -44.5 -23t-14.5 -73v-45z" />
    <glyph glyph-name="ccedilla" unicode="&#xe7;" horiz-adv-x="326" 
d="M169 -6q-67 0 -99 40.5t-32 124.5v169q0 83 32 123.5t99 40.5q41 0 69 -17t41 -49t10 -77q0 -12 -8 -12h-47q-4 0 -5.5 2.5t-0.5 6.5q2 39 -13 61.5t-46 22.5q-35 0 -50.5 -23.5t-15.5 -80.5v-166q0 -55 15.5 -79t50.5 -24q31 0 45 20t12 62q0 11 8 11h47q8 0 8 -9
q0 -73 -29.5 -110t-90.5 -37zM170 -191q-13 0 -22.5 1.5t-16.5 2.5q-6 2 -6 8v31q0 8 6 6q4 -1 9.5 -1.5t13.5 -0.5q13 0 18.5 6.5t5.5 22.5v13q0 17 -7.5 23.5t-18.5 6.5h-12q-5 0 -5 7v9t1 9l19 71q2 5 7 5h33q6 0 5 -9l-19 -58h4q19 0 31 -13t12 -45v-21
q0 -39 -14.5 -56.5t-43.5 -17.5z" />
    <glyph glyph-name="egrave" unicode="&#xe8;" horiz-adv-x="327" 
d="M169 -6q-67 0 -99 42t-32 130v167q0 83 32 121t95 38q62 0 94.5 -39.5t32.5 -117.5v-99q0 -8 -7 -8h-182v-61q0 -58 15.5 -84t50.5 -26q30 0 44 16.5t12 49.5q-2 10 6 10h48q7 0 7 -8q2 -63 -28.5 -97t-88.5 -34zM103 289h124v45q0 51 -14.5 73.5t-47.5 22.5
q-32 0 -47 -23t-15 -73v-45zM162 557q-7 0 -12 6l-71 119q-3 5 -1.5 8t5.5 3h51q7 0 10 -7l63 -120q2 -4 1 -6.5t-6 -2.5h-40z" />
    <glyph glyph-name="eacute" unicode="&#xe9;" horiz-adv-x="327" 
d="M169 -6q-67 0 -99 42t-32 130v167q0 83 32 121t95 38q62 0 94.5 -39.5t32.5 -117.5v-99q0 -8 -7 -8h-182v-61q0 -58 15.5 -84t50.5 -26q30 0 44 16.5t12 49.5q-2 10 6 10h48q7 0 7 -8q2 -63 -28.5 -97t-88.5 -34zM103 289h124v45q0 51 -14.5 73.5t-47.5 22.5
q-32 0 -47 -23t-15 -73v-45zM124 557q-4 0 -5 2.5t1 6.5l63 120q3 7 10 7h50q5 0 6.5 -3t-1.5 -8l-71 -119q-4 -6 -13 -6h-40z" />
    <glyph glyph-name="ecircumflex" unicode="&#xea;" horiz-adv-x="327" 
d="M169 -6q-67 0 -99 42t-32 130v167q0 83 32 121t95 38q62 0 94.5 -39.5t32.5 -117.5v-99q0 -8 -7 -8h-182v-61q0 -58 15.5 -84t50.5 -26q30 0 44 16.5t12 49.5q-2 10 6 10h48q7 0 7 -8q2 -63 -28.5 -97t-88.5 -34zM103 289h124v45q0 51 -14.5 73.5t-47.5 22.5
q-32 0 -47 -23t-15 -73v-45zM93 558q-8 -4 -8 4v41q0 8 4 10l70 40q5 3 10 0l71 -40q3 -2 3 -10v-41q0 -7 -8 -4l-71 39z" />
    <glyph glyph-name="edieresis" unicode="&#xeb;" horiz-adv-x="327" 
d="M169 -6q-67 0 -99 42t-32 130v167q0 83 32 121t95 38q62 0 94.5 -39.5t32.5 -117.5v-99q0 -8 -7 -8h-182v-61q0 -58 15.5 -84t50.5 -26q30 0 44 16.5t12 49.5q-2 10 6 10h48q7 0 7 -8q2 -63 -28.5 -97t-88.5 -34zM103 289h124v45q0 51 -14.5 73.5t-47.5 22.5
q-32 0 -47 -23t-15 -73v-45zM108 578q-20 0 -30.5 11t-10.5 30v9q0 20 10.5 30.5t30.5 10.5t30.5 -10.5t10.5 -30.5v-9q0 -19 -10.5 -30t-30.5 -11zM220 578q-19 0 -29.5 11t-10.5 30v9q0 20 10.5 30.5t29.5 10.5q21 0 31 -10.5t10 -30.5v-9q0 -19 -10 -30t-31 -11z" />
    <glyph glyph-name="igrave" unicode="&#xec;" horiz-adv-x="157" 
d="M53 0q-7 0 -7 9v468q0 9 7 9h51q7 0 7 -9v-468q0 -9 -7 -9h-51zM77 557q-7 0 -12 6l-71 119q-3 5 -1.5 8t5.5 3h51q7 0 10 -7l63 -120q2 -4 1 -6.5t-6 -2.5h-40z" />
    <glyph glyph-name="iacute" unicode="&#xed;" horiz-adv-x="157" 
d="M53 0q-7 0 -7 9v468q0 9 7 9h51q7 0 7 -9v-468q0 -9 -7 -9h-51zM39 557q-4 0 -5 2.5t1 6.5l63 120q3 7 10 7h50q5 0 6.5 -3t-1.5 -8l-71 -119q-4 -6 -13 -6h-40z" />
    <glyph glyph-name="icircumflex" unicode="&#xee;" horiz-adv-x="157" 
d="M53 0q-7 0 -7 9v468q0 9 7 9h51q7 0 7 -9v-468q0 -9 -7 -9h-51zM8 558q-8 -4 -8 4v41q0 8 4 10l70 40q5 3 10 0l71 -40q3 -2 3 -10v-41q0 -7 -8 -4l-71 39z" />
    <glyph glyph-name="idieresis" unicode="&#xef;" horiz-adv-x="157" 
d="M53 0q-7 0 -7 9v468q0 9 7 9h51q7 0 7 -9v-468q0 -9 -7 -9h-51zM23 578q-20 0 -30.5 11t-10.5 30v9q0 20 10.5 30.5t30.5 10.5t30.5 -10.5t10.5 -30.5v-9q0 -19 -10.5 -30t-30.5 -11zM135 578q-19 0 -29.5 11t-10.5 30v9q0 20 10.5 30.5t29.5 10.5q21 0 31 -10.5
t10 -30.5v-9q0 -19 -10 -30t-31 -11z" />
    <glyph glyph-name="eth" unicode="&#xf0;" horiz-adv-x="338" 
d="M169 -6q-67 0 -99 39.5t-32 121.5v164q0 73 28 107.5t74 34.5q32 0 60 -18t44 -41v-68q-16 25 -38.5 44.5t-48.5 19.5q-25 0 -39.5 -19.5t-14.5 -63.5v-159q0 -53 16 -76t50 -23q35 0 50.5 23t15.5 76v209q2 73 -10 126t-39 89.5t-72 56.5q-6 3 -6.5 6.5t1.5 7.5l22 33
q3 5 6 5.5t8 -1.5q76 -33 115.5 -114t39.5 -209v-210q0 -82 -32 -121.5t-99 -39.5zM132 521q-5 -4 -9 1l-21 32q-3 5 4 10l154 114q6 3 9 -2l19 -29q4 -6 -2 -10z" />
    <glyph glyph-name="ntilde" unicode="&#xf1;" horiz-adv-x="347" 
d="M243 0q-7 0 -7 9v357q0 33 -10 48.5t-32 15.5q-20 0 -42.5 -16.5t-47.5 -48.5l-5 54q29 36 57.5 54.5t61.5 18.5q41 0 62 -30t21 -92v-361q0 -9 -7 -9h-51zM53 0q-7 0 -7 9v357q0 42 -0.5 68.5t-2.5 40.5q-1 11 6 11h43q8 0 9 -9q3 -19 4.5 -48t1.5 -44l4 -6v-370
q0 -9 -7 -9h-51zM205 569q-14 0 -24.5 4t-19 7.5t-18.5 3.5t-19.5 -4t-17.5 -9t-8 5v37q0 8 4 11q6 7 18.5 12.5t27.5 5.5t24.5 -3.5t18 -7.5t18.5 -4q11 0 20 3.5t17 8.5q9 4 9 -6v-36q0 -8 -4 -11q-7 -7 -19 -12t-27 -5z" />
    <glyph glyph-name="ograve" unicode="&#xf2;" horiz-adv-x="338" 
d="M169 -6q-67 0 -99 39.5t-32 121.5v175q0 83 32 122.5t99 39.5t99 -39.5t32 -122.5v-175q0 -82 -32 -121.5t-99 -39.5zM169 57q35 0 50.5 23t15.5 76v172q0 54 -15.5 78t-50.5 24t-50.5 -24t-15.5 -78v-172q0 -53 16 -76t50 -23zM167 557q-7 0 -12 6l-71 119q-3 5 -1.5 8
t5.5 3h51q7 0 10 -7l63 -120q2 -4 1 -6.5t-6 -2.5h-40z" />
    <glyph glyph-name="oacute" unicode="&#xf3;" horiz-adv-x="338" 
d="M169 -6q-67 0 -99 39.5t-32 121.5v175q0 83 32 122.5t99 39.5t99 -39.5t32 -122.5v-175q0 -82 -32 -121.5t-99 -39.5zM169 57q35 0 50.5 23t15.5 76v172q0 54 -15.5 78t-50.5 24t-50.5 -24t-15.5 -78v-172q0 -53 16 -76t50 -23zM129 557q-4 0 -5 2.5t1 6.5l63 120
q3 7 10 7h50q5 0 6.5 -3t-1.5 -8l-71 -119q-4 -6 -13 -6h-40z" />
    <glyph glyph-name="ocircumflex" unicode="&#xf4;" horiz-adv-x="338" 
d="M169 -6q-67 0 -99 39.5t-32 121.5v175q0 83 32 122.5t99 39.5t99 -39.5t32 -122.5v-175q0 -82 -32 -121.5t-99 -39.5zM169 57q35 0 50.5 23t15.5 76v172q0 54 -15.5 78t-50.5 24t-50.5 -24t-15.5 -78v-172q0 -53 16 -76t50 -23zM98 558q-8 -4 -8 4v41q0 8 4 10l70 40
q5 3 10 0l71 -40q3 -2 3 -10v-41q0 -7 -8 -4l-71 39z" />
    <glyph glyph-name="otilde" unicode="&#xf5;" horiz-adv-x="338" 
d="M169 -6q-67 0 -99 39.5t-32 121.5v175q0 83 32 122.5t99 39.5t99 -39.5t32 -122.5v-175q0 -82 -32 -121.5t-99 -39.5zM169 57q35 0 50.5 23t15.5 76v172q0 54 -15.5 78t-50.5 24t-50.5 -24t-15.5 -78v-172q0 -53 16 -76t50 -23zM198 569q-14 0 -24.5 4t-19 7.5t-18.5 3.5
t-19.5 -4t-17.5 -9t-8 5v37q0 8 4 11q6 7 18.5 12.5t27.5 5.5t24.5 -3.5t18 -7.5t18.5 -4q11 0 20 3.5t17 8.5q9 4 9 -6v-36q0 -8 -4 -11q-7 -7 -19 -12t-27 -5z" />
    <glyph glyph-name="odieresis" unicode="&#xf6;" horiz-adv-x="338" 
d="M169 -6q-67 0 -99 39.5t-32 121.5v175q0 83 32 122.5t99 39.5t99 -39.5t32 -122.5v-175q0 -82 -32 -121.5t-99 -39.5zM169 57q35 0 50.5 23t15.5 76v172q0 54 -15.5 78t-50.5 24t-50.5 -24t-15.5 -78v-172q0 -53 16 -76t50 -23zM113 578q-20 0 -30.5 11t-10.5 30v9
q0 20 10.5 30.5t30.5 10.5t30.5 -10.5t10.5 -30.5v-9q0 -19 -10.5 -30t-30.5 -11zM225 578q-19 0 -29.5 11t-10.5 30v9q0 20 10.5 30.5t29.5 10.5q21 0 31 -10.5t10 -30.5v-9q0 -19 -10 -30t-31 -11z" />
    <glyph glyph-name="divide" unicode="&#xf7;" horiz-adv-x="420" 
d="M95 271q-9 0 -9 8v43q0 9 9 9h231q9 0 9 -9v-43q0 -8 -9 -8h-231zM211 126q-17 0 -26 10t-9 27v16q0 18 9 28t26 10t25.5 -10t8.5 -28v-16q0 -17 -8.5 -27t-25.5 -10zM211 383q-17 0 -26 10.5t-9 26.5v17q0 17 9 27t26 10t25.5 -10t8.5 -27v-17q0 -16 -8.5 -26.5
t-25.5 -10.5z" />
    <glyph glyph-name="oslash" unicode="&#xf8;" horiz-adv-x="338" 
d="M23 -51q-4 0 -5 3t1 7l54 130l14 31l132 311l11 27l32 75q3 4 8 4h44q9 0 5 -9l-48 -113l-15 -35l-140 -328l-8 -21l-33 -77q-3 -5 -8 -5h-44zM169 -6q-67 0 -99 39.5t-32 121.5v175q0 83 32 122.5t99 39.5t99 -39.5t32 -122.5v-175q0 -82 -32 -121.5t-99 -39.5zM169 57
q35 0 50.5 23t15.5 76v172q0 54 -15.5 78t-50.5 24t-50.5 -24t-15.5 -78v-172q0 -53 16 -76t50 -23z" />
    <glyph glyph-name="ugrave" unicode="&#xf9;" horiz-adv-x="339" 
d="M129 -6q-46 0 -64.5 29.5t-18.5 92.5v361q0 9 7 9h51q7 0 7 -9v-360q0 -36 8.5 -48t27.5 -12q26 0 49.5 20t45.5 54l6 -56q-26 -35 -56 -58t-63 -23zM246 0q-6 0 -8 9q-2 21 -3.5 49.5t-1.5 42.5l-5 6v370q0 9 8 9h50q7 0 7 -9v-357q0 -42 1 -68.5t2 -40.5q1 -11 -6 -11
h-44zM168 557q-7 0 -12 6l-71 119q-3 5 -1.5 8t5.5 3h51q7 0 10 -7l63 -120q2 -4 1 -6.5t-6 -2.5h-40z" />
    <glyph glyph-name="uacute" unicode="&#xfa;" horiz-adv-x="339" 
d="M129 -6q-46 0 -64.5 29.5t-18.5 92.5v361q0 9 7 9h51q7 0 7 -9v-360q0 -36 8.5 -48t27.5 -12q26 0 49.5 20t45.5 54l6 -56q-26 -35 -56 -58t-63 -23zM246 0q-6 0 -8 9q-2 21 -3.5 49.5t-1.5 42.5l-5 6v370q0 9 8 9h50q7 0 7 -9v-357q0 -42 1 -68.5t2 -40.5q1 -11 -6 -11
h-44zM130 557q-4 0 -5 2.5t1 6.5l63 120q3 7 10 7h50q5 0 6.5 -3t-1.5 -8l-71 -119q-4 -6 -13 -6h-40z" />
    <glyph glyph-name="ucircumflex" unicode="&#xfb;" horiz-adv-x="339" 
d="M129 -6q-46 0 -64.5 29.5t-18.5 92.5v361q0 9 7 9h51q7 0 7 -9v-360q0 -36 8.5 -48t27.5 -12q26 0 49.5 20t45.5 54l6 -56q-26 -35 -56 -58t-63 -23zM246 0q-6 0 -8 9q-2 21 -3.5 49.5t-1.5 42.5l-5 6v370q0 9 8 9h50q7 0 7 -9v-357q0 -42 1 -68.5t2 -40.5q1 -11 -6 -11
h-44zM99 558q-8 -4 -8 4v41q0 8 4 10l70 40q5 3 10 0l71 -40q3 -2 3 -10v-41q0 -7 -8 -4l-71 39z" />
    <glyph glyph-name="udieresis" unicode="&#xfc;" horiz-adv-x="339" 
d="M129 -6q-46 0 -64.5 29.5t-18.5 92.5v361q0 9 7 9h51q7 0 7 -9v-360q0 -36 8.5 -48t27.5 -12q26 0 49.5 20t45.5 54l6 -56q-26 -35 -56 -58t-63 -23zM246 0q-6 0 -8 9q-2 21 -3.5 49.5t-1.5 42.5l-5 6v370q0 9 8 9h50q7 0 7 -9v-357q0 -42 1 -68.5t2 -40.5q1 -11 -6 -11
h-44zM114 578q-20 0 -30.5 11t-10.5 30v9q0 20 10.5 30.5t30.5 10.5t30.5 -10.5t10.5 -30.5v-9q0 -19 -10.5 -30t-30.5 -11zM226 578q-19 0 -29.5 11t-10.5 30v9q0 20 10.5 30.5t29.5 10.5q21 0 31 -10.5t10 -30.5v-9q0 -19 -10 -30t-31 -11z" />
    <glyph glyph-name="yacute" unicode="&#xfd;" horiz-adv-x="317" 
d="M91 -185q-7 0 -5 11l43 180l-111 470q-3 10 4 10h56q7 0 8 -7l48 -237q8 -33 13.5 -68t10.5 -68h2q5 33 11.5 68.5t13.5 68.5l46 236q1 7 8 7h54q3 0 5 -3t0 -8l-148 -653q-1 -7 -8 -7h-51zM118 557q-4 0 -5 2.5t1 6.5l63 120q3 7 10 7h50q5 0 6.5 -3t-1.5 -8l-71 -119
q-4 -6 -13 -6h-40z" />
    <glyph glyph-name="thorn" unicode="&#xfe;" horiz-adv-x="336" 
d="M53 -185q-7 0 -7 9v850q0 9 7 9h51q7 0 7 -9v-236q23 26 48 40t53 14q42 0 63 -28.5t21 -91.5v-217q0 -81 -25.5 -121t-74.5 -40q-22 0 -44 6.5t-41 16.5v-193q0 -9 -7 -9h-51zM179 57q26 0 39 23.5t13 76.5v209q0 35 -9.5 49.5t-29.5 14.5t-40.5 -15t-40.5 -39v-299
q15 -8 32.5 -14t35.5 -6z" />
    <glyph glyph-name="ydieresis" unicode="&#xff;" horiz-adv-x="317" 
d="M91 -185q-7 0 -5 11l43 180l-111 470q-3 10 4 10h56q7 0 8 -7l48 -237q8 -33 13.5 -68t10.5 -68h2q5 33 11.5 68.5t13.5 68.5l46 236q1 7 8 7h54q3 0 5 -3t0 -8l-148 -653q-1 -7 -8 -7h-51zM102 578q-20 0 -30.5 11t-10.5 30v9q0 20 10.5 30.5t30.5 10.5t30.5 -10.5
t10.5 -30.5v-9q0 -19 -10.5 -30t-30.5 -11zM214 578q-19 0 -29.5 11t-10.5 30v9q0 20 10.5 30.5t29.5 10.5q21 0 31 -10.5t10 -30.5v-9q0 -19 -10 -30t-31 -11z" />
    <glyph glyph-name="Amacron" unicode="&#x100;" horiz-adv-x="345" 
d="M4 0q-7 0 -6 10l130 638q1 7 9 7h70q8 0 9 -7l131 -638q1 -10 -6 -10h-55q-6 0 -8 6l-81 433q-7 35 -13.5 69.5t-11.5 69.5h-2q-5 -35 -10.5 -69.5t-12.5 -70.5l-81 -432q-1 -6 -7 -6h-55zM84 161l12 63h150l14 -63h-176zM102 724q-8 0 -8 8v44q0 8 8 8h141q8 0 8 -8v-44
q0 -8 -8 -8h-141z" />
    <glyph glyph-name="amacron" unicode="&#x101;" horiz-adv-x="316" 
d="M222 0q-6 0 -7 9q-2 18 -4 45.5t-2 46.5l-4 5v252q0 41 -9.5 56.5t-38.5 15.5q-28 0 -39 -15.5t-8 -50.5q0 -9 -8 -9h-44q-10 0 -11 12q-5 59 23.5 92t87.5 33q61 0 86.5 -29t25.5 -103v-240q0 -40 1 -68t2 -42q1 -10 -5 -10h-46zM115 -6q-39 0 -60.5 34t-21.5 95
q0 68 30 109.5t98 48.5l52 6v-53l-45 -6q-35 -4 -52.5 -29t-17.5 -71q0 -33 10 -52t27 -19t34.5 13.5t45.5 50.5l3 -58q-30 -37 -52 -53t-51 -16zM98 572q-8 0 -8 8v45q0 8 8 8h123q8 0 8 -8v-45q0 -8 -8 -8h-123z" />
    <glyph glyph-name="Abreve" unicode="&#x102;" horiz-adv-x="345" 
d="M4 0q-7 0 -6 10l130 638q1 7 9 7h70q8 0 9 -7l131 -638q1 -10 -6 -10h-55q-6 0 -8 6l-81 433q-7 35 -13.5 69.5t-11.5 69.5h-2q-5 -35 -10.5 -69.5t-12.5 -70.5l-81 -432q-1 -6 -7 -6h-55zM84 161l12 63h150l14 -63h-176zM173 714q-29 0 -48 9t-32 17q-4 4 -4 11v39
q0 9 8 5q15 -10 33 -17.5t43 -7.5t42.5 7.5t32.5 17.5q3 2 6 1t3 -6v-39q0 -8 -5 -11q-13 -9 -31.5 -17.5t-47.5 -8.5z" />
    <glyph glyph-name="abreve" unicode="&#x103;" horiz-adv-x="316" 
d="M222 0q-6 0 -7 9q-2 18 -4 45.5t-2 46.5l-4 5v252q0 41 -9.5 56.5t-38.5 15.5q-28 0 -39 -15.5t-8 -50.5q0 -9 -8 -9h-44q-10 0 -11 12q-5 59 23.5 92t87.5 33q61 0 86.5 -29t25.5 -103v-240q0 -40 1 -68t2 -42q1 -10 -5 -10h-46zM115 -6q-39 0 -60.5 34t-21.5 95
q0 68 30 109.5t98 48.5l52 6v-53l-45 -6q-35 -4 -52.5 -29t-17.5 -71q0 -33 10 -52t27 -19t34.5 13.5t45.5 50.5l3 -58q-30 -37 -52 -53t-51 -16zM160 547q-24 0 -42 9t-31 18q-4 4 -4 11v38q0 5 2.5 6t5.5 -1q15 -11 32.5 -18t36.5 -7q20 0 37 7t32 18q3 2 5.5 1t2.5 -6
v-38q0 -7 -4 -11q-13 -10 -31 -18.5t-42 -8.5z" />
    <glyph glyph-name="Aogonek" unicode="&#x104;" horiz-adv-x="345" 
d="M4 0q-7 0 -6 10l130 638q1 7 9 7h70q8 0 9 -7l131 -638q1 -10 -6 -10h-55q-6 0 -8 6l-81 433q-7 35 -13.5 69.5t-11.5 69.5h-2q-5 -35 -10.5 -69.5t-12.5 -70.5l-81 -432q-1 -6 -7 -6h-55zM84 161l12 63h150l14 -63h-176zM313 -192q-35 0 -51 16t-16 52v9q0 38 21.5 72.5
t61.5 60.5l9 -11l2 -5q-19 -19 -31 -46.5t-12 -50.5v-10q0 -20 6.5 -27t19.5 -7h9t9 1q6 1 6 -6v-37q0 -7 -5 -8l-14 -2t-15 -1z" />
    <glyph glyph-name="aogonek" unicode="&#x105;" horiz-adv-x="316" 
d="M222 0q-6 0 -7 9q-2 18 -4 45.5t-2 46.5l-4 5v252q0 41 -9.5 56.5t-38.5 15.5q-28 0 -39 -15.5t-8 -50.5q0 -9 -8 -9h-44q-10 0 -11 12q-5 59 23.5 92t87.5 33q61 0 86.5 -29t25.5 -103v-240q0 -40 1 -68t2 -42q1 -10 -5 -10h-46zM115 -6q-39 0 -60.5 34t-21.5 95
q0 68 30 109.5t98 48.5l52 6v-53l-45 -6q-35 -4 -52.5 -29t-17.5 -71q0 -33 10 -52t27 -19t34.5 13.5t45.5 50.5l3 -58q-30 -37 -52 -53t-51 -16zM242 -192q-35 0 -51 16t-16 52v9q0 38 21.5 72.5t61.5 60.5l9 -11l2 -5q-19 -19 -31 -46.5t-12 -50.5v-10q0 -20 6.5 -27
t19.5 -7h9t9 1q6 1 6 -6v-37q0 -7 -5 -8l-14 -2t-15 -1z" />
    <glyph glyph-name="Cacute" unicode="&#x106;" horiz-adv-x="392" 
d="M199 -6q-76 0 -116 49t-40 148v273q0 99 40 148t116 49q55 0 91 -26.5t51 -75t7 -115.5q-2 -8 -7 -8h-51q-9 0 -7 10q6 75 -14.5 113.5t-69.5 38.5q-44 0 -67.5 -33t-23.5 -106v-263q0 -72 23.5 -105.5t67.5 -33.5q52 0 71.5 41t14.5 111q-2 10 7 10h47q9 0 10 -10
q6 -103 -32 -159t-118 -56zM156 714q-4 0 -5 2.5t1 6.5l52 102q5 7 11 7h52q5 0 6 -3.5t-2 -8.5l-61 -100q-2 -6 -12 -6h-42z" />
    <glyph glyph-name="cacute" unicode="&#x107;" horiz-adv-x="326" 
d="M169 -6q-67 0 -99 40.5t-32 124.5v169q0 83 32 123.5t99 40.5q41 0 69 -17t41 -49t10 -77q0 -12 -8 -12h-47q-4 0 -5.5 2.5t-0.5 6.5q2 39 -13 61.5t-46 22.5q-35 0 -50.5 -23.5t-15.5 -80.5v-166q0 -55 15.5 -79t50.5 -24q31 0 45 20t12 62q0 11 8 11h47q8 0 8 -9
q0 -73 -29.5 -110t-90.5 -37zM128 557q-4 0 -5 2.5t1 6.5l63 120q3 7 10 7h50q5 0 6.5 -3t-1.5 -8l-71 -119q-4 -6 -13 -6h-40z" />
    <glyph glyph-name="Cdotaccent" unicode="&#x10a;" horiz-adv-x="392" 
d="M199 -6q-76 0 -116 49t-40 148v273q0 99 40 148t116 49q55 0 91 -26.5t51 -75t7 -115.5q-2 -8 -7 -8h-51q-9 0 -7 10q6 75 -14.5 113.5t-69.5 38.5q-44 0 -67.5 -33t-23.5 -106v-263q0 -72 23.5 -105.5t67.5 -33.5q52 0 71.5 41t14.5 111q-2 10 7 10h47q9 0 10 -10
q6 -103 -32 -159t-118 -56zM198 735q-22 0 -33 11.5t-11 32.5v8q0 22 11 33.5t33 11.5t32.5 -11.5t10.5 -33.5v-8q0 -21 -10.5 -32.5t-32.5 -11.5z" />
    <glyph glyph-name="cdotaccent" unicode="&#x10b;" horiz-adv-x="326" 
d="M169 -6q-67 0 -99 40.5t-32 124.5v169q0 83 32 123.5t99 40.5q41 0 69 -17t41 -49t10 -77q0 -12 -8 -12h-47q-4 0 -5.5 2.5t-0.5 6.5q2 39 -13 61.5t-46 22.5q-35 0 -50.5 -23.5t-15.5 -80.5v-166q0 -55 15.5 -79t50.5 -24q31 0 45 20t12 62q0 11 8 11h47q8 0 8 -9
q0 -73 -29.5 -110t-90.5 -37zM168 575q-22 0 -33 11t-11 32v9q0 21 11 32.5t33 11.5t32.5 -11.5t10.5 -32.5v-9q0 -21 -10.5 -32t-32.5 -11z" />
    <glyph glyph-name="Ccaron" unicode="&#x10c;" horiz-adv-x="392" 
d="M199 -6q-76 0 -116 49t-40 148v273q0 99 40 148t116 49q55 0 91 -26.5t51 -75t7 -115.5q-2 -8 -7 -8h-51q-9 0 -7 10q6 75 -14.5 113.5t-69.5 38.5q-44 0 -67.5 -33t-23.5 -106v-263q0 -72 23.5 -105.5t67.5 -33.5q52 0 71.5 41t14.5 111q-2 10 7 10h47q9 0 10 -10
q6 -103 -32 -159t-118 -56zM194 723l-75 37q-4 3 -4 10v38q0 7 8 3l76 -34l76 34q8 3 8 -3v-38q0 -7 -4 -10l-75 -37q-5 -2 -10 0z" />
    <glyph glyph-name="ccaron" unicode="&#x10d;" horiz-adv-x="326" 
d="M169 -6q-67 0 -99 40.5t-32 124.5v169q0 83 32 123.5t99 40.5q41 0 69 -17t41 -49t10 -77q0 -12 -8 -12h-47q-4 0 -5.5 2.5t-0.5 6.5q2 39 -13 61.5t-46 22.5q-35 0 -50.5 -23.5t-15.5 -80.5v-166q0 -55 15.5 -79t50.5 -24q31 0 45 20t12 62q0 11 8 11h47q8 0 8 -9
q0 -73 -29.5 -110t-90.5 -37zM163 555l-70 40q-4 2 -4 10v41q0 8 8 4l71 -39l71 39q8 3 8 -4v-41q0 -8 -3 -10l-71 -40q-5 -2 -10 0z" />
    <glyph glyph-name="Dcaron" unicode="&#x10e;" horiz-adv-x="398" 
d="M61 0q-9 0 -9 9v637q0 9 8 9h98q103 0 152.5 -64.5t49.5 -198.5v-99q0 -149 -48 -221t-149 -72h-102zM117 63h41q74 0 105.5 53.5t31.5 171.5v106q0 103 -33 150.5t-107 47.5h-38v-529zM164 724l-75 37q-4 3 -4 10v38q0 7 8 3l76 -34l76 34q8 3 8 -3v-38q0 -7 -4 -10
l-75 -37q-5 -2 -10 0z" />
    <glyph glyph-name="dcaron" unicode="&#x10f;" horiz-adv-x="338" 
d="M127 -6q-43 0 -65 31.5t-22 96.5v226q0 71 28.5 107.5t79.5 36.5q29 0 51 -7.5t39 -17.5v-62q-46 25 -75 25q-28 0 -43 -21.5t-15 -69.5v-217q0 -36 10.5 -50.5t32.5 -14.5q21 0 43 17t47 52l3 -59q-28 -36 -54.5 -54.5t-59.5 -18.5zM245 0q-6 0 -8 9q-2 21 -3.5 49.5
t-1.5 42.5l-5 6v567q0 9 8 9h50q7 0 7 -9v-554q0 -42 1 -68.5t2 -40.5q1 -11 -6 -11h-44zM369 534q-6 0 -5 8l16 65q-10 2 -17 10t-7 21v15q0 19 10.5 28t26.5 9q19 0 28 -9t9 -28v-15q0 -10 -2 -20t-7 -22l-18 -56q-2 -6 -6 -6h-28z" />
    <glyph glyph-name="Dcroat" unicode="&#x110;" horiz-adv-x="398" 
d="M14 305q-7 0 -7 9v40q0 9 7 9h38h139q7 0 7 -9v-40q0 -9 -7 -9h-177zM61 0q-9 0 -9 9v637q0 9 8 9h98q103 0 152.5 -64.5t49.5 -198.5v-99q0 -149 -48 -221t-149 -72h-102zM117 63h41q74 0 105.5 53.5t31.5 171.5v106q0 103 -33 150.5t-107 47.5h-38v-529z" />
    <glyph glyph-name="dcroat" unicode="&#x111;" horiz-adv-x="338" 
d="M167 558q-7 0 -7 9v42q0 8 7 8h165q7 0 7 -8v-42q0 -9 -7 -9h-40h-125zM127 -6q-43 0 -65 31.5t-22 96.5v226q0 71 28.5 107.5t79.5 36.5q29 0 51 -7.5t39 -17.5v-62q-46 25 -75 25q-28 0 -43 -21.5t-15 -69.5v-217q0 -36 10.5 -50.5t32.5 -14.5q21 0 43 17t47 52l3 -59
q-28 -36 -54.5 -54.5t-59.5 -18.5zM245 0q-6 0 -8 9q-2 21 -3.5 49.5t-1.5 42.5l-5 6v567q0 9 8 9h50q7 0 7 -9v-554q0 -42 1 -68.5t2 -40.5q1 -11 -6 -11h-44z" />
    <glyph glyph-name="Emacron" unicode="&#x112;" horiz-adv-x="333" 
d="M60 0q-8 0 -8 9v637q0 9 7 9h226q7 0 7 -9v-45q0 -9 -7 -9h-168v-228h154q7 0 7 -9v-42q0 -9 -7 -9h-154v-241h168q7 0 7 -9v-45q0 -9 -7 -9h-225zM101 724q-8 0 -8 8v44q0 8 8 8h141q8 0 8 -8v-44q0 -8 -8 -8h-141z" />
    <glyph glyph-name="emacron" unicode="&#x113;" horiz-adv-x="327" 
d="M169 -6q-67 0 -99 42t-32 130v167q0 83 32 121t95 38q62 0 94.5 -39.5t32.5 -117.5v-99q0 -8 -7 -8h-182v-61q0 -58 15.5 -84t50.5 -26q30 0 44 16.5t12 49.5q-2 10 6 10h48q7 0 7 -8q2 -63 -28.5 -97t-88.5 -34zM103 289h124v45q0 51 -14.5 73.5t-47.5 22.5
q-32 0 -47 -23t-15 -73v-45zM102 572q-8 0 -8 8v45q0 8 8 8h123q8 0 8 -8v-45q0 -8 -8 -8h-123z" />
    <glyph glyph-name="Edotaccent" unicode="&#x116;" horiz-adv-x="333" 
d="M60 0q-8 0 -8 9v637q0 9 7 9h226q7 0 7 -9v-45q0 -9 -7 -9h-168v-228h154q7 0 7 -9v-42q0 -9 -7 -9h-154v-241h168q7 0 7 -9v-45q0 -9 -7 -9h-225zM172 735q-22 0 -33 11.5t-11 32.5v8q0 22 11 33.5t33 11.5t32.5 -11.5t10.5 -33.5v-8q0 -21 -10.5 -32.5t-32.5 -11.5z
" />
    <glyph glyph-name="edotaccent" unicode="&#x117;" horiz-adv-x="327" 
d="M169 -6q-67 0 -99 42t-32 130v167q0 83 32 121t95 38q62 0 94.5 -39.5t32.5 -117.5v-99q0 -8 -7 -8h-182v-61q0 -58 15.5 -84t50.5 -26q30 0 44 16.5t12 49.5q-2 10 6 10h48q7 0 7 -8q2 -63 -28.5 -97t-88.5 -34zM103 289h124v45q0 51 -14.5 73.5t-47.5 22.5
q-32 0 -47 -23t-15 -73v-45zM164 575q-22 0 -33 11t-11 32v9q0 21 11 32.5t33 11.5t32.5 -11.5t10.5 -32.5v-9q0 -21 -10.5 -32t-32.5 -11z" />
    <glyph glyph-name="Eogonek" unicode="&#x118;" horiz-adv-x="333" 
d="M60 0q-8 0 -8 9v637q0 9 7 9h226q7 0 7 -9v-45q0 -9 -7 -9h-168v-228h154q7 0 7 -9v-42q0 -9 -7 -9h-154v-241h168q7 0 7 -9v-45q0 -9 -7 -9h-225zM243 -192q-35 0 -51 16t-16 52v9q0 38 21.5 72.5t61.5 60.5l9 -11l2 -5q-19 -19 -31 -46.5t-12 -50.5v-10q0 -20 6.5 -27
t19.5 -7h9t9 1q6 1 6 -6v-37q0 -7 -5 -8l-14 -2t-15 -1z" />
    <glyph glyph-name="eogonek" unicode="&#x119;" horiz-adv-x="327" 
d="M169 -6q-67 0 -99 42t-32 130v167q0 83 32 121t95 38q62 0 94.5 -39.5t32.5 -117.5v-99q0 -8 -7 -8h-182v-61q0 -58 15.5 -84t50.5 -26q30 0 44 16.5t12 49.5q-2 10 6 10h48q7 0 7 -8q2 -63 -28.5 -97t-88.5 -34zM103 289h124v45q0 51 -14.5 73.5t-47.5 22.5
q-32 0 -47 -23t-15 -73v-45zM191 -191q-35 0 -51 16t-16 52v9q0 38 21.5 72.5t61.5 60.5l9 -11l2 -5q-19 -19 -31 -46.5t-12 -50.5v-10q0 -20 6.5 -27t19.5 -7h9t9 1q6 1 6 -6v-37q0 -7 -5 -8l-14 -2t-15 -1z" />
    <glyph glyph-name="Ecaron" unicode="&#x11a;" horiz-adv-x="333" 
d="M60 0q-8 0 -8 9v637q0 9 7 9h226q7 0 7 -9v-45q0 -9 -7 -9h-168v-228h154q7 0 7 -9v-42q0 -9 -7 -9h-154v-241h168q7 0 7 -9v-45q0 -9 -7 -9h-225zM168 723l-75 37q-4 3 -4 10v38q0 7 8 3l76 -34l76 34q8 3 8 -3v-38q0 -7 -4 -10l-75 -37q-5 -2 -10 0z" />
    <glyph glyph-name="ecaron" unicode="&#x11b;" horiz-adv-x="327" 
d="M169 -6q-67 0 -99 42t-32 130v167q0 83 32 121t95 38q62 0 94.5 -39.5t32.5 -117.5v-99q0 -8 -7 -8h-182v-61q0 -58 15.5 -84t50.5 -26q30 0 44 16.5t12 49.5q-2 10 6 10h48q7 0 7 -8q2 -63 -28.5 -97t-88.5 -34zM103 289h124v45q0 51 -14.5 73.5t-47.5 22.5
q-32 0 -47 -23t-15 -73v-45zM159 555l-70 40q-4 2 -4 10v41q0 8 8 4l71 -39l71 39q8 3 8 -4v-41q0 -8 -3 -10l-71 -40q-5 -2 -10 0z" />
    <glyph glyph-name="Gbreve" unicode="&#x11e;" horiz-adv-x="406" 
d="M183 -6q-72 0 -106 47.5t-34 143.5v281q0 95 40 145t115 50q79 0 119 -55t32 -152q0 -8 -7 -8h-52q-8 0 -6 8q7 68 -16 106t-68 38q-46 0 -69 -33t-23 -102v-273q0 -71 20 -102t67 -31t71 38t24 117v56h-83q-7 0 -7 9v44q0 9 7 9h139q7 0 7 -9v-193q0 -44 1 -69.5
t4 -48.5q1 -10 -6 -10h-41q-8 0 -8 7q-2 13 -3 30t-2 43h-1q-13 -40 -41.5 -63t-72.5 -23zM198 714q-29 0 -48 9t-32 17q-4 4 -4 11v39q0 9 8 5q15 -10 33 -17.5t43 -7.5t42.5 7.5t32.5 17.5q3 2 6 1t3 -6v-39q0 -8 -5 -11q-13 -9 -31.5 -17.5t-47.5 -8.5z" />
    <glyph glyph-name="gbreve" unicode="&#x11f;" horiz-adv-x="325" 
d="M161 -191q-72 0 -105 30.5t-33 90.5q0 43 19 73.5t54 49.5l43 -23q-22 -11 -36.5 -35t-14.5 -54q0 -37 17.5 -53.5t57.5 -16.5q44 0 61.5 18.5t17.5 57.5q0 35 -13 52.5t-44 20.5l-66 6q-37 3 -57 26t-20 57q0 26 11 44t26 30t27 19l40 -28q-20 -7 -32 -19.5t-12 -30.5
q0 -16 9 -26.5t29 -12.5l67 -8q51 -5 75 -37t24 -97q0 -68 -34.5 -101t-110.5 -33zM167 162q-61 0 -89 39t-28 126t27.5 126t89.5 39t89 -39t27 -126t-27 -126t-89 -39zM167 223q32 0 42.5 23t10.5 81t-10.5 81t-42.5 23q-31 0 -42 -23t-11 -81t11 -81t42 -23zM165 547
q-24 0 -42 9t-31 18q-4 4 -4 11v38q0 5 2.5 6t5.5 -1q15 -11 32.5 -18t36.5 -7q20 0 37 7t32 18q3 2 5.5 1t2.5 -6v-38q0 -7 -4 -11q-13 -10 -31 -18.5t-42 -8.5z" />
    <glyph glyph-name="Gdotaccent" unicode="&#x120;" horiz-adv-x="406" 
d="M183 -6q-72 0 -106 47.5t-34 143.5v281q0 95 40 145t115 50q79 0 119 -55t32 -152q0 -8 -7 -8h-52q-8 0 -6 8q7 68 -16 106t-68 38q-46 0 -69 -33t-23 -102v-273q0 -71 20 -102t67 -31t71 38t24 117v56h-83q-7 0 -7 9v44q0 9 7 9h139q7 0 7 -9v-193q0 -44 1 -69.5
t4 -48.5q1 -10 -6 -10h-41q-8 0 -8 7q-2 13 -3 30t-2 43h-1q-13 -40 -41.5 -63t-72.5 -23zM198 735q-22 0 -33 11.5t-11 32.5v8q0 22 11 33.5t33 11.5t32.5 -11.5t10.5 -33.5v-8q0 -21 -10.5 -32.5t-32.5 -11.5z" />
    <glyph glyph-name="gdotaccent" unicode="&#x121;" horiz-adv-x="325" 
d="M161 -191q-72 0 -105 30.5t-33 90.5q0 43 19 73.5t54 49.5l43 -23q-22 -11 -36.5 -35t-14.5 -54q0 -37 17.5 -53.5t57.5 -16.5q44 0 61.5 18.5t17.5 57.5q0 35 -13 52.5t-44 20.5l-66 6q-37 3 -57 26t-20 57q0 26 11 44t26 30t27 19l40 -28q-20 -7 -32 -19.5t-12 -30.5
q0 -16 9 -26.5t29 -12.5l67 -8q51 -5 75 -37t24 -97q0 -68 -34.5 -101t-110.5 -33zM167 162q-61 0 -89 39t-28 126t27.5 126t89.5 39t89 -39t27 -126t-27 -126t-89 -39zM167 223q32 0 42.5 23t10.5 81t-10.5 81t-42.5 23q-31 0 -42 -23t-11 -81t11 -81t42 -23zM165 575
q-22 0 -33 11t-11 32v9q0 21 11 32.5t33 11.5t32.5 -11.5t10.5 -32.5v-9q0 -21 -10.5 -32t-32.5 -11z" />
    <glyph glyph-name="uni0122" unicode="&#x122;" horiz-adv-x="406" 
d="M183 -6q-72 0 -106 47.5t-34 143.5v281q0 95 40 145t115 50q79 0 119 -55t32 -152q0 -8 -7 -8h-52q-8 0 -6 8q7 68 -16 106t-68 38q-46 0 -69 -33t-23 -102v-273q0 -71 20 -102t67 -31t71 38t24 117v56h-83q-7 0 -7 9v44q0 9 7 9h139q7 0 7 -9v-193q0 -44 1 -69.5
t4 -48.5q1 -10 -6 -10h-41q-8 0 -8 7q-2 13 -3 30t-2 43h-1q-13 -40 -41.5 -63t-72.5 -23zM172 -225q-6 0 -5 7l17 71q-10 3 -17 11t-7 24v15q0 19 10.5 28t26.5 9q19 0 28 -9t9 -28v-15q0 -13 -2 -23.5t-7 -22.5l-19 -62q-2 -5 -6 -5h-28z" />
    <glyph glyph-name="uni0123" unicode="&#x123;" horiz-adv-x="325" 
d="M161 -191q-72 0 -105 30.5t-33 90.5q0 43 19 73.5t54 49.5l43 -23q-22 -11 -36.5 -35t-14.5 -54q0 -37 17.5 -53.5t57.5 -16.5q44 0 61.5 18.5t17.5 57.5q0 35 -13 52.5t-44 20.5l-66 6q-37 3 -57 26t-20 57q0 26 11 44t26 30t27 19l40 -28q-20 -7 -32 -19.5t-12 -30.5
q0 -16 9 -26.5t29 -12.5l67 -8q51 -5 75 -37t24 -97q0 -68 -34.5 -101t-110.5 -33zM167 162q-61 0 -89 39t-28 126t27.5 126t89.5 39t89 -39t27 -126t-27 -126t-89 -39zM167 223q32 0 42.5 23t10.5 81t-10.5 81t-42.5 23q-31 0 -42 -23t-11 -81t11 -81t42 -23zM165 565
q-19 0 -28 9t-9 28v15q0 13 2.5 23.5t6.5 22.5l19 62q3 5 6 5h28q6 0 5 -7l-17 -71q10 -3 17 -11t7 -24v-15q0 -19 -10.5 -28t-26.5 -9z" />
    <glyph glyph-name="Hbar" unicode="&#x126;" horiz-adv-x="411" 
d="M16 522q-8 0 -8 9v41q0 9 8 9h380q7 0 7 -9v-41q0 -9 -7 -9h-36h-308h-36zM59 0q-7 0 -7 9v637q0 9 7 9h51q7 0 7 -9v-276h178v276q0 9 7 9h50q8 0 8 -9v-637q0 -9 -8 -9h-50q-7 0 -7 9v299h-178v-299q0 -9 -7 -9h-51z" />
    <glyph glyph-name="hbar" unicode="&#x127;" horiz-adv-x="347" 
d="M7 558q-8 0 -8 9v42q0 8 8 8h164q7 0 7 -8v-42q0 -9 -7 -9h-125h-39zM243 0q-7 0 -7 9v357q0 33 -10 48.5t-32 15.5q-20 0 -42.5 -16.5t-47.5 -48.5l-5 54q29 36 57.5 54.5t61.5 18.5q41 0 62 -30t21 -92v-361q0 -9 -7 -9h-51zM53 0q-7 0 -7 9v665q0 9 7 9h51q7 0 7 -9
v-665q0 -9 -7 -9h-51z" />
    <glyph glyph-name="Imacron" unicode="&#x12a;" horiz-adv-x="168" 
d="M59 0q-7 0 -7 9v637q0 9 7 9h51q7 0 7 -9v-637q0 -9 -7 -9h-51zM15 724q-8 0 -8 8v44q0 8 8 8h141q8 0 8 -8v-44q0 -8 -8 -8h-141z" />
    <glyph glyph-name="imacron" unicode="&#x12b;" horiz-adv-x="157" 
d="M53 0q-7 0 -7 9v468q0 9 7 9h51q7 0 7 -9v-468q0 -9 -7 -9h-51zM17 572q-8 0 -8 8v45q0 8 8 8h123q8 0 8 -8v-45q0 -8 -8 -8h-123z" />
    <glyph glyph-name="Iogonek" unicode="&#x12e;" horiz-adv-x="168" 
d="M59 0q-7 0 -7 9v637q0 9 7 9h51q7 0 7 -9v-637q0 -9 -7 -9h-51zM88 -192q-35 0 -51 16t-16 52v9q0 38 21.5 72.5t61.5 60.5l9 -11l2 -5q-19 -19 -31 -46.5t-12 -50.5v-10q0 -20 6.5 -27t19.5 -7h9t9 1q6 1 6 -6v-37q0 -7 -5 -8l-14 -2t-15 -1z" />
    <glyph glyph-name="iogonek" unicode="&#x12f;" horiz-adv-x="157" 
d="M53 0q-7 0 -7 9v468q0 9 7 9h51q7 0 7 -9v-468q0 -9 -7 -9h-51zM79 575q-22 0 -33 11t-11 32v9q0 21 11 32.5t33 11.5t32.5 -11.5t10.5 -32.5v-9q0 -21 -10.5 -32t-32.5 -11zM75 -192q-35 0 -51 16t-16 52v9q0 38 21.5 72.5t61.5 60.5l9 -11l2 -5q-19 -19 -31 -46.5
t-12 -50.5v-10q0 -20 6.5 -27t19.5 -7h9t9 1q6 1 6 -6v-37q0 -7 -5 -8l-14 -2t-15 -1z" />
    <glyph glyph-name="Idotaccent" unicode="&#x130;" horiz-adv-x="168" 
d="M59 0q-7 0 -7 9v637q0 9 7 9h51q7 0 7 -9v-637q0 -9 -7 -9h-51zM86 735q-22 0 -33 11.5t-11 32.5v8q0 22 11 33.5t33 11.5t32.5 -11.5t10.5 -33.5v-8q0 -21 -10.5 -32.5t-32.5 -11.5z" />
    <glyph glyph-name="dotlessi" unicode="&#x131;" horiz-adv-x="157" 
d="M53 0q-7 0 -7 9v468q0 9 7 9h51q7 0 7 -9v-468q0 -9 -7 -9h-51z" />
    <glyph glyph-name="IJ" unicode="&#x132;" horiz-adv-x="336" 
d="M59 0q-7 0 -7 9v637q0 9 7 9h51q7 0 7 -9v-637q0 -9 -7 -9h-51zM190 -138q-10 -4 -13 6l-14 47q-1 5 0 8.5t6 4.5q17 6 28.5 21.5t17 44.5t5.5 77v575q0 9 7 9h52q6 0 6 -9v-574q0 -70 -11 -112.5t-32 -65t-52 -32.5z" />
    <glyph glyph-name="ij" unicode="&#x133;" horiz-adv-x="300" 
d="M53 0q-7 0 -7 9v468q0 9 7 9h51q7 0 7 -9v-468q0 -9 -7 -9h-51zM79 575q-22 0 -33 11t-11 32v9q0 21 11 32.5t33 11.5t32.5 -11.5t10.5 -32.5v-9q0 -21 -10.5 -32t-32.5 -11zM189 -188q-2 -1 -5 -1t-5 3l-29 41q-7 7 0 12q28 25 37 70t9 119v421q0 9 7 9h51q7 0 7 -9
v-427q0 -60 -6 -105.5t-21.5 -78t-44.5 -54.5zM230 575q-22 0 -33 11t-11 32v9q0 21 11 32.5t33 11.5t32.5 -11.5t10.5 -32.5v-9q0 -21 -10.5 -32t-32.5 -11z" />
    <glyph glyph-name="uni0136" unicode="&#x136;" horiz-adv-x="367" 
d="M59 0q-7 0 -7 9v637q0 9 7 9h51q7 0 7 -9v-212q0 -21 -0.5 -42.5t-1 -42t-1.5 -42.5h1q13 33 27 64t29 62l108 218q1 4 8 4h59q10 0 4 -11l-134 -253l147 -380q5 -11 -4 -11h-61q-6 0 -8 6l-115 310l-58 -109v-198q0 -9 -7 -9h-51zM170 -225q-6 0 -5 7l17 71
q-10 3 -17 11t-7 24v15q0 19 10.5 28t26.5 9q19 0 28 -9t9 -28v-15q0 -13 -2 -23.5t-7 -22.5l-19 -62q-2 -5 -6 -5h-28z" />
    <glyph glyph-name="uni0137" unicode="&#x137;" horiz-adv-x="313" 
d="M52 0q-6 0 -6 9v665q0 9 7 9h51q7 0 7 -9v-302v-35.5v-33t-1 -35.5h1q11 26 23 48t25 47l64 119q3 4 8 4h59q9 0 5 -10l-102 -171l112 -294q3 -11 -5 -11h-58q-5 0 -7 6l-84 232l-40 -71v-158q0 -9 -6 -9h-53zM145 -225q-6 0 -5 7l17 71q-10 3 -17 11t-7 24v15
q0 19 10.5 28t26.5 9q19 0 28 -9t9 -28v-15q0 -13 -2 -23.5t-7 -22.5l-19 -62q-2 -5 -6 -5h-28z" />
    <glyph glyph-name="kgreenlandic" unicode="&#x138;" horiz-adv-x="313" 
d="M52 0q-6 0 -6 9v468q0 9 7 9h51q7 0 7 -9v-105v-37v-35.5t-1 -37.5h1q11 26 23 51t25 50l64 119q3 4 8 4h59q9 0 5 -10l-102 -171l112 -294q3 -11 -5 -11h-58q-5 0 -7 6l-83 233l-41 -72v-158q0 -9 -6 -9h-53z" />
    <glyph glyph-name="Lacute" unicode="&#x139;" horiz-adv-x="302" 
d="M59 0q-7 0 -7 9v637q0 9 7 9h51q7 0 7 -9v-583h162q8 0 8 -9v-45q0 -9 -8 -9h-220zM43 714q-4 0 -5 2.5t1 6.5l52 102q5 7 11 7h52q5 0 6 -3.5t-2 -8.5l-61 -100q-2 -6 -12 -6h-42z" />
    <glyph glyph-name="lacute" unicode="&#x13a;" horiz-adv-x="157" 
d="M53 0q-7 0 -7 9v665q0 9 7 9h51q7 0 7 -9v-665q0 -9 -7 -9h-51zM37 742q-4 0 -5 2.5t1 6.5l52 102q5 7 11 7h52q5 0 6 -3.5t-2 -8.5l-61 -100q-2 -6 -12 -6h-42z" />
    <glyph glyph-name="uni013B" unicode="&#x13b;" horiz-adv-x="302" 
d="M59 0q-7 0 -7 9v637q0 9 7 9h51q7 0 7 -9v-583h162q8 0 8 -9v-45q0 -9 -8 -9h-220zM146 -225q-6 0 -5 7l17 71q-10 3 -17 11t-7 24v15q0 19 10.5 28t26.5 9q19 0 28 -9t9 -28v-15q0 -13 -2 -23.5t-7 -22.5l-19 -62q-2 -5 -6 -5h-28z" />
    <glyph glyph-name="uni013C" unicode="&#x13c;" horiz-adv-x="157" 
d="M53 0q-7 0 -7 9v665q0 9 7 9h51q7 0 7 -9v-665q0 -9 -7 -9h-51zM54 -225q-6 0 -5 7l17 71q-10 3 -17 11t-7 24v15q0 19 10.5 28t26.5 9q19 0 28 -9t9 -28v-15q0 -13 -2 -23.5t-7 -22.5l-19 -62q-2 -5 -6 -5h-28z" />
    <glyph glyph-name="Lcaron" unicode="&#x13d;" horiz-adv-x="302" 
d="M59 0q-7 0 -7 9v637q0 9 7 9h51q7 0 7 -9v-583h162q8 0 8 -9v-45q0 -9 -8 -9h-220zM195 511q-6 0 -5 8l16 65q-10 2 -17 10t-7 21v15q0 19 10.5 28t26.5 9q19 0 28 -9t9 -28v-15q0 -10 -2 -20t-7 -22l-18 -56q-2 -6 -6 -6h-28z" />
    <glyph glyph-name="lcaron" unicode="&#x13e;" horiz-adv-x="142" 
d="M53 0q-7 0 -7 9v665q0 9 7 9h51q7 0 7 -9v-665q0 -9 -7 -9h-51zM173 534q-6 0 -5 8l16 65q-10 2 -17 10t-7 21v15q0 19 10.5 28t26.5 9q19 0 28 -9t9 -28v-15q0 -10 -2 -20t-7 -22l-18 -56q-2 -6 -6 -6h-28z" />
    <glyph glyph-name="Lslash" unicode="&#x141;" horiz-adv-x="302" 
d="M3 268q-7 -5 -7 3v50q0 7 5 10l196 131q8 5 8 -4v-49q0 -7 -5 -10zM59 0q-7 0 -7 9v637q0 9 7 9h51q7 0 7 -9v-583h162q8 0 8 -9v-45q0 -9 -8 -9h-220z" />
    <glyph glyph-name="lslash" unicode="&#x142;" horiz-adv-x="157" 
d="M9 343q-1 -2 -4 -1.5t-3 4.5v52q0 6 5 9l140 104q8 4 8 -5v-50q0 -5 -5 -9l-104 -77zM53 0q-7 0 -7 9v665q0 9 7 9h51q7 0 7 -9v-665q0 -9 -7 -9h-51z" />
    <glyph glyph-name="Nacute" unicode="&#x143;" horiz-adv-x="412" 
d="M58 0q-6 0 -6 9v637q0 9 7 9h82q7 0 8 -6l108 -384q8 -26 16 -58.5t15.5 -65t12.5 -58.5h2q-1 20 -2 44t-1.5 49t-1 49t-0.5 44v378q0 8 7 8h49q7 0 7 -8v-638q0 -9 -7 -9h-82q-5 0 -7 5l-105 372q-15 53 -26 102.5t-20 92.5h-2q1 -29 1.5 -64.5l1 -71t0.5 -64.5v-363
q0 -9 -6 -9h-51zM164 714q-4 0 -5 2.5t1 6.5l52 102q5 7 11 7h52q5 0 6 -3.5t-2 -8.5l-61 -100q-2 -6 -12 -6h-42z" />
    <glyph glyph-name="nacute" unicode="&#x144;" horiz-adv-x="347" 
d="M243 0q-7 0 -7 9v357q0 33 -10 48.5t-32 15.5q-20 0 -42.5 -16.5t-47.5 -48.5l-5 54q29 36 57.5 54.5t61.5 18.5q41 0 62 -30t21 -92v-361q0 -9 -7 -9h-51zM53 0q-7 0 -7 9v357q0 42 -0.5 68.5t-2.5 40.5q-1 11 6 11h43q8 0 9 -9q3 -19 4.5 -48t1.5 -44l4 -6v-370
q0 -9 -7 -9h-51zM136 557q-4 0 -5 2.5t1 6.5l63 120q3 7 10 7h50q5 0 6.5 -3t-1.5 -8l-71 -119q-4 -6 -13 -6h-40z" />
    <glyph glyph-name="uni0145" unicode="&#x145;" horiz-adv-x="412" 
d="M58 0q-6 0 -6 9v637q0 9 7 9h82q7 0 8 -6l108 -384q8 -26 16 -58.5t15.5 -65t12.5 -58.5h2q-1 20 -2 44t-1.5 49t-1 49t-0.5 44v378q0 8 7 8h49q7 0 7 -8v-638q0 -9 -7 -9h-82q-5 0 -7 5l-105 372q-15 53 -26 102.5t-20 92.5h-2q1 -29 1.5 -64.5l1 -71t0.5 -64.5v-363
q0 -9 -6 -9h-51zM180 -225q-6 0 -5 7l17 71q-10 3 -17 11t-7 24v15q0 19 10.5 28t26.5 9q19 0 28 -9t9 -28v-15q0 -13 -2 -23.5t-7 -22.5l-19 -62q-2 -5 -6 -5h-28z" />
    <glyph glyph-name="uni0146" unicode="&#x146;" horiz-adv-x="347" 
d="M243 0q-7 0 -7 9v357q0 33 -10 48.5t-32 15.5q-20 0 -42.5 -16.5t-47.5 -48.5l-5 54q29 36 57.5 54.5t61.5 18.5q41 0 62 -30t21 -92v-361q0 -9 -7 -9h-51zM53 0q-7 0 -7 9v357q0 42 -0.5 68.5t-2.5 40.5q-1 11 6 11h43q8 0 9 -9q3 -19 4.5 -48t1.5 -44l4 -6v-370
q0 -9 -7 -9h-51zM149 -225q-6 0 -5 7l17 71q-10 3 -17 11t-7 24v15q0 19 10.5 28t26.5 9q19 0 28 -9t9 -28v-15q0 -13 -2 -23.5t-7 -22.5l-19 -62q-2 -5 -6 -5h-28z" />
    <glyph glyph-name="Ncaron" unicode="&#x147;" horiz-adv-x="412" 
d="M58 0q-6 0 -6 9v637q0 9 7 9h82q7 0 8 -6l108 -384q8 -26 16 -58.5t15.5 -65t12.5 -58.5h2q-1 20 -2 44t-1.5 49t-1 49t-0.5 44v378q0 8 7 8h49q7 0 7 -8v-638q0 -9 -7 -9h-82q-5 0 -7 5l-105 372q-15 53 -26 102.5t-20 92.5h-2q1 -29 1.5 -64.5l1 -71t0.5 -64.5v-363
q0 -9 -6 -9h-51zM202 723l-75 37q-4 3 -4 10v38q0 7 8 3l76 -34l76 34q8 3 8 -3v-38q0 -7 -4 -10l-75 -37q-5 -2 -10 0z" />
    <glyph glyph-name="ncaron" unicode="&#x148;" horiz-adv-x="347" 
d="M243 0q-7 0 -7 9v357q0 33 -10 48.5t-32 15.5q-20 0 -42.5 -16.5t-47.5 -48.5l-5 54q29 36 57.5 54.5t61.5 18.5q41 0 62 -30t21 -92v-361q0 -9 -7 -9h-51zM53 0q-7 0 -7 9v357q0 42 -0.5 68.5t-2.5 40.5q-1 11 6 11h43q8 0 9 -9q3 -19 4.5 -48t1.5 -44l4 -6v-370
q0 -9 -7 -9h-51zM171 555l-70 40q-4 2 -4 10v41q0 8 8 4l71 -39l71 39q8 3 8 -4v-41q0 -8 -3 -10l-71 -40q-5 -2 -10 0z" />
    <glyph glyph-name="Eng" unicode="&#x14a;" horiz-adv-x="412" 
d="M279 -184l-29 41q-7 7 0 12q23 18 33 50t11 81h-22q-5 0 -7 5l-105 372q-15 53 -26 102.5t-20 92.5h-2q1 -29 1.5 -64.5l1 -71t0.5 -64.5v-363q0 -9 -6 -9h-51q-6 0 -6 9v637q0 9 7 9h82q7 0 8 -6l108 -384q8 -26 16 -58.5t15.5 -65t12.5 -58.5h2q-1 20 -2 44t-1.5 49
t-1 49t-0.5 44v378q0 8 7 8h49q7 0 7 -8v-620q-1 -53 -7.5 -93.5t-22 -70t-42.5 -48.5q-7 -5 -10 1z" />
    <glyph glyph-name="eng" unicode="&#x14b;" horiz-adv-x="347" 
d="M229 -185q-7 -5 -10 1l-29 41q-7 7 0 12q29 23 37.5 69t8.5 120v308q0 33 -10 48.5t-32 15.5q-19 0 -39.5 -14t-43.5 -42v-365q0 -9 -7 -9h-51q-7 0 -7 9v357q0 42 -0.5 68.5t-2.5 40.5q-1 11 6 11h43q8 0 9 -9q2 -10 2.5 -23t1.5 -26q27 31 54.5 47.5t58.5 16.5
q41 0 62 -30t21 -92v-318q0 -60 -5.5 -105.5t-21 -78t-45.5 -53.5z" />
    <glyph glyph-name="Omacron" unicode="&#x14c;" horiz-adv-x="399" 
d="M199 -6q-75 0 -115.5 46t-40.5 139v295q0 95 40.5 141t115.5 46t116 -46t41 -141v-295q0 -93 -41 -139t-116 -46zM199 57q45 0 68.5 30.5t23.5 96.5v286q0 67 -23.5 97.5t-68.5 30.5q-44 0 -67.5 -30.5t-23.5 -97.5v-286q0 -66 23.5 -96.5t67.5 -30.5zM128 724q-8 0 -8 8
v44q0 8 8 8h141q8 0 8 -8v-44q0 -8 -8 -8h-141z" />
    <glyph glyph-name="omacron" unicode="&#x14d;" horiz-adv-x="338" 
d="M169 -6q-67 0 -99 39.5t-32 121.5v175q0 83 32 122.5t99 39.5t99 -39.5t32 -122.5v-175q0 -82 -32 -121.5t-99 -39.5zM169 57q35 0 50.5 23t15.5 76v172q0 54 -15.5 78t-50.5 24t-50.5 -24t-15.5 -78v-172q0 -53 16 -76t50 -23zM107 572q-8 0 -8 8v45q0 8 8 8h123
q8 0 8 -8v-45q0 -8 -8 -8h-123z" />
    <glyph glyph-name="Ohungarumlaut" unicode="&#x150;" horiz-adv-x="399" 
d="M199 -6q-75 0 -115.5 46t-40.5 139v295q0 95 40.5 141t115.5 46t116 -46t41 -141v-295q0 -93 -41 -139t-116 -46zM199 57q45 0 68.5 30.5t23.5 96.5v286q0 67 -23.5 97.5t-68.5 30.5q-44 0 -67.5 -30.5t-23.5 -97.5v-286q0 -66 23.5 -96.5t67.5 -30.5zM228 714
q-9 0 -6 10l40 100q3 8 8 8h49q4 0 5.5 -3t-0.5 -8l-48 -99q-3 -8 -10 -8h-38zM125 714q-9 0 -5 10l40 100q3 8 8 8h49q3 0 4.5 -3t-0.5 -8l-47 -99q-3 -8 -10 -8h-39z" />
    <glyph glyph-name="ohungarumlaut" unicode="&#x151;" horiz-adv-x="338" 
d="M169 -6q-67 0 -99 39.5t-32 121.5v175q0 83 32 122.5t99 39.5t99 -39.5t32 -122.5v-175q0 -82 -32 -121.5t-99 -39.5zM169 57q35 0 50.5 23t15.5 76v172q0 54 -15.5 78t-50.5 24t-50.5 -24t-15.5 -78v-172q0 -53 16 -76t50 -23zM100 557q-10 0 -5 11l47 117q3 8 8 8h49
q4 0 5.5 -2.5t-0.5 -7.5l-56 -118q-3 -8 -10 -8h-38zM201 557q-10 0 -5 11l46 117q3 8 9 8h48q4 0 5.5 -2.5t-0.5 -7.5l-55 -118q-3 -8 -10 -8h-38z" />
    <glyph glyph-name="OE" unicode="&#x152;" horiz-adv-x="536" 
d="M199 -6q-75 0 -115.5 46t-40.5 139v295q0 95 40.5 141t115.5 46q17 0 32 -2t27 -4h230q7 0 7 -9v-45q0 -9 -7 -9h-168v-228h154q7 0 7 -9v-42q0 -9 -7 -9h-154v-241h168q7 0 7 -9v-45q0 -9 -7 -9h-230q-12 -2 -27 -4t-32 -2zM199 57q17 0 31 2t25 5v529q-13 2 -26 3.5
t-30 1.5q-44 0 -67.5 -30.5t-23.5 -97.5v-286q0 -66 23.5 -96.5t67.5 -30.5z" />
    <glyph glyph-name="oe" unicode="&#x153;" horiz-adv-x="523" 
d="M168 -6q-66 0 -98 39.5t-32 121.5v175q0 83 32 122.5t98 39.5q34 0 57.5 -13.5t40.5 -40.5q18 27 41.5 40.5t53.5 13.5q62 0 94.5 -39.5t32.5 -117.5v-99q0 -8 -7 -8h-182v-61q0 -58 16 -84t50 -26q30 0 44 16.5t12 49.5q-2 10 6 10h49q7 0 7 -8q1 -63 -29.5 -97
t-88.5 -34q-35 0 -58 14t-39 42q-17 -27 -40.5 -41.5t-59.5 -14.5zM168 57q35 0 50.5 23t15.5 76v172q0 54 -15.5 78t-50.5 24q-34 0 -49.5 -24t-15.5 -78v-172q0 -53 15.5 -76t49.5 -23zM299 289h124v45q0 51 -14.5 73.5t-47.5 22.5t-47.5 -23t-14.5 -73v-45z" />
    <glyph glyph-name="Racute" unicode="&#x154;" horiz-adv-x="372" 
d="M59 0q-7 0 -7 9v637q0 9 7 9h110q83 0 121.5 -44t38.5 -134q0 -75 -21.5 -118.5t-59.5 -58.5v-1l103 -288q2 -11 -7 -11h-55q-5 0 -8 6l-97 279h-67v-276q0 -9 -7 -9h-51zM117 345h54q50 0 71.5 31.5t21.5 95.5q0 65 -23.5 92.5t-72.5 27.5h-51v-247zM126 714
q-4 0 -5 2.5t1 6.5l52 102q5 7 11 7h52q5 0 6 -3.5t-2 -8.5l-61 -100q-2 -6 -12 -6h-42z" />
    <glyph glyph-name="racute" unicode="&#x155;" horiz-adv-x="242" 
d="M53 0q-7 0 -7 9v357q0 42 -0.5 68.5t-2.5 40.5q-1 11 6 11h46q5 0 6 -9q2 -20 4 -48.5t2 -43.5l4 -6v-370q0 -9 -7 -9h-51zM105 352l-4 63q12 19 27.5 36.5t34 29t39.5 11.5q9 0 15 -1q4 -1 5.5 -4t1.5 -8q0 -17 -0.5 -32t-2.5 -32q-1 -7 -7 -6q-5 2 -10.5 2.5t-12.5 0.5
q-21 0 -45 -16t-41 -44zM98 557q-4 0 -5 2.5t1 6.5l63 120q3 7 10 7h50q5 0 6.5 -3t-1.5 -8l-71 -119q-4 -6 -13 -6h-40z" />
    <glyph glyph-name="uni0156" unicode="&#x156;" horiz-adv-x="372" 
d="M59 0q-7 0 -7 9v637q0 9 7 9h110q83 0 121.5 -44t38.5 -134q0 -75 -21.5 -118.5t-59.5 -58.5v-1l103 -288q2 -11 -7 -11h-55q-5 0 -8 6l-97 279h-67v-276q0 -9 -7 -9h-51zM117 345h54q50 0 71.5 31.5t21.5 95.5q0 65 -23.5 92.5t-72.5 27.5h-51v-247zM166 -225q-6 0 -5 7
l17 71q-10 3 -17 11t-7 24v15q0 19 10.5 28t26.5 9q19 0 28 -9t9 -28v-15q0 -13 -2 -23.5t-7 -22.5l-19 -62q-2 -5 -6 -5h-28z" />
    <glyph glyph-name="uni0157" unicode="&#x157;" horiz-adv-x="242" 
d="M53 0q-7 0 -7 9v357q0 42 -0.5 68.5t-2.5 40.5q-1 11 6 11h46q5 0 6 -9q2 -20 4 -48.5t2 -43.5l4 -6v-370q0 -9 -7 -9h-51zM105 352l-4 63q12 19 27.5 36.5t34 29t39.5 11.5q9 0 15 -1q4 -1 5.5 -4t1.5 -8q0 -17 -0.5 -32t-2.5 -32q-1 -7 -7 -6q-5 2 -10.5 2.5t-12.5 0.5
q-21 0 -45 -16t-41 -44zM55 -225q-6 0 -5 7l17 71q-10 3 -17 11t-7 24v15q0 19 10.5 28t26.5 9q19 0 28 -9t9 -28v-15q0 -13 -2 -23.5t-7 -22.5l-19 -62q-2 -5 -6 -5h-28z" />
    <glyph glyph-name="Rcaron" unicode="&#x158;" horiz-adv-x="372" 
d="M59 0q-7 0 -7 9v637q0 9 7 9h110q83 0 121.5 -44t38.5 -134q0 -75 -21.5 -118.5t-59.5 -58.5v-1l103 -288q2 -11 -7 -11h-55q-5 0 -8 6l-97 279h-67v-276q0 -9 -7 -9h-51zM117 345h54q50 0 71.5 31.5t21.5 95.5q0 65 -23.5 92.5t-72.5 27.5h-51v-247zM164 723l-75 37
q-4 3 -4 10v38q0 7 8 3l76 -34l76 34q8 3 8 -3v-38q0 -7 -4 -10l-75 -37q-5 -2 -10 0z" />
    <glyph glyph-name="rcaron" unicode="&#x159;" horiz-adv-x="242" 
d="M53 0q-7 0 -7 9v357q0 42 -0.5 68.5t-2.5 40.5q-1 11 6 11h46q5 0 6 -9q2 -20 4 -48.5t2 -43.5l4 -6v-370q0 -9 -7 -9h-51zM105 352l-4 63q12 19 27.5 36.5t34 29t39.5 11.5q9 0 15 -1q4 -1 5.5 -4t1.5 -8q0 -17 -0.5 -32t-2.5 -32q-1 -7 -7 -6q-5 2 -10.5 2.5t-12.5 0.5
q-21 0 -45 -16t-41 -44zM133 555l-70 40q-4 2 -4 10v41q0 8 8 4l71 -39l71 39q8 3 8 -4v-41q0 -8 -3 -10l-71 -40q-5 -2 -10 0z" />
    <glyph glyph-name="Sacute" unicode="&#x15a;" horiz-adv-x="341" 
d="M167 -6q-54 0 -86 24t-44 65.5t-8 94.5q1 10 7 10h50q8 0 7 -10q-7 -61 13.5 -91t63.5 -30q39 0 58.5 23.5t19.5 73.5q0 44 -12 72.5t-42 50.5l-81 64q-41 32 -60.5 72.5t-19.5 97.5q1 71 36.5 110.5t98.5 39.5q74 0 108.5 -48t26.5 -131q0 -11 -7 -11h-51q-7 0 -6 11
q6 56 -13 86t-57 30q-32 0 -51 -21t-20 -64q0 -40 14 -68t43 -51l78 -61q29 -22 46.5 -46.5t25.5 -56t8 -73.5q0 -76 -35.5 -119.5t-110.5 -43.5zM130 714q-4 0 -5 2.5t1 6.5l52 102q5 7 11 7h52q5 0 6 -3.5t-2 -8.5l-61 -100q-2 -6 -12 -6h-42z" />
    <glyph glyph-name="sacute" unicode="&#x15b;" horiz-adv-x="293" 
d="M147 -6q-61 0 -89 38t-23 111q0 8 7 8h51q6 0 6 -7q-1 -48 9.5 -68t40.5 -20q51 0 51 66q0 26 -8.5 43.5t-28.5 33.5l-66 52q-31 24 -45 54.5t-14 73.5q0 54 28.5 83.5t82.5 29.5q56 0 84.5 -34t22.5 -93q0 -8 -7 -8h-50q-2 0 -4.5 1t-1.5 9q2 30 -9 47t-37 17
q-46 0 -46 -52q0 -25 9.5 -42t28.5 -34l65 -52q34 -28 46.5 -55t12.5 -71q0 -64 -29.5 -97.5t-86.5 -33.5zM106 557q-4 0 -5 2.5t1 6.5l63 120q3 7 10 7h50q5 0 6.5 -3t-1.5 -8l-71 -119q-4 -6 -13 -6h-40z" />
    <glyph glyph-name="Scedilla" unicode="&#x15e;" horiz-adv-x="341" 
d="M167 -6q-54 0 -86 24t-44 65.5t-8 94.5q1 10 7 10h50q8 0 7 -10q-7 -61 13.5 -91t63.5 -30q39 0 58.5 23.5t19.5 73.5q0 44 -12 72.5t-42 50.5l-81 64q-41 32 -60.5 72.5t-19.5 97.5q1 71 36.5 110.5t98.5 39.5q74 0 108.5 -48t26.5 -131q0 -11 -7 -11h-51q-7 0 -6 11
q6 56 -13 86t-57 30q-32 0 -51 -21t-20 -64q0 -40 14 -68t43 -51l78 -61q29 -22 46.5 -46.5t25.5 -56t8 -73.5q0 -76 -35.5 -119.5t-110.5 -43.5zM168 -191q-13 0 -22.5 1.5t-16.5 2.5q-6 2 -6 8v31q0 8 6 6q4 -1 9.5 -1.5t13.5 -0.5q13 0 18.5 6.5t5.5 22.5v13
q0 17 -7.5 23.5t-18.5 6.5h-12q-5 0 -5 7v9t1 9l19 71q2 5 7 5h33q6 0 5 -9l-19 -58h4q19 0 31 -13t12 -45v-21q0 -39 -14.5 -56.5t-43.5 -17.5z" />
    <glyph glyph-name="scedilla" unicode="&#x15f;" horiz-adv-x="293" 
d="M147 -6q-61 0 -89 38t-23 111q0 8 7 8h51q6 0 6 -7q-1 -48 9.5 -68t40.5 -20q51 0 51 66q0 26 -8.5 43.5t-28.5 33.5l-66 52q-31 24 -45 54.5t-14 73.5q0 54 28.5 83.5t82.5 29.5q56 0 84.5 -34t22.5 -93q0 -8 -7 -8h-50q-2 0 -4.5 1t-1.5 9q2 30 -9 47t-37 17
q-46 0 -46 -52q0 -25 9.5 -42t28.5 -34l65 -52q34 -28 46.5 -55t12.5 -71q0 -64 -29.5 -97.5t-86.5 -33.5zM152 -191q-13 0 -22.5 1.5t-16.5 2.5q-6 2 -6 8v31q0 8 6 6q4 -1 9.5 -1.5t13.5 -0.5q13 0 18.5 6.5t5.5 22.5v13q0 17 -7.5 23.5t-18.5 6.5h-12q-5 0 -5 7v9t1 9
l19 71q2 5 7 5h33q6 0 5 -9l-19 -58h4q19 0 31 -13t12 -45v-21q0 -39 -14.5 -56.5t-43.5 -17.5z" />
    <glyph glyph-name="Scaron" unicode="&#x160;" horiz-adv-x="341" 
d="M167 -6q-54 0 -86 24t-44 65.5t-8 94.5q1 10 7 10h50q8 0 7 -10q-7 -61 13.5 -91t63.5 -30q39 0 58.5 23.5t19.5 73.5q0 44 -12 72.5t-42 50.5l-81 64q-41 32 -60.5 72.5t-19.5 97.5q1 71 36.5 110.5t98.5 39.5q74 0 108.5 -48t26.5 -131q0 -11 -7 -11h-51q-7 0 -6 11
q6 56 -13 86t-57 30q-32 0 -51 -21t-20 -64q0 -40 14 -68t43 -51l78 -61q29 -22 46.5 -46.5t25.5 -56t8 -73.5q0 -76 -35.5 -119.5t-110.5 -43.5zM168 723l-75 37q-4 3 -4 10v38q0 7 8 3l76 -34l76 34q8 3 8 -3v-38q0 -7 -4 -10l-75 -37q-5 -2 -10 0z" />
    <glyph glyph-name="scaron" unicode="&#x161;" horiz-adv-x="293" 
d="M147 -6q-61 0 -89 38t-23 111q0 8 7 8h51q6 0 6 -7q-1 -48 9.5 -68t40.5 -20q51 0 51 66q0 26 -8.5 43.5t-28.5 33.5l-66 52q-31 24 -45 54.5t-14 73.5q0 54 28.5 83.5t82.5 29.5q56 0 84.5 -34t22.5 -93q0 -8 -7 -8h-50q-2 0 -4.5 1t-1.5 9q2 30 -9 47t-37 17
q-46 0 -46 -52q0 -25 9.5 -42t28.5 -34l65 -52q34 -28 46.5 -55t12.5 -71q0 -64 -29.5 -97.5t-86.5 -33.5zM141 555l-70 40q-4 2 -4 10v41q0 8 8 4l71 -39l71 39q8 3 8 -4v-41q0 -8 -3 -10l-71 -40q-5 -2 -10 0z" />
    <glyph glyph-name="uni0162" unicode="&#x162;" horiz-adv-x="324" 
d="M137 0q-7 0 -7 9v583h-105q-8 0 -8 9v45q0 9 8 9h275q7 0 7 -9v-45q0 -9 -7 -9h-105v-583q0 -9 -8 -9h-50zM160 -191q-13 0 -22.5 1.5t-16.5 2.5q-6 2 -6 8v31q0 8 6 6q4 -1 9.5 -1.5t13.5 -0.5q13 0 18.5 6.5t5.5 22.5v13q0 17 -7.5 23.5t-18.5 6.5h-12q-5 0 -5 7v9t1 9
l19 71q2 5 7 5h33q6 0 5 -9l-19 -58h4q19 0 31 -13t12 -45v-21q0 -39 -14.5 -56.5t-43.5 -17.5z" />
    <glyph glyph-name="uni0163" unicode="&#x163;" horiz-adv-x="253" 
d="M163 -6q-51 0 -73 31t-22 104v295h-43q-8 0 -8 8v45q0 9 8 9h45l8 122q1 8 8 8h41q6 0 6 -8v-122h90q8 0 8 -9v-45q0 -8 -8 -8h-90v-293q0 -41 10 -58t34 -17q13 0 25 3t22 7q8 3 8 -5v-46q0 -9 -7 -11q-13 -4 -29 -7t-33 -3zM156 -191q-13 0 -22.5 1.5t-16.5 2.5
q-6 2 -6 8v31q0 8 6 6q4 -1 9.5 -1.5t13.5 -0.5q13 0 18.5 6.5t5.5 22.5v13q0 17 -7.5 23.5t-18.5 6.5h-12q-5 0 -5 7v9t1 9l19 71q2 5 7 5h33q6 0 5 -9l-19 -58h4q19 0 31 -13t12 -45v-21q0 -39 -14.5 -56.5t-43.5 -17.5z" />
    <glyph glyph-name="Tcaron" unicode="&#x164;" horiz-adv-x="324" 
d="M137 0q-7 0 -7 9v583h-105q-8 0 -8 9v45q0 9 8 9h275q7 0 7 -9v-45q0 -9 -7 -9h-105v-583q0 -9 -8 -9h-50zM160 723l-75 37q-4 3 -4 10v38q0 7 8 3l76 -34l76 34q8 3 8 -3v-38q0 -7 -4 -10l-75 -37q-5 -2 -10 0z" />
    <glyph glyph-name="tcaron" unicode="&#x165;" horiz-adv-x="258" 
d="M163 -6q-51 0 -73 31t-22 104v295h-43q-8 0 -8 8v45q0 9 8 9h45l8 122q1 8 8 8h41q6 0 6 -8v-122h90q8 0 8 -9v-45q0 -8 -8 -8h-90v-293q0 -41 10 -58t34 -17q13 0 25 3t22 7q8 3 8 -5v-46q0 -9 -7 -11q-13 -4 -29 -7t-33 -3zM176 534q-6 0 -5 8l16 65q-10 2 -17 10
t-7 21v15q0 19 10.5 28t26.5 9q19 0 28 -9t9 -28v-15q0 -10 -2 -20t-7 -22l-18 -56q-2 -6 -6 -6h-28z" />
    <glyph glyph-name="Tbar" unicode="&#x166;" horiz-adv-x="324" 
d="M72 309q-7 0 -7 9v37q0 9 7 9h180q7 0 7 -9v-37q0 -9 -7 -9h-57h-65h-58zM137 0q-7 0 -7 9v583h-105q-8 0 -8 9v45q0 9 8 9h275q7 0 7 -9v-45q0 -9 -7 -9h-105v-583q0 -9 -8 -9h-50z" />
    <glyph glyph-name="tbar" unicode="&#x167;" horiz-adv-x="253" 
d="M33 270q-7 0 -7 8v42q0 9 7 9h35h65h81q7 0 7 -9v-42q0 -8 -7 -8h-181zM163 -6q-51 0 -73 31t-22 104v295h-43q-8 0 -8 8v45q0 9 8 9h45l8 122q1 8 8 8h41q6 0 6 -8v-122h90q8 0 8 -9v-45q0 -8 -8 -8h-90v-293q0 -41 10 -58t34 -17q13 0 25 3t22 7q8 3 8 -5v-46
q0 -9 -7 -11q-13 -4 -29 -7t-33 -3z" />
    <glyph glyph-name="Umacron" unicode="&#x16a;" horiz-adv-x="401" 
d="M200 -6q-79 0 -115.5 51t-36.5 154v448q0 8 7 8h51q7 0 7 -8v-447q0 -74 20.5 -108.5t66.5 -34.5q47 0 67.5 34t20.5 109v447q0 8 7 8h51q7 0 7 -8v-448q0 -103 -38 -154t-115 -51zM129 724q-8 0 -8 8v44q0 8 8 8h141q8 0 8 -8v-44q0 -8 -8 -8h-141z" />
    <glyph glyph-name="umacron" unicode="&#x16b;" horiz-adv-x="339" 
d="M129 -6q-46 0 -64.5 29.5t-18.5 92.5v361q0 9 7 9h51q7 0 7 -9v-360q0 -36 8.5 -48t27.5 -12q26 0 49.5 20t45.5 54l6 -56q-26 -35 -56 -58t-63 -23zM246 0q-6 0 -8 9q-2 21 -3.5 49.5t-1.5 42.5l-5 6v370q0 9 8 9h50q7 0 7 -9v-357q0 -42 1 -68.5t2 -40.5q1 -11 -6 -11
h-44zM108 572q-8 0 -8 8v45q0 8 8 8h123q8 0 8 -8v-45q0 -8 -8 -8h-123z" />
    <glyph glyph-name="Uring" unicode="&#x16e;" horiz-adv-x="401" 
d="M200 -6q-79 0 -115.5 51t-36.5 154v448q0 8 7 8h51q7 0 7 -8v-447q0 -74 20.5 -108.5t66.5 -34.5q47 0 67.5 34t20.5 109v447q0 8 7 8h51q7 0 7 -8v-448q0 -103 -38 -154t-115 -51zM200 691q-34 0 -53.5 22t-19.5 60t19.5 60t53.5 22q35 0 54.5 -22t19.5 -60t-19.5 -60
t-54.5 -22zM200 728q30 0 30 45q0 44 -30 44q-29 0 -29 -44q0 -45 29 -45z" />
    <glyph glyph-name="uring" unicode="&#x16f;" horiz-adv-x="339" 
d="M129 -6q-46 0 -64.5 29.5t-18.5 92.5v361q0 9 7 9h51q7 0 7 -9v-360q0 -36 8.5 -48t27.5 -12q26 0 49.5 20t45.5 54l6 -56q-26 -35 -56 -58t-63 -23zM246 0q-6 0 -8 9q-2 21 -3.5 49.5t-1.5 42.5l-5 6v370q0 9 8 9h50q7 0 7 -9v-357q0 -42 1 -68.5t2 -40.5q1 -11 -6 -11
h-44zM170 550q-34 0 -53.5 22t-19.5 60q0 39 19.5 61t53.5 22q35 0 54.5 -22t19.5 -61q0 -38 -19.5 -60t-54.5 -22zM170 588q30 0 30 44t-30 44q-29 0 -29 -44t29 -44z" />
    <glyph glyph-name="Uhungarumlaut" unicode="&#x170;" horiz-adv-x="401" 
d="M200 -6q-79 0 -115.5 51t-36.5 154v448q0 8 7 8h51q7 0 7 -8v-447q0 -74 20.5 -108.5t66.5 -34.5q47 0 67.5 34t20.5 109v447q0 8 7 8h51q7 0 7 -8v-448q0 -103 -38 -154t-115 -51zM229 714q-9 0 -6 10l40 100q3 8 8 8h49q4 0 5.5 -3t-0.5 -8l-48 -99q-3 -8 -10 -8h-38z
M126 714q-9 0 -5 10l40 100q3 8 8 8h49q3 0 4.5 -3t-0.5 -8l-47 -99q-3 -8 -10 -8h-39z" />
    <glyph glyph-name="uhungarumlaut" unicode="&#x171;" horiz-adv-x="339" 
d="M129 -6q-46 0 -64.5 29.5t-18.5 92.5v361q0 9 7 9h51q7 0 7 -9v-360q0 -36 8.5 -48t27.5 -12q26 0 49.5 20t45.5 54l6 -56q-26 -35 -56 -58t-63 -23zM246 0q-6 0 -8 9q-2 21 -3.5 49.5t-1.5 42.5l-5 6v370q0 9 8 9h50q7 0 7 -9v-357q0 -42 1 -68.5t2 -40.5q1 -11 -6 -11
h-44zM101 557q-10 0 -5 11l47 117q3 8 8 8h49q4 0 5.5 -2.5t-0.5 -7.5l-56 -118q-3 -8 -10 -8h-38zM202 557q-10 0 -5 11l46 117q3 8 9 8h48q4 0 5.5 -2.5t-0.5 -7.5l-55 -118q-3 -8 -10 -8h-38z" />
    <glyph glyph-name="Uogonek" unicode="&#x172;" horiz-adv-x="401" 
d="M200 -6q-79 0 -115.5 51t-36.5 154v448q0 8 7 8h51q7 0 7 -8v-447q0 -74 20.5 -108.5t66.5 -34.5q47 0 67.5 34t20.5 109v447q0 8 7 8h51q7 0 7 -8v-448q0 -103 -38 -154t-115 -51zM228 -192q-35 0 -51 16t-16 52v9q0 38 21.5 72.5t61.5 60.5l9 -11l2 -5
q-19 -19 -31 -46.5t-12 -50.5v-10q0 -20 6.5 -27t19.5 -7h9t9 1q6 1 6 -6v-37q0 -7 -5 -8l-14 -2t-15 -1z" />
    <glyph glyph-name="uogonek" unicode="&#x173;" horiz-adv-x="339" 
d="M129 -6q-46 0 -64.5 29.5t-18.5 92.5v361q0 9 7 9h51q7 0 7 -9v-360q0 -36 8.5 -48t27.5 -12q26 0 49.5 20t45.5 54l6 -56q-26 -35 -56 -58t-63 -23zM246 0q-6 0 -8 9q-2 21 -3.5 49.5t-1.5 42.5l-5 6v370q0 9 8 9h50q7 0 7 -9v-357q0 -42 1 -68.5t2 -40.5q1 -11 -6 -11
h-44zM265 -192q-35 0 -51 16t-16 52v9q0 38 21.5 72.5t61.5 60.5l9 -11l2 -5q-19 -19 -31 -46.5t-12 -50.5v-10q0 -20 6.5 -27t19.5 -7h9t9 1q6 1 6 -6v-37q0 -7 -5 -8l-14 -2t-15 -1z" />
    <glyph glyph-name="Wcircumflex" unicode="&#x174;" horiz-adv-x="526" 
d="M127 0q-5 0 -6 7l-107 638q-1 10 5 10h53q7 0 8 -7l63 -402q4 -26 7.5 -56t6 -59t4.5 -51h2q5 33 10 66.5t11 66.5l51 295l-21 128q-1 9 6 9h52q8 0 9 -8l66 -423q5 -34 9.5 -67t7.5 -67h2q2 23 4.5 49.5t6 56.5t7.5 60l61 402q1 7 7 7h54q7 0 6 -10l-105 -638
q-1 -7 -7 -7h-67q-7 0 -8 7l-41 265q-5 30 -9 60t-7 60h-2q-4 -30 -9 -59.5t-10 -59.5l-48 -266q-1 -4 -3 -5.5t-4 -1.5h-65zM187 723q-8 -4 -8 3v38q0 7 4 10l75 37q5 3 10 0l75 -37q4 -3 4 -10v-38q0 -6 -8 -3l-76 34z" />
    <glyph glyph-name="wcircumflex" unicode="&#x175;" horiz-adv-x="462" 
d="M116 0q-7 0 -9 8l-86 468q-1 10 5 10h53q7 0 8 -9l46 -276q6 -32 10 -66t7 -66h3q5 32 10 65t10 65l31 169l-17 99q-1 10 5 10h51q6 0 7 -7l43 -270q5 -33 8.5 -66t6.5 -65h3q5 33 9 67.5t9 66.5l46 274q2 9 7 9h53q7 0 6 -10l-87 -468q-1 -8 -9 -8h-67q-7 0 -9 6
l-20 120q-5 31 -9 64.5t-7 77.5h-4q-4 -44 -8.5 -77.5t-9.5 -65.5l-18 -118q-1 -7 -8 -7h-69zM160 558q-8 -4 -8 4v41q0 8 4 10l70 40q5 3 10 0l71 -40q3 -2 3 -10v-41q0 -7 -8 -4l-71 39z" />
    <glyph glyph-name="Ycircumflex" unicode="&#x176;" horiz-adv-x="343" 
d="M146 0q-7 0 -7 9v215l-130 420q-3 11 5 11h59q6 0 7 -6l61 -226q8 -28 15.5 -57.5t14.5 -58.5h1q8 29 16 58.5t15 58.5l61 225q2 6 7 6h57q8 0 6 -11l-130 -419v-216q0 -9 -6 -9h-52zM95 723q-8 -4 -8 3v38q0 7 4 10l75 37q5 3 10 0l75 -37q4 -3 4 -10v-38q0 -6 -8 -3
l-76 34z" />
    <glyph glyph-name="ycircumflex" unicode="&#x177;" horiz-adv-x="317" 
d="M91 -185q-7 0 -5 11l43 180l-111 470q-3 10 4 10h56q7 0 8 -7l48 -237q8 -33 13.5 -68t10.5 -68h2q5 33 11.5 68.5t13.5 68.5l46 236q1 7 8 7h54q3 0 5 -3t0 -8l-148 -653q-1 -7 -8 -7h-51zM87 558q-8 -4 -8 4v41q0 8 4 10l70 40q5 3 10 0l71 -40q3 -2 3 -10v-41
q0 -7 -8 -4l-71 39z" />
    <glyph glyph-name="Ydieresis" unicode="&#x178;" horiz-adv-x="343" 
d="M146 0q-7 0 -7 9v215l-130 420q-3 11 5 11h59q6 0 7 -6l61 -226q8 -28 15.5 -57.5t14.5 -58.5h1q8 29 16 58.5t15 58.5l61 225q2 6 7 6h57q8 0 6 -11l-130 -419v-216q0 -9 -6 -9h-52zM115 723q-20 0 -30.5 10.5t-10.5 30.5v8q0 20 10.5 31t30.5 11t30.5 -11t10.5 -31v-8
q0 -20 -10.5 -30.5t-30.5 -10.5zM227 723q-19 0 -29.5 10.5t-10.5 30.5v8q0 20 10.5 31t29.5 11q21 0 31 -11t10 -31v-8q0 -20 -10 -30.5t-31 -10.5z" />
    <glyph glyph-name="Zacute" unicode="&#x179;" horiz-adv-x="332" 
d="M16 0q-6 0 -6 7v3q0 5 3 11l178 467q10 26 20 51.5t20 51.5v2q-19 -1 -37.5 -1h-37.5h-120q-7 0 -7 9v45q0 9 7 9h277q7 0 7 -7v-2q0 -3 -0.5 -6t-1.5 -6l-187 -484q-8 -22 -16.5 -43t-17.5 -43v-2q23 1 39 1h35h126q7 0 7 -9v-45q0 -9 -7 -9h-281zM129 714q-4 0 -5 2.5
t1 6.5l52 102q5 7 11 7h52q5 0 6 -3.5t-2 -8.5l-61 -100q-2 -6 -12 -6h-42z" />
    <glyph glyph-name="zacute" unicode="&#x17a;" horiz-adv-x="293" 
d="M25 0q-7 0 -7 7v2q0 9 3 13l134 316q9 22 17.5 42.5t16.5 42.5v1h-31h-32h-86q-7 0 -7 8v45q0 9 7 9h228q7 0 7 -6v-2q0 -7 -3 -13l-134 -317l-18 -42t-17 -42v-1h30.5h29.5h96q7 0 7 -9v-45q0 -9 -7 -9h-234zM113 557q-4 0 -5 2.5t1 6.5l63 120q3 7 10 7h50q5 0 6.5 -3
t-1.5 -8l-71 -119q-4 -6 -13 -6h-40z" />
    <glyph glyph-name="Zdotaccent" unicode="&#x17b;" horiz-adv-x="332" 
d="M16 0q-6 0 -6 7v3q0 5 3 11l178 467q10 26 20 51.5t20 51.5v2q-19 -1 -37.5 -1h-37.5h-120q-7 0 -7 9v45q0 9 7 9h277q7 0 7 -7v-2q0 -3 -0.5 -6t-1.5 -6l-187 -484q-8 -22 -16.5 -43t-17.5 -43v-2q23 1 39 1h35h126q7 0 7 -9v-45q0 -9 -7 -9h-281zM171 735
q-22 0 -33 11.5t-11 32.5v8q0 22 11 33.5t33 11.5t32.5 -11.5t10.5 -33.5v-8q0 -21 -10.5 -32.5t-32.5 -11.5z" />
    <glyph glyph-name="zdotaccent" unicode="&#x17c;" horiz-adv-x="293" 
d="M25 0q-7 0 -7 7v2q0 9 3 13l134 316q9 22 17.5 42.5t16.5 42.5v1h-31h-32h-86q-7 0 -7 8v45q0 9 7 9h228q7 0 7 -6v-2q0 -7 -3 -13l-134 -317l-18 -42t-17 -42v-1h30.5h29.5h96q7 0 7 -9v-45q0 -9 -7 -9h-234zM153 575q-22 0 -33 11t-11 32v9q0 21 11 32.5t33 11.5
t32.5 -11.5t10.5 -32.5v-9q0 -21 -10.5 -32t-32.5 -11z" />
    <glyph glyph-name="Zcaron" unicode="&#x17d;" horiz-adv-x="332" 
d="M16 0q-6 0 -6 7v3q0 5 3 11l178 467q10 26 20 51.5t20 51.5v2q-19 -1 -37.5 -1h-37.5h-120q-7 0 -7 9v45q0 9 7 9h277q7 0 7 -7v-2q0 -3 -0.5 -6t-1.5 -6l-187 -484q-8 -22 -16.5 -43t-17.5 -43v-2q23 1 39 1h35h126q7 0 7 -9v-45q0 -9 -7 -9h-281zM167 723l-75 37
q-4 3 -4 10v38q0 7 8 3l76 -34l76 34q8 3 8 -3v-38q0 -7 -4 -10l-75 -37q-5 -2 -10 0z" />
    <glyph glyph-name="zcaron" unicode="&#x17e;" horiz-adv-x="293" 
d="M25 0q-7 0 -7 7v2q0 9 3 13l134 316q9 22 17.5 42.5t16.5 42.5v1h-31h-32h-86q-7 0 -7 8v45q0 9 7 9h228q7 0 7 -6v-2q0 -7 -3 -13l-134 -317l-18 -42t-17 -42v-1h30.5h29.5h96q7 0 7 -9v-45q0 -9 -7 -9h-234zM148 555l-70 40q-4 2 -4 10v41q0 8 8 4l71 -39l71 39
q8 3 8 -4v-41q0 -8 -3 -10l-71 -40q-5 -2 -10 0z" />
    <glyph glyph-name="florin" unicode="&#x192;" horiz-adv-x="420" 
d="M160 -185q-4 0 -6.5 2.5t-2.5 6.5v542h-45q-4 0 -6.5 2.5t-2.5 6.5v43q0 4 2.5 6.5t6.5 2.5h45v98q0 76 26.5 106t70.5 30q23 0 40.5 -3.5t29.5 -8.5q6 -1 6 -9v-47q0 -9 -9 -7q-11 5 -24.5 9t-28.5 4q-22 0 -34 -15.5t-12 -62.5v-94h79q4 0 6 -2.5t2 -6.5v-43
q0 -4 -2 -6.5t-6 -2.5h-79v-542q0 -4 -2.5 -6.5t-6.5 -2.5h-47z" />
    <glyph glyph-name="uni0218" unicode="&#x218;" horiz-adv-x="341" 
d="M167 -6q-54 0 -86 24t-44 65.5t-8 94.5q1 10 7 10h50q8 0 7 -10q-7 -61 13.5 -91t63.5 -30q39 0 58.5 23.5t19.5 73.5q0 44 -12 72.5t-42 50.5l-81 64q-41 32 -60.5 72.5t-19.5 97.5q1 71 36.5 110.5t98.5 39.5q74 0 108.5 -48t26.5 -131q0 -11 -7 -11h-51q-7 0 -6 11
q6 56 -13 86t-57 30q-32 0 -51 -21t-20 -64q0 -40 14 -68t43 -51l78 -61q29 -22 46.5 -46.5t25.5 -56t8 -73.5q0 -76 -35.5 -119.5t-110.5 -43.5zM145 -225q-6 0 -5 7l17 71q-10 3 -17 11t-7 24v15q0 19 10.5 28t26.5 9q19 0 28 -9t9 -28v-15q0 -13 -2 -23.5t-7 -22.5
l-19 -62q-2 -5 -6 -5h-28z" />
    <glyph glyph-name="uni0219" unicode="&#x219;" horiz-adv-x="293" 
d="M147 -6q-61 0 -89 38t-23 111q0 8 7 8h51q6 0 6 -7q-1 -48 9.5 -68t40.5 -20q51 0 51 66q0 26 -8.5 43.5t-28.5 33.5l-66 52q-31 24 -45 54.5t-14 73.5q0 54 28.5 83.5t82.5 29.5q56 0 84.5 -34t22.5 -93q0 -8 -7 -8h-50q-2 0 -4.5 1t-1.5 9q2 30 -9 47t-37 17
q-46 0 -46 -52q0 -25 9.5 -42t28.5 -34l65 -52q34 -28 46.5 -55t12.5 -71q0 -64 -29.5 -97.5t-86.5 -33.5zM130 -225q-6 0 -5 7l17 71q-10 3 -17 11t-7 24v15q0 19 10.5 28t26.5 9q19 0 28 -9t9 -28v-15q0 -13 -2 -23.5t-7 -22.5l-19 -62q-2 -5 -6 -5h-28z" />
    <glyph glyph-name="uni021A" unicode="&#x21a;" horiz-adv-x="324" 
d="M137 0q-7 0 -7 9v583h-105q-8 0 -8 9v45q0 9 8 9h275q7 0 7 -9v-45q0 -9 -7 -9h-105v-583q0 -9 -8 -9h-50zM137 -225q-6 0 -5 7l17 71q-10 3 -17 11t-7 24v15q0 19 10.5 28t26.5 9q19 0 28 -9t9 -28v-15q0 -13 -2 -23.5t-7 -22.5l-19 -62q-2 -5 -6 -5h-28z" />
    <glyph glyph-name="uni021B" unicode="&#x21b;" horiz-adv-x="253" 
d="M163 -6q-51 0 -73 31t-22 104v295h-43q-8 0 -8 8v45q0 9 8 9h45l8 122q1 8 8 8h41q6 0 6 -8v-122h90q8 0 8 -9v-45q0 -8 -8 -8h-90v-293q0 -41 10 -58t34 -17q13 0 25 3t22 7q8 3 8 -5v-46q0 -9 -7 -11q-13 -4 -29 -7t-33 -3zM134 -225q-6 0 -5 7l17 71q-10 3 -17 11
t-7 24v15q0 19 10.5 28t26.5 9q19 0 28 -9t9 -28v-15q0 -13 -2 -23.5t-7 -22.5l-19 -62q-2 -5 -6 -5h-28z" />
    <glyph glyph-name="uni0237" unicode="&#x237;" horiz-adv-x="143" 
d="M32 -188q-2 -1 -5 -1t-5 3l-29 41q-7 7 0 12q28 25 37 70t9 119v421q0 9 7 9h51q7 0 7 -9v-427q0 -60 -6 -105.5t-21.5 -78t-44.5 -54.5z" />
    <glyph glyph-name="uni02BC" unicode="&#x2bc;" horiz-adv-x="134" 
d="M42 524q-6 0 -5 8l17 71q-10 2 -17 10.5t-7 23.5v15q0 19 10.5 28t26.5 9q19 0 28 -9t9 -28v-15q0 -12 -2 -23t-7 -22l-19 -62q-2 -6 -6 -6h-28z" />
    <glyph glyph-name="circumflex" unicode="&#x2c6;" horiz-adv-x="218" 
d="M38 558q-8 -4 -8 4v41q0 8 4 10l70 40q5 3 10 0l71 -40q3 -2 3 -10v-41q0 -7 -8 -4l-71 39z" />
    <glyph glyph-name="caron" unicode="&#x2c7;" horiz-adv-x="218" 
d="M104 555l-70 40q-4 2 -4 10v41q0 8 8 4l71 -39l71 39q8 3 8 -4v-41q0 -8 -3 -10l-71 -40q-5 -2 -10 0z" />
    <glyph glyph-name="breve" unicode="&#x2d8;" horiz-adv-x="214" 
d="M107 547q-24 0 -42 9t-31 18q-4 4 -4 11v38q0 5 2.5 6t5.5 -1q15 -11 32.5 -18t36.5 -7q20 0 37 7t32 18q3 2 5.5 1t2.5 -6v-38q0 -7 -4 -11q-13 -10 -31 -18.5t-42 -8.5z" />
    <glyph glyph-name="dotaccent" unicode="&#x2d9;" horiz-adv-x="147" 
d="M74 575q-22 0 -33 11t-11 32v9q0 21 11 32.5t33 11.5t32.5 -11.5t10.5 -32.5v-9q0 -21 -10.5 -32t-32.5 -11z" />
    <glyph glyph-name="ring" unicode="&#x2da;" horiz-adv-x="207" 
d="M103 550q-34 0 -53.5 22t-19.5 60q0 39 19.5 61t53.5 22q35 0 54.5 -22t19.5 -61q0 -38 -19.5 -60t-54.5 -22zM103 588q30 0 30 44t-30 44q-29 0 -29 -44t29 -44z" />
    <glyph glyph-name="ogonek" unicode="&#x2db;" horiz-adv-x="161" 
d="M97 -192q-35 0 -51 16t-16 52v9q0 38 21.5 72.5t61.5 60.5l9 -11l2 -5q-19 -19 -31 -46.5t-12 -50.5v-10q0 -20 6.5 -27t19.5 -7h9t9 1q6 1 6 -6v-37q0 -7 -5 -8l-14 -2t-15 -1z" />
    <glyph glyph-name="tilde" unicode="&#x2dc;" horiz-adv-x="217" 
d="M137 569q-14 0 -24.5 4t-19 7.5t-18.5 3.5t-19.5 -4t-17.5 -9t-8 5v37q0 8 4 11q6 7 18.5 12.5t27.5 5.5t24.5 -3.5t18 -7.5t18.5 -4q11 0 20 3.5t17 8.5q9 4 9 -6v-36q0 -8 -4 -11q-7 -7 -19 -12t-27 -5z" />
    <glyph glyph-name="hungarumlaut" unicode="&#x2dd;" horiz-adv-x="271" 
d="M36 557q-10 0 -5 11l47 117q3 8 8 8h49q4 0 5.5 -2.5t-0.5 -7.5l-56 -118q-3 -8 -10 -8h-38zM137 557q-10 0 -5 11l46 117q3 8 9 8h48q4 0 5.5 -2.5t-0.5 -7.5l-55 -118q-3 -8 -10 -8h-38z" />
    <glyph glyph-name="gravecomb" unicode="&#x300;" 
d="M115 557q-7 0 -12 6l-71 119q-3 5 -1.5 8t5.5 3h51q7 0 10 -7l63 -120q2 -4 1 -6.5t-6 -2.5h-40z" />
    <glyph glyph-name="acutecomb" unicode="&#x301;" 
d="M35 557q-4 0 -5 2.5t1 6.5l63 120q3 7 10 7h50q5 0 6.5 -3t-1.5 -8l-71 -119q-4 -6 -13 -6h-40z" />
    <glyph glyph-name="uni0302" unicode="&#x302;" 
d="M38 558q-8 -4 -8 4v41q0 8 4 10l70 40q5 3 10 0l71 -40q3 -2 3 -10v-41q0 -7 -8 -4l-71 39z" />
    <glyph glyph-name="tildecomb" unicode="&#x303;" 
d="M137 569q-14 0 -24.5 4t-19 7.5t-18.5 3.5t-19.5 -4t-17.5 -9t-8 5v37q0 8 4 11q6 7 18.5 12.5t27.5 5.5t24.5 -3.5t18 -7.5t18.5 -4q11 0 20 3.5t17 8.5q9 4 9 -6v-36q0 -8 -4 -11q-7 -7 -19 -12t-27 -5z" />
    <glyph glyph-name="uni0304" unicode="&#x304;" 
d="M38 572q-8 0 -8 8v45q0 8 8 8h123q8 0 8 -8v-45q0 -8 -8 -8h-123z" />
    <glyph glyph-name="uni0306" unicode="&#x306;" 
d="M107 547q-24 0 -42 9t-31 18q-4 4 -4 11v38q0 5 2.5 6t5.5 -1q15 -11 32.5 -18t36.5 -7q20 0 37 7t32 18q3 2 5.5 1t2.5 -6v-38q0 -7 -4 -11q-13 -10 -31 -18.5t-42 -8.5z" />
    <glyph glyph-name="uni0307" unicode="&#x307;" 
d="M74 575q-22 0 -33 11t-11 32v9q0 21 11 32.5t33 11.5t32.5 -11.5t10.5 -32.5v-9q0 -21 -10.5 -32t-32.5 -11z" />
    <glyph glyph-name="uni0308" unicode="&#x308;" 
d="M71 578q-20 0 -30.5 11t-10.5 30v9q0 20 10.5 30.5t30.5 10.5t30.5 -10.5t10.5 -30.5v-9q0 -19 -10.5 -30t-30.5 -11zM183 578q-19 0 -29.5 11t-10.5 30v9q0 20 10.5 30.5t29.5 10.5q21 0 31 -10.5t10 -30.5v-9q0 -19 -10 -30t-31 -11z" />
    <glyph glyph-name="uni030A" unicode="&#x30a;" 
d="M103 550q-34 0 -53.5 22t-19.5 60q0 39 19.5 61t53.5 22q35 0 54.5 -22t19.5 -61q0 -38 -19.5 -60t-54.5 -22zM103 588q30 0 30 44t-30 44q-29 0 -29 -44t29 -44z" />
    <glyph glyph-name="uni030B" unicode="&#x30b;" 
d="M36 557q-10 0 -5 11l47 117q3 8 8 8h49q4 0 5.5 -2.5t-0.5 -7.5l-56 -118q-3 -8 -10 -8h-38zM137 557q-10 0 -5 11l46 117q3 8 9 8h48q4 0 5.5 -2.5t-0.5 -7.5l-55 -118q-3 -8 -10 -8h-38z" />
    <glyph glyph-name="uni030C" unicode="&#x30c;" 
d="M104 555l-70 40q-4 2 -4 10v41q0 8 8 4l71 -39l71 39q8 3 8 -4v-41q0 -8 -3 -10l-71 -40q-5 -2 -10 0z" />
    <glyph glyph-name="uni0312" unicode="&#x312;" 
d="M67 565q-19 0 -28 9t-9 28v15q0 13 2.5 23.5t6.5 22.5l19 62q3 5 6 5h28q6 0 5 -7l-17 -71q10 -3 17 -11t7 -24v-15q0 -19 -10.5 -28t-26.5 -9z" />
    <glyph glyph-name="uni0313" unicode="&#x313;" 
d="M42 549q-6 0 -5 7l17 71q-10 2 -17 10.5t-7 24.5v15q0 19 10.5 27.5t26.5 8.5q19 0 28 -8.5t9 -27.5v-16q0 -12 -2 -22.5t-7 -22.5l-19 -62q-2 -5 -6 -5h-28z" />
    <glyph glyph-name="uni0324" unicode="&#x324;" 
d="M71 -149q-20 0 -30.5 11t-10.5 30v9q0 20 10.5 30.5t30.5 10.5t30.5 -10.5t10.5 -30.5v-9q0 -19 -10.5 -30t-30.5 -11zM183 -149q-19 0 -29.5 11t-10.5 30v9q0 20 10.5 30.5t29.5 10.5q21 0 31 -10.5t10 -30.5v-9q0 -19 -10 -30t-31 -11z" />
    <glyph glyph-name="uni0325" unicode="&#x325;" 
d="M103 -218q-34 0 -53.5 22t-19.5 60q0 39 19.5 61t53.5 22q35 0 54.5 -22t19.5 -61q0 -38 -19.5 -60t-54.5 -22zM103 -180q30 0 30 44t-30 44q-29 0 -29 -44t29 -44z" />
    <glyph glyph-name="uni0326" unicode="&#x326;" 
d="M42 -225q-6 0 -5 7l17 71q-10 3 -17 11t-7 24v15q0 19 10.5 28t26.5 9q19 0 28 -9t9 -28v-15q0 -13 -2 -23.5t-7 -22.5l-19 -62q-2 -5 -6 -5h-28z" />
    <glyph glyph-name="uni0327" unicode="&#x327;" 
d="M75 -191q-13 0 -22.5 1.5t-16.5 2.5q-6 2 -6 8v31q0 8 6 6q4 -1 9.5 -1.5t13.5 -0.5q13 0 18.5 6.5t5.5 22.5v13q0 17 -7.5 23.5t-18.5 6.5h-12q-5 0 -5 7v9t1 9l19 71q2 5 7 5h33q6 0 5 -9l-19 -58h4q19 0 31 -13t12 -45v-21q0 -39 -14.5 -56.5t-43.5 -17.5z" />
    <glyph glyph-name="uni0328" unicode="&#x328;" 
d="M97 -192q-35 0 -51 16t-16 52v9q0 38 21.5 72.5t61.5 60.5l9 -11l2 -5q-19 -19 -31 -46.5t-12 -50.5v-10q0 -20 6.5 -27t19.5 -7h9t9 1q6 1 6 -6v-37q0 -7 -5 -8l-14 -2t-15 -1z" />
    <glyph glyph-name="uni0330" unicode="&#x330;" 
d="M137 -178q-14 0 -24.5 4t-19 7.5t-18.5 3.5t-19.5 -4t-17.5 -9t-8 5v37q0 8 4 11q6 7 18.5 12.5t27.5 5.5t24.5 -3.5t18 -7.5t18.5 -4q11 0 20 3.5t17 8.5q9 4 9 -6v-36q0 -8 -4 -11q-7 -7 -19 -12t-27 -5z" />
    <glyph glyph-name="uni0331" unicode="&#x331;" 
d="M38 -176q-8 0 -8 8v45q0 8 8 8h123q8 0 8 -8v-45q0 -8 -8 -8h-123z" />
    <glyph glyph-name="uni0335" unicode="&#x335;" 
d="M28 238q-8 0 -8 9v36q0 9 8 9h198q9 0 9 -9v-36q0 -9 -9 -9h-198z" />
    <glyph glyph-name="uni0336" unicode="&#x336;" 
d="M28 238q-8 0 -8 9v36q0 9 8 9h432q9 0 9 -9v-36q0 -9 -9 -9h-432z" />
    <glyph glyph-name="tonos" unicode="&#x384;" horiz-adv-x="155" 
d="M36 546q-7 0 -6 9l28 132q1 8 9 8h51q9 0 6 -10l-39 -132q-3 -7 -10 -7h-39z" />
    <glyph glyph-name="dieresistonos" unicode="&#x385;" horiz-adv-x="254" 
d="M109 705q-9 0 -7 10l20 119q2 8 9 8h52q5 0 6.5 -2.5t-0.5 -7.5l-34 -119q-1 -8 -9 -8h-37zM71 579q-20 0 -30.5 11t-10.5 30v9q0 20 10.5 30.5t30.5 10.5t30.5 -10.5t10.5 -30.5v-9q0 -19 -10.5 -30t-30.5 -11zM183 579q-19 0 -29.5 11t-10.5 30v9q0 20 10.5 30.5
t29.5 10.5q21 0 31 -10.5t10 -30.5v-9q0 -19 -10 -30t-31 -11z" />
    <glyph glyph-name="Alphatonos" unicode="&#x386;" horiz-adv-x="353" 
d="M12 0q-7 0 -6 10l130 638q1 7 9 7h70q8 0 9 -7l131 -638q1 -10 -6 -10h-55q-6 0 -8 6l-81 433q-7 35 -13.5 69.5t-11.5 69.5h-2q-5 -35 -10.5 -69.5t-12.5 -70.5l-81 -432q-1 -6 -7 -6h-55zM92 161l12 63h150l14 -63h-176zM5 516q-7 0 -6 9l20 123q1 7 9 7h51q8 0 5 -10
l-31 -122q-3 -7 -10 -7h-38z" />
    <glyph glyph-name="anoteleia" unicode="&#x387;" horiz-adv-x="162" 
d="M81 369q-21 0 -32.5 11t-11.5 33v8q0 22 11.5 33t32.5 11q22 0 33 -11t11 -33v-8q0 -22 -11 -33t-33 -11z" />
    <glyph glyph-name="Epsilontonos" unicode="&#x388;" horiz-adv-x="402" 
d="M129 0q-8 0 -8 9v637q0 9 7 9h226q7 0 7 -9v-45q0 -9 -7 -9h-168v-228h154q7 0 7 -9v-42q0 -9 -7 -9h-154v-241h168q7 0 7 -9v-45q0 -9 -7 -9h-225zM6 516q-7 0 -6 9l20 123q1 7 9 7h51q8 0 5 -10l-31 -122q-3 -7 -10 -7h-38z" />
    <glyph glyph-name="Etatonos" unicode="&#x389;" horiz-adv-x="480" 
d="M128 0q-7 0 -7 9v637q0 9 7 9h51q7 0 7 -9v-276h178v276q0 9 7 9h50q8 0 8 -9v-637q0 -9 -8 -9h-50q-7 0 -7 9v299h-178v-299q0 -9 -7 -9h-51zM6 516q-7 0 -6 9l20 123q1 7 9 7h51q8 0 5 -10l-31 -122q-3 -7 -10 -7h-38z" />
    <glyph glyph-name="Iotatonos" unicode="&#x38a;" horiz-adv-x="237" 
d="M128 0q-7 0 -7 9v637q0 9 7 9h51q7 0 7 -9v-637q0 -9 -7 -9h-51zM6 516q-7 0 -6 9l20 123q1 7 9 7h51q8 0 5 -10l-31 -122q-3 -7 -10 -7h-38z" />
    <glyph glyph-name="Omicrontonos" unicode="&#x38c;" horiz-adv-x="448" 
d="M248 -6q-75 0 -115.5 46t-40.5 139v295q0 95 40.5 141t115.5 46t116 -46t41 -141v-295q0 -93 -41 -139t-116 -46zM248 57q45 0 68.5 30.5t23.5 96.5v286q0 67 -23.5 97.5t-68.5 30.5q-44 0 -67.5 -30.5t-23.5 -97.5v-286q0 -66 23.5 -96.5t67.5 -30.5zM6 516q-7 0 -6 9
l20 123q1 7 9 7h51q8 0 5 -10l-31 -122q-3 -7 -10 -7h-38z" />
    <glyph glyph-name="Upsilontonos" unicode="&#x38e;" horiz-adv-x="445" 
d="M248 0q-7 0 -7 9v215l-130 420q-3 11 5 11h59q6 0 7 -6l61 -226q8 -28 15.5 -57.5t14.5 -58.5h1q8 29 16 58.5t15 58.5l61 225q2 6 7 6h57q8 0 6 -11l-130 -419v-216q0 -9 -6 -9h-52zM6 516q-7 0 -6 9l20 123q1 7 9 7h51q8 0 5 -10l-31 -122q-3 -7 -10 -7h-38z" />
    <glyph glyph-name="Omegatonos" unicode="&#x38f;" horiz-adv-x="450" 
d="M94 0q-7 0 -7 9v49q0 9 7 9h49v1q-16 15 -27 34.5t-16.5 44.5t-5.5 58v269q0 95 41 141t115 46q75 0 116 -46t41 -141v-269q0 -33 -6 -58t-16.5 -44.5t-26.5 -34.5v-1h49q7 0 7 -9v-49q0 -9 -7 -9h-129q-7 0 -7 9v46q0 9 6 9q31 0 48 35.5t17 89.5v281q0 67 -23.5 97.5
t-68.5 30.5q-44 0 -67.5 -30.5t-23.5 -97.5v-281q0 -54 17 -89.5t48 -35.5q6 0 6 -9v-46q0 -9 -7 -9h-129zM6 516q-7 0 -6 9l20 123q1 7 9 7h51q8 0 5 -10l-31 -122q-3 -7 -10 -7h-38z" />
    <glyph glyph-name="iotadieresistonos" unicode="&#x390;" horiz-adv-x="203" 
d="M136 -6q-33 0 -53 12.5t-28.5 38t-8.5 65.5v367q0 9 6 9h52q7 0 7 -9v-368q0 -31 9.5 -42.5t29.5 -11.5q10 0 19 1t17 3q6 2 6 -7v-44q0 -6 -5 -8q-10 -2 -23 -4t-28 -2zM60 705q-9 0 -7 10l20 119q2 8 9 8h52q5 0 6.5 -2.5t-0.5 -7.5l-34 -119q-1 -8 -9 -8h-37zM22 579
q-20 0 -30.5 11t-10.5 30v9q0 20 10.5 30.5t30.5 10.5t30.5 -10.5t10.5 -30.5v-9q0 -19 -10.5 -30t-30.5 -11zM134 579q-19 0 -29.5 11t-10.5 30v9q0 20 10.5 30.5t29.5 10.5q21 0 31 -10.5t10 -30.5v-9q0 -19 -10 -30t-31 -11z" />
    <glyph glyph-name="Alpha" unicode="&#x391;" horiz-adv-x="345" 
d="M4 0q-7 0 -6 10l130 638q1 7 9 7h70q8 0 9 -7l131 -638q1 -10 -6 -10h-55q-6 0 -8 6l-81 433q-7 35 -13.5 69.5t-11.5 69.5h-2q-5 -35 -10.5 -69.5t-12.5 -70.5l-81 -432q-1 -6 -7 -6h-55zM84 161l12 63h150l14 -63h-176z" />
    <glyph glyph-name="Beta" unicode="&#x392;" horiz-adv-x="363" 
d="M61 0q-9 0 -9 9v637q0 9 9 9h96q82 0 120.5 -39.5t38.5 -120.5q0 -53 -17.5 -90t-52.5 -58v-2q43 -14 65.5 -55t22.5 -106q0 -90 -41 -137t-121 -47h-111zM117 63h53q50 0 74.5 30.5t24.5 95.5q0 62 -23.5 91t-72.5 29h-56v-246zM117 370h49q42 0 63.5 29.5t21.5 86.5
t-21 81.5t-67 24.5h-46v-222z" />
    <glyph glyph-name="Gamma" unicode="&#x393;" horiz-adv-x="293" 
d="M59 0q-7 0 -7 9v637q0 9 6 9h212q6 0 6 -9v-45q0 -9 -6 -9h-153v-583q0 -9 -7 -9h-51z" />
    <glyph glyph-name="uni0394" unicode="&#x394;" horiz-adv-x="355" 
d="M17 0q-7 0 -7 9v31v4.5t1 5.5l122 598q1 7 9 7h72q6 0 7 -7l122 -595q1 -3 1.5 -6.5t0.5 -6.5v-31q0 -9 -8 -9h-320zM81 63h192l-72 376q-7 35 -13 69.5t-11 69.5h-2q-5 -35 -10.5 -69.5t-12.5 -70.5z" />
    <glyph glyph-name="Epsilon" unicode="&#x395;" horiz-adv-x="333" 
d="M60 0q-8 0 -8 9v637q0 9 7 9h226q7 0 7 -9v-45q0 -9 -7 -9h-168v-228h154q7 0 7 -9v-42q0 -9 -7 -9h-154v-241h168q7 0 7 -9v-45q0 -9 -7 -9h-225z" />
    <glyph glyph-name="Zeta" unicode="&#x396;" horiz-adv-x="332" 
d="M16 0q-6 0 -6 7v3q0 5 3 11l178 467q10 26 20 51.5t20 51.5v2q-19 -1 -37.5 -1h-37.5h-120q-7 0 -7 9v45q0 9 7 9h277q7 0 7 -7v-2q0 -3 -0.5 -6t-1.5 -6l-187 -484q-8 -22 -16.5 -43t-17.5 -43v-2q23 1 39 1h35h126q7 0 7 -9v-45q0 -9 -7 -9h-281z" />
    <glyph glyph-name="Eta" unicode="&#x397;" horiz-adv-x="411" 
d="M59 0q-7 0 -7 9v637q0 9 7 9h51q7 0 7 -9v-276h178v276q0 9 7 9h50q8 0 8 -9v-637q0 -9 -8 -9h-50q-7 0 -7 9v299h-178v-299q0 -9 -7 -9h-51z" />
    <glyph glyph-name="Theta" unicode="&#x398;" horiz-adv-x="399" 
d="M151 304q-7 0 -7 8v43q0 9 7 9h98q7 0 7 -9v-42q0 -9 -7 -9h-98zM199 -6q-75 0 -115.5 46t-40.5 139v295q0 95 40.5 141t115.5 46t116 -46t41 -141v-295q0 -93 -41 -139t-116 -46zM199 57q45 0 68.5 30.5t23.5 96.5v286q0 67 -23.5 97.5t-68.5 30.5q-44 0 -67.5 -30.5
t-23.5 -97.5v-286q0 -66 23.5 -96.5t67.5 -30.5z" />
    <glyph glyph-name="Iota" unicode="&#x399;" horiz-adv-x="168" 
d="M59 0q-7 0 -7 9v637q0 9 7 9h51q7 0 7 -9v-637q0 -9 -7 -9h-51z" />
    <glyph glyph-name="Kappa" unicode="&#x39a;" horiz-adv-x="362" 
d="M294 0q-5 0 -7 4l-151 321q-3 7 0 13l143 313q3 4 9 4h54q3 0 5 -3t0 -8l-145 -308l159 -325q3 -11 -6 -11h-61zM59 0q-7 0 -7 9v637q0 9 7 9h51q7 0 7 -9v-637q0 -9 -7 -9h-51z" />
    <glyph glyph-name="Lambda" unicode="&#x39b;" horiz-adv-x="339" 
d="M4 0q-7 0 -6 10l127 638q1 7 9 7h70q8 0 9 -7l128 -638q1 -10 -6 -10h-55q-5 0 -7 6l-80 432q-7 36 -13 70.5t-11 69.5h-2q-5 -35 -10.5 -69.5t-11.5 -69.5l-79 -433q-1 -6 -7 -6h-55z" />
    <glyph glyph-name="Mu" unicode="&#x39c;" horiz-adv-x="485" 
d="M50 0q-6 0 -6 9l8 637q0 9 8 9h78q8 0 9 -7l95 -391l96 391q1 7 9 7h78q7 0 7 -9l9 -637q0 -9 -7 -9h-50q-8 0 -8 9l-4 420v64t1 67h-1q-6 -31 -14 -62t-16 -61l-89 -338q-1 -7 -9 -7h-4q-7 0 -8 7l-91 339q-8 30 -15 60.5t-13 61.5h-2q2 -32 2 -66.5v-63.5l-5 -421
q0 -9 -7 -9h-51z" />
    <glyph glyph-name="Nu" unicode="&#x39d;" horiz-adv-x="412" 
d="M58 0q-6 0 -6 9v637q0 9 7 9h82q7 0 8 -6l108 -384q8 -26 16 -58.5t15.5 -65t12.5 -58.5h2q-1 20 -2 44t-1.5 49t-1 49t-0.5 44v378q0 8 7 8h49q7 0 7 -8v-638q0 -9 -7 -9h-82q-5 0 -7 5l-105 372q-15 53 -26 102.5t-20 92.5h-2q1 -29 1.5 -64.5l1 -71t0.5 -64.5v-363
q0 -9 -6 -9h-51z" />
    <glyph glyph-name="Xi" unicode="&#x39e;" horiz-adv-x="347" 
d="M43 587q-7 0 -7 8v51q0 9 7 9h261q7 0 7 -9v-51q0 -8 -7 -8h-261zM43 0q-7 0 -7 9v51q0 8 7 8h261q7 0 7 -8v-51q0 -9 -7 -9h-261zM86 300q-7 0 -7 9v50q0 9 7 9h173q7 0 7 -9v-50q0 -9 -7 -9h-173z" />
    <glyph glyph-name="Omicron" unicode="&#x39f;" horiz-adv-x="399" 
d="M199 -6q-75 0 -115.5 46t-40.5 139v295q0 95 40.5 141t115.5 46t116 -46t41 -141v-295q0 -93 -41 -139t-116 -46zM199 57q45 0 68.5 30.5t23.5 96.5v286q0 67 -23.5 97.5t-68.5 30.5q-44 0 -67.5 -30.5t-23.5 -97.5v-286q0 -66 23.5 -96.5t67.5 -30.5z" />
    <glyph glyph-name="Pi" unicode="&#x3a0;" horiz-adv-x="410" 
d="M59 0q-7 0 -7 9v637q0 9 7 9h293q7 0 7 -9v-637q0 -9 -8 -9h-50q-7 0 -7 9v583h-177v-583q0 -9 -7 -9h-51z" />
    <glyph glyph-name="Rho" unicode="&#x3a1;" horiz-adv-x="343" 
d="M59 0q-7 0 -7 9v637q0 9 7 9h96q85 0 124.5 -48.5t39.5 -152.5q0 -97 -40 -148.5t-118 -51.5h-44v-245q0 -9 -7 -9h-51zM117 316h38q52 0 75.5 33t23.5 103q0 76 -23.5 108.5t-71.5 32.5h-42v-277z" />
    <glyph glyph-name="Sigma" unicode="&#x3a3;" horiz-adv-x="304" 
d="M25 0q-7 0 -7 9v38q0 8 3 13l123 270l-123 265q-3 6 -3 13v38q0 9 6 9h260q7 0 7 -9v-45q0 -9 -7 -9h-106q-18 0 -42 0.5t-45 1.5v-2q12 -22 22.5 -43.5t20.5 -44.5l69 -151q3 -6 3 -11v-25q0 -5 -3 -11l-79 -169q-8 -19 -16.5 -36.5t-19.5 -37.5v-2q20 1 44.5 1.5
t43.5 0.5h108q7 0 7 -9v-45q0 -9 -7 -9h-259z" />
    <glyph glyph-name="Tau" unicode="&#x3a4;" horiz-adv-x="324" 
d="M137 0q-7 0 -7 9v583h-105q-8 0 -8 9v45q0 9 8 9h275q7 0 7 -9v-45q0 -9 -7 -9h-105v-583q0 -9 -8 -9h-50z" />
    <glyph glyph-name="Upsilon" unicode="&#x3a5;" horiz-adv-x="343" 
d="M146 0q-7 0 -7 9v215l-130 420q-3 11 5 11h59q6 0 7 -6l61 -226q8 -28 15.5 -57.5t14.5 -58.5h1q8 29 16 58.5t15 58.5l61 225q2 6 7 6h57q8 0 6 -11l-130 -419v-216q0 -9 -6 -9h-52z" />
    <glyph glyph-name="Phi" unicode="&#x3a6;" horiz-adv-x="507" 
d="M229 64q-59 0 -101 21.5t-63.5 68.5t-21.5 122v130q0 75 21.5 122t63.5 69t101 22h44q61 0 103.5 -21.5t65 -68t22.5 -123.5v-130q0 -76 -22.5 -123t-65 -68t-103.5 -21h-44zM230 124h46q41 0 68.5 14.5t41 48.5t13.5 91v126q0 58 -13.5 91.5t-41 48t-68.5 14.5h-46
q-40 0 -67.5 -14.5t-41 -48t-13.5 -91.5v-126q0 -57 13.5 -91t41 -48.5t67.5 -14.5zM228 -13q-7 0 -7 9v66l1 15v520l-1 14v75q0 9 7 9h50q8 0 8 -9v-75l-3 -15v-518l3 -16v-66q0 -9 -8 -9h-50z" />
    <glyph glyph-name="Chi" unicode="&#x3a7;" horiz-adv-x="340" 
d="M7 0q-8 0 -5 11l128 327l-120 306q-3 11 4 11h62q5 0 7 -4l52 -150q9 -27 18.5 -54.5t17.5 -54.5h1q8 28 17.5 55t19.5 55l52 148q2 5 7 5h59q9 0 4 -11l-119 -308l126 -326q5 -10 -4 -10h-62q-5 0 -7 5l-58 162q-10 29 -19.5 57.5t-17.5 56.5h-1q-8 -28 -17.5 -56.5
t-19.5 -57.5l-58 -161q-2 -6 -7 -6h-60z" />
    <glyph glyph-name="Psi" unicode="&#x3a8;" horiz-adv-x="480" 
d="M173 172q-49 0 -78.5 15t-42.5 49t-13 89v321q0 9 7 9h51q7 0 7 -9v-328q0 -49 15 -67t54 -18h134q39 0 54 18t15 67v328q0 9 7 9h51q7 0 7 -9v-321q0 -55 -13 -89t-42.5 -49t-78.5 -15h-134zM215 0q-8 0 -8 9l1 637q0 9 7 9h50q8 0 8 -9l-1 -637q0 -9 -7 -9h-50z" />
    <glyph glyph-name="uni03A9" unicode="&#x3a9;" horiz-adv-x="399" 
d="M43 0q-7 0 -7 9v49q0 9 7 9h49v1q-16 15 -27 34.5t-16.5 44.5t-5.5 58v269q0 95 41 141t115 46q75 0 116 -46t41 -141v-269q0 -33 -6 -58t-16.5 -44.5t-26.5 -34.5v-1h49q7 0 7 -9v-49q0 -9 -7 -9h-129q-7 0 -7 9v46q0 9 6 9q31 0 48 35.5t17 89.5v281q0 67 -23.5 97.5
t-68.5 30.5q-44 0 -67.5 -30.5t-23.5 -97.5v-281q0 -54 17 -89.5t48 -35.5q6 0 6 -9v-46q0 -9 -7 -9h-129z" />
    <glyph glyph-name="Iotadieresis" unicode="&#x3aa;" horiz-adv-x="168" 
d="M59 0q-7 0 -7 9v637q0 9 7 9h51q7 0 7 -9v-637q0 -9 -7 -9h-51zM30 723q-20 0 -30.5 10.5t-10.5 30.5v8q0 20 10.5 31t30.5 11t30.5 -11t10.5 -31v-8q0 -20 -10.5 -30.5t-30.5 -10.5zM142 723q-19 0 -29.5 10.5t-10.5 30.5v8q0 20 10.5 31t29.5 11q21 0 31 -11t10 -31v-8
q0 -20 -10 -30.5t-31 -10.5z" />
    <glyph glyph-name="Upsilondieresis" unicode="&#x3ab;" horiz-adv-x="343" 
d="M146 0q-7 0 -7 9v215l-130 420q-3 11 5 11h59q6 0 7 -6l61 -226q8 -28 15.5 -57.5t14.5 -58.5h1q8 29 16 58.5t15 58.5l61 225q2 6 7 6h57q8 0 6 -11l-130 -419v-216q0 -9 -6 -9h-52zM115 723q-20 0 -30.5 10.5t-10.5 30.5v8q0 20 10.5 31t30.5 11t30.5 -11t10.5 -31v-8
q0 -20 -10.5 -30.5t-30.5 -10.5zM227 723q-19 0 -29.5 10.5t-10.5 30.5v8q0 20 10.5 31t29.5 11q21 0 31 -11t10 -31v-8q0 -20 -10 -30.5t-31 -10.5z" />
    <glyph glyph-name="alphatonos" unicode="&#x3ac;" horiz-adv-x="335" 
d="M122 -6q-47 0 -65.5 29t-18.5 93v239q0 43 11 73.5t33 47t56 16.5q28 0 56.5 -13t44.5 -25l-6 -56q-19 14 -39 23t-40 9q-15 0 -26.5 -8.5t-18 -26t-6.5 -45.5v-229q0 -37 9 -50.5t31 -13.5q24 0 47 20t45 54l6 -56q-26 -35 -56 -58t-63 -23zM291 -6q-63 0 -63 80v21
l-4 2v317l5 25v38q0 9 7 9h46q7 0 7 -9v-384q0 -21 4 -29.5t15 -8.5q5 0 10 1t9 2q5 1 5 -7v-43q0 -6 -7 -9q-17 -5 -34 -5zM136 546q-7 0 -6 9l28 132q1 8 9 8h51q9 0 6 -10l-39 -132q-3 -7 -10 -7h-39z" />
    <glyph glyph-name="epsilontonos" unicode="&#x3ad;" horiz-adv-x="302" 
d="M154 -6q-64 0 -94.5 37t-30.5 108q0 43 18 71.5t47 38.5v2q-26 13 -41.5 42t-15.5 78q0 59 29.5 90t86.5 31q59 0 90 -34t26 -91q-1 -11 -8 -11h-48q-7 0 -6 10q3 64 -53 64q-27 0 -39.5 -16.5t-12.5 -51.5q0 -41 15.5 -63t46.5 -22h28q7 0 7 -9v-41q0 -9 -7 -9h-31
q-36 0 -51.5 -18.5t-15.5 -60.5t14 -62t46 -20q29 0 44 17.5t13 49.5q-2 8 6 8h48q7 0 8 -10q6 -58 -24 -93t-95 -35zM125 546q-7 0 -6 9l28 132q1 8 9 8h51q9 0 6 -10l-39 -132q-3 -7 -10 -7h-39z" />
    <glyph glyph-name="etatonos" unicode="&#x3ae;" horiz-adv-x="352" 
d="M248 -185q-7 0 -7 9v542q0 33 -10 48.5t-32 15.5t-44 -16.5t-46 -48.5l-5 54q29 36 57.5 54.5t61.5 18.5q41 0 62 -30t21 -92v-546q0 -9 -7 -9h-51zM59 0q-8 0 -8 9v386q0 20 -4 28t-14 8q-5 0 -10 -1t-9 -2q-6 -1 -6 6v44q0 6 7 9q9 3 18.5 4t18.5 1q31 0 46 -20.5
t15 -57.5v-12l3 -17v-376q0 -9 -7 -9h-50zM151 546q-7 0 -6 9l28 132q1 8 9 8h51q9 0 6 -10l-39 -132q-3 -7 -10 -7h-39z" />
    <glyph glyph-name="iotatonos" unicode="&#x3af;" horiz-adv-x="203" 
d="M136 -6q-33 0 -53 12.5t-28.5 38t-8.5 65.5v367q0 9 6 9h52q7 0 7 -9v-368q0 -31 9.5 -42.5t29.5 -11.5q10 0 19 1t17 3q6 2 6 -7v-44q0 -6 -5 -8q-10 -2 -23 -4t-28 -2zM53 546q-7 0 -6 9l28 132q1 8 9 8h51q9 0 6 -10l-39 -132q-3 -7 -10 -7h-39z" />
    <glyph glyph-name="upsilondieresistonos" unicode="&#x3b0;" horiz-adv-x="341" 
d="M175 -6q-64 0 -94 36t-30 115v248q0 21 -3.5 29.5t-14.5 8.5q-5 0 -10 -1t-9 -2q-6 -1 -6 6v44q0 8 7 9q9 2 19.5 3.5t20.5 1.5q33 0 47 -20t14 -64v-264q0 -51 14.5 -69t44.5 -18q29 0 43.5 21.5t14.5 76.5v110q0 65 -5 117t-11 95q-1 9 6 9h54q6 0 7 -8
q5 -40 9.5 -95.5t4.5 -120.5v-98q0 -91 -29 -130.5t-94 -39.5zM141 705q-9 0 -7 10l20 119q2 8 9 8h52q5 0 6.5 -2.5t-0.5 -7.5l-34 -119q-1 -8 -9 -8h-37zM103 579q-20 0 -30.5 11t-10.5 30v9q0 20 10.5 30.5t30.5 10.5t30.5 -10.5t10.5 -30.5v-9q0 -19 -10.5 -30
t-30.5 -11zM215 579q-19 0 -29.5 11t-10.5 30v9q0 20 10.5 30.5t29.5 10.5q21 0 31 -10.5t10 -30.5v-9q0 -19 -10 -30t-31 -11z" />
    <glyph glyph-name="alpha" unicode="&#x3b1;" horiz-adv-x="335" 
d="M122 -6q-47 0 -65.5 29t-18.5 93v239q0 43 11 73.5t33 47t56 16.5q28 0 56.5 -13t44.5 -25l-6 -56q-19 14 -39 23t-40 9q-15 0 -26.5 -8.5t-18 -26t-6.5 -45.5v-229q0 -37 9 -50.5t31 -13.5q24 0 47 20t45 54l6 -56q-26 -35 -56 -58t-63 -23zM291 -6q-63 0 -63 80v21
l-4 2v317l5 25v38q0 9 7 9h46q7 0 7 -9v-384q0 -21 4 -29.5t15 -8.5q5 0 10 1t9 2q5 1 5 -7v-43q0 -6 -7 -9q-17 -5 -34 -5z" />
    <glyph glyph-name="beta" unicode="&#x3b2;" horiz-adv-x="342" 
d="M53 -185q-7 0 -7 9v719q0 73 31.5 109.5t89.5 36.5q59 0 87.5 -34t28.5 -111v-47q0 -44 -12.5 -70t-36.5 -40v-2q32 -7 52 -32.5t20 -75.5v-139q0 -72 -29 -108t-83 -36q-25 0 -48.5 8t-43.5 18l1 62q17 -10 38 -17.5t40 -7.5q29 0 44.5 22t15.5 69v126q0 33 -14.5 53.5
t-42.5 20.5h-31q-6 0 -6 6v46q0 7 6 7h17q26 0 37 21.5t11 66.5v53q0 44 -13 61t-39 17q-28 0 -41.5 -18.5t-13.5 -59.5v-724q0 -9 -7 -9h-51z" />
    <glyph glyph-name="gamma" unicode="&#x3b3;" horiz-adv-x="317" 
d="M134 -185q-7 0 -7 9v140q-4 54 -14 123.5t-22.5 143t-26.5 139.5q-7 36 -16 48.5t-23 12.5q-8 0 -19 -3q-3 -1 -5 1.5t-2 5.5v43q0 9 6 10q8 2 17.5 3t19.5 1q23 0 39 -10.5t27.5 -38.5t19.5 -82q6 -36 11 -66.5t9 -61.5q3 -25 5.5 -49.5t5 -48.5t4.5 -49h1
q3 19 5.5 37.5t5.5 37t6.5 37t7.5 36.5l48 245q1 7 7 7h54q9 0 7 -10l-113 -479v-173q0 -9 -7 -9h-51z" />
    <glyph glyph-name="delta" unicode="&#x3b4;" horiz-adv-x="338" 
d="M169 -6q-66 0 -98.5 40.5t-32.5 122.5v117q0 36 7.5 65t24.5 51.5t43.5 40t63.5 30.5l33 -41q-42 -15 -65.5 -34t-32.5 -47t-9 -72v-109q0 -53 15.5 -77t50.5 -24t50.5 24t15.5 77v122q0 39 -4 62.5t-16.5 46.5t-40.5 59l-83 111q-12 16 -19 34t-7 36q0 28 17.5 43.5
t53.5 15.5h145q7 0 7 -9v-41q0 -8 -7 -8h-124q-17 0 -17 -15q0 -7 3 -14t8 -14l80 -110q30 -40 44.5 -68.5t19.5 -57t5 -68.5v-126q0 -82 -32.5 -122.5t-98.5 -40.5z" />
    <glyph glyph-name="epsilon" unicode="&#x3b5;" horiz-adv-x="302" 
d="M154 -6q-64 0 -94.5 37t-30.5 108q0 43 18 71.5t47 38.5v2q-26 13 -41.5 42t-15.5 78q0 59 29.5 90t86.5 31q59 0 90 -34t26 -91q-1 -11 -8 -11h-48q-7 0 -6 10q3 64 -53 64q-27 0 -39.5 -16.5t-12.5 -51.5q0 -41 15.5 -63t46.5 -22h28q7 0 7 -9v-41q0 -9 -7 -9h-31
q-36 0 -51.5 -18.5t-15.5 -60.5t14 -62t46 -20q29 0 44 17.5t13 49.5q-2 8 6 8h48q7 0 8 -10q6 -58 -24 -93t-95 -35z" />
    <glyph glyph-name="zeta" unicode="&#x3b6;" horiz-adv-x="269" 
d="M206 -130q-7 0 -7 9v83q0 23 -5.5 30.5t-25.5 7.5h-14q-63 0 -97 45.5t-34 138.5q0 53 13 105.5t35.5 105t49.5 104.5l65 126h-148q-8 0 -8 8v41q0 9 8 9h211q7 0 7 -9v-34q0 -4 -0.5 -6t-1.5 -5l-72 -141q-29 -57 -50.5 -108t-32.5 -99t-11 -97q0 -66 21 -94.5t71 -28.5
q31 0 48.5 -7t25 -24.5t7.5 -51.5v-99q0 -9 -7 -9h-48z" />
    <glyph glyph-name="eta" unicode="&#x3b7;" horiz-adv-x="352" 
d="M248 -185q-7 0 -7 9v542q0 33 -10 48.5t-32 15.5t-44 -16.5t-46 -48.5l-5 54q29 36 57.5 54.5t61.5 18.5q41 0 62 -30t21 -92v-546q0 -9 -7 -9h-51zM59 0q-8 0 -8 9v386q0 20 -4 28t-14 8q-5 0 -10 -1t-9 -2q-6 -1 -6 6v44q0 6 7 9q9 3 18.5 4t18.5 1q31 0 46 -20.5
t15 -57.5v-12l3 -17v-376q0 -9 -7 -9h-50z" />
    <glyph glyph-name="theta" unicode="&#x3b8;" horiz-adv-x="354" 
d="M177 689q66 0 98.5 -40.5t32.5 -122.5v-369q0 -82 -33 -122.5t-98 -40.5t-98 40.5t-33 122.5v369q0 82 33 122.5t98 40.5zM177 626q-35 0 -50.5 -24t-15.5 -78v-137h132v137q0 54 -15.5 78t-50.5 24zM177 57q35 0 50.5 24t15.5 77v171h-132v-171q0 -53 15.5 -77t50.5 -24
z" />
    <glyph glyph-name="iota" unicode="&#x3b9;" horiz-adv-x="203" 
d="M136 -6q-33 0 -53 12.5t-28.5 38t-8.5 65.5v367q0 9 6 9h52q7 0 7 -9v-368q0 -31 9.5 -42.5t29.5 -11.5q10 0 19 1t17 3q6 2 6 -7v-44q0 -6 -5 -8q-10 -2 -23 -4t-28 -2z" />
    <glyph glyph-name="kappa" unicode="&#x3ba;" horiz-adv-x="308" 
d="M248 0q-4 0 -7 4l-120 240q-4 6 0 15l112 222q4 5 8 5h56q4 0 5 -2.5t-1 -7.5l-116 -221l126 -244q5 -11 -5 -11h-58zM53 0q-7 0 -7 9v468q0 9 7 9h51q7 0 7 -9v-468q0 -9 -7 -9h-51z" />
    <glyph glyph-name="lambda" unicode="&#x3bb;" horiz-adv-x="314" 
d="M276 -6q-24 0 -39.5 10t-24 32t-14.5 56l-25 149q-7 41 -11.5 75.5t-9.5 78.5h-1q-7 -44 -13 -78t-15 -75l-50 -235q-1 -7 -7 -7h-55q-8 0 -5 10l106 451q1 7 7 7h11l-19 117q-3 22 -12 32.5t-23 10.5q-7 0 -13 -0.5t-12 -2.5q-6 -1 -6 6v44q0 7 5 8q17 6 40 6
q24 0 41 -9.5t28.5 -27.5t15.5 -45l86 -506q4 -24 11 -35t20 -11q7 0 19 3q6 2 6 -6v-42q0 -7 -5 -10q-8 -4 -18 -5t-18 -1z" />
    <glyph glyph-name="uni03BC" unicode="&#x3bc;" horiz-adv-x="340" 
d="M53 -185q-7 0 -7 9v653q0 9 7 9h51q7 0 7 -9v-347q0 -35 10.5 -54t33.5 -19q20 0 37.5 14t36.5 39v367q0 9 7 9h50q8 0 8 -9v-384q0 -21 4 -29.5t15 -8.5q5 0 9.5 1t8.5 2q6 1 6 -7v-44q0 -5 -7 -8t-17 -4t-18 -1q-25 0 -40 12.5t-20 42.5v1q-19 -25 -37 -40.5t-44 -15.5
q-16 0 -27.5 8t-17.5 17v-195q0 -9 -7 -9h-49z" />
    <glyph glyph-name="nu" unicode="&#x3bd;" horiz-adv-x="321" 
d="M129 0q-5 0 -7 6l-102 470q-3 10 5 10h56q7 0 8 -8l54 -291q5 -30 10 -60.5t9 -60.5h1q7 31 13.5 61.5t13.5 61.5l27 117q8 37 13.5 68.5t5.5 65.5v38q0 8 7 8h51q7 0 7 -9v-38q0 -43 -7.5 -82t-19.5 -84l-70 -267q-1 -6 -7 -6h-68z" />
    <glyph glyph-name="xi" unicode="&#x3be;" horiz-adv-x="272" 
d="M213 -130q-8 0 -8 9v83q0 25 -6 31.5t-25 6.5h-11q-68 0 -101 36t-33 107v72q0 62 20 97t57 48v2q-31 15 -44.5 43.5t-13.5 71.5v23q0 48 15 76.5t48 44.5v2q-11 -1 -23.5 -1.5t-23.5 -0.5h-31q-8 0 -8 9v44q0 9 8 9h213q8 0 8 -9v-43q0 -9 -8 -9h-29q-55 0 -80 -29.5
t-25 -90.5v-27q0 -44 14.5 -66t48.5 -22h32q8 0 8 -9v-37q0 -9 -8 -9h-38q-38 0 -56.5 -28t-18.5 -76v-75q0 -53 22 -72.5t71 -19.5q32 0 49.5 -6.5t24.5 -23.5t7 -50v-102q0 -9 -7 -9h-48z" />
    <glyph glyph-name="omicron" unicode="&#x3bf;" horiz-adv-x="338" 
d="M169 -6q-67 0 -99 39.5t-32 121.5v175q0 83 32 122.5t99 39.5t99 -39.5t32 -122.5v-175q0 -82 -32 -121.5t-99 -39.5zM169 57q35 0 50.5 23t15.5 76v172q0 54 -15.5 78t-50.5 24t-50.5 -24t-15.5 -78v-172q0 -53 16 -76t50 -23z" />
    <glyph glyph-name="pi" unicode="&#x3c0;" horiz-adv-x="359" 
d="M303 -6q-33 0 -53.5 22t-20.5 86v322h-106v-415q0 -9 -8 -9h-50q-7 0 -7 9v415h-41q-7 0 -7 9v44q0 9 7 9h324q7 0 7 -9v-44q0 -9 -7 -9h-47v-324q0 -23 6.5 -34t20.5 -11q7 0 13 0.5t10 1.5q9 3 9 -6v-42q0 -8 -5 -9q-7 -2 -18.5 -4t-26.5 -2z" />
    <glyph glyph-name="rho" unicode="&#x3c1;" horiz-adv-x="333" 
d="M53 -185q-7 0 -7 9v510q0 79 31.5 118.5t93.5 39.5t93 -39.5t31 -118.5v-176q0 -78 -26 -121t-73 -43q-22 0 -45.5 7t-49.5 19l-1 62q17 -8 36 -16.5t41 -8.5q26 0 39.5 24.5t13.5 72.5v178q0 52 -13.5 75t-45.5 23q-31 0 -45.5 -23t-14.5 -75v-508q0 -9 -7 -9h-51z" />
    <glyph glyph-name="uni03C2" unicode="&#x3c2;" horiz-adv-x="324" 
d="M218 -130q-7 0 -7 9v83q0 23 -6 30.5t-28 7.5h-16q-61 0 -92 36.5t-31 124.5v167q0 83 32 123.5t99 40.5q41 0 69 -17t41 -49t10 -77q0 -12 -8 -12h-47q-4 0 -5.5 2.5t-0.5 6.5q2 39 -13 61.5t-46 22.5q-35 0 -50.5 -23.5t-15.5 -80.5v-167q0 -57 17.5 -77.5t56.5 -20.5
q40 0 60.5 -6.5t28 -24t7.5 -50.5v-101q0 -9 -7 -9h-48z" />
    <glyph glyph-name="sigma" unicode="&#x3c3;" horiz-adv-x="355" 
d="M169 -6q-67 0 -99 39.5t-32 121.5v169q0 74 31.5 118t95.5 44h172q7 0 7 -8v-44q0 -8 -7 -8l-76 3v-1q17 -16 28 -41.5t11 -66.5v-165q0 -82 -32 -121.5t-99 -39.5zM169 57q35 0 50.5 23t15.5 76v172q0 30 -5.5 49t-15.5 31.5t-22 20.5h-26q-31 0 -47 -24t-16 -74v-175
q0 -53 16 -76t50 -23z" />
    <glyph glyph-name="tau" unicode="&#x3c4;" horiz-adv-x="309" 
d="M200 -6q-32 0 -51.5 12.5t-28.5 38t-9 65.5v314h-89q-7 0 -7 9v44q0 9 7 9h265q7 0 7 -9v-44q0 -9 -7 -9h-110v-315q0 -31 9.5 -42.5t30.5 -11.5q11 0 22 1.5t19 3.5q6 2 6 -7v-45q0 -6 -6 -8q-9 -2 -23.5 -4t-34.5 -2z" />
    <glyph glyph-name="upsilon" unicode="&#x3c5;" horiz-adv-x="341" 
d="M175 -6q-64 0 -94 36t-30 115v248q0 21 -3.5 29.5t-14.5 8.5q-5 0 -10 -1t-9 -2q-6 -1 -6 6v44q0 8 7 9q9 2 19.5 3.5t20.5 1.5q33 0 47 -20t14 -64v-264q0 -51 14.5 -69t44.5 -18q29 0 43.5 21.5t14.5 76.5v110q0 65 -5 117t-11 95q-1 9 6 9h54q6 0 7 -8
q5 -40 9.5 -95.5t4.5 -120.5v-98q0 -91 -29 -130.5t-94 -39.5z" />
    <glyph glyph-name="phi" unicode="&#x3c6;" horiz-adv-x="476" 
d="M212 -185q-7 0 -7 9v176h-18q-66 0 -103.5 36t-37.5 119v322q0 9 7 9h51q7 0 7 -9v-319q0 -51 19 -73.5t54 -22.5h21v408q0 9 7 11q20 4 47.5 7.5t53.5 3.5q68 0 92.5 -37t24.5 -105v-195q0 -83 -38 -119t-103 -36h-19v-176q0 -9 -7 -9h-51zM270 62h21q35 0 54.5 22.5
t19.5 73.5v195q0 48 -13 64t-38 16q-14 0 -24.5 -1t-19.5 -3v-367z" />
    <glyph glyph-name="chi" unicode="&#x3c7;" horiz-adv-x="302" 
d="M268 -191q-33 0 -46.5 21t-24.5 69l-23 102q-6 27 -11.5 53.5t-10.5 54.5h-2q-5 -28 -12 -54.5t-15 -53.5l-48 -180q-1 -6 -7 -6h-54q-8 0 -6 11l104 336l-56 224q-7 28 -12.5 36.5t-16.5 8.5q-5 0 -10.5 -0.5t-11.5 -2.5q-5 -1 -5 6v44q0 7 4 8q8 3 18 4.5t21 1.5
q33 0 46.5 -21t23.5 -69l20 -87q6 -25 11.5 -50t10.5 -51h1q6 26 11.5 51t12.5 50l42 165q1 6 8 6h56q8 0 5 -10l-95 -312l59 -249q7 -27 13 -36t16 -9q5 0 10.5 1t11.5 2q5 1 5 -6v-44q0 -5 -4 -8q-7 -4 -17.5 -5t-21.5 -1z" />
    <glyph glyph-name="psi" unicode="&#x3c8;" horiz-adv-x="481" 
d="M213 -185q-7 0 -7 9v176h-19q-66 0 -103.5 36t-37.5 119v322q0 9 7 9h51q7 0 7 -9v-319q0 -51 19 -73.5t54 -22.5h22v569q0 9 7 9h51q7 0 7 -9v-569h26q35 0 54 22.5t19 73.5v211q0 30 -6.5 43t-23.5 16q-6 2 -6 10v45q0 9 7 9q54 0 74 -30t20 -94v-213q0 -83 -37.5 -119
t-103.5 -36h-23v-176q0 -9 -7 -9h-51z" />
    <glyph glyph-name="omega" unicode="&#x3c9;" horiz-adv-x="481" 
d="M148 -6q-48 0 -76.5 38.5t-28.5 114.5v221q0 64 20 94t74 30q7 0 7 -9v-45q0 -8 -6 -10q-17 -3 -23.5 -16t-6.5 -43v-224q0 -49 12.5 -67t36.5 -18t38 22.5t14 64.5v189q0 9 7 9h49q7 0 7 -9v-189q0 -42 14 -64.5t38 -22.5t36.5 18t12.5 67v224q0 30 -6.5 43t-23.5 16
q-6 2 -6 10v45q0 9 7 9q54 0 74 -30t20 -94v-221q0 -76 -28.5 -114.5t-76.5 -38.5q-35 0 -60 22t-33 62h-1q-7 -40 -31.5 -62t-59.5 -22z" />
    <glyph glyph-name="iotadieresis" unicode="&#x3ca;" horiz-adv-x="203" 
d="M136 -6q-33 0 -53 12.5t-28.5 38t-8.5 65.5v367q0 9 6 9h52q7 0 7 -9v-368q0 -31 9.5 -42.5t29.5 -11.5q10 0 19 1t17 3q6 2 6 -7v-44q0 -6 -5 -8q-10 -2 -23 -4t-28 -2zM22 578q-20 0 -30.5 11t-10.5 30v9q0 20 10.5 30.5t30.5 10.5t30.5 -10.5t10.5 -30.5v-9
q0 -19 -10.5 -30t-30.5 -11zM134 578q-19 0 -29.5 11t-10.5 30v9q0 20 10.5 30.5t29.5 10.5q21 0 31 -10.5t10 -30.5v-9q0 -19 -10 -30t-31 -11z" />
    <glyph glyph-name="upsilondieresis" unicode="&#x3cb;" horiz-adv-x="341" 
d="M175 -6q-64 0 -94 36t-30 115v248q0 21 -3.5 29.5t-14.5 8.5q-5 0 -10 -1t-9 -2q-6 -1 -6 6v44q0 8 7 9q9 2 19.5 3.5t20.5 1.5q33 0 47 -20t14 -64v-264q0 -51 14.5 -69t44.5 -18q29 0 43.5 21.5t14.5 76.5v110q0 65 -5 117t-11 95q-1 9 6 9h54q6 0 7 -8
q5 -40 9.5 -95.5t4.5 -120.5v-98q0 -91 -29 -130.5t-94 -39.5zM103 578q-20 0 -30.5 11t-10.5 30v9q0 20 10.5 30.5t30.5 10.5t30.5 -10.5t10.5 -30.5v-9q0 -19 -10.5 -30t-30.5 -11zM215 578q-19 0 -29.5 11t-10.5 30v9q0 20 10.5 30.5t29.5 10.5q21 0 31 -10.5t10 -30.5
v-9q0 -19 -10 -30t-31 -11z" />
    <glyph glyph-name="omicrontonos" unicode="&#x3cc;" horiz-adv-x="338" 
d="M169 -6q-67 0 -99 39.5t-32 121.5v175q0 83 32 122.5t99 39.5t99 -39.5t32 -122.5v-175q0 -82 -32 -121.5t-99 -39.5zM169 57q35 0 50.5 23t15.5 76v172q0 54 -15.5 78t-50.5 24t-50.5 -24t-15.5 -78v-172q0 -53 16 -76t50 -23zM144 546q-7 0 -6 9l28 132q1 8 9 8h51
q9 0 6 -10l-39 -132q-3 -7 -10 -7h-39z" />
    <glyph glyph-name="upsilontonos" unicode="&#x3cd;" horiz-adv-x="341" 
d="M175 -6q-64 0 -94 36t-30 115v248q0 21 -3.5 29.5t-14.5 8.5q-5 0 -10 -1t-9 -2q-6 -1 -6 6v44q0 8 7 9q9 2 19.5 3.5t20.5 1.5q33 0 47 -20t14 -64v-264q0 -51 14.5 -69t44.5 -18q29 0 43.5 21.5t14.5 76.5v110q0 65 -5 117t-11 95q-1 9 6 9h54q6 0 7 -8
q5 -40 9.5 -95.5t4.5 -120.5v-98q0 -91 -29 -130.5t-94 -39.5zM134 546q-7 0 -6 9l28 132q1 8 9 8h51q9 0 6 -10l-39 -132q-3 -7 -10 -7h-39z" />
    <glyph glyph-name="omegatonos" unicode="&#x3ce;" horiz-adv-x="481" 
d="M148 -6q-48 0 -76.5 38.5t-28.5 114.5v221q0 64 20 94t74 30q7 0 7 -9v-45q0 -8 -6 -10q-17 -3 -23.5 -16t-6.5 -43v-224q0 -49 12.5 -67t36.5 -18t38 22.5t14 64.5v189q0 9 7 9h49q7 0 7 -9v-189q0 -42 14 -64.5t38 -22.5t36.5 18t12.5 67v224q0 30 -6.5 43t-23.5 16
q-6 2 -6 10v45q0 9 7 9q54 0 74 -30t20 -94v-221q0 -76 -28.5 -114.5t-76.5 -38.5q-35 0 -60 22t-33 62h-1q-7 -40 -31.5 -62t-59.5 -22zM215 546q-7 0 -6 9l28 132q1 8 9 8h51q9 0 6 -10l-39 -132q-3 -7 -10 -7h-39z" />
    <glyph glyph-name="uni0400" unicode="&#x400;" horiz-adv-x="333" 
d="M60 0q-8 0 -8 9v637q0 9 7 9h226q7 0 7 -9v-45q0 -9 -7 -9h-168v-228h154q7 0 7 -9v-42q0 -9 -7 -9h-154v-241h168q7 0 7 -9v-45q0 -9 -7 -9h-225zM170 714q-10 0 -12 6l-61 100q-3 5 -1.5 8.5t5.5 3.5h52q5 0 7 -2t4 -5l52 -102q2 -4 1 -6.5t-5 -2.5h-42z" />
    <glyph glyph-name="uni0401" unicode="&#x401;" horiz-adv-x="333" 
d="M60 0q-8 0 -8 9v637q0 9 7 9h226q7 0 7 -9v-45q0 -9 -7 -9h-168v-228h154q7 0 7 -9v-42q0 -9 -7 -9h-154v-241h168q7 0 7 -9v-45q0 -9 -7 -9h-225zM116 723q-20 0 -30.5 10.5t-10.5 30.5v8q0 20 10.5 31t30.5 11t30.5 -11t10.5 -31v-8q0 -20 -10.5 -30.5t-30.5 -10.5z
M228 723q-19 0 -29.5 10.5t-10.5 30.5v8q0 20 10.5 31t29.5 11q21 0 31 -11t10 -31v-8q0 -20 -10 -30.5t-31 -10.5z" />
    <glyph glyph-name="uni0402" unicode="&#x402;" horiz-adv-x="446" 
d="M304 -5q-9 -2 -12 4l-14 49q-3 11 7 13q19 7 30 24.5t15.5 45.5t4.5 63v113q0 35 -12.5 52t-38.5 17q-22 0 -44 -13t-45 -33v-321q0 -9 -8 -9h-50q-7 0 -7 9v583h-105q-8 0 -8 9v45q0 9 8 9h275q7 0 7 -9v-45q0 -9 -7 -9h-105v-205q23 20 51 35.5t60 15.5
q47 0 70.5 -31.5t23.5 -93.5v-115q0 -60 -10 -102.5t-31 -67t-55 -33.5z" />
    <glyph glyph-name="uni0403" unicode="&#x403;" horiz-adv-x="293" 
d="M59 0q-7 0 -7 9v637q0 9 6 9h212q6 0 6 -9v-45q0 -9 -6 -9h-153v-583q0 -9 -7 -9h-51zM129 714q-4 0 -5 2.5t1 6.5l52 102q5 7 11 7h52q5 0 6 -3.5t-2 -8.5l-61 -100q-2 -6 -12 -6h-42z" />
    <glyph glyph-name="uni0404" unicode="&#x404;" horiz-adv-x="379" 
d="M191 -6q-50 0 -83 18t-49 59t-16 109v295q0 102 36 144t112 42q48 0 81.5 -19t50 -56t13.5 -90q-1 -10 -7 -10h-52q-6 0 -6 11q1 36 -8 58t-27 32.5t-45 10.5q-44 0 -63.5 -24.5t-19.5 -94.5v-114h137q6 0 6 -9v-45q0 -9 -6 -9h-137v-126q0 -67 19.5 -93t63.5 -26
q42 0 63 24.5t19 76.5q0 10 8 10h50q7 0 7 -8q1 -57 -15 -94t-49 -54.5t-83 -17.5z" />
    <glyph glyph-name="uni0405" unicode="&#x405;" horiz-adv-x="341" 
d="M167 -6q-54 0 -86 24t-44 65.5t-8 94.5q1 10 7 10h50q8 0 7 -10q-7 -61 13.5 -91t63.5 -30q39 0 58.5 23.5t19.5 73.5q0 44 -12 72.5t-42 50.5l-81 64q-41 32 -60.5 72.5t-19.5 97.5q1 71 36.5 110.5t98.5 39.5q74 0 108.5 -48t26.5 -131q0 -11 -7 -11h-51q-7 0 -6 11
q6 56 -13 86t-57 30q-32 0 -51 -21t-20 -64q0 -40 14 -68t43 -51l78 -61q29 -22 46.5 -46.5t25.5 -56t8 -73.5q0 -76 -35.5 -119.5t-110.5 -43.5z" />
    <glyph glyph-name="uni0406" unicode="&#x406;" horiz-adv-x="168" 
d="M59 0q-7 0 -7 9v637q0 9 7 9h51q7 0 7 -9v-637q0 -9 -7 -9h-51z" />
    <glyph glyph-name="uni0407" unicode="&#x407;" horiz-adv-x="168" 
d="M59 0q-7 0 -7 9v637q0 9 7 9h51q7 0 7 -9v-637q0 -9 -7 -9h-51zM30 723q-20 0 -30.5 10.5t-10.5 30.5v8q0 20 10.5 31t30.5 11t30.5 -11t10.5 -31v-8q0 -20 -10.5 -30.5t-30.5 -10.5zM142 723q-19 0 -29.5 10.5t-10.5 30.5v8q0 20 10.5 31t29.5 11q21 0 31 -11t10 -31v-8
q0 -20 -10 -30.5t-31 -10.5z" />
    <glyph glyph-name="uni0408" unicode="&#x408;" horiz-adv-x="168" 
d="M22 -138q-10 -4 -13 6l-14 47q-1 5 0 8.5t6 4.5q17 6 28.5 21.5t17 44.5t5.5 77v575q0 9 7 9h52q6 0 6 -9v-574q0 -70 -11 -112.5t-32 -65t-52 -32.5z" />
    <glyph glyph-name="uni0409" unicode="&#x409;" horiz-adv-x="529" 
d="M4 0q-7 0 -6 10l127 638q1 7 9 7h70q8 0 9 -7l49 -245h53q95 0 142 -49t47 -151q0 -100 -38.5 -151t-115.5 -52h-70q-5 0 -7 6l-82 440q-6 34 -11.5 66.5t-10.5 65.5h-2q-4 -33 -9.5 -65t-11.5 -66l-80 -441q-1 -6 -7 -6h-55zM330 63h16q46 0 70 33.5t23 106.5
q-1 74 -30 106t-93 32h-42z" />
    <glyph glyph-name="uni040A" unicode="&#x40a;" horiz-adv-x="593" 
d="M59 0q-7 0 -7 9v637q0 9 7 9h51q7 0 7 -9v-256h178v256q0 9 7 9h50q8 0 8 -9v-256h32q88 0 132 -47t44 -140q0 -99 -41.5 -151t-131.5 -52h-93q-7 0 -7 9v318h-178v-318q0 -9 -7 -9h-51zM360 63h34q57 0 83 34t26 106q-1 65 -27.5 94.5t-82.5 29.5h-33v-264z" />
    <glyph glyph-name="uni040B" unicode="&#x40b;" horiz-adv-x="446" 
d="M137 0q-7 0 -7 9v583h-105q-8 0 -8 9v45q0 9 8 9h286q7 0 7 -9v-45q0 -9 -7 -9h-116v-205q23 20 51 35.5t60 15.5q47 0 70.5 -31.5t23.5 -93.5v-304q0 -9 -7 -9h-51q-7 0 -7 9v298q0 35 -12.5 52t-38.5 17q-22 0 -44 -13t-45 -33v-321q0 -9 -8 -9h-50z" />
    <glyph glyph-name="uni040C" unicode="&#x40c;" horiz-adv-x="365" 
d="M59 0q-7 0 -7 9v637q0 9 7 9h51q7 0 7 -9v-280h47l118 284q2 3 4 4t4 1h53q4 0 5 -3t-1 -8l-127 -302l142 -331q4 -11 -6 -11h-55q-3 0 -4.5 0.5t-3.5 4.5l-128 298h-48v-294q0 -9 -7 -9h-51zM145 714q-4 0 -5 2.5t1 6.5l52 102q5 7 11 7h52q5 0 6 -3.5t-2 -8.5l-61 -100
q-2 -6 -12 -6h-42z" />
    <glyph glyph-name="uni040D" unicode="&#x40d;" horiz-adv-x="410" 
d="M59 0q-7 0 -7 9v637q0 9 7 9h51q7 0 7 -9v-315q0 -20 -1 -51.5t-3 -67t-3.5 -67l-2.5 -52.5h2q8 29 19 69.5t24 85t26 83.5l101 318q2 6 8 6h64q8 0 8 -9v-637q0 -9 -8 -9h-50q-7 0 -7 9l3 301q0 24 1 57t2.5 69t3 69t3.5 57h-2q-9 -33 -21.5 -76t-26 -88.5t-27.5 -87.5
l-99 -304q-1 -6 -9 -6h-63zM203 714q-10 0 -12 6l-61 100q-3 5 -1.5 8.5t5.5 3.5h52q5 0 7 -2t4 -5l52 -102q2 -4 1 -6.5t-5 -2.5h-42z" />
    <glyph glyph-name="uni040E" unicode="&#x40e;" horiz-adv-x="346" 
d="M80 0q-4 0 -5.5 2.5t-0.5 7.5l65 219l-127 415q-3 11 6 11h60q6 0 8 -5l59 -222q7 -28 14.5 -57.5t14.5 -57.5h2q8 28 15.5 57.5t14.5 57.5l59 221q2 6 7 6h58q10 0 7 -11l-193 -638q-2 -6 -8 -6h-56zM174 714q-29 0 -48 9t-32 17q-4 4 -4 11v39q0 9 8 5q15 -10 33 -17.5
t43 -7.5t42.5 7.5t32.5 17.5q3 2 6 1t3 -6v-39q0 -8 -5 -11q-13 -9 -31.5 -17.5t-47.5 -8.5z" />
    <glyph glyph-name="uni040F" unicode="&#x40f;" horiz-adv-x="408" 
d="M180 -134q-8 0 -8 8v126h-113q-7 0 -7 9v637q0 9 7 9h51q7 0 7 -9v-583h175v583q0 9 7 9h51q7 0 7 -9v-637q0 -9 -7 -9h-113v-126q0 -8 -7 -8h-50z" />
    <glyph glyph-name="uni0410" unicode="&#x410;" horiz-adv-x="345" 
d="M4 0q-7 0 -6 10l130 638q1 7 9 7h70q8 0 9 -7l131 -638q1 -10 -6 -10h-55q-6 0 -8 6l-81 433q-7 35 -13.5 69.5t-11.5 69.5h-2q-5 -35 -10.5 -69.5t-12.5 -70.5l-81 -432q-1 -6 -7 -6h-55zM84 161l12 63h150l14 -63h-176z" />
    <glyph glyph-name="uni0411" unicode="&#x411;" horiz-adv-x="357" 
d="M60 0q-8 0 -8 9v637q0 9 8 9h220q7 0 7 -9v-45q0 -9 -8 -9h-162v-194h45q86 0 126.5 -47.5t40.5 -147.5q0 -69 -18 -114t-54.5 -67t-94.5 -22h-102zM117 63h44q56 0 79.5 33.5t23.5 107.5q0 71 -23.5 101.5t-79.5 30.5h-44v-273z" />
    <glyph glyph-name="uni0412" unicode="&#x412;" horiz-adv-x="363" 
d="M61 0q-9 0 -9 9v637q0 9 9 9h96q82 0 120.5 -39.5t38.5 -120.5q0 -53 -17.5 -90t-52.5 -58v-2q43 -14 65.5 -55t22.5 -106q0 -90 -41 -137t-121 -47h-111zM117 63h53q50 0 74.5 30.5t24.5 95.5q0 62 -23.5 91t-72.5 29h-56v-246zM117 370h49q42 0 63.5 29.5t21.5 86.5
t-21 81.5t-67 24.5h-46v-222z" />
    <glyph glyph-name="uni0413" unicode="&#x413;" horiz-adv-x="293" 
d="M59 0q-7 0 -7 9v637q0 9 6 9h212q6 0 6 -9v-45q0 -9 -6 -9h-153v-583q0 -9 -7 -9h-51z" />
    <glyph glyph-name="uni0414" unicode="&#x414;" horiz-adv-x="398" 
d="M103 24h-67l120 624q1 7 8 7h72q7 0 8 -7l118 -624h-68l-72 414q-6 36 -11.5 70.5t-10.5 69.5h-2q-5 -35 -11 -69.5t-12 -70.5zM18 -134q-7 0 -7 8v181q0 8 7 8h362q7 0 7 -8v-181q0 -8 -8 -8h-50q-7 0 -7 8v126h-246v-126q0 -8 -7 -8h-51z" />
    <glyph glyph-name="uni0415" unicode="&#x415;" horiz-adv-x="333" 
d="M60 0q-8 0 -8 9v637q0 9 7 9h226q7 0 7 -9v-45q0 -9 -7 -9h-168v-228h154q7 0 7 -9v-42q0 -9 -7 -9h-154v-241h168q7 0 7 -9v-45q0 -9 -7 -9h-225z" />
    <glyph glyph-name="uni0416" unicode="&#x416;" horiz-adv-x="524" 
d="M19 0q-8 0 -5 11l106 327l-95 306q-3 11 5 11h59q8 0 9 -6l77 -285h55v282q0 9 7 9h50q7 0 7 -9v-282h55l78 285q2 6 8 6h60q7 0 4 -11l-94 -306l105 -327q3 -11 -5 -11h-61q-3 0 -4.5 1.5t-2.5 4.5l-87 298h-56v-295q0 -9 -7 -9h-50q-7 0 -7 9v295h-56l-87 -298
q-1 -3 -2.5 -4.5t-4.5 -1.5h-61z" />
    <glyph glyph-name="uni0417" unicode="&#x417;" horiz-adv-x="353" 
d="M167 -6q-48 0 -80 19t-46.5 56.5t-11.5 92.5q0 5 2 6.5t5 1.5h53q5 0 5 -8q-3 -53 16 -79t59 -26q47 0 67.5 29t20.5 96q0 62 -23.5 90.5t-73.5 28.5h-46q-6 0 -6 8v45q0 9 6 9h38q46 0 68.5 32.5t22.5 96.5q0 56 -18.5 81t-58.5 25t-56.5 -25t-12.5 -80q0 -9 -6 -9h-52
q-4 0 -5.5 2t-1.5 6q-5 83 30 126t107 43q69 0 104 -40.5t35 -120.5q0 -58 -18.5 -100.5t-52.5 -61.5v-1q43 -14 64 -52.5t21 -100.5q0 -97 -38 -143.5t-117 -46.5z" />
    <glyph glyph-name="uni0418" unicode="&#x418;" horiz-adv-x="410" 
d="M59 0q-7 0 -7 9v637q0 9 7 9h51q7 0 7 -9v-315q0 -20 -1 -51.5t-3 -67t-3.5 -67l-2.5 -52.5h2q8 29 19 69.5t24 85t26 83.5l101 318q2 6 8 6h64q8 0 8 -9v-637q0 -9 -8 -9h-50q-7 0 -7 9l3 301q0 24 1 57t2.5 69t3 69t3.5 57h-2q-9 -33 -21.5 -76t-26 -88.5t-27.5 -87.5
l-99 -304q-1 -6 -9 -6h-63z" />
    <glyph glyph-name="uni0419" unicode="&#x419;" horiz-adv-x="410" 
d="M59 0q-7 0 -7 9v637q0 9 7 9h51q7 0 7 -9v-315q0 -20 -1 -51.5t-3 -67t-3.5 -67l-2.5 -52.5h2q8 29 19 69.5t24 85t26 83.5l101 318q2 6 8 6h64q8 0 8 -9v-637q0 -9 -8 -9h-50q-7 0 -7 9l3 301q0 24 1 57t2.5 69t3 69t3.5 57h-2q-9 -33 -21.5 -76t-26 -88.5t-27.5 -87.5
l-99 -304q-1 -6 -9 -6h-63zM205 714q-29 0 -48 9t-32 17q-4 4 -4 11v39q0 9 8 5q15 -10 33 -17.5t43 -7.5t42.5 7.5t32.5 17.5q3 2 6 1t3 -6v-39q0 -8 -5 -11q-13 -9 -31.5 -17.5t-47.5 -8.5z" />
    <glyph glyph-name="uni041A" unicode="&#x41a;" horiz-adv-x="365" 
d="M59 0q-7 0 -7 9v637q0 9 7 9h51q7 0 7 -9v-280h47l118 284q2 3 4 4t4 1h53q4 0 5 -3t-1 -8l-127 -302l142 -331q4 -11 -6 -11h-55q-3 0 -4.5 0.5t-3.5 4.5l-128 298h-48v-294q0 -9 -7 -9h-51z" />
    <glyph glyph-name="uni041B" unicode="&#x41b;" horiz-adv-x="339" 
d="M4 0q-7 0 -6 10l127 638q1 7 9 7h70q8 0 9 -7l128 -638q1 -10 -6 -10h-55q-5 0 -7 6l-80 432q-7 36 -13 70.5t-11 69.5h-2q-5 -35 -10.5 -69.5t-11.5 -69.5l-79 -433q-1 -6 -7 -6h-55z" />
    <glyph glyph-name="uni041C" unicode="&#x41c;" horiz-adv-x="485" 
d="M50 0q-6 0 -6 9l8 637q0 9 8 9h78q8 0 9 -7l95 -391l96 391q1 7 9 7h78q7 0 7 -9l9 -637q0 -9 -7 -9h-50q-8 0 -8 9l-4 420v64t1 67h-1q-6 -31 -14 -62t-16 -61l-89 -338q-1 -7 -9 -7h-4q-7 0 -8 7l-91 339q-8 30 -15 60.5t-13 61.5h-2q2 -32 2 -66.5v-63.5l-5 -421
q0 -9 -7 -9h-51z" />
    <glyph glyph-name="uni041D" unicode="&#x41d;" horiz-adv-x="411" 
d="M59 0q-7 0 -7 9v637q0 9 7 9h51q7 0 7 -9v-276h178v276q0 9 7 9h50q8 0 8 -9v-637q0 -9 -8 -9h-50q-7 0 -7 9v299h-178v-299q0 -9 -7 -9h-51z" />
    <glyph glyph-name="uni041E" unicode="&#x41e;" horiz-adv-x="399" 
d="M199 -6q-75 0 -115.5 46t-40.5 139v295q0 95 40.5 141t115.5 46t116 -46t41 -141v-295q0 -93 -41 -139t-116 -46zM199 57q45 0 68.5 30.5t23.5 96.5v286q0 67 -23.5 97.5t-68.5 30.5q-44 0 -67.5 -30.5t-23.5 -97.5v-286q0 -66 23.5 -96.5t67.5 -30.5z" />
    <glyph glyph-name="uni041F" unicode="&#x41f;" horiz-adv-x="410" 
d="M59 0q-7 0 -7 9v637q0 9 7 9h293q7 0 7 -9v-637q0 -9 -8 -9h-50q-7 0 -7 9v583h-177v-583q0 -9 -7 -9h-51z" />
    <glyph glyph-name="uni0420" unicode="&#x420;" horiz-adv-x="343" 
d="M59 0q-7 0 -7 9v637q0 9 7 9h96q85 0 124.5 -48.5t39.5 -152.5q0 -97 -40 -148.5t-118 -51.5h-44v-245q0 -9 -7 -9h-51zM117 316h38q52 0 75.5 33t23.5 103q0 76 -23.5 108.5t-71.5 32.5h-42v-277z" />
    <glyph glyph-name="uni0421" unicode="&#x421;" horiz-adv-x="392" 
d="M199 -6q-76 0 -116 49t-40 148v273q0 99 40 148t116 49q55 0 91 -26.5t51 -75t7 -115.5q-2 -8 -7 -8h-51q-9 0 -7 10q6 75 -14.5 113.5t-69.5 38.5q-44 0 -67.5 -33t-23.5 -106v-263q0 -72 23.5 -105.5t67.5 -33.5q52 0 71.5 41t14.5 111q-2 10 7 10h47q9 0 10 -10
q6 -103 -32 -159t-118 -56z" />
    <glyph glyph-name="uni0422" unicode="&#x422;" horiz-adv-x="324" 
d="M137 0q-7 0 -7 9v583h-105q-8 0 -8 9v45q0 9 8 9h275q7 0 7 -9v-45q0 -9 -7 -9h-105v-583q0 -9 -8 -9h-50z" />
    <glyph glyph-name="uni0423" unicode="&#x423;" horiz-adv-x="346" 
d="M80 0q-4 0 -5.5 2.5t-0.5 7.5l65 219l-127 415q-3 11 6 11h60q6 0 8 -5l59 -222q7 -28 14.5 -57.5t14.5 -57.5h2q8 28 15.5 57.5t14.5 57.5l59 221q2 6 7 6h58q10 0 7 -11l-193 -638q-2 -6 -8 -6h-56z" />
    <glyph glyph-name="uni0424" unicode="&#x424;" horiz-adv-x="511" 
d="M232 -6q-60 0 -102.5 21t-64.5 71t-22 136v218q0 79 22 127.5t64.5 71t102.5 22.5h44q61 0 103.5 -21.5t65.5 -70t23 -129.5v-218q0 -88 -23 -137.5t-65.5 -70t-103.5 -20.5h-44zM233 55h45q44 0 71.5 13.5t40.5 50t13 104.5v215q0 62 -13 97t-40.5 50t-71.5 15h-45
q-43 0 -71 -15t-41 -50t-13 -97v-215q0 -68 13 -104.5t41 -50t71 -13.5zM229 -75q-6 0 -6 9v82l2 6v612l-2 6v81q0 9 6 9h53q6 0 6 -9v-81l-3 -7v-610l3 -7v-82q0 -9 -6 -9h-53z" />
    <glyph glyph-name="uni0425" unicode="&#x425;" horiz-adv-x="340" 
d="M7 0q-8 0 -5 11l128 327l-120 306q-3 11 4 11h62q5 0 7 -4l52 -150q9 -27 18.5 -54.5t17.5 -54.5h1q8 28 17.5 55t19.5 55l52 148q2 5 7 5h59q9 0 4 -11l-119 -308l126 -326q5 -10 -4 -10h-62q-5 0 -7 5l-58 162q-10 29 -19.5 57.5t-17.5 56.5h-1q-8 -28 -17.5 -56.5
t-19.5 -57.5l-58 -161q-2 -6 -7 -6h-60z" />
    <glyph glyph-name="uni0426" unicode="&#x426;" horiz-adv-x="409" 
d="M338 -134q-7 0 -7 8v126h-272q-7 0 -7 9v637q0 9 7 9h51q7 0 7 -9v-583h171v583q0 9 7 9h51q7 0 7 -9v-583h36q7 0 7 -8v-181q0 -8 -7 -8h-51z" />
    <glyph glyph-name="uni0427" unicode="&#x427;" horiz-adv-x="394" 
d="M161 222q-55 0 -84 35t-29 108v281q0 9 7 9h51q7 0 7 -9v-272q0 -48 14.5 -68.5t46.5 -20.5q29 0 58.5 17.5t53.5 42.5v-65q-27 -24 -58.5 -41t-66.5 -17zM286 0q-8 0 -8 9v637q0 9 8 9h50q7 0 7 -9v-637q0 -9 -7 -9h-50z" />
    <glyph glyph-name="uni0428" unicode="&#x428;" horiz-adv-x="552" 
d="M59 0q-7 0 -7 9v637q0 9 7 9h51q7 0 7 -9v-583h127v583q0 9 7 9h51q7 0 7 -9v-583h127v583q0 9 7 9h51q7 0 7 -9v-637q0 -9 -7 -9h-435z" />
    <glyph glyph-name="uni0429" unicode="&#x429;" horiz-adv-x="557" 
d="M486 -134q-7 0 -7 8v126h-420q-7 0 -7 9v637q0 9 7 9h51q7 0 7 -9v-583h127v583q0 9 7 9h51q7 0 7 -9v-583h127v583q0 9 7 9h51q7 0 7 -9v-583h35q4 0 6 -2t2 -7v-180q0 -8 -8 -8h-50z" />
    <glyph glyph-name="uni042A" unicode="&#x42a;" horiz-adv-x="408" 
d="M113 0q-7 0 -7 9v583h-81q-8 0 -8 9v45q0 9 8 9h138q8 0 8 -9v-243h32q91 0 135.5 -47.5t44.5 -145.5q0 -104 -42 -157t-135 -53h-93zM171 63h33q61 0 87.5 35t26.5 112q-1 70 -28 100.5t-86 30.5h-33v-278z" />
    <glyph glyph-name="uni042B" unicode="&#x42b;" horiz-adv-x="522" 
d="M59 0q-7 0 -7 9v637q0 9 7 9h51q7 0 7 -9v-243h32q91 0 135.5 -47.5t44.5 -145.5q0 -104 -42 -157t-135 -53h-93zM117 63h34q60 0 87 35t26 112q-1 70 -28 100.5t-86 30.5h-33v-278zM413 0q-7 0 -7 9v637q0 9 7 9h51q7 0 7 -9v-637q0 -9 -7 -9h-51z" />
    <glyph glyph-name="uni042C" unicode="&#x42c;" horiz-adv-x="354" 
d="M59 0q-7 0 -7 9v637q0 9 7 9h51q7 0 7 -9v-243h32q91 0 135.5 -47.5t44.5 -145.5q0 -104 -42 -157t-135 -53h-93zM117 63h34q60 0 87 35t26 112q-1 70 -28 100.5t-86 30.5h-33v-278z" />
    <glyph glyph-name="uni042D" unicode="&#x42d;" horiz-adv-x="379" 
d="M188 -6q-50 0 -82.5 17.5t-48 54.5t-15.5 94q0 8 7 8h49q8 0 8 -10q-1 -52 19 -76.5t63 -24.5q44 0 63.5 26t19.5 93v126h-138q-6 0 -6 9v45q0 9 6 9h138v114q0 70 -20 94.5t-64 24.5q-27 0 -45 -10.5t-26.5 -32.5t-7.5 -58q0 -11 -7 -11h-51q-6 0 -7 10q-5 53 11.5 90
t51 56t81.5 19q77 0 113 -42t36 -144v-295q0 -68 -15.5 -109t-48.5 -59t-84 -18z" />
    <glyph glyph-name="uni042E" unicode="&#x42e;" horiz-adv-x="539" 
d="M346 -6q-71 0 -110 47t-39 151v271q0 105 39 151.5t110 46.5q72 0 111 -46.5t39 -151.5v-272q0 -104 -39 -150.5t-111 -46.5zM58 0q-6 0 -6 9v637q0 9 6 9h53q6 0 6 -9v-276h106v-62h-106v-299q0 -9 -6 -9h-53zM346 57q41 0 63 30t22 109v263q0 79 -22 109t-63 30
q-40 0 -62 -30t-22 -109v-262q0 -79 22 -109.5t62 -30.5z" />
    <glyph glyph-name="uni042F" unicode="&#x42f;" horiz-adv-x="368" 
d="M19 0q-8 0 -3 11l67 197q8 23 16.5 46t16.5 45v2q-38 21 -57.5 60.5t-19.5 100.5q0 66 19 109t56.5 63.5t91.5 20.5h104q7 0 7 -9v-637q0 -9 -7 -9h-51q-7 0 -7 9v276h-74l-95 -279q-1 -3 -3 -4.5t-5 -1.5h-56zM201 341h51v251h-50q-49 0 -73.5 -30.5t-24.5 -98.5
q0 -64 23.5 -93t73.5 -29z" />
    <glyph glyph-name="uni0430" unicode="&#x430;" horiz-adv-x="316" 
d="M222 0q-6 0 -7 9q-2 18 -4 45.5t-2 46.5l-4 5v252q0 41 -9.5 56.5t-38.5 15.5q-28 0 -39 -15.5t-8 -50.5q0 -9 -8 -9h-44q-10 0 -11 12q-5 59 23.5 92t87.5 33q61 0 86.5 -29t25.5 -103v-240q0 -40 1 -68t2 -42q1 -10 -5 -10h-46zM115 -6q-39 0 -60.5 34t-21.5 95
q0 68 30 109.5t98 48.5l52 6v-53l-45 -6q-35 -4 -52.5 -29t-17.5 -71q0 -33 10 -52t27 -19t34.5 13.5t45.5 50.5l3 -58q-30 -37 -52 -53t-51 -16z" />
    <glyph glyph-name="uni0431" unicode="&#x431;" horiz-adv-x="335" 
d="M167 -6q-64 0 -95.5 39t-31.5 128v285q0 68 14 108t44 62q22 17 47 27t50.5 21.5t49.5 32.5q3 2 6 1t4 -5l13 -48q2 -9 -2 -12q-17 -16 -39 -25.5t-44.5 -18t-41.5 -23.5q-22 -17 -29 -43.5t-7 -70.5v-290q0 -54 14 -79.5t48 -25.5t49 25.5t15 79.5v173q0 35 -9.5 49.5
t-29.5 14.5q-24 0 -47.5 -19t-46.5 -49l-5 57q28 34 57 54t63 20q42 0 63 -29t21 -92l-1 -180q-1 -84 -33 -125.5t-96 -41.5z" />
    <glyph glyph-name="uni0432" unicode="&#x432;" horiz-adv-x="337" 
d="M168 -6q-69 0 -99 39.5t-30 121.5v387q0 74 31.5 110.5t92.5 36.5t90 -34t29 -110q0 -58 -15.5 -97t-44.5 -56v-1q38 -5 57.5 -35.5t19.5 -87.5v-110q0 -79 -32.5 -121.5t-98.5 -42.5zM167 57q36 0 51.5 25t15.5 77v110q0 44 -13 61.5t-43 17.5q-16 0 -35.5 -6t-38.5 -15
v-170q0 -52 13 -76t50 -24zM104 385l42 15q35 12 53 45t18 90q0 50 -13.5 70.5t-42.5 20.5t-43 -18.5t-14 -59.5v-163z" />
    <glyph glyph-name="uni0433" unicode="&#x433;" horiz-adv-x="301" 
d="M150 -6q-61 0 -90 29.5t-29 89.5q0 44 15 77.5t46 57.5l66 49q22 17 31 35t9 43q0 55 -49 55q-26 0 -38 -16.5t-11 -48.5q0 -10 -7 -10h-46q-8 0 -9 10q-5 59 25.5 93t89.5 34q54 0 82 -29.5t28 -87.5q0 -43 -14.5 -72.5t-47.5 -54.5l-62 -48q-22 -16 -32.5 -36
t-10.5 -48q0 -31 14 -45.5t41 -14.5q30 0 43 18t12 55q0 9 7 9h48q6 0 7 -9q5 -66 -27 -100.5t-91 -34.5z" />
    <glyph glyph-name="uni0434" unicode="&#x434;" horiz-adv-x="336" 
d="M163 -191q-64 0 -91.5 36.5t-23.5 88.5q1 7 4 8t7 1h44q8 0 8 -9q-1 -31 11 -46.5t41 -15.5q33 0 47.5 20t14.5 66v58v30v26h-1q-24 -25 -49.5 -40t-51.5 -15q-44 0 -64.5 29t-20.5 91v194q0 86 31.5 123.5t87.5 37.5q34 0 65.5 -7t67.5 -11v-511q0 -70 -29.5 -112
t-97.5 -42zM144 80q19 0 40 15t41 40v286q-13 3 -29.5 6t-30.5 3q-33 0 -47.5 -24t-14.5 -75v-189q0 -33 9.5 -47.5t31.5 -14.5z" />
    <glyph glyph-name="uni0435" unicode="&#x435;" horiz-adv-x="327" 
d="M169 -6q-67 0 -99 42t-32 130v167q0 83 32 121t95 38q62 0 94.5 -39.5t32.5 -117.5v-99q0 -8 -7 -8h-182v-61q0 -58 15.5 -84t50.5 -26q30 0 44 16.5t12 49.5q-2 10 6 10h48q7 0 7 -8q2 -63 -28.5 -97t-88.5 -34zM103 289h124v45q0 51 -14.5 73.5t-47.5 22.5
q-32 0 -47 -23t-15 -73v-45z" />
    <glyph glyph-name="uni0436" unicode="&#x436;" horiz-adv-x="437" 
d="M12 0q-4 0 -5 3.5t0 7.5l84 257l-73 208q-4 10 5 10h57q7 0 8 -5l59 -192h40v385q0 9 7 9h50q7 0 7 -9v-385h41l59 192q1 5 8 5h55q9 0 5 -10l-72 -208l83 -257q2 -5 0.5 -8t-4.5 -3h-57q-6 0 -8 5l-70 227h-40v-223q0 -9 -7 -9h-50q-7 0 -7 9v223h-42l-70 -227
q-2 -5 -8 -5h-55z" />
    <glyph glyph-name="uni0437" unicode="&#x437;" horiz-adv-x="292" 
d="M135 -191q-65 0 -92.5 40t-22.5 99q1 10 7 10h50q6 0 6 -9q-2 -37 10 -58t43 -21t46 21.5t15 75.5v79q0 47 -19 70t-65 23h-33q-4 0 -5.5 2t-1.5 6v45q0 5 1.5 7t5.5 2h30q39 0 58 27.5t19 80.5v47q0 40 -12 58t-39 18q-29 0 -40 -19t-10 -49q0 -4 -1.5 -6t-4.5 -2h-49
q-7 0 -8 9q-3 51 24 89t90 38q56 0 85.5 -33t29.5 -95v-59q0 -46 -16 -79t-46 -49v-1q33 -12 52.5 -44.5t19.5 -82.5v-78q0 -72 -30.5 -117t-96.5 -45z" />
    <glyph glyph-name="uni0438" unicode="&#x438;" horiz-adv-x="339" 
d="M129 -6q-46 0 -64.5 29.5t-18.5 92.5v361q0 9 7 9h51q7 0 7 -9v-360q0 -36 8.5 -48t27.5 -12q26 0 49.5 20t45.5 54l6 -56q-26 -35 -56 -58t-63 -23zM246 0q-6 0 -8 9q-2 21 -3.5 49.5t-1.5 42.5l-5 6v370q0 9 8 9h50q7 0 7 -9v-357q0 -42 1 -68.5t2 -40.5q1 -11 -6 -11
h-44z" />
    <glyph glyph-name="uni0439" unicode="&#x439;" horiz-adv-x="339" 
d="M129 -6q-46 0 -64.5 29.5t-18.5 92.5v361q0 9 7 9h51q7 0 7 -9v-360q0 -36 8.5 -48t27.5 -12q26 0 49.5 20t45.5 54l6 -56q-26 -35 -56 -58t-63 -23zM246 0q-6 0 -8 9q-2 21 -3.5 49.5t-1.5 42.5l-5 6v370q0 9 8 9h50q7 0 7 -9v-357q0 -42 1 -68.5t2 -40.5q1 -11 -6 -11
h-44zM170 547q-24 0 -42 9t-31 18q-4 4 -4 11v38q0 5 2.5 6t5.5 -1q15 -11 32.5 -18t36.5 -7q20 0 37 7t32 18q3 2 5.5 1t2.5 -6v-38q0 -7 -4 -11q-13 -10 -31 -18.5t-42 -8.5z" />
    <glyph glyph-name="uni043A" unicode="&#x43a;" horiz-adv-x="310" 
d="M308 11q4 -11 -6 -11h-55q-5 0 -9 7l-87 224h-40v-222q0 -9 -7 -9h-51q-7 0 -7 9v665q0 9 7 9h51q7 0 7 -9v-384h40l78 191q1 5 8 5h56q4 0 5 -3t-1 -7l-90 -208z" />
    <glyph glyph-name="uni043B" unicode="&#x43b;" horiz-adv-x="288" 
d="M10 0q-8 0 -6 11l97 462q3 13 12 13h61q9 0 12 -13l97 -463q2 -10 -5 -10h-51q-7 0 -8 7l-54 278q-5 31 -11 66t-10 66h-1q-4 -31 -10 -65.5t-12 -65.5l-53 -279q-1 -7 -7 -7h-51z" />
    <glyph glyph-name="uni043C" unicode="&#x43c;" horiz-adv-x="398" 
d="M50 0q-7 0 -7 9l5 468q0 9 7 9h62q6 0 8 -7l74 -274l74 274q2 7 8 7h62q7 0 7 -9l5 -468q0 -9 -7 -9h-48q-7 0 -7 9v213q0 16 1 48t3.5 67t4.5 61h-3q-8 -37 -16.5 -70t-15.5 -56l-59 -197q-1 -4 -3 -5t-6 -1q-3 0 -5 1t-4 5l-59 197q-7 23 -15.5 56t-16.5 70h-2
q2 -26 4 -61t3 -67t1 -48v-213q0 -9 -7 -9h-48z" />
    <glyph glyph-name="uni043D" unicode="&#x43d;" horiz-adv-x="340" 
d="M236 0q-7 0 -7 9v468q0 9 7 9h50q8 0 8 -9v-468q0 -9 -8 -9h-50zM53 0q-7 0 -7 9v468q0 9 7 9h51q7 0 7 -9v-468q0 -9 -7 -9h-51zM104 220v61h138v-61h-138z" />
    <glyph glyph-name="uni043E" unicode="&#x43e;" horiz-adv-x="338" 
d="M169 -6q-67 0 -99 39.5t-32 121.5v175q0 83 32 122.5t99 39.5t99 -39.5t32 -122.5v-175q0 -82 -32 -121.5t-99 -39.5zM169 57q35 0 50.5 23t15.5 76v172q0 54 -15.5 78t-50.5 24t-50.5 -24t-15.5 -78v-172q0 -53 16 -76t50 -23z" />
    <glyph glyph-name="uni043F" unicode="&#x43f;" horiz-adv-x="347" 
d="M243 0q-7 0 -7 9v357q0 33 -10 48.5t-32 15.5q-20 0 -42.5 -16.5t-47.5 -48.5l-5 54q29 36 57.5 54.5t61.5 18.5q41 0 62 -30t21 -92v-361q0 -9 -7 -9h-51zM53 0q-7 0 -7 9v357q0 42 -0.5 68.5t-2.5 40.5q-1 11 6 11h43q8 0 9 -9q3 -19 4.5 -48t1.5 -44l4 -6v-370
q0 -9 -7 -9h-51z" />
    <glyph glyph-name="uni0440" unicode="&#x440;" horiz-adv-x="336" 
d="M196 -6q-25 0 -50 8t-44 19l-1 61q17 -9 36.5 -17t41.5 -8q26 0 39 23.5t13 76.5v209q0 35 -9.5 49.5t-29.5 14.5q-24 0 -47.5 -20t-46.5 -52l-5 58q28 36 56.5 56t62.5 20q42 0 63 -28.5t21 -91.5v-217q0 -81 -25.5 -121t-74.5 -40zM53 -185q-7 0 -7 9v550
q0 36 -0.5 60.5t-2.5 41.5q-1 10 6 10h43q8 0 9 -9q2 -10 3 -28.5t2 -37.5l5 -24v-563q0 -9 -7 -9h-51z" />
    <glyph glyph-name="uni0441" unicode="&#x441;" horiz-adv-x="326" 
d="M169 -6q-67 0 -99 40.5t-32 124.5v169q0 83 32 123.5t99 40.5q41 0 69 -17t41 -49t10 -77q0 -12 -8 -12h-47q-4 0 -5.5 2.5t-0.5 6.5q2 39 -13 61.5t-46 22.5q-35 0 -50.5 -23.5t-15.5 -80.5v-166q0 -55 15.5 -79t50.5 -24q31 0 45 20t12 62q0 11 8 11h47q8 0 8 -9
q0 -73 -29.5 -110t-90.5 -37z" />
    <glyph glyph-name="uni0442" unicode="&#x442;" horiz-adv-x="515" 
d="M53 0q-7 0 -7 9v357q0 42 -0.5 68.5t-2.5 40.5q-1 11 6 11h46q5 0 6 -9q2 -13 2.5 -25t1.5 -25q26 31 51.5 48t56.5 17q27 0 46 -16t26 -48q25 30 50.5 47t56.5 17q36 0 56.5 -28t20.5 -81v-374q0 -9 -7 -9h-51q-7 0 -7 9v365q0 29 -9 42.5t-28 13.5q-18 0 -37 -14.5
t-40 -41.5v-365q0 -9 -7 -9h-51q-7 0 -7 9v365q0 29 -9 42.5t-28 13.5q-18 0 -37 -14.5t-40 -41.5v-365q0 -9 -7 -9h-51z" />
    <glyph glyph-name="uni0443" unicode="&#x443;" horiz-adv-x="317" 
d="M91 -185q-7 0 -5 11l43 180l-111 470q-3 10 4 10h56q7 0 8 -7l48 -237q8 -33 13.5 -68t10.5 -68h2q5 33 11.5 68.5t13.5 68.5l46 236q1 7 8 7h54q3 0 5 -3t0 -8l-148 -653q-1 -7 -8 -7h-51z" />
    <glyph glyph-name="uni0444" unicode="&#x444;" horiz-adv-x="437" 
d="M179 -6q-66 0 -103.5 36t-37.5 119v189q0 83 37.5 118.5t103.5 35.5h79q66 0 103.5 -35.5t37.5 -118.5v-189q0 -83 -37.5 -119t-103.5 -36h-79zM176 55h85q35 0 54 22t19 73v186q0 51 -19 73t-54 22h-85q-35 0 -54 -22t-19 -73v-186q0 -51 19 -73t54 -22zM193 -185
q-7 0 -7 9v190l2 15v423l-2 23v200q0 8 7 8h51q7 0 7 -8v-201l-2 -21v-424l2 -17v-188q0 -9 -7 -9h-51z" />
    <glyph glyph-name="uni0445" unicode="&#x445;" horiz-adv-x="310" 
d="M17 0q-4 0 -5.5 3.5t0.5 7.5l103 240l-95 225q-2 4 -1 7t5 3h54q8 0 10 -6l36 -98q8 -19 15.5 -41.5t14.5 -42.5h1q8 20 15.5 42.5t14.5 41.5l37 99q3 5 9 5h54q4 0 5 -3t-1 -7l-96 -223l105 -242q1 -4 0 -7.5t-5 -3.5h-56q-6 0 -9 5l-42 112q-7 21 -15.5 44t-16.5 43h-1
q-7 -20 -15 -43.5t-16 -43.5l-43 -112q-2 -5 -10 -5h-52z" />
    <glyph glyph-name="uni0446" unicode="&#x446;" horiz-adv-x="344" 
d="M274 -124q-7 0 -7 9v115h-24l44 63h33q8 0 8 -9v-169q0 -9 -7 -9h-47zM129 -6q-46 0 -64.5 29.5t-18.5 92.5v361q0 9 7 9h51q7 0 7 -9v-360q0 -36 8.5 -48t27.5 -12q26 0 49.5 20t45.5 54l6 -56q-26 -35 -56 -58t-63 -23zM246 0q-6 0 -8 9q-2 21 -3.5 49.5t-1.5 42.5
l-5 6v370q0 9 8 9h50q7 0 7 -9v-357q0 -42 1 -68.5t2 -40.5q1 -11 -6 -11h-44z" />
    <glyph glyph-name="uni0447" unicode="&#x447;" horiz-adv-x="326" 
d="M223 0q-8 0 -8 9v187q-21 -22 -44.5 -38t-56.5 -16q-43 0 -60.5 30t-17.5 85v220q0 9 7 9h51q7 0 7 -9v-213q0 -31 8 -45t30 -14t41 14t35 36v222q0 9 8 9h50q7 0 7 -9v-468q0 -9 -7 -9h-50z" />
    <glyph glyph-name="uni0448" unicode="&#x448;" horiz-adv-x="507" 
d="M123 -6q-38 0 -57.5 28.5t-19.5 80.5v374q0 9 7 9h51q7 0 7 -9v-365q0 -29 8.5 -42t27.5 -13q17 0 35 14t39 41v365q0 9 7 9h51q7 0 7 -9v-365q0 -29 8.5 -42t27.5 -13q16 0 34.5 14t39.5 41v365q0 9 7 9h51q7 0 7 -9v-357q0 -42 1 -68.5t2 -40.5q1 -11 -7 -11h-43
q-6 0 -8 9q-1 11 -2 24l-2 26q-25 -31 -50 -48t-54 -17q-28 0 -46 16.5t-26 47.5q-25 -30 -49 -47t-54 -17z" />
    <glyph glyph-name="uni0449" unicode="&#x449;" horiz-adv-x="518" 
d="M448 -124q-7 0 -7 9v115h-24l44 63h33q8 0 8 -9v-169q0 -9 -7 -9h-47zM123 -6q-38 0 -57.5 28.5t-19.5 80.5v374q0 9 7 9h51q7 0 7 -9v-365q0 -29 8.5 -42t27.5 -13q17 0 35 14t39 41v365q0 9 7 9h51q7 0 7 -9v-365q0 -29 8.5 -42t27.5 -13q16 0 34.5 14t39.5 41v365
q0 9 7 9h51q7 0 7 -9v-357q0 -42 1 -68.5t2 -40.5q1 -11 -7 -11h-43q-6 0 -8 9q-1 11 -2 24l-2 26q-25 -31 -50 -48t-54 -17q-28 0 -46 16.5t-26 47.5q-25 -30 -49 -47t-54 -17z" />
    <glyph glyph-name="uni044A" unicode="&#x44a;" horiz-adv-x="356" 
d="M7 424q-8 0 -8 8v45q0 9 8 9h82v-62h-82zM198 -6q-61 0 -91 34.5t-30 109.5v339q0 9 7 9h51q7 0 7 -9v-342q0 -40 13.5 -59t42.5 -19q30 0 43.5 19t13.5 59v93q0 35 -11 48.5t-29 13.5q-22 0 -42.5 -17t-37.5 -39v60q20 23 46 41t56 18q38 0 60.5 -29.5t22.5 -97.5v-88
q0 -75 -30 -109.5t-92 -34.5z" />
    <glyph glyph-name="uni044B" unicode="&#x44b;" horiz-adv-x="476" 
d="M167 -6q-61 0 -91 34.5t-30 109.5v339q0 9 7 9h51q7 0 7 -9v-342q0 -40 13.5 -59t42.5 -19q30 0 43.5 19t13.5 59v93q0 35 -11 48.5t-29 13.5q-22 0 -42.5 -17t-37.5 -39v60q20 23 46 41t56 18q38 0 60.5 -29.5t22.5 -97.5v-88q0 -75 -30 -109.5t-92 -34.5zM372 0
q-7 0 -7 9v468q0 9 7 9h51q7 0 7 -9v-468q0 -9 -7 -9h-51z" />
    <glyph glyph-name="uni044C" unicode="&#x44c;" horiz-adv-x="325" 
d="M167 -6q-61 0 -91 34.5t-30 109.5v339q0 9 7 9h51q7 0 7 -9v-342q0 -40 13.5 -59t42.5 -19q30 0 43.5 19t13.5 59v93q0 35 -11 48.5t-29 13.5q-22 0 -42.5 -17t-37.5 -39v60q20 23 46 41t56 18q38 0 60.5 -29.5t22.5 -97.5v-88q0 -75 -30 -109.5t-92 -34.5z" />
    <glyph glyph-name="uni044D" unicode="&#x44d;" horiz-adv-x="321" 
d="M158 -6q-63 0 -93.5 36t-28.5 91q0 11 7 11h48q7 0 7 -11q0 -29 14.5 -46.5t43.5 -17.5q32 0 47 20.5t15 70.5v70h-104q-5 0 -5 9v43q0 9 5 9h104v62q0 47 -14 68t-46 21q-31 0 -45 -16.5t-13 -45.5q0 -12 -6 -12h-48q-4 0 -5.5 2t-2.5 10q-4 57 27 90.5t94 33.5
q39 0 67 -15.5t42.5 -48t14.5 -85.5v-197q0 -82 -32 -117t-93 -35z" />
    <glyph glyph-name="uni044E" unicode="&#x44e;" horiz-adv-x="458" 
d="M46 395v280q0 8 7 8h51q7 0 7 -8v-280h-65zM292 -6q-63 0 -95 39.5t-32 118.5v182q0 79 32 118.5t95 39.5q64 0 96 -39.5t32 -118.5v-182q0 -79 -32 -118.5t-96 -39.5zM53 0q-7 0 -7 9v468q0 9 7 9h51q7 0 7 -9v-196h86v-61h-86v-211q0 -9 -7 -9h-51zM292 57
q35 0 49 23.5t14 70.5v183q0 48 -14 72t-49 24q-34 0 -48 -24t-14 -72v-183q0 -47 14 -70.5t48 -23.5z" />
    <glyph glyph-name="uni044F" unicode="&#x44f;" horiz-adv-x="321" 
d="M27 0q-7 0 -4 10l43 113q8 20 15.5 40t15.5 37v1q-29 17 -46 47t-17 85q0 77 36 115t101 38h97q7 0 7 -9v-468q0 -9 -7 -9h-51q-7 0 -7 9v178h-53l-66 -181q-3 -6 -8 -6h-56zM165 247h45v178h-39q-36 0 -54 -22.5t-18 -68.5t17.5 -66.5t48.5 -20.5z" />
    <glyph glyph-name="uni0450" unicode="&#x450;" horiz-adv-x="327" 
d="M169 -6q-67 0 -99 42t-32 130v167q0 83 32 121t95 38q62 0 94.5 -39.5t32.5 -117.5v-99q0 -8 -7 -8h-182v-61q0 -58 15.5 -84t50.5 -26q30 0 44 16.5t12 49.5q-2 10 6 10h48q7 0 7 -8q2 -63 -28.5 -97t-88.5 -34zM103 289h124v45q0 51 -14.5 73.5t-47.5 22.5
q-32 0 -47 -23t-15 -73v-45zM162 557q-7 0 -12 6l-71 119q-3 5 -1.5 8t5.5 3h51q7 0 10 -7l63 -120q2 -4 1 -6.5t-6 -2.5h-40z" />
    <glyph glyph-name="uni0451" unicode="&#x451;" horiz-adv-x="327" 
d="M169 -6q-67 0 -99 42t-32 130v167q0 83 32 121t95 38q62 0 94.5 -39.5t32.5 -117.5v-99q0 -8 -7 -8h-182v-61q0 -58 15.5 -84t50.5 -26q30 0 44 16.5t12 49.5q-2 10 6 10h48q7 0 7 -8q2 -63 -28.5 -97t-88.5 -34zM103 289h124v45q0 51 -14.5 73.5t-47.5 22.5
q-32 0 -47 -23t-15 -73v-45zM108 578q-20 0 -30.5 11t-10.5 30v9q0 20 10.5 30.5t30.5 10.5t30.5 -10.5t10.5 -30.5v-9q0 -19 -10.5 -30t-30.5 -11zM220 578q-19 0 -29.5 11t-10.5 30v9q0 20 10.5 30.5t29.5 10.5q21 0 31 -10.5t10 -30.5v-9q0 -19 -10 -30t-31 -11z" />
    <glyph glyph-name="uni0452" unicode="&#x452;" horiz-adv-x="340" 
d="M229 -185q-7 -5 -10 1l-29 41q-7 7 0 12q29 23 37.5 69t8.5 120v308q0 33 -10 48.5t-32 15.5q-19 0 -39.5 -14t-43.5 -42v-365q0 -9 -7 -9h-51q-7 0 -7 9v549h-39q-8 0 -8 9v42q0 8 8 8h39v57q0 9 7 9h51q7 0 7 -9v-57h60q7 0 7 -8v-42q0 -9 -7 -9h-60v-124q26 28 52 43
t55 15q41 0 62 -30t21 -92v-318q0 -60 -5.5 -105.5t-21 -78t-45.5 -53.5z" />
    <glyph glyph-name="uni0453" unicode="&#x453;" horiz-adv-x="301" 
d="M150 -6q-61 0 -90 29.5t-29 89.5q0 44 15 77.5t46 57.5l66 49q22 17 31 35t9 43q0 55 -49 55q-26 0 -38 -16.5t-11 -48.5q0 -10 -7 -10h-46q-8 0 -9 10q-5 59 25.5 93t89.5 34q54 0 82 -29.5t28 -87.5q0 -43 -14.5 -72.5t-47.5 -54.5l-62 -48q-22 -16 -32.5 -36
t-10.5 -48q0 -31 14 -45.5t41 -14.5q30 0 43 18t12 55q0 9 7 9h48q6 0 7 -9q5 -66 -27 -100.5t-91 -34.5zM113 557q-4 0 -5 2.5t1 6.5l63 120q3 7 10 7h50q5 0 6.5 -3t-1.5 -8l-71 -119q-4 -6 -13 -6h-40z" />
    <glyph glyph-name="uni0454" unicode="&#x454;" horiz-adv-x="321" 
d="M163 -6q-60 0 -92.5 35t-32.5 117v197q0 79 32.5 114t91.5 35q63 0 94 -33.5t27 -90.5q0 -8 -2 -10t-5 -2h-49q-6 0 -6 12q1 29 -13 45.5t-45 16.5t-45.5 -20t-14.5 -69v-62h104q5 0 5 -9v-43q0 -9 -5 -9h-104v-70q0 -50 15 -70.5t47 -20.5q29 0 43.5 17.5t14.5 46.5
q0 11 7 11h48q7 0 7 -11q2 -55 -28.5 -91t-93.5 -36z" />
    <glyph glyph-name="uni0455" unicode="&#x455;" horiz-adv-x="293" 
d="M147 -6q-61 0 -89 38t-23 111q0 8 7 8h51q6 0 6 -7q-1 -48 9.5 -68t40.5 -20q51 0 51 66q0 26 -8.5 43.5t-28.5 33.5l-66 52q-31 24 -45 54.5t-14 73.5q0 54 28.5 83.5t82.5 29.5q56 0 84.5 -34t22.5 -93q0 -8 -7 -8h-50q-2 0 -4.5 1t-1.5 9q2 30 -9 47t-37 17
q-46 0 -46 -52q0 -25 9.5 -42t28.5 -34l65 -52q34 -28 46.5 -55t12.5 -71q0 -64 -29.5 -97.5t-86.5 -33.5z" />
    <glyph glyph-name="uni0456" unicode="&#x456;" horiz-adv-x="157" 
d="M53 0q-7 0 -7 9v468q0 9 7 9h51q7 0 7 -9v-468q0 -9 -7 -9h-51zM79 575q-22 0 -33 11t-11 32v9q0 21 11 32.5t33 11.5t32.5 -11.5t10.5 -32.5v-9q0 -21 -10.5 -32t-32.5 -11z" />
    <glyph glyph-name="uni0457" unicode="&#x457;" horiz-adv-x="157" 
d="M53 0q-7 0 -7 9v468q0 9 7 9h51q7 0 7 -9v-468q0 -9 -7 -9h-51zM23 578q-20 0 -30.5 11t-10.5 30v9q0 20 10.5 30.5t30.5 10.5t30.5 -10.5t10.5 -30.5v-9q0 -19 -10.5 -30t-30.5 -11zM135 578q-19 0 -29.5 11t-10.5 30v9q0 20 10.5 30.5t29.5 10.5q21 0 31 -10.5
t10 -30.5v-9q0 -19 -10 -30t-31 -11z" />
    <glyph glyph-name="uni0458" unicode="&#x458;" horiz-adv-x="143" 
d="M32 -188q-2 -1 -5 -1t-5 3l-29 41q-7 7 0 12q28 25 37 70t9 119v421q0 9 7 9h51q7 0 7 -9v-427q0 -60 -6 -105.5t-21.5 -78t-44.5 -54.5zM73 575q-22 0 -33 11t-11 32v9q0 21 11 32.5t33 11.5t32.5 -11.5t10.5 -32.5v-9q0 -21 -10.5 -32t-32.5 -11z" />
    <glyph glyph-name="uni0459" unicode="&#x459;" horiz-adv-x="459" 
d="M305 -6q-37 0 -60.5 13t-37 44.5t-21.5 86.5l-25 155q-4 31 -9 62t-8 62h-1q-3 -28 -7 -58.5t-10 -65.5l-53 -286q-1 -7 -7 -7h-56q-8 0 -6 11l97 462q3 13 12 13h63q10 0 13 -13l35 -185q34 37 62 54t55 17q41 0 61.5 -32t20.5 -95v-94q0 -73 -29 -108.5t-89 -35.5z
M305 57q27 0 40 19.5t13 59.5v98q0 62 -40 62q-33 0 -85 -62l18 -98q7 -30 13.5 -47.5t16.5 -24.5t24 -7z" />
    <glyph glyph-name="uni045A" unicode="&#x45a;" horiz-adv-x="513" 
d="M53 0q-7 0 -7 9v468q0 9 7 9h51q7 0 7 -9v-196h131v-61h-131v-211q0 -9 -7 -9h-51zM355 -6q-61 0 -91 34.5t-30 109.5v339q0 9 7 9h51q7 0 7 -9v-342q0 -40 13.5 -59t42.5 -19q30 0 43.5 19t13.5 59v93q0 35 -11 48.5t-29 13.5q-22 0 -42.5 -17t-37.5 -39v60q20 23 46 41
t56 18q38 0 60.5 -29.5t22.5 -97.5v-88q0 -75 -30 -109.5t-92 -34.5z" />
    <glyph glyph-name="uni045B" unicode="&#x45b;" horiz-adv-x="347" 
d="M7 558q-8 0 -8 9v42q0 8 8 8h164q7 0 7 -8v-42q0 -9 -7 -9h-125h-39zM243 0q-7 0 -7 9v357q0 33 -10 48.5t-32 15.5q-20 0 -42.5 -16.5t-47.5 -48.5l-5 54q29 36 57.5 54.5t61.5 18.5q41 0 62 -30t21 -92v-361q0 -9 -7 -9h-51zM53 0q-7 0 -7 9v665q0 9 7 9h51q7 0 7 -9
v-665q0 -9 -7 -9h-51z" />
    <glyph glyph-name="uni045C" unicode="&#x45c;" horiz-adv-x="310" 
d="M308 11q4 -11 -6 -11h-55q-5 0 -9 7l-87 224h-40v-222q0 -9 -7 -9h-51q-7 0 -7 9v665q0 9 7 9h51q7 0 7 -9v-384h40l78 191q1 5 8 5h56q4 0 5 -3t-1 -7l-90 -208zM151 557q-4 0 -5 2.5t1 6.5l63 120q3 7 10 7h50q5 0 6.5 -3t-1.5 -8l-71 -119q-4 -6 -13 -6h-40z" />
    <glyph glyph-name="uni045D" unicode="&#x45d;" horiz-adv-x="339" 
d="M129 -6q-46 0 -64.5 29.5t-18.5 92.5v361q0 9 7 9h51q7 0 7 -9v-360q0 -36 8.5 -48t27.5 -12q26 0 49.5 20t45.5 54l6 -56q-26 -35 -56 -58t-63 -23zM246 0q-6 0 -8 9q-2 21 -3.5 49.5t-1.5 42.5l-5 6v370q0 9 8 9h50q7 0 7 -9v-357q0 -42 1 -68.5t2 -40.5q1 -11 -6 -11
h-44zM168 557q-7 0 -12 6l-71 119q-3 5 -1.5 8t5.5 3h51q7 0 10 -7l63 -120q2 -4 1 -6.5t-6 -2.5h-40z" />
    <glyph glyph-name="uni045E" unicode="&#x45e;" horiz-adv-x="317" 
d="M91 -185q-7 0 -5 11l43 180l-111 470q-3 10 4 10h56q7 0 8 -7l48 -237q8 -33 13.5 -68t10.5 -68h2q5 33 11.5 68.5t13.5 68.5l46 236q1 7 8 7h54q3 0 5 -3t0 -8l-148 -653q-1 -7 -8 -7h-51zM158 547q-24 0 -42 9t-31 18q-4 4 -4 11v38q0 5 2.5 6t5.5 -1q15 -11 32.5 -18
t36.5 -7q20 0 37 7t32 18q3 2 5.5 1t2.5 -6v-38q0 -7 -4 -11q-13 -10 -31 -18.5t-42 -8.5z" />
    <glyph glyph-name="uni045F" unicode="&#x45f;" horiz-adv-x="339" 
d="M121 -124q-7 0 -7 9v145h61v-145q0 -9 -7 -9h-47zM129 -6q-46 0 -64.5 29.5t-18.5 92.5v361q0 9 7 9h51q7 0 7 -9v-360q0 -36 8.5 -48t27.5 -12q26 0 49.5 20t45.5 54l6 -56q-26 -35 -56 -58t-63 -23zM246 0q-6 0 -8 9q-2 21 -3.5 49.5t-1.5 42.5l-5 6v370q0 9 8 9h50
q7 0 7 -9v-357q0 -42 1 -68.5t2 -40.5q1 -11 -6 -11h-44z" />
    <glyph glyph-name="uni0490" unicode="&#x490;" horiz-adv-x="293" 
d="M59 0q-7 0 -7 9v637q0 9 7 9h211q6 0 6 -9v-45q0 -9 -7 -9h-152v-583q0 -9 -7 -9h-51zM211 602v186q0 4 2 6.5t5 2.5h51q4 0 5.5 -2.5t1.5 -6.5v-186h-65z" />
    <glyph glyph-name="uni0491" unicode="&#x491;" horiz-adv-x="267" 
d="M57 -11q-14 0 -24 1.5t-23 8.5q-4 1 -4 8v47q0 5 2 6t6 -1q14 -7 28 -7q11 0 16 12.5t8 56.5l15 194q7 90 25.5 134.5t67.5 44.5q18 0 27.5 9t13.5 24q3 10 3 21.5v21.5q0 7 7 7h46q6 0 6 -10q0 -30 -3 -54.5t-11 -40.5q-9 -18 -23 -28.5t-43 -11.5q-26 -1 -36 -27
t-15 -90l-16 -193q-6 -70 -22 -101.5t-51 -31.5z" />
    <glyph glyph-name="uni04C0" unicode="&#x4c0;" horiz-adv-x="168" 
d="M59 0q-7 0 -7 9v637q0 9 7 9h51q7 0 7 -9v-637q0 -9 -7 -9h-51z" />
    <glyph glyph-name="uni04CF" unicode="&#x4cf;" horiz-adv-x="157" 
d="M53 0q-7 0 -7 9v665q0 9 7 9h51q7 0 7 -9v-665q0 -9 -7 -9h-51z" />
    <glyph glyph-name="uni04E2" unicode="&#x4e2;" horiz-adv-x="410" 
d="M59 0q-7 0 -7 9v637q0 9 7 9h51q7 0 7 -9v-315q0 -20 -1 -51.5t-3 -67t-3.5 -67l-2.5 -52.5h2q8 29 19 69.5t24 85t26 83.5l101 318q2 6 8 6h64q8 0 8 -9v-637q0 -9 -8 -9h-50q-7 0 -7 9l3 301q0 24 1 57t2.5 69t3 69t3.5 57h-2q-9 -33 -21.5 -76t-26 -88.5t-27.5 -87.5
l-99 -304q-1 -6 -9 -6h-63zM134 724q-8 0 -8 8v44q0 8 8 8h141q8 0 8 -8v-44q0 -8 -8 -8h-141z" />
    <glyph glyph-name="uni04E3" unicode="&#x4e3;" horiz-adv-x="339" 
d="M129 -6q-46 0 -64.5 29.5t-18.5 92.5v361q0 9 7 9h51q7 0 7 -9v-360q0 -36 8.5 -48t27.5 -12q26 0 49.5 20t45.5 54l6 -56q-26 -35 -56 -58t-63 -23zM246 0q-6 0 -8 9q-2 21 -3.5 49.5t-1.5 42.5l-5 6v370q0 9 8 9h50q7 0 7 -9v-357q0 -42 1 -68.5t2 -40.5q1 -11 -6 -11
h-44zM108 572q-8 0 -8 8v45q0 8 8 8h123q8 0 8 -8v-45q0 -8 -8 -8h-123z" />
    <glyph glyph-name="uni04EE" unicode="&#x4ee;" horiz-adv-x="346" 
d="M80 0q-4 0 -5.5 2.5t-0.5 7.5l65 219l-127 415q-3 11 6 11h60q6 0 8 -5l59 -222q7 -28 14.5 -57.5t14.5 -57.5h2q8 28 15.5 57.5t14.5 57.5l59 221q2 6 7 6h58q10 0 7 -11l-193 -638q-2 -6 -8 -6h-56zM103 724q-8 0 -8 8v44q0 8 8 8h141q8 0 8 -8v-44q0 -8 -8 -8h-141z
" />
    <glyph glyph-name="uni04EF" unicode="&#x4ef;" horiz-adv-x="317" 
d="M91 -185q-7 0 -5 11l43 180l-111 470q-3 10 4 10h56q7 0 8 -7l48 -237q8 -33 13.5 -68t10.5 -68h2q5 33 11.5 68.5t13.5 68.5l46 236q1 7 8 7h54q3 0 5 -3t0 -8l-148 -653q-1 -7 -8 -7h-51zM96 572q-8 0 -8 8v45q0 8 8 8h123q8 0 8 -8v-45q0 -8 -8 -8h-123z" />
    <glyph glyph-name="Wgrave" unicode="&#x1e80;" horiz-adv-x="526" 
d="M127 0q-5 0 -6 7l-107 638q-1 10 5 10h53q7 0 8 -7l63 -402q4 -26 7.5 -56t6 -59t4.5 -51h2q5 33 10 66.5t11 66.5l51 295l-21 128q-1 9 6 9h52q8 0 9 -8l66 -423q5 -34 9.5 -67t7.5 -67h2q2 23 4.5 49.5t6 56.5t7.5 60l61 402q1 7 7 7h54q7 0 6 -10l-105 -638
q-1 -7 -7 -7h-67q-7 0 -8 7l-41 265q-5 30 -9 60t-7 60h-2q-4 -30 -9 -59.5t-10 -59.5l-48 -266q-1 -4 -3 -5.5t-4 -1.5h-65zM261 714q-10 0 -12 6l-61 100q-3 5 -1.5 8.5t5.5 3.5h52q5 0 7 -2t4 -5l52 -102q2 -4 1 -6.5t-5 -2.5h-42z" />
    <glyph glyph-name="wgrave" unicode="&#x1e81;" horiz-adv-x="462" 
d="M116 0q-7 0 -9 8l-86 468q-1 10 5 10h53q7 0 8 -9l46 -276q6 -32 10 -66t7 -66h3q5 32 10 65t10 65l31 169l-17 99q-1 10 5 10h51q6 0 7 -7l43 -270q5 -33 8.5 -66t6.5 -65h3q5 33 9 67.5t9 66.5l46 274q2 9 7 9h53q7 0 6 -10l-87 -468q-1 -8 -9 -8h-67q-7 0 -9 6
l-20 120q-5 31 -9 64.5t-7 77.5h-4q-4 -44 -8.5 -77.5t-9.5 -65.5l-18 -118q-1 -7 -8 -7h-69zM229 557q-7 0 -12 6l-71 119q-3 5 -1.5 8t5.5 3h51q7 0 10 -7l63 -120q2 -4 1 -6.5t-6 -2.5h-40z" />
    <glyph glyph-name="Wacute" unicode="&#x1e82;" horiz-adv-x="526" 
d="M127 0q-5 0 -6 7l-107 638q-1 10 5 10h53q7 0 8 -7l63 -402q4 -26 7.5 -56t6 -59t4.5 -51h2q5 33 10 66.5t11 66.5l51 295l-21 128q-1 9 6 9h52q8 0 9 -8l66 -423q5 -34 9.5 -67t7.5 -67h2q2 23 4.5 49.5t6 56.5t7.5 60l61 402q1 7 7 7h54q7 0 6 -10l-105 -638
q-1 -7 -7 -7h-67q-7 0 -8 7l-41 265q-5 30 -9 60t-7 60h-2q-4 -30 -9 -59.5t-10 -59.5l-48 -266q-1 -4 -3 -5.5t-4 -1.5h-65zM221 714q-4 0 -5 2.5t1 6.5l52 102q5 7 11 7h52q5 0 6 -3.5t-2 -8.5l-61 -100q-2 -6 -12 -6h-42z" />
    <glyph glyph-name="wacute" unicode="&#x1e83;" horiz-adv-x="462" 
d="M116 0q-7 0 -9 8l-86 468q-1 10 5 10h53q7 0 8 -9l46 -276q6 -32 10 -66t7 -66h3q5 32 10 65t10 65l31 169l-17 99q-1 10 5 10h51q6 0 7 -7l43 -270q5 -33 8.5 -66t6.5 -65h3q5 33 9 67.5t9 66.5l46 274q2 9 7 9h53q7 0 6 -10l-87 -468q-1 -8 -9 -8h-67q-7 0 -9 6
l-20 120q-5 31 -9 64.5t-7 77.5h-4q-4 -44 -8.5 -77.5t-9.5 -65.5l-18 -118q-1 -7 -8 -7h-69zM191 557q-4 0 -5 2.5t1 6.5l63 120q3 7 10 7h50q5 0 6.5 -3t-1.5 -8l-71 -119q-4 -6 -13 -6h-40z" />
    <glyph glyph-name="Wdieresis" unicode="&#x1e84;" horiz-adv-x="526" 
d="M127 0q-5 0 -6 7l-107 638q-1 10 5 10h53q7 0 8 -7l63 -402q4 -26 7.5 -56t6 -59t4.5 -51h2q5 33 10 66.5t11 66.5l51 295l-21 128q-1 9 6 9h52q8 0 9 -8l66 -423q5 -34 9.5 -67t7.5 -67h2q2 23 4.5 49.5t6 56.5t7.5 60l61 402q1 7 7 7h54q7 0 6 -10l-105 -638
q-1 -7 -7 -7h-67q-7 0 -8 7l-41 265q-5 30 -9 60t-7 60h-2q-4 -30 -9 -59.5t-10 -59.5l-48 -266q-1 -4 -3 -5.5t-4 -1.5h-65zM207 723q-20 0 -30.5 10.5t-10.5 30.5v8q0 20 10.5 31t30.5 11t30.5 -11t10.5 -31v-8q0 -20 -10.5 -30.5t-30.5 -10.5zM319 723q-19 0 -29.5 10.5
t-10.5 30.5v8q0 20 10.5 31t29.5 11q21 0 31 -11t10 -31v-8q0 -20 -10 -30.5t-31 -10.5z" />
    <glyph glyph-name="wdieresis" unicode="&#x1e85;" horiz-adv-x="462" 
d="M116 0q-7 0 -9 8l-86 468q-1 10 5 10h53q7 0 8 -9l46 -276q6 -32 10 -66t7 -66h3q5 32 10 65t10 65l31 169l-17 99q-1 10 5 10h51q6 0 7 -7l43 -270q5 -33 8.5 -66t6.5 -65h3q5 33 9 67.5t9 66.5l46 274q2 9 7 9h53q7 0 6 -10l-87 -468q-1 -8 -9 -8h-67q-7 0 -9 6
l-20 120q-5 31 -9 64.5t-7 77.5h-4q-4 -44 -8.5 -77.5t-9.5 -65.5l-18 -118q-1 -7 -8 -7h-69zM175 578q-20 0 -30.5 11t-10.5 30v9q0 20 10.5 30.5t30.5 10.5t30.5 -10.5t10.5 -30.5v-9q0 -19 -10.5 -30t-30.5 -11zM287 578q-19 0 -29.5 11t-10.5 30v9q0 20 10.5 30.5
t29.5 10.5q21 0 31 -10.5t10 -30.5v-9q0 -19 -10 -30t-31 -11z" />
    <glyph glyph-name="uni1E9E" unicode="&#x1e9e;" horiz-adv-x="404" 
d="M260 -6q-56 0 -84 34.5t-25 98.5q1 10 8 10h49q7 0 7 -10q-1 -35 10 -52.5t35 -17.5q31 0 43.5 30.5t12.5 106.5q0 74 -21 107t-69 33h-23q-7 0 -7 7v31q0 4 1 6.5t2 6.5l66 207h-148v-583q0 -9 -6 -9h-53q-6 0 -6 9v637q0 9 6 9h288q6 0 7 -6.5t-2 -14.5l-84 -245
q58 -5 86 -52t28 -142q0 -103 -29 -152t-92 -49z" />
    <glyph glyph-name="Ygrave" unicode="&#x1ef2;" horiz-adv-x="343" 
d="M146 0q-7 0 -7 9v215l-130 420q-3 11 5 11h59q6 0 7 -6l61 -226q8 -28 15.5 -57.5t14.5 -58.5h1q8 29 16 58.5t15 58.5l61 225q2 6 7 6h57q8 0 6 -11l-130 -419v-216q0 -9 -6 -9h-52zM169 714q-10 0 -12 6l-61 100q-3 5 -1.5 8.5t5.5 3.5h52q5 0 7 -2t4 -5l52 -102
q2 -4 1 -6.5t-5 -2.5h-42z" />
    <glyph glyph-name="ygrave" unicode="&#x1ef3;" horiz-adv-x="317" 
d="M91 -185q-7 0 -5 11l43 180l-111 470q-3 10 4 10h56q7 0 8 -7l48 -237q8 -33 13.5 -68t10.5 -68h2q5 33 11.5 68.5t13.5 68.5l46 236q1 7 8 7h54q3 0 5 -3t0 -8l-148 -653q-1 -7 -8 -7h-51zM156 557q-7 0 -12 6l-71 119q-3 5 -1.5 8t5.5 3h51q7 0 10 -7l63 -120
q2 -4 1 -6.5t-6 -2.5h-40z" />
    <glyph glyph-name="uni2007" unicode="&#x2007;" horiz-adv-x="307" 
 />
    <glyph glyph-name="uni2008" unicode="&#x2008;" horiz-adv-x="130" 
 />
    <glyph glyph-name="uni200B" unicode="&#x200b;" horiz-adv-x="3" 
 />
    <glyph glyph-name="endash" unicode="&#x2013;" horiz-adv-x="441" 
d="M46 238q-8 0 -8 9v36q0 9 8 9h349q9 0 9 -9v-36q0 -9 -9 -9h-349z" />
    <glyph glyph-name="emdash" unicode="&#x2014;" horiz-adv-x="524" 
d="M46 238q-8 0 -8 9v36q0 9 8 9h432q9 0 9 -9v-36q0 -9 -9 -9h-432z" />
    <glyph glyph-name="quoteleft" unicode="&#x2018;" horiz-adv-x="154" 
d="M131 655q8 0 7 -9l-42 -211q-2 -9 -8 -9h-60q-5 0 -7 3t-1 8l61 212q1 6 7 6h43z" />
    <glyph glyph-name="quoteright" unicode="&#x2019;" horiz-adv-x="166" 
d="M25 426q-8 0 -7 9l42 211q2 9 8 9h60q5 0 7 -3t1 -8l-61 -212q-1 -6 -7 -6h-43z" />
    <glyph glyph-name="quotesinglbase" unicode="&#x201a;" horiz-adv-x="166" 
d="M25 -130q-8 0 -7 9l42 211q2 9 8 9h60q5 0 7 -3t1 -8l-61 -212q-1 -6 -7 -6h-43z" />
    <glyph glyph-name="quotedblleft" unicode="&#x201c;" horiz-adv-x="277" 
d="M253 655q8 0 7 -9l-42 -211q-2 -9 -8 -9h-60q-5 0 -7 3t-1 8l61 212q1 6 7 6h43zM131 655q8 0 7 -9l-42 -211q-2 -9 -8 -9h-60q-5 0 -7 3t-1 8l61 212q1 6 7 6h43z" />
    <glyph glyph-name="quotedblright" unicode="&#x201d;" horiz-adv-x="289" 
d="M25 426q-8 0 -7 9l42 211q2 9 8 9h60q5 0 7 -3t1 -8l-61 -212q-1 -6 -7 -6h-43zM148 426q-8 0 -7 9l42 211q2 9 8 9h60q5 0 7 -3t1 -8l-61 -212q-1 -6 -7 -6h-43z" />
    <glyph glyph-name="quotedblbase" unicode="&#x201e;" horiz-adv-x="289" 
d="M25 -130q-8 0 -7 9l42 211q2 9 8 9h60q5 0 7 -3t1 -8l-61 -212q-1 -6 -7 -6h-43zM148 -130q-8 0 -7 9l42 211q2 9 8 9h60q5 0 7 -3t1 -8l-61 -212q-1 -6 -7 -6h-43z" />
    <glyph glyph-name="dagger" unicode="&#x2020;" horiz-adv-x="313" 
d="M133 0q-9 0 -9 9v415h-98q-9 0 -9 9v43q0 9 9 9h98v161q0 9 9 9h47q9 0 9 -9v-161h98q9 0 9 -9v-43q0 -9 -9 -9h-98v-415q0 -9 -9 -9h-47z" />
    <glyph glyph-name="daggerdbl" unicode="&#x2021;" horiz-adv-x="313" 
d="M133 0q-9 0 -9 9v155h-98q-9 0 -9 9v43q0 9 9 9h98v205h-98q-9 0 -9 9v43q0 9 9 9h98v155q0 9 9 9h47q9 0 9 -9v-155h98q9 0 9 -9v-43q0 -9 -9 -9h-98v-205h98q9 0 9 -9v-43q0 -9 -9 -9h-98v-155q0 -9 -9 -9h-47z" />
    <glyph glyph-name="bullet" unicode="&#x2022;" horiz-adv-x="202" 
d="M101 185q-27 0 -42.5 15t-15.5 42v41q0 26 15.5 41t42.5 15q28 0 43.5 -15t15.5 -41v-41q0 -27 -15.5 -42t-43.5 -15z" />
    <glyph glyph-name="ellipsis" unicode="&#x2026;" horiz-adv-x="460" 
d="M379 -6q-21 0 -32.5 11t-11.5 33v8q0 22 11.5 33t32.5 11q22 0 33 -11t11 -33v-8q0 -22 -11 -33t-33 -11zM81 -6q-21 0 -32.5 11t-11.5 33v8q0 22 11.5 33t32.5 11q22 0 33 -11t11 -33v-8q0 -22 -11 -33t-33 -11zM230 -6q-21 0 -32.5 11t-11.5 33v8q0 22 11.5 33t32.5 11
q22 0 33 -11t11 -33v-8q0 -22 -11 -33t-33 -11z" />
    <glyph glyph-name="perthousand" unicode="&#x2030;" horiz-adv-x="831" 
d="M685 -6q-49 0 -75.5 31t-26.5 80v113q0 50 26.5 81.5t75.5 31.5q50 0 76 -31.5t26 -81.5v-113q0 -49 -26 -80t-76 -31zM685 43q26 0 37.5 15t11.5 46v117q0 31 -11.5 46t-37.5 15q-25 0 -37 -15t-12 -46v-117q0 -31 12 -46t37 -15zM156 0q-8 0 -5 10l118 329l106 312
q2 6 8 6h47q11 0 5 -11l-112 -311l-112 -329q-1 -6 -8 -6h-47zM146 324q-49 0 -75 31t-26 80v113q0 50 26 81.5t75 31.5q50 0 76 -31.5t26 -81.5v-113q0 -49 -26 -80t-76 -31zM146 373q50 0 50 61v117q0 31 -12 46t-38 15q-25 0 -37 -15t-12 -46v-117q0 -61 49 -61zM441 -6
q-49 0 -75.5 31t-26.5 80v113q0 50 26.5 81.5t75.5 31.5q50 0 76 -31.5t26 -81.5v-113q0 -49 -26 -80t-76 -31zM441 43q26 0 37.5 15t11.5 46v117q0 31 -11.5 46t-37.5 15t-37.5 -15t-11.5 -46v-117q0 -31 11.5 -46t37.5 -15z" />
    <glyph glyph-name="guilsinglleft" unicode="&#x2039;" horiz-adv-x="212" 
d="M119 93q-4 0 -7 6l-76 158q-2 4 0 11l76 158q3 6 8 6h50q4 0 5.5 -2.5t-0.5 -7.5l-74 -160l74 -158q3 -11 -5 -11h-51z" />
    <glyph glyph-name="guilsinglright" unicode="&#x203a;" horiz-adv-x="212" 
d="M40 93q-8 0 -5 11l74 158l-74 160q-1 5 0 7.5t5 2.5h50q5 0 8 -6l76 -158q2 -7 0 -11l-76 -158q-3 -6 -7 -6h-51z" />
    <glyph glyph-name="fraction" unicode="&#x2044;" horiz-adv-x="100" 
d="M-78 -28q-8 0 -6 11l110 366l100 327q2 7 8 7h44q9 0 6 -9l-108 -347l-101 -349q-3 -6 -10 -6h-43z" />
    <glyph glyph-name="uni2070" unicode="&#x2070;" horiz-adv-x="256" 
d="M128 350q-48 0 -73.5 32t-25.5 99v164q0 67 25.5 98.5t73.5 31.5q47 0 72.5 -31.5t25.5 -98.5v-164q0 -67 -25.5 -99t-72.5 -32zM128 405q23 0 33 16t10 56v172q0 41 -10 56.5t-33 15.5q-22 0 -33 -15.5t-11 -56.5v-172q0 -40 11 -56t33 -16z" />
    <glyph glyph-name="uni2074" unicode="&#x2074;" horiz-adv-x="256" 
d="M163 354q-9 0 -9 9v72h-128q-9 0 -9 9v5q0 4 1 7.5t2 7.5l100 295q3 10 9 10h39q4 0 6 -2.5t0 -8.5l-89 -269h71l2 136q0 9 9 9h28q8 0 8 -9v-136h28q5 0 5 -9v-36q0 -9 -5 -9h-28v-72q0 -9 -9 -9h-31z" />
    <glyph glyph-name="uni2075" unicode="&#x2075;" horiz-adv-x="256" 
d="M123 350q-32 0 -52 13t-28.5 38.5t-8.5 63.5q0 9 9 9h34q9 0 9 -9q0 -30 8.5 -45t29.5 -15q23 0 33.5 18t10.5 53v17q0 38 -10 56.5t-35 18.5q-19 0 -36 -5t-33 -13q-13 -6 -13 7l12 203q0 9 9 9h137q9 0 9 -9v-36q0 -9 -9 -9h-97l-6 -101q11 4 21 6t23 2
q45 0 63.5 -35.5t18.5 -99.5t-24.5 -100.5t-74.5 -36.5z" />
    <glyph glyph-name="uni2076" unicode="&#x2076;" horiz-adv-x="256" 
d="M129 350q-50 0 -74.5 30.5t-24.5 91.5v181q0 61 25.5 91.5t73.5 30.5q44 0 66.5 -23.5t22.5 -71.5q0 -9 -9 -9h-34q-9 0 -9 9q0 41 -37 41q-23 0 -33.5 -14.5t-10.5 -51.5v-58q18 13 33.5 18.5t31.5 5.5q39 0 58 -30t19 -94q0 -72 -25 -109.5t-73 -37.5zM129 405
q23 0 33 19.5t10 62.5v15q0 34 -9 49.5t-28 15.5q-13 0 -25.5 -5.5t-24.5 -15.5v-73q0 -35 10.5 -51.5t33.5 -16.5z" />
    <glyph glyph-name="uni2077" unicode="&#x2077;" horiz-adv-x="256" 
d="M72 354q-10 0 -7 12l92 349h-78v-53q0 -9 -9 -9h-33q-9 0 -9 9v98q0 9 9 9h182q9 0 9 -8v-5q0 -3 -0.5 -6t-1.5 -6l-105 -380q-3 -10 -12 -10h-37z" />
    <glyph glyph-name="uni2078" unicode="&#x2078;" horiz-adv-x="256" 
d="M128 350q-51 0 -75 31t-24 87q0 38 12 66t34 42q-18 14 -27.5 35.5t-9.5 52.5q0 55 23 83t67 28t66.5 -28t22.5 -83q0 -31 -9.5 -52.5t-27.5 -35.5q23 -14 35 -42t12 -66q0 -56 -24.5 -87t-74.5 -31zM128 405q23 0 34 14.5t11 46.5v9q0 36 -10 55.5t-35 19.5t-35.5 -19.5
t-10.5 -55.5v-9q0 -32 11.5 -46.5t34.5 -14.5zM128 601q19 0 28 14t9 42v9q0 29 -8.5 42t-28.5 13q-21 0 -29 -13t-8 -42v-9q0 -28 9 -42t28 -14z" />
    <glyph glyph-name="uni2079" unicode="&#x2079;" horiz-adv-x="256" 
d="M127 350q-44 0 -66.5 24.5t-22.5 73.5q0 9 8 9h35q8 0 8 -9q0 -23 9.5 -33t28.5 -10q23 0 33 15t10 51v53q-17 -13 -32 -18.5t-32 -5.5q-39 0 -58 31t-19 98q0 72 24 109t74 37t74 -29.5t24 -91.5v-181q0 -61 -25 -92t-73 -31zM120 554q13 0 25.5 5.5t24.5 15.5v78
q0 36 -10 52t-33 16t-33 -19.5t-10 -62.5v-15q0 -37 9 -53.5t27 -16.5z" />
    <glyph glyph-name="uni2080" unicode="&#x2080;" horiz-adv-x="256" 
d="M128 -112q-48 0 -73.5 32t-25.5 99v164q0 67 25.5 98.5t73.5 31.5q47 0 72.5 -31.5t25.5 -98.5v-164q0 -67 -25.5 -99t-72.5 -32zM128 -57q23 0 33 16t10 56v172q0 41 -10 56.5t-33 15.5q-22 0 -33 -15.5t-11 -56.5v-172q0 -40 11 -56t33 -16z" />
    <glyph glyph-name="uni2081" unicode="&#x2081;" horiz-adv-x="256" 
d="M48 -108q-9 0 -9 9v36q0 9 9 9h55v293l-53 -20q-9 -3 -9 5v40q0 8 6 11l87 32q3 1 5.5 1.5t5.5 0.5h4q9 0 9 -9v-354h49q9 0 9 -9v-36q0 -9 -9 -9h-159z" />
    <glyph glyph-name="uni2082" unicode="&#x2082;" horiz-adv-x="256" 
d="M44 -108q-9 0 -9 9v38q0 45 13 75.5t31.5 52.5t37.5 40.5t32 40t13 52.5v9q0 25 -7 37.5t-27 12.5q-21 0 -29 -15.5t-7 -47.5q0 -9 -9 -9h-34q-9 0 -9 9q-4 54 19 85.5t71 31.5q47 0 67 -26.5t20 -79.5q0 -44 -12.5 -71.5t-30.5 -47t-36 -38t-30.5 -42.5t-12.5 -62h115
q4 0 6.5 -2t2.5 -7v-36q0 -9 -9 -9h-166z" />
    <glyph glyph-name="uni2083" unicode="&#x2083;" horiz-adv-x="256" 
d="M124 -112q-33 0 -52.5 13.5t-28.5 39.5t-9 62q0 9 9 9h34q9 0 9 -9q0 -29 8 -44.5t30 -15.5t32.5 16t10.5 44v16q0 29 -9.5 44t-32.5 15h-26q-9 0 -9 9v36q0 9 9 9h22q20 0 30.5 15.5t10.5 46.5v14q0 25 -9 38t-29 13q-24 0 -31.5 -17.5t-6.5 -45.5q0 -9 -9 -9h-34
q-9 0 -9 9q-3 56 20 86.5t72 30.5q46 0 68.5 -26t22.5 -81q0 -34 -10.5 -58.5t-27.5 -38.5v-1q23 -13 33 -37.5t10 -61.5q0 -58 -25 -89.5t-73 -31.5z" />
    <glyph glyph-name="uni2084" unicode="&#x2084;" horiz-adv-x="256" 
d="M163 -108q-9 0 -9 9v72h-128q-9 0 -9 9v5q0 4 1 7.5t2 7.5l100 295q3 10 9 10h39q4 0 6 -2.5t0 -8.5l-89 -269h71l2 136q0 9 9 9h28q8 0 8 -9v-136h28q5 0 5 -9v-36q0 -9 -5 -9h-28v-72q0 -9 -9 -9h-31z" />
    <glyph glyph-name="uni2085" unicode="&#x2085;" horiz-adv-x="256" 
d="M123 -112q-32 0 -52 13t-28.5 38.5t-8.5 63.5q0 9 9 9h34q9 0 9 -9q0 -30 8.5 -45t29.5 -15q23 0 33.5 18t10.5 53v17q0 38 -10 56.5t-35 18.5q-19 0 -36 -5t-33 -13q-13 -6 -13 7l12 203q0 9 9 9h137q9 0 9 -9v-36q0 -9 -9 -9h-97l-6 -101q11 4 21 6t23 2
q45 0 63.5 -35.5t18.5 -99.5t-24.5 -100.5t-74.5 -36.5z" />
    <glyph glyph-name="uni2086" unicode="&#x2086;" horiz-adv-x="256" 
d="M129 -112q-50 0 -74.5 30.5t-24.5 91.5v181q0 61 25.5 91.5t73.5 30.5q44 0 66.5 -23.5t22.5 -71.5q0 -9 -9 -9h-34q-9 0 -9 9q0 41 -37 41q-23 0 -33.5 -14.5t-10.5 -51.5v-58q18 13 33.5 18.5t31.5 5.5q39 0 58 -30t19 -94q0 -72 -25 -109.5t-73 -37.5zM129 -57
q23 0 33 19.5t10 62.5v15q0 34 -9 49.5t-28 15.5q-13 0 -25.5 -5.5t-24.5 -15.5v-73q0 -35 10.5 -51.5t33.5 -16.5z" />
    <glyph glyph-name="uni2087" unicode="&#x2087;" horiz-adv-x="256" 
d="M72 -108q-10 0 -7 12l92 349h-78v-53q0 -9 -9 -9h-33q-9 0 -9 9v98q0 9 9 9h182q9 0 9 -8v-5q0 -3 -0.5 -6t-1.5 -6l-105 -380q-3 -10 -12 -10h-37z" />
    <glyph glyph-name="uni2088" unicode="&#x2088;" horiz-adv-x="256" 
d="M128 -113q-51 0 -75 31t-24 87q0 38 12 66t34 42q-18 14 -27.5 35.5t-9.5 52.5q0 55 23 83t67 28t66.5 -28t22.5 -83q0 -31 -9.5 -52.5t-27.5 -35.5q23 -14 35 -42t12 -66q0 -56 -24.5 -87t-74.5 -31zM128 -58q23 0 34 14.5t11 46.5v9q0 36 -10 55.5t-35 19.5
t-35.5 -19.5t-10.5 -55.5v-9q0 -32 11.5 -46.5t34.5 -14.5zM128 138q19 0 28 14t9 42v9q0 29 -8.5 42t-28.5 13q-21 0 -29 -13t-8 -42v-9q0 -28 9 -42t28 -14z" />
    <glyph glyph-name="uni2089" unicode="&#x2089;" horiz-adv-x="256" 
d="M127 -112q-44 0 -66.5 24.5t-22.5 73.5q0 9 8 9h35q8 0 8 -9q0 -23 9.5 -33t28.5 -10q23 0 33 15t10 51v53q-17 -13 -32 -18.5t-32 -5.5q-39 0 -58 31t-19 98q0 72 24 109t74 37t74 -29.5t24 -91.5v-181q0 -61 -25 -92t-73 -31zM120 92q13 0 25.5 5.5t24.5 15.5v78
q0 36 -10 52t-33 16t-33 -19.5t-10 -62.5v-15q0 -37 9 -53.5t27 -16.5z" />
    <glyph glyph-name="Euro" unicode="&#x20ac;" horiz-adv-x="420" 
d="M236 -6q-67 0 -106 46.5t-39 152.5v269q0 107 39 153t106 46q73 0 106.5 -49t32.5 -141q0 -10 -10 -10h-45q-9 0 -9 10q1 58 -15 92.5t-60 34.5q-37 0 -58.5 -30t-21.5 -110v-261q0 -80 21.5 -110t58.5 -30q44 0 60 34.5t15 92.5q0 10 9 10h45q10 0 10 -10
q1 -91 -32.5 -140.5t-106.5 -49.5zM52 216q-7 0 -6 9l6 37q1 8 8 8h190q7 0 6 -10l-6 -36q-2 -8 -8 -8h-190zM55 353q-7 0 -6 9l6 37q2 8 9 8h200q8 0 6 -10l-6 -36q-1 -8 -8 -8h-201z" />
    <glyph glyph-name="uni2116" unicode="&#x2116;" horiz-adv-x="604" 
d="M58 0q-6 0 -6 9v637q0 9 6 9h84q7 0 7 -6l66 -268q16 -61 27.5 -109.5t19.5 -84.5t13 -61.5t8 -42.5h2q-1 23 -2.5 55t-3 70.5t-2 81.5t-0.5 89v267q0 9 6 9h51q6 0 6 -9v-637q0 -9 -6 -9h-84q-1 0 -3 1.5t-3 3.5l-68 275q-13 52 -23.5 97.5t-19 82.5t-14 65.5t-9.5 46.5
h-2q1 -19 2.5 -48t2.5 -66t1.5 -82t0.5 -96v-271q0 -9 -6 -9h-51zM483 325q-43 0 -65 25.5t-22 76.5v132q0 50 22 76t65 26t65 -26t22 -76v-132q0 -51 -22 -76.5t-65 -25.5zM408 212q-7 0 -7 9v35q0 9 7 9h150q7 0 7 -9v-35q0 -9 -7 -9h-150zM483 373q19 0 28 12t9 37v142
q0 25 -9 37t-28 12t-28 -12t-9 -37v-142q0 -25 9 -37t28 -12z" />
    <glyph glyph-name="trademark" unicode="&#x2122;" horiz-adv-x="503" 
d="M260 350q-6 0 -6 6l4 322q0 6 6 6h42q6 0 7 -6l52 -177l50 177q2 6 6 6h43q6 0 6 -6l3 -322q0 -6 -5 -6h-38q-6 0 -6 6v208l-55 -176q-1 -4 -3 -4t-4 4l-58 177v-209q0 -6 -7 -6h-37zM106 350q-7 0 -7 9v275h-63q-6 0 -6 9v31q0 9 6 9h178q6 0 6 -9v-31q0 -9 -6 -9h-63
v-275q0 -9 -6 -9h-39z" />
    <glyph glyph-name="estimated" unicode="&#x212e;" horiz-adv-x="965" 
d="M482 -6q-82 0 -151.5 25.5t-121.5 72t-80.5 109.5t-28.5 138t30 139t82.5 111.5t121.5 74t148 26.5q75 0 144 -25t123 -71.5t85 -110.5t31 -142q0 -10 -9 -10h-616v-207q20 -30 60.5 -50.5t89.5 -31t93 -10.5q65 0 130 26t113 62q7 5 12 5h33q6 0 7.5 -3.5t-3.5 -8.5
q-54 -54 -126 -86.5t-167 -32.5zM240 370h485v185q-40 44 -99.5 70.5t-142.5 26.5t-144.5 -26t-98.5 -70v-186z" />
    <glyph glyph-name="uni2153" unicode="&#x2153;" horiz-adv-x="618" 
d="M48 240q-9 0 -9 9v36q0 9 9 9h55v293l-53 -20q-9 -3 -9 5v40q0 8 6 11l87 32q3 1 5.5 1.5t5.5 0.5h4q9 0 9 -9v-354h49q9 0 9 -9v-36q0 -9 -9 -9h-159zM184 -28q-8 0 -6 11l110 366l100 327q2 7 8 7h44q9 0 6 -9l-108 -347l-101 -349q-3 -6 -10 -6h-43zM486 -4
q-33 0 -52.5 13.5t-28.5 39.5t-9 62q0 9 9 9h34q9 0 9 -9q0 -29 8 -44.5t30 -15.5t32.5 16t10.5 44v16q0 29 -9.5 44t-32.5 15h-26q-9 0 -9 9v36q0 9 9 9h22q20 0 30.5 15.5t10.5 46.5v14q0 25 -9 38t-29 13q-24 0 -31.5 -17.5t-6.5 -45.5q0 -9 -9 -9h-34q-9 0 -9 9
q-3 56 20 86.5t72 30.5q46 0 68.5 -26t22.5 -81q0 -34 -10.5 -58.5t-27.5 -38.5v-1q23 -13 33 -37.5t10 -61.5q0 -58 -25 -89.5t-73 -31.5z" />
    <glyph glyph-name="uni2154" unicode="&#x2154;" horiz-adv-x="618" 
d="M44 240q-9 0 -9 9v38q0 45 13 75.5t31.5 52.5t37.5 40.5t32 40t13 52.5v9q0 25 -7 37.5t-27 12.5q-21 0 -29 -15.5t-7 -47.5q0 -9 -9 -9h-34q-9 0 -9 9q-4 54 19 85.5t71 31.5q47 0 67 -26.5t20 -79.5q0 -44 -12.5 -71.5t-30.5 -47t-36 -38t-30.5 -42.5t-12.5 -62h115
q4 0 6.5 -2t2.5 -7v-36q0 -9 -9 -9h-166zM184 -28q-8 0 -6 11l110 366l100 327q2 7 8 7h44q9 0 6 -9l-108 -347l-101 -349q-3 -6 -10 -6h-43zM486 -4q-33 0 -52.5 13.5t-28.5 39.5t-9 62q0 9 9 9h34q9 0 9 -9q0 -29 8 -44.5t30 -15.5t32.5 16t10.5 44v16q0 29 -9.5 44
t-32.5 15h-26q-9 0 -9 9v36q0 9 9 9h22q20 0 30.5 15.5t10.5 46.5v14q0 25 -9 38t-29 13q-24 0 -31.5 -17.5t-6.5 -45.5q0 -9 -9 -9h-34q-9 0 -9 9q-3 56 20 86.5t72 30.5q46 0 68.5 -26t22.5 -81q0 -34 -10.5 -58.5t-27.5 -38.5v-1q23 -13 33 -37.5t10 -61.5
q0 -58 -25 -89.5t-73 -31.5z" />
    <glyph glyph-name="arrowleft" unicode="&#x2190;" horiz-adv-x="805" 
d="M734 303q0 -7 -9 -7h-549l135 -136q7 -6 2 -11l-35 -30q-5 -5 -10 0l-192 202q-4 6 0 11l192 202q5 6 10 0l35 -30q5 -4 -2 -11l-135 -136h549q9 0 9 -7v-47z" />
    <glyph glyph-name="arrowup" unicode="&#x2191;" horiz-adv-x="805" 
d="M379 0q-7 0 -7 9v549l-136 -135q-6 -6 -11 -2l-30 35q-5 5 0 10l202 192q6 4 11 0l202 -192q6 -5 0 -10l-30 -35q-4 -4 -11 2l-136 135v-549q0 -9 -7 -9h-47z" />
    <glyph glyph-name="arrowright" unicode="&#x2192;" horiz-adv-x="805" 
d="M72 351q0 7 9 7h549l-135 136q-6 7 -2 11l35 30q5 5 10 0l192 -202q4 -6 0 -11l-192 -202q-5 -6 -10 0l-35 30q-4 5 2 11l135 136h-549q-9 0 -9 7v47z" />
    <glyph glyph-name="arrowdown" unicode="&#x2193;" horiz-adv-x="805" 
d="M379 655h47q7 0 7 -9v-549l136 135q7 7 11 2l30 -35q6 -5 0 -10l-202 -192q-5 -4 -11 0l-202 192q-5 5 0 10l30 35q5 5 11 -2l136 -135v549q0 9 7 9z" />
    <glyph glyph-name="arrowboth" unicode="&#x2194;" horiz-adv-x="1150" 
d="M361 410q0 7 9 7h549l-135 136q-6 7 -2 11l35 30q5 5 10 0l192 -202q4 -6 0 -11l-192 -202q-5 -6 -10 0l-35 30q-4 5 2 11l135 136h-549q-9 0 -9 7v47zM788 410v-47q0 -7 -9 -7h-549l135 -136q7 -6 2 -11l-35 -30q-5 -6 -10 0l-192 202q-4 5 0 11l192 202q5 5 10 0
l35 -30q5 -4 -2 -11l-135 -136h549q9 0 9 -7z" />
    </font>
</defs>
</svg>
