<?xml version="1.0" standalone="no"?>
<!DOCTYPE svg PUBLIC "-//W3C//DTD SVG 1.1//EN" "http://www.w3.org/Graphics/SVG/1.1/DTD/svg11.dtd" >
<svg xmlns="http://www.w3.org/2000/svg" xmlns:xlink="http://www.w3.org/1999/xlink" version="1.1">
<metadata>
Created by FontForge 20201107 at Wed Jan 11 22:20:41 2023
 By 
Copyright 2019 The Sofia Sans Project Authors (https://github.com/lettersoup/Sofia-Sans)
</metadata>
<defs>
<font id="SofiaSansExtraCondensed-Black" horiz-adv-x="0" >
  <font-face 
    font-family="Sofia Sans Extra Condensed Black"
    font-weight="900"
    font-stretch="normal"
    units-per-em="1000"
    panose-1="0 0 0 0 0 0 0 0 0 0"
    ascent="800"
    descent="-200"
    x-height="497"
    cap-height="655"
    bbox="-93.1429 -267 1112.5 964"
    underline-thickness="50"
    underline-position="-125"
    unicode-range="U+000D-FB02"
  />
<missing-glyph horiz-adv-x="352" 
d="M62 0q-11 0 -11 13v638q0 13 11 13h229q11 0 11 -13v-638q0 -13 -11 -13h-229zM150 93h53v478h-53v-478z" />
    <glyph glyph-name="f_f" unicode="ff" horiz-adv-x="604" 
d="M78 0q-11 0 -11 13v361h-43q-13 0 -13 13v98q0 12 13 12h43v36q0 77 32.5 116.5t99.5 39.5q33 0 60.5 -3.5t39.5 -8.5q7 -3 7 -12v-88q0 -7 -3 -9.5t-8 -0.5q-10 3 -22.5 5.5t-26.5 2.5q-19 0 -27.5 -12t-8.5 -36v-30h56q13 0 13 -13v-97q0 -13 -13 -13h-56v-361
q0 -13 -12 -13h-120zM387 0q-11 0 -11 13v361h-43q-13 0 -13 13v98q0 12 13 12h43v36q0 77 32.5 116.5t99.5 39.5q33 0 60.5 -3.5t39.5 -8.5q7 -3 7 -12v-88q0 -7 -3 -9.5t-8 -0.5q-10 3 -22.5 5.5t-26.5 2.5q-19 0 -27.5 -12t-8.5 -36v-30h56q13 0 13 -13v-97
q0 -13 -13 -13h-56v-361q0 -13 -12 -13h-120z" />
    <glyph glyph-name="f_i" unicode="fi" horiz-adv-x="435" 
d="M78 0q-11 0 -11 13v361h-43q-13 0 -13 13v98q0 12 13 12h43v36q0 77 32 116.5t101 39.5q33 0 61 -3.5t40 -8.5q6 -3 6 -12v-88q0 -14 -10 -10t-23 6t-28 2q-19 0 -27.5 -12t-8.5 -37v-29h186q11 0 11 -12v-472q0 -13 -11 -13h-121q-11 0 -11 13v361h-54v-361
q0 -13 -12 -13h-120z" />
    <glyph glyph-name="f_l" unicode="fl" horiz-adv-x="437" 
d="M78 0q-11 0 -11 13v361h-43q-13 0 -13 13v98q0 12 13 12h43v36q0 77 32.5 116.5t100.5 39.5q24 0 41.5 -2t33.5 -5l123 1q11 0 11 -13v-657q0 -13 -11 -13h-121q-11 0 -11 13v559q-4 1 -9.5 2t-13.5 1q-15 0 -24 -12t-9 -36v-30h22q13 0 13 -13v-97q0 -13 -13 -13h-22
v-361q0 -13 -12 -13h-120z" />
    <glyph glyph-name=".notdef" horiz-adv-x="352" 
d="M62 0q-11 0 -11 13v638q0 13 11 13h229q11 0 11 -13v-638q0 -13 -11 -13h-229zM150 93h53v478h-53v-478z" />
    <glyph glyph-name=".null" 
 />
    <glyph glyph-name="nonmarkingreturn" horiz-adv-x="333" 
 />
    <glyph glyph-name="CR" unicode="&#xd;" horiz-adv-x="1" 
 />
    <glyph glyph-name="space" unicode=" " horiz-adv-x="126" 
 />
    <glyph glyph-name="exclam" unicode="!" horiz-adv-x="242" 
d="M63 226q-11 0 -11 13l-11 403q0 13 11 13h147q11 0 11 -13l-11 -403q0 -13 -12 -13h-124zM125 -6q-39 0 -61.5 18t-22.5 56v23q0 39 22.5 57t61.5 18q40 0 62 -18t22 -57v-23q0 -38 -22 -56t-62 -18z" />
    <glyph glyph-name="quotedbl" unicode="&#x22;" horiz-adv-x="372" 
d="M224 371q-14 0 -14 14v284q0 14 14 14h110q14 0 14 -14v-284q0 -14 -14 -14h-110zM39 371q-14 0 -14 14v284q0 14 14 14h110q14 0 14 -14v-284q0 -14 -14 -14h-110z" />
    <glyph glyph-name="numbersign" unicode="#" horiz-adv-x="444" 
d="M84 0q-14 0 -14 14v98h-40q-14 0 -14 13v82q0 13 14 13h40v173h-40q-14 0 -14 13v82q0 13 14 13h40v98q0 14 14 14h79q14 0 14 -14v-98h89v98q0 14 14 14h80q13 0 13 -14v-98h40q14 0 14 -13v-82q0 -13 -14 -13h-40v-173h40q14 0 14 -13v-82q0 -13 -14 -13h-40v-98
q0 -14 -13 -14h-80q-14 0 -14 14v98h-89v-98q0 -14 -14 -14h-79zM177 220h89v173h-89v-173z" />
    <glyph glyph-name="dollar" unicode="$" horiz-adv-x="453" 
d="M223 -6q-99 0 -141 52.5t-33 148.5q1 14 12 14h121q11 0 10 -13q-3 -34 4.5 -55t29.5 -21q17 0 26.5 13t9.5 38q0 22 -8 40.5t-27 32.5l-86 67q-50 38 -73.5 79t-22.5 104q1 81 44 124t130 43q97 0 143 -51t38 -144q-1 -16 -13 -16h-124q-11 0 -10 15q2 26 -3 48t-28 22
q-14 0 -21.5 -10.5t-8.5 -33.5q0 -25 11 -40.5t27 -29.5l86 -65q36 -27 56.5 -53t29.5 -57t8 -76q-1 -86 -45 -131t-142 -45zM172 -87q-9 0 -9 9v83l123 5v-88q0 -9 -10 -9h-104zM163 641v91q0 10 9 10h104q10 0 10 -10v-87z" />
    <glyph glyph-name="percent" unicode="%" horiz-adv-x="677" 
d="M160 0q-14 0 -8 16l139 333l112 298q4 8 14 8h101q15 0 7 -15l-131 -313l-121 -319q-3 -8 -13 -8h-100zM157 308q-66 0 -95 39t-29 95v85q0 56 29 95t95 39q67 0 96 -39t29 -95v-85q0 -56 -29 -95t-96 -39zM157 409q23 0 23 32v87q0 16 -5 24t-18 8q-12 0 -17 -8t-5 -24
v-87q0 -32 22 -32zM520 -6q-66 0 -95.5 39t-29.5 95v84q0 57 29.5 96t95.5 39t95.5 -39t29.5 -96v-84q0 -56 -29.5 -95t-95.5 -39zM520 95q13 0 18 8t5 24v87q0 16 -5 24t-18 8t-18 -8t-5 -24v-87q0 -16 5 -24t18 -8z" />
    <glyph glyph-name="ampersand" unicode="&#x26;" horiz-adv-x="473" 
d="M343 0q-12 0 -16 6l-223 324q-33 48 -48 91.5t-15 94.5q0 72 36 108.5t107 36.5q66 0 101 -33.5t35 -94.5q0 -35 -10 -70t-31 -68.5t-51 -67.5l-74 74q27 37 39 62.5t12 56.5q0 19 -5 29.5t-18 10.5t-18.5 -10t-5.5 -31q0 -27 10 -59t29 -58l272 -386q4 -7 2.5 -11.5
t-9.5 -4.5h-119zM193 -6q-79 0 -124 42t-45 116q0 36 6.5 65.5t21 57.5t41 60t65.5 72l38 -108q-14 -25 -26 -46.5t-18.5 -44t-6.5 -49.5q0 -29 14 -45.5t39 -16.5q52 0 79.5 69t27.5 200q0 14 14 14h88q14 0 14 -14q0 -115 -28 -198.5t-79 -128.5t-121 -45z" />
    <glyph glyph-name="quotesingle" unicode="'" horiz-adv-x="187" 
d="M39 371q-14 0 -14 14v284q0 14 14 14h110q14 0 14 -14v-284q0 -14 -14 -14h-110z" />
    <glyph glyph-name="parenleft" unicode="(" horiz-adv-x="218" 
d="M117 -186q-26 33 -47.5 62.5t-33.5 69t-12 101.5v459q0 63 12 102.5t33.5 69.5t47.5 61q12 14 25 2l64 -61q5 -5 5 -11.5t-5 -12.5q-17 -22 -30 -44t-20.5 -50t-7.5 -69v-433q0 -40 7.5 -68.5t20.5 -50.5t30 -44q5 -5 5 -12t-5 -11l-64 -62q-13 -12 -25 2z" />
    <glyph glyph-name="parenright" unicode=")" horiz-adv-x="218" 
d="M76 -188l-64 62q-5 4 -4.5 11t4.5 12q17 22 30 44t20.5 50.5t7.5 68.5v433q0 41 -7.5 69t-20.5 50t-30 44q-4 6 -4.5 12.5t4.5 11.5l64 61q13 13 25 -2q27 -31 48 -61t33.5 -69.5t12.5 -102.5v-459q0 -62 -12.5 -101.5t-33.5 -69t-48 -62.5q-12 -14 -25 -2z" />
    <glyph glyph-name="asterisk" unicode="*" horiz-adv-x="321" 
d="M118 429l-58 46q-11 9 0 18l43 38l-60 7q-5 1 -8.5 5.5t-1.5 10.5l23 69q6 14 18 5l51 -32l-6 71q-1 9 7 9h69q6 0 7 -3.5t1 -5.5l-6 -72l50 33q6 5 11.5 2.5t7.5 -8.5l22 -68q2 -5 -0.5 -9.5t-8.5 -5.5l-62 -9l44 -38q5 -3 4.5 -8.5t-4.5 -9.5l-60 -42q-11 -7 -16 5
l-24 50l-24 -52q-7 -15 -19 -6z" />
    <glyph glyph-name="plus" unicode="+" horiz-adv-x="420" 
d="M167 148q-14 0 -14 14v81h-82q-14 0 -14 14v87q0 14 14 14h82v82q0 14 14 14h87q14 0 14 -14v-82h81q14 0 14 -14v-87q0 -14 -14 -14h-81v-81q0 -14 -14 -14h-87z" />
    <glyph glyph-name="comma" unicode="," horiz-adv-x="269" 
d="M31 -150q-13 0 -11 14l48 290q2 12 14 12h145q6 0 9.5 -3.5t1.5 -11.5l-87 -290q-2 -11 -14 -11h-106z" />
    <glyph glyph-name="hyphen" unicode="-" horiz-adv-x="343" 
d="M45 211q-14 0 -14 14v83q0 14 14 14h253q14 0 14 -14v-83q0 -14 -14 -14h-253z" />
    <glyph glyph-name="period" unicode="." horiz-adv-x="247" 
d="M124 -6q-42 0 -67.5 21t-25.5 58v23q0 39 25.5 59t67.5 20q44 0 67.5 -20t23.5 -59v-23q0 -37 -23.5 -58t-67.5 -21z" />
    <glyph glyph-name="slash" unicode="/" horiz-adv-x="331" 
d="M19 0q-13 0 -9 14l186 631q3 10 13 10h104q12 0 8 -14l-186 -631q-3 -10 -13 -10h-103z" />
    <glyph glyph-name="zero" unicode="0" horiz-adv-x="439" 
d="M220 -6q-97 0 -146 52.5t-49 155.5v251q0 103 49 155.5t146 52.5q96 0 145 -52.5t49 -155.5v-251q0 -103 -49 -155.5t-145 -52.5zM220 119q25 0 37 20.5t12 65.5v245q0 45 -12 65.5t-37 20.5q-26 0 -38 -20.5t-12 -65.5v-245q0 -45 12 -65.5t38 -20.5z" />
    <glyph glyph-name="one" unicode="1" horiz-adv-x="383" 
d="M36 0q-14 0 -14 14v96q0 14 14 14h93v378l-89 -32q-5 -1 -9 1.5t-4 8.5v96q0 11 11 15l175 64q7 3 14 3h33q13 0 13 -13v-521h88q14 0 14 -14v-96q0 -14 -14 -14h-325z" />
    <glyph glyph-name="two" unicode="2" horiz-adv-x="398" 
d="M30 0q-14 0 -14 14v86q0 55 16 95.5t40.5 71.5t52 56t52 49t40 51t15.5 61v9q0 23 -8 34.5t-26 11.5q-20 0 -28.5 -17t-5.5 -51q2 -14 -13 -14h-107q-12 0 -14 14q-6 88 38.5 139t133.5 51q86 0 130.5 -42.5t44.5 -125.5q0 -52 -14.5 -91t-38 -68t-49 -53.5t-49 -47.5
t-38 -49t-14.5 -60h187q13 0 13 -14v-96q0 -14 -13 -14h-331z" />
    <glyph glyph-name="three" unicode="3" horiz-adv-x="411" 
d="M199 -6q-97 0 -141 50t-35 144q2 14 14 14h106q14 0 14 -14q0 -40 8.5 -56t33.5 -16q22 0 33 17t11 53v19q0 37 -12 53.5t-41 16.5h-22q-14 0 -14 14v87q0 14 14 14h17q26 0 38 17t12 55v17q0 32 -9 46t-29 14q-22 0 -30.5 -16t-8.5 -49q0 -14 -14 -14h-106q-13 0 -14 14
q-6 87 41 137t138 50q84 0 130 -44.5t46 -126.5q0 -53 -16.5 -90t-48.5 -59v-3q36 -16 55 -52.5t19 -92.5q0 -98 -49 -148.5t-140 -50.5z" />
    <glyph glyph-name="four" unicode="4" horiz-adv-x="455" 
d="M267 0q-14 0 -14 14v97h-230q-14 0 -14 14v26q0 8 1.5 14.5t2.5 9.5l157 471q4 9 14 9h119q14 0 10 -16l-126 -404h66l30 187q2 14 13 14h87q14 0 14 -14v-187h25q14 0 14 -14v-96q0 -14 -14 -14h-25v-97q0 -14 -14 -14h-116z" />
    <glyph glyph-name="five" unicode="5" horiz-adv-x="417" 
d="M195 -6q-67 0 -108.5 24.5t-57.5 67.5t-10 99q2 9 5 11.5t9 2.5h106q14 0 14 -14q0 -30 9 -49.5t36 -19.5q26 0 37.5 20.5t11.5 66.5v24q0 27 -6 45.5t-20 27t-37 8.5q-32 0 -67 -9t-66 -21q-12 -4 -17 -1t-4 12l22 352q2 14 14 14h276q14 0 14 -14v-96q0 -14 -14 -14
h-171l-7 -124q22 8 43.5 12t48.5 4q73 0 104.5 -50t31.5 -160q0 -109 -45.5 -164t-151.5 -55z" />
    <glyph glyph-name="six" unicode="6" horiz-adv-x="438" 
d="M219 -6q-101 0 -147.5 50.5t-46.5 160.5v248q0 105 48 156.5t144 51.5q87 0 133.5 -42t46.5 -123q0 -14 -14 -14h-106q-14 0 -14 14q0 22 -10.5 32.5t-32.5 10.5q-27 0 -38.5 -16.5t-11.5 -56.5v-267q0 -47 10 -65t38 -18t39.5 21t11.5 73v18q0 41 -9.5 58t-35.5 17
q-15 0 -32 -6t-37 -20l1 101q28 19 62 29t64 10q69 0 100.5 -45.5t31.5 -144.5q0 -120 -47.5 -176.5t-147.5 -56.5z" />
    <glyph glyph-name="seven" unicode="7" horiz-adv-x="409" 
d="M87 0q-7 0 -9.5 5.5t-0.5 12.5l155 516h-84v-59q0 -14 -14 -14h-106q-14 0 -14 14v166q0 14 14 14h377q12 0 12 -11v-10q0 -8 -3 -16l-184 -605q-3 -13 -16 -13h-127z" />
    <glyph glyph-name="eight" unicode="8" horiz-adv-x="442" 
d="M221 -6q-200 0 -200 182q0 65 21.5 109t62.5 64q-33 24 -49.5 57.5t-16.5 80.5q0 86 46 130t136 44t136.5 -44t46.5 -130q0 -47 -16 -80.5t-51 -57.5q42 -20 63 -64t21 -109q0 -182 -200 -182zM221 111q30 0 42.5 18t12.5 60v23q0 43 -12.5 62t-42.5 19q-29 0 -42 -19
t-13 -62v-23q0 -42 13 -60t42 -18zM221 395q21 0 30 14.5t9 45.5v36q0 31 -9 44.5t-30 13.5t-30 -13.5t-9 -44.5v-36q0 -31 9.5 -45.5t29.5 -14.5z" />
    <glyph glyph-name="nine" unicode="9" horiz-adv-x="437" 
d="M219 -6q-88 0 -134 43t-46 126q0 14 14 14h106q14 0 14 -14q0 -23 10.5 -35t33.5 -12q27 0 38.5 16.5t11.5 56.5v266q0 48 -10.5 66t-38.5 18q-27 0 -38.5 -20.5t-11.5 -72.5v-19q0 -43 10 -61t34 -18q16 0 33 6.5t37 19.5l-1 -101q-28 -18 -61.5 -28.5t-64.5 -10.5
q-69 0 -100.5 46.5t-31.5 148.5q0 121 46.5 176.5t147.5 55.5q100 0 147.5 -51t47.5 -160v-248q0 -104 -48.5 -156t-144.5 -52z" />
    <glyph glyph-name="colon" unicode=":" horiz-adv-x="237" 
d="M118 310q-39 0 -63 20.5t-24 56.5v23q0 37 24 57.5t63 20.5q42 0 64.5 -20.5t22.5 -57.5v-23q0 -36 -22.5 -56.5t-64.5 -20.5zM118 -6q-39 0 -63 21t-24 57v22q0 37 24 57.5t63 20.5q42 0 64.5 -20.5t22.5 -57.5v-22q0 -36 -22.5 -57t-64.5 -21z" />
    <glyph glyph-name="semicolon" unicode=";" horiz-adv-x="257" 
d="M17 -150q-13 0 -10 14l48 290q2 12 14 12h144q7 0 10 -3.5t1 -11.5l-86 -290q-3 -11 -15 -11h-106zM132 310q-39 0 -62.5 20.5t-23.5 56.5v23q0 37 23.5 57.5t62.5 20.5q42 0 65 -20.5t23 -57.5v-23q0 -36 -23 -56.5t-65 -20.5z" />
    <glyph glyph-name="less" unicode="&#x3c;" horiz-adv-x="420" 
d="M347 94l-276 149q-9 6 -9 16v77q0 10 9 16l275 149q6 4 9.5 0.5t3.5 -11.5v-108q0 -10 -8 -15l-153 -69l153 -70q8 -4 8 -16v-108q0 -6 -3.5 -10t-8.5 0z" />
    <glyph glyph-name="equal" unicode="=" horiz-adv-x="420" 
d="M68 332q-14 0 -14 14v87q0 14 14 14h284q14 0 14 -14v-87q0 -14 -14 -14h-284zM68 156q-14 0 -14 14v87q0 14 14 14h284q14 0 14 -14v-87q0 -14 -14 -14h-284z" />
    <glyph glyph-name="greater" unicode="&#x3e;" horiz-adv-x="420" 
d="M74 94q-5 -4 -8.5 0t-3.5 10v108q0 12 8 16l153 70l-153 69q-8 5 -8 15v108q0 8 3.5 11.5t8.5 -0.5l276 -149q9 -6 9 -16v-77q0 -10 -9 -16z" />
    <glyph glyph-name="question" unicode="?" horiz-adv-x="381" 
d="M113 226q-9 0 -9 12v39q0 34 11 59t27 45t31.5 38t26.5 39t11 48q0 20 -4.5 29t-21.5 9q-21 0 -26.5 -19.5t-2.5 -56.5q1 -15 -11 -15h-106q-7 0 -9.5 5t-3.5 13q-7 92 33 141t129 49q87 0 127.5 -37.5t40.5 -106.5q0 -45 -10.5 -76t-26.5 -54t-31.5 -42t-26 -38.5
t-10.5 -44.5l-1 -24q0 -12 -9 -12h-128zM182 -6q-40 0 -62 18t-22 56v23q0 39 22 57t62 18t61.5 -18t21.5 -57v-23q0 -38 -21.5 -56t-61.5 -18z" />
    <glyph glyph-name="at" unicode="@" horiz-adv-x="664" 
d="M333 -185q-105 0 -176.5 44t-108 130.5t-36.5 212.5v100q0 126 37.5 212t110 130.5t178.5 44.5q102 0 172 -43.5t105.5 -124.5t35.5 -194v-30q0 -90 -23 -149.5t-63.5 -89t-92.5 -29.5q-44 0 -73 21t-42 53.5t-10 70.5l20 194q-1 5 -10 5h-17q-13 0 -18.5 -9t-7.5 -29
l-15 -153q-2 -22 2 -30.5t15 -8.5q14 0 29.5 16.5t30.5 35.5l22 -80q-37 -45 -69 -66t-66 -21q-45 0 -64 39t-12 98l20 175q8 68 38 100.5t89 32.5q37 0 69 -8t61 -12q12 -1 11 -16l-23 -230q-4 -40 4 -56.5t26 -16.5q16 0 26 14.5t14 50t4 97.5v27q0 85 -19.5 141.5
t-61 84.5t-107.5 28q-70 0 -114.5 -29.5t-65 -91.5t-20.5 -160v-88q0 -98 20.5 -160t65 -91.5t114.5 -29.5h106q14 0 14 -14v-84q0 -14 -14 -14h-111z" />
    <glyph glyph-name="A" unicode="A" horiz-adv-x="463" 
d="M11 0q-12 0 -9 14l137 631q2 10 13 10h160q11 0 13 -10l136 -630q4 -15 -8 -15h-140q-10 0 -12 10l-51 371q-5 34 -9 68l-8 68h-2l-8 -68t-9 -68l-54 -370q-1 -11 -13 -11h-136zM155 125l19 117h111l22 -117h-152z" />
    <glyph glyph-name="B" unicode="B" horiz-adv-x="440" 
d="M47 0q-13 0 -13 13v629q0 13 12 13h163q96 0 143.5 -41.5t47.5 -124.5q0 -51 -20 -85.5t-64 -55.5v-4q52 -15 78 -54t26 -99q0 -98 -50 -144.5t-159 -46.5h-164zM182 120h31q30 0 46 21t16 60q0 38 -16.5 58t-47.5 20h-29v-159zM182 387h23q24 0 37.5 20t13.5 58
q0 36 -13 53t-40 17h-21v-148z" />
    <glyph glyph-name="C" unicode="C" horiz-adv-x="468" 
d="M236 -6q-103 0 -156.5 57t-53.5 180v193q0 118 53.5 177.5t156.5 59.5q71 0 119 -30t70.5 -83t14.5 -125q-2 -13 -10 -13h-127q-12 0 -10 14q3 50 -10 77t-48 27q-34 0 -47.5 -24t-13.5 -84v-182q0 -63 14.5 -87t47.5 -24q38 0 48.5 29t8.5 76q0 14 10 14h127q9 0 11 -13
q10 -108 -41.5 -173.5t-163.5 -65.5z" />
    <glyph glyph-name="D" unicode="D" horiz-adv-x="469" 
d="M47 0q-13 0 -13 13v629q0 13 13 13h163q116 0 176 -70t60 -213v-77q0 -149 -59.5 -222t-172.5 -73h-167zM182 131h29q46 0 66.5 41t20.5 123v77q0 76 -21.5 114t-68.5 38h-26v-393z" />
    <glyph glyph-name="E" unicode="E" horiz-adv-x="395" 
d="M45 0q-11 0 -11 13v629q0 13 11 13h311q11 0 11 -13v-105q0 -13 -11 -13h-174v-131h157q11 0 11 -13v-99q0 -13 -11 -13h-157v-137h174q11 0 11 -13v-105q0 -13 -11 -13h-311z" />
    <glyph glyph-name="F" unicode="F" horiz-adv-x="389" 
d="M45 0q-11 0 -11 13v629q0 13 11 13h311q11 0 11 -13v-105q0 -13 -11 -13h-174v-140h148q12 0 12 -14v-102q0 -13 -12 -13h-148v-242q0 -13 -10 -13h-127z" />
    <glyph glyph-name="G" unicode="G" horiz-adv-x="473" 
d="M194 -6q-80 0 -124 55.5t-44 166.5v208q0 116 53.5 176.5t156.5 60.5q102 0 154.5 -59t46.5 -159q-2 -13 -11 -13h-126q-11 0 -10 14q3 41 -10 62.5t-44 21.5q-34 0 -48 -24.5t-14 -78.5v-196q0 -57 12.5 -79.5t46.5 -22.5q29 0 44 22.5t15 64.5v33h-53q-11 0 -11 14v75
q0 13 11 13h187q11 0 11 -13v-172q0 -52 2 -88t6 -62q3 -14 -11 -14h-98q-9 0 -12 12q-2 10 -3.5 26.5t-1.5 36.5h-2q-17 -37 -45.5 -59t-77.5 -22z" />
    <glyph glyph-name="H" unicode="H" horiz-adv-x="480" 
d="M46 0q-12 0 -12 13v629q0 13 12 13h124q12 0 12 -13v-246h116v246q0 13 12 13h124q12 0 12 -13v-629q0 -13 -12 -13h-124q-12 0 -12 13v252h-116v-252q0 -13 -12 -13h-124z" />
    <glyph glyph-name="I" unicode="I" horiz-adv-x="216" 
d="M45 0q-11 0 -11 13v629q0 13 11 13h126q11 0 11 -13v-629q0 -13 -11 -13h-126z" />
    <glyph glyph-name="J" unicode="J" horiz-adv-x="216" 
d="M24 -162q-8 -2 -11 9l-31 98q-2 7 0 11.5t5 5.5q15 7 26 18.5t16 35t5 66.5v560q0 13 11 13h126q11 0 11 -13v-553q0 -76 -17.5 -128t-52.5 -82t-88 -41z" />
    <glyph glyph-name="K" unicode="K" horiz-adv-x="462" 
d="M45 0q-11 0 -11 13v629q0 13 11 13h126q11 0 11 -13v-111q0 -19 -1 -49t-2.5 -59t-2.5 -49h1q9 29 20 69.5t31 86.5l53 118q2 7 12 7h140q13 0 6 -16l-116 -261l137 -362q7 -16 -8 -16h-149q-10 0 -13 8l-75 246l-33 -63v-178q0 -13 -11 -13h-126z" />
    <glyph glyph-name="L" unicode="L" horiz-adv-x="361" 
d="M46 0q-12 0 -12 13v629q0 13 12 13h124q12 0 12 -13v-511h156q12 0 12 -13v-105q0 -13 -11 -13h-293z" />
    <glyph glyph-name="M" unicode="M" horiz-adv-x="582" 
d="M39 0q-12 0 -12 12l9 630q0 13 11 13h144q12 0 13 -9l87 -307l86 307q3 9 14 9h144q11 0 11 -13l9 -630q0 -12 -12 -12h-123q-11 0 -11 13l-2 217q-1 61 2 105t7 80h-2q-9 -31 -19 -64t-21 -64l-71 -204q-3 -8 -10 -8h-5q-6 0 -9 8l-71 204q-12 32 -22 64.5t-18 63.5h-2
q4 -36 6.5 -80t2.5 -105l-2 -217q0 -13 -11 -13h-123z" />
    <glyph glyph-name="N" unicode="N" horiz-adv-x="481" 
d="M46 0q-12 0 -12 13v629q0 13 11 13h151q9 0 12 -9l72 -271l13.5 -54t14 -60t10.5 -52h2q-2 20 -4 49.5t-4 61.5t-2.5 62t-0.5 50v210q0 13 12 13h114q12 0 12 -13v-629q0 -13 -11 -13h-150q-9 0 -12 9l-75 269q-11 40 -20 83.5t-16 79.5h-2q3 -29 5.5 -71.5t4 -84.5
t1.5 -71v-201q0 -13 -11 -13h-115z" />
    <glyph glyph-name="O" unicode="O" horiz-adv-x="472" 
d="M236 -6q-103 0 -156.5 58.5t-53.5 172.5v204q0 115 53.5 173.5t156.5 58.5t156.5 -58.5t53.5 -173.5v-204q0 -114 -53.5 -172.5t-156.5 -58.5zM236 127q33 0 47.5 23t14.5 80v194q0 58 -14.5 81t-47.5 23t-47.5 -23t-14.5 -81v-194q0 -57 14.5 -80t47.5 -23z" />
    <glyph glyph-name="P" unicode="P" horiz-adv-x="421" 
d="M45 0q-11 0 -11 13v629q0 13 11 13h152q104 0 153.5 -54t49.5 -168q0 -106 -51.5 -162t-148.5 -56h-18v-202q0 -13 -11 -13h-126zM182 346h15q28 0 41.5 21.5t13.5 65.5q0 48 -12.5 69.5t-41.5 21.5h-16v-178z" />
    <glyph glyph-name="Q" unicode="Q" horiz-adv-x="472" 
d="M333 -183q-43 0 -71 23t-41.5 72t-12.5 126q0 7 3.5 10t7.5 3l97 2q11 0 11 -14q0 -47 4.5 -71t12 -32.5t18.5 -8.5q10 0 17 1.5t13 3.5q11 4 11 -11v-76q0 -12 -8 -17q-8 -4 -23.5 -7.5t-38.5 -3.5zM236 -6q-103 0 -156.5 58.5t-53.5 172.5v204q0 115 53.5 173.5
t156.5 58.5t156.5 -58.5t53.5 -173.5v-204q0 -114 -53.5 -172.5t-156.5 -58.5zM236 127q33 0 47.5 23t14.5 80v194q0 58 -14.5 81t-47.5 23t-47.5 -23t-14.5 -81v-194q0 -57 14.5 -80t47.5 -23z" />
    <glyph glyph-name="R" unicode="R" horiz-adv-x="452" 
d="M45 0q-11 0 -11 13v629q0 13 11 13h164q108 0 158 -47.5t50 -152.5q0 -71 -18.5 -115t-58.5 -65l-1 -1l104 -258q5 -16 -8 -16h-137q-11 0 -14 8l-82 239h-20v-234q0 -13 -11 -13h-126zM182 369h28q31 0 45 19.5t14 59.5q0 39 -14.5 57.5t-45.5 18.5h-27v-155z" />
    <glyph glyph-name="S" unicode="S" horiz-adv-x="408" 
d="M199 -6q-67 0 -108.5 23.5t-58.5 69t-11 108.5q1 14 11 14h123q10 0 9 -13q-2 -34 7 -55t30 -21q20 0 29.5 12t9.5 39q0 22 -9 40.5t-27 32.5l-87 67q-50 38 -74 79t-23 104q1 81 44 124t132 43q99 0 145 -50.5t38 -144.5q-1 -16 -12 -16h-124q-12 0 -11 16q3 27 -3.5 48
t-26.5 21q-17 0 -25.5 -10.5t-8.5 -33.5q0 -25 11 -41t28 -29l85 -65q37 -27 57.5 -52.5t30 -57t8.5 -76.5q-1 -86 -45.5 -131t-143.5 -45z" />
    <glyph glyph-name="T" unicode="T" horiz-adv-x="404" 
d="M139 0q-11 0 -11 13v511h-104q-11 0 -11 13v105q0 13 11 13h356q11 0 11 -13v-105q0 -13 -11 -13h-104v-511q0 -13 -11 -13h-126z" />
    <glyph glyph-name="U" unicode="U" horiz-adv-x="472" 
d="M236 -6q-102 0 -153 58.5t-51 176.5v413q0 13 11 13h126q11 0 11 -13v-409q0 -61 13.5 -83.5t42.5 -22.5q30 0 43.5 22.5t13.5 83.5v409q0 13 10 13h127q11 0 11 -13v-413q0 -118 -51.5 -176.5t-153.5 -58.5z" />
    <glyph glyph-name="V" unicode="V" horiz-adv-x="464" 
d="M149 0q-9 0 -12 11l-132 629q-2 15 10 15h137q11 0 13 -10l51 -363q6 -34 9.5 -69.5t7.5 -75.5h2q2 40 6 75.5t9 69.5l48 362q2 11 13 11h138q12 0 9 -14l-129 -631q-3 -10 -12 -10h-168z" />
    <glyph glyph-name="W" unicode="W" horiz-adv-x="645" 
d="M122 0q-10 0 -12 10l-105 630q-3 15 10 15h125q11 0 13 -10l29 -203q6 -49 9.5 -93t5.5 -90.5t3 -102.5h2q3 34 8 69.5t12 70.5l42 218l-23 108q-4 17 9 17h121q9 0 11 -10l48 -327q5 -37 9.5 -73t6.5 -73h2q1 57 3 103.5t5.5 92t9.5 97.5l27 195q2 11 12 11h125
q12 0 9 -15l-107 -629q-2 -11 -11 -11h-136q-12 0 -14 10l-28 190q-5 33 -9.5 65.5t-8.5 65.5h-2q-5 -33 -10 -65.5t-11 -65.5l-32 -190q-1 -5 -5 -7.5t-8 -2.5h-135z" />
    <glyph glyph-name="X" unicode="X" horiz-adv-x="446" 
d="M10 0q-15 0 -8 16l139 320l-131 303q-6 16 7 16h147q8 0 11 -8l27 -99q5 -24 11.5 -48t10.5 -48h2q5 24 11 48t11 48l24 99q1 8 10 8h148q13 0 6 -16l-130 -304l138 -319q7 -16 -8 -16h-147q-9 0 -12 8l-31 115q-5 25 -11 48.5t-12 46.5h-1q-5 -23 -11 -47l-12 -48
l-33 -115q-3 -8 -13 -8h-143z" />
    <glyph glyph-name="Y" unicode="Y" horiz-adv-x="446" 
d="M160 0q-11 0 -11 13v213l-146 413q-6 16 9 16h139q11 0 12 -9l37 -167q6 -29 12 -58.5t11 -58.5h2q5 29 10.5 58t11.5 58l38 168q1 9 11 9h138q14 0 8 -16l-145 -412v-214q0 -13 -10 -13h-127z" />
    <glyph glyph-name="Z" unicode="Z" horiz-adv-x="404" 
d="M17 0q-11 0 -11 13v5q0 9 3 16l147 377q11 29 25.5 59.5t24.5 53.5v2q-19 -1 -41.5 -1.5t-42.5 -0.5h-88q-11 0 -11 13v105q0 13 11 13h350q12 0 12 -13v-5q0 -4 -0.5 -8t-2.5 -8l-153 -384q-11 -28 -24 -56t-25 -50v-2q19 1 40.5 1.5t39.5 0.5h97q11 0 11 -13v-105
q0 -13 -11 -13h-351z" />
    <glyph glyph-name="bracketleft" unicode="[" horiz-adv-x="210" 
d="M38 -182q-14 0 -14 14v889q0 14 14 14h160q14 0 14 -14v-80q0 -14 -14 -14h-50v-701h50q14 0 14 -14v-80q0 -14 -14 -14h-160z" />
    <glyph glyph-name="backslash" unicode="\" horiz-adv-x="331" 
d="M209 0q-10 0 -13 10l-186 630q-4 15 9 15h103q11 0 13 -10l186 -630q5 -15 -8 -15h-104z" />
    <glyph glyph-name="bracketright" unicode="]" horiz-adv-x="210" 
d="M12 -182q-14 0 -14 14v80q0 14 14 14h51v701h-51q-14 0 -14 14v80q0 14 14 14h161q14 0 14 -14v-889q0 -14 -14 -14h-161z" />
    <glyph glyph-name="asciicircum" unicode="^" horiz-adv-x="390" 
d="M30 350q-13 0 -7 15l115 309q4 9 14 9h86q10 0 14 -9l115 -308q6 -16 -8 -16h-108q-12 0 -13 9l-42 189l-45 -189q-3 -9 -12 -9h-109z" />
    <glyph glyph-name="underscore" unicode="_" horiz-adv-x="378" 
d="M30 -164q-14 0 -14 14v83q0 14 14 14h318q14 0 14 -14v-83q0 -14 -14 -14h-318z" />
    <glyph glyph-name="grave" unicode="`" horiz-adv-x="252" 
d="M136 557q-12 0 -19 10l-84 126q-4 7 -2 11.5t7 4.5h99q10 0 16 -10l67 -128q3 -6 1 -10t-9 -4h-76z" />
    <glyph glyph-name="a" unicode="a" horiz-adv-x="380" 
d="M244 0q-11 0 -13 11q-2 15 -4 39.5t-2 43.5l-16 19v245q0 23 -5 31t-19 8q-16 0 -21.5 -12t-2.5 -39q2 -13 -12 -13h-103q-12 0 -13 14q-6 76 34.5 116t122.5 40q84 0 123 -35.5t39 -113.5v-224q0 -46 0.5 -72t2.5 -44q2 -14 -10 -14h-101zM111 -6q-45 0 -70 35.5
t-25 99.5q0 71 32.5 109t108.5 49l61 8l-1 -77l-25 -4q-22 -3 -31.5 -18.5t-9.5 -44.5q0 -25 6 -37.5t19 -12.5q12 0 24.5 11t27.5 35l12 -72q-35 -45 -63.5 -63t-65.5 -18z" />
    <glyph glyph-name="b" unicode="b" horiz-adv-x="394" 
d="M210 -6q-53 0 -96.5 7.5t-85.5 11.5v657q0 13 11 13h121q11 0 11 -13v-556q6 -1 12.5 -2.5t13.5 -1.5q14 0 21 10.5t7 32.5v199q0 14 -5 21t-15 7q-12 0 -23.5 -8t-20.5 -16l-6 87q38 33 65.5 46.5t54.5 13.5q49 0 71 -29t22 -93v-230q0 -81 -39 -119t-119 -38z" />
    <glyph glyph-name="c" unicode="c" horiz-adv-x="383" 
d="M198 -6q-86 0 -130 46t-44 136v152q0 86 44.5 130.5t128.5 44.5q54 0 92.5 -23.5t56 -65.5t12.5 -97q-2 -16 -13 -16h-104q-4 0 -8 4t-3 9q2 37 -5 51.5t-26 14.5q-17 0 -25 -12.5t-8 -41.5v-150q0 -32 7.5 -45t25.5 -13q17 0 24 15t6 51q0 14 12 14h105q12 0 12 -13
q2 -96 -37 -143.5t-123 -47.5z" />
    <glyph glyph-name="d" unicode="d" horiz-adv-x="394" 
d="M120 -6q-49 0 -71.5 30.5t-22.5 99.5v234q0 73 26.5 109t80.5 36q28 0 54.5 -6.5t48.5 -18.5v-101q-25 10 -41 10q-13 0 -19.5 -9t-6.5 -28v-204q0 -16 5 -22t16 -6t20.5 6t19.5 18l22 -61q-21 -37 -56.5 -62t-75.5 -25zM258 0q-11 0 -13 11q-3 16 -4.5 40.5t-1.5 42.5
l-16 25v551q0 13 12 13h120q11 0 11 -13v-540q0 -33 0.5 -63t2.5 -53q2 -14 -10 -14h-101z" />
    <glyph glyph-name="e" unicode="e" horiz-adv-x="394" 
d="M196 -6q-87 0 -129.5 42t-42.5 131v158q0 86 44.5 132t126.5 46q89 0 132 -45.5t43 -140.5v-88q0 -14 -13 -14h-192v-60q0 -29 7 -40.5t24 -11.5t24.5 10.5t6.5 34.5q0 12 11 12h112q12 0 12 -12q2 -79 -39 -116.5t-127 -37.5zM165 298h64v50q0 24 -7.5 35.5t-24.5 11.5
q-16 0 -24 -11.5t-8 -35.5v-50z" />
    <glyph glyph-name="f" unicode="f" horiz-adv-x="295" 
d="M78 0q-11 0 -11 13v361h-43q-13 0 -13 13v98q0 12 13 12h43v36q0 77 32.5 116.5t99.5 39.5q33 0 60.5 -3.5t39.5 -8.5q7 -3 7 -12v-88q0 -7 -3 -9.5t-8 -0.5q-10 3 -22.5 5.5t-26.5 2.5q-19 0 -27.5 -12t-8.5 -36v-30h56q13 0 13 -13v-97q0 -13 -13 -13h-56v-361
q0 -13 -12 -13h-120z" />
    <glyph glyph-name="g" unicode="g" horiz-adv-x="388" 
d="M185 -191q-95 0 -139 27t-44 84q0 40 18.5 68t57.5 47l97 -26q-16 -11 -24 -23.5t-8 -28.5q0 -19 12 -28.5t38 -9.5q32 -1 44.5 8.5t12.5 30.5t-9 29.5t-33 11.5l-91 8q-44 5 -67.5 30t-23.5 66q0 24 9 42.5t25.5 32.5t38.5 23l75 -34q-14 -4 -21 -11t-7 -16
q0 -8 6 -13.5t25 -7.5l84 -10q66 -7 95 -41.5t29 -108.5q0 -77 -47 -113.5t-153 -36.5zM194 155q-86 0 -122 42t-36 136q0 88 36 129t122 41q87 0 122.5 -41t35.5 -129q0 -94 -35.5 -136t-122.5 -42zM194 262q17 0 22 13t5 54t-5 54t-22 13q-16 0 -21.5 -13.5t-5.5 -53.5
q0 -41 5.5 -54t21.5 -13zM308 454l-90 35q0 35 1 67t4 57q2 11 10 11h86q13 0 10 -14q-9 -47 -14.5 -83t-6.5 -73z" />
    <glyph glyph-name="h" unicode="h" horiz-adv-x="398" 
d="M238 0q-11 0 -11 13v335q0 17 -5 24.5t-17 7.5q-10 0 -19.5 -6t-18.5 -16l-23 61q23 34 58 59t77 25q47 0 69 -31t22 -100v-359q0 -13 -11 -13h-121zM39 0q-11 0 -11 13v657q0 13 11 13h121q11 0 11 -13v-657q0 -13 -11 -13h-121z" />
    <glyph glyph-name="i" unicode="i" horiz-adv-x="199" 
d="M39 0q-11 0 -11 13v472q0 12 11 12h121q11 0 11 -12v-472q0 -13 -11 -13h-121zM100 554q-37 0 -59.5 18.5t-22.5 52.5v19q0 35 22.5 53t59.5 18q38 0 59.5 -18t21.5 -53v-19q0 -34 -21.5 -52.5t-59.5 -18.5z" />
    <glyph glyph-name="j" unicode="j" horiz-adv-x="196" 
d="M67 -188q-3 -2 -6 -1t-6 5l-70 80q-9 10 -1 17q26 26 34.5 62.5t8.5 104.5v405q0 12 11 12h121q11 0 11 -12v-405q0 -69 -8.5 -117t-30.5 -84t-64 -67zM101 554q-37 0 -59.5 18.5t-22.5 52.5v19q0 35 22.5 53t59.5 18q38 0 59.5 -18t21.5 -53v-19q0 -34 -21.5 -52.5
t-59.5 -18.5z" />
    <glyph glyph-name="k" unicode="k" horiz-adv-x="408" 
d="M39 0q-11 0 -11 13v657q0 13 11 13h120q12 0 12 -13v-208q0 -21 -1 -49.5t-2 -56.5t-4 -50h3q8 25 17.5 50.5t21.5 50.5l39 83q4 7 13 7h131q14 0 6 -14l-107 -204l114 -263q8 -16 -7 -16h-137q-10 0 -13 8l-58 157l-16 -32v-120q0 -13 -11 -13h-121z" />
    <glyph glyph-name="l" unicode="l" horiz-adv-x="199" 
d="M39 0q-11 0 -11 13v657q0 13 11 13h121q11 0 11 -13v-657q0 -13 -11 -13h-121z" />
    <glyph glyph-name="m" unicode="m" horiz-adv-x="588" 
d="M39 0q-11 0 -11 13v355q0 33 -0.5 62.5t-2.5 52.5q-1 14 10 14h103q10 0 11 -10t2 -25t2 -29q26 30 54 50t68 20q32 0 52 -13.5t29 -45.5q23 25 50.5 42t61.5 17q48 0 70 -31t22 -99v-360q0 -13 -11 -13h-121q-11 0 -11 13v340q0 15 -4 21t-14 6q-8 0 -17 -4.5t-16 -13.5
v-349q0 -13 -12 -13h-120q-11 0 -11 13v340q0 15 -4.5 21t-14.5 6q-8 0 -16.5 -4.5t-16.5 -13.5v-349q0 -13 -12 -13h-120z" />
    <glyph glyph-name="n" unicode="n" horiz-adv-x="398" 
d="M239 0q-12 0 -12 13v335q0 17 -5 24.5t-17 7.5q-10 0 -19.5 -6t-18.5 -16l-23 61q23 34 58 59t77 25q47 0 69 -31t22 -100v-359q0 -13 -12 -13h-119zM40 0q-12 0 -12 13v355q0 33 -0.5 62.5t-2.5 52.5q-1 14 10 14h102q10 0 12 -11q2 -15 4 -39.5t2 -43.5l16 -33v-357
q0 -13 -12 -13h-119z" />
    <glyph glyph-name="o" unicode="o" horiz-adv-x="394" 
d="M197 -6q-82 0 -127.5 45t-45.5 130v161q0 83 45.5 128t127.5 45q83 0 128 -45t45 -128v-161q0 -85 -45 -130t-128 -45zM197 118q16 0 23.5 12t7.5 40v158q0 29 -7.5 40.5t-23.5 11.5t-23.5 -11.5t-7.5 -40.5v-158q0 -28 7.5 -40t23.5 -12z" />
    <glyph glyph-name="p" unicode="p" horiz-adv-x="393" 
d="M258 -6q-24 0 -52 7t-51 18v105q11 -5 22 -9.5t21 -4.5q14 0 20 9.5t6 34.5v194q0 17 -3.5 24.5t-16.5 7.5q-10 0 -20.5 -7.5t-18.5 -16.5l-24 67q30 33 62 56.5t76 23.5q46 0 67 -31t21 -101v-221q0 -81 -26 -118.5t-83 -37.5zM39 -185q-11 0 -11 13v541q0 33 -0.5 62
t-2.5 52q-1 14 10 14h102q11 0 12 -10q2 -14 3.5 -36.5t2.5 -42.5l16 -37v-543q0 -13 -12 -13h-120z" />
    <glyph glyph-name="q" unicode="q" horiz-adv-x="394" 
d="M235 -185q-12 0 -12 13v555q-8 2 -14.5 3t-12.5 1q-14 0 -20.5 -10t-6.5 -30v-202q0 -14 4.5 -20.5t16.5 -6.5t23.5 8t18.5 25l4 -101q-24 -25 -54.5 -40.5t-62.5 -15.5q-49 0 -71 30t-22 94v230q0 79 37.5 117t116.5 38q55 0 99.5 -8t86.5 -10v-657q0 -13 -12 -13h-119z
" />
    <glyph glyph-name="r" unicode="r" horiz-adv-x="300" 
d="M39 0q-11 0 -11 13v355q0 33 -0.5 62.5t-2.5 52.5q-1 14 10 14h103q10 0 11 -10q2 -16 4 -40.5t2 -43.5l16 -33v-357q0 -13 -12 -13h-120zM161 310l-12 121q13 16 29.5 32.5t36 28t40.5 11.5q13 0 21 -2q6 -2 7.5 -6t1.5 -10q0 -26 -1 -56.5t-3 -58.5q-1 -12 -10 -11
q-5 1 -11.5 1.5t-13.5 0.5q-22 0 -44.5 -14.5t-40.5 -36.5z" />
    <glyph glyph-name="s" unicode="s" horiz-adv-x="362" 
d="M174 -6q-87 0 -123.5 39t-27.5 117q1 13 12 13h106q12 0 11 -13q-2 -29 3 -42t19 -13q25 0 25 36q0 21 -8.5 33.5t-28.5 27.5l-76 55q-30 22 -47.5 51.5t-17.5 70.5q0 66 38.5 100t118.5 34q84 0 122 -36t36 -107q0 -13 -12 -13h-104q-7 0 -10 4t-2 11q2 20 -3.5 30
t-18.5 10q-23 0 -23 -27q0 -17 7 -28t25 -23l71 -52q38 -26 57 -57t19 -78q0 -71 -41 -107t-127 -36z" />
    <glyph glyph-name="t" unicode="t" horiz-adv-x="320" 
d="M211 -6q-78 0 -111 40t-33 136v204h-44q-12 0 -12 13v98q0 12 12 12h49l14 118q1 12 11 12h102q11 0 11 -12v-118h84q12 0 12 -12v-98q0 -13 -12 -13h-84v-194q0 -33 8.5 -47.5t30.5 -14.5q12 0 21.5 2t23.5 8q13 5 13 -10v-96q0 -12 -10 -15q-15 -6 -37.5 -9.5
t-48.5 -3.5z" />
    <glyph glyph-name="u" unicode="u" horiz-adv-x="395" 
d="M122 -6q-50 0 -72 31.5t-22 100.5v358q0 13 12 13h119q12 0 12 -13v-330q0 -21 4.5 -28.5t15.5 -7.5q10 0 20.5 6.5t19.5 17.5l23 -61q-24 -39 -59.5 -63t-72.5 -24zM259 0q-11 0 -13 11q-2 16 -4 40.5t-2 42.5l-16 34v356q0 13 13 13h118q12 0 12 -13v-354
q0 -33 0.5 -63t2.5 -53q2 -14 -10 -14h-101z" />
    <glyph glyph-name="v" unicode="v" horiz-adv-x="395" 
d="M124 0q-10 0 -13 10l-100 473q-3 14 9 14h131q10 0 12 -10l23 -223q3 -31 5.5 -57.5t4.5 -57.5h2q2 31 4.5 58t6.5 58l24 222q2 10 12 10h130q12 0 9 -14l-101 -473q-3 -10 -12 -10h-147z" />
    <glyph glyph-name="w" unicode="w" horiz-adv-x="562" 
d="M114 0q-11 0 -14 10l-87 473q-3 14 9 14h127q11 0 12 -11l20 -200q2 -34 4.5 -67.5t4.5 -67.5h2q5 34 8.5 67t7.5 66l12 91l-12 97q-1 15 10 15h108q11 0 12 -11l19 -193l6 -66l6 -66h2q2 33 5 66.5t6 66.5l18 202q2 11 12 11h128q12 0 9 -14l-87 -473q-3 -10 -14 -10
h-131q-11 0 -13 10l-10 77q-3 28 -6 59.5t-6 79.5h-4q-3 -48 -6 -80t-6 -60l-9 -75q-1 -11 -12 -11h-131z" />
    <glyph glyph-name="x" unicode="x" horiz-adv-x="409" 
d="M20 0q-6 0 -9 4.5t1 11.5l105 239l-99 228q-2 7 0 10.5t8 3.5h135q11 0 12 -8l16 -67q4 -17 7.5 -38.5t7.5 -61.5h2q4 40 7.5 61.5t6.5 38.5l13 66q2 9 13 9h135q7 0 9 -3.5t-1 -10.5l-98 -227l106 -240q4 -7 1.5 -11.5t-9.5 -4.5h-136q-11 0 -13 8l-17 74q-5 18 -9 40.5
t-8 59.5h-2q-5 -37 -8.5 -59.5t-8.5 -40.5l-19 -74q-1 -8 -13 -8h-135z" />
    <glyph glyph-name="y" unicode="y" horiz-adv-x="391" 
d="M98 -185q-12 0 -9 15l38 169l-116 484q-3 14 9 14h130q12 0 13 -11l19 -163q3 -29 6.5 -68.5t5.5 -71.5h4q2 32 4.5 71.5t6.5 68.5l21 164q1 10 12 10h129q6 0 8.5 -3t0.5 -11l-154 -658q-2 -10 -13 -10h-115z" />
    <glyph glyph-name="z" unicode="z" horiz-adv-x="364" 
d="M26 0q-11 0 -11 10v4q0 11 4 19l106 253q9 22 19 44l20 44v2q-18 -1 -28.5 -1.5t-20.5 -0.5h-70q-12 0 -12 13v98q0 12 12 12h292q12 0 12 -9v-4q0 -11 -8 -29l-103 -243q-9 -22 -18.5 -43.5t-21.5 -44.5v-2q18 2 28 2h24h71q12 0 12 -13v-98q0 -13 -12 -13h-295z" />
    <glyph glyph-name="braceleft" unicode="{" horiz-adv-x="243" 
d="M228 -182q-59 0 -97.5 16.5t-56.5 57.5t-18 115v170q0 23 -5 33t-19 10h-11q-14 0 -14 14v87q0 14 14 14h11q14 0 19 10.5t5 32.5v170q0 74 18 115t56.5 57.5t97.5 16.5q14 0 14 -14v-80q0 -14 -14 -14q-20 0 -30 -6.5t-14 -21.5t-4 -41v-155q0 -47 -13 -82.5t-48 -45.5
q35 -10 48 -45t13 -82v-155q0 -25 4 -40.5t14.5 -22t29.5 -6.5q14 0 14 -14v-80q0 -14 -14 -14z" />
    <glyph glyph-name="bar" unicode="|" horiz-adv-x="209" 
d="M56 -185q-13 0 -13 14v987q0 14 13 14h97q14 0 14 -14v-987q0 -14 -14 -14h-97z" />
    <glyph glyph-name="braceright" unicode="}" horiz-adv-x="243" 
d="M15 -182q-14 0 -14 14v80q0 14 14 14q20 0 30.5 6.5t14.5 22t4 40.5v155q0 47 13 82t47 45q-34 10 -47 45.5t-13 82.5v155q0 26 -4 41t-14.5 21.5t-30.5 6.5q-14 0 -14 14v80q0 14 14 14q60 0 98 -16.5t56.5 -57.5t18.5 -115v-170q0 -22 5 -32.5t19 -10.5h11q13 0 13 -14
v-87q0 -14 -13 -14h-11q-14 0 -19 -10t-5 -33v-170q0 -74 -18.5 -115t-56.5 -57.5t-98 -16.5z" />
    <glyph glyph-name="asciitilde" unicode="~" horiz-adv-x="420" 
d="M271 226q-28 0 -45.5 8t-34.5 16t-44 8q-28 0 -51 -8.5t-34 -14.5q-8 -3 -8 8v92q0 9 6 12q9 6 32 16t56 10q29 0 47 -7.5t35 -15.5t43 -8q27 0 50 9t35 13q8 3 8 -7v-93q0 -9 -5 -12q-9 -7 -31 -16.5t-59 -9.5z" />
    <glyph glyph-name="uni00A0" unicode="&#xa0;" horiz-adv-x="126" 
 />
    <glyph glyph-name="exclamdown" unicode="&#xa1;" horiz-adv-x="234" 
d="M63 272h124q12 0 12 -13l11 -403q0 -14 -11 -14h-147q-11 0 -11 13l11 404q0 13 11 13zM125 503q40 0 62 -17.5t22 -55.5v-24q0 -38 -22 -56t-62 -18q-39 0 -61.5 18t-22.5 56v24q0 38 22.5 55.5t61.5 17.5z" />
    <glyph glyph-name="cent" unicode="&#xa2;" horiz-adv-x="453" 
d="M164 539v84q0 10 10 10h104q10 0 10 -10v-86zM174 -37q-10 0 -10 10v84l124 2v-86q0 -10 -10 -10h-104zM232 44q-86 0 -129.5 46t-43.5 136v152q0 86 44 130.5t128 44.5q55 0 93 -23.5t56 -65.5t12 -97q-1 -16 -12 -16h-104q-5 0 -8.5 4t-3.5 9q2 37 -4.5 51.5
t-25.5 14.5q-18 0 -25.5 -12.5t-7.5 -41.5v-150q0 -32 7 -45t25 -13t25 15t6 51q0 14 11 14h105q12 0 12 -13q3 -96 -36.5 -143.5t-123.5 -47.5z" />
    <glyph glyph-name="sterling" unicode="&#xa3;" horiz-adv-x="453" 
d="M66 0q-14 0 -14 14v77q0 10 5 19q11 22 18 49.5t7 59.5v269q0 83 40.5 128t121.5 45q62 0 100 -20.5t54.5 -62t12.5 -104.5q0 -13 -13 -13h-102q-14 0 -13 13q2 22 0 37t-9 22.5t-19 7.5q-15 0 -23.5 -11t-8.5 -45v-252q0 -38 -5 -64t-18 -45h197q13 0 13 -14v-96
q0 -14 -13 -14h-331zM52 269q-14 0 -14 14v85q0 14 14 14h252q14 0 14 -14v-85q0 -14 -14 -14h-252z" />
    <glyph glyph-name="currency" unicode="&#xa4;" horiz-adv-x="453" 
d="M114 96q-6 -6 -13 1l-59 70q-5 7 1 13l51 52q-5 17 -8 37.5t-3 44.5t3 44.5t8 37.5l-51 52q-6 6 -1 13l59 70q7 8 13 1l47 -45q28 17 65 17t65 -17l47 45q7 7 14 -1l59 -70q5 -7 -1 -13l-51 -52q5 -17 8 -37.5t3 -44.5t-3 -44.5t-8 -37.5l51 -52q6 -6 1 -13l-59 -70
q-6 -7 -14 -1l-47 45q-28 -17 -65 -17t-65 17zM226 234q21 0 27.5 18t6.5 62t-6.5 62t-27.5 18q-19 0 -26 -18t-7 -62t7 -62t26 -18z" />
    <glyph glyph-name="yen" unicode="&#xa5;" horiz-adv-x="453" 
d="M165 0q-13 0 -13 14v212l-135 413q-4 16 9 16h139q11 0 12 -9l30 -163q6 -30 10 -60t9 -61h1q5 31 9.5 61.5t10.5 60.5l31 162q1 9 11 9h138q13 0 8 -16l-135 -412v-213q0 -14 -14 -14h-121zM81 89q-14 0 -14 14v59q0 13 14 13h293q13 0 13 -13v-59q0 -14 -13 -14h-293z
M81 227q-14 0 -14 14v58q0 14 14 14h293q13 0 13 -14v-58q0 -14 -13 -14h-293z" />
    <glyph glyph-name="brokenbar" unicode="&#xa6;" horiz-adv-x="209" 
d="M56 392q-13 0 -13 14v410q0 14 13 14h97q14 0 14 -14v-410q0 -14 -14 -14h-97zM56 -185q-13 0 -13 14v410q0 14 13 14h97q14 0 14 -14v-410q0 -14 -14 -14h-97z" />
    <glyph glyph-name="section" unicode="&#xa7;" horiz-adv-x="366" 
d="M196 119l-5 86q12 7 19 20.5t7 32.5q0 26 -11 42.5t-27 34.5l-95 102q-18 20 -33.5 46t-15.5 75q0 64 39 97t112 33q80 0 117 -34.5t37 -109.5q0 -13 -13 -13h-98q-12 0 -11 11q2 45 -24 45q-23 0 -23 -28q0 -14 5.5 -25t21.5 -28l107 -118q23 -27 34 -57.5t11 -72.5
q0 -64 -39 -99.5t-115 -39.5zM180 -118q-80 0 -116.5 34.5t-36.5 109.5q0 13 12 13h98q13 0 11 -11q-3 -44 24 -44q24 0 24 27q0 14 -6 25t-22 29l-106 118q-24 26 -35 56.5t-11 72.5q0 65 39 100t115 39l5 -86q-11 -7 -18.5 -20.5t-7.5 -32.5q0 -26 11 -42.5t27 -34.5
l95 -102q19 -20 34 -46t15 -75q0 -63 -39 -96.5t-112 -33.5z" />
    <glyph glyph-name="dieresis" unicode="&#xa8;" horiz-adv-x="364" 
d="M100 560q-31 0 -50.5 17t-19.5 46v18q0 31 19.5 47t50.5 16q32 0 50.5 -16t18.5 -47v-18q0 -29 -18.5 -46t-50.5 -17zM265 560q-30 0 -49.5 17t-19.5 46v18q0 31 19.5 47t49.5 16q33 0 51 -16t18 -47v-18q0 -29 -18 -46t-51 -17z" />
    <glyph glyph-name="copyright" unicode="&#xa9;" horiz-adv-x="476" 
d="M238 -6q-78 0 -125.5 27t-68.5 79t-21 124v156q0 73 21 124.5t68.5 78.5t125.5 27q79 0 126 -27t67.5 -78.5t20.5 -124.5v-156q0 -72 -20.5 -124t-67.5 -79t-126 -27zM238 63q75 0 109 39.5t34 123.5v152q0 85 -34 124t-109 39t-109 -39t-34 -124v-152q0 -84 34 -123.5
t109 -39.5zM239 132q-46 0 -70.5 27.5t-24.5 82.5v115q0 55 24.5 83t70.5 28q53 0 73.5 -33.5t20.5 -92.5q0 -6 -2 -7.5t-6 -1.5h-52q-9 0 -8 9q3 29 -2.5 43.5t-22.5 14.5q-27 0 -27 -40v-121q0 -40 27 -40q17 0 21 14.5t4 44.5q0 9 8 9h52q4 0 6 -1.5t2 -8.5
q0 -60 -20.5 -92.5t-73.5 -32.5z" />
    <glyph glyph-name="ordfeminine" unicode="&#xaa;" horiz-adv-x="288" 
d="M91 305q-27 0 -46 23.5t-19 71.5q0 55 26.5 78t67.5 31l43 8v43q0 11 -3.5 17t-14.5 6q-20 0 -17 -29q0 -9 -7 -9h-75q-9 0 -9 12q-1 50 26.5 77t82.5 27q44 0 68 -14t33 -37t9 -50v-156q0 -23 1 -44.5t2 -39.5q0 -7 -7 -7h-72q-6 0 -8 7l-2.5 12.5t-3.5 14.5
q-11 -15 -29 -28.5t-46 -13.5zM45 162q-11 0 -11 13v76q0 13 11 13h205q12 0 12 -13v-76q0 -13 -12 -13h-205zM137 382q6 0 12.5 3.5t13.5 9.5v67l-15 -2q-13 -3 -20.5 -13.5t-7.5 -28.5q0 -19 3.5 -27.5t13.5 -8.5z" />
    <glyph glyph-name="guillemotleft" unicode="&#xab;" horiz-adv-x="444" 
d="M299 86q-8 0 -13 8l-78 161q-4 9 0 18l78 160q4 10 13 10h112q6 0 9 -4.5t-1 -11.5l-76 -163l75 -163q8 -15 -7 -15h-112zM116 86q-8 0 -13 8l-78 161q-4 9 0 18l78 160q4 10 13 10h111q7 0 9.5 -4.5t-0.5 -11.5l-77 -163l76 -163q7 -15 -8 -15h-111z" />
    <glyph glyph-name="logicalnot" unicode="&#xac;" horiz-adv-x="420" 
d="M264 133q-14 0 -14 14v96h-181q-14 0 -14 14v86q0 14 14 14h283q14 0 14 -14v-196q0 -14 -14 -14h-88z" />
    <glyph glyph-name="uni00AD" unicode="&#xad;" horiz-adv-x="343" 
d="M45 211q-14 0 -14 14v83q0 14 14 14h253q14 0 14 -14v-83q0 -14 -14 -14h-253z" />
    <glyph glyph-name="registered" unicode="&#xae;" horiz-adv-x="372" 
d="M186 299q-73 0 -116 45t-43 136v39q0 92 43 136.5t116 44.5t116 -46.5t43 -134.5v-39q0 -87 -43 -134t-116 -47zM186 357q48 0 73 26.5t25 96.5v40q0 70 -25 96t-73 26q-31 0 -53 -10t-34 -36.5t-12 -75.5v-40q0 -49 12 -75.5t34 -37t53 -10.5zM137 397q-4 0 -4 6v198
q0 6 5 6h42q30 0 46 -15.5t16 -49.5q0 -21 -5 -35t-15 -22l23 -81q1 -7 -4 -7h-36q-4 0 -5 4l-18 72h-6v-70q0 -6 -4 -6h-35zM176 510h7q16 0 16 23v12q0 12 -4 18t-12 6h-7v-59z" />
    <glyph glyph-name="macron" unicode="&#xaf;" horiz-adv-x="254" 
d="M43 570q-13 0 -13 13v76q0 13 13 13h168q13 0 13 -13v-76q0 -13 -13 -13h-168z" />
    <glyph glyph-name="degree" unicode="&#xb0;" horiz-adv-x="287" 
d="M144 380q-64 0 -93.5 32.5t-29.5 93.5v57q0 61 29.5 93.5t93.5 32.5q63 0 92.5 -32.5t29.5 -93.5v-57q0 -61 -29.5 -93.5t-92.5 -32.5zM144 476q12 0 17 8t5 26v49q0 18 -5 26t-17 8q-13 0 -18 -8t-5 -26v-49q0 -18 5 -26t18 -8z" />
    <glyph glyph-name="plusminus" unicode="&#xb1;" horiz-adv-x="420" 
d="M167 190q-14 0 -14 14v81h-82q-14 0 -14 14v87q0 14 14 14h82v82q0 14 14 14h87q14 0 14 -14v-82h81q14 0 14 -14v-87q0 -14 -14 -14h-81v-81q0 -14 -14 -14h-87zM72 23q-14 0 -14 14v87q0 14 14 14h276q14 0 14 -14v-87q0 -14 -14 -14h-276z" />
    <glyph glyph-name="uni00B2" unicode="&#xb2;" horiz-adv-x="366" 
d="M62 343q-14 0 -14 14v67q0 41 15.5 68.5t38 46t45 34t38 33.5t15.5 43v6q0 12 -4 17t-12 5q-10 0 -14 -7t-3 -25q0 -14 -14 -14h-78q-13 0 -14 14q-4 65 31 97.5t93 32.5q62 0 97.5 -27.5t35.5 -91.5q0 -40 -13.5 -67.5t-33 -47t-39.5 -34.5t-33.5 -30t-13.5 -33h113
q5 0 9.5 -4t4.5 -10v-73q0 -14 -14 -14h-236z" />
    <glyph glyph-name="uni00B3" unicode="&#xb3;" horiz-adv-x="366" 
d="M177 337q-56 1 -85 18t-38 46.5t-5 69.5q1 14 14 14h78q14 0 14 -14q0 -18 5.5 -25.5t17.5 -7.5t17 9t5 28v8q0 17 -6.5 24.5t-20.5 7.5h-8q-14 0 -14 14v59q0 14 14 14h5q15 0 20 9.5t5 26.5v8q0 16 -5.5 22.5t-15.5 6.5q-13 0 -17 -9t-3 -21q2 -14 -13 -14h-77
q-12 0 -14 14q-4 60 26.5 95t102.5 35q69 0 101.5 -29t32.5 -84q0 -37 -13 -60.5t-32 -37.5v-2q23 -10 36.5 -34t13.5 -59q0 -65 -36 -98.5t-105 -33.5z" />
    <glyph glyph-name="acute" unicode="&#xb4;" horiz-adv-x="252" 
d="M40 557q-7 0 -9 4t1 10l67 128q5 10 16 10h98q6 0 8.5 -4.5t-2.5 -11.5l-84 -126q-7 -10 -19 -10h-76z" />
    <glyph glyph-name="uni00B5" unicode="&#xb5;" horiz-adv-x="393" 
d="M40 -185q-12 0 -12 13v656q0 13 12 13h119q12 0 12 -13v-327q0 -21 5.5 -30t17.5 -9q8 0 15.5 4t14.5 11v351q0 13 13 13h118q12 0 12 -13v-354q0 -10 2.5 -14.5t9.5 -4.5q3 0 6 0.5t6 1.5q6 2 6 -6v-91q0 -12 -11 -15q-17 -3 -33.5 -5t-32.5 -2q-28 0 -48 10.5t-30 31.5
v2q-10 -19 -21.5 -29t-25.5 -10q-8 0 -14.5 3t-9.5 7v-181q0 -13 -12 -13h-119z" />
    <glyph glyph-name="paragraph" unicode="&#xb6;" horiz-adv-x="430" 
d="M121 -185q-14 0 -14 14v468h-7q-47 0 -69.5 32.5t-22.5 99.5v122q0 67 22.5 99.5t69.5 32.5h295q11 0 11 -13v-841q0 -14 -14 -14h-95q-14 0 -14 14v728h-53v-728q0 -14 -14 -14h-95z" />
    <glyph glyph-name="periodcentered" unicode="&#xb7;" horiz-adv-x="257" 
d="M132 177q-42 0 -67.5 21t-25.5 58v23q0 39 25.5 59t67.5 20q44 0 67.5 -20t23.5 -59v-23q0 -37 -23.5 -58t-67.5 -21z" />
    <glyph glyph-name="cedilla" unicode="&#xb8;" horiz-adv-x="220" 
d="M95 -191q-16 0 -30.5 1.5t-25.5 3.5q-9 3 -9 10v55q0 11 8 9q4 -1 9.5 -1.5t12.5 -0.5q14 0 21.5 6t7.5 15v7q0 12 -8.5 16t-20.5 4h-9q-6 0 -6 6q0 5 -0.5 11.5t0.5 10.5l26 81q3 10 12 10h60q14 0 9 -14l-24 -64h8q26 0 40 -17.5t14 -44.5v-19q0 -39 -22 -62t-73 -23z
" />
    <glyph glyph-name="uni00B9" unicode="&#xb9;" horiz-adv-x="366" 
d="M66 343q-14 0 -14 14v73q0 14 14 14h59l1 204l-60 -21q-11 -3 -11 9v75q0 12 8 15l127 42q4 2 9 2.5t9 0.5h21q14 0 14 -14v-313h57q14 0 14 -14v-73q0 -14 -14 -14h-234z" />
    <glyph glyph-name="ordmasculine" unicode="&#xba;" horiz-adv-x="278" 
d="M138 304q-54 0 -83 32t-29 90v113q0 59 29 90.5t83 31.5t83 -31.5t29 -90.5v-113q0 -58 -29 -90t-83 -32zM45 162q-12 0 -12 13v76q0 13 12 13h187q11 0 11 -13v-76q0 -13 -11 -13h-187zM138 394q10 0 14 6.5t4 20.5v123q0 15 -4 21.5t-14 6.5t-14 -6.5t-4 -21.5v-123
q0 -14 4 -20.5t14 -6.5z" />
    <glyph glyph-name="guillemotright" unicode="&#xbb;" horiz-adv-x="444" 
d="M216 86q-15 0 -7 15l76 163l-77 163q-4 7 -1 11.5t9 4.5h112q9 0 13 -10l78 -160q4 -9 0 -18l-78 -161q-4 -8 -13 -8h-112zM33 86q-15 0 -7 15l75 163l-76 163q-4 7 -1 11.5t9 4.5h112q8 0 12 -10l79 -160q4 -9 0 -18l-79 -161q-3 -8 -12 -8h-112z" />
    <glyph glyph-name="onequarter" unicode="&#xbc;" horiz-adv-x="911" 
d="M66 231q-14 0 -14 14v73q0 14 14 14h59l1 204l-60 -21q-11 -3 -11 9v75q0 12 8 15l127 42q4 2 9 2.5t9 0.5h21q14 0 14 -14v-313h57q14 0 14 -14v-73q0 -14 -14 -14h-234zM293 -36q-10 0 -6 12l130 366l122 342q2 7 9 7h112q10 0 6 -11l-134 -360l-118 -349q-1 -7 -8 -7
h-113zM770 0q-14 0 -14 14v51h-174q-13 0 -13 14v9q0 6 1 11t3 9l113 302q5 14 17 14h82q7 0 10 -4.5t0 -12.5l-85 -248h46l14 117q2 14 14 14h67q14 0 14 -14v-116h10q13 0 13 -13v-68q0 -14 -13 -14h-10v-51q0 -14 -14 -14h-81z" />
    <glyph glyph-name="onehalf" unicode="&#xbd;" horiz-adv-x="934" 
d="M66 231q-14 0 -14 14v73q0 14 14 14h59l1 204l-60 -21q-11 -3 -11 9v75q0 12 8 15l127 42q4 2 9 2.5t9 0.5h21q14 0 14 -14v-313h57q14 0 14 -14v-73q0 -14 -14 -14h-234zM293 -36q-10 0 -6 12l130 366l122 342q2 7 9 7h112q10 0 6 -11l-134 -360l-118 -349q-1 -7 -8 -7
h-113zM630 0q-14 0 -14 14v67q0 41 15.5 68.5t38 46t45 34t38 33.5t15.5 43v6q0 12 -4 17t-12 5q-10 0 -14 -7t-3 -25q0 -14 -14 -14h-78q-13 0 -14 14q-4 65 31 97.5t93 32.5q62 0 97.5 -27.5t35.5 -91.5q0 -40 -13.5 -67.5t-33 -47t-39.5 -34.5t-33.5 -30t-13.5 -33h113
q5 0 9.5 -4t4.5 -10v-73q0 -14 -14 -14h-236z" />
    <glyph glyph-name="threequarters" unicode="&#xbe;" horiz-adv-x="899" 
d="M177 225q-56 1 -85 18t-38 46.5t-5 69.5q1 14 14 14h78q14 0 14 -14q0 -18 5.5 -25.5t17.5 -7.5t17 9t5 28v8q0 17 -6.5 24.5t-20.5 7.5h-8q-14 0 -14 14v59q0 14 14 14h5q15 0 20 9.5t5 26.5v8q0 16 -5.5 22.5t-15.5 6.5q-13 0 -17 -9t-3 -21q2 -14 -13 -14h-77
q-12 0 -14 14q-4 60 26.5 95t102.5 35q69 0 101.5 -29t32.5 -84q0 -37 -13 -60.5t-32 -37.5v-2q23 -10 36.5 -34t13.5 -59q0 -65 -36 -98.5t-105 -33.5zM280 -36q-10 0 -6 12l130 366l122 342q2 7 9 7h112q10 0 6 -11l-134 -360l-118 -349q-1 -7 -8 -7h-113zM758 0
q-14 0 -14 14v51h-174q-13 0 -13 14v9q0 6 1 11t3 9l113 302q5 14 17 14h82q7 0 10 -4.5t0 -12.5l-85 -248h46l14 117q2 14 14 14h67q14 0 14 -14v-116h10q13 0 13 -13v-68q0 -14 -13 -14h-10v-51q0 -14 -14 -14h-81z" />
    <glyph glyph-name="questiondown" unicode="&#xbf;" horiz-adv-x="380" 
d="M277 269q9 0 9 -13v-39q0 -34 -11 -59t-27 -45t-32 -38t-26.5 -39t-10.5 -47q0 -21 5 -29.5t21 -8.5q21 0 26.5 19.5t2.5 55.5q-1 15 11 15h106q7 0 9.5 -4.5t3.5 -13.5q7 -92 -32.5 -141t-129.5 -49q-87 0 -127.5 38t-40.5 106q0 45 10.5 76t26.5 54t31.5 42t26 38.5
t10.5 44.5v24q0 13 10 13h128zM208 500q40 0 62 -18t22 -55v-24q0 -38 -22 -56t-62 -18t-61.5 18t-21.5 56v24q0 37 21.5 55t61.5 18z" />
    <glyph glyph-name="Agrave" unicode="&#xc0;" horiz-adv-x="463" 
d="M11 0q-12 0 -9 14l137 631q2 10 13 10h160q11 0 13 -10l136 -630q4 -15 -8 -15h-140q-10 0 -12 10l-51 371q-5 34 -9 68l-8 68h-2l-8 -68t-9 -68l-54 -370q-1 -11 -13 -11h-136zM155 125l19 117h111l22 -117h-152zM222 708q-12 0 -19 10l-73 111q-4 7 -2 11t7 4h98
q6 0 9.5 -2.5t6.5 -6.5l58 -113q3 -5 1 -9.5t-9 -4.5h-77z" />
    <glyph glyph-name="Aacute" unicode="&#xc1;" horiz-adv-x="463" 
d="M11 0q-12 0 -9 14l137 631q2 10 13 10h160q11 0 13 -10l136 -630q4 -15 -8 -15h-140q-10 0 -12 10l-51 371q-5 34 -9 68l-8 68h-2l-8 -68t-9 -68l-54 -370q-1 -11 -13 -11h-136zM155 125l19 117h111l22 -117h-152zM156 708q-7 0 -9 4.5t1 9.5l58 113q6 9 16 9h97
q6 0 8.5 -4t-2.5 -11l-73 -111q-7 -10 -19 -10h-77z" />
    <glyph glyph-name="Acircumflex" unicode="&#xc2;" horiz-adv-x="463" 
d="M11 0q-12 0 -9 14l137 631q2 10 13 10h160q11 0 13 -10l136 -630q4 -15 -8 -15h-140q-10 0 -12 10l-51 371q-5 34 -9 68l-8 68h-2l-8 -68t-9 -68l-54 -370q-1 -11 -13 -11h-136zM155 125l19 117h111l22 -117h-152zM136 711q-13 -5 -13 5v71q0 11 6 14l96 47q7 4 15 0
l95 -47q7 -3 7 -14v-71q0 -10 -13 -5l-97 36z" />
    <glyph glyph-name="Atilde" unicode="&#xc3;" horiz-adv-x="463" 
d="M11 0q-12 0 -9 14l137 631q2 10 13 10h160q11 0 13 -10l136 -630q4 -15 -8 -15h-140q-10 0 -12 10l-51 371q-5 34 -9 68l-8 68h-2l-8 -68t-9 -68l-54 -370q-1 -11 -13 -11h-136zM155 125l19 117h111l22 -117h-152zM270 717q-28 0 -46 10.5t-40 10.5q-13 0 -23.5 -3
t-21.5 -10q-14 -7 -14 8v64q0 11 6 16q11 10 27 16t35 6q27 0 45 -10.5t39 -10.5q14 0 25.5 3.5t22.5 10.5q14 7 14 -9v-64q0 -10 -7 -16q-11 -9 -25.5 -15.5t-36.5 -6.5z" />
    <glyph glyph-name="Adieresis" unicode="&#xc4;" horiz-adv-x="463" 
d="M11 0q-12 0 -9 14l137 631q2 10 13 10h160q11 0 13 -10l136 -630q4 -15 -8 -15h-140q-10 0 -12 10l-51 371q-5 34 -9 68l-8 68h-2l-8 -68t-9 -68l-54 -370q-1 -11 -13 -11h-136zM155 125l19 117h111l22 -117h-152zM150 712q-31 0 -50.5 17t-19.5 46v18q0 30 19.5 46.5
t50.5 16.5q32 0 50.5 -16.5t18.5 -46.5v-18q0 -29 -18.5 -46t-50.5 -17zM315 712q-30 0 -49.5 17t-19.5 46v18q0 30 19.5 46.5t49.5 16.5q33 0 51 -16.5t18 -46.5v-18q0 -29 -18 -46t-51 -17z" />
    <glyph glyph-name="Aring" unicode="&#xc5;" horiz-adv-x="463" 
d="M461 15q4 -15 -8 -15h-140q-10 0 -12 10l-16 115h-109l-16 -114q-1 -11 -13 -11h-136q-12 0 -9 14l135 613q-13 23 -13 52q0 50 31 77t77 27q47 0 77.5 -27t30.5 -77q0 -29 -13 -52zM208 678q0 -40 24 -40t24 40q0 41 -24 41t-24 -41zM193 242h76l-19 139q-5 34 -9 70.5
t-8 70.5h-2q-4 -34 -8 -70.5t-9 -70.5z" />
    <glyph glyph-name="AE" unicode="&#xc6;" horiz-adv-x="620" 
d="M12 0q-13 0 -10 14l147 631q3 10 13 10h419q11 0 11 -13v-105q0 -13 -11 -13h-174v-131h157q12 0 12 -13v-99q0 -13 -12 -13h-157v-137h174q11 0 11 -13v-105q0 -13 -11 -13h-311q-11 0 -11 13v112h-77l-21 -115q-1 -10 -12 -10h-137zM202 242h57v188v59.5t1 57.5h-2
q-5 -30 -10.5 -60t-10.5 -60z" />
    <glyph glyph-name="Ccedilla" unicode="&#xc7;" horiz-adv-x="468" 
d="M236 -6q-103 0 -156.5 57t-53.5 180v193q0 118 53.5 177.5t156.5 59.5q71 0 119 -30t70.5 -83t14.5 -125q-2 -13 -10 -13h-127q-12 0 -10 14q3 50 -10 77t-48 27q-34 0 -47.5 -24t-13.5 -84v-182q0 -63 14.5 -87t47.5 -24q38 0 48.5 29t8.5 76q0 14 10 14h127q9 0 11 -13
q10 -108 -41.5 -173.5t-163.5 -65.5zM240 -193q-16 0 -30.5 1.5t-25.5 3.5q-9 3 -9 10v55q0 11 8 9q4 -1 9.5 -1.5t12.5 -0.5q14 0 21.5 6t7.5 15v7q0 12 -8.5 16t-20.5 4h-9q-6 0 -6 6q0 5 -0.5 11.5t0.5 10.5l26 81q3 10 12 10h60q14 0 9 -14l-24 -64h8q26 0 40 -17.5
t14 -44.5v-19q0 -39 -22 -62t-73 -23z" />
    <glyph glyph-name="Egrave" unicode="&#xc8;" horiz-adv-x="395" 
d="M45 0q-11 0 -11 13v629q0 13 11 13h311q11 0 11 -13v-105q0 -13 -11 -13h-174v-131h157q11 0 11 -13v-99q0 -13 -11 -13h-157v-137h174q11 0 11 -13v-105q0 -13 -11 -13h-311zM190 708q-12 0 -19 10l-73 111q-4 7 -2 11t7 4h98q6 0 9.5 -2.5t6.5 -6.5l58 -113
q3 -5 1 -9.5t-9 -4.5h-77z" />
    <glyph glyph-name="Eacute" unicode="&#xc9;" horiz-adv-x="395" 
d="M45 0q-11 0 -11 13v629q0 13 11 13h311q11 0 11 -13v-105q0 -13 -11 -13h-174v-131h157q11 0 11 -13v-99q0 -13 -11 -13h-157v-137h174q11 0 11 -13v-105q0 -13 -11 -13h-311zM124 708q-7 0 -9 4.5t1 9.5l58 113q6 9 16 9h97q6 0 8.5 -4t-2.5 -11l-73 -111
q-7 -10 -19 -10h-77z" />
    <glyph glyph-name="Ecircumflex" unicode="&#xca;" horiz-adv-x="395" 
d="M45 0q-11 0 -11 13v629q0 13 11 13h311q11 0 11 -13v-105q0 -13 -11 -13h-174v-131h157q11 0 11 -13v-99q0 -13 -11 -13h-157v-137h174q11 0 11 -13v-105q0 -13 -11 -13h-311zM103 711q-13 -5 -13 5v71q0 11 6 14l96 47q7 4 15 0l95 -47q7 -3 7 -14v-71q0 -10 -13 -5
l-97 36z" />
    <glyph glyph-name="Edieresis" unicode="&#xcb;" horiz-adv-x="395" 
d="M45 0q-11 0 -11 13v629q0 13 11 13h311q11 0 11 -13v-105q0 -13 -11 -13h-174v-131h157q11 0 11 -13v-99q0 -13 -11 -13h-157v-137h174q11 0 11 -13v-105q0 -13 -11 -13h-311zM118 712q-31 0 -50.5 17t-19.5 46v18q0 30 19.5 46.5t50.5 16.5q32 0 50.5 -16.5t18.5 -46.5
v-18q0 -29 -18.5 -46t-50.5 -17zM283 712q-30 0 -49.5 17t-19.5 46v18q0 30 19.5 46.5t49.5 16.5q33 0 51 -16.5t18 -46.5v-18q0 -29 -18 -46t-51 -17z" />
    <glyph glyph-name="Igrave" unicode="&#xcc;" horiz-adv-x="216" 
d="M45 0q-11 0 -11 13v629q0 13 11 13h126q11 0 11 -13v-629q0 -13 -11 -13h-126zM100 708q-12 0 -19 10l-73 111q-4 7 -2 11t7 4h98q6 0 9.5 -2.5t6.5 -6.5l58 -113q3 -5 1 -9.5t-9 -4.5h-77z" />
    <glyph glyph-name="Iacute" unicode="&#xcd;" horiz-adv-x="216" 
d="M45 0q-11 0 -11 13v629q0 13 11 13h126q11 0 11 -13v-629q0 -13 -11 -13h-126zM33 708q-7 0 -9 4.5t1 9.5l58 113q6 9 16 9h97q6 0 8.5 -4t-2.5 -11l-73 -111q-7 -10 -19 -10h-77z" />
    <glyph glyph-name="Icircumflex" unicode="&#xce;" horiz-adv-x="216" 
d="M45 0q-11 0 -11 13v629q0 13 11 13h126q11 0 11 -13v-629q0 -13 -11 -13h-126zM13 711q-13 -5 -13 5v71q0 11 6 14l96 47q7 4 15 0l95 -47q7 -3 7 -14v-71q0 -10 -13 -5l-97 36z" />
    <glyph glyph-name="Idieresis" unicode="&#xcf;" horiz-adv-x="216" 
d="M45 0q-11 0 -11 13v629q0 13 11 13h126q11 0 11 -13v-629q0 -13 -11 -13h-126zM28 712q-31 0 -50.5 17t-19.5 46v18q0 30 19.5 46.5t50.5 16.5q32 0 50.5 -16.5t18.5 -46.5v-18q0 -29 -18.5 -46t-50.5 -17zM193 712q-30 0 -49.5 17t-19.5 46v18q0 30 19.5 46.5t49.5 16.5
q33 0 51 -16.5t18 -46.5v-18q0 -29 -18 -46t-51 -17z" />
    <glyph glyph-name="Eth" unicode="&#xd0;" horiz-adv-x="478" 
d="M15 275q-11 0 -11 13v83q0 13 11 13h27h191q11 0 11 -13v-83q0 -13 -11 -13h-218zM55 0q-13 0 -13 13v629q0 13 13 13h163q116 0 176 -70t60 -213v-77q0 -149 -59.5 -222t-172.5 -73h-167zM190 131h30q45 0 65.5 41t20.5 123v77q0 76 -21.5 114t-68.5 38h-26v-393z" />
    <glyph glyph-name="Ntilde" unicode="&#xd1;" horiz-adv-x="481" 
d="M46 0q-12 0 -12 13v629q0 13 11 13h151q9 0 12 -9l72 -271l13.5 -54t14 -60t10.5 -52h2q-2 20 -4 49.5t-4 61.5t-2.5 62t-0.5 50v210q0 13 12 13h114q12 0 12 -13v-629q0 -13 -11 -13h-150q-9 0 -12 9l-75 269q-11 40 -20 83.5t-16 79.5h-2q3 -29 5.5 -71.5t4 -84.5
t1.5 -71v-201q0 -13 -11 -13h-115zM278 717q-28 0 -46 10.5t-40 10.5q-13 0 -23.5 -3t-21.5 -10q-14 -7 -14 8v64q0 11 6 16q11 10 27 16t35 6q27 0 45 -10.5t39 -10.5q14 0 25.5 3.5t22.5 10.5q14 7 14 -9v-64q0 -10 -7 -16q-11 -9 -25.5 -15.5t-36.5 -6.5z" />
    <glyph glyph-name="Ograve" unicode="&#xd2;" horiz-adv-x="472" 
d="M236 -6q-103 0 -156.5 58.5t-53.5 172.5v204q0 115 53.5 173.5t156.5 58.5t156.5 -58.5t53.5 -173.5v-204q0 -114 -53.5 -172.5t-156.5 -58.5zM236 127q33 0 47.5 23t14.5 80v194q0 58 -14.5 81t-47.5 23t-47.5 -23t-14.5 -81v-194q0 -57 14.5 -80t47.5 -23zM226 708
q-12 0 -19 10l-73 111q-4 7 -2 11t7 4h98q6 0 9.5 -2.5t6.5 -6.5l58 -113q3 -5 1 -9.5t-9 -4.5h-77z" />
    <glyph glyph-name="Oacute" unicode="&#xd3;" horiz-adv-x="472" 
d="M236 -6q-103 0 -156.5 58.5t-53.5 172.5v204q0 115 53.5 173.5t156.5 58.5t156.5 -58.5t53.5 -173.5v-204q0 -114 -53.5 -172.5t-156.5 -58.5zM236 127q33 0 47.5 23t14.5 80v194q0 58 -14.5 81t-47.5 23t-47.5 -23t-14.5 -81v-194q0 -57 14.5 -80t47.5 -23zM160 708
q-7 0 -9 4.5t1 9.5l58 113q6 9 16 9h97q6 0 8.5 -4t-2.5 -11l-73 -111q-7 -10 -19 -10h-77z" />
    <glyph glyph-name="Ocircumflex" unicode="&#xd4;" horiz-adv-x="472" 
d="M236 -6q-103 0 -156.5 58.5t-53.5 172.5v204q0 115 53.5 173.5t156.5 58.5t156.5 -58.5t53.5 -173.5v-204q0 -114 -53.5 -172.5t-156.5 -58.5zM236 127q33 0 47.5 23t14.5 80v194q0 58 -14.5 81t-47.5 23t-47.5 -23t-14.5 -81v-194q0 -57 14.5 -80t47.5 -23zM139 711
q-13 -5 -13 5v71q0 11 6 14l96 47q7 4 15 0l95 -47q7 -3 7 -14v-71q0 -10 -13 -5l-97 36z" />
    <glyph glyph-name="Otilde" unicode="&#xd5;" horiz-adv-x="472" 
d="M236 -6q-103 0 -156.5 58.5t-53.5 172.5v204q0 115 53.5 173.5t156.5 58.5t156.5 -58.5t53.5 -173.5v-204q0 -114 -53.5 -172.5t-156.5 -58.5zM236 127q33 0 47.5 23t14.5 80v194q0 58 -14.5 81t-47.5 23t-47.5 -23t-14.5 -81v-194q0 -57 14.5 -80t47.5 -23zM273 717
q-28 0 -46 10.5t-40 10.5q-13 0 -23.5 -3t-21.5 -10q-14 -7 -14 8v64q0 11 6 16q11 10 27 16t35 6q27 0 45 -10.5t39 -10.5q14 0 25.5 3.5t22.5 10.5q14 7 14 -9v-64q0 -10 -7 -16q-11 -9 -25.5 -15.5t-36.5 -6.5z" />
    <glyph glyph-name="Odieresis" unicode="&#xd6;" horiz-adv-x="472" 
d="M236 -6q-103 0 -156.5 58.5t-53.5 172.5v204q0 115 53.5 173.5t156.5 58.5t156.5 -58.5t53.5 -173.5v-204q0 -114 -53.5 -172.5t-156.5 -58.5zM236 127q33 0 47.5 23t14.5 80v194q0 58 -14.5 81t-47.5 23t-47.5 -23t-14.5 -81v-194q0 -57 14.5 -80t47.5 -23zM154 712
q-31 0 -50.5 17t-19.5 46v18q0 30 19.5 46.5t50.5 16.5q32 0 50.5 -16.5t18.5 -46.5v-18q0 -29 -18.5 -46t-50.5 -17zM319 712q-30 0 -49.5 17t-19.5 46v18q0 30 19.5 46.5t49.5 16.5q33 0 51 -16.5t18 -46.5v-18q0 -29 -18 -46t-51 -17z" />
    <glyph glyph-name="multiply" unicode="&#xd7;" horiz-adv-x="420" 
d="M133 162l-62 61q-9 11 0 20l61 58l-61 58q-9 10 0 20l62 61q10 10 20 0l58 -60l57 60q10 10 20 0l61 -62q10 -9 0 -20l-59 -57l59 -57q10 -10 0 -20l-61 -62q-10 -9 -20 0l-57 60l-58 -60q-10 -9 -20 0z" />
    <glyph glyph-name="Oslash" unicode="&#xd8;" horiz-adv-x="472" 
d="M61 -50q-15 0 -9 15l43 124l55 113l126 354l9 65l26 75q4 9 13 9h90q12 0 7 -15l-43 -120l-47 -94l-131 -372l-8 -64l-30 -82q-2 -8 -12 -8h-89zM236 -6q-103 0 -156.5 58.5t-53.5 172.5v204q0 115 53.5 173.5t156.5 58.5t156.5 -58.5t53.5 -173.5v-204
q0 -114 -53.5 -172.5t-156.5 -58.5zM236 127q33 0 47.5 23t14.5 80v194q0 58 -14.5 81t-47.5 23t-47.5 -23t-14.5 -81v-194q0 -57 14.5 -80t47.5 -23z" />
    <glyph glyph-name="Ugrave" unicode="&#xd9;" horiz-adv-x="472" 
d="M236 -6q-102 0 -153 58.5t-51 176.5v413q0 13 11 13h126q11 0 11 -13v-409q0 -61 13.5 -83.5t42.5 -22.5q30 0 43.5 22.5t13.5 83.5v409q0 13 10 13h127q11 0 11 -13v-413q0 -118 -51.5 -176.5t-153.5 -58.5zM225 708q-12 0 -19 10l-73 111q-4 7 -2 11t7 4h98
q6 0 9.5 -2.5t6.5 -6.5l58 -113q3 -5 1 -9.5t-9 -4.5h-77z" />
    <glyph glyph-name="Uacute" unicode="&#xda;" horiz-adv-x="472" 
d="M236 -6q-102 0 -153 58.5t-51 176.5v413q0 13 11 13h126q11 0 11 -13v-409q0 -61 13.5 -83.5t42.5 -22.5q30 0 43.5 22.5t13.5 83.5v409q0 13 10 13h127q11 0 11 -13v-413q0 -118 -51.5 -176.5t-153.5 -58.5zM159 708q-7 0 -9 4.5t1 9.5l58 113q6 9 16 9h97q6 0 8.5 -4
t-2.5 -11l-73 -111q-7 -10 -19 -10h-77z" />
    <glyph glyph-name="Ucircumflex" unicode="&#xdb;" horiz-adv-x="472" 
d="M236 -6q-102 0 -153 58.5t-51 176.5v413q0 13 11 13h126q11 0 11 -13v-409q0 -61 13.5 -83.5t42.5 -22.5q30 0 43.5 22.5t13.5 83.5v409q0 13 10 13h127q11 0 11 -13v-413q0 -118 -51.5 -176.5t-153.5 -58.5zM139 711q-13 -5 -13 5v71q0 11 6 14l96 47q7 4 15 0l95 -47
q7 -3 7 -14v-71q0 -10 -13 -5l-97 36z" />
    <glyph glyph-name="Udieresis" unicode="&#xdc;" horiz-adv-x="472" 
d="M236 -6q-102 0 -153 58.5t-51 176.5v413q0 13 11 13h126q11 0 11 -13v-409q0 -61 13.5 -83.5t42.5 -22.5q30 0 43.5 22.5t13.5 83.5v409q0 13 10 13h127q11 0 11 -13v-413q0 -118 -51.5 -176.5t-153.5 -58.5zM153 712q-31 0 -50.5 17t-19.5 46v18q0 30 19.5 46.5
t50.5 16.5q32 0 50.5 -16.5t18.5 -46.5v-18q0 -29 -18.5 -46t-50.5 -17zM318 712q-30 0 -49.5 17t-19.5 46v18q0 30 19.5 46.5t49.5 16.5q33 0 51 -16.5t18 -46.5v-18q0 -29 -18 -46t-51 -17z" />
    <glyph glyph-name="Yacute" unicode="&#xdd;" horiz-adv-x="446" 
d="M160 0q-11 0 -11 13v213l-146 413q-6 16 9 16h139q11 0 12 -9l37 -167q6 -29 12 -58.5t11 -58.5h2q5 29 10.5 58t11.5 58l38 168q1 9 11 9h138q14 0 8 -16l-145 -412v-214q0 -13 -10 -13h-127zM146 708q-7 0 -9 4.5t1 9.5l58 113q6 9 16 9h97q6 0 8.5 -4t-2.5 -11
l-73 -111q-7 -10 -19 -10h-77z" />
    <glyph glyph-name="Thorn" unicode="&#xde;" horiz-adv-x="421" 
d="M45 0q-11 0 -11 13v629q0 13 11 13h126q11 0 11 -13v-83h15q104 0 153.5 -54.5t49.5 -166.5q0 -107 -51.5 -163.5t-148.5 -56.5h-18v-105q0 -13 -11 -13h-126zM182 250h15q28 0 41.5 21.5t13.5 65.5q0 48 -12.5 69.5t-41.5 21.5h-16v-178z" />
    <glyph glyph-name="germandbls" unicode="&#xdf;" horiz-adv-x="442" 
d="M298 -6q-63 0 -90.5 32t-20.5 100q1 12 10 12h70q7 0 7 -10q0 -17 2.5 -24.5t11.5 -7.5q8 0 11 9t3 26q0 32 -10 56t-25 44t-29.5 39.5t-24.5 42.5t-10 55q0 19 4 37.5t9.5 36.5t10 37.5t4.5 42.5q0 24 -7.5 33.5t-21.5 9.5q-18 0 -24.5 -13t-6.5 -47v-492q0 -13 -11 -13
h-121q-11 0 -11 13v492q0 94 42 139t129 45q83 0 127 -37.5t44 -109.5q0 -29 -5 -51t-11 -39.5t-10.5 -33t-4.5 -31.5q0 -20 9 -37.5t23 -36.5t27.5 -43t22.5 -56t9 -75q0 -72 -34.5 -108.5t-97.5 -36.5z" />
    <glyph glyph-name="agrave" unicode="&#xe0;" horiz-adv-x="380" 
d="M244 0q-11 0 -13 11q-2 15 -4 39.5t-2 43.5l-16 19v245q0 23 -5 31t-19 8q-16 0 -21.5 -12t-2.5 -39q2 -13 -12 -13h-103q-12 0 -13 14q-6 76 34.5 116t122.5 40q84 0 123 -35.5t39 -113.5v-224q0 -46 0.5 -72t2.5 -44q2 -14 -10 -14h-101zM111 -6q-45 0 -70 35.5
t-25 99.5q0 71 32.5 109t108.5 49l61 8l-1 -77l-25 -4q-22 -3 -31.5 -18.5t-9.5 -44.5q0 -25 6 -37.5t19 -12.5q12 0 24.5 11t27.5 35l12 -72q-35 -45 -63.5 -63t-65.5 -18zM191 557q-12 0 -19 10l-84 126q-4 7 -2 11.5t7 4.5h99q10 0 16 -10l67 -128q3 -6 1 -10t-9 -4h-76z
" />
    <glyph glyph-name="aacute" unicode="&#xe1;" horiz-adv-x="380" 
d="M244 0q-11 0 -13 11q-2 15 -4 39.5t-2 43.5l-16 19v245q0 23 -5 31t-19 8q-16 0 -21.5 -12t-2.5 -39q2 -13 -12 -13h-103q-12 0 -13 14q-6 76 34.5 116t122.5 40q84 0 123 -35.5t39 -113.5v-224q0 -46 0.5 -72t2.5 -44q2 -14 -10 -14h-101zM111 -6q-45 0 -70 35.5
t-25 99.5q0 71 32.5 109t108.5 49l61 8l-1 -77l-25 -4q-22 -3 -31.5 -18.5t-9.5 -44.5q0 -25 6 -37.5t19 -12.5q12 0 24.5 11t27.5 35l12 -72q-35 -45 -63.5 -63t-65.5 -18zM120 557q-7 0 -9 4t1 10l67 128q5 10 16 10h98q6 0 8.5 -4.5t-2.5 -11.5l-84 -126q-7 -10 -19 -10
h-76z" />
    <glyph glyph-name="acircumflex" unicode="&#xe2;" horiz-adv-x="380" 
d="M244 0q-11 0 -13 11q-2 15 -4 39.5t-2 43.5l-16 19v245q0 23 -5 31t-19 8q-16 0 -21.5 -12t-2.5 -39q2 -13 -12 -13h-103q-12 0 -13 14q-6 76 34.5 116t122.5 40q84 0 123 -35.5t39 -113.5v-224q0 -46 0.5 -72t2.5 -44q2 -14 -10 -14h-101zM111 -6q-45 0 -70 35.5
t-25 99.5q0 71 32.5 109t108.5 49l61 8l-1 -77l-25 -4q-22 -3 -31.5 -18.5t-9.5 -44.5q0 -25 6 -37.5t19 -12.5q12 0 24.5 11t27.5 35l12 -72q-35 -45 -63.5 -63t-65.5 -18zM105 549q-13 -6 -13 6v73q0 10 6 15l87 48q7 4 15 0l86 -48q7 -5 7 -15v-73q0 -11 -13 -6l-88 41z
" />
    <glyph glyph-name="atilde" unicode="&#xe3;" horiz-adv-x="380" 
d="M244 0q-11 0 -13 11q-2 15 -4 39.5t-2 43.5l-16 19v245q0 23 -5 31t-19 8q-16 0 -21.5 -12t-2.5 -39q2 -13 -12 -13h-103q-12 0 -13 14q-6 76 34.5 116t122.5 40q84 0 123 -35.5t39 -113.5v-224q0 -46 0.5 -72t2.5 -44q2 -14 -10 -14h-101zM111 -6q-45 0 -70 35.5
t-25 99.5q0 71 32.5 109t108.5 49l61 8l-1 -77l-25 -4q-22 -3 -31.5 -18.5t-9.5 -44.5q0 -25 6 -37.5t19 -12.5q12 0 24.5 11t27.5 35l12 -72q-35 -45 -63.5 -63t-65.5 -18zM229 566q-18 0 -30.5 5t-23.5 10t-24 5q-12 0 -22.5 -3t-21.5 -10q-14 -7 -14 9v64q0 10 6 16
q11 10 26 15.5t33 5.5t30.5 -5t23.5 -10.5t23 -5.5q14 0 23.5 3.5t21.5 10.5q14 7 14 -9v-63q0 -11 -7 -16q-11 -10 -26 -16t-32 -6z" />
    <glyph glyph-name="adieresis" unicode="&#xe4;" horiz-adv-x="380" 
d="M244 0q-11 0 -13 11q-2 15 -4 39.5t-2 43.5l-16 19v245q0 23 -5 31t-19 8q-16 0 -21.5 -12t-2.5 -39q2 -13 -12 -13h-103q-12 0 -13 14q-6 76 34.5 116t122.5 40q84 0 123 -35.5t39 -113.5v-224q0 -46 0.5 -72t2.5 -44q2 -14 -10 -14h-101zM111 -6q-45 0 -70 35.5
t-25 99.5q0 71 32.5 109t108.5 49l61 8l-1 -77l-25 -4q-22 -3 -31.5 -18.5t-9.5 -44.5q0 -25 6 -37.5t19 -12.5q12 0 24.5 11t27.5 35l12 -72q-35 -45 -63.5 -63t-65.5 -18zM111 560q-31 0 -50.5 17t-19.5 46v18q0 31 19.5 47t50.5 16q32 0 50.5 -16t18.5 -47v-18
q0 -29 -18.5 -46t-50.5 -17zM276 560q-30 0 -49.5 17t-19.5 46v18q0 31 19.5 47t49.5 16q33 0 51 -16t18 -47v-18q0 -29 -18 -46t-51 -17z" />
    <glyph glyph-name="aring" unicode="&#xe5;" horiz-adv-x="380" 
d="M244 0q-11 0 -13 11q-2 15 -4 39.5t-2 43.5l-16 19v245q0 23 -5 31t-19 8q-16 0 -21.5 -12t-2.5 -39q2 -13 -12 -13h-103q-12 0 -13 14q-6 76 34.5 116t122.5 40q84 0 123 -35.5t39 -113.5v-224q0 -46 0.5 -72t2.5 -44q2 -14 -10 -14h-101zM111 -6q-45 0 -70 35.5
t-25 99.5q0 71 32.5 109t108.5 49l61 8l-1 -77l-25 -4q-22 -3 -31.5 -18.5t-9.5 -44.5q0 -25 6 -37.5t19 -12.5q12 0 24.5 11t27.5 35l12 -72q-35 -45 -63.5 -63t-65.5 -18zM192 552q-46 0 -74.5 26.5t-28.5 76.5t28.5 77t74.5 27q47 0 75.5 -27t28.5 -77t-28.5 -76.5
t-75.5 -26.5zM192 622q20 0 20 33t-20 33q-19 0 -19 -33t19 -33z" />
    <glyph glyph-name="ae" unicode="&#xe6;" horiz-adv-x="580" 
d="M111 -6q-45 0 -70 35t-25 100q0 72 33 109.5t108 48.5l55 8v63q0 22 -6 30.5t-21 8.5q-16 0 -21.5 -12t-2.5 -39q2 -13 -12 -13h-103q-12 0 -13 14q-6 75 33 115.5t116 40.5q39 0 65 -9.5t44 -29.5q21 20 46.5 29.5t59.5 9.5q76 0 117.5 -48.5t41.5 -137.5v-88
q0 -14 -13 -14h-191v-60q0 -29 7.5 -40.5t23.5 -11.5t23.5 10.5t7.5 34.5q0 12 10 12h113q12 0 12 -12q0 -79 -40.5 -116.5t-125.5 -37.5q-57 0 -94.5 17.5t-56.5 53.5q-31 -38 -58.5 -54.5t-62.5 -16.5zM176 101q9 0 18.5 6t19.5 20q-1 11 -1.5 20.5t-0.5 18.5v50l-20 -2
q-21 -3 -31 -18t-10 -45q0 -25 6 -37.5t19 -12.5zM352 298h64v50q0 25 -7.5 36t-24.5 11t-24.5 -11t-7.5 -36v-50z" />
    <glyph glyph-name="ccedilla" unicode="&#xe7;" horiz-adv-x="383" 
d="M198 -6q-86 0 -130 46t-44 136v152q0 86 44.5 130.5t128.5 44.5q54 0 92.5 -23.5t56 -65.5t12.5 -97q-2 -16 -13 -16h-104q-4 0 -8 4t-3 9q2 37 -5 51.5t-26 14.5q-17 0 -25 -12.5t-8 -41.5v-150q0 -32 7.5 -45t25.5 -13q17 0 24 15t6 51q0 14 12 14h105q12 0 12 -13
q2 -96 -37 -143.5t-123 -47.5zM187 -193q-16 0 -30.5 1.5t-25.5 3.5q-9 3 -9 10v55q0 11 8 9q4 -1 9.5 -1.5t12.5 -0.5q14 0 21.5 6t7.5 15v7q0 12 -8.5 16t-20.5 4h-9q-6 0 -6 6q0 5 -0.5 11.5t0.5 10.5l26 81q3 10 12 10h60q14 0 9 -14l-24 -64h8q26 0 40 -17.5t14 -44.5
v-19q0 -39 -22 -62t-73 -23z" />
    <glyph glyph-name="egrave" unicode="&#xe8;" horiz-adv-x="394" 
d="M196 -6q-87 0 -129.5 42t-42.5 131v158q0 86 44.5 132t126.5 46q89 0 132 -45.5t43 -140.5v-88q0 -14 -13 -14h-192v-60q0 -29 7 -40.5t24 -11.5t24.5 10.5t6.5 34.5q0 12 11 12h112q12 0 12 -12q2 -79 -39 -116.5t-127 -37.5zM165 298h64v50q0 24 -7.5 35.5t-24.5 11.5
q-16 0 -24 -11.5t-8 -35.5v-50zM195 557q-12 0 -19 10l-84 126q-4 7 -2 11.5t7 4.5h99q10 0 16 -10l67 -128q3 -6 1 -10t-9 -4h-76z" />
    <glyph glyph-name="eacute" unicode="&#xe9;" horiz-adv-x="394" 
d="M196 -6q-87 0 -129.5 42t-42.5 131v158q0 86 44.5 132t126.5 46q89 0 132 -45.5t43 -140.5v-88q0 -14 -13 -14h-192v-60q0 -29 7 -40.5t24 -11.5t24.5 10.5t6.5 34.5q0 12 11 12h112q12 0 12 -12q2 -79 -39 -116.5t-127 -37.5zM165 298h64v50q0 24 -7.5 35.5t-24.5 11.5
q-16 0 -24 -11.5t-8 -35.5v-50zM124 557q-7 0 -9 4t1 10l67 128q5 10 16 10h98q6 0 8.5 -4.5t-2.5 -11.5l-84 -126q-7 -10 -19 -10h-76z" />
    <glyph glyph-name="ecircumflex" unicode="&#xea;" horiz-adv-x="394" 
d="M196 -6q-87 0 -129.5 42t-42.5 131v158q0 86 44.5 132t126.5 46q89 0 132 -45.5t43 -140.5v-88q0 -14 -13 -14h-192v-60q0 -29 7 -40.5t24 -11.5t24.5 10.5t6.5 34.5q0 12 11 12h112q12 0 12 -12q2 -79 -39 -116.5t-127 -37.5zM165 298h64v50q0 24 -7.5 35.5t-24.5 11.5
q-16 0 -24 -11.5t-8 -35.5v-50zM109 549q-13 -6 -13 6v73q0 10 6 15l87 48q7 4 15 0l86 -48q7 -5 7 -15v-73q0 -11 -13 -6l-88 41z" />
    <glyph glyph-name="edieresis" unicode="&#xeb;" horiz-adv-x="394" 
d="M196 -6q-87 0 -129.5 42t-42.5 131v158q0 86 44.5 132t126.5 46q89 0 132 -45.5t43 -140.5v-88q0 -14 -13 -14h-192v-60q0 -29 7 -40.5t24 -11.5t24.5 10.5t6.5 34.5q0 12 11 12h112q12 0 12 -12q2 -79 -39 -116.5t-127 -37.5zM165 298h64v50q0 24 -7.5 35.5t-24.5 11.5
q-16 0 -24 -11.5t-8 -35.5v-50zM115 560q-31 0 -50.5 17t-19.5 46v18q0 31 19.5 47t50.5 16q32 0 50.5 -16t18.5 -47v-18q0 -29 -18.5 -46t-50.5 -17zM280 560q-30 0 -49.5 17t-19.5 46v18q0 31 19.5 47t49.5 16q33 0 51 -16t18 -47v-18q0 -29 -18 -46t-51 -17z" />
    <glyph glyph-name="igrave" unicode="&#xec;" horiz-adv-x="199" 
d="M39 0q-11 0 -11 13v472q0 12 11 12h121q11 0 11 -12v-472q0 -13 -11 -13h-121zM98 557q-12 0 -19 10l-84 126q-4 7 -2 11.5t7 4.5h99q10 0 16 -10l67 -128q3 -6 1 -10t-9 -4h-76z" />
    <glyph glyph-name="iacute" unicode="&#xed;" horiz-adv-x="199" 
d="M39 0q-11 0 -11 13v472q0 12 11 12h121q11 0 11 -12v-472q0 -13 -11 -13h-121zM27 557q-7 0 -9 4t1 10l67 128q5 10 16 10h98q6 0 8.5 -4.5t-2.5 -11.5l-84 -126q-7 -10 -19 -10h-76z" />
    <glyph glyph-name="icircumflex" unicode="&#xee;" horiz-adv-x="199" 
d="M39 0q-11 0 -11 13v472q0 12 11 12h121q11 0 11 -12v-472q0 -13 -11 -13h-121zM12 549q-13 -6 -13 6v73q0 10 6 15l87 48q7 4 15 0l86 -48q7 -5 7 -15v-73q0 -11 -13 -6l-88 41z" />
    <glyph glyph-name="idieresis" unicode="&#xef;" horiz-adv-x="199" 
d="M39 0q-11 0 -11 13v472q0 12 11 12h121q11 0 11 -12v-472q0 -13 -11 -13h-121zM18 560q-31 0 -50.5 17t-19.5 46v18q0 31 19.5 47t50.5 16q32 0 50.5 -16t18.5 -47v-18q0 -29 -18.5 -46t-50.5 -17zM183 560q-30 0 -49.5 17t-19.5 46v18q0 31 19.5 47t49.5 16q33 0 51 -16
t18 -47v-18q0 -29 -18 -46t-51 -17z" />
    <glyph glyph-name="eth" unicode="&#xf0;" horiz-adv-x="394" 
d="M197 -6q-82 0 -127.5 45t-45.5 130v131q0 79 29.5 119.5t88.5 40.5q30 0 54.5 -10.5t44.5 -31.5v-102q-11 12 -22 19t-24 7q-15 0 -22 -11.5t-7 -38.5v-122q0 -28 7 -40t24 -12q18 0 24.5 12t6.5 40v174q3 68 -2.5 117.5t-31 83t-82.5 50.5q-5 2 -6 7t2 10l51 70
q5 6 8.5 7t10.5 -1q100 -26 146 -107t46 -201v-211q0 -85 -45 -130t-128 -45zM151 496q-5 -4 -9 1l-24 34q-3 6 3 11l178 140q6 6 9 -1l23 -35q3 -5 -1 -9z" />
    <glyph glyph-name="ntilde" unicode="&#xf1;" horiz-adv-x="398" 
d="M239 0q-12 0 -12 13v335q0 17 -5 24.5t-17 7.5q-10 0 -19.5 -6t-18.5 -16l-23 61q23 34 58 59t77 25q47 0 69 -31t22 -100v-359q0 -13 -12 -13h-119zM40 0q-12 0 -12 13v355q0 33 -0.5 62.5t-2.5 52.5q-1 14 10 14h102q10 0 12 -11q2 -15 4 -39.5t2 -43.5l16 -33v-357
q0 -13 -12 -13h-119zM238 566q-18 0 -30.5 5t-23.5 10t-24 5q-12 0 -22.5 -3t-21.5 -10q-14 -7 -14 9v64q0 10 6 16q11 10 26 15.5t33 5.5t30.5 -5t23.5 -10.5t23 -5.5q14 0 23.5 3.5t21.5 10.5q14 7 14 -9v-63q0 -11 -7 -16q-11 -10 -26 -16t-32 -6z" />
    <glyph glyph-name="ograve" unicode="&#xf2;" horiz-adv-x="394" 
d="M197 -6q-82 0 -127.5 45t-45.5 130v161q0 83 45.5 128t127.5 45q83 0 128 -45t45 -128v-161q0 -85 -45 -130t-128 -45zM197 118q16 0 23.5 12t7.5 40v158q0 29 -7.5 40.5t-23.5 11.5t-23.5 -11.5t-7.5 -40.5v-158q0 -28 7.5 -40t23.5 -12zM195 557q-12 0 -19 10l-84 126
q-4 7 -2 11.5t7 4.5h99q10 0 16 -10l67 -128q3 -6 1 -10t-9 -4h-76z" />
    <glyph glyph-name="oacute" unicode="&#xf3;" horiz-adv-x="394" 
d="M197 -6q-82 0 -127.5 45t-45.5 130v161q0 83 45.5 128t127.5 45q83 0 128 -45t45 -128v-161q0 -85 -45 -130t-128 -45zM197 118q16 0 23.5 12t7.5 40v158q0 29 -7.5 40.5t-23.5 11.5t-23.5 -11.5t-7.5 -40.5v-158q0 -28 7.5 -40t23.5 -12zM124 557q-7 0 -9 4t1 10l67 128
q5 10 16 10h98q6 0 8.5 -4.5t-2.5 -11.5l-84 -126q-7 -10 -19 -10h-76z" />
    <glyph glyph-name="ocircumflex" unicode="&#xf4;" horiz-adv-x="394" 
d="M197 -6q-82 0 -127.5 45t-45.5 130v161q0 83 45.5 128t127.5 45q83 0 128 -45t45 -128v-161q0 -85 -45 -130t-128 -45zM197 118q16 0 23.5 12t7.5 40v158q0 29 -7.5 40.5t-23.5 11.5t-23.5 -11.5t-7.5 -40.5v-158q0 -28 7.5 -40t23.5 -12zM110 549q-13 -6 -13 6v73
q0 10 6 15l87 48q7 4 15 0l86 -48q7 -5 7 -15v-73q0 -11 -13 -6l-88 41z" />
    <glyph glyph-name="otilde" unicode="&#xf5;" horiz-adv-x="394" 
d="M197 -6q-82 0 -127.5 45t-45.5 130v161q0 83 45.5 128t127.5 45q83 0 128 -45t45 -128v-161q0 -85 -45 -130t-128 -45zM197 118q16 0 23.5 12t7.5 40v158q0 29 -7.5 40.5t-23.5 11.5t-23.5 -11.5t-7.5 -40.5v-158q0 -28 7.5 -40t23.5 -12zM233 566q-18 0 -30.5 5
t-23.5 10t-24 5q-12 0 -22.5 -3t-21.5 -10q-14 -7 -14 9v64q0 10 6 16q11 10 26 15.5t33 5.5t30.5 -5t23.5 -10.5t23 -5.5q14 0 23.5 3.5t21.5 10.5q14 7 14 -9v-63q0 -11 -7 -16q-11 -10 -26 -16t-32 -6z" />
    <glyph glyph-name="odieresis" unicode="&#xf6;" horiz-adv-x="394" 
d="M197 -6q-82 0 -127.5 45t-45.5 130v161q0 83 45.5 128t127.5 45q83 0 128 -45t45 -128v-161q0 -85 -45 -130t-128 -45zM197 118q16 0 23.5 12t7.5 40v158q0 29 -7.5 40.5t-23.5 11.5t-23.5 -11.5t-7.5 -40.5v-158q0 -28 7.5 -40t23.5 -12zM115 560q-31 0 -50.5 17
t-19.5 46v18q0 31 19.5 47t50.5 16q32 0 50.5 -16t18.5 -47v-18q0 -29 -18.5 -46t-50.5 -17zM280 560q-30 0 -49.5 17t-19.5 46v18q0 31 19.5 47t49.5 16q33 0 51 -16t18 -47v-18q0 -29 -18 -46t-51 -17z" />
    <glyph glyph-name="divide" unicode="&#xf7;" horiz-adv-x="420" 
d="M74 243q-14 0 -14 14v88q0 13 14 13h273q13 0 13 -13v-88q0 -14 -13 -14h-273zM210 70q-32 0 -48 17.5t-16 45.5v16q0 27 16 44t48 17q33 0 49 -17t16 -44v-16q0 -28 -16 -45.5t-49 -17.5zM210 390q-32 0 -48 17.5t-16 43.5v16q0 29 16 46t48 17q33 0 49 -17t16 -46v-16
q0 -26 -16 -43.5t-49 -17.5z" />
    <glyph glyph-name="oslash" unicode="&#xf8;" horiz-adv-x="394" 
d="M30 -52q-5 0 -6 4.5t1 10.5l45 118l65 64l105 269l1 58l26 66q4 8 11 8h89q12 0 7 -14l-40 -101l-62 -54l-110 -286l-6 -67l-24 -65q-4 -11 -14 -11h-88zM197 -6q-82 0 -127.5 45t-45.5 130v161q0 83 45.5 128t127.5 45q83 0 128 -45t45 -128v-161q0 -85 -45 -130
t-128 -45zM197 118q16 0 23.5 12t7.5 40v158q0 29 -7.5 40.5t-23.5 11.5t-23.5 -11.5t-7.5 -40.5v-158q0 -28 7.5 -40t23.5 -12z" />
    <glyph glyph-name="ugrave" unicode="&#xf9;" horiz-adv-x="395" 
d="M122 -6q-50 0 -72 31.5t-22 100.5v358q0 13 12 13h119q12 0 12 -13v-330q0 -21 4.5 -28.5t15.5 -7.5q10 0 20.5 6.5t19.5 17.5l23 -61q-24 -39 -59.5 -63t-72.5 -24zM259 0q-11 0 -13 11q-2 16 -4 40.5t-2 42.5l-16 34v356q0 13 13 13h118q12 0 12 -13v-354
q0 -33 0.5 -63t2.5 -53q2 -14 -10 -14h-101zM196 557q-12 0 -19 10l-84 126q-4 7 -2 11.5t7 4.5h99q10 0 16 -10l67 -128q3 -6 1 -10t-9 -4h-76z" />
    <glyph glyph-name="uacute" unicode="&#xfa;" horiz-adv-x="395" 
d="M122 -6q-50 0 -72 31.5t-22 100.5v358q0 13 12 13h119q12 0 12 -13v-330q0 -21 4.5 -28.5t15.5 -7.5q10 0 20.5 6.5t19.5 17.5l23 -61q-24 -39 -59.5 -63t-72.5 -24zM259 0q-11 0 -13 11q-2 16 -4 40.5t-2 42.5l-16 34v356q0 13 13 13h118q12 0 12 -13v-354
q0 -33 0.5 -63t2.5 -53q2 -14 -10 -14h-101zM125 557q-7 0 -9 4t1 10l67 128q5 10 16 10h98q6 0 8.5 -4.5t-2.5 -11.5l-84 -126q-7 -10 -19 -10h-76z" />
    <glyph glyph-name="ucircumflex" unicode="&#xfb;" horiz-adv-x="395" 
d="M122 -6q-50 0 -72 31.5t-22 100.5v358q0 13 12 13h119q12 0 12 -13v-330q0 -21 4.5 -28.5t15.5 -7.5q10 0 20.5 6.5t19.5 17.5l23 -61q-24 -39 -59.5 -63t-72.5 -24zM259 0q-11 0 -13 11q-2 16 -4 40.5t-2 42.5l-16 34v356q0 13 13 13h118q12 0 12 -13v-354
q0 -33 0.5 -63t2.5 -53q2 -14 -10 -14h-101zM111 549q-13 -6 -13 6v73q0 10 6 15l87 48q7 4 15 0l86 -48q7 -5 7 -15v-73q0 -11 -13 -6l-88 41z" />
    <glyph glyph-name="udieresis" unicode="&#xfc;" horiz-adv-x="395" 
d="M122 -6q-50 0 -72 31.5t-22 100.5v358q0 13 12 13h119q12 0 12 -13v-330q0 -21 4.5 -28.5t15.5 -7.5q10 0 20.5 6.5t19.5 17.5l23 -61q-24 -39 -59.5 -63t-72.5 -24zM259 0q-11 0 -13 11q-2 16 -4 40.5t-2 42.5l-16 34v356q0 13 13 13h118q12 0 12 -13v-354
q0 -33 0.5 -63t2.5 -53q2 -14 -10 -14h-101zM116 560q-31 0 -50.5 17t-19.5 46v18q0 31 19.5 47t50.5 16q32 0 50.5 -16t18.5 -47v-18q0 -29 -18.5 -46t-50.5 -17zM281 560q-30 0 -49.5 17t-19.5 46v18q0 31 19.5 47t49.5 16q33 0 51 -16t18 -47v-18q0 -29 -18 -46t-51 -17z
" />
    <glyph glyph-name="yacute" unicode="&#xfd;" horiz-adv-x="391" 
d="M98 -185q-12 0 -9 15l38 169l-116 484q-3 14 9 14h130q12 0 13 -11l19 -163q3 -29 6.5 -68.5t5.5 -71.5h4q2 32 4.5 71.5t6.5 68.5l21 164q1 10 12 10h129q6 0 8.5 -3t0.5 -11l-154 -658q-2 -10 -13 -10h-115zM125 557q-7 0 -9 4t1 10l67 128q5 10 16 10h98q6 0 8.5 -4.5
t-2.5 -11.5l-84 -126q-7 -10 -19 -10h-76z" />
    <glyph glyph-name="thorn" unicode="&#xfe;" horiz-adv-x="393" 
d="M39 -185q-11 0 -11 13v842q0 13 11 13h121q11 0 11 -13v-216q23 21 49 35t59 14q46 0 67 -31t21 -101v-221q0 -81 -26 -118.5t-83 -37.5q-19 0 -42.5 5.5t-44.5 13.5v-185q0 -13 -12 -13h-120zM198 110q14 0 20 9.5t6 34.5v194q0 17 -3.5 24.5t-16.5 7.5q-8 0 -16.5 -5
t-16.5 -13v-245q7 -3 13.5 -5t13.5 -2z" />
    <glyph glyph-name="ydieresis" unicode="&#xff;" horiz-adv-x="391" 
d="M98 -185q-12 0 -9 15l38 169l-116 484q-3 14 9 14h130q12 0 13 -11l19 -163q3 -29 6.5 -68.5t5.5 -71.5h4q2 32 4.5 71.5t6.5 68.5l21 164q1 10 12 10h129q6 0 8.5 -3t0.5 -11l-154 -658q-2 -10 -13 -10h-115zM115 560q-31 0 -50.5 17t-19.5 46v18q0 31 19.5 47t50.5 16
q32 0 50.5 -16t18.5 -47v-18q0 -29 -18.5 -46t-50.5 -17zM280 560q-30 0 -49.5 17t-19.5 46v18q0 31 19.5 47t49.5 16q33 0 51 -16t18 -47v-18q0 -29 -18 -46t-51 -17z" />
    <glyph glyph-name="Amacron" unicode="&#x100;" horiz-adv-x="463" 
d="M11 0q-12 0 -9 14l137 631q2 10 13 10h160q11 0 13 -10l136 -630q4 -15 -8 -15h-140q-10 0 -12 10l-51 371q-5 34 -9 68l-8 68h-2l-8 -68t-9 -68l-54 -370q-1 -11 -13 -11h-136zM155 125l19 117h111l22 -117h-152zM136 717q-13 0 -13 13v76q0 12 13 12h193q13 0 13 -12
v-76q0 -13 -13 -13h-193z" />
    <glyph glyph-name="amacron" unicode="&#x101;" horiz-adv-x="380" 
d="M244 0q-11 0 -13 11q-2 15 -4 39.5t-2 43.5l-16 19v245q0 23 -5 31t-19 8q-16 0 -21.5 -12t-2.5 -39q2 -13 -12 -13h-103q-12 0 -13 14q-6 76 34.5 116t122.5 40q84 0 123 -35.5t39 -113.5v-224q0 -46 0.5 -72t2.5 -44q2 -14 -10 -14h-101zM111 -6q-45 0 -70 35.5
t-25 99.5q0 71 32.5 109t108.5 49l61 8l-1 -77l-25 -4q-22 -3 -31.5 -18.5t-9.5 -44.5q0 -25 6 -37.5t19 -12.5q12 0 24.5 11t27.5 35l12 -72q-35 -45 -63.5 -63t-65.5 -18zM109 570q-13 0 -13 13v76q0 13 13 13h168q13 0 13 -13v-76q0 -13 -13 -13h-168z" />
    <glyph glyph-name="Abreve" unicode="&#x102;" horiz-adv-x="463" 
d="M11 0q-12 0 -9 14l137 631q2 10 13 10h160q11 0 13 -10l136 -630q4 -15 -8 -15h-140q-10 0 -12 10l-51 371q-5 34 -9 68l-8 68h-2l-8 -68t-9 -68l-54 -370q-1 -11 -13 -11h-136zM155 125l19 117h111l22 -117h-152zM232 701q-37 0 -62.5 12t-40.5 26q-4 4 -4 13v67
q0 16 13 6q19 -13 41.5 -21t52.5 -8q31 0 53.5 8t40.5 21q5 5 9 3t4 -9v-67q0 -9 -4 -13q-16 -15 -41 -26.5t-62 -11.5z" />
    <glyph glyph-name="abreve" unicode="&#x103;" horiz-adv-x="380" 
d="M244 0q-11 0 -13 11q-2 15 -4 39.5t-2 43.5l-16 19v245q0 23 -5 31t-19 8q-16 0 -21.5 -12t-2.5 -39q2 -13 -12 -13h-103q-12 0 -13 14q-6 76 34.5 116t122.5 40q84 0 123 -35.5t39 -113.5v-224q0 -46 0.5 -72t2.5 -44q2 -14 -10 -14h-101zM111 -6q-45 0 -70 35.5
t-25 99.5q0 71 32.5 109t108.5 49l61 8l-1 -77l-25 -4q-22 -3 -31.5 -18.5t-9.5 -44.5q0 -25 6 -37.5t19 -12.5q12 0 24.5 11t27.5 35l12 -72q-35 -45 -63.5 -63t-65.5 -18zM193 545q-33 0 -58 11t-40 25q-4 4 -4 13v70q0 8 3.5 9.5t9.5 -2.5q19 -14 40.5 -22.5t48.5 -8.5
q26 0 48 8.5t40 22.5q6 4 9.5 2.5t3.5 -9.5v-70q0 -9 -4 -13q-15 -15 -39.5 -25.5t-57.5 -10.5z" />
    <glyph glyph-name="Aogonek" unicode="&#x104;" horiz-adv-x="463" 
d="M11 0q-12 0 -9 14l137 631q2 10 13 10h160q11 0 13 -10l136 -630q4 -15 -8 -15h-140q-10 0 -12 10l-51 371q-5 34 -9 68l-8 68h-2l-8 -68t-9 -68l-54 -370q-1 -11 -13 -11h-136zM155 125l19 117h111l22 -117h-152zM386 -191q-44 0 -67 18.5t-23 55.5v12q0 48 36.5 81
t101.5 52l11 -14l-1 -6q-23 -17 -34.5 -34t-11.5 -33v-7q0 -11 5.5 -16t15.5 -5q5 0 9.5 0.5t10.5 1.5q11 2 11 -11v-74q0 -10 -10 -13q-14 -5 -27.5 -6.5t-26.5 -1.5z" />
    <glyph glyph-name="aogonek" unicode="&#x105;" horiz-adv-x="380" 
d="M244 0q-11 0 -13 11q-2 15 -4 39.5t-2 43.5l-16 19v245q0 23 -5 31t-19 8q-16 0 -21.5 -12t-2.5 -39q2 -13 -12 -13h-103q-12 0 -13 14q-6 76 34.5 116t122.5 40q84 0 123 -35.5t39 -113.5v-224q0 -46 0.5 -72t2.5 -44q2 -14 -10 -14h-101zM111 -6q-45 0 -70 35.5
t-25 99.5q0 71 32.5 109t108.5 49l61 8l-1 -77l-25 -4q-22 -3 -31.5 -18.5t-9.5 -44.5q0 -25 6 -37.5t19 -12.5q12 0 24.5 11t27.5 35l12 -72q-35 -45 -63.5 -63t-65.5 -18zM286 -191q-44 0 -67 18.5t-23 55.5v12q0 48 36.5 81t101.5 52l11 -14l-1 -6q-23 -17 -34.5 -34
t-11.5 -33v-7q0 -11 5.5 -16t15.5 -5q5 0 9.5 0.5t10.5 1.5q11 2 11 -11v-74q0 -10 -10 -13q-14 -5 -27.5 -6.5t-26.5 -1.5z" />
    <glyph glyph-name="Cacute" unicode="&#x106;" horiz-adv-x="468" 
d="M236 -6q-103 0 -156.5 57t-53.5 180v193q0 118 53.5 177.5t156.5 59.5q71 0 119 -30t70.5 -83t14.5 -125q-2 -13 -10 -13h-127q-12 0 -10 14q3 50 -10 77t-48 27q-34 0 -47.5 -24t-13.5 -84v-182q0 -63 14.5 -87t47.5 -24q38 0 48.5 29t8.5 76q0 14 10 14h127q9 0 11 -13
q10 -108 -41.5 -173.5t-163.5 -65.5zM158 708q-7 0 -9 4.5t1 9.5l58 113q6 9 16 9h97q6 0 8.5 -4t-2.5 -11l-73 -111q-7 -10 -19 -10h-77z" />
    <glyph glyph-name="cacute" unicode="&#x107;" horiz-adv-x="383" 
d="M198 -6q-86 0 -130 46t-44 136v152q0 86 44.5 130.5t128.5 44.5q54 0 92.5 -23.5t56 -65.5t12.5 -97q-2 -16 -13 -16h-104q-4 0 -8 4t-3 9q2 37 -5 51.5t-26 14.5q-17 0 -25 -12.5t-8 -41.5v-150q0 -32 7.5 -45t25.5 -13q17 0 24 15t6 51q0 14 12 14h105q12 0 12 -13
q2 -96 -37 -143.5t-123 -47.5zM120 557q-7 0 -9 4t1 10l67 128q5 10 16 10h98q6 0 8.5 -4.5t-2.5 -11.5l-84 -126q-7 -10 -19 -10h-76z" />
    <glyph glyph-name="Cdotaccent" unicode="&#x10a;" horiz-adv-x="468" 
d="M236 -6q-103 0 -156.5 57t-53.5 180v193q0 118 53.5 177.5t156.5 59.5q71 0 119 -30t70.5 -83t14.5 -125q-2 -13 -10 -13h-127q-12 0 -10 14q3 50 -10 77t-48 27q-34 0 -47.5 -24t-13.5 -84v-182q0 -63 14.5 -87t47.5 -24q38 0 48.5 29t8.5 76q0 14 10 14h127q9 0 11 -13
q10 -108 -41.5 -173.5t-163.5 -65.5zM234 720q-37 0 -59.5 18.5t-22.5 51.5v20q0 35 22.5 52.5t59.5 17.5q38 0 59.5 -17.5t21.5 -52.5v-20q0 -33 -21.5 -51.5t-59.5 -18.5z" />
    <glyph glyph-name="cdotaccent" unicode="&#x10b;" horiz-adv-x="383" 
d="M198 -6q-86 0 -130 46t-44 136v152q0 86 44.5 130.5t128.5 44.5q54 0 92.5 -23.5t56 -65.5t12.5 -97q-2 -16 -13 -16h-104q-4 0 -8 4t-3 9q2 37 -5 51.5t-26 14.5q-17 0 -25 -12.5t-8 -41.5v-150q0 -32 7.5 -45t25.5 -13q17 0 24 15t6 51q0 14 12 14h105q12 0 12 -13
q2 -96 -37 -143.5t-123 -47.5zM193 554q-37 0 -59.5 18.5t-22.5 52.5v19q0 35 22.5 53t59.5 18q38 0 59.5 -18t21.5 -53v-19q0 -34 -21.5 -52.5t-59.5 -18.5z" />
    <glyph glyph-name="Ccaron" unicode="&#x10c;" horiz-adv-x="468" 
d="M236 -6q-103 0 -156.5 57t-53.5 180v193q0 118 53.5 177.5t156.5 59.5q71 0 119 -30t70.5 -83t14.5 -125q-2 -13 -10 -13h-127q-12 0 -10 14q3 50 -10 77t-48 27q-34 0 -47.5 -24t-13.5 -84v-182q0 -63 14.5 -87t47.5 -24q38 0 48.5 29t8.5 76q0 14 10 14h127q9 0 11 -13
q10 -108 -41.5 -173.5t-163.5 -65.5zM227 712l-96 46q-6 4 -6 14v71q0 11 13 6l96 -37l97 37q13 4 13 -6v-71q0 -10 -7 -14l-95 -46q-8 -4 -15 0z" />
    <glyph glyph-name="ccaron" unicode="&#x10d;" horiz-adv-x="383" 
d="M198 -6q-86 0 -130 46t-44 136v152q0 86 44.5 130.5t128.5 44.5q54 0 92.5 -23.5t56 -65.5t12.5 -97q-2 -16 -13 -16h-104q-4 0 -8 4t-3 9q2 37 -5 51.5t-26 14.5q-17 0 -25 -12.5t-8 -41.5v-150q0 -32 7.5 -45t25.5 -13q17 0 24 15t6 51q0 14 12 14h105q12 0 12 -13
q2 -96 -37 -143.5t-123 -47.5zM185 550l-87 48q-6 5 -6 14v74q0 12 13 6l87 -41l88 41q13 5 13 -6v-74q0 -9 -7 -14l-86 -48q-8 -4 -15 0z" />
    <glyph glyph-name="Dcaron" unicode="&#x10e;" horiz-adv-x="469" 
d="M47 0q-13 0 -13 13v629q0 13 13 13h163q116 0 176 -70t60 -213v-77q0 -149 -59.5 -222t-172.5 -73h-167zM182 131h29q46 0 66.5 41t20.5 123v77q0 76 -21.5 114t-68.5 38h-26v-393zM197 712l-96 46q-6 4 -6 14v71q0 11 13 6l96 -37l97 37q13 4 13 -6v-71q0 -10 -7 -14
l-95 -46q-8 -4 -15 0z" />
    <glyph glyph-name="dcaron" unicode="&#x10f;" horiz-adv-x="394" 
d="M120 -6q-49 0 -71.5 30.5t-22.5 99.5v234q0 73 26.5 109t80.5 36q28 0 54.5 -6.5t48.5 -18.5v-101q-25 10 -41 10q-13 0 -19.5 -9t-6.5 -28v-204q0 -16 5 -22t16 -6t20.5 6t19.5 18l22 -61q-21 -37 -56.5 -62t-75.5 -25zM258 0q-11 0 -13 11q-3 16 -4.5 40.5t-1.5 42.5
l-16 25v551q0 13 12 13h120q11 0 11 -13v-540q0 -33 0.5 -63t2.5 -53q2 -14 -10 -14h-101zM423 528q-7 0 -6 10l11 54q-9 5 -17.5 13.5t-8.5 26.5v15q0 24 14.5 36.5t43.5 12.5q24 0 39 -12t15 -36v-17q0 -8 -1.5 -18.5t-6.5 -22.5l-19 -54q-3 -8 -9 -8h-55z" />
    <glyph glyph-name="Dcroat" unicode="&#x110;" horiz-adv-x="478" 
d="M15 275q-11 0 -11 13v83q0 13 11 13h27h191q11 0 11 -13v-83q0 -13 -11 -13h-218zM55 0q-13 0 -13 13v629q0 13 13 13h163q116 0 176 -70t60 -213v-77q0 -149 -59.5 -222t-172.5 -73h-167zM190 131h30q45 0 65.5 41t20.5 123v77q0 76 -21.5 114t-68.5 38h-26v-393z" />
    <glyph glyph-name="dcroat" unicode="&#x111;" horiz-adv-x="402" 
d="M169 550q-11 0 -11 13v65q0 12 11 12h223q11 0 11 -12v-65q0 -13 -11 -13h-26h-197zM120 -6q-49 0 -71.5 30.5t-22.5 99.5v234q0 73 26.5 109t80.5 36q28 0 54.5 -6.5t48.5 -18.5v-101q-25 10 -41 10q-13 0 -19.5 -9t-6.5 -28v-204q0 -16 5 -22t16 -6t20.5 6t19.5 18
l22 -61q-21 -37 -56.5 -62t-75.5 -25zM258 0q-11 0 -13 11q-3 16 -4.5 40.5t-1.5 42.5l-16 25v551q0 13 12 13h120q11 0 11 -13v-540q0 -33 0.5 -63t2.5 -53q2 -14 -10 -14h-101z" />
    <glyph glyph-name="Emacron" unicode="&#x112;" horiz-adv-x="395" 
d="M45 0q-11 0 -11 13v629q0 13 11 13h311q11 0 11 -13v-105q0 -13 -11 -13h-174v-131h157q11 0 11 -13v-99q0 -13 -11 -13h-157v-137h174q11 0 11 -13v-105q0 -13 -11 -13h-311zM104 717q-13 0 -13 13v76q0 12 13 12h193q13 0 13 -12v-76q0 -13 -13 -13h-193z" />
    <glyph glyph-name="emacron" unicode="&#x113;" horiz-adv-x="394" 
d="M196 -6q-87 0 -129.5 42t-42.5 131v158q0 86 44.5 132t126.5 46q89 0 132 -45.5t43 -140.5v-88q0 -14 -13 -14h-192v-60q0 -29 7 -40.5t24 -11.5t24.5 10.5t6.5 34.5q0 12 11 12h112q12 0 12 -12q2 -79 -39 -116.5t-127 -37.5zM165 298h64v50q0 24 -7.5 35.5t-24.5 11.5
q-16 0 -24 -11.5t-8 -35.5v-50zM113 570q-13 0 -13 13v76q0 13 13 13h168q13 0 13 -13v-76q0 -13 -13 -13h-168z" />
    <glyph glyph-name="Edotaccent" unicode="&#x116;" horiz-adv-x="395" 
d="M45 0q-11 0 -11 13v629q0 13 11 13h311q11 0 11 -13v-105q0 -13 -11 -13h-174v-131h157q11 0 11 -13v-99q0 -13 -11 -13h-157v-137h174q11 0 11 -13v-105q0 -13 -11 -13h-311zM200 720q-37 0 -59.5 18.5t-22.5 51.5v20q0 35 22.5 52.5t59.5 17.5q38 0 59.5 -17.5
t21.5 -52.5v-20q0 -33 -21.5 -51.5t-59.5 -18.5z" />
    <glyph glyph-name="edotaccent" unicode="&#x117;" horiz-adv-x="394" 
d="M196 -6q-87 0 -129.5 42t-42.5 131v158q0 86 44.5 132t126.5 46q89 0 132 -45.5t43 -140.5v-88q0 -14 -13 -14h-192v-60q0 -29 7 -40.5t24 -11.5t24.5 10.5t6.5 34.5q0 12 11 12h112q12 0 12 -12q2 -79 -39 -116.5t-127 -37.5zM165 298h64v50q0 24 -7.5 35.5t-24.5 11.5
q-16 0 -24 -11.5t-8 -35.5v-50zM197 554q-37 0 -59.5 18.5t-22.5 52.5v19q0 35 22.5 53t59.5 18q38 0 59.5 -18t21.5 -53v-19q0 -34 -21.5 -52.5t-59.5 -18.5z" />
    <glyph glyph-name="Eogonek" unicode="&#x118;" horiz-adv-x="395" 
d="M45 0q-11 0 -11 13v629q0 13 11 13h311q11 0 11 -13v-105q0 -13 -11 -13h-174v-131h157q11 0 11 -13v-99q0 -13 -11 -13h-157v-137h174q11 0 11 -13v-105q0 -13 -11 -13h-311zM280 -191q-44 0 -67 18.5t-23 55.5v12q0 48 36.5 81t101.5 52l11 -14l-1 -6
q-23 -17 -34.5 -34t-11.5 -33v-7q0 -11 5.5 -16t15.5 -5q5 0 9.5 0.5t10.5 1.5q11 2 11 -11v-74q0 -10 -10 -13q-14 -5 -27.5 -6.5t-26.5 -1.5z" />
    <glyph glyph-name="eogonek" unicode="&#x119;" horiz-adv-x="394" 
d="M196 -6q-87 0 -129.5 42t-42.5 131v158q0 86 44.5 132t126.5 46q89 0 132 -45.5t43 -140.5v-88q0 -14 -13 -14h-192v-60q0 -29 7 -40.5t24 -11.5t24.5 10.5t6.5 34.5q0 12 11 12h112q12 0 12 -12q2 -79 -39 -116.5t-127 -37.5zM165 298h64v50q0 24 -7.5 35.5t-24.5 11.5
q-16 0 -24 -11.5t-8 -35.5v-50zM224 -191q-44 0 -67 18.5t-23 55.5v12q0 48 36.5 81t101.5 52l11 -14l-1 -6q-23 -17 -34.5 -34t-11.5 -33v-7q0 -11 5.5 -16t15.5 -5q5 0 9.5 0.5t10.5 1.5q11 2 11 -11v-74q0 -10 -10 -13q-14 -5 -27.5 -6.5t-26.5 -1.5z" />
    <glyph glyph-name="Ecaron" unicode="&#x11a;" horiz-adv-x="395" 
d="M45 0q-11 0 -11 13v629q0 13 11 13h311q11 0 11 -13v-105q0 -13 -11 -13h-174v-131h157q11 0 11 -13v-99q0 -13 -11 -13h-157v-137h174q11 0 11 -13v-105q0 -13 -11 -13h-311zM193 712l-96 46q-6 4 -6 14v71q0 11 13 6l96 -37l97 37q13 4 13 -6v-71q0 -10 -7 -14l-95 -46
q-8 -4 -15 0z" />
    <glyph glyph-name="ecaron" unicode="&#x11b;" horiz-adv-x="394" 
d="M196 -6q-87 0 -129.5 42t-42.5 131v158q0 86 44.5 132t126.5 46q89 0 132 -45.5t43 -140.5v-88q0 -14 -13 -14h-192v-60q0 -29 7 -40.5t24 -11.5t24.5 10.5t6.5 34.5q0 12 11 12h112q12 0 12 -12q2 -79 -39 -116.5t-127 -37.5zM165 298h64v50q0 24 -7.5 35.5t-24.5 11.5
q-16 0 -24 -11.5t-8 -35.5v-50zM189 550l-87 48q-6 5 -6 14v74q0 12 13 6l87 -41l88 41q13 5 13 -6v-74q0 -9 -7 -14l-86 -48q-8 -4 -15 0z" />
    <glyph glyph-name="Gbreve" unicode="&#x11e;" horiz-adv-x="473" 
d="M194 -6q-80 0 -124 55.5t-44 166.5v208q0 116 53.5 176.5t156.5 60.5q102 0 154.5 -59t46.5 -159q-2 -13 -11 -13h-126q-11 0 -10 14q3 41 -10 62.5t-44 21.5q-34 0 -48 -24.5t-14 -78.5v-196q0 -57 12.5 -79.5t46.5 -22.5q29 0 44 22.5t15 64.5v33h-53q-11 0 -11 14v75
q0 13 11 13h187q11 0 11 -13v-172q0 -52 2 -88t6 -62q3 -14 -11 -14h-98q-9 0 -12 12q-2 10 -3.5 26.5t-1.5 36.5h-2q-17 -37 -45.5 -59t-77.5 -22zM236 701q-37 0 -62.5 12t-40.5 26q-4 4 -4 13v67q0 16 13 6q19 -13 41.5 -21t52.5 -8q31 0 53.5 8t40.5 21q5 5 9 3t4 -9
v-67q0 -9 -4 -13q-16 -15 -41 -26.5t-62 -11.5z" />
    <glyph glyph-name="gbreve" unicode="&#x11f;" horiz-adv-x="388" 
d="M185 -191q-95 0 -139 27t-44 84q0 40 18.5 68t57.5 47l97 -26q-16 -11 -24 -23.5t-8 -28.5q0 -19 12 -28.5t38 -9.5q32 -1 44.5 8.5t12.5 30.5t-9 29.5t-33 11.5l-91 8q-44 5 -67.5 30t-23.5 66q0 24 9 42.5t25.5 32.5t38.5 23l75 -34q-14 -4 -21 -11t-7 -16
q0 -8 6 -13.5t25 -7.5l84 -10q66 -7 95 -41.5t29 -108.5q0 -77 -47 -113.5t-153 -36.5zM194 155q-86 0 -122 42t-36 136q0 88 36 129t122 41q87 0 122.5 -41t35.5 -129q0 -94 -35.5 -136t-122.5 -42zM194 262q17 0 22 13t5 54t-5 54t-22 13q-16 0 -21.5 -13.5t-5.5 -53.5
q0 -41 5.5 -54t21.5 -13zM192 545q-33 0 -58 11t-40 25q-4 4 -4 13v70q0 8 3.5 9.5t9.5 -2.5q19 -14 40.5 -22.5t48.5 -8.5q26 0 48 8.5t40 22.5q6 4 9.5 2.5t3.5 -9.5v-70q0 -9 -4 -13q-15 -15 -39.5 -25.5t-57.5 -10.5z" />
    <glyph glyph-name="Gdotaccent" unicode="&#x120;" horiz-adv-x="473" 
d="M194 -6q-80 0 -124 55.5t-44 166.5v208q0 116 53.5 176.5t156.5 60.5q102 0 154.5 -59t46.5 -159q-2 -13 -11 -13h-126q-11 0 -10 14q3 41 -10 62.5t-44 21.5q-34 0 -48 -24.5t-14 -78.5v-196q0 -57 12.5 -79.5t46.5 -22.5q29 0 44 22.5t15 64.5v33h-53q-11 0 -11 14v75
q0 13 11 13h187q11 0 11 -13v-172q0 -52 2 -88t6 -62q3 -14 -11 -14h-98q-9 0 -12 12q-2 10 -3.5 26.5t-1.5 36.5h-2q-17 -37 -45.5 -59t-77.5 -22zM236 720q-37 0 -59.5 18.5t-22.5 51.5v20q0 35 22.5 52.5t59.5 17.5q38 0 59.5 -17.5t21.5 -52.5v-20q0 -33 -21.5 -51.5
t-59.5 -18.5z" />
    <glyph glyph-name="gdotaccent" unicode="&#x121;" horiz-adv-x="388" 
d="M185 -191q-95 0 -139 27t-44 84q0 40 18.5 68t57.5 47l97 -26q-16 -11 -24 -23.5t-8 -28.5q0 -19 12 -28.5t38 -9.5q32 -1 44.5 8.5t12.5 30.5t-9 29.5t-33 11.5l-91 8q-44 5 -67.5 30t-23.5 66q0 24 9 42.5t25.5 32.5t38.5 23l75 -34q-14 -4 -21 -11t-7 -16
q0 -8 6 -13.5t25 -7.5l84 -10q66 -7 95 -41.5t29 -108.5q0 -77 -47 -113.5t-153 -36.5zM194 155q-86 0 -122 42t-36 136q0 88 36 129t122 41q87 0 122.5 -41t35.5 -129q0 -94 -35.5 -136t-122.5 -42zM194 262q17 0 22 13t5 54t-5 54t-22 13q-16 0 -21.5 -13.5t-5.5 -53.5
q0 -41 5.5 -54t21.5 -13zM192 554q-37 0 -59.5 18.5t-22.5 52.5v19q0 35 22.5 53t59.5 18q38 0 59.5 -18t21.5 -53v-19q0 -34 -21.5 -52.5t-59.5 -18.5z" />
    <glyph glyph-name="uni0122" unicode="&#x122;" horiz-adv-x="473" 
d="M194 -6q-80 0 -124 55.5t-44 166.5v208q0 116 53.5 176.5t156.5 60.5q102 0 154.5 -59t46.5 -159q-2 -13 -11 -13h-126q-11 0 -10 14q3 41 -10 62.5t-44 21.5q-34 0 -48 -24.5t-14 -78.5v-196q0 -57 12.5 -79.5t46.5 -22.5q29 0 44 22.5t15 64.5v33h-53q-11 0 -11 14v75
q0 13 11 13h187q11 0 11 -13v-172q0 -52 2 -88t6 -62q3 -14 -11 -14h-98q-9 0 -12 12q-2 10 -3.5 26.5t-1.5 36.5h-2q-17 -37 -45.5 -59t-77.5 -22zM186 -260q-11 0 -8 12l14 70q-10 6 -18 17t-8 35v18q0 28 16.5 43t46.5 15t46.5 -15t16.5 -43v-20q0 -13 -1.5 -25.5
t-7.5 -26.5l-27 -71q-4 -9 -11 -9h-59z" />
    <glyph glyph-name="uni0123" unicode="&#x123;" horiz-adv-x="388" 
d="M185 -191q-95 0 -139 27t-44 84q0 40 18.5 68t57.5 47l97 -26q-16 -11 -24 -23.5t-8 -28.5q0 -19 12 -28.5t38 -9.5q32 -1 44.5 8.5t12.5 30.5t-9 29.5t-33 11.5l-91 8q-44 5 -67.5 30t-23.5 66q0 24 9 42.5t25.5 32.5t38.5 23l75 -34q-14 -4 -21 -11t-7 -16
q0 -8 6 -13.5t25 -7.5l84 -10q66 -7 95 -41.5t29 -108.5q0 -77 -47 -113.5t-153 -36.5zM194 155q-86 0 -122 42t-36 136q0 88 36 129t122 41q87 0 122.5 -41t35.5 -129q0 -94 -35.5 -136t-122.5 -42zM194 262q17 0 22 13t5 54t-5 54t-22 13q-16 0 -21.5 -13.5t-5.5 -53.5
q0 -41 5.5 -54t21.5 -13zM190 553q-28 0 -45 14.5t-17 43.5v19q0 14 1.5 26t7.5 27l27 71q4 9 11 9h59q10 0 8 -12l-15 -70q11 -7 19 -17.5t8 -35.5v-17q0 -29 -17 -43.5t-47 -14.5z" />
    <glyph glyph-name="Hbar" unicode="&#x126;" horiz-adv-x="480" 
d="M5 495q-11 0 -11 13v71q0 12 11 12h470q11 0 11 -12v-71q0 -13 -11 -13h-29h-412h-29zM46 0q-12 0 -12 13v629q0 13 12 13h124q12 0 12 -13v-246h116v246q0 13 12 13h124q12 0 12 -13v-629q0 -13 -12 -13h-124q-12 0 -12 13v252h-116v-252q0 -13 -12 -13h-124z" />
    <glyph glyph-name="hbar" unicode="&#x127;" horiz-adv-x="406" 
d="M10 550q-11 0 -11 13v65q0 12 11 12h223q11 0 11 -12v-65q0 -13 -11 -13h-197h-26zM246 0q-11 0 -11 13v335q0 17 -5 24.5t-17 7.5q-9 0 -19 -6t-19 -16l-23 61q24 34 58.5 59t76.5 25q48 0 69.5 -31t21.5 -100v-359q0 -13 -11 -13h-121zM47 0q-11 0 -11 13v657
q0 13 11 13h121q11 0 11 -13v-657q0 -13 -11 -13h-121z" />
    <glyph glyph-name="Imacron" unicode="&#x12a;" horiz-adv-x="216" 
d="M45 0q-11 0 -11 13v629q0 13 11 13h126q11 0 11 -13v-629q0 -13 -11 -13h-126zM13 717q-13 0 -13 13v76q0 12 13 12h193q13 0 13 -12v-76q0 -13 -13 -13h-193z" />
    <glyph glyph-name="imacron" unicode="&#x12b;" horiz-adv-x="199" 
d="M39 0q-11 0 -11 13v472q0 12 11 12h121q11 0 11 -12v-472q0 -13 -11 -13h-121zM15 570q-13 0 -13 13v76q0 13 13 13h168q13 0 13 -13v-76q0 -13 -13 -13h-168z" />
    <glyph glyph-name="Iogonek" unicode="&#x12e;" horiz-adv-x="216" 
d="M45 0q-11 0 -11 13v629q0 13 11 13h126q11 0 11 -13v-629q0 -13 -11 -13h-126zM118 -191q-44 0 -67 18.5t-23 55.5v12q0 48 36.5 81t101.5 52l11 -14l-1 -6q-23 -17 -34.5 -34t-11.5 -33v-7q0 -11 5.5 -16t15.5 -5q5 0 9.5 0.5t10.5 1.5q11 2 11 -11v-74q0 -10 -10 -13
q-14 -5 -27.5 -6.5t-26.5 -1.5z" />
    <glyph glyph-name="iogonek" unicode="&#x12f;" horiz-adv-x="199" 
d="M39 0q-11 0 -11 13v472q0 12 11 12h121q11 0 11 -12v-472q0 -13 -11 -13h-121zM100 554q-37 0 -59.5 18.5t-22.5 52.5v19q0 35 22.5 53t59.5 18q38 0 59.5 -18t21.5 -53v-19q0 -34 -21.5 -52.5t-59.5 -18.5zM96 -191q-44 0 -67 18.5t-23 55.5v12q0 48 36.5 81t101.5 52
l11 -14l-1 -6q-23 -17 -34.5 -34t-11.5 -33v-7q0 -11 5.5 -16t15.5 -5q5 0 9.5 0.5t10.5 1.5q11 2 11 -11v-74q0 -10 -10 -13q-14 -5 -27.5 -6.5t-26.5 -1.5z" />
    <glyph glyph-name="Idotaccent" unicode="&#x130;" horiz-adv-x="216" 
d="M45 0q-11 0 -11 13v629q0 13 11 13h126q11 0 11 -13v-629q0 -13 -11 -13h-126zM110 720q-37 0 -59.5 18.5t-22.5 51.5v20q0 35 22.5 52.5t59.5 17.5q38 0 59.5 -17.5t21.5 -52.5v-20q0 -33 -21.5 -51.5t-59.5 -18.5z" />
    <glyph glyph-name="dotlessi" unicode="&#x131;" horiz-adv-x="199" 
d="M39 0q-11 0 -11 13v472q0 12 11 12h121q11 0 11 -12v-472q0 -13 -11 -13h-121z" />
    <glyph glyph-name="IJ" unicode="&#x132;" horiz-adv-x="431" 
d="M45 0q-11 0 -11 13v629q0 13 11 13h126q11 0 11 -13v-629q0 -13 -11 -13h-126zM240 -162q-8 -2 -11 9l-31 98q-2 7 0 11.5t5 5.5q15 7 26 18.5t16 35t5 66.5v560q0 13 11 13h126q11 0 11 -13v-553q0 -76 -17.5 -128t-52.5 -82t-88 -41z" />
    <glyph glyph-name="ij" unicode="&#x133;" horiz-adv-x="395" 
d="M39 0q-11 0 -11 13v472q0 12 11 12h121q11 0 11 -12v-472q0 -13 -11 -13h-121zM100 554q-37 0 -59.5 18.5t-22.5 52.5v19q0 35 22.5 53t59.5 18q38 0 59.5 -18t21.5 -53v-19q0 -34 -21.5 -52.5t-59.5 -18.5zM266 -188q-3 -2 -6 -1t-6 5l-70 80q-9 10 -1 17
q26 26 34.5 62.5t8.5 104.5v405q0 12 11 12h121q11 0 11 -12v-405q0 -69 -8.5 -117t-30.5 -84t-64 -67zM300 554q-37 0 -59.5 18.5t-22.5 52.5v19q0 35 22.5 53t59.5 18q38 0 59.5 -18t21.5 -53v-19q0 -34 -21.5 -52.5t-59.5 -18.5z" />
    <glyph glyph-name="uni0136" unicode="&#x136;" horiz-adv-x="462" 
d="M45 0q-11 0 -11 13v629q0 13 11 13h126q11 0 11 -13v-111q0 -19 -1 -49t-2.5 -59t-2.5 -49h1q9 29 20 69.5t31 86.5l53 118q2 7 12 7h140q13 0 6 -16l-116 -261l137 -362q7 -16 -8 -16h-149q-10 0 -13 8l-75 246l-33 -63v-178q0 -13 -11 -13h-126zM186 -260q-11 0 -8 12
l14 70q-10 6 -18 17t-8 35v18q0 28 16.5 43t46.5 15t46.5 -15t16.5 -43v-20q0 -13 -1.5 -25.5t-7.5 -26.5l-27 -71q-4 -9 -11 -9h-59z" />
    <glyph glyph-name="uni0137" unicode="&#x137;" horiz-adv-x="408" 
d="M39 0q-11 0 -11 13v657q0 13 11 13h120q12 0 12 -13v-208q0 -21 -1 -49.5t-2 -56.5t-4 -50h3q8 25 17.5 50.5t21.5 50.5l39 83q4 7 13 7h131q14 0 6 -14l-107 -204l114 -263q8 -16 -7 -16h-137q-10 0 -13 8l-58 157l-16 -32v-120q0 -13 -11 -13h-121zM169 -267
q-11 0 -8 12l14 70q-10 7 -18 17.5t-8 34.5v18q0 29 16.5 43.5t46.5 14.5t46.5 -14.5t16.5 -43.5v-19q0 -14 -1.5 -26t-7.5 -27l-27 -71q-4 -9 -11 -9h-59z" />
    <glyph glyph-name="kgreenlandic" unicode="&#x138;" horiz-adv-x="408" 
d="M39 0q-11 0 -11 13v471q0 13 11 13h120q12 0 12 -13v-27q0 -19 -1 -46t-2 -55.5t-4 -50.5h3q8 25 17.5 51t21.5 51l39 83q4 7 13 7h131q14 0 6 -14l-107 -204l114 -263q8 -16 -7 -16h-137q-10 0 -13 8l-58 157l-16 -32v-120q0 -13 -11 -13h-121z" />
    <glyph glyph-name="Lacute" unicode="&#x139;" horiz-adv-x="361" 
d="M46 0q-12 0 -12 13v629q0 13 12 13h124q12 0 12 -13v-511h156q12 0 12 -13v-105q0 -13 -11 -13h-293zM33 708q-7 0 -9 4.5t1 9.5l58 113q6 9 16 9h97q6 0 8.5 -4t-2.5 -11l-73 -111q-7 -10 -19 -10h-77z" />
    <glyph glyph-name="lacute" unicode="&#x13a;" horiz-adv-x="199" 
d="M39 0q-11 0 -11 13v657q0 13 11 13h121q11 0 11 -13v-657q0 -13 -11 -13h-121zM23 736q-7 0 -9 4.5t1 9.5l58 113q6 9 16 9h97q6 0 8.5 -4t-2.5 -11l-73 -111q-7 -10 -19 -10h-77z" />
    <glyph glyph-name="uni013B" unicode="&#x13b;" horiz-adv-x="361" 
d="M46 0q-12 0 -12 13v629q0 13 12 13h124q12 0 12 -13v-511h156q12 0 12 -13v-105q0 -13 -11 -13h-293zM150 -260q-11 0 -8 12l14 70q-10 6 -18 17t-8 35v18q0 28 16.5 43t46.5 15t46.5 -15t16.5 -43v-20q0 -13 -1.5 -25.5t-7.5 -26.5l-27 -71q-4 -9 -11 -9h-59z" />
    <glyph glyph-name="uni013C" unicode="&#x13c;" horiz-adv-x="199" 
d="M39 0q-11 0 -11 13v657q0 13 11 13h121q11 0 11 -13v-657q0 -13 -11 -13h-121zM56 -267q-11 0 -8 12l14 70q-10 7 -18 17.5t-8 34.5v18q0 29 16.5 43.5t46.5 14.5t46.5 -14.5t16.5 -43.5v-19q0 -14 -1.5 -26t-7.5 -27l-27 -71q-4 -9 -11 -9h-59z" />
    <glyph glyph-name="Lcaron" unicode="&#x13d;" horiz-adv-x="361" 
d="M46 0q-12 0 -12 13v629q0 13 12 13h124q12 0 12 -13v-511h156q12 0 12 -13v-105q0 -13 -11 -13h-293zM250 499q-7 0 -6 10l11 54q-9 5 -17.5 13.5t-8.5 26.5v15q0 24 14.5 36.5t43.5 12.5q24 0 39 -12t15 -36v-17q0 -8 -1.5 -18.5t-6.5 -22.5l-19 -54q-3 -8 -9 -8h-55z
" />
    <glyph glyph-name="lcaron" unicode="&#x13e;" horiz-adv-x="196" 
d="M39 0q-11 0 -11 13v657q0 13 11 13h121q11 0 11 -13v-657q0 -13 -11 -13h-121zM223 528q-7 0 -6 10l11 54q-9 5 -17.5 13.5t-8.5 26.5v15q0 24 14.5 36.5t43.5 12.5q24 0 39 -12t15 -36v-17q0 -8 -1.5 -18.5t-6.5 -22.5l-19 -54q-3 -8 -9 -8h-55z" />
    <glyph glyph-name="Lslash" unicode="&#x141;" horiz-adv-x="367" 
d="M12 243q-10 -5 -10 8v91q0 10 8 13l244 109q13 5 13 -8v-91q0 -9 -9 -13zM52 0q-12 0 -12 13v629q0 13 12 13h124q12 0 12 -13v-511h156q12 0 12 -13v-105q0 -13 -11 -13h-293z" />
    <glyph glyph-name="lslash" unicode="&#x142;" horiz-adv-x="199" 
d="M5 320q-4 -2 -6.5 -0.5t-2.5 5.5v83q0 9 8 12l190 90q9 5 9 -5v-83q0 -9 -8 -12l-167 -78zM39 0q-11 0 -11 13v657q0 13 11 13h121q11 0 11 -13v-657q0 -13 -11 -13h-121z" />
    <glyph glyph-name="Nacute" unicode="&#x143;" horiz-adv-x="481" 
d="M46 0q-12 0 -12 13v629q0 13 11 13h151q9 0 12 -9l72 -271l13.5 -54t14 -60t10.5 -52h2q-2 20 -4 49.5t-4 61.5t-2.5 62t-0.5 50v210q0 13 12 13h114q12 0 12 -13v-629q0 -13 -11 -13h-150q-9 0 -12 9l-75 269q-11 40 -20 83.5t-16 79.5h-2q3 -29 5.5 -71.5t4 -84.5
t1.5 -71v-201q0 -13 -11 -13h-115zM164 708q-7 0 -9 4.5t1 9.5l58 113q6 9 16 9h97q6 0 8.5 -4t-2.5 -11l-73 -111q-7 -10 -19 -10h-77z" />
    <glyph glyph-name="nacute" unicode="&#x144;" horiz-adv-x="398" 
d="M239 0q-12 0 -12 13v335q0 17 -5 24.5t-17 7.5q-10 0 -19.5 -6t-18.5 -16l-23 61q23 34 58 59t77 25q47 0 69 -31t22 -100v-359q0 -13 -12 -13h-119zM40 0q-12 0 -12 13v355q0 33 -0.5 62.5t-2.5 52.5q-1 14 10 14h102q10 0 12 -11q2 -15 4 -39.5t2 -43.5l16 -33v-357
q0 -13 -12 -13h-119zM130 557q-7 0 -9 4t1 10l67 128q5 10 16 10h98q6 0 8.5 -4.5t-2.5 -11.5l-84 -126q-7 -10 -19 -10h-76z" />
    <glyph glyph-name="uni0145" unicode="&#x145;" horiz-adv-x="481" 
d="M46 0q-12 0 -12 13v629q0 13 11 13h151q9 0 12 -9l72 -271l13.5 -54t14 -60t10.5 -52h2q-2 20 -4 49.5t-4 61.5t-2.5 62t-0.5 50v210q0 13 12 13h114q12 0 12 -13v-629q0 -13 -11 -13h-150q-9 0 -12 9l-75 269q-11 40 -20 83.5t-16 79.5h-2q3 -29 5.5 -71.5t4 -84.5
t1.5 -71v-201q0 -13 -11 -13h-115zM197 -260q-11 0 -8 12l14 70q-10 6 -18 17t-8 35v18q0 28 16.5 43t46.5 15t46.5 -15t16.5 -43v-20q0 -13 -1.5 -25.5t-7.5 -26.5l-27 -71q-4 -9 -11 -9h-59z" />
    <glyph glyph-name="uni0146" unicode="&#x146;" horiz-adv-x="398" 
d="M239 0q-12 0 -12 13v335q0 17 -5 24.5t-17 7.5q-10 0 -19.5 -6t-18.5 -16l-23 61q23 34 58 59t77 25q47 0 69 -31t22 -100v-359q0 -13 -12 -13h-119zM40 0q-12 0 -12 13v355q0 33 -0.5 62.5t-2.5 52.5q-1 14 10 14h102q10 0 12 -11q2 -15 4 -39.5t2 -43.5l16 -33v-357
q0 -13 -12 -13h-119zM159 -267q-11 0 -8 12l14 70q-10 7 -18 17.5t-8 34.5v18q0 29 16.5 43.5t46.5 14.5t46.5 -14.5t16.5 -43.5v-19q0 -14 -1.5 -26t-7.5 -27l-27 -71q-4 -9 -11 -9h-59z" />
    <glyph glyph-name="Ncaron" unicode="&#x147;" horiz-adv-x="481" 
d="M46 0q-12 0 -12 13v629q0 13 11 13h151q9 0 12 -9l72 -271l13.5 -54t14 -60t10.5 -52h2q-2 20 -4 49.5t-4 61.5t-2.5 62t-0.5 50v210q0 13 12 13h114q12 0 12 -13v-629q0 -13 -11 -13h-150q-9 0 -12 9l-75 269q-11 40 -20 83.5t-16 79.5h-2q3 -29 5.5 -71.5t4 -84.5
t1.5 -71v-201q0 -13 -11 -13h-115zM233 712l-96 46q-6 4 -6 14v71q0 11 13 6l96 -37l97 37q13 4 13 -6v-71q0 -10 -7 -14l-95 -46q-8 -4 -15 0z" />
    <glyph glyph-name="ncaron" unicode="&#x148;" horiz-adv-x="398" 
d="M239 0q-12 0 -12 13v335q0 17 -5 24.5t-17 7.5q-10 0 -19.5 -6t-18.5 -16l-23 61q23 34 58 59t77 25q47 0 69 -31t22 -100v-359q0 -13 -12 -13h-119zM40 0q-12 0 -12 13v355q0 33 -0.5 62.5t-2.5 52.5q-1 14 10 14h102q10 0 12 -11q2 -15 4 -39.5t2 -43.5l16 -33v-357
q0 -13 -12 -13h-119zM195 550l-87 48q-6 5 -6 14v74q0 12 13 6l87 -41l88 41q13 5 13 -6v-74q0 -9 -7 -14l-86 -48q-8 -4 -15 0z" />
    <glyph glyph-name="Eng" unicode="&#x14a;" horiz-adv-x="481" 
d="M332 -184l-70 80q-8 10 -1 17q17 16 26.5 37t13.5 50h-15q-9 0 -12 9l-75 269q-11 40 -20 83.5t-16 79.5h-2q3 -29 5.5 -71.5t4 -84.5t1.5 -71v-201q0 -13 -11 -13h-115q-12 0 -12 13v629q0 13 11 13h151q9 0 12 -9l72 -271l13.5 -54t14 -60t10.5 -52h2q-2 20 -4 49.5
t-4 61.5t-2.5 62t-0.5 50v210q0 13 12 13h114q12 0 12 -13v-566q0 -68 -8.5 -115t-30.5 -82.5t-63 -65.5q-6 -5 -13 3z" />
    <glyph glyph-name="eng" unicode="&#x14b;" horiz-adv-x="398" 
d="M268 -187q-7 -5 -13 3l-70 80q-9 10 -1 17q27 26 35 63t8 104v268q0 17 -5 24.5t-17 7.5q-9 0 -17.5 -4.5t-16.5 -12.5v-350q0 -13 -12 -13h-119q-12 0 -12 13v355q0 33 -0.5 62.5t-2.5 52.5q-1 14 10 14h102q10 0 12 -11q2 -10 2.5 -24t1.5 -29q24 29 56 49.5t70 20.5
q47 0 69 -31t22 -100v-291q0 -69 -8.5 -117.5t-30.5 -84.5t-63 -66z" />
    <glyph glyph-name="Omacron" unicode="&#x14c;" horiz-adv-x="472" 
d="M236 -6q-103 0 -156.5 58.5t-53.5 172.5v204q0 115 53.5 173.5t156.5 58.5t156.5 -58.5t53.5 -173.5v-204q0 -114 -53.5 -172.5t-156.5 -58.5zM236 127q33 0 47.5 23t14.5 80v194q0 58 -14.5 81t-47.5 23t-47.5 -23t-14.5 -81v-194q0 -57 14.5 -80t47.5 -23zM140 717
q-13 0 -13 13v76q0 12 13 12h193q13 0 13 -12v-76q0 -13 -13 -13h-193z" />
    <glyph glyph-name="omacron" unicode="&#x14d;" horiz-adv-x="394" 
d="M197 -6q-82 0 -127.5 45t-45.5 130v161q0 83 45.5 128t127.5 45q83 0 128 -45t45 -128v-161q0 -85 -45 -130t-128 -45zM197 118q16 0 23.5 12t7.5 40v158q0 29 -7.5 40.5t-23.5 11.5t-23.5 -11.5t-7.5 -40.5v-158q0 -28 7.5 -40t23.5 -12zM113 570q-13 0 -13 13v76
q0 13 13 13h168q13 0 13 -13v-76q0 -13 -13 -13h-168z" />
    <glyph glyph-name="Ohungarumlaut" unicode="&#x150;" horiz-adv-x="472" 
d="M236 -6q-103 0 -156.5 58.5t-53.5 172.5v204q0 115 53.5 173.5t156.5 58.5t156.5 -58.5t53.5 -173.5v-204q0 -114 -53.5 -172.5t-156.5 -58.5zM236 127q33 0 47.5 23t14.5 80v194q0 58 -14.5 81t-47.5 23t-47.5 -23t-14.5 -81v-194q0 -57 14.5 -80t47.5 -23zM265 708
q-16 0 -9 16l45 115q3 10 14 10h91q6 0 9 -4t-2 -12l-59 -115q-5 -10 -16 -10h-73zM116 708q-16 0 -9 16l45 115q4 10 14 10h91q6 0 9 -4t-2 -12l-59 -115q-4 -10 -16 -10h-73z" />
    <glyph glyph-name="ohungarumlaut" unicode="&#x151;" horiz-adv-x="394" 
d="M197 -6q-82 0 -127.5 45t-45.5 130v161q0 83 45.5 128t127.5 45q83 0 128 -45t45 -128v-161q0 -85 -45 -130t-128 -45zM197 118q16 0 23.5 12t7.5 40v158q0 29 -7.5 40.5t-23.5 11.5t-23.5 -11.5t-7.5 -40.5v-158q0 -28 7.5 -40t23.5 -12zM79 557q-16 0 -9 16l53 136
q3 10 14 10h94q6 0 9 -4t-1 -11l-71 -137q-5 -10 -16 -10h-73zM230 557q-16 0 -9 16l52 136q4 10 15 10h94q6 0 9 -4t-1 -11l-71 -137q-5 -10 -16 -10h-73z" />
    <glyph glyph-name="OE" unicode="&#x152;" horiz-adv-x="635" 
d="M236 -6q-103 0 -156.5 58.5t-53.5 172.5v204q0 115 53.5 173.5t156.5 58.5q17 0 33 -1.5t31 -4.5h297q10 0 10 -13v-105q0 -13 -10 -13h-174v-131h158q10 0 10 -13v-99q0 -13 -10 -13h-158v-137h174q10 0 10 -13v-105q0 -13 -10 -13h-297q-15 -3 -31 -4.5t-33 -1.5z
M236 127q12 0 21.5 2.5t17.5 7.5v381q-8 6 -17.5 8t-21.5 2q-33 0 -47.5 -23t-14.5 -81v-194q0 -57 14.5 -80t47.5 -23z" />
    <glyph glyph-name="oe" unicode="&#x153;" horiz-adv-x="599" 
d="M190 -6q-77 0 -121.5 45t-44.5 130v161q0 83 44.5 128t118.5 45q40 0 66.5 -11t45.5 -29q19 18 47.5 29t67.5 11q76 0 118.5 -46t42.5 -140v-88q0 -14 -13 -14h-192v-60q0 -29 7 -40.5t24 -11.5t24.5 10.5t6.5 34.5q0 12 11 12h113q12 0 12 -12q1 -79 -39 -116.5
t-123 -37.5q-38 0 -64.5 9.5t-46.5 28.5q-20 -19 -45 -28.5t-60 -9.5zM197 118q16 0 23 12t7 40v158q0 29 -7 40.5t-23 11.5t-23.5 -11.5t-7.5 -40.5v-158q0 -28 7.5 -40t23.5 -12zM370 298h64v50q0 25 -7.5 36t-24.5 11t-24.5 -11t-7.5 -36v-50z" />
    <glyph glyph-name="Racute" unicode="&#x154;" horiz-adv-x="452" 
d="M45 0q-11 0 -11 13v629q0 13 11 13h164q108 0 158 -47.5t50 -152.5q0 -71 -18.5 -115t-58.5 -65l-1 -1l104 -258q5 -16 -8 -16h-137q-11 0 -14 8l-82 239h-20v-234q0 -13 -11 -13h-126zM182 369h28q31 0 45 19.5t14 59.5q0 39 -14.5 57.5t-45.5 18.5h-27v-155zM124 708
q-7 0 -9 4.5t1 9.5l58 113q6 9 16 9h97q6 0 8.5 -4t-2.5 -11l-73 -111q-7 -10 -19 -10h-77z" />
    <glyph glyph-name="racute" unicode="&#x155;" horiz-adv-x="300" 
d="M39 0q-11 0 -11 13v355q0 33 -0.5 62.5t-2.5 52.5q-1 14 10 14h103q10 0 11 -10q2 -16 4 -40.5t2 -43.5l16 -33v-357q0 -13 -12 -13h-120zM161 310l-12 121q13 16 29.5 32.5t36 28t40.5 11.5q13 0 21 -2q6 -2 7.5 -6t1.5 -10q0 -26 -1 -56.5t-3 -58.5q-1 -12 -10 -11
q-5 1 -11.5 1.5t-13.5 0.5q-22 0 -44.5 -14.5t-40.5 -36.5zM77 557q-7 0 -9 4t1 10l67 128q5 10 16 10h98q6 0 8.5 -4.5t-2.5 -11.5l-84 -126q-7 -10 -19 -10h-76z" />
    <glyph glyph-name="uni0156" unicode="&#x156;" horiz-adv-x="452" 
d="M45 0q-11 0 -11 13v629q0 13 11 13h164q108 0 158 -47.5t50 -152.5q0 -71 -18.5 -115t-58.5 -65l-1 -1l104 -258q5 -16 -8 -16h-137q-11 0 -14 8l-82 239h-20v-234q0 -13 -11 -13h-126zM182 369h28q31 0 45 19.5t14 59.5q0 39 -14.5 57.5t-45.5 18.5h-27v-155zM192 -260
q-11 0 -8 12l14 70q-10 6 -18 17t-8 35v18q0 28 16.5 43t46.5 15t46.5 -15t16.5 -43v-20q0 -13 -1.5 -25.5t-7.5 -26.5l-27 -71q-4 -9 -11 -9h-59z" />
    <glyph glyph-name="uni0157" unicode="&#x157;" horiz-adv-x="300" 
d="M39 0q-11 0 -11 13v355q0 33 -0.5 62.5t-2.5 52.5q-1 14 10 14h103q10 0 11 -10q2 -16 4 -40.5t2 -43.5l16 -33v-357q0 -13 -12 -13h-120zM161 310l-12 121q13 16 29.5 32.5t36 28t40.5 11.5q13 0 21 -2q6 -2 7.5 -6t1.5 -10q0 -26 -1 -56.5t-3 -58.5q-1 -12 -10 -11
q-5 1 -11.5 1.5t-13.5 0.5q-22 0 -44.5 -14.5t-40.5 -36.5zM59 -267q-11 0 -8 12l14 70q-10 7 -18 17.5t-8 34.5v18q0 29 16.5 43.5t46.5 14.5t46.5 -14.5t16.5 -43.5v-19q0 -14 -1.5 -26t-7.5 -27l-27 -71q-4 -9 -11 -9h-59z" />
    <glyph glyph-name="Rcaron" unicode="&#x158;" horiz-adv-x="452" 
d="M45 0q-11 0 -11 13v629q0 13 11 13h164q108 0 158 -47.5t50 -152.5q0 -71 -18.5 -115t-58.5 -65l-1 -1l104 -258q5 -16 -8 -16h-137q-11 0 -14 8l-82 239h-20v-234q0 -13 -11 -13h-126zM182 369h28q31 0 45 19.5t14 59.5q0 39 -14.5 57.5t-45.5 18.5h-27v-155zM194 712
l-96 46q-6 4 -6 14v71q0 11 13 6l96 -37l97 37q13 4 13 -6v-71q0 -10 -7 -14l-95 -46q-8 -4 -15 0z" />
    <glyph glyph-name="rcaron" unicode="&#x159;" horiz-adv-x="300" 
d="M39 0q-11 0 -11 13v355q0 33 -0.5 62.5t-2.5 52.5q-1 14 10 14h103q10 0 11 -10q2 -16 4 -40.5t2 -43.5l16 -33v-357q0 -13 -12 -13h-120zM161 310l-12 121q13 16 29.5 32.5t36 28t40.5 11.5q13 0 21 -2q6 -2 7.5 -6t1.5 -10q0 -26 -1 -56.5t-3 -58.5q-1 -12 -10 -11
q-5 1 -11.5 1.5t-13.5 0.5q-22 0 -44.5 -14.5t-40.5 -36.5zM142 550l-87 48q-6 5 -6 14v74q0 12 13 6l87 -41l88 41q13 5 13 -6v-74q0 -9 -7 -14l-86 -48q-8 -4 -15 0z" />
    <glyph glyph-name="Sacute" unicode="&#x15a;" horiz-adv-x="408" 
d="M199 -6q-67 0 -108.5 23.5t-58.5 69t-11 108.5q1 14 11 14h123q10 0 9 -13q-2 -34 7 -55t30 -21q20 0 29.5 12t9.5 39q0 22 -9 40.5t-27 32.5l-87 67q-50 38 -74 79t-23 104q1 81 44 124t132 43q99 0 145 -50.5t38 -144.5q-1 -16 -12 -16h-124q-12 0 -11 16q3 27 -3.5 48
t-26.5 21q-17 0 -25.5 -10.5t-8.5 -33.5q0 -25 11 -41t28 -29l85 -65q37 -27 57.5 -52.5t30 -57t8.5 -76.5q-1 -86 -45.5 -131t-143.5 -45zM124 708q-7 0 -9 4.5t1 9.5l58 113q6 9 16 9h97q6 0 8.5 -4t-2.5 -11l-73 -111q-7 -10 -19 -10h-77z" />
    <glyph glyph-name="sacute" unicode="&#x15b;" horiz-adv-x="362" 
d="M174 -6q-87 0 -123.5 39t-27.5 117q1 13 12 13h106q12 0 11 -13q-2 -29 3 -42t19 -13q25 0 25 36q0 21 -8.5 33.5t-28.5 27.5l-76 55q-30 22 -47.5 51.5t-17.5 70.5q0 66 38.5 100t118.5 34q84 0 122 -36t36 -107q0 -13 -12 -13h-104q-7 0 -10 4t-2 11q2 20 -3.5 30
t-18.5 10q-23 0 -23 -27q0 -17 7 -28t25 -23l71 -52q38 -26 57 -57t19 -78q0 -71 -41 -107t-127 -36zM104 557q-7 0 -9 4t1 10l67 128q5 10 16 10h98q6 0 8.5 -4.5t-2.5 -11.5l-84 -126q-7 -10 -19 -10h-76z" />
    <glyph glyph-name="Scedilla" unicode="&#x15e;" horiz-adv-x="408" 
d="M199 -6q-67 0 -108.5 23.5t-58.5 69t-11 108.5q1 14 11 14h123q10 0 9 -13q-2 -34 7 -55t30 -21q20 0 29.5 12t9.5 39q0 22 -9 40.5t-27 32.5l-87 67q-50 38 -74 79t-23 104q1 81 44 124t132 43q99 0 145 -50.5t38 -144.5q-1 -16 -12 -16h-124q-12 0 -11 16q3 27 -3.5 48
t-26.5 21q-17 0 -25.5 -10.5t-8.5 -33.5q0 -25 11 -41t28 -29l85 -65q37 -27 57.5 -52.5t30 -57t8.5 -76.5q-1 -86 -45.5 -131t-143.5 -45zM195 -193q-16 0 -30.5 1.5t-25.5 3.5q-9 3 -9 10v55q0 11 8 9q4 -1 9.5 -1.5t12.5 -0.5q14 0 21.5 6t7.5 15v7q0 12 -8.5 16t-20.5 4
h-9q-6 0 -6 6q0 5 -0.5 11.5t0.5 10.5l26 81q3 10 12 10h60q14 0 9 -14l-24 -64h8q26 0 40 -17.5t14 -44.5v-19q0 -39 -22 -62t-73 -23z" />
    <glyph glyph-name="scedilla" unicode="&#x15f;" horiz-adv-x="362" 
d="M174 -6q-87 0 -123.5 39t-27.5 117q1 13 12 13h106q12 0 11 -13q-2 -29 3 -42t19 -13q25 0 25 36q0 21 -8.5 33.5t-28.5 27.5l-76 55q-30 22 -47.5 51.5t-17.5 70.5q0 66 38.5 100t118.5 34q84 0 122 -36t36 -107q0 -13 -12 -13h-104q-7 0 -10 4t-2 11q2 20 -3.5 30
t-18.5 10q-23 0 -23 -27q0 -17 7 -28t25 -23l71 -52q38 -26 57 -57t19 -78q0 -71 -41 -107t-127 -36zM176 -193q-16 0 -30.5 1.5t-25.5 3.5q-9 3 -9 10v55q0 11 8 9q4 -1 9.5 -1.5t12.5 -0.5q14 0 21.5 6t7.5 15v7q0 12 -8.5 16t-20.5 4h-9q-6 0 -6 6q0 5 -0.5 11.5
t0.5 10.5l26 81q3 10 12 10h60q14 0 9 -14l-24 -64h8q26 0 40 -17.5t14 -44.5v-19q0 -39 -22 -62t-73 -23z" />
    <glyph glyph-name="Scaron" unicode="&#x160;" horiz-adv-x="408" 
d="M199 -6q-67 0 -108.5 23.5t-58.5 69t-11 108.5q1 14 11 14h123q10 0 9 -13q-2 -34 7 -55t30 -21q20 0 29.5 12t9.5 39q0 22 -9 40.5t-27 32.5l-87 67q-50 38 -74 79t-23 104q1 81 44 124t132 43q99 0 145 -50.5t38 -144.5q-1 -16 -12 -16h-124q-12 0 -11 16q3 27 -3.5 48
t-26.5 21q-17 0 -25.5 -10.5t-8.5 -33.5q0 -25 11 -41t28 -29l85 -65q37 -27 57.5 -52.5t30 -57t8.5 -76.5q-1 -86 -45.5 -131t-143.5 -45zM193 712l-96 46q-6 4 -6 14v71q0 11 13 6l96 -37l97 37q13 4 13 -6v-71q0 -10 -7 -14l-95 -46q-8 -4 -15 0z" />
    <glyph glyph-name="scaron" unicode="&#x161;" horiz-adv-x="362" 
d="M174 -6q-87 0 -123.5 39t-27.5 117q1 13 12 13h106q12 0 11 -13q-2 -29 3 -42t19 -13q25 0 25 36q0 21 -8.5 33.5t-28.5 27.5l-76 55q-30 22 -47.5 51.5t-17.5 70.5q0 66 38.5 100t118.5 34q84 0 122 -36t36 -107q0 -13 -12 -13h-104q-7 0 -10 4t-2 11q2 20 -3.5 30
t-18.5 10q-23 0 -23 -27q0 -17 7 -28t25 -23l71 -52q38 -26 57 -57t19 -78q0 -71 -41 -107t-127 -36zM169 550l-87 48q-6 5 -6 14v74q0 12 13 6l87 -41l88 41q13 5 13 -6v-74q0 -9 -7 -14l-86 -48q-8 -4 -15 0z" />
    <glyph glyph-name="uni0162" unicode="&#x162;" horiz-adv-x="404" 
d="M139 0q-11 0 -11 13v511h-104q-11 0 -11 13v105q0 13 11 13h356q11 0 11 -13v-105q0 -13 -11 -13h-104v-511q0 -13 -11 -13h-126zM190 -193q-16 0 -30.5 1.5t-25.5 3.5q-9 3 -9 10v55q0 11 8 9q4 -1 9.5 -1.5t12.5 -0.5q14 0 21.5 6t7.5 15v7q0 12 -8.5 16t-20.5 4h-9
q-6 0 -6 6q0 5 -0.5 11.5t0.5 10.5l26 81q3 10 12 10h60q14 0 9 -14l-24 -64h8q26 0 40 -17.5t14 -44.5v-19q0 -39 -22 -62t-73 -23z" />
    <glyph glyph-name="uni0163" unicode="&#x163;" horiz-adv-x="320" 
d="M211 -6q-78 0 -111 40t-33 136v204h-44q-12 0 -12 13v98q0 12 12 12h49l14 118q1 12 11 12h102q11 0 11 -12v-118h84q12 0 12 -12v-98q0 -13 -12 -13h-84v-194q0 -33 8.5 -47.5t30.5 -14.5q12 0 21.5 2t23.5 8q13 5 13 -10v-96q0 -12 -10 -15q-15 -6 -37.5 -9.5
t-48.5 -3.5zM194 -193q-16 0 -30.5 1.5t-25.5 3.5q-9 3 -9 10v55q0 11 8 9q4 -1 9.5 -1.5t12.5 -0.5q14 0 21.5 6t7.5 15v7q0 12 -8.5 16t-20.5 4h-9q-6 0 -6 6q0 5 -0.5 11.5t0.5 10.5l26 81q3 10 12 10h60q14 0 9 -14l-24 -64h8q26 0 40 -17.5t14 -44.5v-19q0 -39 -22 -62
t-73 -23z" />
    <glyph glyph-name="Tcaron" unicode="&#x164;" horiz-adv-x="404" 
d="M139 0q-11 0 -11 13v511h-104q-11 0 -11 13v105q0 13 11 13h356q11 0 11 -13v-105q0 -13 -11 -13h-104v-511q0 -13 -11 -13h-126zM198 712l-96 46q-6 4 -6 14v71q0 11 13 6l96 -37l97 37q13 4 13 -6v-71q0 -10 -7 -14l-95 -46q-8 -4 -15 0z" />
    <glyph glyph-name="tcaron" unicode="&#x165;" horiz-adv-x="351" 
d="M211 -6q-78 0 -111 40t-33 136v204h-44q-12 0 -12 13v98q0 12 12 12h49l14 118q1 12 11 12h102q11 0 11 -12v-118h84q12 0 12 -12v-98q0 -13 -12 -13h-84v-194q0 -33 8.5 -47.5t30.5 -14.5q12 0 21.5 2t23.5 8q13 5 13 -10v-96q0 -12 -10 -15q-15 -6 -37.5 -9.5
t-48.5 -3.5zM248 528q-7 0 -6 10l11 54q-9 5 -17.5 13.5t-8.5 26.5v15q0 24 14.5 36.5t43.5 12.5q24 0 39 -12t15 -36v-17q0 -8 -1.5 -18.5t-6.5 -22.5l-19 -54q-3 -8 -9 -8h-55z" />
    <glyph glyph-name="Tbar" unicode="&#x166;" horiz-adv-x="404" 
d="M75 267q-11 0 -11 13v82q0 13 11 13h246q11 0 11 -13v-82q0 -13 -11 -13h-49h-148h-49zM139 0q-11 0 -11 13v511h-104q-11 0 -11 13v105q0 13 11 13h356q11 0 11 -13v-105q0 -13 -11 -13h-104v-511q0 -13 -11 -13h-126z" />
    <glyph glyph-name="tbar" unicode="&#x167;" horiz-adv-x="320" 
d="M26 226q-11 0 -11 13v71q0 12 11 12h36h143h68q11 0 11 -12v-71q0 -13 -11 -13h-247zM211 -6q-78 0 -111 40t-33 136v204h-44q-12 0 -12 13v98q0 12 12 12h49l14 118q1 12 11 12h102q11 0 11 -12v-118h84q12 0 12 -12v-98q0 -13 -12 -13h-84v-194q0 -33 8.5 -47.5
t30.5 -14.5q12 0 21.5 2t23.5 8q13 5 13 -10v-96q0 -12 -10 -15q-15 -6 -37.5 -9.5t-48.5 -3.5z" />
    <glyph glyph-name="Umacron" unicode="&#x16a;" horiz-adv-x="472" 
d="M236 -6q-102 0 -153 58.5t-51 176.5v413q0 13 11 13h126q11 0 11 -13v-409q0 -61 13.5 -83.5t42.5 -22.5q30 0 43.5 22.5t13.5 83.5v409q0 13 10 13h127q11 0 11 -13v-413q0 -118 -51.5 -176.5t-153.5 -58.5zM139 717q-13 0 -13 13v76q0 12 13 12h193q13 0 13 -12v-76
q0 -13 -13 -13h-193z" />
    <glyph glyph-name="umacron" unicode="&#x16b;" horiz-adv-x="395" 
d="M122 -6q-50 0 -72 31.5t-22 100.5v358q0 13 12 13h119q12 0 12 -13v-330q0 -21 4.5 -28.5t15.5 -7.5q10 0 20.5 6.5t19.5 17.5l23 -61q-24 -39 -59.5 -63t-72.5 -24zM259 0q-11 0 -13 11q-2 16 -4 40.5t-2 42.5l-16 34v356q0 13 13 13h118q12 0 12 -13v-354
q0 -33 0.5 -63t2.5 -53q2 -14 -10 -14h-101zM114 570q-13 0 -13 13v76q0 13 13 13h168q13 0 13 -13v-76q0 -13 -13 -13h-168z" />
    <glyph glyph-name="Uring" unicode="&#x16e;" horiz-adv-x="472" 
d="M236 -6q-102 0 -153 58.5t-51 176.5v413q0 13 11 13h126q11 0 11 -13v-409q0 -61 13.5 -83.5t42.5 -22.5q30 0 43.5 22.5t13.5 83.5v409q0 13 10 13h127q11 0 11 -13v-413q0 -118 -51.5 -176.5t-153.5 -58.5zM235 689q-46 0 -74.5 27t-28.5 77q0 49 28.5 76t74.5 27
q47 0 75.5 -27t28.5 -76q0 -50 -28.5 -77t-75.5 -27zM235 759q20 0 20 34q0 33 -20 33q-19 0 -19 -33q0 -34 19 -34z" />
    <glyph glyph-name="uring" unicode="&#x16f;" horiz-adv-x="395" 
d="M122 -6q-50 0 -72 31.5t-22 100.5v358q0 13 12 13h119q12 0 12 -13v-330q0 -21 4.5 -28.5t15.5 -7.5q10 0 20.5 6.5t19.5 17.5l23 -61q-24 -39 -59.5 -63t-72.5 -24zM259 0q-11 0 -13 11q-2 16 -4 40.5t-2 42.5l-16 34v356q0 13 13 13h118q12 0 12 -13v-354
q0 -33 0.5 -63t2.5 -53q2 -14 -10 -14h-101zM198 552q-46 0 -74.5 26.5t-28.5 76.5t28.5 77t74.5 27q47 0 75.5 -27t28.5 -77t-28.5 -76.5t-75.5 -26.5zM198 622q20 0 20 33t-20 33q-19 0 -19 -33t19 -33z" />
    <glyph glyph-name="Uhungarumlaut" unicode="&#x170;" horiz-adv-x="472" 
d="M236 -6q-102 0 -153 58.5t-51 176.5v413q0 13 11 13h126q11 0 11 -13v-409q0 -61 13.5 -83.5t42.5 -22.5q30 0 43.5 22.5t13.5 83.5v409q0 13 10 13h127q11 0 11 -13v-413q0 -118 -51.5 -176.5t-153.5 -58.5zM264 708q-16 0 -9 16l45 115q3 10 14 10h91q6 0 9 -4t-2 -12
l-59 -115q-5 -10 -16 -10h-73zM115 708q-16 0 -9 16l45 115q4 10 14 10h91q6 0 9 -4t-2 -12l-59 -115q-4 -10 -16 -10h-73z" />
    <glyph glyph-name="uhungarumlaut" unicode="&#x171;" horiz-adv-x="395" 
d="M122 -6q-50 0 -72 31.5t-22 100.5v358q0 13 12 13h119q12 0 12 -13v-330q0 -21 4.5 -28.5t15.5 -7.5q10 0 20.5 6.5t19.5 17.5l23 -61q-24 -39 -59.5 -63t-72.5 -24zM259 0q-11 0 -13 11q-2 16 -4 40.5t-2 42.5l-16 34v356q0 13 13 13h118q12 0 12 -13v-354
q0 -33 0.5 -63t2.5 -53q2 -14 -10 -14h-101zM80 557q-16 0 -9 16l53 136q3 10 14 10h94q6 0 9 -4t-1 -11l-71 -137q-5 -10 -16 -10h-73zM231 557q-16 0 -9 16l52 136q4 10 15 10h94q6 0 9 -4t-1 -11l-71 -137q-5 -10 -16 -10h-73z" />
    <glyph glyph-name="Uogonek" unicode="&#x172;" horiz-adv-x="472" 
d="M236 -6q-102 0 -153 58.5t-51 176.5v413q0 13 11 13h126q11 0 11 -13v-409q0 -61 13.5 -83.5t42.5 -22.5q30 0 43.5 22.5t13.5 83.5v409q0 13 10 13h127q11 0 11 -13v-413q0 -118 -51.5 -176.5t-153.5 -58.5zM265 -191q-44 0 -67 18.5t-23 55.5v12q0 48 36.5 81t101.5 52
l11 -14l-1 -6q-23 -17 -34.5 -34t-11.5 -33v-7q0 -11 5.5 -16t15.5 -5q5 0 9.5 0.5t10.5 1.5q11 2 11 -11v-74q0 -10 -10 -13q-14 -5 -27.5 -6.5t-26.5 -1.5z" />
    <glyph glyph-name="uogonek" unicode="&#x173;" horiz-adv-x="395" 
d="M122 -6q-50 0 -72 31.5t-22 100.5v358q0 13 12 13h119q12 0 12 -13v-330q0 -21 4.5 -28.5t15.5 -7.5q10 0 20.5 6.5t19.5 17.5l23 -61q-24 -39 -59.5 -63t-72.5 -24zM259 0q-11 0 -13 11q-2 16 -4 40.5t-2 42.5l-16 34v356q0 13 13 13h118q12 0 12 -13v-354
q0 -33 0.5 -63t2.5 -53q2 -14 -10 -14h-101zM304 -191q-44 0 -67 18.5t-23 55.5v12q0 48 36.5 81t101.5 52l11 -14l-1 -6q-23 -17 -34.5 -34t-11.5 -33v-7q0 -11 5.5 -16t15.5 -5q5 0 9.5 0.5t10.5 1.5q11 2 11 -11v-74q0 -10 -10 -13q-14 -5 -27.5 -6.5t-26.5 -1.5z" />
    <glyph glyph-name="Wcircumflex" unicode="&#x174;" horiz-adv-x="645" 
d="M122 0q-10 0 -12 10l-105 630q-3 15 10 15h125q11 0 13 -10l29 -203q6 -49 9.5 -93t5.5 -90.5t3 -102.5h2q3 34 8 69.5t12 70.5l42 218l-23 108q-4 17 9 17h121q9 0 11 -10l48 -327q5 -37 9.5 -73t6.5 -73h2q1 57 3 103.5t5.5 92t9.5 97.5l27 195q2 11 12 11h125
q12 0 9 -15l-107 -629q-2 -11 -11 -11h-136q-12 0 -14 10l-28 190q-5 33 -9.5 65.5t-8.5 65.5h-2q-5 -33 -10 -65.5t-11 -65.5l-32 -190q-1 -5 -5 -7.5t-8 -2.5h-135zM226 711q-13 -5 -13 5v71q0 11 6 14l96 47q7 4 15 0l95 -47q7 -3 7 -14v-71q0 -10 -13 -5l-97 36z" />
    <glyph glyph-name="wcircumflex" unicode="&#x175;" horiz-adv-x="562" 
d="M114 0q-11 0 -14 10l-87 473q-3 14 9 14h127q11 0 12 -11l20 -200q2 -34 4.5 -67.5t4.5 -67.5h2q5 34 8.5 67t7.5 66l12 91l-12 97q-1 15 10 15h108q11 0 12 -11l19 -193l6 -66l6 -66h2q2 33 5 66.5t6 66.5l18 202q2 11 12 11h128q12 0 9 -14l-87 -473q-3 -10 -14 -10
h-131q-11 0 -13 10l-10 77q-3 28 -6 59.5t-6 79.5h-4q-3 -48 -6 -80t-6 -60l-9 -75q-1 -11 -12 -11h-131zM194 549q-13 -6 -13 6v73q0 10 6 15l87 48q7 4 15 0l86 -48q7 -5 7 -15v-73q0 -11 -13 -6l-88 41z" />
    <glyph glyph-name="Ycircumflex" unicode="&#x176;" horiz-adv-x="446" 
d="M160 0q-11 0 -11 13v213l-146 413q-6 16 9 16h139q11 0 12 -9l37 -167q6 -29 12 -58.5t11 -58.5h2q5 29 10.5 58t11.5 58l38 168q1 9 11 9h138q14 0 8 -16l-145 -412v-214q0 -13 -10 -13h-127zM126 711q-13 -5 -13 5v71q0 11 6 14l96 47q7 4 15 0l95 -47q7 -3 7 -14v-71
q0 -10 -13 -5l-97 36z" />
    <glyph glyph-name="ycircumflex" unicode="&#x177;" horiz-adv-x="391" 
d="M98 -185q-12 0 -9 15l38 169l-116 484q-3 14 9 14h130q12 0 13 -11l19 -163q3 -29 6.5 -68.5t5.5 -71.5h4q2 32 4.5 71.5t6.5 68.5l21 164q1 10 12 10h129q6 0 8.5 -3t0.5 -11l-154 -658q-2 -10 -13 -10h-115zM110 549q-13 -6 -13 6v73q0 10 6 15l87 48q7 4 15 0l86 -48
q7 -5 7 -15v-73q0 -11 -13 -6l-88 41z" />
    <glyph glyph-name="Ydieresis" unicode="&#x178;" horiz-adv-x="446" 
d="M160 0q-11 0 -11 13v213l-146 413q-6 16 9 16h139q11 0 12 -9l37 -167q6 -29 12 -58.5t11 -58.5h2q5 29 10.5 58t11.5 58l38 168q1 9 11 9h138q14 0 8 -16l-145 -412v-214q0 -13 -10 -13h-127zM141 712q-31 0 -50.5 17t-19.5 46v18q0 30 19.5 46.5t50.5 16.5
q32 0 50.5 -16.5t18.5 -46.5v-18q0 -29 -18.5 -46t-50.5 -17zM306 712q-30 0 -49.5 17t-19.5 46v18q0 30 19.5 46.5t49.5 16.5q33 0 51 -16.5t18 -46.5v-18q0 -29 -18 -46t-51 -17z" />
    <glyph glyph-name="Zacute" unicode="&#x179;" horiz-adv-x="404" 
d="M17 0q-11 0 -11 13v5q0 9 3 16l147 377q11 29 25.5 59.5t24.5 53.5v2q-19 -1 -41.5 -1.5t-42.5 -0.5h-88q-11 0 -11 13v105q0 13 11 13h350q12 0 12 -13v-5q0 -4 -0.5 -8t-2.5 -8l-153 -384q-11 -28 -24 -56t-25 -50v-2q19 1 40.5 1.5t39.5 0.5h97q11 0 11 -13v-105
q0 -13 -11 -13h-351zM135 708q-7 0 -9 4.5t1 9.5l58 113q6 9 16 9h97q6 0 8.5 -4t-2.5 -11l-73 -111q-7 -10 -19 -10h-77z" />
    <glyph glyph-name="zacute" unicode="&#x17a;" horiz-adv-x="364" 
d="M26 0q-11 0 -11 10v4q0 11 4 19l106 253q9 22 19 44l20 44v2q-18 -1 -28.5 -1.5t-20.5 -0.5h-70q-12 0 -12 13v98q0 12 12 12h292q12 0 12 -9v-4q0 -11 -8 -29l-103 -243q-9 -22 -18.5 -43.5t-21.5 -44.5v-2q18 2 28 2h24h71q12 0 12 -13v-98q0 -13 -12 -13h-295z
M112 557q-7 0 -9 4t1 10l67 128q5 10 16 10h98q6 0 8.5 -4.5t-2.5 -11.5l-84 -126q-7 -10 -19 -10h-76z" />
    <glyph glyph-name="Zdotaccent" unicode="&#x17b;" horiz-adv-x="404" 
d="M17 0q-11 0 -11 13v5q0 9 3 16l147 377q11 29 25.5 59.5t24.5 53.5v2q-19 -1 -41.5 -1.5t-42.5 -0.5h-88q-11 0 -11 13v105q0 13 11 13h350q12 0 12 -13v-5q0 -4 -0.5 -8t-2.5 -8l-153 -384q-11 -28 -24 -56t-25 -50v-2q19 1 40.5 1.5t39.5 0.5h97q11 0 11 -13v-105
q0 -13 -11 -13h-351zM211 720q-37 0 -59.5 18.5t-22.5 51.5v20q0 35 22.5 52.5t59.5 17.5q38 0 59.5 -17.5t21.5 -52.5v-20q0 -33 -21.5 -51.5t-59.5 -18.5z" />
    <glyph glyph-name="zdotaccent" unicode="&#x17c;" horiz-adv-x="364" 
d="M26 0q-11 0 -11 10v4q0 11 4 19l106 253q9 22 19 44l20 44v2q-18 -1 -28.5 -1.5t-20.5 -0.5h-70q-12 0 -12 13v98q0 12 12 12h292q12 0 12 -9v-4q0 -11 -8 -29l-103 -243q-9 -22 -18.5 -43.5t-21.5 -44.5v-2q18 2 28 2h24h71q12 0 12 -13v-98q0 -13 -12 -13h-295z
M185 554q-37 0 -59.5 18.5t-22.5 52.5v19q0 35 22.5 53t59.5 18q38 0 59.5 -18t21.5 -53v-19q0 -34 -21.5 -52.5t-59.5 -18.5z" />
    <glyph glyph-name="Zcaron" unicode="&#x17d;" horiz-adv-x="404" 
d="M17 0q-11 0 -11 13v5q0 9 3 16l147 377q11 29 25.5 59.5t24.5 53.5v2q-19 -1 -41.5 -1.5t-42.5 -0.5h-88q-11 0 -11 13v105q0 13 11 13h350q12 0 12 -13v-5q0 -4 -0.5 -8t-2.5 -8l-153 -384q-11 -28 -24 -56t-25 -50v-2q19 1 40.5 1.5t39.5 0.5h97q11 0 11 -13v-105
q0 -13 -11 -13h-351zM204 712l-96 46q-6 4 -6 14v71q0 11 13 6l96 -37l97 37q13 4 13 -6v-71q0 -10 -7 -14l-95 -46q-8 -4 -15 0z" />
    <glyph glyph-name="zcaron" unicode="&#x17e;" horiz-adv-x="364" 
d="M26 0q-11 0 -11 10v4q0 11 4 19l106 253q9 22 19 44l20 44v2q-18 -1 -28.5 -1.5t-20.5 -0.5h-70q-12 0 -12 13v98q0 12 12 12h292q12 0 12 -9v-4q0 -11 -8 -29l-103 -243q-9 -22 -18.5 -43.5t-21.5 -44.5v-2q18 2 28 2h24h71q12 0 12 -13v-98q0 -13 -12 -13h-295z
M178 550l-87 48q-6 5 -6 14v74q0 12 13 6l87 -41l88 41q13 5 13 -6v-74q0 -9 -7 -14l-86 -48q-8 -4 -15 0z" />
    <glyph glyph-name="florin" unicode="&#x192;" horiz-adv-x="453" 
d="M147 -185q-6 0 -10 4t-4 10v471h-41q-6 0 -10 4.5t-4 9.5v92q0 5 4 9.5t10 4.5h41v84q0 79 32 118t102 39q34 0 61 -5.5t40 -10.5q8 -3 8 -13v-88q0 -13 -13 -8q-11 4 -24.5 7t-28.5 3q-17 0 -25.5 -10.5t-8.5 -35.5v-80h53q6 0 10 -4.5t4 -9.5v-92q0 -5 -4 -9.5
t-10 -4.5h-53v-471q0 -6 -4 -10t-10 -4h-115z" />
    <glyph glyph-name="uni0218" unicode="&#x218;" horiz-adv-x="408" 
d="M199 -6q-67 0 -108.5 23.5t-58.5 69t-11 108.5q1 14 11 14h123q10 0 9 -13q-2 -34 7 -55t30 -21q20 0 29.5 12t9.5 39q0 22 -9 40.5t-27 32.5l-87 67q-50 38 -74 79t-23 104q1 81 44 124t132 43q99 0 145 -50.5t38 -144.5q-1 -16 -12 -16h-124q-12 0 -11 16q3 27 -3.5 48
t-26.5 21q-17 0 -25.5 -10.5t-8.5 -33.5q0 -25 11 -41t28 -29l85 -65q37 -27 57.5 -52.5t30 -57t8.5 -76.5q-1 -86 -45.5 -131t-143.5 -45zM164 -260q-11 0 -8 12l14 70q-10 6 -18 17t-8 35v18q0 28 16.5 43t46.5 15t46.5 -15t16.5 -43v-20q0 -13 -1.5 -25.5t-7.5 -26.5
l-27 -71q-4 -9 -11 -9h-59z" />
    <glyph glyph-name="uni0219" unicode="&#x219;" horiz-adv-x="362" 
d="M174 -6q-87 0 -123.5 39t-27.5 117q1 13 12 13h106q12 0 11 -13q-2 -29 3 -42t19 -13q25 0 25 36q0 21 -8.5 33.5t-28.5 27.5l-76 55q-30 22 -47.5 51.5t-17.5 70.5q0 66 38.5 100t118.5 34q84 0 122 -36t36 -107q0 -13 -12 -13h-104q-7 0 -10 4t-2 11q2 20 -3.5 30
t-18.5 10q-23 0 -23 -27q0 -17 7 -28t25 -23l71 -52q38 -26 57 -57t19 -78q0 -71 -41 -107t-127 -36zM145 -267q-11 0 -8 12l14 70q-10 7 -18 17.5t-8 34.5v18q0 29 16.5 43.5t46.5 14.5t46.5 -14.5t16.5 -43.5v-19q0 -14 -1.5 -26t-7.5 -27l-27 -71q-4 -9 -11 -9h-59z" />
    <glyph glyph-name="uni021A" unicode="&#x21a;" horiz-adv-x="404" 
d="M139 0q-11 0 -11 13v511h-104q-11 0 -11 13v105q0 13 11 13h356q11 0 11 -13v-105q0 -13 -11 -13h-104v-511q0 -13 -11 -13h-126zM159 -260q-11 0 -8 12l14 70q-10 6 -18 17t-8 35v18q0 28 16.5 43t46.5 15t46.5 -15t16.5 -43v-20q0 -13 -1.5 -25.5t-7.5 -26.5l-27 -71
q-4 -9 -11 -9h-59z" />
    <glyph glyph-name="uni021B" unicode="&#x21b;" horiz-adv-x="320" 
d="M211 -6q-78 0 -111 40t-33 136v204h-44q-12 0 -12 13v98q0 12 12 12h49l14 118q1 12 11 12h102q11 0 11 -12v-118h84q12 0 12 -12v-98q0 -13 -12 -13h-84v-194q0 -33 8.5 -47.5t30.5 -14.5q12 0 21.5 2t23.5 8q13 5 13 -10v-96q0 -12 -10 -15q-15 -6 -37.5 -9.5
t-48.5 -3.5zM163 -267q-11 0 -8 12l14 70q-10 7 -18 17.5t-8 34.5v18q0 29 16.5 43.5t46.5 14.5t46.5 -14.5t16.5 -43.5v-19q0 -14 -1.5 -26t-7.5 -27l-27 -71q-4 -9 -11 -9h-59z" />
    <glyph glyph-name="uni0237" unicode="&#x237;" horiz-adv-x="196" 
d="M67 -188q-3 -2 -6 -1t-6 5l-70 80q-9 10 -1 17q26 26 34.5 62.5t8.5 104.5v405q0 12 11 12h121q11 0 11 -12v-405q0 -69 -8.5 -117t-30.5 -84t-64 -67z" />
    <glyph glyph-name="uni02BC" unicode="&#x2bc;" horiz-adv-x="186" 
d="M50 479q-11 0 -8 12l14 70q-10 6 -18 17t-8 35v18q0 29 16.5 43.5t46.5 14.5t46.5 -14.5t16.5 -43.5v-19q0 -14 -1.5 -26.5t-7.5 -26.5l-27 -71q-4 -9 -11 -9h-59z" />
    <glyph glyph-name="circumflex" unicode="&#x2c6;" horiz-adv-x="261" 
d="M43 549q-13 -6 -13 6v73q0 10 6 15l87 48q7 4 15 0l86 -48q7 -5 7 -15v-73q0 -11 -13 -6l-88 41z" />
    <glyph glyph-name="caron" unicode="&#x2c7;" horiz-adv-x="261" 
d="M123 550l-87 48q-6 5 -6 14v74q0 12 13 6l87 -41l88 41q13 5 13 -6v-74q0 -9 -7 -14l-86 -48q-8 -4 -15 0z" />
    <glyph glyph-name="breve" unicode="&#x2d8;" horiz-adv-x="263" 
d="M132 545q-33 0 -58 11t-40 25q-4 4 -4 13v70q0 8 3.5 9.5t9.5 -2.5q19 -14 40.5 -22.5t48.5 -8.5q26 0 48 8.5t40 22.5q6 4 9.5 2.5t3.5 -9.5v-70q0 -9 -4 -13q-15 -15 -39.5 -25.5t-57.5 -10.5z" />
    <glyph glyph-name="dotaccent" unicode="&#x2d9;" horiz-adv-x="223" 
d="M112 554q-37 0 -59.5 18.5t-22.5 52.5v19q0 35 22.5 53t59.5 18q38 0 59.5 -18t21.5 -53v-19q0 -34 -21.5 -52.5t-59.5 -18.5z" />
    <glyph glyph-name="ring" unicode="&#x2da;" horiz-adv-x="267" 
d="M133 552q-46 0 -74.5 26.5t-28.5 76.5t28.5 77t74.5 27q47 0 75.5 -27t28.5 -77t-28.5 -76.5t-75.5 -26.5zM133 622q20 0 20 33t-20 33q-19 0 -19 -33t19 -33z" />
    <glyph glyph-name="ogonek" unicode="&#x2db;" horiz-adv-x="214" 
d="M120 -191q-44 0 -67 18.5t-23 55.5v12q0 48 36.5 81t101.5 52l11 -14l-1 -6q-23 -17 -34.5 -34t-11.5 -33v-7q0 -11 5.5 -16t15.5 -5q5 0 9.5 0.5t10.5 1.5q11 2 11 -11v-74q0 -10 -10 -13q-14 -5 -27.5 -6.5t-26.5 -1.5z" />
    <glyph glyph-name="tilde" unicode="&#x2dc;" horiz-adv-x="261" 
d="M166 566q-18 0 -30.5 5t-23.5 10t-24 5q-12 0 -22.5 -3t-21.5 -10q-14 -7 -14 9v64q0 10 6 16q11 10 26 15.5t33 5.5t30.5 -5t23.5 -10.5t23 -5.5q14 0 23.5 3.5t21.5 10.5q14 7 14 -9v-63q0 -11 -7 -16q-11 -10 -26 -16t-32 -6z" />
    <glyph glyph-name="hungarumlaut" unicode="&#x2dd;" horiz-adv-x="383" 
d="M41 557q-16 0 -9 16l53 136q3 10 14 10h94q6 0 9 -4t-1 -11l-71 -137q-5 -10 -16 -10h-73zM192 557q-16 0 -9 16l52 136q4 10 15 10h94q6 0 9 -4t-1 -11l-71 -137q-5 -10 -16 -10h-73z" />
    <glyph glyph-name="gravecomb" unicode="&#x300;" 
d="M136 557q-12 0 -19 10l-84 126q-4 7 -2 11.5t7 4.5h99q10 0 16 -10l67 -128q3 -6 1 -10t-9 -4h-76z" />
    <glyph glyph-name="acutecomb" unicode="&#x301;" 
d="M40 557q-7 0 -9 4t1 10l67 128q5 10 16 10h98q6 0 8.5 -4.5t-2.5 -11.5l-84 -126q-7 -10 -19 -10h-76z" />
    <glyph glyph-name="uni0302" unicode="&#x302;" 
d="M43 549q-13 -6 -13 6v73q0 10 6 15l87 48q7 4 15 0l86 -48q7 -5 7 -15v-73q0 -11 -13 -6l-88 41z" />
    <glyph glyph-name="tildecomb" unicode="&#x303;" 
d="M166 566q-18 0 -30.5 5t-23.5 10t-24 5q-12 0 -22.5 -3t-21.5 -10q-14 -7 -14 9v64q0 10 6 16q11 10 26 15.5t33 5.5t30.5 -5t23.5 -10.5t23 -5.5q14 0 23.5 3.5t21.5 10.5q14 7 14 -9v-63q0 -11 -7 -16q-11 -10 -26 -16t-32 -6z" />
    <glyph glyph-name="uni0304" unicode="&#x304;" 
d="M43 570q-13 0 -13 13v76q0 13 13 13h168q13 0 13 -13v-76q0 -13 -13 -13h-168z" />
    <glyph glyph-name="uni0306" unicode="&#x306;" 
d="M132 545q-33 0 -58 11t-40 25q-4 4 -4 13v70q0 8 3.5 9.5t9.5 -2.5q19 -14 40.5 -22.5t48.5 -8.5q26 0 48 8.5t40 22.5q6 4 9.5 2.5t3.5 -9.5v-70q0 -9 -4 -13q-15 -15 -39.5 -25.5t-57.5 -10.5z" />
    <glyph glyph-name="uni0307" unicode="&#x307;" 
d="M112 554q-37 0 -59.5 18.5t-22.5 52.5v19q0 35 22.5 53t59.5 18q38 0 59.5 -18t21.5 -53v-19q0 -34 -21.5 -52.5t-59.5 -18.5z" />
    <glyph glyph-name="uni0308" unicode="&#x308;" 
d="M100 560q-31 0 -50.5 17t-19.5 46v18q0 31 19.5 47t50.5 16q32 0 50.5 -16t18.5 -47v-18q0 -29 -18.5 -46t-50.5 -17zM265 560q-30 0 -49.5 17t-19.5 46v18q0 31 19.5 47t49.5 16q33 0 51 -16t18 -47v-18q0 -29 -18 -46t-51 -17z" />
    <glyph glyph-name="uni030A" unicode="&#x30a;" 
d="M133 552q-46 0 -74.5 26.5t-28.5 76.5t28.5 77t74.5 27q47 0 75.5 -27t28.5 -77t-28.5 -76.5t-75.5 -26.5zM133 622q20 0 20 33t-20 33q-19 0 -19 -33t19 -33z" />
    <glyph glyph-name="uni030B" unicode="&#x30b;" 
d="M41 557q-16 0 -9 16l53 136q3 10 14 10h94q6 0 9 -4t-1 -11l-71 -137q-5 -10 -16 -10h-73zM192 557q-16 0 -9 16l52 136q4 10 15 10h94q6 0 9 -4t-1 -11l-71 -137q-5 -10 -16 -10h-73z" />
    <glyph glyph-name="uni030C" unicode="&#x30c;" 
d="M123 550l-87 48q-6 5 -6 14v74q0 12 13 6l87 -41l88 41q13 5 13 -6v-74q0 -9 -7 -14l-86 -48q-8 -4 -15 0z" />
    <glyph glyph-name="uni0312" unicode="&#x312;" 
d="M92 553q-28 0 -45 14.5t-17 43.5v19q0 14 1.5 26t7.5 27l27 71q4 9 11 9h59q10 0 8 -12l-15 -70q11 -7 19 -17.5t8 -35.5v-17q0 -29 -17 -43.5t-47 -14.5z" />
    <glyph glyph-name="uni0313" unicode="&#x313;" 
d="M50 550q-11 0 -8 12l14 70q-10 6 -18 17t-8 35v18q0 28 16.5 43t46.5 15t46.5 -15t16.5 -43v-20q0 -13 -1.5 -25.5t-7.5 -26.5l-27 -71q-4 -9 -11 -9h-59z" />
    <glyph glyph-name="uni0324" unicode="&#x324;" 
d="M100 -204q-31 0 -50.5 17t-19.5 46v18q0 31 19.5 47t50.5 16q32 0 50.5 -16t18.5 -47v-18q0 -29 -18.5 -46t-50.5 -17zM265 -204q-30 0 -49.5 17t-19.5 46v18q0 31 19.5 47t49.5 16q33 0 51 -16t18 -47v-18q0 -29 -18 -46t-51 -17z" />
    <glyph glyph-name="uni0325" unicode="&#x325;" 
d="M133 -255q-46 0 -74.5 26.5t-28.5 76.5t28.5 77t74.5 27q47 0 75.5 -27t28.5 -77t-28.5 -76.5t-75.5 -26.5zM133 -185q20 0 20 33t-20 33q-19 0 -19 -33t19 -33z" />
    <glyph glyph-name="uni0326" unicode="&#x326;" 
d="M50 -267q-11 0 -8 12l14 70q-10 7 -18 17.5t-8 34.5v18q0 29 16.5 43.5t46.5 14.5t46.5 -14.5t16.5 -43.5v-19q0 -14 -1.5 -26t-7.5 -27l-27 -71q-4 -9 -11 -9h-59z" />
    <glyph glyph-name="uni0327" unicode="&#x327;" 
d="M95 -191q-16 0 -30.5 1.5t-25.5 3.5q-9 3 -9 10v55q0 11 8 9q4 -1 9.5 -1.5t12.5 -0.5q14 0 21.5 6t7.5 15v7q0 12 -8.5 16t-20.5 4h-9q-6 0 -6 6q0 5 -0.5 11.5t0.5 10.5l26 81q3 10 12 10h60q14 0 9 -14l-24 -64h8q26 0 40 -17.5t14 -44.5v-19q0 -39 -22 -62t-73 -23z
" />
    <glyph glyph-name="uni0328" unicode="&#x328;" 
d="M120 -191q-44 0 -67 18.5t-23 55.5v12q0 48 36.5 81t101.5 52l11 -14l-1 -6q-23 -17 -34.5 -34t-11.5 -33v-7q0 -11 5.5 -16t15.5 -5q5 0 9.5 0.5t10.5 1.5q11 2 11 -11v-74q0 -10 -10 -13q-14 -5 -27.5 -6.5t-26.5 -1.5z" />
    <glyph glyph-name="uni0330" unicode="&#x330;" 
d="M166 -206q-18 0 -30.5 5t-23.5 10t-24 5q-12 0 -22.5 -3t-21.5 -10q-14 -7 -14 9v64q0 10 6 16q11 10 26 15.5t33 5.5t30.5 -5t23.5 -10.5t23 -5.5q14 0 23.5 3.5t21.5 10.5q14 7 14 -9v-63q0 -11 -7 -16q-11 -10 -26 -16t-32 -6z" />
    <glyph glyph-name="uni0331" unicode="&#x331;" 
d="M43 -190q-13 0 -13 13v76q0 13 13 13h168q13 0 13 -13v-76q0 -13 -13 -13h-168z" />
    <glyph glyph-name="uni0335" unicode="&#x335;" 
d="M45 211q-14 0 -14 14v83q0 14 14 14h253q14 0 14 -14v-83q0 -14 -14 -14h-253z" />
    <glyph glyph-name="uni0336" unicode="&#x336;" 
d="M45 211q-14 0 -14 14v83q0 14 14 14h523q14 0 14 -14v-83q0 -14 -14 -14h-523z" />
    <glyph glyph-name="tonos" unicode="&#x384;" horiz-adv-x="252" 
d="M41 544q-14 0 -10 14l41 165q3 11 16 11h123q15 0 8 -16l-72 -164q-3 -10 -16 -10h-90z" />
    <glyph glyph-name="dieresistonos" unicode="&#x385;" horiz-adv-x="397" 
d="M158 740q-16 0 -12 16l37 140q3 11 15 11h121q8 0 11.5 -4.5t-1.5 -12.5l-66 -140q-5 -10 -17 -10h-88zM100 553q-31 0 -50.5 17t-19.5 46v18q0 31 19.5 47t50.5 16q32 0 50.5 -16t18.5 -47v-18q0 -29 -18.5 -46t-50.5 -17zM298 553q-31 0 -50.5 17t-19.5 46v18
q0 31 19.5 47t50.5 16q32 0 50.5 -16t18.5 -47v-18q0 -29 -18.5 -46t-50.5 -17z" />
    <glyph glyph-name="Alphatonos" unicode="&#x386;" horiz-adv-x="537" 
d="M85 0q-12 0 -9 14l137 631q2 10 13 10h160q11 0 13 -10l136 -630q4 -15 -8 -15h-140q-10 0 -12 10l-51 371q-5 34 -9 68l-8 68h-2l-8 -68t-9 -68l-54 -370q-1 -11 -13 -11h-136zM229 125l19 117h111l22 -117h-152zM6 475q-13 0 -10 16l26 153q2 11 14 11h111q14 0 9 -17
l-45 -153q-3 -10 -16 -10h-89z" />
    <glyph glyph-name="anoteleia" unicode="&#x387;" horiz-adv-x="247" 
d="M124 326q-42 0 -67.5 21t-25.5 58v23q0 39 25.5 59t67.5 20q44 0 67.5 -20t23.5 -59v-23q0 -37 -23.5 -58t-67.5 -21z" />
    <glyph glyph-name="Epsilontonos" unicode="&#x388;" horiz-adv-x="560" 
d="M211 0q-11 0 -11 13v629q0 13 11 13h311q11 0 11 -13v-105q0 -13 -11 -13h-174v-131h157q11 0 11 -13v-99q0 -13 -11 -13h-157v-137h174q11 0 11 -13v-105q0 -13 -11 -13h-311zM11 475q-13 0 -10 16l26 153q2 11 14 11h111q14 0 9 -17l-45 -153q-3 -10 -16 -10h-89z" />
    <glyph glyph-name="Etatonos" unicode="&#x389;" horiz-adv-x="646" 
d="M212 0q-12 0 -12 13v629q0 13 12 13h124q12 0 12 -13v-246h116v246q0 13 12 13h124q12 0 12 -13v-629q0 -13 -12 -13h-124q-12 0 -12 13v252h-116v-252q0 -13 -12 -13h-124zM11 475q-13 0 -10 16l26 153q2 11 14 11h111q14 0 9 -17l-45 -153q-3 -10 -16 -10h-89z" />
    <glyph glyph-name="Iotatonos" unicode="&#x38a;" horiz-adv-x="382" 
d="M211 0q-11 0 -11 13v629q0 13 11 13h126q11 0 11 -13v-629q0 -13 -11 -13h-126zM11 475q-13 0 -10 16l26 153q2 11 14 11h111q14 0 9 -17l-45 -153q-3 -10 -16 -10h-89z" />
    <glyph glyph-name="Omicrontonos" unicode="&#x38c;" horiz-adv-x="602" 
d="M366 -6q-103 0 -156.5 58.5t-53.5 172.5v204q0 115 53.5 173.5t156.5 58.5t156.5 -58.5t53.5 -173.5v-204q0 -114 -53.5 -172.5t-156.5 -58.5zM366 127q33 0 47.5 23t14.5 80v194q0 58 -14.5 81t-47.5 23t-47.5 -23t-14.5 -81v-194q0 -57 14.5 -80t47.5 -23zM11 475
q-13 0 -10 16l26 153q2 11 14 11h111q14 0 9 -17l-45 -153q-3 -10 -16 -10h-89z" />
    <glyph glyph-name="Upsilontonos" unicode="&#x38e;" horiz-adv-x="634" 
d="M348 0q-11 0 -11 13v213l-146 413q-6 16 9 16h139q11 0 12 -9l37 -167q6 -29 12 -58.5t11 -58.5h2q5 29 10.5 58t11.5 58l38 168q1 9 11 9h138q14 0 8 -16l-145 -412v-214q0 -13 -10 -13h-127zM11 475q-13 0 -10 16l26 153q2 11 14 11h111q14 0 9 -17l-45 -153
q-3 -10 -16 -10h-89z" />
    <glyph glyph-name="Omegatonos" unicode="&#x38f;" horiz-adv-x="607" 
d="M164 0q-11 0 -11 13v105q0 13 11 13h52v2q-17 14 -29.5 32t-19 44t-6.5 65v155q0 115 53 173.5t157 58.5q105 0 157.5 -58.5t52.5 -173.5v-155q0 -39 -6.5 -65t-19 -44t-28.5 -32v-2h51q11 0 11 -13v-105q0 -13 -11 -13h-177q-11 0 -11 13v104q0 12 9 12q21 0 27.5 24.5
t6.5 70.5v200q0 58 -14.5 81t-47.5 23t-47.5 -23t-14.5 -81v-200q0 -46 6.5 -70.5t27.5 -24.5q9 0 9 -12v-104q0 -13 -11 -13h-177zM11 475q-13 0 -10 16l26 153q2 11 14 11h111q14 0 9 -17l-45 -153q-3 -10 -16 -10h-89z" />
    <glyph glyph-name="iotadieresistonos" unicode="&#x390;" horiz-adv-x="251" 
d="M148 -6q-38 0 -65 13.5t-41 47.5t-14 94v336q0 12 12 12h119q12 0 12 -12v-333q0 -24 7 -32.5t22 -8.5q9 0 19 1.5t17 2.5q9 1 9 -10v-86q0 -11 -10 -15q-15 -4 -36 -7t-51 -3zM59 740q-16 0 -12 16l37 140q3 11 15 11h121q8 0 11.5 -4.5t-1.5 -12.5l-66 -140
q-5 -10 -17 -10h-88zM1 553q-31 0 -50.5 17t-19.5 46v18q0 31 19.5 47t50.5 16q32 0 50.5 -16t18.5 -47v-18q0 -29 -18.5 -46t-50.5 -17zM199 553q-31 0 -50.5 17t-19.5 46v18q0 31 19.5 47t50.5 16q32 0 50.5 -16t18.5 -47v-18q0 -29 -18.5 -46t-50.5 -17z" />
    <glyph glyph-name="Alpha" unicode="&#x391;" horiz-adv-x="463" 
d="M11 0q-12 0 -9 14l137 631q2 10 13 10h160q11 0 13 -10l136 -630q4 -15 -8 -15h-140q-10 0 -12 10l-51 371q-5 34 -9 68l-8 68h-2l-8 -68t-9 -68l-54 -370q-1 -11 -13 -11h-136zM155 125l19 117h111l22 -117h-152z" />
    <glyph glyph-name="Beta" unicode="&#x392;" horiz-adv-x="440" 
d="M47 0q-13 0 -13 13v629q0 13 12 13h163q96 0 143.5 -41.5t47.5 -124.5q0 -51 -20 -85.5t-64 -55.5v-4q52 -15 78 -54t26 -99q0 -98 -50 -144.5t-159 -46.5h-164zM182 120h31q30 0 46 21t16 60q0 38 -16.5 58t-47.5 20h-29v-159zM182 387h23q24 0 37.5 20t13.5 58
q0 36 -13 53t-40 17h-21v-148z" />
    <glyph glyph-name="Gamma" unicode="&#x393;" horiz-adv-x="341" 
d="M45 0q-11 0 -11 13v629q0 13 11 13h273q10 0 10 -13v-105q0 -13 -10 -13h-136v-511q0 -13 -11 -13h-126z" />
    <glyph glyph-name="uni0394" unicode="&#x394;" horiz-adv-x="435" 
d="M19 0q-11 0 -11 13v85v8.5t1 7.5l116 531q2 10 13 10h161q10 0 12 -10l115 -530q1 -3 1.5 -7t0.5 -8v-87q0 -13 -11 -13h-398zM162 130h109l-36 251l-8 68l-8 68h-2l-8 -68t-9 -68z" />
    <glyph glyph-name="Epsilon" unicode="&#x395;" horiz-adv-x="395" 
d="M45 0q-11 0 -11 13v629q0 13 11 13h311q11 0 11 -13v-105q0 -13 -11 -13h-174v-131h157q11 0 11 -13v-99q0 -13 -11 -13h-157v-137h174q11 0 11 -13v-105q0 -13 -11 -13h-311z" />
    <glyph glyph-name="Zeta" unicode="&#x396;" horiz-adv-x="404" 
d="M17 0q-11 0 -11 13v5q0 9 3 16l147 377q11 29 25.5 59.5t24.5 53.5v2q-19 -1 -41.5 -1.5t-42.5 -0.5h-88q-11 0 -11 13v105q0 13 11 13h350q12 0 12 -13v-5q0 -4 -0.5 -8t-2.5 -8l-153 -384q-11 -28 -24 -56t-25 -50v-2q19 1 40.5 1.5t39.5 0.5h97q11 0 11 -13v-105
q0 -13 -11 -13h-351z" />
    <glyph glyph-name="Eta" unicode="&#x397;" horiz-adv-x="480" 
d="M46 0q-12 0 -12 13v629q0 13 12 13h124q12 0 12 -13v-246h116v246q0 13 12 13h124q12 0 12 -13v-629q0 -13 -12 -13h-124q-12 0 -12 13v252h-116v-252q0 -13 -12 -13h-124z" />
    <glyph glyph-name="Theta" unicode="&#x398;" horiz-adv-x="472" 
d="M209 274q-11 0 -11 13v86q0 13 11 13h54q11 0 11 -13v-86q0 -13 -11 -13h-54zM236 -6q-103 0 -156.5 58.5t-53.5 172.5v204q0 115 53.5 173.5t156.5 58.5t156.5 -58.5t53.5 -173.5v-204q0 -114 -53.5 -172.5t-156.5 -58.5zM236 127q33 0 47.5 23t14.5 80v194
q0 58 -14.5 81t-47.5 23t-47.5 -23t-14.5 -81v-194q0 -57 14.5 -80t47.5 -23z" />
    <glyph glyph-name="Iota" unicode="&#x399;" horiz-adv-x="216" 
d="M45 0q-11 0 -11 13v629q0 13 11 13h126q11 0 11 -13v-629q0 -13 -11 -13h-126z" />
    <glyph glyph-name="Kappa" unicode="&#x39a;" horiz-adv-x="465" 
d="M315 0q-10 0 -12 8l-107 317q-3 9 0 18l99 301q3 11 14 11h131q6 0 8.5 -4t0.5 -12l-101 -299l116 -324q4 -16 -9 -16h-140zM45 0q-11 0 -11 13v629q0 13 11 13h126q11 0 11 -13v-629q0 -13 -11 -13h-126z" />
    <glyph glyph-name="Lambda" unicode="&#x39b;" horiz-adv-x="457" 
d="M11 0q-12 0 -9 14l134 631q2 10 13 10h160q11 0 13 -10l133 -630q4 -15 -8 -15h-137q-11 0 -13 10l-51 368q-5 34 -8.5 69.5t-7.5 69.5h-2q-4 -34 -7.5 -69.5t-8.5 -69.5l-54 -367q-1 -11 -13 -11h-134z" />
    <glyph glyph-name="Mu" unicode="&#x39c;" horiz-adv-x="582" 
d="M39 0q-12 0 -12 12l9 630q0 13 11 13h144q12 0 13 -9l87 -307l86 307q3 9 14 9h144q11 0 11 -13l9 -630q0 -12 -12 -12h-123q-11 0 -11 13l-2 217q-1 61 2 105t7 80h-2q-9 -31 -19 -64t-21 -64l-71 -204q-3 -8 -10 -8h-5q-6 0 -9 8l-71 204q-12 32 -22 64.5t-18 63.5h-2
q4 -36 6.5 -80t2.5 -105l-2 -217q0 -13 -11 -13h-123z" />
    <glyph glyph-name="Nu" unicode="&#x39d;" horiz-adv-x="481" 
d="M46 0q-12 0 -12 13v629q0 13 11 13h151q9 0 12 -9l72 -271l13.5 -54t14 -60t10.5 -52h2q-2 20 -4 49.5t-4 61.5t-2.5 62t-0.5 50v210q0 13 12 13h114q12 0 12 -13v-629q0 -13 -11 -13h-150q-9 0 -12 9l-75 269q-11 40 -20 83.5t-16 79.5h-2q3 -29 5.5 -71.5t4 -84.5
t1.5 -71v-201q0 -13 -11 -13h-115z" />
    <glyph glyph-name="Xi" unicode="&#x39e;" horiz-adv-x="410" 
d="M38 523q-11 0 -11 13v106q0 13 11 13h334q11 0 11 -13v-106q0 -13 -11 -13h-334zM38 0q-11 0 -11 13v106q0 13 11 13h334q11 0 11 -13v-106q0 -13 -11 -13h-334zM82 265q-11 0 -11 13v106q0 13 11 13h247q11 0 11 -13v-106q0 -13 -11 -13h-247z" />
    <glyph glyph-name="Omicron" unicode="&#x39f;" horiz-adv-x="472" 
d="M236 -6q-103 0 -156.5 58.5t-53.5 172.5v204q0 115 53.5 173.5t156.5 58.5t156.5 -58.5t53.5 -173.5v-204q0 -114 -53.5 -172.5t-156.5 -58.5zM236 127q33 0 47.5 23t14.5 80v194q0 58 -14.5 81t-47.5 23t-47.5 -23t-14.5 -81v-194q0 -57 14.5 -80t47.5 -23z" />
    <glyph glyph-name="Pi" unicode="&#x3a0;" horiz-adv-x="477" 
d="M45 0q-11 0 -11 14v628q0 13 12 13h385q12 0 12 -13v-628q0 -14 -12 -14h-124q-12 0 -12 13v511h-113v-509q0 -15 -10 -15h-127z" />
    <glyph glyph-name="Rho" unicode="&#x3a1;" horiz-adv-x="421" 
d="M45 0q-11 0 -11 13v629q0 13 11 13h152q104 0 153.5 -54t49.5 -168q0 -106 -51.5 -162t-148.5 -56h-18v-202q0 -13 -11 -13h-126zM182 346h15q28 0 41.5 21.5t13.5 65.5q0 48 -12.5 69.5t-41.5 21.5h-16v-178z" />
    <glyph glyph-name="Sigma" unicode="&#x3a3;" horiz-adv-x="377" 
d="M28 0q-11 0 -11 13v91q0 10 6 19l105 205l-105 204q-6 10 -6 19v91q0 13 11 13h323q11 0 11 -13v-105q0 -13 -11 -13h-95q-17 0 -32 0.5t-43 1.5v-2q9 -16 18.5 -31t16.5 -31l47 -93q4 -8 4 -18v-46q0 -9 -4 -17l-45 -89q-9 -17 -19 -33.5t-21 -34.5v-2q18 2 39.5 2h38.5
h95q11 0 11 -13v-105q0 -13 -11 -13h-323z" />
    <glyph glyph-name="Tau" unicode="&#x3a4;" horiz-adv-x="404" 
d="M139 0q-11 0 -11 13v511h-104q-11 0 -11 13v105q0 13 11 13h356q11 0 11 -13v-105q0 -13 -11 -13h-104v-511q0 -13 -11 -13h-126z" />
    <glyph glyph-name="Upsilon" unicode="&#x3a5;" horiz-adv-x="446" 
d="M160 0q-11 0 -11 13v213l-146 413q-6 16 9 16h139q11 0 12 -9l37 -167q6 -29 12 -58.5t11 -58.5h2q5 29 10.5 58t11.5 58l38 168q1 9 11 9h138q14 0 8 -16l-145 -412v-214q0 -13 -10 -13h-127z" />
    <glyph glyph-name="Phi" unicode="&#x3a6;" horiz-adv-x="595" 
d="M264 67q-77 0 -130.5 24.5t-80.5 73t-27 120.5v123q0 71 27 120t80.5 73.5t130.5 24.5h66q78 0 131 -24.5t80.5 -73t27.5 -120.5v-123q0 -72 -27.5 -120.5t-80.5 -73t-131 -24.5h-66zM252 195h91q31 0 49.5 9t26.5 30t8 55v115q0 35 -8 55.5t-26.5 29t-49.5 8.5h-91
q-30 0 -49 -8.5t-27 -29t-8 -55.5v-115q0 -34 8 -55t27 -30t49 -9zM235 -20q-12 0 -12 14v105l8 17v452l-8 9v122q0 13 12 13h124q12 0 12 -13v-122l-8 -11v-448l8 -19v-105q0 -14 -12 -14h-124z" />
    <glyph glyph-name="Chi" unicode="&#x3a7;" horiz-adv-x="446" 
d="M10 0q-15 0 -8 16l139 320l-131 303q-6 16 7 16h147q8 0 11 -8l27 -99q5 -24 11.5 -48t10.5 -48h2q5 24 11 48t11 48l24 99q1 8 10 8h148q13 0 6 -16l-130 -304l138 -319q7 -16 -8 -16h-147q-9 0 -12 8l-31 115q-5 25 -11 48.5t-12 46.5h-1q-5 -23 -11 -47l-12 -48
l-33 -115q-3 -8 -13 -8h-143z" />
    <glyph glyph-name="Psi" unicode="&#x3a8;" horiz-adv-x="595" 
d="M195 158q-65 0 -103 18.5t-53.5 63t-15.5 120.5v282q0 13 12 13h124q12 0 12 -13v-274q0 -46 7.5 -63t38.5 -17h161q31 0 38.5 17t7.5 63v274q0 13 12 13h124q12 0 12 -13v-282q0 -76 -15.5 -120.5t-53 -63t-103.5 -18.5h-205zM236 0q-13 0 -13 13l1 629q0 13 12 13h123
q13 0 13 -13l-1 -629q0 -13 -12 -13h-123z" />
    <glyph glyph-name="uni03A9" unicode="&#x3a9;" horiz-adv-x="472" 
d="M29 0q-11 0 -11 13v105q0 13 11 13h52v2q-17 14 -29.5 32t-19 44t-6.5 65v155q0 115 53 173.5t157 58.5q105 0 157.5 -58.5t52.5 -173.5v-155q0 -39 -6.5 -65t-19 -44t-28.5 -32v-2h51q11 0 11 -13v-105q0 -13 -11 -13h-177q-11 0 -11 13v104q0 12 9 12q21 0 27.5 24.5
t6.5 70.5v200q0 58 -14.5 81t-47.5 23t-47.5 -23t-14.5 -81v-200q0 -46 6.5 -70.5t27.5 -24.5q9 0 9 -12v-104q0 -13 -11 -13h-177z" />
    <glyph glyph-name="Iotadieresis" unicode="&#x3aa;" horiz-adv-x="216" 
d="M45 0q-11 0 -11 13v629q0 13 11 13h126q11 0 11 -13v-629q0 -13 -11 -13h-126zM28 712q-31 0 -50.5 17t-19.5 46v18q0 30 19.5 46.5t50.5 16.5q32 0 50.5 -16.5t18.5 -46.5v-18q0 -29 -18.5 -46t-50.5 -17zM193 712q-30 0 -49.5 17t-19.5 46v18q0 30 19.5 46.5t49.5 16.5
q33 0 51 -16.5t18 -46.5v-18q0 -29 -18 -46t-51 -17z" />
    <glyph glyph-name="Upsilondieresis" unicode="&#x3ab;" horiz-adv-x="446" 
d="M160 0q-11 0 -11 13v213l-146 413q-6 16 9 16h139q11 0 12 -9l37 -167q6 -29 12 -58.5t11 -58.5h2q5 29 10.5 58t11.5 58l38 168q1 9 11 9h138q14 0 8 -16l-145 -412v-214q0 -13 -10 -13h-127zM141 712q-31 0 -50.5 17t-19.5 46v18q0 30 19.5 46.5t50.5 16.5
q32 0 50.5 -16.5t18.5 -46.5v-18q0 -29 -18.5 -46t-50.5 -17zM306 712q-30 0 -49.5 17t-19.5 46v18q0 30 19.5 46.5t49.5 16.5q33 0 51 -16.5t18 -46.5v-18q0 -29 -18 -46t-51 -17z" />
    <glyph glyph-name="alphatonos" unicode="&#x3ac;" horiz-adv-x="390" 
d="M118 -6q-50 0 -72 31.5t-22 100.5v232q0 49 11.5 81t34.5 48t57 16q31 0 57 -10.5t49 -30.5l-1 -94q-11 10 -20.5 14.5t-18.5 4.5t-14.5 -4t-8.5 -12.5t-3 -22.5v-193q0 -21 4.5 -29t15.5 -8q10 0 21 6.5t19 17.5l23 -61q-24 -39 -59.5 -63t-72.5 -24zM316 -6
q-89 0 -89 97v13l-6 13v305l1 25v37q0 13 12 13h118q12 0 12 -13v-354q0 -11 2 -15t9 -4q4 0 7 0.5t5 1.5q7 3 7 -5v-92q0 -12 -12 -15q-33 -7 -66 -7zM122 544q-14 0 -10 14l41 165q3 11 16 11h123q15 0 8 -16l-72 -164q-3 -10 -16 -10h-90z" />
    <glyph glyph-name="epsilontonos" unicode="&#x3ad;" horiz-adv-x="380" 
d="M198 -6q-94 0 -138 37t-44 116q0 39 20.5 68t55.5 39v3q-31 15 -48 43.5t-17 69.5q0 65 40.5 99t125.5 34q84 0 129 -39.5t37 -115.5q-1 -15 -11 -15h-106q-13 0 -11 13q4 48 -29 48q-18 0 -25 -10.5t-7 -34.5q0 -30 8.5 -43t25.5 -13h22q11 0 11 -13v-67q0 -13 -11 -13
h-31q-18 0 -27 -11t-9 -37q0 -24 9.5 -36t28.5 -12t29 11t8 31q-2 12 11 12h106q10 0 11 -15q7 -74 -34 -111.5t-130 -37.5zM137 546q-14 0 -10 14l41 165q3 11 16 11h123q15 0 8 -16l-72 -164q-3 -10 -16 -10h-90z" />
    <glyph glyph-name="etatonos" unicode="&#x3ae;" horiz-adv-x="409" 
d="M250 -185q-11 0 -11 13v520q0 17 -5.5 24.5t-17.5 7.5q-9 0 -19 -6t-18 -16l-23 61q23 34 57.5 59t76.5 25q48 0 70 -31t22 -100v-544q0 -13 -12 -13h-120zM52 0q-12 0 -12 13v355q0 10 -2.5 14.5t-9.5 4.5q-3 0 -6 -1l-6 -2q-6 -1 -6 6v91q0 12 11 15q15 5 32 6t34 1
q43 0 66 -24t23 -72v-12l7 -15v-367q0 -13 -12 -13h-119zM148 546q-14 0 -10 14l41 165q3 11 16 11h123q15 0 8 -16l-72 -164q-3 -10 -16 -10h-90z" />
    <glyph glyph-name="iotatonos" unicode="&#x3af;" horiz-adv-x="251" 
d="M148 -6q-38 0 -65 13.5t-41 47.5t-14 94v336q0 12 12 12h119q12 0 12 -12v-333q0 -24 7 -32.5t22 -8.5q9 0 19 1.5t17 2.5q9 1 9 -10v-86q0 -11 -10 -15q-15 -4 -36 -7t-51 -3zM44 546q-14 0 -10 14l41 165q3 11 16 11h123q15 0 8 -16l-72 -164q-3 -10 -16 -10h-90z" />
    <glyph glyph-name="upsilondieresistonos" unicode="&#x3b0;" horiz-adv-x="403" 
d="M209 -6q-82 0 -125.5 43t-43.5 125v206q0 10 -2.5 14.5t-9.5 4.5q-3 0 -6 -1l-6 -2q-6 -1 -6 6v91q0 12 11 15q15 4 32 5.5t36 1.5q56 0 75 -26t19 -85v-231q0 -23 5 -33t21 -10t21 10.5t5 34.5v123q0 60 -3.5 111.5t-7.5 86.5q-1 13 10 13h121q11 0 12 -11
q5 -35 8 -85.5t3 -108.5v-126q0 -85 -44 -128.5t-125 -43.5zM155 738q-16 0 -12 16l37 140q3 11 15 11h121q8 0 11.5 -4.5t-1.5 -12.5l-66 -140q-5 -10 -17 -10h-88zM97 551q-31 0 -50.5 17t-19.5 46v18q0 31 19.5 47t50.5 16q32 0 50.5 -16t18.5 -47v-18q0 -29 -18.5 -46
t-50.5 -17zM295 551q-31 0 -50.5 17t-19.5 46v18q0 31 19.5 47t50.5 16q32 0 50.5 -16t18.5 -47v-18q0 -29 -18.5 -46t-50.5 -17z" />
    <glyph glyph-name="alpha" unicode="&#x3b1;" horiz-adv-x="390" 
d="M118 -6q-50 0 -72 31.5t-22 100.5v232q0 49 11.5 81t34.5 48t57 16q31 0 57 -10.5t49 -30.5l-1 -94q-11 10 -20.5 14.5t-18.5 4.5t-14.5 -4t-8.5 -12.5t-3 -22.5v-193q0 -21 4.5 -29t15.5 -8q10 0 21 6.5t19 17.5l23 -61q-24 -39 -59.5 -63t-72.5 -24zM316 -6
q-89 0 -89 97v13l-6 13v305l1 25v37q0 13 12 13h118q12 0 12 -13v-354q0 -11 2 -15t9 -4q4 0 7 0.5t5 1.5q7 3 7 -5v-92q0 -12 -12 -15q-33 -7 -66 -7z" />
    <glyph glyph-name="beta" unicode="&#x3b2;" horiz-adv-x="406" 
d="M40 -185q-12 0 -12 13v690q0 84 44 127.5t127 43.5q78 0 121 -38.5t43 -110.5v-36q0 -45 -13.5 -74.5t-43.5 -47.5v-2q38 -9 57 -36t19 -74v-123q0 -78 -29 -115.5t-88 -37.5q-29 0 -55 6.5t-46 16.5l1 104q10 -5 21 -8t22 -3q16 0 25 11.5t9 33.5v121q0 21 -7.5 32
t-23.5 11h-13q-7 0 -7 9v70q0 9 7 9h5q13 0 17.5 13.5t4.5 42.5v52q0 29 -6 39.5t-21 10.5q-14 0 -20.5 -9.5t-6.5 -28.5v-699q0 -13 -12 -13h-119z" />
    <glyph glyph-name="gamma" unicode="&#x3b3;" horiz-adv-x="402" 
d="M142 -185q-12 0 -12 13v125q-5 62 -16.5 130t-25.5 135.5t-27 127.5q-5 23 -11 32t-20 9q-8 0 -18 -2q-4 -1 -6 1t-2 7v89q0 12 10 14q15 4 31.5 5.5t38.5 1.5q25 0 44.5 -9t33.5 -33t21 -70q6 -36 9.5 -63.5t4.5 -47.5q2 -16 3.5 -46l3 -60t2.5 -49h2q1 13 2 34.5t3 47
l4 51t4 43.5l23 185q1 11 13 11h128q12 0 9 -14l-121 -488v-167q0 -13 -12 -13h-119z" />
    <glyph glyph-name="delta" unicode="&#x3b4;" horiz-adv-x="399" 
d="M199 -6q-81 0 -128 44t-47 131v94q0 47 14.5 80t38.5 54.5t52.5 34t56.5 18.5l62 -84q-32 -10 -50 -22t-25 -30.5t-7 -47.5v-96q0 -29 8 -40.5t25 -11.5q18 0 26 11.5t8 40.5v89q0 35 -4.5 56.5t-14 39t-24.5 36.5l-105 143q-12 17 -18.5 36.5t-6.5 38.5q0 31 19 53
t66 22h212q11 0 11 -13v-88q0 -13 -11 -13h-112q-12 0 -12 -10q0 -5 3 -9.5t7 -11.5l57 -70q34 -41 50 -77.5t20.5 -72t4.5 -73.5v-77q0 -87 -47 -131t-129 -44z" />
    <glyph glyph-name="epsilon" unicode="&#x3b5;" horiz-adv-x="380" 
d="M198 -6q-94 0 -138 37t-44 116q0 39 20.5 68t55.5 39v3q-31 15 -48 43.5t-17 69.5q0 65 40.5 99t125.5 34q84 0 129 -39.5t37 -115.5q-1 -15 -11 -15h-106q-13 0 -11 13q4 48 -29 48q-18 0 -25 -10.5t-7 -34.5q0 -30 8.5 -43t25.5 -13h22q11 0 11 -13v-67q0 -13 -11 -13
h-31q-18 0 -27 -11t-9 -37q0 -24 9.5 -36t28.5 -12t29 11t8 31q-2 12 11 12h106q10 0 11 -15q7 -74 -34 -111.5t-130 -37.5z" />
    <glyph glyph-name="zeta" unicode="&#x3b6;" horiz-adv-x="352" 
d="M222 -132q-12 0 -12 13v89q0 18 -6.5 24t-18.5 6h-22q-77 0 -112 49t-35 133q0 62 15.5 112t39 95t49.5 89l55 91h-130q-12 0 -12 13v88q0 13 12 13h278q12 0 12 -13v-70q0 -5 -1.5 -10t-3.5 -9l-58 -100q-30 -51 -56 -100.5t-41.5 -95t-15.5 -85.5q0 -38 11.5 -57
t48.5 -20q37 -2 65.5 -10t45 -31t16.5 -72v-129q0 -13 -12 -13h-112z" />
    <glyph glyph-name="eta" unicode="&#x3b7;" horiz-adv-x="409" 
d="M250 -185q-11 0 -11 13v520q0 17 -5.5 24.5t-17.5 7.5q-9 0 -19 -6t-18 -16l-23 61q23 34 57.5 59t76.5 25q48 0 70 -31t22 -100v-544q0 -13 -12 -13h-120zM52 0q-12 0 -12 13v355q0 10 -2.5 14.5t-9.5 4.5q-3 0 -6 -1l-6 -2q-6 -1 -6 6v91q0 12 11 15q15 5 32 6t34 1
q43 0 66 -24t23 -72v-12l7 -15v-367q0 -13 -12 -13h-119z" />
    <glyph glyph-name="theta" unicode="&#x3b8;" horiz-adv-x="402" 
d="M201 689q80 0 126.5 -44t46.5 -130v-346q0 -87 -46.5 -131t-126.5 -44q-79 0 -126 44t-47 131v346q0 86 47 130t126 44zM201 565q-17 0 -25 -11.5t-8 -40.5v-111h65v111q0 29 -7.5 40.5t-24.5 11.5zM201 118q17 0 24.5 11.5t7.5 40.5v122h-65v-122q0 -29 8 -40.5
t25 -11.5z" />
    <glyph glyph-name="iota" unicode="&#x3b9;" horiz-adv-x="251" 
d="M148 -6q-38 0 -65 13.5t-41 47.5t-14 94v336q0 12 12 12h119q12 0 12 -12v-333q0 -24 7 -32.5t22 -8.5q9 0 19 1.5t17 2.5q9 1 9 -10v-86q0 -11 -10 -15q-15 -4 -36 -7t-51 -3z" />
    <glyph glyph-name="kappa" unicode="&#x3ba;" horiz-adv-x="420" 
d="M273 0q-10 0 -13 9l-82 226q-4 13 0 23l82 232q3 7 12 7h128q8 0 9 -3.5t-1 -10.5l-86 -229l93 -238q7 -16 -7 -16h-135zM39 0q-11 0 -11 13v472q0 12 11 12h121q11 0 11 -12v-472q0 -13 -11 -13h-121z" />
    <glyph glyph-name="lambda" unicode="&#x3bb;" horiz-adv-x="408" 
d="M317 -6q-33 0 -54.5 11t-33.5 44.5t-19 97.5l-8 73q-3 32 -5 62.5t-4 62.5h-2q-2 -32 -4.5 -62t-6.5 -61l-25 -211q-1 -11 -12 -11h-130q-12 0 -9 15l102 450q3 10 13 10h32l-9 60q-2 19 -11.5 27.5t-23.5 8.5q-8 0 -14.5 -0.5t-13.5 -2.5q-9 -1 -9 9v91q0 11 8 13
q32 8 74 8q29 0 56 -8.5t48 -33t28 -72.5l65 -427q3 -20 9 -28t17 -8q7 0 19 3q10 2 10 -11v-87q0 -9 -10 -12q-18 -6 -38 -8.5t-39 -2.5z" />
    <glyph glyph-name="uni03BC" unicode="&#x3bc;" horiz-adv-x="393" 
d="M40 -185q-12 0 -12 13v656q0 13 12 13h119q12 0 12 -13v-327q0 -21 5.5 -30t17.5 -9q8 0 15.5 4t14.5 11v351q0 13 13 13h118q12 0 12 -13v-354q0 -10 2.5 -14.5t9.5 -4.5q3 0 6 0.5t6 1.5q6 2 6 -6v-91q0 -12 -11 -15q-17 -3 -33.5 -5t-32.5 -2q-28 0 -48 10.5t-30 31.5
v2q-10 -19 -21.5 -29t-25.5 -10q-8 0 -14.5 3t-9.5 7v-181q0 -13 -12 -13h-119z" />
    <glyph glyph-name="nu" unicode="&#x3bd;" horiz-adv-x="394" 
d="M130 0q-10 0 -13 11l-106 472q-4 14 9 14h131q11 0 13 -10l27 -237q2 -26 4.5 -51t4.5 -51h2q2 26 6.5 51.5t8.5 51.5l7 42q6 35 9 67.5t3 68.5v56q0 12 10 12h122q11 0 11 -13v-45q0 -42 -8 -89.5t-20 -93.5l-64 -246q-3 -10 -12 -10h-145z" />
    <glyph glyph-name="xi" unicode="&#x3be;" horiz-adv-x="352" 
d="M220 -132q-12 0 -12 13v86q0 19 -5.5 26t-20.5 7h-26q-68 0 -102 42t-34 123v45q0 66 23 99.5t62 43.5v3q-42 17 -56 40t-14 58v23q0 38 18 61t54 36v2q-23 -1 -36 -1.5t-25 -0.5h-21q-12 0 -12 13v83q0 13 12 13h279q12 0 12 -13v-89q0 -13 -13 -13h-58q-36 0 -52 -18.5
t-16 -57.5v-17q0 -36 14 -53t46 -17h29q12 0 12 -13v-86q0 -13 -12 -13h-49q-28 0 -41.5 -17.5t-13.5 -54.5v-34q0 -35 13.5 -49.5t41.5 -14.5q40 0 68 -8t43.5 -32.5t15.5 -74.5v-127q0 -13 -12 -13h-112z" />
    <glyph glyph-name="omicron" unicode="&#x3bf;" horiz-adv-x="394" 
d="M197 -6q-82 0 -127.5 45t-45.5 130v161q0 83 45.5 128t127.5 45q83 0 128 -45t45 -128v-161q0 -85 -45 -130t-128 -45zM197 118q16 0 23.5 12t7.5 40v158q0 29 -7.5 40.5t-23.5 11.5t-23.5 -11.5t-7.5 -40.5v-158q0 -28 7.5 -40t23.5 -12z" />
    <glyph glyph-name="pi" unicode="&#x3c0;" horiz-adv-x="464" 
d="M365 -6q-58 0 -85 35t-27 117v230h-48v-363q0 -13 -12 -13h-119q-12 0 -12 13v363h-41q-11 0 -11 13v95q0 13 11 13h423q11 0 11 -13v-95q0 -13 -11 -13h-48v-223q0 -23 6 -32.5t20 -9.5q6 0 12.5 1t16.5 2q9 2 9 -9v-86q0 -11 -9 -14q-20 -5 -42 -8t-44 -3z" />
    <glyph glyph-name="rho" unicode="&#x3c1;" horiz-adv-x="390" 
d="M39 -185q-11 0 -11 13v503q0 91 45.5 131.5t123.5 40.5q80 0 124.5 -40.5t44.5 -131.5v-180q0 -81 -26 -119t-83 -38q-23 0 -51 7t-52 18v105q11 -5 22 -9.5t21 -4.5q13 0 20 10t7 33v184q0 22 -6.5 32.5t-20.5 10.5q-13 0 -19.5 -10.5t-6.5 -32.5v-509q0 -13 -12 -13
h-120z" />
    <glyph glyph-name="uni03C2" unicode="&#x3c2;" horiz-adv-x="385" 
d="M230 -132q-11 0 -11 13v87q0 18 -6 25t-21 7h-23q-76 0 -110.5 42t-34.5 135v151q0 86 44 130.5t128 44.5q55 0 93.5 -23.5t56 -65.5t12.5 -97q-2 -16 -13 -16h-104q-4 0 -8 4t-3 9q2 37 -5 51.5t-26 14.5q-17 0 -25 -12.5t-8 -41.5v-135q0 -38 12 -52.5t42 -15.5
q50 -2 79.5 -13.5t42 -36t12.5 -65.5v-127q0 -13 -11 -13h-113z" />
    <glyph glyph-name="sigma" unicode="&#x3c3;" horiz-adv-x="422" 
d="M197 -6q-83 0 -128 45.5t-45 129.5v155q0 79 44 126t120 47h216q11 0 11 -12v-95q0 -14 -11 -12l-63 7v-2q13 -12 21 -36t8 -53v-125q0 -84 -45 -129.5t-128 -45.5zM197 118q17 0 24 12t7 40v156q0 16 -2.5 26t-7 17t-10.5 11h-12q-15 0 -22.5 -14.5t-7.5 -43.5v-152
q0 -28 7 -40t24 -12z" />
    <glyph glyph-name="tau" unicode="&#x3c4;" horiz-adv-x="377" 
d="M225 -6q-36 0 -63 13.5t-41 46.5t-14 93v229h-84q-12 0 -12 13v95q0 13 11 13h333q11 0 11 -13v-95q0 -13 -11 -13h-105v-222q0 -26 7.5 -34.5t25.5 -8.5q10 0 22 1.5l20 2.5q9 1 9 -9v-87q0 -11 -9 -14q-16 -4 -41 -7.5t-59 -3.5z" />
    <glyph glyph-name="upsilon" unicode="&#x3c5;" horiz-adv-x="403" 
d="M209 -6q-82 0 -125.5 43t-43.5 125v206q0 10 -2.5 14.5t-9.5 4.5q-3 0 -6 -1l-6 -2q-6 -1 -6 6v91q0 12 11 15q15 4 32 5.5t36 1.5q56 0 75 -26t19 -85v-231q0 -23 5 -33t21 -10t21 10.5t5 34.5v123q0 60 -3.5 111.5t-7.5 86.5q-1 13 10 13h121q11 0 12 -11
q5 -35 8 -85.5t3 -108.5v-126q0 -85 -44 -128.5t-125 -43.5z" />
    <glyph glyph-name="phi" unicode="&#x3c6;" horiz-adv-x="575" 
d="M227 -185q-11 0 -11 13v172h-18q-83 0 -126.5 40.5t-43.5 137.5v306q0 13 12 13h120q11 0 11 -13v-319q0 -28 8.5 -39t25.5 -11h11v360q0 11 10 13q22 5 62.5 10t90.5 5q82 0 125 -37.5t43 -121.5v-166q0 -97 -44 -137.5t-126 -40.5h-18v-172q0 -13 -12 -13h-120z
M359 115h10q18 0 26.5 11t8.5 39v183q0 18 -5.5 25t-16.5 7q-6 0 -12 -0.5t-11 -2.5v-262z" />
    <glyph glyph-name="chi" unicode="&#x3c7;" horiz-adv-x="387" 
d="M307 -191q-52 0 -70 26.5t-24 68.5l-9 77q-3 23 -5.5 45.5t-4.5 45.5h-2q-2 -23 -5 -45.5t-6 -45.5l-18 -156q-2 -10 -12 -10h-135q-14 0 -10 16l97 330l-43 200q-3 14 -7 21t-15 7q-6 0 -11.5 -1t-10.5 -3q-9 -2 -9 9v88q0 10 9 13q13 4 31 6t38 2q53 0 71 -26t24 -68
l10 -83q2 -20 4.5 -39.5t4.5 -39.5h1q3 20 5 39.5t4 39.5l17 161q2 10 12 10h133q13 0 9 -14l-90 -321l44 -211q3 -13 7.5 -20.5t12.5 -7.5q6 0 11.5 1.5t10.5 2.5q8 3 8 -8v-89q0 -10 -9 -13q-13 -4 -30.5 -6t-37.5 -2z" />
    <glyph glyph-name="psi" unicode="&#x3c8;" horiz-adv-x="580" 
d="M227 -185q-11 0 -11 13v172h-18q-83 0 -126.5 40.5t-43.5 137.5v306q0 13 11 13h120q12 0 12 -13v-319q0 -28 8.5 -39t25.5 -11h11v512q0 13 11 13h120q12 0 12 -13v-512h15q18 0 26.5 11t8.5 39l-1 196q0 15 -3 22.5t-13 7.5q-6 0 -6 11v91q0 10 11 10q78 0 115.5 -32
t38.5 -110l1 -183q0 -97 -44 -137.5t-126 -40.5h-23v-172q0 -13 -12 -13h-120z" />
    <glyph glyph-name="omega" unicode="&#x3c9;" horiz-adv-x="566" 
d="M161 -6q-67 0 -102 41t-34 120l1 206q1 75 36.5 108.5t117.5 33.5q11 0 11 -10v-91q0 -11 -6 -11q-10 0 -13 -6.5t-3 -23.5l-1 -200q0 -23 5.5 -33t17.5 -10q11 0 17 10.5t6 33.5v165q0 13 11 13h116q11 0 11 -13v-165q0 -23 5.5 -33.5t17.5 -10.5t17.5 10t5.5 33l-1 200
q0 17 -3.5 23.5t-12.5 6.5q-6 0 -6 11v91q0 10 11 10q82 0 117.5 -33t36.5 -109l1 -206q0 -79 -35.5 -120t-101.5 -41q-42 0 -72.5 20t-47.5 58h-2q-18 -38 -48 -58t-73 -20z" />
    <glyph glyph-name="iotadieresis" unicode="&#x3ca;" horiz-adv-x="251" 
d="M148 -6q-38 0 -65 13.5t-41 47.5t-14 94v336q0 12 12 12h119q12 0 12 -12v-333q0 -24 7 -32.5t22 -8.5q9 0 19 1.5t17 2.5q9 1 9 -10v-86q0 -11 -10 -15q-15 -4 -36 -7t-51 -3zM17 560q-31 0 -50.5 17t-19.5 46v18q0 31 19.5 47t50.5 16q32 0 50.5 -16t18.5 -47v-18
q0 -29 -18.5 -46t-50.5 -17zM182 560q-30 0 -49.5 17t-19.5 46v18q0 31 19.5 47t49.5 16q33 0 51 -16t18 -47v-18q0 -29 -18 -46t-51 -17z" />
    <glyph glyph-name="upsilondieresis" unicode="&#x3cb;" horiz-adv-x="403" 
d="M209 -6q-82 0 -125.5 43t-43.5 125v206q0 10 -2.5 14.5t-9.5 4.5q-3 0 -6 -1l-6 -2q-6 -1 -6 6v91q0 12 11 15q15 4 32 5.5t36 1.5q56 0 75 -26t19 -85v-231q0 -23 5 -33t21 -10t21 10.5t5 34.5v123q0 60 -3.5 111.5t-7.5 86.5q-1 13 10 13h121q11 0 12 -11
q5 -35 8 -85.5t3 -108.5v-126q0 -85 -44 -128.5t-125 -43.5zM113 558q-31 0 -50.5 17t-19.5 46v18q0 31 19.5 47t50.5 16q32 0 50.5 -16t18.5 -47v-18q0 -29 -18.5 -46t-50.5 -17zM278 558q-30 0 -49.5 17t-19.5 46v18q0 31 19.5 47t49.5 16q33 0 51 -16t18 -47v-18
q0 -29 -18 -46t-51 -17z" />
    <glyph glyph-name="omicrontonos" unicode="&#x3cc;" horiz-adv-x="394" 
d="M197 -6q-82 0 -127.5 45t-45.5 130v161q0 83 45.5 128t127.5 45q83 0 128 -45t45 -128v-161q0 -85 -45 -130t-128 -45zM197 118q16 0 23.5 12t7.5 40v158q0 29 -7.5 40.5t-23.5 11.5t-23.5 -11.5t-7.5 -40.5v-158q0 -28 7.5 -40t23.5 -12zM142 546q-14 0 -10 14l41 165
q3 11 16 11h123q15 0 8 -16l-72 -164q-3 -10 -16 -10h-90z" />
    <glyph glyph-name="upsilontonos" unicode="&#x3cd;" horiz-adv-x="403" 
d="M209 -6q-82 0 -125.5 43t-43.5 125v206q0 10 -2.5 14.5t-9.5 4.5q-3 0 -6 -1l-6 -2q-6 -1 -6 6v91q0 12 11 15q15 4 32 5.5t36 1.5q56 0 75 -26t19 -85v-231q0 -23 5 -33t21 -10t21 10.5t5 34.5v123q0 60 -3.5 111.5t-7.5 86.5q-1 13 10 13h121q11 0 12 -11
q5 -35 8 -85.5t3 -108.5v-126q0 -85 -44 -128.5t-125 -43.5zM140 544q-14 0 -10 14l41 165q3 11 16 11h123q15 0 8 -16l-72 -164q-3 -10 -16 -10h-90z" />
    <glyph glyph-name="omegatonos" unicode="&#x3ce;" horiz-adv-x="566" 
d="M161 -6q-67 0 -102 41t-34 120l1 206q1 75 36.5 108.5t117.5 33.5q11 0 11 -10v-91q0 -11 -6 -11q-10 0 -13 -6.5t-3 -23.5l-1 -200q0 -23 5.5 -33t17.5 -10q11 0 17 10.5t6 33.5v165q0 13 11 13h116q11 0 11 -13v-165q0 -23 5.5 -33.5t17.5 -10.5t17.5 10t5.5 33l-1 200
q0 17 -3.5 23.5t-12.5 6.5q-6 0 -6 11v91q0 10 11 10q82 0 117.5 -33t36.5 -109l1 -206q0 -79 -35.5 -120t-101.5 -41q-42 0 -72.5 20t-47.5 58h-2q-18 -38 -48 -58t-73 -20zM227 546q-14 0 -10 14l41 165q3 11 16 11h123q15 0 8 -16l-72 -164q-3 -10 -16 -10h-90z" />
    <glyph glyph-name="uni0400" unicode="&#x400;" horiz-adv-x="395" 
d="M45 0q-11 0 -11 13v629q0 13 11 13h311q11 0 11 -13v-105q0 -13 -11 -13h-174v-131h157q11 0 11 -13v-99q0 -13 -11 -13h-157v-137h174q11 0 11 -13v-105q0 -13 -11 -13h-311zM190 708q-12 0 -19 10l-73 111q-4 7 -2 11t7 4h98q6 0 9.5 -2.5t6.5 -6.5l58 -113
q3 -5 1 -9.5t-9 -4.5h-77z" />
    <glyph glyph-name="uni0401" unicode="&#x401;" horiz-adv-x="395" 
d="M45 0q-11 0 -11 13v629q0 13 11 13h311q11 0 11 -13v-105q0 -13 -11 -13h-174v-131h157q11 0 11 -13v-99q0 -13 -11 -13h-157v-137h174q11 0 11 -13v-105q0 -13 -11 -13h-311zM118 712q-31 0 -50.5 17t-19.5 46v18q0 30 19.5 46.5t50.5 16.5q32 0 50.5 -16.5t18.5 -46.5
v-18q0 -29 -18.5 -46t-50.5 -17zM283 712q-30 0 -49.5 17t-19.5 46v18q0 30 19.5 46.5t49.5 16.5q33 0 51 -16.5t18 -46.5v-18q0 -29 -18 -46t-51 -17z" />
    <glyph glyph-name="uni0402" unicode="&#x402;" horiz-adv-x="515" 
d="M348 -7q-8 -2 -11 8l-31 98q-5 15 5 18q11 4 17 12t8.5 25.5t2.5 47.5v68q0 15 -5 23t-17 8q-11 0 -21 -5.5t-20 -13.5v-269q0 -13 -11 -13h-126q-11 0 -11 13v511h-104q-11 0 -11 13v105q0 13 11 13h356q11 0 11 -13v-105q0 -13 -11 -13h-104v-137q21 16 51.5 30.5
t67.5 14.5q47 0 69.5 -32t22.5 -88v-116q0 -65 -13.5 -105t-43.5 -62.5t-82 -35.5z" />
    <glyph glyph-name="uni0403" unicode="&#x403;" horiz-adv-x="341" 
d="M45 0q-11 0 -11 13v629q0 13 11 13h273q10 0 10 -13v-105q0 -13 -10 -13h-136v-511q0 -13 -11 -13h-126zM118 708q-7 0 -9 4.5t1 9.5l58 113q6 9 16 9h97q6 0 8.5 -4t-2.5 -11l-73 -111q-7 -10 -19 -10h-77z" />
    <glyph glyph-name="uni0404" unicode="&#x404;" horiz-adv-x="457" 
d="M228 -6q-68 0 -113 24.5t-67 73.5t-22 122v227q0 111 53.5 165.5t153.5 54.5q68 0 114.5 -26t68 -73t14.5 -110q-1 -15 -10 -15h-128q-11 0 -10 16q1 23 -4 40t-17 26t-32 9q-29 0 -42 -17.5t-13 -63.5v-54h73q12 0 12 -13v-100q0 -13 -12 -13h-73v-59q0 -45 12.5 -63
t40.5 -18q34 0 45 23t9 56q-1 15 12 15h123q12 0 13 -15q4 -59 -16.5 -107.5t-66 -76.5t-118.5 -28z" />
    <glyph glyph-name="uni0405" unicode="&#x405;" horiz-adv-x="408" 
d="M199 -6q-67 0 -108.5 23.5t-58.5 69t-11 108.5q1 14 11 14h123q10 0 9 -13q-2 -34 7 -55t30 -21q20 0 29.5 12t9.5 39q0 22 -9 40.5t-27 32.5l-87 67q-50 38 -74 79t-23 104q1 81 44 124t132 43q99 0 145 -50.5t38 -144.5q-1 -16 -12 -16h-124q-12 0 -11 16q3 27 -3.5 48
t-26.5 21q-17 0 -25.5 -10.5t-8.5 -33.5q0 -25 11 -41t28 -29l85 -65q37 -27 57.5 -52.5t30 -57t8.5 -76.5q-1 -86 -45.5 -131t-143.5 -45z" />
    <glyph glyph-name="uni0406" unicode="&#x406;" horiz-adv-x="216" 
d="M45 0q-11 0 -11 13v629q0 13 11 13h126q11 0 11 -13v-629q0 -13 -11 -13h-126z" />
    <glyph glyph-name="uni0407" unicode="&#x407;" horiz-adv-x="216" 
d="M45 0q-11 0 -11 13v629q0 13 11 13h126q11 0 11 -13v-629q0 -13 -11 -13h-126zM28 712q-31 0 -50.5 17t-19.5 46v18q0 30 19.5 46.5t50.5 16.5q32 0 50.5 -16.5t18.5 -46.5v-18q0 -29 -18.5 -46t-50.5 -17zM193 712q-30 0 -49.5 17t-19.5 46v18q0 30 19.5 46.5t49.5 16.5
q33 0 51 -16.5t18 -46.5v-18q0 -29 -18 -46t-51 -17z" />
    <glyph glyph-name="uni0408" unicode="&#x408;" horiz-adv-x="216" 
d="M24 -162q-8 -2 -11 9l-31 98q-2 7 0 11.5t5 5.5q15 7 26 18.5t16 35t5 66.5v560q0 13 11 13h126q11 0 11 -13v-553q0 -76 -17.5 -128t-52.5 -82t-88 -41z" />
    <glyph glyph-name="uni0409" unicode="&#x409;" horiz-adv-x="661" 
d="M11 0q-12 0 -9 14l134 631q2 10 13 10h161q10 0 12 -10l44 -207h63q110 0 161.5 -55.5t51.5 -159.5q0 -106 -43.5 -164.5t-145.5 -58.5h-144q-10 0 -12 10l-52 372q-4 34 -7.5 67.5t-7.5 67.5h-2q-4 -34 -7.5 -67.5t-8.5 -67.5l-54 -371q-1 -11 -13 -11h-134zM428 131h9
q31 0 44 22t13 70q0 49 -17 70t-58 21h-27z" />
    <glyph glyph-name="uni040A" unicode="&#x40a;" horiz-adv-x="691" 
d="M46 0q-12 0 -12 13v629q0 13 12 13h124q12 0 12 -13v-227h116v227q0 13 12 13h124q12 0 12 -13v-227h26q100 0 149.5 -53.5t49.5 -149.5q0 -102 -46.5 -157t-159.5 -55h-155q-12 0 -12 13v278h-116v-278q0 -13 -12 -13h-124zM446 131h19q34 0 46.5 21t12.5 60
q-1 40 -14.5 59.5t-44.5 19.5h-19v-160z" />
    <glyph glyph-name="uni040B" unicode="&#x40b;" horiz-adv-x="515" 
d="M139 0q-11 0 -11 13v511h-104q-11 0 -11 13v105q0 13 11 13h366q11 0 11 -13v-105q0 -13 -11 -13h-114v-137q21 16 51.5 30.5t67.5 14.5q47 0 69.5 -32t22.5 -88v-299q0 -13 -11 -13h-126q-11 0 -11 13v257q0 15 -5 23t-17 8q-11 0 -21 -5.5t-20 -13.5v-269
q0 -13 -11 -13h-126z" />
    <glyph glyph-name="uni040C" unicode="&#x40c;" horiz-adv-x="462" 
d="M46 0q-12 0 -12 13v629q0 13 12 13h124q12 0 12 -13v-255h19l90 261q2 4 6 5.5t8 1.5h129q7 0 8 -4.5t-1 -11.5l-109 -298l128 -325q6 -16 -9 -16h-140q-4 0 -7.5 1.5t-5.5 6.5l-96 253h-20v-248q0 -13 -12 -13h-124zM156 708q-7 0 -9 4.5t1 9.5l58 113q6 9 16 9h97
q6 0 8.5 -4t-2.5 -11l-73 -111q-7 -10 -19 -10h-77z" />
    <glyph glyph-name="uni040D" unicode="&#x40d;" horiz-adv-x="478" 
d="M46 0q-12 0 -12 13v629q0 13 12 13h117q11 0 11 -13v-199q0 -20 -1 -51.5t-3 -65t-4 -64.5t-4 -52h2q6 24 12.5 52t19 71t30.5 110l60 203q1 9 11 9h136q11 0 11 -13v-629q0 -13 -12 -13h-116q-12 0 -12 13v181q0 23 1 55t3 67.5t4.5 67.5t4.5 55h-2q-6 -25 -13.5 -55
t-20 -75t-33.5 -115l-55 -185q-3 -9 -13 -9h-134zM230 708q-12 0 -19 10l-73 111q-4 7 -2 11t7 4h98q6 0 9.5 -2.5t6.5 -6.5l58 -113q3 -5 1 -9.5t-9 -4.5h-77z" />
    <glyph glyph-name="uni040E" unicode="&#x40e;" horiz-adv-x="457" 
d="M84 0q-6 0 -9 4.5t0 11.5l73 200l-141 423q-5 16 9 16h145q10 0 11 -9l35 -164q7 -28 11.5 -53.5t8.5 -54.5h2q6 29 10 54.5t11 53.5l36 164q1 9 11 9h146q14 0 9 -15l-214 -631q-2 -9 -13 -9h-141zM230 701q-37 0 -62.5 12t-40.5 26q-4 4 -4 13v67q0 16 13 6
q19 -13 41.5 -21t52.5 -8q31 0 53.5 8t40.5 21q5 5 9 3t4 -9v-67q0 -9 -4 -13q-16 -15 -41 -26.5t-62 -11.5z" />
    <glyph glyph-name="uni040F" unicode="&#x40f;" horiz-adv-x="480" 
d="M181 -141q-12 0 -12 13v128h-124q-11 0 -11 13v629q0 13 12 13h125q11 0 11 -13v-511h117v511q0 13 11 13h125q11 0 11 -13v-629q0 -13 -11 -13h-123v-128q0 -13 -12 -13h-119z" />
    <glyph glyph-name="uni0410" unicode="&#x410;" horiz-adv-x="463" 
d="M11 0q-12 0 -9 14l137 631q2 10 13 10h160q11 0 13 -10l136 -630q4 -15 -8 -15h-140q-10 0 -12 10l-51 371q-5 34 -9 68l-8 68h-2l-8 -68t-9 -68l-54 -370q-1 -11 -13 -11h-136zM155 125l19 117h111l22 -117h-152z" />
    <glyph glyph-name="uni0411" unicode="&#x411;" horiz-adv-x="437" 
d="M45 0q-11 0 -11 13v629q0 13 12 13h311q10 0 10 -13v-105q0 -13 -10 -13h-175v-109h25q113 0 160.5 -50t47.5 -146q0 -72 -21 -120.5t-68 -73.5t-128 -25h-153zM182 120h23q33 0 47.5 22t14.5 73q0 49 -14.5 68.5t-47.5 19.5h-23v-183z" />
    <glyph glyph-name="uni0412" unicode="&#x412;" horiz-adv-x="440" 
d="M47 0q-13 0 -13 13v629q0 13 12 13h163q96 0 143.5 -41.5t47.5 -124.5q0 -51 -20 -85.5t-64 -55.5v-4q52 -15 78 -54t26 -99q0 -98 -50 -144.5t-159 -46.5h-164zM182 120h31q30 0 46 21t16 60q0 38 -16.5 58t-47.5 20h-29v-159zM182 387h23q24 0 37.5 20t13.5 58
q0 36 -13 53t-40 17h-21v-148z" />
    <glyph glyph-name="uni0413" unicode="&#x413;" horiz-adv-x="341" 
d="M45 0q-11 0 -11 13v629q0 13 11 13h273q10 0 10 -13v-105q0 -13 -10 -13h-136v-511q0 -13 -11 -13h-126z" />
    <glyph glyph-name="uni0414" unicode="&#x414;" horiz-adv-x="508" 
d="M197 48h-154l118 597q3 10 13 10h161q10 0 12 -10l119 -597h-157l-39 333q-5 34 -8.5 68t-6.5 68h-2q-4 -34 -7.5 -68t-8.5 -68zM22 -141q-12 0 -12 13v246q0 13 12 13h464q12 0 12 -13v-246q0 -13 -12 -13h-119q-12 0 -12 13v128h-202v-128q0 -13 -12 -13h-119z" />
    <glyph glyph-name="uni0415" unicode="&#x415;" horiz-adv-x="395" 
d="M45 0q-11 0 -11 13v629q0 13 11 13h311q11 0 11 -13v-105q0 -13 -11 -13h-174v-131h157q11 0 11 -13v-99q0 -13 -11 -13h-157v-137h174q11 0 11 -13v-105q0 -13 -11 -13h-311z" />
    <glyph glyph-name="uni0416" unicode="&#x416;" horiz-adv-x="682" 
d="M16 0q-13 0 -8 16l114 324l-98 299q-4 16 8 16h131q10 0 13 -8l74 -262h20v257q0 13 12 13h117q12 0 12 -13v-257h21l75 262q2 8 13 8h130q12 0 7 -16l-98 -299l114 -324q6 -16 -7 -16h-142q-6 0 -9 2t-5 9l-78 253h-21v-251q0 -13 -12 -13h-117q-12 0 -12 13v251h-22
l-84 -253q-2 -7 -5 -9t-8 -2h-135z" />
    <glyph glyph-name="uni0417" unicode="&#x417;" horiz-adv-x="432" 
d="M207 -6q-73 0 -116.5 24.5t-59.5 68.5t-10 102q1 10 5.5 12.5t11.5 2.5h105q12 0 11 -12q-4 -37 9 -57t45 -20q31 0 44 19.5t13 62.5q0 40 -13.5 57t-53.5 17h-40q-11 0 -11 13v90q0 13 11 13h28q37 0 50 20t13 61q0 37 -10 54.5t-40 17.5q-29 0 -39 -18t-6 -51
q0 -14 -11 -14h-109q-6 0 -9 2t-4 11q-8 89 38.5 140t150.5 51q90 0 136.5 -42t46.5 -128q0 -53 -19.5 -92t-51.5 -58v-2q39 -15 64 -53t25 -94q0 -98 -53.5 -148t-150.5 -50z" />
    <glyph glyph-name="uni0418" unicode="&#x418;" horiz-adv-x="478" 
d="M46 0q-12 0 -12 13v629q0 13 12 13h117q11 0 11 -13v-199q0 -20 -1 -51.5t-3 -65t-4 -64.5t-4 -52h2q6 24 12.5 52t19 71t30.5 110l60 203q1 9 11 9h136q11 0 11 -13v-629q0 -13 -12 -13h-116q-12 0 -12 13v181q0 23 1 55t3 67.5t4.5 67.5t4.5 55h-2q-6 -25 -13.5 -55
t-20 -75t-33.5 -115l-55 -185q-3 -9 -13 -9h-134z" />
    <glyph glyph-name="uni0419" unicode="&#x419;" horiz-adv-x="478" 
d="M46 0q-12 0 -12 13v629q0 13 12 13h117q11 0 11 -13v-199q0 -20 -1 -51.5t-3 -65t-4 -64.5t-4 -52h2q6 24 12.5 52t19 71t30.5 110l60 203q1 9 11 9h136q11 0 11 -13v-629q0 -13 -12 -13h-116q-12 0 -12 13v181q0 23 1 55t3 67.5t4.5 67.5t4.5 55h-2q-6 -25 -13.5 -55
t-20 -75t-33.5 -115l-55 -185q-3 -9 -13 -9h-134zM239 701q-37 0 -62.5 12t-40.5 26q-4 4 -4 13v67q0 16 13 6q19 -13 41.5 -21t52.5 -8q31 0 53.5 8t40.5 21q5 5 9 3t4 -9v-67q0 -9 -4 -13q-16 -15 -41 -26.5t-62 -11.5z" />
    <glyph glyph-name="uni041A" unicode="&#x41a;" horiz-adv-x="462" 
d="M46 0q-12 0 -12 13v629q0 13 12 13h124q12 0 12 -13v-255h19l90 261q2 4 6 5.5t8 1.5h129q7 0 8 -4.5t-1 -11.5l-109 -298l128 -325q6 -16 -9 -16h-140q-4 0 -7.5 1.5t-5.5 6.5l-96 253h-20v-248q0 -13 -12 -13h-124z" />
    <glyph glyph-name="uni041B" unicode="&#x41b;" horiz-adv-x="457" 
d="M11 0q-12 0 -9 14l134 631q2 10 13 10h160q11 0 13 -10l133 -630q4 -15 -8 -15h-137q-11 0 -13 10l-51 368q-5 34 -8.5 69.5t-7.5 69.5h-2q-4 -34 -7.5 -69.5t-8.5 -69.5l-54 -367q-1 -11 -13 -11h-134z" />
    <glyph glyph-name="uni041C" unicode="&#x41c;" horiz-adv-x="582" 
d="M39 0q-12 0 -12 12l9 630q0 13 11 13h144q12 0 13 -9l87 -307l86 307q3 9 14 9h144q11 0 11 -13l9 -630q0 -12 -12 -12h-123q-11 0 -11 13l-2 217q-1 61 2 105t7 80h-2q-9 -31 -19 -64t-21 -64l-71 -204q-3 -8 -10 -8h-5q-6 0 -9 8l-71 204q-12 32 -22 64.5t-18 63.5h-2
q4 -36 6.5 -80t2.5 -105l-2 -217q0 -13 -11 -13h-123z" />
    <glyph glyph-name="uni041D" unicode="&#x41d;" horiz-adv-x="480" 
d="M46 0q-12 0 -12 13v629q0 13 12 13h124q12 0 12 -13v-246h116v246q0 13 12 13h124q12 0 12 -13v-629q0 -13 -12 -13h-124q-12 0 -12 13v252h-116v-252q0 -13 -12 -13h-124z" />
    <glyph glyph-name="uni041E" unicode="&#x41e;" horiz-adv-x="472" 
d="M236 -6q-103 0 -156.5 58.5t-53.5 172.5v204q0 115 53.5 173.5t156.5 58.5t156.5 -58.5t53.5 -173.5v-204q0 -114 -53.5 -172.5t-156.5 -58.5zM236 127q33 0 47.5 23t14.5 80v194q0 58 -14.5 81t-47.5 23t-47.5 -23t-14.5 -81v-194q0 -57 14.5 -80t47.5 -23z" />
    <glyph glyph-name="uni041F" unicode="&#x41f;" horiz-adv-x="477" 
d="M45 0q-11 0 -11 14v628q0 13 12 13h385q12 0 12 -13v-628q0 -14 -12 -14h-124q-12 0 -12 13v511h-113v-509q0 -15 -10 -15h-127z" />
    <glyph glyph-name="uni0420" unicode="&#x420;" horiz-adv-x="421" 
d="M45 0q-11 0 -11 13v629q0 13 11 13h152q104 0 153.5 -54t49.5 -168q0 -106 -51.5 -162t-148.5 -56h-18v-202q0 -13 -11 -13h-126zM182 346h15q28 0 41.5 21.5t13.5 65.5q0 48 -12.5 69.5t-41.5 21.5h-16v-178z" />
    <glyph glyph-name="uni0421" unicode="&#x421;" horiz-adv-x="468" 
d="M236 -6q-103 0 -156.5 57t-53.5 180v193q0 118 53.5 177.5t156.5 59.5q71 0 119 -30t70.5 -83t14.5 -125q-2 -13 -10 -13h-127q-12 0 -10 14q3 50 -10 77t-48 27q-34 0 -47.5 -24t-13.5 -84v-182q0 -63 14.5 -87t47.5 -24q38 0 48.5 29t8.5 76q0 14 10 14h127q9 0 11 -13
q10 -108 -41.5 -173.5t-163.5 -65.5z" />
    <glyph glyph-name="uni0422" unicode="&#x422;" horiz-adv-x="404" 
d="M139 0q-11 0 -11 13v511h-104q-11 0 -11 13v105q0 13 11 13h356q11 0 11 -13v-105q0 -13 -11 -13h-104v-511q0 -13 -11 -13h-126z" />
    <glyph glyph-name="uni0423" unicode="&#x423;" horiz-adv-x="457" 
d="M84 0q-6 0 -9 4.5t0 11.5l73 200l-141 423q-5 16 9 16h145q10 0 11 -9l35 -164q7 -28 11.5 -53.5t8.5 -54.5h2q6 29 10 54.5t11 53.5l36 164q1 9 11 9h146q14 0 9 -15l-214 -631q-2 -9 -13 -9h-141z" />
    <glyph glyph-name="uni0424" unicode="&#x424;" horiz-adv-x="605" 
d="M265 -6q-77 0 -130.5 26t-81 78t-27.5 130v201q0 77 27.5 128.5t81 77.5t130.5 26h75q77 0 131 -26t81.5 -77.5t27.5 -128.5v-201q0 -78 -27.5 -130t-81.5 -78t-131 -26h-75zM255 122h95q34 0 53 10t26.5 34t7.5 65v194q0 41 -7.5 64.5t-26.5 33.5t-53 10h-95
q-34 0 -53 -10t-26.5 -33.5t-7.5 -64.5v-194q0 -41 7.5 -65t26.5 -34t53 -10zM240 -79q-11 0 -11 13v125l7 48v442l-7 47v125q0 13 11 13h125q12 0 12 -13v-125l-8 -50v-437l8 -50v-125q0 -13 -12 -13h-125z" />
    <glyph glyph-name="uni0425" unicode="&#x425;" horiz-adv-x="446" 
d="M10 0q-15 0 -8 16l139 320l-131 303q-6 16 7 16h147q8 0 11 -8l27 -99q5 -24 11.5 -48t10.5 -48h2q5 24 11 48t11 48l24 99q1 8 10 8h148q13 0 6 -16l-130 -304l138 -319q7 -16 -8 -16h-147q-9 0 -12 8l-31 115q-5 25 -11 48.5t-12 46.5h-1q-5 -23 -11 -47l-12 -48
l-33 -115q-3 -8 -13 -8h-143z" />
    <glyph glyph-name="uni0426" unicode="&#x426;" horiz-adv-x="512" 
d="M366 -141q-12 0 -12 13v128h-308q-12 0 -12 13v629q0 13 12 13h124q12 0 12 -13v-511h116v511q0 13 12 13h124q12 0 12 -13v-511h39q12 0 12 -13v-246q0 -13 -12 -13h-119z" />
    <glyph glyph-name="uni0427" unicode="&#x427;" horiz-adv-x="462" 
d="M154 181q-59 0 -91.5 38.5t-32.5 131.5v291q0 13 12 13h124q12 0 12 -13v-271q0 -31 10 -44t32 -13t39.5 8.5t32.5 22.5v-116q-23 -17 -56.5 -32.5t-81.5 -15.5zM293 0q-13 0 -13 13v629q0 13 13 13h123q12 0 12 -13v-629q0 -13 -12 -13h-123z" />
    <glyph glyph-name="uni0428" unicode="&#x428;" horiz-adv-x="647" 
d="M46 0q-12 0 -12 13v629q0 13 12 13h124q12 0 12 -13v-511h68v511q0 13 12 13h124q12 0 12 -13v-511h68v511q0 13 11 13h125q11 0 11 -13v-629q0 -13 -11 -13h-556z" />
    <glyph glyph-name="uni0429" unicode="&#x429;" horiz-adv-x="679" 
d="M534 -141q-12 0 -12 13v128h-476q-12 0 -12 13v629q0 13 12 13h124q12 0 12 -13v-511h68v511q0 13 12 13h124q12 0 12 -13v-511h68v511q0 13 11 13h125q11 0 11 -13v-511h40q4 0 8 -4t4 -9v-246q0 -13 -12 -13h-119z" />
    <glyph glyph-name="uni042A" unicode="&#x42a;" horiz-adv-x="494" 
d="M113 0q-12 0 -12 13v511h-78q-12 0 -12 13v105q0 13 13 13h213q12 0 12 -13v-204h24q101 0 151.5 -55t50.5 -159q0 -110 -47.5 -167t-161.5 -57h-153zM249 131h17q35 0 49 22t14 71q-1 49 -16 69.5t-46 20.5h-18v-183z" />
    <glyph glyph-name="uni042B" unicode="&#x42b;" horiz-adv-x="643" 
d="M46 0q-12 0 -12 13v629q0 13 12 13h124q12 0 12 -13v-204h24q101 0 151.5 -55t50.5 -159q0 -110 -47.5 -167t-161.5 -57h-153zM182 131h17q35 0 49 22.5t14 70.5q-1 49 -16 69.5t-47 20.5h-17v-183zM472 0q-11 0 -11 13v629q0 13 11 13h126q11 0 11 -13v-629
q0 -13 -11 -13h-126z" />
    <glyph glyph-name="uni042C" unicode="&#x42c;" horiz-adv-x="427" 
d="M46 0q-12 0 -12 13v629q0 13 12 13h124q12 0 12 -13v-204h24q101 0 151.5 -55t50.5 -159q0 -110 -47.5 -167t-161.5 -57h-153zM182 131h17q35 0 49 22.5t14 70.5q-1 49 -16 69.5t-47 20.5h-17v-183z" />
    <glyph glyph-name="uni042D" unicode="&#x42d;" horiz-adv-x="454" 
d="M226 -6q-72 0 -118 28t-65.5 76.5t-15.5 107.5q1 15 13 15h120q13 0 13 -15q-1 -33 9.5 -56t44.5 -23q29 0 41 18t12 63v59h-74q-12 0 -12 13v100q0 13 12 13h74v54q0 46 -12.5 63.5t-41.5 17.5q-20 0 -33.5 -9t-19 -26t-3.5 -40q1 -16 -10 -16h-124q-8 0 -10 15
q-6 63 18 110t72.5 73t116.5 26q102 0 148.5 -55t46.5 -170v-222q0 -73 -21 -122t-65.5 -73.5t-115.5 -24.5z" />
    <glyph glyph-name="uni042E" unicode="&#x42e;" horiz-adv-x="672" 
d="M442 -6q-98 0 -151 57.5t-53 160.5v231q0 104 53 161t151 57t151 -56t53 -160v-233q0 -104 -53 -161t-151 -57zM46 0q-12 0 -12 13v629q0 13 12 13h124q12 0 12 -13v-246h103v-131h-103v-252q0 -13 -12 -13h-124zM442 127q29 0 42.5 21.5t13.5 68.5v221q0 48 -13.5 69
t-42.5 21q-28 0 -42 -21t-14 -69v-221q0 -47 14 -68.5t42 -21.5z" />
    <glyph glyph-name="uni042F" unicode="&#x42f;" horiz-adv-x="445" 
d="M14 0q-14 0 -7 16l67 174l18 44l18 44v2q-37 24 -57.5 62.5t-20.5 100.5q0 64 21.5 112t67 74t117.5 26h161q12 0 12 -13v-629q0 -13 -12 -13h-124q-12 0 -12 13v234h-20l-84 -239q-1 -4 -5.5 -6t-8.5 -2h-131zM245 366h18v159h-17q-35 0 -50.5 -20.5t-15.5 -62.5
q0 -41 16.5 -58.5t48.5 -17.5z" />
    <glyph glyph-name="uni0430" unicode="&#x430;" horiz-adv-x="380" 
d="M244 0q-11 0 -13 11q-2 15 -4 39.5t-2 43.5l-16 19v245q0 23 -5 31t-19 8q-16 0 -21.5 -12t-2.5 -39q2 -13 -12 -13h-103q-12 0 -13 14q-6 76 34.5 116t122.5 40q84 0 123 -35.5t39 -113.5v-224q0 -46 0.5 -72t2.5 -44q2 -14 -10 -14h-101zM111 -6q-45 0 -70 35.5
t-25 99.5q0 71 32.5 109t108.5 49l61 8l-1 -77l-25 -4q-22 -3 -31.5 -18.5t-9.5 -44.5q0 -25 6 -37.5t19 -12.5q12 0 24.5 11t27.5 35l12 -72q-35 -45 -63.5 -63t-65.5 -18z" />
    <glyph glyph-name="uni0431" unicode="&#x431;" horiz-adv-x="394" 
d="M197 -6q-84 0 -128 45t-44 129v271q0 72 17.5 112.5t56.5 68.5q24 18 61 29t75.5 25t66.5 38q4 3 8.5 1.5t5.5 -7.5l28 -101q3 -13 -4 -18q-22 -17 -49 -25.5t-51 -14t-40 -15.5q-19 -10 -26.5 -28.5t-7.5 -50.5v-284q0 -28 7.5 -39.5t23.5 -11.5q18 0 25 11.5t7 39.5
v123q0 25 -5 34t-19 9q-12 0 -23 -7t-23 -22l-1 98q25 25 55 40t59 15q49 0 73.5 -36t24.5 -108v-147q0 -84 -45.5 -129t-127.5 -45z" />
    <glyph glyph-name="uni0432" unicode="&#x432;" horiz-adv-x="395" 
d="M198 -6q-85 0 -129.5 45t-44.5 130v349q0 87 43.5 129t125.5 42q80 0 122.5 -39t42.5 -110q0 -53 -15.5 -89t-48.5 -61v-2q37 -8 57 -37t20 -83v-99q0 -83 -45.5 -129t-127.5 -46zM197 118q17 0 25.5 13t8.5 39v111q0 21 -7 29.5t-21 8.5q-11 0 -21 -3.5t-17 -7.5v-140
q0 -26 7.5 -38t24.5 -12zM165 401l15 6q20 8 29.5 35.5t9.5 65.5q0 29 -5.5 43t-21.5 14q-13 0 -20 -9t-7 -29v-126z" />
    <glyph glyph-name="uni0433" unicode="&#x433;" horiz-adv-x="364" 
d="M180 -6q-80 0 -119.5 32t-39.5 94q0 48 14 80t49 58l77 57q19 14 26.5 27t7.5 29q0 28 -22 28q-13 0 -18.5 -10.5t-3.5 -30.5q2 -14 -11 -14h-106q-10 0 -12 14q-5 71 35 108t121 37q78 0 119 -31t41 -95q0 -47 -18.5 -79t-53.5 -57l-65 -48q-19 -13 -28 -28.5t-9 -35.5
q0 -16 6.5 -23t19.5 -7q15 0 21 12t4 40q-1 13 11 13h106q11 0 12 -13q8 -79 -33.5 -118t-130.5 -39z" />
    <glyph glyph-name="uni0434" unicode="&#x434;" horiz-adv-x="392" 
d="M191 -191q-90 0 -127 36t-31 110q1 7 4.5 10t8.5 3h105q11 0 11 -13q-1 -21 6 -29t23 -8q20 0 25 13t5 41v49v20t1 20h-2q-22 -21 -48 -32.5t-55 -11.5q-49 0 -71 30t-22 94v206q0 80 37.5 118t116.5 38q55 0 99.5 -8t86.5 -10v-502q0 -97 -44 -135.5t-129 -38.5z
M188 141q9 0 17.5 4.5t15.5 12.5v225q-6 2 -13 3t-14 1q-14 0 -20.5 -10t-6.5 -30v-179q0 -14 4.5 -20.5t16.5 -6.5z" />
    <glyph glyph-name="uni0435" unicode="&#x435;" horiz-adv-x="394" 
d="M196 -6q-87 0 -129.5 42t-42.5 131v158q0 86 44.5 132t126.5 46q89 0 132 -45.5t43 -140.5v-88q0 -14 -13 -14h-192v-60q0 -29 7 -40.5t24 -11.5t24.5 10.5t6.5 34.5q0 12 11 12h112q12 0 12 -12q2 -79 -39 -116.5t-127 -37.5zM165 298h64v50q0 24 -7.5 35.5t-24.5 11.5
q-16 0 -24 -11.5t-8 -35.5v-50z" />
    <glyph glyph-name="uni0436" unicode="&#x436;" horiz-adv-x="594" 
d="M13 0q-7 0 -8.5 4.5t0.5 11.5l83 248l-76 219q-5 14 9 14h121q11 0 13 -7l53 -173h19v353q0 13 12 13h116q12 0 12 -13v-353h19l54 173q1 7 12 7h121q13 0 9 -14l-76 -219l83 -248q2 -7 0.5 -11.5t-8.5 -4.5h-129q-10 0 -13 8l-58 191h-14v-186q0 -13 -12 -13h-116
q-12 0 -12 13v186h-18l-60 -191q-3 -8 -13 -8h-123z" />
    <glyph glyph-name="uni0437" unicode="&#x437;" horiz-adv-x="359" 
d="M170 -191q-90 0 -127.5 43.5t-28.5 130.5q2 14 11 14h105q14 0 12 -14q-2 -39 3.5 -54t24.5 -15q17 0 23.5 14.5t6.5 50.5v64q0 36 -13 52.5t-44 16.5h-56q-4 0 -7.5 4t-3.5 9v88q0 5 3.5 9t7.5 4h49q29 0 42.5 17.5t13.5 54.5v53q0 26 -6 36.5t-20 10.5
q-15 0 -20.5 -12.5t-3.5 -39.5q1 -5 -2.5 -9t-7.5 -4h-107q-10 0 -11 15q-6 73 33.5 114t122.5 41t124 -37t41 -112v-43q0 -48 -19.5 -83t-53.5 -50v-2q38 -10 59.5 -43.5t21.5 -85.5v-46q0 -97 -41 -144.5t-132 -47.5z" />
    <glyph glyph-name="uni0438" unicode="&#x438;" horiz-adv-x="395" 
d="M122 -6q-50 0 -72 31.5t-22 100.5v358q0 13 12 13h119q12 0 12 -13v-330q0 -21 4.5 -28.5t15.5 -7.5q10 0 20.5 6.5t19.5 17.5l23 -61q-24 -39 -59.5 -63t-72.5 -24zM259 0q-11 0 -13 11q-2 16 -4 40.5t-2 42.5l-16 34v356q0 13 13 13h118q12 0 12 -13v-354
q0 -33 0.5 -63t2.5 -53q2 -14 -10 -14h-101z" />
    <glyph glyph-name="uni0439" unicode="&#x439;" horiz-adv-x="395" 
d="M122 -6q-50 0 -72 31.5t-22 100.5v358q0 13 12 13h119q12 0 12 -13v-330q0 -21 4.5 -28.5t15.5 -7.5q10 0 20.5 6.5t19.5 17.5l23 -61q-24 -39 -59.5 -63t-72.5 -24zM259 0q-11 0 -13 11q-2 16 -4 40.5t-2 42.5l-16 34v356q0 13 13 13h118q12 0 12 -13v-354
q0 -33 0.5 -63t2.5 -53q2 -14 -10 -14h-101zM198 545q-33 0 -58 11t-40 25q-4 4 -4 13v70q0 8 3.5 9.5t9.5 -2.5q19 -14 40.5 -22.5t48.5 -8.5q26 0 48 8.5t40 22.5q6 4 9.5 2.5t3.5 -9.5v-70q0 -9 -4 -13q-15 -15 -39.5 -25.5t-57.5 -10.5z" />
    <glyph glyph-name="uni043A" unicode="&#x43a;" horiz-adv-x="409" 
d="M407 16q6 -16 -9 -16h-135q-10 0 -14 10l-63 189h-15v-186q0 -13 -12 -13h-119q-12 0 -12 13v657q0 13 12 13h119q12 0 12 -13v-353h16l63 173q3 7 12 7h128q7 0 8.5 -4t-1.5 -10l-87 -217z" />
    <glyph glyph-name="uni043B" unicode="&#x43b;" horiz-adv-x="383" 
d="M13 0q-12 0 -9 14l103 472q3 11 13 11h143q11 0 14 -11l102 -472q3 -14 -9 -14h-131q-10 0 -12 10l-23 223q-3 31 -5.5 59t-4.5 65h-2q-2 -37 -5 -65t-6 -59l-27 -223q-2 -10 -12 -10h-129z" />
    <glyph glyph-name="uni043C" unicode="&#x43c;" horiz-adv-x="470" 
d="M37 0q-12 0 -12 13l7 472q0 12 12 12h117q9 0 12 -9l62 -239l62 239q3 9 13 9h117q11 0 11 -12l7 -472q0 -13 -12 -13h-105q-12 0 -12 12l-1 135q0 24 1 49.5t3 50.5t4 45h-3q-7 -27 -14 -53.5t-15 -51.5l-40 -129q-2 -6 -5 -8.5t-11 -2.5t-10.5 2.5t-4.5 8.5l-42 129
q-8 24 -15.5 51t-13.5 54h-2q2 -20 3.5 -44.5t2.5 -50.5t1 -49l-1 -135q0 -13 -11 -13h-105z" />
    <glyph glyph-name="uni043D" unicode="&#x43d;" horiz-adv-x="395" 
d="M236 0q-12 0 -12 13v471q0 13 12 13h119q12 0 12 -13v-471q0 -13 -12 -13h-119zM40 0q-12 0 -12 13v471q0 13 12 13h119q12 0 12 -13v-471q0 -13 -12 -13h-119zM148 188v121h95v-121h-95z" />
    <glyph glyph-name="uni043E" unicode="&#x43e;" horiz-adv-x="394" 
d="M197 -6q-82 0 -127.5 45t-45.5 130v161q0 83 45.5 128t127.5 45q83 0 128 -45t45 -128v-161q0 -85 -45 -130t-128 -45zM197 118q16 0 23.5 12t7.5 40v158q0 29 -7.5 40.5t-23.5 11.5t-23.5 -11.5t-7.5 -40.5v-158q0 -28 7.5 -40t23.5 -12z" />
    <glyph glyph-name="uni043F" unicode="&#x43f;" horiz-adv-x="398" 
d="M239 0q-12 0 -12 13v335q0 17 -5 24.5t-17 7.5q-10 0 -19.5 -6t-18.5 -16l-23 61q23 34 58 59t77 25q47 0 69 -31t22 -100v-359q0 -13 -12 -13h-119zM40 0q-12 0 -12 13v355q0 33 -0.5 62.5t-2.5 52.5q-1 14 10 14h102q10 0 12 -11q2 -15 4 -39.5t2 -43.5l16 -33v-357
q0 -13 -12 -13h-119z" />
    <glyph glyph-name="uni0440" unicode="&#x440;" horiz-adv-x="393" 
d="M258 -6q-24 0 -52 7t-51 18v105q11 -5 22 -9.5t21 -4.5q14 0 20 9.5t6 34.5v194q0 17 -3.5 24.5t-16.5 7.5q-10 0 -20.5 -7.5t-18.5 -16.5l-24 67q30 33 62 56.5t76 23.5q46 0 67 -31t21 -101v-221q0 -81 -26 -118.5t-83 -37.5zM39 -185q-11 0 -11 13v541q0 33 -0.5 62
t-2.5 52q-1 14 10 14h102q11 0 12 -10q2 -14 3.5 -36.5t2.5 -42.5l16 -37v-543q0 -13 -12 -13h-120z" />
    <glyph glyph-name="uni0441" unicode="&#x441;" horiz-adv-x="383" 
d="M198 -6q-86 0 -130 46t-44 136v152q0 86 44.5 130.5t128.5 44.5q54 0 92.5 -23.5t56 -65.5t12.5 -97q-2 -16 -13 -16h-104q-4 0 -8 4t-3 9q2 37 -5 51.5t-26 14.5q-17 0 -25 -12.5t-8 -41.5v-150q0 -32 7.5 -45t25.5 -13q17 0 24 15t6 51q0 14 12 14h105q12 0 12 -13
q2 -96 -37 -143.5t-123 -47.5z" />
    <glyph glyph-name="uni0442" unicode="&#x442;" horiz-adv-x="588" 
d="M39 0q-11 0 -11 13v355q0 33 -0.5 62.5t-2.5 52.5q-1 14 10 14h103q10 0 11 -10t2 -25t2 -29q26 30 54 50t68 20q32 0 52 -13.5t29 -45.5q23 25 50.5 42t61.5 17q48 0 70 -31t22 -99v-360q0 -13 -11 -13h-121q-11 0 -11 13v340q0 15 -4 21t-14 6q-8 0 -17 -4.5t-16 -13.5
v-349q0 -13 -12 -13h-120q-11 0 -11 13v340q0 15 -4.5 21t-14.5 6q-8 0 -16.5 -4.5t-16.5 -13.5v-349q0 -13 -12 -13h-120z" />
    <glyph glyph-name="uni0443" unicode="&#x443;" horiz-adv-x="391" 
d="M98 -185q-12 0 -9 15l38 169l-116 484q-3 14 9 14h130q12 0 13 -11l19 -163q3 -29 6.5 -68.5t5.5 -71.5h4q2 32 4.5 71.5t6.5 68.5l21 164q1 10 12 10h129q6 0 8.5 -3t0.5 -11l-154 -658q-2 -10 -13 -10h-115z" />
    <glyph glyph-name="uni0444" unicode="&#x444;" horiz-adv-x="541" 
d="M202 -6q-84 0 -131 43.5t-47 134.5v154q0 91 47 134t131 43h137q84 0 131 -43t47 -134v-154q0 -91 -47 -134.5t-131 -43.5h-137zM207 109h127q20 0 31.5 12t11.5 46v163q0 35 -11.5 46.5t-31.5 11.5h-127q-19 0 -30.5 -11.5t-11.5 -46.5v-163q0 -34 11.5 -46t30.5 -12z
M213 -185q-13 0 -13 13v197l8 38v364l-8 46v197q0 13 12 13h117q12 0 12 -13v-196l-7 -44v-368l7 -38v-196q0 -13 -12 -13h-116z" />
    <glyph glyph-name="uni0445" unicode="&#x445;" horiz-adv-x="409" 
d="M20 0q-6 0 -9 4.5t1 11.5l105 239l-99 228q-2 7 0 10.5t8 3.5h135q11 0 12 -8l16 -67q4 -17 7.5 -38.5t7.5 -61.5h2q4 40 7.5 61.5t6.5 38.5l13 66q2 9 13 9h135q7 0 9 -3.5t-1 -10.5l-98 -227l106 -240q4 -7 1.5 -11.5t-9.5 -4.5h-136q-11 0 -13 8l-17 74q-5 18 -9 40.5
t-8 59.5h-2q-5 -37 -8.5 -59.5t-8.5 -40.5l-19 -74q-1 -8 -13 -8h-135z" />
    <glyph glyph-name="uni0446" unicode="&#x446;" horiz-adv-x="433" 
d="M292 -126q-12 0 -12 13v113h-10l96 121h41q12 0 12 -13v-221q0 -13 -12 -13h-115zM122 -6q-50 0 -72 31.5t-22 100.5v358q0 13 12 13h119q12 0 12 -13v-330q0 -21 4.5 -28.5t15.5 -7.5q10 0 20.5 6.5t19.5 17.5l23 -61q-24 -39 -59.5 -63t-72.5 -24zM259 0q-11 0 -13 11
q-2 16 -4 40.5t-2 42.5l-16 34v356q0 13 13 13h118q12 0 12 -13v-354q0 -33 0.5 -63t2.5 -53q2 -14 -10 -14h-101z" />
    <glyph glyph-name="uni0447" unicode="&#x447;" horiz-adv-x="390" 
d="M230 0q-11 0 -11 13v150q-21 -20 -46.5 -33.5t-55.5 -13.5q-48 0 -70 31t-22 99v238q0 13 11 13h120q12 0 12 -13v-209q0 -18 3.5 -27t15.5 -9q9 0 17.5 5t14.5 11v229q0 13 11 13h121q11 0 11 -13v-471q0 -13 -11 -13h-121z" />
    <glyph glyph-name="uni0448" unicode="&#x448;" horiz-adv-x="587" 
d="M121 -6q-50 0 -71.5 32t-21.5 98v360q0 13 11 13h120q12 0 12 -13v-340q0 -13 4.5 -19.5t13.5 -6.5q8 0 16.5 4.5t16.5 12.5v349q0 13 11 13h121q11 0 11 -13v-340q0 -13 4.5 -19.5t13.5 -6.5q8 0 16.5 4.5t16.5 12.5v349q0 13 11 13h121q11 0 11 -13v-354q0 -33 0.5 -63
t2.5 -53q2 -14 -11 -14h-101q-11 0 -12 11q-1 9 -2.5 23.5t-2.5 28.5q-25 -30 -53 -49.5t-68 -19.5q-32 0 -51.5 14t-29.5 45q-23 -26 -50 -42.5t-60 -16.5z" />
    <glyph glyph-name="uni0449" unicode="&#x449;" horiz-adv-x="626" 
d="M485 -126q-12 0 -12 13v113h-10l96 121h41q12 0 12 -13v-221q0 -13 -12 -13h-115zM121 -6q-50 0 -71.5 32t-21.5 98v360q0 13 11 13h120q12 0 12 -13v-340q0 -13 4.5 -19.5t13.5 -6.5q8 0 16.5 4.5t16.5 12.5v349q0 13 11 13h121q11 0 11 -13v-340q0 -13 4.5 -19.5
t13.5 -6.5q8 0 16.5 4.5t16.5 12.5v349q0 13 11 13h121q11 0 11 -13v-354q0 -33 0.5 -63t2.5 -53q2 -14 -11 -14h-101q-11 0 -12 11q-1 9 -2.5 23.5t-2.5 28.5q-25 -30 -53 -49.5t-68 -19.5q-32 0 -51.5 14t-29.5 45q-23 -26 -50 -42.5t-60 -16.5z" />
    <glyph glyph-name="uni044A" unicode="&#x44a;" horiz-adv-x="434" 
d="M20 374q-12 0 -12 13v97q0 13 12 13h91v-123h-91zM244 -6q-86 0 -128.5 44t-42.5 125v321q0 13 12 13h119q12 0 12 -13v-325q0 -23 5.5 -34t21.5 -11q15 0 21 11t6 34v73q0 19 -5 26t-16 7q-12 0 -22.5 -7.5t-19.5 -17.5l-2 88q16 17 44.5 33.5t66.5 16.5q44 0 70.5 -29
t26.5 -96v-90q0 -81 -43 -125t-126 -44z" />
    <glyph glyph-name="uni044B" unicode="&#x44b;" horiz-adv-x="587" 
d="M199 -6q-86 0 -128.5 44t-42.5 125v321q0 13 12 13h119q12 0 12 -13v-325q0 -23 5.5 -34t21.5 -11q15 0 21 11t6 34v73q0 19 -5 26t-16 7q-12 0 -22.5 -7.5t-19.5 -17.5l-2 88q16 17 44.5 33.5t66.5 16.5q44 0 70.5 -29t26.5 -96v-90q0 -81 -43 -125t-126 -44zM427 0
q-11 0 -11 13v472q0 12 11 12h121q11 0 11 -12v-472q0 -13 -11 -13h-121z" />
    <glyph glyph-name="uni044C" unicode="&#x44c;" horiz-adv-x="389" 
d="M199 -6q-86 0 -128.5 44t-42.5 125v321q0 13 12 13h119q12 0 12 -13v-325q0 -23 5.5 -34t21.5 -11q15 0 21 11t6 34v73q0 19 -5 26t-16 7q-12 0 -22.5 -7.5t-19.5 -17.5l-2 88q16 17 44.5 33.5t66.5 16.5q44 0 70.5 -29t26.5 -96v-90q0 -81 -43 -125t-126 -44z" />
    <glyph glyph-name="uni044D" unicode="&#x44d;" horiz-adv-x="383" 
d="M188 -6q-81 0 -123.5 43t-38.5 132q0 14 12 14h109q11 0 11 -14q-1 -26 6 -38.5t23 -12.5q17 0 23.5 12t6.5 44v40h-46q-6 0 -6 10v48q0 10 6 10h46v47q0 27 -7 39t-23 12t-23 -11.5t-6 -39.5q0 -13 -11 -13h-109q-5 0 -8 4.5t-4 11.5q-10 81 35.5 126t127.5 45
q58 0 96 -22t56 -59.5t18 -85.5v-165q0 -86 -41 -131.5t-130 -45.5z" />
    <glyph glyph-name="uni044E" unicode="&#x44e;" horiz-adv-x="571" 
d="M28 422v248q0 13 12 13h119q12 0 12 -13v-248h-143zM375 -6q-81 0 -126.5 45t-45.5 129v163q0 82 45.5 127t126.5 45q82 0 127 -45t45 -127v-163q0 -84 -45 -129t-127 -45zM40 0q-12 0 -12 13v471q0 13 12 13h119q12 0 12 -13v-177h88v-117h-88v-177q0 -13 -12 -13h-119z
M375 118q16 0 23 12t7 39v160q0 28 -7 39.5t-23 11.5t-23 -11.5t-7 -39.5v-160q0 -27 7 -39t23 -12z" />
    <glyph glyph-name="uni044F" unicode="&#x44f;" horiz-adv-x="392" 
d="M16 0q-12 0 -7 16l45 114q7 18 13.5 35.5t13.5 33.5v1q-29 18 -45.5 48.5t-16.5 82.5q0 84 40 125t128 41h166q11 0 11 -12v-472q0 -13 -11 -13h-120q-12 0 -12 13v158h-13l-50 -158q-4 -13 -15 -13h-127zM199 268h22v122h-20q-22 0 -31 -15.5t-9 -47.5q0 -31 10 -45
t28 -14z" />
    <glyph glyph-name="uni0450" unicode="&#x450;" horiz-adv-x="394" 
d="M196 -6q-87 0 -129.5 42t-42.5 131v158q0 86 44.5 132t126.5 46q89 0 132 -45.5t43 -140.5v-88q0 -14 -13 -14h-192v-60q0 -29 7 -40.5t24 -11.5t24.5 10.5t6.5 34.5q0 12 11 12h112q12 0 12 -12q2 -79 -39 -116.5t-127 -37.5zM165 298h64v50q0 24 -7.5 35.5t-24.5 11.5
q-16 0 -24 -11.5t-8 -35.5v-50zM195 557q-12 0 -19 10l-84 126q-4 7 -2 11.5t7 4.5h99q10 0 16 -10l67 -128q3 -6 1 -10t-9 -4h-76z" />
    <glyph glyph-name="uni0451" unicode="&#x451;" horiz-adv-x="394" 
d="M196 -6q-87 0 -129.5 42t-42.5 131v158q0 86 44.5 132t126.5 46q89 0 132 -45.5t43 -140.5v-88q0 -14 -13 -14h-192v-60q0 -29 7 -40.5t24 -11.5t24.5 10.5t6.5 34.5q0 12 11 12h112q12 0 12 -12q2 -79 -39 -116.5t-127 -37.5zM165 298h64v50q0 24 -7.5 35.5t-24.5 11.5
q-16 0 -24 -11.5t-8 -35.5v-50zM115 560q-31 0 -50.5 17t-19.5 46v18q0 31 19.5 47t50.5 16q32 0 50.5 -16t18.5 -47v-18q0 -29 -18.5 -46t-50.5 -17zM280 560q-30 0 -49.5 17t-19.5 46v18q0 31 19.5 47t49.5 16q33 0 51 -16t18 -47v-18q0 -29 -18 -46t-51 -17z" />
    <glyph glyph-name="uni0452" unicode="&#x452;" horiz-adv-x="405" 
d="M276 -187q-6 -5 -13 3l-70 80q-8 10 -1 17q27 26 35 63t8 104v268q0 17 -5 24.5t-17 7.5q-8 0 -17 -4.5t-17 -12.5v-350q0 -13 -11 -13h-121q-11 0 -11 13v537h-26q-11 0 -11 13v65q0 12 11 12h26v30q0 13 11 13h121q11 0 11 -13v-30h54q11 0 11 -12v-65q0 -13 -11 -13
h-54v-98q23 23 50 37t58 14q48 0 69.5 -31t21.5 -100v-291q0 -69 -8.5 -117.5t-30.5 -84.5t-63 -66z" />
    <glyph glyph-name="uni0453" unicode="&#x453;" horiz-adv-x="364" 
d="M180 -6q-80 0 -119.5 32t-39.5 94q0 48 14 80t49 58l77 57q19 14 26.5 27t7.5 29q0 28 -22 28q-13 0 -18.5 -10.5t-3.5 -30.5q2 -14 -11 -14h-106q-10 0 -12 14q-5 71 35 108t121 37q78 0 119 -31t41 -95q0 -47 -18.5 -79t-53.5 -57l-65 -48q-19 -13 -28 -28.5t-9 -35.5
q0 -16 6.5 -23t19.5 -7q15 0 21 12t4 40q-1 13 11 13h106q11 0 12 -13q8 -79 -33.5 -118t-130.5 -39zM111 557q-7 0 -9 4t1 10l67 128q5 10 16 10h98q6 0 8.5 -4.5t-2.5 -11.5l-84 -126q-7 -10 -19 -10h-76z" />
    <glyph glyph-name="uni0454" unicode="&#x454;" horiz-adv-x="383" 
d="M196 -6q-90 0 -131 45.5t-41 131.5v155q0 82 41.5 129.5t129.5 47.5q81 0 126.5 -45t36.5 -126q-1 -7 -4.5 -11.5t-7.5 -4.5h-109q-12 0 -12 13q2 28 -4.5 39.5t-23.5 11.5t-24 -12t-7 -39v-47h46q7 0 7 -10v-48q0 -10 -7 -10h-46v-40q0 -32 7 -44t23 -12t23 12.5t6 38.5
q0 14 12 14h108q12 0 12 -14q5 -89 -38 -132t-123 -43z" />
    <glyph glyph-name="uni0455" unicode="&#x455;" horiz-adv-x="362" 
d="M174 -6q-87 0 -123.5 39t-27.5 117q1 13 12 13h106q12 0 11 -13q-2 -29 3 -42t19 -13q25 0 25 36q0 21 -8.5 33.5t-28.5 27.5l-76 55q-30 22 -47.5 51.5t-17.5 70.5q0 66 38.5 100t118.5 34q84 0 122 -36t36 -107q0 -13 -12 -13h-104q-7 0 -10 4t-2 11q2 20 -3.5 30
t-18.5 10q-23 0 -23 -27q0 -17 7 -28t25 -23l71 -52q38 -26 57 -57t19 -78q0 -71 -41 -107t-127 -36z" />
    <glyph glyph-name="uni0456" unicode="&#x456;" horiz-adv-x="199" 
d="M39 0q-11 0 -11 13v472q0 12 11 12h121q11 0 11 -12v-472q0 -13 -11 -13h-121zM100 554q-37 0 -59.5 18.5t-22.5 52.5v19q0 35 22.5 53t59.5 18q38 0 59.5 -18t21.5 -53v-19q0 -34 -21.5 -52.5t-59.5 -18.5z" />
    <glyph glyph-name="uni0457" unicode="&#x457;" horiz-adv-x="199" 
d="M39 0q-11 0 -11 13v472q0 12 11 12h121q11 0 11 -12v-472q0 -13 -11 -13h-121zM18 560q-31 0 -50.5 17t-19.5 46v18q0 31 19.5 47t50.5 16q32 0 50.5 -16t18.5 -47v-18q0 -29 -18.5 -46t-50.5 -17zM183 560q-30 0 -49.5 17t-19.5 46v18q0 31 19.5 47t49.5 16q33 0 51 -16
t18 -47v-18q0 -29 -18 -46t-51 -17z" />
    <glyph glyph-name="uni0458" unicode="&#x458;" horiz-adv-x="196" 
d="M67 -188q-3 -2 -6 -1t-6 5l-70 80q-9 10 -1 17q26 26 34.5 62.5t8.5 104.5v405q0 12 11 12h121q11 0 11 -12v-405q0 -69 -8.5 -117t-30.5 -84t-64 -67zM101 554q-37 0 -59.5 18.5t-22.5 52.5v19q0 35 22.5 53t59.5 18q38 0 59.5 -18t21.5 -53v-19q0 -34 -21.5 -52.5
t-59.5 -18.5z" />
    <glyph glyph-name="uni0459" unicode="&#x459;" horiz-adv-x="558" 
d="M369 -6q-50 0 -83 15t-51 48t-23 87l-9 91q-2 34 -4.5 61.5t-4.5 60.5h-2q-2 -36 -4.5 -63.5t-5.5 -59.5l-27 -224q-2 -10 -12 -10h-130q-12 0 -9 14l103 472q3 11 13 11h145q12 0 14 -11l34 -165q28 28 60.5 43.5t61.5 15.5q53 0 77.5 -30t24.5 -95v-92
q0 -82 -43.5 -125.5t-124.5 -43.5zM371 114q13 0 18 8.5t5 31.5v80q0 33 -22 33q-16 0 -42 -30l15 -82q4 -17 7 -26t7.5 -12t11.5 -3z" />
    <glyph glyph-name="uni045A" unicode="&#x45a;" horiz-adv-x="586" 
d="M40 0q-12 0 -12 13v471q0 13 12 13h119q12 0 12 -13v-175h72v-121h-72v-175q0 -13 -12 -13h-119zM396 -6q-86 0 -128.5 44t-42.5 125v321q0 13 12 13h119q12 0 12 -13v-325q0 -23 5.5 -34t21.5 -11q15 0 21 11t6 34v73q0 19 -5 26t-16 7q-12 0 -22.5 -7.5t-19.5 -17.5
l-2 88q16 17 44.5 33.5t66.5 16.5q44 0 70.5 -29t26.5 -96v-90q0 -81 -43 -125t-126 -44z" />
    <glyph glyph-name="uni045B" unicode="&#x45b;" horiz-adv-x="406" 
d="M10 550q-11 0 -11 13v65q0 12 11 12h223q11 0 11 -12v-65q0 -13 -11 -13h-197h-26zM246 0q-11 0 -11 13v335q0 17 -5 24.5t-17 7.5q-9 0 -19 -6t-19 -16l-23 61q24 34 58.5 59t76.5 25q48 0 69.5 -31t21.5 -100v-359q0 -13 -11 -13h-121zM47 0q-11 0 -11 13v657
q0 13 11 13h121q11 0 11 -13v-657q0 -13 -11 -13h-121z" />
    <glyph glyph-name="uni045C" unicode="&#x45c;" horiz-adv-x="409" 
d="M407 16q6 -16 -9 -16h-135q-10 0 -14 10l-63 189h-15v-186q0 -13 -12 -13h-119q-12 0 -12 13v657q0 13 12 13h119q12 0 12 -13v-353h16l63 173q3 7 12 7h128q7 0 8.5 -4t-1.5 -10l-87 -217zM204 557q-7 0 -9 4t1 10l67 128q5 10 16 10h98q6 0 8.5 -4.5t-2.5 -11.5
l-84 -126q-7 -10 -19 -10h-76z" />
    <glyph glyph-name="uni045D" unicode="&#x45d;" horiz-adv-x="395" 
d="M122 -6q-50 0 -72 31.5t-22 100.5v358q0 13 12 13h119q12 0 12 -13v-330q0 -21 4.5 -28.5t15.5 -7.5q10 0 20.5 6.5t19.5 17.5l23 -61q-24 -39 -59.5 -63t-72.5 -24zM259 0q-11 0 -13 11q-2 16 -4 40.5t-2 42.5l-16 34v356q0 13 13 13h118q12 0 12 -13v-354
q0 -33 0.5 -63t2.5 -53q2 -14 -10 -14h-101zM196 557q-12 0 -19 10l-84 126q-4 7 -2 11.5t7 4.5h99q10 0 16 -10l67 -128q3 -6 1 -10t-9 -4h-76z" />
    <glyph glyph-name="uni045E" unicode="&#x45e;" horiz-adv-x="391" 
d="M98 -185q-12 0 -9 15l38 169l-116 484q-3 14 9 14h130q12 0 13 -11l19 -163q3 -29 6.5 -68.5t5.5 -71.5h4q2 32 4.5 71.5t6.5 68.5l21 164q1 10 12 10h129q6 0 8.5 -3t0.5 -11l-154 -658q-2 -10 -13 -10h-115zM198 545q-33 0 -58 11t-40 25q-4 4 -4 13v70q0 8 3.5 9.5
t9.5 -2.5q19 -14 40.5 -22.5t48.5 -8.5q26 0 48 8.5t40 22.5q6 4 9.5 2.5t3.5 -9.5v-70q0 -9 -4 -13q-15 -15 -39.5 -25.5t-57.5 -10.5z" />
    <glyph glyph-name="uni045F" unicode="&#x45f;" horiz-adv-x="395" 
d="M94 -126q-12 0 -12 13v206l131 4v-210q0 -13 -12 -13h-107zM122 -6q-50 0 -72 31.5t-22 100.5v358q0 13 12 13h119q12 0 12 -13v-330q0 -21 4.5 -28.5t15.5 -7.5q10 0 20.5 6.5t19.5 17.5l23 -61q-24 -39 -59.5 -63t-72.5 -24zM259 0q-11 0 -13 11q-2 16 -4 40.5t-2 42.5
l-16 34v356q0 13 13 13h118q12 0 12 -13v-354q0 -33 0.5 -63t2.5 -53q2 -14 -10 -14h-101z" />
    <glyph glyph-name="uni0490" unicode="&#x490;" horiz-adv-x="341" 
d="M45 0q-11 0 -11 13v629q0 13 11 13h273q10 0 10 -13v-105q0 -13 -11 -13h-135v-511q0 -13 -11 -13h-126zM185 549v240q0 5 3.5 9t7.5 4h121q4 0 7.5 -4t3.5 -9v-240h-143z" />
    <glyph glyph-name="uni0491" unicode="&#x491;" horiz-adv-x="371" 
d="M90 -12q-27 0 -46.5 3t-33.5 9q-7 2 -7 12l3 86q0 5 3 9t10 0q13 -8 27 -8q11 0 17.5 13t9.5 53l10 144q7 93 28.5 140t78.5 47q23 0 34 9.5t15 25.5q2 10 2.5 20t0.5 17q0 11 10 11h110q13 0 13 -16q0 -51 -3.5 -80t-13.5 -45q-10 -19 -26 -31t-52 -13q-29 -1 -40 -26.5
t-16 -88.5l-11 -136q-7 -83 -35.5 -119t-87.5 -36z" />
    <glyph glyph-name="uni04C0" unicode="&#x4c0;" horiz-adv-x="216" 
d="M45 0q-11 0 -11 13v629q0 13 11 13h126q11 0 11 -13v-629q0 -13 -11 -13h-126z" />
    <glyph glyph-name="uni04CF" unicode="&#x4cf;" horiz-adv-x="199" 
d="M39 0q-11 0 -11 13v657q0 13 11 13h121q11 0 11 -13v-657q0 -13 -11 -13h-121z" />
    <glyph glyph-name="uni04E2" unicode="&#x4e2;" horiz-adv-x="478" 
d="M46 0q-12 0 -12 13v629q0 13 12 13h117q11 0 11 -13v-199q0 -20 -1 -51.5t-3 -65t-4 -64.5t-4 -52h2q6 24 12.5 52t19 71t30.5 110l60 203q1 9 11 9h136q11 0 11 -13v-629q0 -13 -12 -13h-116q-12 0 -12 13v181q0 23 1 55t3 67.5t4.5 67.5t4.5 55h-2q-6 -25 -13.5 -55
t-20 -75t-33.5 -115l-55 -185q-3 -9 -13 -9h-134zM143 717q-13 0 -13 13v76q0 12 13 12h193q13 0 13 -12v-76q0 -13 -13 -13h-193z" />
    <glyph glyph-name="uni04E3" unicode="&#x4e3;" horiz-adv-x="395" 
d="M122 -6q-50 0 -72 31.5t-22 100.5v358q0 13 12 13h119q12 0 12 -13v-330q0 -21 4.5 -28.5t15.5 -7.5q10 0 20.5 6.5t19.5 17.5l23 -61q-24 -39 -59.5 -63t-72.5 -24zM259 0q-11 0 -13 11q-2 16 -4 40.5t-2 42.5l-16 34v356q0 13 13 13h118q12 0 12 -13v-354
q0 -33 0.5 -63t2.5 -53q2 -14 -10 -14h-101zM114 570q-13 0 -13 13v76q0 13 13 13h168q13 0 13 -13v-76q0 -13 -13 -13h-168z" />
    <glyph glyph-name="uni04EE" unicode="&#x4ee;" horiz-adv-x="457" 
d="M84 0q-6 0 -9 4.5t0 11.5l73 200l-141 423q-5 16 9 16h145q10 0 11 -9l35 -164q7 -28 11.5 -53.5t8.5 -54.5h2q6 29 10 54.5t11 53.5l36 164q1 9 11 9h146q14 0 9 -15l-214 -631q-2 -9 -13 -9h-141zM133 717q-13 0 -13 13v76q0 12 13 12h193q13 0 13 -12v-76
q0 -13 -13 -13h-193z" />
    <glyph glyph-name="uni04EF" unicode="&#x4ef;" horiz-adv-x="391" 
d="M98 -185q-12 0 -9 15l38 169l-116 484q-3 14 9 14h130q12 0 13 -11l19 -163q3 -29 6.5 -68.5t5.5 -71.5h4q2 32 4.5 71.5t6.5 68.5l21 164q1 10 12 10h129q6 0 8.5 -3t0.5 -11l-154 -658q-2 -10 -13 -10h-115zM113 570q-13 0 -13 13v76q0 13 13 13h168q13 0 13 -13v-76
q0 -13 -13 -13h-168z" />
    <glyph glyph-name="Wgrave" unicode="&#x1e80;" horiz-adv-x="645" 
d="M122 0q-10 0 -12 10l-105 630q-3 15 10 15h125q11 0 13 -10l29 -203q6 -49 9.5 -93t5.5 -90.5t3 -102.5h2q3 34 8 69.5t12 70.5l42 218l-23 108q-4 17 9 17h121q9 0 11 -10l48 -327q5 -37 9.5 -73t6.5 -73h2q1 57 3 103.5t5.5 92t9.5 97.5l27 195q2 11 12 11h125
q12 0 9 -15l-107 -629q-2 -11 -11 -11h-136q-12 0 -14 10l-28 190q-5 33 -9.5 65.5t-8.5 65.5h-2q-5 -33 -10 -65.5t-11 -65.5l-32 -190q-1 -5 -5 -7.5t-8 -2.5h-135zM312 708q-12 0 -19 10l-73 111q-4 7 -2 11t7 4h98q6 0 9.5 -2.5t6.5 -6.5l58 -113q3 -5 1 -9.5t-9 -4.5
h-77z" />
    <glyph glyph-name="wgrave" unicode="&#x1e81;" horiz-adv-x="562" 
d="M114 0q-11 0 -14 10l-87 473q-3 14 9 14h127q11 0 12 -11l20 -200q2 -34 4.5 -67.5t4.5 -67.5h2q5 34 8.5 67t7.5 66l12 91l-12 97q-1 15 10 15h108q11 0 12 -11l19 -193l6 -66l6 -66h2q2 33 5 66.5t6 66.5l18 202q2 11 12 11h128q12 0 9 -14l-87 -473q-3 -10 -14 -10
h-131q-11 0 -13 10l-10 77q-3 28 -6 59.5t-6 79.5h-4q-3 -48 -6 -80t-6 -60l-9 -75q-1 -11 -12 -11h-131zM280 557q-12 0 -19 10l-84 126q-4 7 -2 11.5t7 4.5h99q10 0 16 -10l67 -128q3 -6 1 -10t-9 -4h-76z" />
    <glyph glyph-name="Wacute" unicode="&#x1e82;" horiz-adv-x="645" 
d="M122 0q-10 0 -12 10l-105 630q-3 15 10 15h125q11 0 13 -10l29 -203q6 -49 9.5 -93t5.5 -90.5t3 -102.5h2q3 34 8 69.5t12 70.5l42 218l-23 108q-4 17 9 17h121q9 0 11 -10l48 -327q5 -37 9.5 -73t6.5 -73h2q1 57 3 103.5t5.5 92t9.5 97.5l27 195q2 11 12 11h125
q12 0 9 -15l-107 -629q-2 -11 -11 -11h-136q-12 0 -14 10l-28 190q-5 33 -9.5 65.5t-8.5 65.5h-2q-5 -33 -10 -65.5t-11 -65.5l-32 -190q-1 -5 -5 -7.5t-8 -2.5h-135zM246 708q-7 0 -9 4.5t1 9.5l58 113q6 9 16 9h97q6 0 8.5 -4t-2.5 -11l-73 -111q-7 -10 -19 -10h-77z" />
    <glyph glyph-name="wacute" unicode="&#x1e83;" horiz-adv-x="562" 
d="M114 0q-11 0 -14 10l-87 473q-3 14 9 14h127q11 0 12 -11l20 -200q2 -34 4.5 -67.5t4.5 -67.5h2q5 34 8.5 67t7.5 66l12 91l-12 97q-1 15 10 15h108q11 0 12 -11l19 -193l6 -66l6 -66h2q2 33 5 66.5t6 66.5l18 202q2 11 12 11h128q12 0 9 -14l-87 -473q-3 -10 -14 -10
h-131q-11 0 -13 10l-10 77q-3 28 -6 59.5t-6 79.5h-4q-3 -48 -6 -80t-6 -60l-9 -75q-1 -11 -12 -11h-131zM208 557q-7 0 -9 4t1 10l67 128q5 10 16 10h98q6 0 8.5 -4.5t-2.5 -11.5l-84 -126q-7 -10 -19 -10h-76z" />
    <glyph glyph-name="Wdieresis" unicode="&#x1e84;" horiz-adv-x="645" 
d="M122 0q-10 0 -12 10l-105 630q-3 15 10 15h125q11 0 13 -10l29 -203q6 -49 9.5 -93t5.5 -90.5t3 -102.5h2q3 34 8 69.5t12 70.5l42 218l-23 108q-4 17 9 17h121q9 0 11 -10l48 -327q5 -37 9.5 -73t6.5 -73h2q1 57 3 103.5t5.5 92t9.5 97.5l27 195q2 11 12 11h125
q12 0 9 -15l-107 -629q-2 -11 -11 -11h-136q-12 0 -14 10l-28 190q-5 33 -9.5 65.5t-8.5 65.5h-2q-5 -33 -10 -65.5t-11 -65.5l-32 -190q-1 -5 -5 -7.5t-8 -2.5h-135zM240 712q-31 0 -50.5 17t-19.5 46v18q0 30 19.5 46.5t50.5 16.5q32 0 50.5 -16.5t18.5 -46.5v-18
q0 -29 -18.5 -46t-50.5 -17zM405 712q-30 0 -49.5 17t-19.5 46v18q0 30 19.5 46.5t49.5 16.5q33 0 51 -16.5t18 -46.5v-18q0 -29 -18 -46t-51 -17z" />
    <glyph glyph-name="wdieresis" unicode="&#x1e85;" horiz-adv-x="562" 
d="M114 0q-11 0 -14 10l-87 473q-3 14 9 14h127q11 0 12 -11l20 -200q2 -34 4.5 -67.5t4.5 -67.5h2q5 34 8.5 67t7.5 66l12 91l-12 97q-1 15 10 15h108q11 0 12 -11l19 -193l6 -66l6 -66h2q2 33 5 66.5t6 66.5l18 202q2 11 12 11h128q12 0 9 -14l-87 -473q-3 -10 -14 -10
h-131q-11 0 -13 10l-10 77q-3 28 -6 59.5t-6 79.5h-4q-3 -48 -6 -80t-6 -60l-9 -75q-1 -11 -12 -11h-131zM199 560q-31 0 -50.5 17t-19.5 46v18q0 31 19.5 47t50.5 16q32 0 50.5 -16t18.5 -47v-18q0 -29 -18.5 -46t-50.5 -17zM364 560q-30 0 -49.5 17t-19.5 46v18
q0 31 19.5 47t49.5 16q33 0 51 -16t18 -47v-18q0 -29 -18 -46t-51 -17z" />
    <glyph glyph-name="uni1E9E" unicode="&#x1e9e;" horiz-adv-x="526" 
d="M349 -6q-79 0 -113.5 40.5t-27.5 125.5q1 14 12 14l92 -2q11 0 10 -12q-1 -21 3 -30.5t15 -9.5q14 0 19 16t5 62q0 47 -16.5 66t-58.5 19h-32q-12 0 -12 12v45q0 6 1 11t2 9l47 164h-113v-511q0 -13 -12 -13h-124q-12 0 -12 13v629q0 13 12 13h415q8 0 11 -7t0 -17
l-79 -252q62 -16 90.5 -60.5t28.5 -122.5q-1 -103 -41 -152.5t-122 -49.5z" />
    <glyph glyph-name="Ygrave" unicode="&#x1ef2;" horiz-adv-x="446" 
d="M160 0q-11 0 -11 13v213l-146 413q-6 16 9 16h139q11 0 12 -9l37 -167q6 -29 12 -58.5t11 -58.5h2q5 29 10.5 58t11.5 58l38 168q1 9 11 9h138q14 0 8 -16l-145 -412v-214q0 -13 -10 -13h-127zM213 708q-12 0 -19 10l-73 111q-4 7 -2 11t7 4h98q6 0 9.5 -2.5t6.5 -6.5
l58 -113q3 -5 1 -9.5t-9 -4.5h-77z" />
    <glyph glyph-name="ygrave" unicode="&#x1ef3;" horiz-adv-x="391" 
d="M98 -185q-12 0 -9 15l38 169l-116 484q-3 14 9 14h130q12 0 13 -11l19 -163q3 -29 6.5 -68.5t5.5 -71.5h4q2 32 4.5 71.5t6.5 68.5l21 164q1 10 12 10h129q6 0 8.5 -3t0.5 -11l-154 -658q-2 -10 -13 -10h-115zM196 557q-12 0 -19 10l-84 126q-4 7 -2 11.5t7 4.5h99
q10 0 16 -10l67 -128q3 -6 1 -10t-9 -4h-76z" />
    <glyph glyph-name="uni2007" unicode="&#x2007;" horiz-adv-x="345" 
 />
    <glyph glyph-name="uni2008" unicode="&#x2008;" horiz-adv-x="155" 
 />
    <glyph glyph-name="uni200B" unicode="&#x200b;" horiz-adv-x="1" 
 />
    <glyph glyph-name="endash" unicode="&#x2013;" horiz-adv-x="518" 
d="M45 211q-14 0 -14 14v83q0 14 14 14h428q14 0 14 -14v-83q0 -14 -14 -14h-428z" />
    <glyph glyph-name="emdash" unicode="&#x2014;" horiz-adv-x="613" 
d="M45 211q-14 0 -14 14v83q0 14 14 14h523q14 0 14 -14v-83q0 -14 -14 -14h-523z" />
    <glyph glyph-name="quoteleft" unicode="&#x2018;" horiz-adv-x="258" 
d="M228 655q13 0 10 -14l-48 -290q-2 -12 -13 -12h-145q-7 0 -10 4t-1 11l86 290q3 11 15 11h106z" />
    <glyph glyph-name="quoteright" unicode="&#x2019;" horiz-adv-x="269" 
d="M31 339q-13 0 -11 14l48 290q2 12 14 12h145q6 0 9.5 -3.5t1.5 -11.5l-87 -290q-2 -11 -14 -11h-106z" />
    <glyph glyph-name="quotesinglbase" unicode="&#x201a;" horiz-adv-x="269" 
d="M31 -150q-13 0 -11 14l48 290q2 12 14 12h145q6 0 9.5 -3.5t1.5 -11.5l-87 -290q-2 -11 -14 -11h-106z" />
    <glyph glyph-name="quotedblleft" unicode="&#x201c;" horiz-adv-x="458" 
d="M428 655q13 0 10 -14l-48 -290q-2 -12 -13 -12h-145q-7 0 -10 4t-1 11l86 290q3 11 15 11h106zM228 655q13 0 10 -14l-48 -290q-2 -12 -13 -12h-145q-7 0 -10 4t-1 11l86 290q3 11 15 11h106z" />
    <glyph glyph-name="quotedblright" unicode="&#x201d;" horiz-adv-x="469" 
d="M31 339q-13 0 -11 14l48 290q2 12 14 12h145q6 0 9.5 -3.5t1.5 -11.5l-87 -290q-2 -11 -14 -11h-106zM231 339q-13 0 -11 14l48 290q2 12 14 12h145q6 0 9.5 -3.5t1.5 -11.5l-87 -290q-2 -11 -14 -11h-106z" />
    <glyph glyph-name="quotedblbase" unicode="&#x201e;" horiz-adv-x="469" 
d="M31 -150q-13 0 -11 14l48 290q2 12 14 12h145q6 0 9.5 -3.5t1.5 -11.5l-87 -290q-2 -11 -14 -11h-106zM231 -150q-13 0 -11 14l48 290q2 12 14 12h145q6 0 9.5 -3.5t1.5 -11.5l-87 -290q-2 -11 -14 -11h-106z" />
    <glyph glyph-name="dagger" unicode="&#x2020;" horiz-adv-x="380" 
d="M141 0q-14 0 -14 14v354h-95q-14 0 -14 14v92q0 13 14 13h95v154q0 14 14 14h96q14 0 14 -14v-154h97q14 0 14 -13v-92q0 -14 -14 -14h-97v-354q0 -14 -14 -14h-96z" />
    <glyph glyph-name="daggerdbl" unicode="&#x2021;" horiz-adv-x="380" 
d="M141 0q-14 0 -14 14v134h-95q-14 0 -14 14v92q0 14 14 14h95v119h-95q-14 0 -14 14v92q0 14 14 14h95v134q0 14 14 14h96q14 0 14 -14v-134h97q14 0 14 -14v-92q0 -14 -14 -14h-97v-119h97q14 0 14 -14v-92q0 -14 -14 -14h-97v-134q0 -14 -14 -14h-96z" />
    <glyph glyph-name="bullet" unicode="&#x2022;" horiz-adv-x="290" 
d="M145 155q-50 0 -79.5 27t-29.5 75v33q0 50 29.5 76.5t79.5 26.5q53 0 81 -26.5t28 -76.5v-33q0 -48 -28 -75t-81 -27z" />
    <glyph glyph-name="ellipsis" unicode="&#x2026;" horiz-adv-x="696" 
d="M573 -6q-42 0 -67.5 21t-25.5 58v23q0 40 25.5 59.5t67.5 19.5q44 0 67.5 -19.5t23.5 -59.5v-23q0 -37 -23.5 -58t-67.5 -21zM124 -6q-42 0 -67.5 21t-25.5 58v23q0 40 25.5 59.5t67.5 19.5q44 0 67.5 -19.5t23.5 -59.5v-23q0 -37 -23.5 -58t-67.5 -21zM349 -6
q-42 0 -67.5 21t-25.5 58v23q0 40 25.5 59.5t67.5 19.5q43 0 67 -19.5t24 -59.5v-23q0 -37 -24 -58t-67 -21z" />
    <glyph glyph-name="perthousand" unicode="&#x2030;" horiz-adv-x="957" 
d="M800 -6q-66 0 -95.5 39t-29.5 95v84q0 57 29.5 96t95.5 39t95.5 -39t29.5 -96v-84q0 -56 -29.5 -95t-95.5 -39zM800 95q13 0 18 8t5 24v87q0 16 -5 24t-18 8t-18 -8t-5 -24v-87q0 -16 5 -24t18 -8zM160 0q-14 0 -8 16l139 333l112 298q4 8 14 8h101q15 0 7 -15l-131 -313
l-121 -319q-3 -8 -13 -8h-100zM157 308q-66 0 -95 39t-29 95v85q0 56 29 95t95 39q67 0 96 -39t29 -95v-85q0 -56 -29 -95t-96 -39zM157 409q23 0 23 32v87q0 16 -5 24t-18 8q-12 0 -17 -8t-5 -24v-87q0 -32 22 -32zM520 -6q-66 0 -95.5 39t-29.5 95v84q0 57 29.5 96
t95.5 39t95.5 -39t29.5 -96v-84q0 -56 -29.5 -95t-95.5 -39zM520 95q13 0 18 8t5 24v87q0 16 -5 24t-18 8t-18 -8t-5 -24v-87q0 -16 5 -24t18 -8z" />
    <glyph glyph-name="guilsinglleft" unicode="&#x2039;" horiz-adv-x="260" 
d="M116 86q-8 0 -13 8l-78 161q-4 9 0 18l78 160q4 10 13 10h111q7 0 9.5 -4.5t-0.5 -11.5l-77 -163l76 -163q7 -15 -8 -15h-111z" />
    <glyph glyph-name="guilsinglright" unicode="&#x203a;" horiz-adv-x="244" 
d="M24 86q-14 0 -7 15l76 163l-77 163q-3 7 -0.5 11.5t8.5 4.5h112q9 0 13 -10l78 -160q4 -9 0 -18l-78 -161q-4 -8 -13 -8h-112z" />
    <glyph glyph-name="fraction" unicode="&#x2044;" horiz-adv-x="195" 
d="M-86 -36q-10 0 -6 12l130 366l122 342q2 7 9 7h112q10 0 6 -11l-134 -360l-118 -349q-1 -7 -8 -7h-113z" />
    <glyph glyph-name="uni2070" unicode="&#x2070;" horiz-adv-x="366" 
d="M183 337q-70 0 -107 39t-37 112v136q0 73 37 112t107 39t107 -39t37 -112v-136q0 -73 -37 -112t-107 -39zM183 441q14 0 20 10t6 35v141q0 24 -6 34t-20 10t-20 -10t-6 -34v-141q0 -25 6 -35t20 -10z" />
    <glyph glyph-name="uni2074" unicode="&#x2074;" horiz-adv-x="366" 
d="M225 343q-14 0 -14 14v51h-174q-13 0 -13 14v9q0 6 1 11t3 9l113 302q5 14 17 14h82q7 0 10 -4.5t0 -12.5l-85 -248h46l14 117q2 14 14 14h67q14 0 14 -14v-116h10q13 0 13 -13v-68q0 -14 -13 -14h-10v-51q0 -14 -14 -14h-81z" />
    </font>
</defs>
</svg>
