<svg xmlns="http://www.w3.org/2000/svg" xmlns:xlink="http://www.w3.org/1999/xlink" width="236.156" height="235.275" viewBox="0 0 236.156 235.275">
  <defs>
    <clipPath id="clip-path">
      <rect id="Rectangle_110" data-name="Rectangle 110" width="221.323" height="220.373" fill="#d6d2c8"/>
    </clipPath>
  </defs>
  <g id="Group_506" data-name="Group 506" transform="translate(0 15.439) rotate(-4)">
    <path id="Path_971" data-name="Path 971" d="M97.727,3.625l9.467,3.82-1.221,3.028L99.809,7.985,97.366,14.04l5.339,2.155-1.223,3.027-5.339-2.154L92.7,25.6l-3.3-1.332Z" transform="translate(50.214 2.036)" fill="#d6d2c8"/>
    <g id="Group_479" data-name="Group 479">
      <g id="Group_478" data-name="Group 478" clip-path="url(#clip-path)">
        <path id="Path_972" data-name="Path 972" d="M110.24,9.394l-7.9,13.082c-1.549,2.566-1.131,4,.469,4.963,1.576.953,3.062.672,4.612-1.894l7.905-13.082,3.047,1.843-7.9,13.081c-2.517,4.167-5.869,4.951-9.35,2.849s-4.345-5.435-1.829-9.6l7.905-13.082Z" transform="translate(54.957 4.242)" fill="#d6d2c8"/>
        <path id="Path_973" data-name="Path 973" d="M113.222,38.256l-8.015-6.79L119.6,14.487l2.716,2.3L110.035,31.277l5.3,4.49Z" transform="translate(59.094 8.137)" fill="#d6d2c8"/>
        <path id="Path_974" data-name="Path 974" d="M118.049,43.642,111.03,35.83l16.551-14.869,2.378,2.647L115.837,36.3l4.64,5.165Z" transform="translate(62.365 11.774)" fill="#d6d2c8"/>
        <path id="Path_975" data-name="Path 975" d="M134.607,28.429l5.691,8.477-2.713,1.818-3.7-5.519-4.927,3.308,3.373,5.027-2.71,1.819-3.373-5.027-5.422,3.639,3.706,5.519-2.711,1.819-5.689-8.477Z" transform="translate(65.228 15.969)" fill="#d6d2c8"/>
        <path id="Path_976" data-name="Path 976" d="M143.216,41.79l2.3,6.081c1.292,3.414.245,6.6-3.475,8.011l-1.387.525c-3.859,1.462-6.893-.183-8.186-3.6l-1.04-2.75L123.656,53l-1.262-3.333Zm-1.793,4.488-6.94,2.627.935,2.472c.651,1.721,1.977,2.457,4.254,1.594l.832-.315c2.111-.8,2.507-2.185,1.854-3.907Z" transform="translate(68.748 23.473)" fill="#d6d2c8"/>
        <path id="Path_977" data-name="Path 977" d="M132.591,55.29l7.292-1.37c5.076-.953,8.049,1.054,8.816,5.138s-1.274,7.034-6.35,7.988l-7.292,1.37c-5.075.954-8.049-1.054-8.817-5.138s1.276-7.034,6.351-7.988m1.808,9.626,7.292-1.37c3.3-.62,4.162-1.96,3.8-3.885-.356-1.9-1.655-2.859-4.951-2.241l-7.292,1.371c-3.3.618-4.16,1.96-3.8,3.884.356,1.9,1.655,2.859,4.951,2.241" transform="translate(70.82 30.155)" fill="#d6d2c8"/>
        <path id="Path_978" data-name="Path 978" d="M127.232,82.961l.108-5.369,18.828-2.027-18.731-2.78.108-5.371,22.312-2.608-.072,3.561-18.291,1.888,18.2,2.71-.109,5.341-18.291,1.977,18.2,2.621-.072,3.561Z" transform="translate(71.465 36.401)" fill="#d6d2c8"/>
        <path id="Path_979" data-name="Path 979" d="M149.254,83.918l-2.14,9.984-3.192-.684,1.393-6.5-5.8-1.243-1.27,5.92-3.192-.684,1.268-5.922-6.384-1.368-1.395,6.5-3.192-.684,2.141-9.984Z" transform="translate(70.406 44.516)" fill="#d6d2c8"/>
        <path id="Path_980" data-name="Path 980" d="M123.293,95.917l12.3-1.482-10.173-3.964,1.293-3.317,20.73,8.077-2.433,6.248c-1.324,3.4-4.151,5.1-7.662,3.731l-.831-.323c-3.1-1.206-4.054-3.809-3.492-6.645l-11.268,1.627Zm19.813,1.448L137.3,95.1l-1.034,2.653c-.668,1.715-.259,3.116,1.815,3.925l.276.108c1.908.743,3.045-.056,3.714-1.769Z" transform="translate(68.388 48.954)" fill="#d6d2c8"/>
        <path id="Path_981" data-name="Path 981" d="M123.392,106.8a3.264,3.264,0,1,1-4.552.615,3.254,3.254,0,0,1,4.552-.615" transform="translate(66.372 59.615)" fill="#d6d2c8"/>
        <path id="Path_982" data-name="Path 982" d="M121.794,131.252l-8.115,6.189-1.98-2.6,5.285-4.029-3.957-5.191-4.577,3.49-1.98-2.594,4.577-3.492-5.577-7.312,2.83-2.16Z" transform="translate(59.242 63.785)" fill="#d6d2c8"/>
        <path id="Path_983" data-name="Path 983" d="M111.949,138.77,104.732,125.3c-1.415-2.644-2.859-3.014-4.509-2.132-1.621.868-2.14,2.291-.725,4.933l7.215,13.474-3.137,1.682L96.36,129.779c-2.3-4.292-1.262-7.574,2.324-9.494s6.89-.964,9.189,3.328l7.215,13.474Z" transform="translate(53.438 67.033)" fill="#d6d2c8"/>
        <path id="Path_984" data-name="Path 984" d="M85.542,126.22l9.929-3.417,7.238,21.036L99.344,145l-6.177-17.95L86.6,129.306Z" transform="translate(48.048 68.977)" fill="#d6d2c8"/>
        <path id="Path_985" data-name="Path 985" d="M77.906,127.207l10.309-2.016,4.271,21.839-3.494.684-3.645-18.636-6.815,1.332Z" transform="translate(43.759 70.319)" fill="#d6d2c8"/>
        <path id="Path_986" data-name="Path 986" d="M81.658,148.761l-10.188.533-.172-3.258,6.636-.347-.309-5.925-6.044.317-.17-3.259,6.044-.315-.34-6.517-6.636.348-.172-3.259,10.19-.533Z" transform="translate(39.49 71.08)" fill="#d6d2c8"/>
        <path id="Path_987" data-name="Path 987" d="M66.348,148.7l-6.4-1.128c-3.593-.632-5.8-3.159-5.108-7.074l.258-1.46c.715-4.062,3.676-5.83,7.271-5.2l2.892.509,1.44-8.18,3.506.618Zm-2.941-3.831,1.287-7.3-2.6-.458c-1.812-.32-3.12.444-3.542,2.839l-.155.876c-.392,2.221.6,3.269,2.41,3.589Z" transform="translate(30.733 70.868)" fill="#d6d2c8"/>
        <path id="Path_988" data-name="Path 988" d="M59.553,132.911l-2.544,6.97c-1.771,4.851-5.016,6.384-8.919,4.96s-5.4-4.687-3.628-9.539L47,128.332c1.771-4.852,5.016-6.384,8.919-4.96s5.4,4.687,3.629,9.539m-9.2-3.358-2.544,6.97c-1.149,3.15-.439,4.579,1.4,5.25,1.812.662,3.3.038,4.452-3.114l2.544-6.97c1.149-3.15.439-4.579-1.4-5.25-1.813-.661-3.3-.038-4.454,3.114" transform="translate(24.56 69.011)" fill="#d6d2c8"/>
        <path id="Path_989" data-name="Path 989" d="M41.9,115.584l4.554,2.847-7.916,17.2,11.992-14.655,4.555,2.847-9.2,20.493-3.02-1.887,7.76-16.671L38.96,139.993l-4.529-2.831,7.685-16.718-11.585,14.28-3.02-1.888Z" transform="translate(15.453 64.922)" fill="#d6d2c8"/>
        <path id="Path_990" data-name="Path 990" d="M27.575,132.5,20.1,125.554l2.224-2.391,4.868,4.527,4.042-4.348L26.8,119.221l2.222-2.391,4.434,4.123,4.445-4.782-4.868-4.526,2.224-2.391,7.476,6.951Z" transform="translate(11.289 61.367)" fill="#d6d2c8"/>
        <path id="Path_991" data-name="Path 991" d="M31.29,104.561l-5.007,11.322,8.6-6.717,2.189,2.8-17.532,13.69-4.126-5.283c-2.244-2.875-2.261-6.173.706-8.491l.7-.548c2.617-2.044,5.344-1.54,7.495.394l4.357-10.515ZM19.926,120.847l4.91-3.834-1.754-2.244c-1.131-1.448-2.544-1.813-4.3-.443l-.234.183c-1.613,1.26-1.509,2.646-.376,4.095Z" transform="translate(7.756 56.853)" fill="#d6d2c8"/>
        <path id="Path_992" data-name="Path 992" d="M15.37,97.527a3.265,3.265,0,1,1,1.8-4.231,3.257,3.257,0,0,1-1.8,4.231" transform="translate(6.122 51.246)" fill="#d6d2c8"/>
        <path id="Path_993" data-name="Path 993" d="M1.291,84.908.153,74.768,3.395,74.4l.74,6.6,6.486-.728-.643-5.719,3.244-.364.642,5.719L23,78.886l.4,3.537Z" transform="translate(0.086 41.675)" fill="#d6d2c8"/>
        <path id="Path_994" data-name="Path 994" d="M.16,72.369l15.266.687c3,.134,4.053-.917,4.137-2.785.084-1.838-.876-3.009-3.868-3.144L.427,66.441l.159-3.558,15.267.687c4.862.219,7.153,2.786,6.971,6.848s-2.7,6.414-7.557,6.2L0,75.926Z" transform="translate(-0.001 35.321)" fill="#d6d2c8"/>
        <path id="Path_995" data-name="Path 995" d="M24.945,55.166,22.81,65.448,1.025,60.927l.723-3.484L20.34,61.3l1.41-6.8Z" transform="translate(0.576 30.614)" fill="#d6d2c8"/>
        <path id="Path_996" data-name="Path 996" d="M27.777,47.984l-3.536,9.895L3.277,50.391l1.2-3.355,17.889,6.39L24.7,46.885Z" transform="translate(1.841 26.335)" fill="#d6d2c8"/>
        <path id="Path_997" data-name="Path 997" d="M6.841,43.256l4.754-9.034,2.889,1.521-3.1,5.883,5.252,2.764,2.82-5.358,2.889,1.521-2.82,5.357L25.3,48.95l3.1-5.883,2.888,1.521-4.754,9.033Z" transform="translate(3.842 19.222)" fill="#d6d2c8"/>
        <path id="Path_998" data-name="Path 998" d="M14.91,29.469l4.252-4.916c2.389-2.761,5.692-3.358,8.7-.754l1.121.97c3.12,2.7,3.119,6.152.729,8.913L27.791,35.9l6.284,5.438-2.33,2.694Zm4.8-.558,5.613,4.855,1.727-2c1.206-1.393,1.221-2.909-.618-4.5l-.675-.583c-1.705-1.477-3.114-1.163-4.318.228Z" transform="translate(8.375 12.431)" fill="#d6d2c8"/>
        <path id="Path_999" data-name="Path 999" d="M31.379,31.843l-4.688-5.749c-3.264-4-2.922-7.573.3-10.2s6.787-2.241,10.051,1.76L41.727,23.4c3.262,4,2.92,7.573-.3,10.2s-6.787,2.243-10.048-1.758m7.588-6.189-4.69-5.749c-2.118-2.6-3.709-2.717-5.227-1.48-1.5,1.22-1.721,2.82.4,5.419l4.688,5.749c2.121,2.6,3.711,2.717,5.229,1.48,1.495-1.22,1.719-2.82-.4-5.419" transform="translate(13.707 7.99)" fill="#d6d2c8"/>
        <path id="Path_1000" data-name="Path 1000" d="M59.035,25.4,54.259,27.86l-10.748-15.6,6.475,17.8L45.21,32.527,32.289,14.144l3.166-1.632L45.827,27.7,39.545,10.4l4.748-2.449L54.745,23.1,48.381,5.843l3.166-1.632Z" transform="translate(18.136 2.366)" fill="#d6d2c8"/>
        <path id="Path_1001" data-name="Path 1001" d="M48.115,4.257,57.91,1.4l.915,3.133-6.38,1.863,1.665,5.7,5.809-1.7.915,3.133-5.809,1.7,1.83,6.265,6.378-1.863.915,3.133-9.8,2.861Z" transform="translate(27.026 0.784)" fill="#d6d2c8"/>
        <path id="Path_1002" data-name="Path 1002" d="M70.239,21.825l-7.16-10.11,1.359,10.838L60.9,23,58.133.906,64.789.072c3.623-.454,6.465,1.223,6.935,4.963l.111.884c.414,3.3-1.42,5.383-4.185,6.239l6.8,9.139ZM62.073,3.7l.776,6.184,2.828-.355C67.5,9.3,68.542,8.277,68.264,6.067l-.037-.294c-.255-2.033-1.5-2.655-3.325-2.425Z" transform="translate(32.653 0)" fill="#d6d2c8"/>
        <path id="Path_1003" data-name="Path 1003" d="M78.619,9.46a3.264,3.264,0,1,1,2.717,3.706A3.255,3.255,0,0,1,78.619,9.46" transform="translate(44.137 3.766)" fill="#d6d2c8"/>
      </g>
    </g>
  </g>
</svg>
