<svg xmlns="http://www.w3.org/2000/svg" width="32.505" height="32.503" viewBox="0 0 32.505 32.503">
  <g id="noun-headset-7362556" transform="translate(-5.001 -5.001)">
    <path id="Path_40419" data-name="Path 40419" d="M31.477,30.59v1.638A5.285,5.285,0,0,1,26.2,37.5H21.253a1.434,1.434,0,1,1,0-2.868H26.2a2.416,2.416,0,0,0,2.408-2.408V20.067a1.434,1.434,0,0,1,1.435-1.433h1.58v-.4a10.371,10.371,0,1,0-20.742,0v.4h1.58A1.435,1.435,0,0,1,13.9,20.067v9.088a1.435,1.435,0,0,1-1.435,1.435H9.449A4.458,4.458,0,0,1,5,26.142v-3.06a4.46,4.46,0,0,1,3.014-4.21v-.633a13.239,13.239,0,0,1,26.478,0v.633a4.461,4.461,0,0,1,3.014,4.21v3.06a4.458,4.458,0,0,1-4.448,4.448h-1.58Zm1.58-9.088h-1.58v6.22h1.58a1.588,1.588,0,0,0,1.58-1.58v-3.06a1.588,1.588,0,0,0-1.58-1.58Zm-22.03,0H9.448a1.587,1.587,0,0,0-1.579,1.58v3.06a1.588,1.588,0,0,0,1.579,1.58h1.58Z" transform="translate(0 0)" fill-rule="evenodd"/>
  </g>
</svg>
