<svg xmlns="http://www.w3.org/2000/svg" width="21.67" height="21.515" viewBox="0 0 21.67 21.515">
  <g id="Group_15689" data-name="Group 15689" transform="translate(-69.63 -1448.732)">
    <g id="noun-phone-7350019" transform="translate(70.058 1448.982)">
      <path id="Path_40324" data-name="Path 40324" d="M21.8,27.625a5.173,5.173,0,0,1-2.9-.884A46.522,46.522,0,0,1,7.512,15.358,5.2,5.2,0,0,1,8.14,8.791L9.583,7.347a2.527,2.527,0,0,1,3.567,0l2.5,2.5a1.624,1.624,0,0,1,0,2.313l-1.247,1.247a1.012,1.012,0,0,0-.295.718,1.025,1.025,0,0,0,.295.718l5,5a1.027,1.027,0,0,0,1.428,0L22.084,18.6a1.68,1.68,0,0,1,2.32,0l2.5,2.5a2.4,2.4,0,0,1,.71,1.852,2.952,2.952,0,0,1-.922,1.927l-1.232,1.232A5.161,5.161,0,0,1,21.8,27.625ZM11.359,8.125a1,1,0,0,0-.71.295L9.205,9.864a3.691,3.691,0,0,0-.438,4.656A44.856,44.856,0,0,0,19.734,25.486a3.691,3.691,0,0,0,4.656-.438l1.232-1.232a1.51,1.51,0,0,0,.484-.937.921.921,0,0,0-.272-.7l-2.5-2.5a.138.138,0,0,0-.181,0L21.9,20.921a2.584,2.584,0,0,1-3.567,0l-5-5a2.518,2.518,0,0,1,0-3.567L14.579,11.1a.138.138,0,0,0,0-.181l-2.5-2.5a1.019,1.019,0,0,0-.718-.295Z" transform="translate(-6.629 -6.61)" stroke="#000" stroke-width="0.5"/>
    </g>
  </g>
</svg>
