<svg id="instagram-svgrepo-com" xmlns="http://www.w3.org/2000/svg" width="58.04" height="58.04" viewBox="0 0 58.04 58.04">
  <path id="Path_62" data-name="Path 62" d="M21.829,37.658A15.829,15.829,0,1,0,6,21.829,15.829,15.829,0,0,0,21.829,37.658Zm0-5.276A10.553,10.553,0,1,0,11.276,21.829,10.553,10.553,0,0,0,21.829,32.382Z" transform="translate(7.191 7.191)" fill-rule="evenodd"/>
  <path id="Path_63" data-name="Path 63" d="M19.638,5a2.638,2.638,0,1,0,2.638,2.638A2.638,2.638,0,0,0,19.638,5Z" transform="translate(25.211 5.553)"/>
  <path id="Path_64" data-name="Path 64" d="M2.725,9.643C1,13.029,1,17.461,1,26.326v7.387c0,8.865,0,13.3,1.725,16.684a15.828,15.828,0,0,0,6.918,6.918c3.386,1.725,7.819,1.725,16.684,1.725h7.387c8.865,0,13.3,0,16.684-1.725A15.827,15.827,0,0,0,57.314,50.4c1.725-3.386,1.725-7.818,1.725-16.684V26.326c0-8.865,0-13.3-1.725-16.684A15.828,15.828,0,0,0,50.4,2.725C47.011,1,42.578,1,33.713,1H26.326c-8.865,0-13.3,0-16.684,1.725A15.829,15.829,0,0,0,2.725,9.643ZM33.713,6.276H26.326c-4.52,0-7.592,0-9.967.2a11.388,11.388,0,0,0-4.321.952,10.553,10.553,0,0,0-4.612,4.612,11.388,11.388,0,0,0-.952,4.321c-.194,2.375-.2,5.447-.2,9.967v7.387c0,4.52,0,7.592.2,9.967A11.389,11.389,0,0,0,7.427,48a10.553,10.553,0,0,0,4.612,4.612,11.385,11.385,0,0,0,4.321.952c2.375.194,5.447.2,9.967.2h7.387c4.52,0,7.592,0,9.967-.2A11.385,11.385,0,0,0,48,52.613,10.554,10.554,0,0,0,52.613,48a11.385,11.385,0,0,0,.952-4.322c.194-2.375.2-5.447.2-9.967V26.326c0-4.52,0-7.592-.2-9.967a11.385,11.385,0,0,0-.952-4.321A10.553,10.553,0,0,0,48,7.427a11.389,11.389,0,0,0-4.322-.952C41.305,6.28,38.233,6.276,33.713,6.276Z" transform="translate(-1 -1)" fill-rule="evenodd"/>
</svg>
