<svg xmlns="http://www.w3.org/2000/svg" width="38.268" height="34.301" viewBox="0 0 38.268 34.301">
  <g id="Group_15642" data-name="Group 15642" transform="translate(0 0)">
    <g id="Page-1" transform="translate(0)">
      <g id="Dribbble-Light-Preview">
        <g id="icons">
          <path id="linkedin-_161_" data-name="linkedin-[#161]" d="M162.268,7353.3h-7.654v-12c0-3.292-1.621-5.129-4.527-5.129-3.163,0-5.04,1.914-5.04,5.129v12h-7.654V7331h7.654v2.506a9.39,9.39,0,0,1,7.812-3.775c5.413,0,9.408,2.96,9.408,9.086V7353.3Zm-33.6-25.861a4.242,4.242,0,1,1,4.671-4.221,4.464,4.464,0,0,1-4.671,4.221ZM124,7353.3h9.567V7331H124Z" transform="translate(-124 -7318.996)" fill="#fff" fill-rule="evenodd"/>
        </g>
      </g>
    </g>
  </g>
</svg>
