<svg xmlns="http://www.w3.org/2000/svg" width="398" height="210.391" viewBox="0 0 398 210.391">
  <g id="Group_15919" data-name="Group 15919" transform="translate(-748 -1149.27)">
    <g id="Group_15799" data-name="Group 15799" transform="translate(-582.201 -442.73)">
      <path id="Path_40349" data-name="Path 40349" d="M62.807,108.533H69.5A30.024,30.024,0,0,0,99.491,78.542V36.5A30.024,30.024,0,0,0,69.5,6.508H62.807A30.024,30.024,0,0,0,32.816,36.5V78.542A30.034,30.034,0,0,0,62.807,108.533ZM37.758,67.051H50.65a2.471,2.471,0,1,0,0-4.942H37.758V53.515H50.65a2.471,2.471,0,1,0,0-4.942H37.758V39.986H50.65a2.471,2.471,0,1,0,0-4.942H37.834A25.058,25.058,0,0,1,62.807,11.45H69.5A25.054,25.054,0,0,1,94.473,35.044H81.657a2.471,2.471,0,0,0,0,4.942H94.549v8.595H81.657a2.471,2.471,0,0,0,0,4.942H94.549v8.595H81.657a2.471,2.471,0,0,0,0,4.942H94.549v7.958H37.756ZM94.481,79.944A25.065,25.065,0,0,1,69.5,103.592H62.807A25.064,25.064,0,0,1,37.825,79.944Z" transform="translate(1466.248 1585.492)" fill="#cd1718"/>
      <path id="Path_40350" data-name="Path 40350" d="M113.539,39.127a2.471,2.471,0,0,0-4.942,0v10.08a37.859,37.859,0,0,1-75.718,0V39.127a2.471,2.471,0,1,0-4.942,0v10.08A42.82,42.82,0,0,0,68.259,91.879v11.71H51.683a2.471,2.471,0,0,0,0,4.942H89.769a2.471,2.471,0,1,0,0-4.942H73.193V91.879a42.8,42.8,0,0,0,40.321-42.671Z" transform="translate(1461.662 1613.841)" fill="#cd1718"/>
    </g>
    <g id="Group_15800" data-name="Group 15800" transform="translate(-707.961 -446.55)">
      <path id="Path_40351" data-name="Path 40351" d="M17.033,83.375A6.433,6.433,0,0,0,10.6,89.807v15.547a6.432,6.432,0,0,0,12.864,0V89.807A6.446,6.446,0,0,0,17.033,83.375Z" transform="translate(1445.359 1671.731)" fill="#cd1718"/>
      <path id="Path_40352" data-name="Path 40352" d="M20.943,81.164A6.433,6.433,0,0,0,14.512,87.6v37.9a6.432,6.432,0,0,0,12.864,0V87.6a6.42,6.42,0,0,0-6.432-6.432Z" transform="translate(1461.202 1662.774)" fill="#cd1718"/>
      <path id="Path_40353" data-name="Path 40353" d="M24.857,78.887a6.433,6.433,0,0,0-6.432,6.432v60.909a6.432,6.432,0,0,0,12.864,0V85.319A6.433,6.433,0,0,0,24.857,78.887Z" transform="translate(1477.055 1653.55)" fill="#cd1718"/>
      <path id="Path_40354" data-name="Path 40354" d="M28.771,81.738A6.433,6.433,0,0,0,22.34,88.17v32.081a6.432,6.432,0,1,0,12.864,0V88.17A6.458,6.458,0,0,0,28.771,81.738Z" transform="translate(1492.914 1665.1)" fill="#cd1718"/>
      <path id="Path_40355" data-name="Path 40355" d="M32.681,82.508A6.433,6.433,0,0,0,26.25,88.94v24.308a6.432,6.432,0,0,0,12.864,0V88.94A6.433,6.433,0,0,0,32.681,82.508Z" transform="translate(1508.751 1668.219)" fill="#cd1718"/>
      <path id="Path_40356" data-name="Path 40356" d="M37.232,83.375A6.433,6.433,0,0,0,30.8,89.807v15.547a6.432,6.432,0,0,0,12.864,0V89.807A6.433,6.433,0,0,0,37.232,83.375Z" transform="translate(1527.187 1671.731)" fill="#cd1718"/>
      <path id="Path_40357" data-name="Path 40357" d="M41.146,81.164A6.433,6.433,0,0,0,34.715,87.6v37.9a6.432,6.432,0,0,0,12.864,0V87.6A6.433,6.433,0,0,0,41.146,81.164Z" transform="translate(1543.04 1662.774)" fill="#cd1718"/>
      <path id="Path_40358" data-name="Path 40358" d="M45.056,78.887a6.433,6.433,0,0,0-6.432,6.432v60.909a6.432,6.432,0,0,0,12.864,0V85.319A6.433,6.433,0,0,0,45.056,78.887Z" transform="translate(1558.882 1653.55)" fill="#cd1718"/>
      <path id="Path_40359" data-name="Path 40359" d="M48.97,81.738a6.433,6.433,0,0,0-6.432,6.432v32.081a6.432,6.432,0,1,0,12.864,0V88.17A6.433,6.433,0,0,0,48.97,81.738Z" transform="translate(1574.736 1665.1)" fill="#cd1718"/>
      <path id="Path_40360" data-name="Path 40360" d="M52.885,82.508a6.433,6.433,0,0,0-6.432,6.432v24.308a6.432,6.432,0,0,0,12.864,0V88.94A6.458,6.458,0,0,0,52.885,82.508Z" transform="translate(1590.596 1668.219)" fill="#cd1718"/>
      <path id="Path_40361" data-name="Path 40361" d="M57.431,83.375A6.433,6.433,0,0,0,51,89.807v15.547a6.432,6.432,0,0,0,12.864,0V89.807A6.433,6.433,0,0,0,57.431,83.375Z" transform="translate(1609.014 1671.731)" fill="#cd1718"/>
      <path id="Path_40362" data-name="Path 40362" d="M61.346,81.164A6.433,6.433,0,0,0,54.915,87.6v37.9a6.432,6.432,0,0,0,12.864,0V87.6A6.42,6.42,0,0,0,61.346,81.164Z" transform="translate(1624.869 1662.774)" fill="#cd1718"/>
      <path id="Path_40363" data-name="Path 40363" d="M65.26,78.887a6.433,6.433,0,0,0-6.432,6.432v60.909a6.432,6.432,0,0,0,12.864,0V85.319A6.433,6.433,0,0,0,65.26,78.887Z" transform="translate(1640.728 1653.55)" fill="#cd1718"/>
      <path id="Path_40364" data-name="Path 40364" d="M69.17,81.738a6.433,6.433,0,0,0-6.432,6.432v32.081a6.432,6.432,0,1,0,12.864,0V88.17A6.433,6.433,0,0,0,69.17,81.738Z" transform="translate(1656.565 1665.1)" fill="#cd1718"/>
      <path id="Path_40365" data-name="Path 40365" d="M73.084,82.508a6.433,6.433,0,0,0-6.432,6.432v24.308a6.432,6.432,0,1,0,12.864,0V88.94A6.433,6.433,0,0,0,73.084,82.508Z" transform="translate(1672.418 1668.219)" fill="#cd1718"/>
      <path id="Path_40366" data-name="Path 40366" d="M77.635,83.375A6.433,6.433,0,0,0,71.2,89.807v15.547a6.432,6.432,0,0,0,12.864,0V89.807A6.458,6.458,0,0,0,77.635,83.375Z" transform="translate(1690.854 1671.731)" fill="#cd1718"/>
      <path id="Path_40367" data-name="Path 40367" d="M81.545,81.164A6.433,6.433,0,0,0,75.114,87.6v37.9a6.432,6.432,0,0,0,12.864,0V87.6A6.42,6.42,0,0,0,81.545,81.164Z" transform="translate(1706.696 1662.774)" fill="#cd1718"/>
      <path id="Path_40368" data-name="Path 40368" d="M85.459,78.887a6.433,6.433,0,0,0-6.432,6.432v60.909a6.432,6.432,0,1,0,12.864,0V85.319A6.433,6.433,0,0,0,85.459,78.887Z" transform="translate(1722.55 1653.55)" fill="#cd1718"/>
      <path id="Path_40369" data-name="Path 40369" d="M89.369,81.738a6.433,6.433,0,0,0-6.432,6.432v32.081a6.432,6.432,0,0,0,12.864,0V88.17A6.433,6.433,0,0,0,89.369,81.738Z" transform="translate(1738.392 1665.1)" fill="#cd1718"/>
      <path id="Path_40370" data-name="Path 40370" d="M93.283,82.508a6.433,6.433,0,0,0-6.432,6.432v24.308a6.432,6.432,0,1,0,12.864,0V88.94A6.433,6.433,0,0,0,93.283,82.508Z" transform="translate(1754.245 1668.219)" fill="#cd1718"/>
    </g>
  </g>
</svg>
