<svg id="Group_72" data-name="Group 72" xmlns="http://www.w3.org/2000/svg" xmlns:xlink="http://www.w3.org/1999/xlink" width="35.616" height="41.093" viewBox="0 0 35.616 41.093">
  <defs>
    <clipPath id="clip-path">
      <rect id="Rectangle_20" data-name="Rectangle 20" width="35.616" height="41.093" fill="#fff"/>
    </clipPath>
  </defs>
  <g id="Group_71" data-name="Group 71" clip-path="url(#clip-path)">
    <path id="Path_61" data-name="Path 61" d="M31.181,8.788a9.358,9.358,0,0,1-.809-.471,11.374,11.374,0,0,1-2.078-1.765,9.8,9.8,0,0,1-2.341-4.831h.009A5.951,5.951,0,0,1,25.868,0H18.81V27.29c0,.366,0,.729-.015,1.086,0,.044,0,.086-.007.134a.291.291,0,0,1,0,.061v.015a5.992,5.992,0,0,1-3.015,4.756,5.89,5.89,0,0,1-2.92.77,5.993,5.993,0,0,1,0-11.985,5.9,5.9,0,0,1,1.833.29l.009-7.186a13.11,13.11,0,0,0-10.1,2.955,13.851,13.851,0,0,0-3.022,3.726A12.914,12.914,0,0,0,.009,27.841a13.989,13.989,0,0,0,.758,4.685v.017a13.792,13.792,0,0,0,1.916,3.494,14.341,14.341,0,0,0,3.057,2.884V38.9l.017.017a13.206,13.206,0,0,0,7.2,2.169,12.755,12.755,0,0,0,5.347-1.182,13.419,13.419,0,0,0,4.342-3.263,13.565,13.565,0,0,0,2.366-3.932,14.727,14.727,0,0,0,.852-4.5V13.739c.086.051,1.226.806,1.226.806A16.323,16.323,0,0,0,31.3,16.283a24.221,24.221,0,0,0,4.316.591V9.868a9.152,9.152,0,0,1-4.435-1.079" transform="translate(0 0)" fill="#fff"/>
  </g>
</svg>
