<svg id="Group_72" data-name="Group 72" xmlns="http://www.w3.org/2000/svg" xmlns:xlink="http://www.w3.org/1999/xlink" width="54.941" height="63.39" viewBox="0 0 54.941 63.39">
  <defs>
    <clipPath id="clip-path">
      <rect id="Rectangle_20" data-name="Rectangle 20" width="54.941" height="63.39"/>
    </clipPath>
  </defs>
  <g id="Group_71" data-name="Group 71" clip-path="url(#clip-path)">
    <path id="Path_61" data-name="Path 61" d="M48.1,13.557a14.436,14.436,0,0,1-1.248-.726,17.546,17.546,0,0,1-3.205-2.723,15.116,15.116,0,0,1-3.612-7.452h.013A9.179,9.179,0,0,1,39.9,0H29.017V42.1c0,.565,0,1.124-.024,1.676,0,.069-.007.132-.011.206a.449.449,0,0,1-.007.094V44.1a9.244,9.244,0,0,1-4.651,7.337,9.086,9.086,0,0,1-4.5,1.189,9.244,9.244,0,0,1,0-18.488,9.1,9.1,0,0,1,2.827.448L22.661,23.5A20.223,20.223,0,0,0,7.078,28.055,21.366,21.366,0,0,0,2.417,33.8a19.92,19.92,0,0,0-2.4,9.144,21.579,21.579,0,0,0,1.169,7.227V50.2a21.275,21.275,0,0,0,2.955,5.39,22.123,22.123,0,0,0,4.716,4.449v-.026l.026.026a20.371,20.371,0,0,0,11.114,3.346,19.675,19.675,0,0,0,8.248-1.824,20.7,20.7,0,0,0,6.7-5.034,20.925,20.925,0,0,0,3.65-6.065A22.718,22.718,0,0,0,39.9,43.527V21.194c.132.079,1.891,1.243,1.891,1.243a25.181,25.181,0,0,0,6.488,2.682,37.363,37.363,0,0,0,6.658.911V15.222A14.118,14.118,0,0,1,48.1,13.557" transform="translate(0 0)"/>
  </g>
</svg>
