<?xml version="1.0" standalone="no"?>
<!DOCTYPE svg PUBLIC "-//W3C//DTD SVG 1.1//EN" "http://www.w3.org/Graphics/SVG/1.1/DTD/svg11.dtd" >
<svg xmlns="http://www.w3.org/2000/svg" xmlns:xlink="http://www.w3.org/1999/xlink" version="1.1">
<metadata>
Created by FontForge 20201107 at Wed Jan 11 22:20:41 2023
 By 
Copyright 2019 The Sofia Sans Project Authors (https://github.com/lettersoup/Sofia-Sans)
</metadata>
<defs>
<font id="SofiaSansExtraCondensed-Bold" horiz-adv-x="0" >
  <font-face 
    font-family="Sofia Sans Extra Condensed"
    font-weight="700"
    font-stretch="normal"
    units-per-em="1000"
    panose-1="0 0 0 0 0 0 0 0 0 0"
    ascent="800"
    descent="-200"
    x-height="491"
    cap-height="655"
    bbox="-88.75 -245 1064.5 913"
    underline-thickness="50"
    underline-position="-125"
    unicode-range="U+000D-FB02"
  />
<missing-glyph horiz-adv-x="346" 
d="M63 0q-9 0 -9 11v650q0 11 9 11h220q9 0 9 -11v-650q0 -11 -9 -11h-220zM131 73h86v526h-86v-526z" />
    <glyph glyph-name="f_f" unicode="ff" horiz-adv-x="537" 
d="M77 0q-9 0 -9 11v389h-43q-11 0 -11 11v70q0 10 11 10h43v55q0 71 27.5 107t85.5 36q27 0 49.5 -3.5t32.5 -8.5q8 -4 8 -13v-64q0 -5 -3.5 -7.5t-8.5 0.5q-10 3 -22 6t-26 3q-22 0 -31.5 -14t-9.5 -45v-52h68q10 0 10 -10v-70q0 -11 -10 -11h-68v-389q0 -11 -10 -11h-83z
M348 0q-9 0 -9 11v389h-43q-11 0 -11 11v70q0 10 11 10h43v55q0 71 27.5 107t85.5 36q27 0 49.5 -3.5t32.5 -8.5q8 -4 8 -13v-64q0 -5 -3.5 -7.5t-8.5 0.5q-10 3 -22 6t-26 3q-22 0 -31.5 -14t-9.5 -45v-52h68q10 0 10 -10v-70q0 -11 -10 -11h-68v-389q0 -11 -10 -11h-83z
" />
    <glyph glyph-name="f_i" unicode="fi" horiz-adv-x="393" 
d="M77 0q-9 0 -9 11v389h-43q-11 0 -11 11v70q0 10 11 10h43v55q0 71 27.5 107t87.5 36q30 0 53 -4t34 -8q7 -4 7 -13v-64q0 -12 -11 -7q-10 4 -24.5 6.5t-30.5 2.5q-21 0 -31 -14t-10 -46v-51h178q8 0 8 -10v-470q0 -11 -8 -11h-86q-8 0 -8 11v389h-84v-389q0 -11 -9 -11
h-84z" />
    <glyph glyph-name="f_l" unicode="fl" horiz-adv-x="395" 
d="M77 0q-9 0 -9 11v389h-43q-11 0 -11 11v70q0 10 11 10h43v56q0 70 27.5 106t87.5 36q23 0 42 -2.5t37 -5.5l86 2q9 0 9 -11v-661q0 -11 -9 -11h-84q-9 0 -9 11v585q-9 2 -20 4t-24 2q-21 0 -31 -14t-10 -45v-52h40q10 0 10 -10v-70q0 -11 -10 -11h-40v-389q0 -11 -9 -11
h-84z" />
    <glyph glyph-name=".notdef" horiz-adv-x="346" 
d="M63 0q-9 0 -9 11v650q0 11 9 11h220q9 0 9 -11v-650q0 -11 -9 -11h-220zM131 73h86v526h-86v-526z" />
    <glyph glyph-name=".null" 
 />
    <glyph glyph-name="nonmarkingreturn" horiz-adv-x="333" 
 />
    <glyph glyph-name="CR" unicode="&#xd;" horiz-adv-x="2" 
 />
    <glyph glyph-name="space" unicode=" " horiz-adv-x="125" 
 />
    <glyph glyph-name="exclam" unicode="!" horiz-adv-x="200" 
d="M59 208q-8 0 -8 10l-9 427q0 10 9 10h102q9 0 9 -11l-8 -426q0 -10 -9 -10h-86zM102 -6q-30 0 -46.5 14.5t-16.5 43.5v15q0 30 16.5 44.5t46.5 14.5q31 0 47 -14.5t16 -44.5v-15q0 -29 -16 -43.5t-47 -14.5z" />
    <glyph glyph-name="quotedbl" unicode="&#x22;" horiz-adv-x="317" 
d="M199 403q-12 0 -12 12v257q0 11 12 11h76q11 0 11 -11v-257q0 -12 -11 -12h-76zM42 403q-11 0 -11 12v257q0 11 11 11h77q11 0 11 -11v-257q0 -12 -11 -12h-77z" />
    <glyph glyph-name="numbersign" unicode="#" horiz-adv-x="402" 
d="M82 0q-11 0 -11 11v109h-42q-12 0 -12 11v60q0 11 12 11h42v209h-42q-12 0 -12 11v60q0 11 12 11h42v109q0 11 11 11h57q12 0 12 -11v-109h99v109q0 11 12 11h58q11 0 11 -11v-109h42q12 0 12 -11v-60q0 -11 -12 -11h-42v-209h42q12 0 12 -11v-60q0 -11 -12 -11h-42v-109
q0 -11 -11 -11h-58q-12 0 -12 11v109h-99v-109q0 -11 -12 -11h-57zM151 202h99v209h-99v-209z" />
    <glyph glyph-name="dollar" unicode="$" horiz-adv-x="436" 
d="M214 -6q-86 0 -122.5 52.5t-28.5 139.5q1 12 9 12h84q9 0 8 -11q-5 -49 9 -74.5t45 -25.5q26 0 40.5 18.5t14.5 56.5q0 34 -9.5 57.5t-33.5 41.5l-82 66q-45 35 -65.5 75.5t-19.5 100.5q1 75 39.5 116.5t110.5 41.5q83 0 123 -49.5t31 -137.5q-1 -13 -10 -13h-85
q-9 0 -8 13q4 42 -8 68t-41 26q-21 0 -34 -16t-14 -50q0 -33 11.5 -54.5t33.5 -40.5l81 -62q32 -25 50 -50.5t26 -57t8 -74.5q0 -80 -39.5 -124.5t-123.5 -44.5zM183 -88q-9 0 -9 9v83l88 5v-88q0 -9 -10 -9h-69zM174 646v87q0 9 9 9h69q10 0 10 -9v-87h-88z" />
    <glyph glyph-name="percent" unicode="%" horiz-adv-x="630" 
d="M158 0q-11 0 -7 13l129 331l108 305q3 7 11 7h73q13 0 6 -13l-122 -312l-115 -324q-3 -7 -11 -7h-72zM151 317q-57 0 -84.5 34.5t-27.5 87.5v99q0 53 27.5 88t84.5 35q58 0 85.5 -35t27.5 -88v-99q0 -53 -27.5 -87.5t-85.5 -34.5zM151 390q38 0 38 48v102q0 24 -9 35.5
t-29 11.5q-19 0 -27.5 -11.5t-8.5 -35.5v-102q0 -48 36 -48zM478 -6q-57 0 -85 34.5t-28 87.5v99q0 53 28 88t85 35q58 0 85.5 -35t27.5 -88v-99q0 -53 -27.5 -87.5t-85.5 -34.5zM478 68q20 0 28.5 11.5t8.5 35.5v102q0 24 -8.5 36t-28.5 12q-19 0 -27.5 -12t-8.5 -36v-102
q0 -24 8.5 -35.5t27.5 -11.5z" />
    <glyph glyph-name="ampersand" unicode="&#x26;" horiz-adv-x="436" 
d="M338 0q-9 0 -12 5l-226 357q-24 37 -38 77.5t-14 87.5q0 66 32 100t92 34q55 0 84 -31.5t29 -89.5q0 -33 -9 -65t-28.5 -65t-51.5 -70l-50 58q28 37 40.5 66.5t12.5 66.5q0 26 -7.5 39t-22.5 13q-16 0 -25 -13t-9 -41q0 -29 9.5 -59.5t27.5 -58.5l257 -398q3 -5 2 -9
t-7 -4h-86zM174 -6q-69 0 -108 42.5t-39 118.5q0 33 6 62t19 56.5t35 57t53 61.5l34 -73q-19 -30 -32.5 -55t-20 -49.5t-6.5 -54.5q0 -41 17.5 -64t48.5 -23q57 0 86 71.5t29 213.5q0 11 12 11h64q11 0 11 -11q0 -115 -25 -196.5t-72 -124.5t-112 -43z" />
    <glyph glyph-name="quotesingle" unicode="'" horiz-adv-x="161" 
d="M42 403q-11 0 -11 12v257q0 11 11 11h77q11 0 11 -11v-257q0 -12 -11 -12h-77z" />
    <glyph glyph-name="parenleft" unicode="(" horiz-adv-x="199" 
d="M118 -162q-30 34 -49.5 62t-28 62t-8.5 87v456q0 54 8.5 88t28 62t49.5 61q10 9 19 1l45 -45q4 -4 4 -8.5t-4 -8.5q-20 -26 -33 -47t-19 -46t-6 -63v-444q0 -38 6 -63.5t19 -46t33 -45.5q4 -5 4 -9.5t-4 -8.5l-45 -45q-9 -8 -19 1z" />
    <glyph glyph-name="parenright" unicode=")" horiz-adv-x="199" 
d="M62 -163l-45 45q-5 4 -4.5 8.5t4.5 9.5q21 25 34 45.5t18.5 46t5.5 63.5v444q0 38 -6 63t-19 46t-33 47q-4 4 -4.5 8.5t4.5 8.5l45 45q10 9 18 -1q32 -33 51 -61t27.5 -62t8.5 -88v-456q0 -53 -8.5 -87t-27.5 -62t-51 -62q-8 -10 -18 -1z" />
    <glyph glyph-name="asterisk" unicode="*" horiz-adv-x="315" 
d="M110 440l-43 34q-8 7 -1 13l48 49l-68 13q-5 1 -7 4.5t-1 7.5l17 51q4 10 14 5l62 -32l-6 76q-1 8 6 8h52q5 0 6 -2.5t1 -5.5l-6 -77l62 33q4 3 8.5 1.5t5.5 -7.5l17 -50q2 -4 -0.5 -7t-6.5 -4l-71 -15l49 -49q4 -2 3.5 -6.5t-3.5 -6.5l-45 -32q-7 -5 -12 4l-34 58
l-33 -60q-5 -10 -14 -3z" />
    <glyph glyph-name="plus" unicode="+" horiz-adv-x="420" 
d="M178 161q-11 0 -11 12v85h-86q-11 0 -11 10v65q0 11 11 11h86v86q0 11 11 11h64q11 0 11 -11v-86h85q12 0 12 -11v-65q0 -10 -12 -10h-85v-85q0 -12 -11 -12h-64z" />
    <glyph glyph-name="comma" unicode="," horiz-adv-x="215" 
d="M28 -139q-11 0 -9 11l45 248q2 11 11 11h100q6 0 8.5 -3.5t0.5 -9.5l-73 -249q-2 -8 -10 -8h-73z" />
    <glyph glyph-name="hyphen" unicode="-" horiz-adv-x="315" 
d="M46 225q-11 0 -11 11v59q0 11 11 11h224q11 0 11 -11v-59q0 -11 -11 -11h-224z" />
    <glyph glyph-name="period" unicode="." horiz-adv-x="202" 
d="M101 -6q-30 0 -48.5 15.5t-18.5 45.5v15q0 30 18.5 45.5t48.5 15.5q33 0 50 -15.5t17 -45.5v-15q0 -30 -17 -45.5t-50 -15.5z" />
    <glyph glyph-name="slash" unicode="/" horiz-adv-x="283" 
d="M15 0q-10 0 -6 11l176 635q1 9 10 9h74q9 0 6 -12l-176 -634q-2 -9 -9 -9h-75z" />
    <glyph glyph-name="zero" unicode="0" horiz-adv-x="398" 
d="M199 -6q-82 0 -124.5 49.5t-42.5 144.5v279q0 96 42.5 145t124.5 49t124.5 -49t42.5 -145v-279q0 -95 -42.5 -144.5t-124.5 -49.5zM199 87q33 0 48 25t15 78v274q0 54 -15 79t-48 25q-32 0 -47.5 -25t-15.5 -79v-274q0 -53 15.5 -78t47.5 -25z" />
    <glyph glyph-name="one" unicode="1" horiz-adv-x="331" 
d="M33 0q-11 0 -11 11v70q0 11 11 11h91l1 449l-88 -33q-5 -2 -8 0t-3 7v70q0 9 8 12l151 59q6 3 12 3h19q11 0 11 -11v-556h85q11 0 11 -11v-70q0 -11 -11 -11h-279z" />
    <glyph glyph-name="two" unicode="2" horiz-adv-x="363" 
d="M38 0q-11 0 -11 11v71q0 57 14.5 99t38 74t49.5 58t49.5 51.5t38 55.5t14.5 69v15q0 35 -11.5 50.5t-37.5 15.5q-29 0 -40 -22t-10 -65q1 -11 -11 -11h-74q-10 0 -11 11q-3 85 34.5 131.5t113.5 46.5q74 0 112.5 -39.5t38.5 -120.5q0 -57 -14.5 -97t-37 -69t-48 -54.5
t-47.5 -51t-36.5 -58.5t-14.5 -79h184q11 0 11 -11v-70q0 -11 -11 -11h-283z" />
    <glyph glyph-name="three" unicode="3" horiz-adv-x="372" 
d="M178 -6q-82 0 -118 47.5t-32 132.5q1 12 12 12h73q12 0 12 -12q0 -46 12 -67.5t44 -21.5q29 0 44 22t15 68v25q0 45 -15 68t-56 23h-27q-11 0 -11 11v65q0 11 11 11h26q31 0 47.5 23.5t16.5 70.5v23q0 41 -13 58t-39 17q-30 0 -42.5 -21t-11.5 -64q0 -12 -12 -12h-73
q-11 0 -12 12q-2 85 37.5 130.5t117.5 45.5q73 0 112 -41t39 -124q0 -60 -18 -98t-48 -56v-3q35 -16 54.5 -52.5t19.5 -100.5q0 -96 -42.5 -144t-122.5 -48z" />
    <glyph glyph-name="four" unicode="4" horiz-adv-x="395" 
d="M243 0q-11 0 -11 11v111h-212q-12 0 -12 12v15q0 5 1 10t2 8l157 480q3 8 11 8h82q12 0 8 -13l-134 -427h97l16 208q1 11 11 11h64q11 0 11 -11v-208h33q11 0 11 -11v-70q0 -12 -11 -12h-33v-111q0 -11 -11 -11h-80z" />
    <glyph glyph-name="five" unicode="5" horiz-adv-x="368" 
d="M173 -6q-55 0 -90 22t-49.5 62t-10.5 95q1 7 3.5 9t7.5 2h74q11 0 11 -11q-1 -40 10.5 -64t45.5 -24q33 0 48 26.5t15 81.5v36q0 35 -7 57.5t-22 33.5t-40 11q-28 0 -59 -9.5t-59 -23.5q-8 -4 -12.5 -1.5t-4.5 9.5l22 338q1 11 11 11h233q12 0 12 -11v-70q0 -11 -12 -11
h-157l-11 -162q22 8 41 12t41 4q66 0 97 -49.5t31 -158.5q0 -106 -40.5 -160.5t-128.5 -54.5z" />
    <glyph glyph-name="six" unicode="6" horiz-adv-x="395" 
d="M199 -6q-86 0 -126.5 47t-40.5 148v277q0 99 41.5 147t125.5 48q72 0 111.5 -38t39.5 -109q0 -11 -11 -11h-73q-12 0 -12 11q0 27 -14 41.5t-40 14.5q-34 0 -49 -22t-15 -75v-285q0 -56 13.5 -79.5t47.5 -23.5q35 0 50 28.5t15 95.5v18q0 56 -11.5 78.5t-42.5 22.5
q-18 0 -39.5 -9.5t-44.5 -30.5v81q30 24 61.5 35t60.5 11q62 0 91 -46t29 -146q0 -115 -41 -172t-126 -57z" />
    <glyph glyph-name="seven" unicode="7" horiz-adv-x="362" 
d="M86 0q-5 0 -7 4t-1 10l155 550h-117v-73q0 -11 -11 -11h-75q-11 0 -11 11v153q0 11 11 11h323q10 0 10 -10v-7q0 -8 -2 -14l-175 -615q-3 -9 -12 -9h-88z" />
    <glyph glyph-name="eight" unicode="8" horiz-adv-x="394" 
d="M197 -6q-172 0 -172 181q0 66 20 110.5t59 64.5q-31 22 -46.5 56.5t-15.5 85.5q0 82 40 125.5t115 43.5q76 0 115.5 -43.5t39.5 -125.5q0 -51 -15 -85.5t-47 -56.5q39 -20 59 -64.5t20 -110.5q0 -181 -172 -181zM197 81q37 0 53 23t16 74v21q0 57 -16.5 83t-52.5 26
q-35 0 -52 -26t-17 -83v-21q0 -51 16.5 -74t52.5 -23zM197 386q27 0 40 20.5t13 63.5v27q0 41 -12.5 60t-40.5 19q-27 0 -40 -19t-13 -60v-27q0 -43 13.5 -63.5t39.5 -20.5z" />
    <glyph glyph-name="nine" unicode="9" horiz-adv-x="395" 
d="M196 -6q-76 0 -114.5 41.5t-38.5 118.5q0 10 11 10h74q11 0 11 -10q0 -32 13 -50.5t42 -18.5q35 0 50 22t15 75v282q0 57 -14 81.5t-47 24.5q-35 0 -50 -25.5t-15 -96.5v-18q0 -57 12.5 -81t41.5 -24q19 0 40 10t44 30v-81q-30 -23 -60.5 -34.5t-60.5 -11.5
q-62 0 -91 47.5t-29 148.5q0 121 40 174t126 53t126 -48.5t40 -146.5v-277q0 -98 -41 -146.5t-125 -48.5z" />
    <glyph glyph-name="colon" unicode=":" horiz-adv-x="197" 
d="M99 340q-30 0 -47.5 15.5t-17.5 44.5v15q0 28 17.5 44t47.5 16q31 0 47.5 -16t16.5 -44v-15q0 -29 -16.5 -44.5t-47.5 -15.5zM99 -6q-30 0 -47.5 15.5t-17.5 44.5v15q0 29 17.5 44.5t47.5 15.5q31 0 47.5 -15.5t16.5 -44.5v-15q0 -29 -16.5 -44.5t-47.5 -15.5z" />
    <glyph glyph-name="semicolon" unicode=";" horiz-adv-x="211" 
d="M18 -139q-10 0 -8 11l44 248q2 11 11 11h100q6 0 8.5 -3.5t0.5 -9.5l-72 -249q-2 -8 -11 -8h-73zM109 340q-30 0 -47 15.5t-17 44.5v15q0 28 17 44t47 16q31 0 47.5 -16t16.5 -44v-15q0 -29 -16.5 -44.5t-47.5 -15.5z" />
    <glyph glyph-name="less" unicode="&#x3c;" horiz-adv-x="420" 
d="M336 122l-255 132q-7 4 -7 12v63q0 8 7 12l254 132q6 2 8.5 -0.5t2.5 -8.5v-84q0 -9 -6 -12l-167 -70l167 -71q6 -3 6 -12v-84q0 -5 -2.5 -8t-7.5 -1z" />
    <glyph glyph-name="equal" unicode="=" horiz-adv-x="420" 
d="M80 338q-11 0 -11 11v64q0 11 11 11h260q11 0 11 -11v-64q0 -11 -11 -11h-260zM80 179q-11 0 -11 11v64q0 11 11 11h260q11 0 11 -11v-64q0 -11 -11 -11h-260z" />
    <glyph glyph-name="greater" unicode="&#x3e;" horiz-adv-x="420" 
d="M85 122q-5 -2 -8 1t-3 8v84q0 9 7 12l166 71l-166 70q-7 3 -7 12v84q0 6 3 8.5t8 0.5l255 -132q6 -4 6 -12v-63q0 -8 -6 -12z" />
    <glyph glyph-name="question" unicode="?" horiz-adv-x="335" 
d="M109 208q-6 0 -6 10v41q0 34 10 60t26 47.5t31.5 43t25.5 47.5t10 60q0 32 -8.5 44.5t-32.5 12.5q-29 0 -38 -24t-6 -72q1 -12 -9 -12h-75q-6 0 -8 4t-2 10q-6 91 29.5 136t111.5 45q74 0 107.5 -34.5t33.5 -102.5q0 -43 -10 -76t-25.5 -58.5t-31 -47t-26 -43
t-10.5 -46.5v-35q0 -10 -9 -10h-88zM157 -6q-31 0 -47 14.5t-16 43.5v15q0 30 16 44.5t47 14.5q30 0 46 -14.5t16 -44.5v-15q0 -29 -16 -43.5t-46 -14.5z" />
    <glyph glyph-name="at" unicode="@" horiz-adv-x="625" 
d="M313 -185q-94 0 -158.5 43t-98 125t-33.5 198v142q0 116 33.5 198t99 125t159.5 43q92 0 156 -43t97 -122t33 -190v-59q0 -81 -19 -137.5t-54.5 -85.5t-81.5 -29q-37 0 -63 18.5t-38 50t-9 71.5l25 231q-6 4 -17.5 5.5t-24.5 1.5q-20 0 -29 -15.5t-13 -51.5l-17 -168
q-3 -31 3.5 -44.5t21.5 -13.5q17 0 38.5 19.5t39.5 45.5l12 -71q-36 -42 -65.5 -61t-61.5 -19q-41 0 -59.5 36.5t-11.5 97.5l19 184q8 71 36.5 105.5t82.5 34.5q33 0 62.5 -8.5t58.5 -12.5q8 -1 8 -13l-28 -261q-4 -43 6 -62t31 -19q20 0 32.5 17.5t18.5 55.5t6 98v57
q0 89 -21 150t-64.5 92t-109.5 31q-68 0 -112 -32t-66 -95t-22 -158v-136q0 -94 22 -157.5t66.5 -95.5t111.5 -32h91q12 0 12 -11v-62q0 -11 -12 -11h-93z" />
    <glyph glyph-name="A" unicode="A" horiz-adv-x="401" 
d="M8 0q-10 0 -8 12l133 634q2 9 11 9h113q9 0 11 -9l133 -634q2 -12 -7 -12h-95q-8 0 -10 8l-67 403q-6 35 -11.5 69.5t-9.5 68.5h-2q-5 -34 -9.5 -68.5t-10.5 -69.5l-69 -403q-1 -8 -9 -8h-93zM117 144l16 89h132l17 -89h-165z" />
    <glyph glyph-name="B" unicode="B" horiz-adv-x="400" 
d="M54 0q-11 0 -11 11v633q0 11 11 11h128q88 0 131 -40.5t43 -122.5q0 -52 -19 -88t-58 -57v-2q47 -15 71.5 -55t24.5 -102q0 -94 -45.5 -141t-138.5 -47h-137zM148 90h42q41 0 61.5 26t20.5 79q0 50 -20.5 75t-60.5 25h-43v-205zM148 378h36q34 0 51.5 25t17.5 73
q0 47 -17 68t-54 21h-34v-187z" />
    <glyph glyph-name="C" unicode="C" horiz-adv-x="428" 
d="M217 -6q-89 0 -135.5 52.5t-46.5 163.5v235q0 108 46.5 162t135.5 54q62 0 104 -28t60.5 -79t10.5 -120q-2 -10 -9 -10h-87q-10 0 -8 11q5 64 -12 97t-60 33q-39 0 -58 -29t-19 -95v-225q0 -68 19.5 -97t58.5 -29q45 0 60 35.5t12 94.5q-1 12 8 12h85q9 0 11 -12
q8 -105 -36.5 -165.5t-139.5 -60.5z" />
    <glyph glyph-name="D" unicode="D" horiz-adv-x="432" 
d="M54 0q-11 0 -11 11v633q0 11 11 11h129q109 0 163.5 -67t54.5 -205v-89q0 -149 -53.5 -221.5t-160.5 -72.5h-133zM148 95h35q61 0 87.5 47.5t26.5 148.5v92q0 91 -28 134t-89 43h-32v-465z" />
    <glyph glyph-name="E" unicode="E" horiz-adv-x="362" 
d="M53 0q-10 0 -10 11v633q0 11 9 11h266q9 0 9 -11v-73q0 -11 -9 -11h-170v-182h155q9 0 9 -11v-69q0 -11 -9 -11h-155v-192h170q9 0 9 -11v-73q0 -11 -9 -11h-265z" />
    <glyph glyph-name="F" unicode="F" horiz-adv-x="354" 
d="M52 0q-9 0 -9 11v633q0 11 9 11h266q9 0 9 -11v-73q0 -11 -9 -11h-170v-192h147q9 0 9 -11v-71q0 -10 -9 -10h-147v-265q0 -11 -8 -11h-88z" />
    <glyph glyph-name="G" unicode="G" horiz-adv-x="438" 
d="M188 -6q-75 0 -114 51t-39 155v246q0 105 46.5 160t134.5 55q90 0 136 -57t39 -155q-1 -11 -9 -11l-87 1q-9 0 -8 10q5 55 -13 85.5t-57 30.5q-40 0 -59 -29t-19 -91v-237q0 -64 16.5 -91t57.5 -27q38 0 58 30.5t20 92.5v45h-69q-9 0 -9 11v59q0 11 9 11h162q9 0 9 -11
v-183q0 -48 1.5 -78.5t4.5 -54.5q2 -12 -8 -12h-68q-9 0 -10 9q-2 12 -3.5 28.5t-1.5 40.5h-2q-15 -39 -43 -61.5t-75 -22.5z" />
    <glyph glyph-name="H" unicode="H" horiz-adv-x="444" 
d="M53 0q-10 0 -10 11v633q0 11 10 11h85q10 0 10 -11v-262h149v262q0 11 9 11h85q10 0 10 -11v-633q0 -11 -10 -11h-85q-9 0 -9 11v277h-149v-277q0 -11 -10 -11h-85z" />
    <glyph glyph-name="I" unicode="I" horiz-adv-x="191" 
d="M52 0q-9 0 -9 11v633q0 11 9 11h87q9 0 9 -11v-633q0 -11 -9 -11h-87z" />
    <glyph glyph-name="J" unicode="J" horiz-adv-x="191" 
d="M23 -149q-9 -4 -12 7l-22 71q-2 6 -0.5 10t5.5 5q17 7 28 20.5t16 40t5 71.5v568q0 11 9 11h87q9 0 9 -11v-564q0 -73 -14 -120t-42 -73t-69 -36z" />
    <glyph glyph-name="K" unicode="K" horiz-adv-x="412" 
d="M52 0q-9 0 -9 11v633q0 11 9 11h87q9 0 9 -11v-164q0 -20 -1 -45.5t-1.5 -50t-2.5 -45.5h2q11 31 23.5 66.5t29.5 73.5l82 170q2 6 10 6h97q12 0 5 -13l-125 -257l142 -372q6 -13 -6 -13h-103q-8 0 -10 7l-96 279l-46 -87v-188q0 -11 -9 -11h-87z" />
    <glyph glyph-name="L" unicode="L" horiz-adv-x="330" 
d="M53 0q-10 0 -10 11v633q0 11 10 11h85q10 0 10 -11v-549h159q10 0 10 -11v-73q0 -11 -10 -11h-254z" />
    <glyph glyph-name="M" unicode="M" horiz-adv-x="531" 
d="M45 0q-9 0 -9 11l8 633q0 11 10 11h109q10 0 11 -8l91 -351l92 351q1 8 11 8h109q9 0 9 -11l9 -633q0 -11 -9 -11h-85q-9 0 -9 11l-3 324q-1 44 0.5 83.5t3.5 72.5h-1q-7 -31 -16 -62.5t-19 -62.5l-80 -274q-2 -8 -10 -8h-4q-7 0 -9 8l-81 274q-10 31 -18.5 62.5
t-15.5 62.5h-2q3 -33 4.5 -72.5t0.5 -83.5l-3 -324q0 -11 -9 -11h-85z" />
    <glyph glyph-name="N" unicode="N" horiz-adv-x="445" 
d="M52 0q-9 0 -9 11v633q0 11 9 11h115q8 0 10 -8l91 -330q7 -25 14.5 -56t15 -62.5t11.5 -55.5h2q-1 20 -2.5 46.5t-3 55t-2 55t-0.5 46.5v299q0 10 9 10h81q9 0 9 -10v-634q0 -11 -9 -11h-114q-7 0 -10 7l-91 323q-13 47 -23 93.5t-18 86.5h-2q2 -29 3.5 -68t2.5 -77.5
t1 -67.5v-286q0 -11 -8 -11h-82z" />
    <glyph glyph-name="O" unicode="O" horiz-adv-x="434" 
d="M217 -6q-89 0 -135.5 52t-46.5 155v252q0 104 46.5 156t135.5 52q88 0 135 -52t47 -156v-252q0 -103 -47 -155t-135 -52zM217 90q39 0 58.5 27t19.5 89v242q0 63 -19.5 90t-58.5 27t-58.5 -27t-19.5 -90v-242q0 -62 19.5 -89t58.5 -27z" />
    <glyph glyph-name="P" unicode="P" horiz-adv-x="380" 
d="M52 0q-9 0 -9 11v633q0 11 9 11h123q94 0 138.5 -51t44.5 -160q0 -101 -45.5 -155t-133.5 -54h-31v-224q0 -11 -9 -11h-87zM148 330h27q41 0 59.5 28t18.5 85q0 63 -18.5 90t-57.5 27h-29v-230z" />
    <glyph glyph-name="Q" unicode="Q" horiz-adv-x="434" 
d="M302 -182q-35 0 -59.5 20.5t-36.5 67t-11 123.5q0 5 3.5 8t6.5 3l73 2q7 0 7 -12q0 -51 4.5 -78.5t13 -37.5t19.5 -10q8 0 14 1.5t11 2.5q9 3 9 -9v-58q0 -11 -8 -14q-6 -3 -17.5 -6t-28.5 -3zM217 -6q-89 0 -135.5 52t-46.5 155v252q0 104 46.5 156t135.5 52
q88 0 135 -52t47 -156v-252q0 -103 -47 -155t-135 -52zM217 90q39 0 58.5 27t19.5 89v242q0 63 -19.5 90t-58.5 27t-58.5 -27t-19.5 -90v-242q0 -62 19.5 -89t58.5 -27z" />
    <glyph glyph-name="R" unicode="R" horiz-adv-x="410" 
d="M52 0q-9 0 -9 11v633q0 11 9 11h136q95 0 139 -45.5t44 -143.5q0 -73 -20.5 -116.5t-58.5 -61.5l-1 -1l104 -274q3 -13 -8 -13h-94q-7 0 -10 7l-90 260h-45v-256q0 -11 -9 -11h-87zM148 356h41q41 0 59 26t18 79q0 52 -19 75.5t-60 23.5h-39v-204z" />
    <glyph glyph-name="S" unicode="S" horiz-adv-x="373" 
d="M182 -6q-60 0 -96.5 24t-51 67t-9.5 101q1 12 9 12h85q9 0 8 -11q-5 -49 10 -74.5t48 -25.5q30 0 44.5 18t14.5 57q0 34 -10.5 57.5t-34.5 41.5l-84 66q-45 35 -67 75.5t-21 100.5q1 75 40 116.5t114 41.5q86 0 126 -49t32 -137q-1 -14 -9 -14h-86q-10 0 -8 14
q4 42 -9 67.5t-42 25.5q-25 0 -39 -16t-15 -50q0 -33 12.5 -55t36.5 -40l81 -63q33 -24 52 -49.5t27.5 -57t7.5 -74.5q0 -80 -40 -124.5t-126 -44.5z" />
    <glyph glyph-name="T" unicode="T" horiz-adv-x="362" 
d="M138 0q-9 0 -9 11v549h-104q-10 0 -10 11v73q0 11 10 11h313q9 0 9 -11v-73q0 -11 -9 -11h-104v-549q0 -11 -10 -11h-86z" />
    <glyph glyph-name="U" unicode="U" horiz-adv-x="435" 
d="M217 -6q-90 0 -133.5 54.5t-43.5 164.5v432q0 10 9 10h87q9 0 9 -10v-429q0 -68 17 -97t55 -29q39 0 56 28.5t17 97.5v429q0 10 9 10h87q9 0 9 -10v-432q0 -110 -44.5 -164.5t-133.5 -54.5z" />
    <glyph glyph-name="V" unicode="V" horiz-adv-x="412" 
d="M146 0q-7 0 -9 8l-129 635q-2 12 8 12h94q9 0 10 -8l66 -399q6 -34 10.5 -69.5t9.5 -73.5h2q3 38 8 73.5t11 69.5l65 398q1 9 10 9h94q9 0 7 -12l-127 -634q-2 -9 -9 -9h-121z" />
    <glyph glyph-name="W" unicode="W" horiz-adv-x="582" 
d="M125 0q-8 0 -9 9l-106 634q-2 12 7 12h87q9 0 11 -9l46 -307q5 -37 8.5 -73.5t6 -74t3.5 -75.5h2q5 34 10 68.5t11 67.5l47 259l-22 118q-3 13 7 13h85q9 0 10 -9l57 -377q5 -35 9.5 -70t7.5 -70h2q2 39 4 75t5.5 73.5t8.5 77.5l45 304q1 9 9 9h88q9 0 7 -12l-106 -634
q-1 -9 -9 -9h-99q-10 0 -11 9l-35 229q-5 31 -9 62.5t-8 62.5h-2l-10 -62t-10 -63l-41 -229q-1 -5 -3.5 -7t-5.5 -2h-98z" />
    <glyph glyph-name="X" unicode="X" horiz-adv-x="390" 
d="M9 0q-12 0 -7 13l133 324l-125 305q-5 13 6 13h102q6 0 9 -6l40 -126q7 -25 15 -51t14 -52h2q6 26 14 52l16 52l38 124q2 7 9 7h101q11 0 5 -13l-124 -306l131 -323q6 -13 -6 -13h-102q-7 0 -9 7l-45 139q-8 27 -16 53t-15 52h-1q-7 -26 -14.5 -52t-15.5 -53l-46 -139
q-3 -7 -10 -7h-99z" />
    <glyph glyph-name="Y" unicode="Y" horiz-adv-x="392" 
d="M153 0q-9 0 -9 11v214l-138 417q-4 13 7 13h97q8 0 9 -8l50 -198q7 -28 14 -57.5t13 -58.5h1q7 29 13.5 58.5t13.5 58.5l50 197q1 8 9 8h95q11 0 7 -13l-137 -416v-215q0 -11 -8 -11h-87z" />
    <glyph glyph-name="Z" unicode="Z" horiz-adv-x="366" 
d="M16 0q-8 0 -8 10v4q0 7 3 13l163 424q11 28 23 56t22 52v2q-19 -1 -39.5 -1h-39.5h-105q-9 0 -9 11v73q0 11 9 11h312q9 0 9 -10v-3q0 -4 -0.5 -7.5t-2.5 -6.5l-170 -437q-10 -24 -20.5 -48.5t-20.5 -46.5v-2q21 1 39.5 1h37.5h111q9 0 9 -11v-73q0 -11 -9 -11h-314z" />
    <glyph glyph-name="bracketleft" unicode="[" horiz-adv-x="187" 
d="M44 -160q-12 0 -12 11v852q0 11 12 11h135q11 0 11 -11v-60q0 -11 -11 -11h-56v-709h56q11 0 11 -12v-60q0 -11 -11 -11h-135z" />
    <glyph glyph-name="backslash" unicode="\" horiz-adv-x="284" 
d="M195 0q-9 0 -10 9l-176 634q-4 12 7 12h72q10 0 12 -9l175 -634q4 -12 -6 -12h-74z" />
    <glyph glyph-name="bracketright" unicode="]" horiz-adv-x="187" 
d="M8 -160q-11 0 -11 11v60q0 12 11 12h56v709h-56q-11 0 -11 11v60q0 11 11 11h136q11 0 11 -11v-852q0 -11 -11 -11h-136z" />
    <glyph glyph-name="asciicircum" unicode="^" horiz-adv-x="348" 
d="M31 350q-11 0 -7 12l108 313q4 8 11 8h63q7 0 11 -8l107 -312q5 -13 -7 -13h-76q-9 0 -10 8l-57 222l-57 -222q-1 -8 -10 -8h-76z" />
    <glyph glyph-name="underscore" unicode="_" horiz-adv-x="346" 
d="M22 -140q-12 0 -12 12v58q0 11 12 11h302q11 0 11 -11v-58q0 -12 -11 -12h-302z" />
    <glyph glyph-name="grave" unicode="`" horiz-adv-x="220" 
d="M125 557q-10 0 -15 8l-78 122q-3 6 -1.5 9.5t6.5 3.5h74q8 0 12 -8l65 -124q3 -4 1.5 -7.5t-7.5 -3.5h-57z" />
    <glyph glyph-name="a" unicode="a" horiz-adv-x="346" 
d="M233 0q-9 0 -10 10q-2 17 -4 42.5t-3 45.5l-9 12v248q0 32 -7.5 44t-29.5 12t-30.5 -13.5t-5.5 -45.5q1 -11 -10 -11h-72q-11 0 -12 14q-5 66 29 102.5t104 36.5q72 0 104 -32t32 -108v-232q0 -43 1 -70t2 -43q1 -12 -7 -12h-72zM113 -6q-42 0 -65 35t-23 97q0 69 31 109
t103 49l56 7v-65l-36 -5q-28 -3 -42 -23.5t-14 -58.5q0 -29 8 -45t23 -16t30 12.5t37 42.5l8 -64q-33 -41 -58 -58t-58 -17z" />
    <glyph glyph-name="b" unicode="b" horiz-adv-x="364" 
d="M192 -6q-44 0 -80 7.5t-75 11.5v659q0 11 9 11h84q9 0 9 -11v-584q11 -1 22 -3.5t21 -2.5q25 0 36 17.5t11 60.5v199q0 25 -7.5 36t-23.5 11q-18 0 -35.5 -13.5t-33.5 -35.5l-6 73q32 34 61 50.5t58 16.5q47 0 68 -29t21 -93v-218q0 -86 -34 -124.5t-105 -38.5z" />
    <glyph glyph-name="c" unicode="c" horiz-adv-x="353" 
d="M183 -6q-76 0 -114 43t-38 130v161q0 85 38 127t113 42q47 0 80 -20t48.5 -57t11.5 -86q-1 -14 -11 -14h-73q-5 0 -7.5 3t-1.5 8q2 38 -9 56.5t-37 18.5t-38 -18t-12 -62v-158q0 -45 11.5 -63.5t38.5 -18.5q25 0 35.5 17.5t9.5 56.5q0 13 9 13h75q10 0 10 -11
q1 -84 -33 -126t-106 -42z" />
    <glyph glyph-name="d" unicode="d" horiz-adv-x="364" 
d="M124 -6q-46 0 -68.5 31t-22.5 98v230q0 72 27.5 108t80.5 36q28 0 52.5 -7t43.5 -18v-80q-36 18 -59 18q-21 0 -32 -16t-11 -50v-211q0 -26 8 -36.5t25 -10.5q16 0 32 11.5t34 36.5l12 -60q-24 -37 -55 -58.5t-67 -21.5zM251 0q-8 0 -10 10q-2 18 -3.5 45t-2.5 43l-10 15
v559q0 11 10 11h83q9 0 9 -11v-547q0 -38 1 -66t2 -46q1 -13 -8 -13h-71z" />
    <glyph glyph-name="e" unicode="e" horiz-adv-x="359" 
d="M182 -6q-76 0 -113.5 42t-37.5 130v163q0 85 38 126.5t110 41.5q75 0 112.5 -42t37.5 -129v-94q0 -10 -10 -10h-187v-61q0 -44 11.5 -63t38.5 -19q24 0 34.5 13.5t9.5 42.5q-1 11 8 11h79q9 0 9 -10q2 -70 -33.5 -106t-106.5 -36zM132 293h96v48q0 38 -11.5 55t-36.5 17
q-24 0 -36 -17.5t-12 -54.5v-48z" />
    <glyph glyph-name="f" unicode="f" horiz-adv-x="266" 
d="M77 0q-9 0 -9 11v389h-43q-11 0 -11 11v70q0 10 11 10h43v55q0 71 27.5 107t85.5 36q27 0 49.5 -3.5t32.5 -8.5q8 -4 8 -13v-64q0 -5 -3.5 -7.5t-8.5 0.5q-10 3 -22 6t-26 3q-22 0 -31.5 -14t-9.5 -45v-52h68q10 0 10 -10v-70q0 -11 -10 -11h-68v-389q0 -11 -10 -11h-83z
" />
    <glyph glyph-name="g" unicode="g" horiz-adv-x="355" 
d="M172 -191q-83 0 -121 29t-38 87q0 42 18.5 71t55.5 48l69 -24q-19 -11 -30.5 -29.5t-11.5 -42.5q0 -28 15 -41t48 -13q39 -1 54 13.5t15 44.5q0 28 -11 41.5t-39 16.5l-78 7q-40 4 -61.5 28t-21.5 61q0 25 10 43t25.5 31t31.5 22l57 -31q-17 -6 -26.5 -16t-9.5 -23
t7.5 -21t27.5 -10l75 -9q58 -6 84 -39t26 -103q0 -72 -40 -106.5t-131 -34.5zM180 159q-73 0 -105 40.5t-32 130.5q0 88 32 127.5t105 39.5q74 0 105 -39.5t31 -127.5q0 -90 -31 -130.5t-105 -40.5zM180 242q25 0 32.5 18t7.5 68t-7.5 68t-32.5 18q-24 0 -32.5 -18t-8.5 -68
t8.5 -68t32.5 -18zM275 451l-69 29q1 40 3.5 73t5.5 56q1 11 8 11h63q11 0 8 -11q-6 -38 -11.5 -75t-7.5 -83z" />
    <glyph glyph-name="h" unicode="h" horiz-adv-x="371" 
d="M241 0q-9 0 -9 11v346q0 26 -8 37.5t-25 11.5q-15 0 -31.5 -11.5t-33.5 -32.5l-14 57q27 35 58.5 56.5t68.5 21.5q44 0 65.5 -30.5t21.5 -95.5v-360q0 -11 -9 -11h-84zM46 0q-9 0 -9 11v661q0 11 9 11h84q9 0 9 -11v-661q0 -11 -9 -11h-84z" />
    <glyph glyph-name="i" unicode="i" horiz-adv-x="177" 
d="M46 0q-9 0 -9 11v470q0 10 9 10h84q9 0 9 -10v-470q0 -11 -9 -11h-84zM89 565q-29 0 -45.5 14.5t-16.5 41.5v14q0 28 16.5 42.5t45.5 14.5q30 0 45.5 -14.5t15.5 -42.5v-14q0 -27 -15.5 -41.5t-45.5 -14.5z" />
    <glyph glyph-name="j" unicode="j" horiz-adv-x="168" 
d="M49 -188q-3 -1 -6 -1t-5 4l-49 59q-8 9 0 15q27 25 35.5 66t8.5 112v414q0 10 9 10h84q9 0 9 -10v-417q0 -64 -7 -111t-25.5 -81t-53.5 -60zM86 565q-29 0 -45.5 14.5t-16.5 41.5v14q0 28 16.5 42.5t45.5 14.5q30 0 45.5 -14.5t15.5 -42.5v-14q0 -27 -15.5 -41.5
t-45.5 -14.5z" />
    <glyph glyph-name="k" unicode="k" horiz-adv-x="358" 
d="M46 0q-9 0 -9 11v661q0 11 9 11h84q9 0 9 -11v-257v-42.5t-1 -44.5t-2 -42h1q10 26 21 49.5t23 48.5l53 102q3 5 10 5h93q11 0 6 -12l-105 -186l113 -280q5 -13 -6 -13h-95q-8 0 -10 7l-72 196l-29 -52v-140q0 -11 -8 -11h-85z" />
    <glyph glyph-name="l" unicode="l" horiz-adv-x="177" 
d="M46 0q-9 0 -9 11v661q0 11 9 11h84q9 0 9 -11v-661q0 -11 -9 -11h-84z" />
    <glyph glyph-name="m" unicode="m" horiz-adv-x="550" 
d="M46 0q-9 0 -9 11v356q0 38 -0.5 66t-2.5 46q-1 12 8 12h73q8 0 9 -9q1 -12 2 -25.5t2 -26.5q26 30 52.5 48.5t62.5 18.5q29 0 48.5 -15t27.5 -47q24 28 50.5 45t58.5 17q42 0 63 -29.5t21 -89.5v-367q0 -11 -9 -11h-84q-9 0 -9 11v353q0 22 -6.5 32t-21.5 10
q-13 0 -27 -9.5t-29 -28.5v-357q0 -11 -9 -11h-84q-9 0 -9 11v353q0 22 -6.5 32t-21.5 10q-14 0 -28 -9.5t-29 -28.5v-357q0 -11 -9 -11h-84z" />
    <glyph glyph-name="n" unicode="n" horiz-adv-x="371" 
d="M241 0q-9 0 -9 11v346q0 26 -8 37.5t-25 11.5q-15 0 -31.5 -11.5t-33.5 -32.5l-14 57q27 35 58.5 56.5t68.5 21.5q44 0 65.5 -30.5t21.5 -95.5v-360q0 -11 -10 -11h-83zM47 0q-10 0 -10 11v356q0 38 -0.5 66t-2.5 46q-1 12 8 12h71q9 0 11 -10q2 -17 4 -43.5t2 -43.5
l9 -19v-364q0 -11 -9 -11h-83z" />
    <glyph glyph-name="o" unicode="o" horiz-adv-x="364" 
d="M182 -6q-74 0 -112.5 42t-38.5 126v168q0 83 38.5 125t112.5 42q75 0 113 -42t38 -125v-168q0 -84 -38 -126t-113 -42zM182 86q26 0 37.5 17.5t11.5 59.5v165q0 42 -11.5 60t-37.5 18t-37.5 -18t-11.5 -60v-165q0 -42 12 -59.5t37 -17.5z" />
    <glyph glyph-name="p" unicode="p" horiz-adv-x="363" 
d="M226 -6q-25 0 -51.5 7.5t-47.5 18.5v82q14 -7 29.5 -13.5t31.5 -6.5q20 0 30 17t10 56v202q0 27 -7 38t-23 11q-18 0 -35 -14t-33 -35l-14 62q29 35 59 56.5t69 21.5q43 0 64.5 -29.5t21.5 -95.5v-219q0 -81 -26 -120t-78 -39zM46 -185q-9 0 -9 11v546q0 34 -0.5 60.5
t-2.5 47.5q-1 11 8 11h71q10 0 11 -9q2 -12 3 -32.5t2 -40.5l10 -29v-554q0 -11 -9 -11h-84z" />
    <glyph glyph-name="q" unicode="q" horiz-adv-x="364" 
d="M234 -185q-9 0 -9 11v577q-11 3 -22.5 5t-21.5 2q-24 0 -35 -17.5t-11 -53.5v-208q0 -24 7.5 -34.5t24.5 -10.5t35.5 14t33.5 38l4 -78q-26 -31 -56 -48.5t-62 -17.5q-46 0 -67.5 29.5t-21.5 92.5v225q0 83 34.5 119.5t101.5 36.5q44 0 81.5 -7.5t76.5 -10.5v-653
q0 -11 -9 -11h-84z" />
    <glyph glyph-name="r" unicode="r" horiz-adv-x="270" 
d="M46 0q-9 0 -9 11v356q0 38 -0.5 66t-2.5 46q-1 12 8 12h73q8 0 9 -9q2 -18 4 -44.5t2 -43.5l9 -19v-364q0 -11 -9 -11h-84zM131 332l-7 90q12 18 28 35t35 28.5t40 11.5q11 0 18 -1q5 -2 6.5 -5.5t1.5 -8.5q0 -22 -1 -44t-3 -44q-1 -10 -8 -9q-5 2 -11 2.5t-13 0.5
q-21 0 -44.5 -15.5t-41.5 -40.5z" />
    <glyph glyph-name="s" unicode="s" horiz-adv-x="326" 
d="M160 -6q-74 0 -105.5 38.5t-25.5 114.5q1 10 9 10h78q9 0 8 -10q-1 -39 6.5 -55.5t30.5 -16.5q39 0 39 51q0 24 -8.5 39t-28.5 30l-71 54q-31 23 -46.5 53t-15.5 72q0 60 33.5 91.5t99.5 31.5q69 0 102 -35t29 -99q0 -11 -10 -11h-75q-4 0 -7 2.5t-2 10.5q2 25 -6.5 38.5
t-28.5 13.5q-34 0 -34 -40q0 -21 8 -35t26 -29l69 -52q35 -27 50.5 -56t15.5 -74q0 -68 -35 -102.5t-105 -34.5z" />
    <glyph glyph-name="t" unicode="t" horiz-adv-x="285" 
d="M186 -6q-64 0 -91 35.5t-27 118.5v252h-44q-10 0 -10 11v70q0 10 10 10h47l11 121q1 9 9 9h70q9 0 9 -10v-120h87q9 0 9 -10v-70q0 -11 -9 -11h-87v-246q0 -37 9 -53t32 -16q12 0 23 2.5t23 7.5q10 4 10 -7v-70q0 -10 -8 -12q-14 -6 -33 -9t-40 -3z" />
    <glyph glyph-name="u" unicode="u" horiz-adv-x="365" 
d="M125 -6q-47 0 -67.5 30.5t-20.5 96.5v360q0 10 10 10h83q9 0 9 -10v-346q0 -29 7 -39t22 -10q18 0 35.5 13.5t33.5 36.5l14 -58q-25 -37 -58 -60.5t-68 -23.5zM252 0q-8 0 -10 10q-2 18 -3.5 45t-2.5 43l-10 19v364q0 10 10 10h83q9 0 9 -10v-356q0 -38 1 -66t2 -46
q1 -13 -8 -13h-71z" />
    <glyph glyph-name="v" unicode="v" horiz-adv-x="355" 
d="M125 0q-8 0 -10 9l-99 471q-3 11 7 11h91q9 0 10 -8l37 -253q4 -32 8 -61.5t7 -61.5h2q3 32 6.5 62t8.5 62l39 252q2 8 10 8h91q9 0 6 -12l-99 -470q-2 -9 -11 -9h-104z" />
    <glyph glyph-name="w" unicode="w" horiz-adv-x="510" 
d="M115 0q-9 0 -11 9l-87 471q-2 11 7 11h88q9 0 10 -10l34 -240q4 -33 7 -66.5t6 -66.5h3q4 33 8.5 66t9.5 66l22 131l-15 98q-1 13 7 13h78q9 0 10 -9l31 -234q5 -33 8 -66t6 -65h2q4 33 7.5 67t7.5 67l33 239q2 10 9 10h89q9 0 7 -11l-87 -471q-2 -9 -11 -9h-97
q-9 0 -11 8l-16 100q-4 29 -7.5 61.5t-6.5 78.5h-4q-3 -46 -7 -78.5t-8 -62.5l-14 -98q-1 -9 -10 -9h-98z" />
    <glyph glyph-name="x" unicode="x" horiz-adv-x="357" 
d="M19 0q-6 0 -8 4t1 9l104 240l-97 226q-2 6 -0.5 9t6.5 3h92q10 0 12 -7l26 -83q6 -18 11.5 -40t11.5 -52h1q6 30 11.5 52t11.5 40l25 84q3 6 11 6h93q5 0 6.5 -3t-0.5 -9l-98 -224l106 -242q2 -5 0.5 -9t-6.5 -4h-94q-9 0 -11 7l-30 93q-6 20 -12.5 43t-12.5 50h-2
q-6 -27 -12 -50.5t-12 -42.5l-32 -93q-1 -7 -11 -7h-91z" />
    <glyph glyph-name="y" unicode="y" horiz-adv-x="352" 
d="M95 -185q-10 0 -7 13l40 174l-114 477q-3 12 7 12h91q10 0 11 -9l34 -201q5 -32 9.5 -69t8.5 -69h3q4 32 8.5 69.5t9.5 68.5l35 202q1 8 10 8h89q5 0 7 -3t0 -9l-151 -655q-2 -9 -10 -9h-81z" />
    <glyph glyph-name="z" unicode="z" horiz-adv-x="326" 
d="M25 0q-9 0 -9 9v2q0 11 4 16l121 286q9 22 18 43.5t18 43.5v1q-17 0 -30 -0.5t-26 -0.5h-79q-9 0 -9 11v70q0 10 9 10h259q9 0 9 -7v-3q0 -9 -5 -21l-119 -282q-9 -21 -18.5 -42.5t-19.5 -43.5v-1q18 1 29.5 1h26.5h84q10 0 10 -11v-70q0 -11 -10 -11h-263z" />
    <glyph glyph-name="braceleft" unicode="{" horiz-adv-x="206" 
d="M195 -161q-49 0 -79.5 14t-44.5 50t-14 103v174q0 28 -6 41.5t-22 13.5h-11q-11 0 -11 11v62q0 12 11 12h11q16 0 22 13.5t6 41.5v174q0 68 14 103.5t44.5 49.5t79.5 14q11 0 11 -11v-60q0 -11 -11 -11q-19 0 -29.5 -6.5t-14 -22.5t-3.5 -46v-172q0 -42 -11.5 -71
t-37.5 -39q26 -10 37.5 -39t11.5 -70v-172q0 -29 4 -45.5t14 -23t29 -6.5q11 0 11 -11v-60q0 -11 -11 -11z" />
    <glyph glyph-name="bar" unicode="|" horiz-adv-x="191" 
d="M60 -185q-11 0 -11 11v993q0 11 11 11h71q11 0 11 -11v-993q0 -11 -11 -11h-71z" />
    <glyph glyph-name="braceright" unicode="}" horiz-adv-x="206" 
d="M11 -161q-11 0 -11 11v60q0 11 11 11q19 0 29.5 6.5t14.5 23t4 45.5v172q0 41 11 70t37 39q-26 10 -37 39t-11 71v172q0 30 -4 46t-14.5 22.5t-29.5 6.5q-11 0 -11 11v60q0 11 11 11q49 0 79.5 -14t44.5 -49.5t14 -103.5v-174q0 -28 6.5 -41.5t21.5 -13.5h11q11 0 11 -12
v-62q0 -11 -11 -11h-11q-15 0 -21.5 -13.5t-6.5 -41.5v-174q0 -67 -14 -103t-44.5 -50t-79.5 -14z" />
    <glyph glyph-name="asciitilde" unicode="~" horiz-adv-x="420" 
d="M267 242q-25 0 -41.5 7.5l-33 15t-41.5 7.5q-23 0 -43 -7.5t-30 -13.5q-8 -4 -8 7v66q0 8 5 10q9 6 29 15t48 9q27 0 43.5 -7t32.5 -15t40 -8q23 0 43 9t31 14q8 2 8 -7v-65q0 -9 -5 -12q-9 -7 -28.5 -16t-49.5 -9z" />
    <glyph glyph-name="uni00A0" unicode="&#xa0;" horiz-adv-x="125" 
 />
    <glyph glyph-name="exclamdown" unicode="&#xa1;" horiz-adv-x="196" 
d="M59 283h86q9 0 9 -10l8 -426q0 -11 -9 -11h-102q-9 0 -9 11l9 426q0 10 8 10zM102 497q31 0 47 -14t16 -44v-15q0 -30 -16 -44t-47 -14q-30 0 -46.5 14t-16.5 44v15q0 30 16.5 44t46.5 14z" />
    <glyph glyph-name="cent" unicode="&#xa2;" horiz-adv-x="436" 
d="M175 533v87q0 9 9 9h69q10 0 10 -9v-86zM184 -38q-9 0 -9 10v85l88 -1v-84q0 -10 -10 -10h-69zM223 44q-76 0 -113.5 43t-37.5 130v161q0 85 38 127t113 42q47 0 80 -20t48 -57t11 -86q-1 -14 -10 -14h-74q-4 0 -6.5 3t-2.5 8q2 38 -9 56.5t-36 18.5q-27 0 -38.5 -18
t-11.5 -62v-158q0 -45 11.5 -63.5t38.5 -18.5q24 0 35 17.5t9 56.5q0 13 10 13h74q10 0 10 -11q1 -84 -33 -126t-106 -42z" />
    <glyph glyph-name="sterling" unicode="&#xa3;" horiz-adv-x="436" 
d="M81 0q-11 0 -11 11v55q0 7 4 14q12 24 18.5 51t6.5 58v302q0 83 33.5 126.5t103.5 43.5q50 0 81 -18.5t44.5 -57.5t12.5 -100q-1 -11 -11 -11h-70q-12 0 -11 11q0 27 -2.5 46t-11 29.5t-26.5 10.5q-21 0 -31.5 -16t-10.5 -66v-286q0 -42 -6 -67t-18 -44h194q10 0 10 -11
v-70q0 -11 -10 -11h-289zM64 292q-11 0 -11 12v61q0 12 11 12h220q11 0 11 -12v-61q0 -12 -11 -12h-220z" />
    <glyph glyph-name="currency" unicode="&#xa4;" horiz-adv-x="436" 
d="M108 109q-6 -6 -12 0l-43 48q-5 6 1 13l47 51q-6 19 -9.5 42.5t-3.5 50.5t3.5 50.5t9.5 42.5l-47 51q-6 7 -1 13l43 47q6 7 12 1l40 -43q28 24 70 24t70 -24l39 43q6 7 12 0l43 -48q5 -6 0 -13l-47 -51q6 -19 9 -42.5t3 -50.5t-3 -50.5t-9 -42.5l47 -51q5 -7 0 -13
l-43 -48q-5 -6 -12 0l-39 43q-28 -24 -70 -24t-70 24zM218 208q28 0 38 25.5t10 80.5t-10 80.5t-38 25.5t-38 -25.5t-10 -80.5t10 -80.5t38 -25.5z" />
    <glyph glyph-name="yen" unicode="&#xa5;" horiz-adv-x="436" 
d="M175 0q-9 0 -9 11v214l-128 417q-4 13 7 13h96q9 0 10 -8l44 -196q7 -30 12 -59t10 -59h2q6 30 11 59.5t12 58.5l44 196q2 8 10 8h96q10 0 6 -13l-128 -416v-215q0 -11 -10 -11h-85zM98 101q-11 0 -11 11v46q0 11 11 11h241q11 0 11 -11v-46q0 -11 -11 -11h-241zM98 226
q-11 0 -11 11v46q0 12 11 12h241q11 0 11 -12v-46q0 -11 -11 -11h-241z" />
    <glyph glyph-name="brokenbar" unicode="&#xa6;" horiz-adv-x="191" 
d="M60 392q-11 0 -11 11v416q0 11 11 11h71q11 0 11 -11v-416q0 -11 -11 -11h-71zM60 -185q-11 0 -11 11v416q0 11 11 11h71q11 0 11 -11v-416q0 -11 -11 -11h-71z" />
    <glyph glyph-name="section" unicode="&#xa7;" horiz-adv-x="328" 
d="M185 117l-16 64q21 8 33 27.5t12 46.5q0 30 -10.5 50.5t-31.5 42.5l-86 90q-23 23 -36 50t-13 71q0 62 33.5 94.5t97.5 32.5q65 0 98.5 -34t33.5 -101q0 -10 -9 -10h-73q-8 0 -8 10q1 54 -38 54q-36 0 -36 -44q0 -20 6.5 -34.5t23.5 -33.5l97 -104q25 -27 36 -58.5
t11 -73.5q0 -59 -32 -96t-93 -44zM160 -118q-66 0 -99 34t-33 101q0 11 9 11h72q10 0 9 -11q-1 -54 38 -54q36 0 36 45q0 20 -6.5 35t-24.5 33l-96 103q-24 28 -36 60t-12 72q0 60 33 96.5t93 43.5l15 -63q-20 -9 -32 -28.5t-12 -46.5q0 -29 10.5 -49.5t31.5 -42.5l86 -91
q23 -23 36 -50t13 -71q0 -61 -34 -94t-97 -33z" />
    <glyph glyph-name="dieresis" unicode="&#xa8;" horiz-adv-x="306" 
d="M85 569q-25 0 -40 14t-15 38v13q0 25 15 38.5t40 13.5t39.5 -13.5t14.5 -38.5v-13q0 -24 -14.5 -38t-39.5 -14zM222 569q-25 0 -39.5 14t-14.5 38v13q0 25 14.5 38.5t39.5 13.5q26 0 40 -13.5t14 -38.5v-13q0 -24 -14 -38t-40 -14z" />
    <glyph glyph-name="copyright" unicode="&#xa9;" horiz-adv-x="446" 
d="M223 -6q-68 0 -110.5 25.5t-61.5 75t-19 121.5v172q0 73 19 122t61.5 74.5t110.5 25.5q69 0 111 -25.5t61.5 -74.5t19.5 -122v-172q0 -72 -19.5 -121.5t-61.5 -75t-111 -25.5zM223 51q68 0 100.5 38.5t32.5 125.5v174q0 88 -32.5 126t-100.5 38t-100.5 -38t-32.5 -126
v-174q0 -87 32.5 -125.5t100.5 -38.5zM224 129q-44 0 -65.5 27.5t-21.5 79.5v127q0 52 21.5 80.5t65.5 28.5q49 0 68 -31.5t19 -87.5q0 -5 -1.5 -7t-4.5 -2h-43q-7 0 -6 9q1 34 -6 49t-25 15q-32 0 -32 -53v-128q0 -53 32 -53q18 0 24.5 15.5t6.5 49.5q0 9 6 9h43
q3 0 4.5 -2t1.5 -7q0 -57 -19 -88t-68 -31z" />
    <glyph glyph-name="ordfeminine" unicode="&#xaa;" horiz-adv-x="262" 
d="M90 316q-26 0 -43.5 23t-17.5 70q0 53 25.5 77t66.5 29l36 6v42q0 19 -5 27.5t-20 8.5q-28 0 -24 -35q1 -8 -6 -8h-53q-8 0 -9 10q-3 42 21 68.5t72 26.5q37 0 57.5 -11.5t29 -32.5t8.5 -50v-157q0 -23 1 -43t1 -36q0 -8 -6 -8h-51q-7 0 -8 6t-2 13t-3 15
q-12 -16 -29 -28.5t-41 -12.5zM44 188q-9 0 -9 11v55q0 11 9 11h180q9 0 9 -11v-55q0 -11 -9 -11h-180zM121 377q8 0 17 6t19 17v73l-22 -3q-16 -3 -25.5 -16t-9.5 -36q0 -22 5 -31.5t16 -9.5z" />
    <glyph glyph-name="guillemotleft" unicode="&#xab;" horiz-adv-x="385" 
d="M268 89q-6 0 -10 8l-77 159q-3 7 0 14l77 160q4 7 10 7h80q5 0 7 -3t-1 -10l-75 -161l74 -161q7 -13 -5 -13h-80zM117 89q-6 0 -9 8l-77 159q-3 7 0 14l77 160q3 7 10 7h79q5 0 7.5 -3t-0.5 -10l-75 -161l74 -161q5 -13 -6 -13h-80z" />
    <glyph glyph-name="logicalnot" unicode="&#xac;" horiz-adv-x="420" 
d="M273 140q-11 0 -11 12v106h-180q-12 0 -12 10v64q0 11 12 11h257q11 0 11 -11v-180q0 -12 -11 -12h-66z" />
    <glyph glyph-name="uni00AD" unicode="&#xad;" horiz-adv-x="315" 
d="M46 225q-11 0 -11 11v59q0 11 11 11h224q11 0 11 -11v-59q0 -11 -11 -11h-224z" />
    <glyph glyph-name="registered" unicode="&#xae;" horiz-adv-x="359" 
d="M179 304q-69 0 -109 44.5t-40 131.5v42q0 88 40 132.5t109 44.5q71 0 110 -45.5t39 -131.5v-42q0 -85 -39 -130.5t-110 -45.5zM179 352q49 0 73.5 29.5t24.5 97.5v44q0 69 -24.5 98.5t-73.5 29.5q-31 0 -53 -12.5t-33.5 -40.5t-11.5 -75v-44q0 -47 11.5 -74.5t33.5 -40
t53 -12.5zM132 394q-4 0 -4 6v205q0 6 5 6h40q31 0 47 -15.5t16 -50.5q0 -23 -6.5 -37t-18.5 -22l27 -86q2 -6 -3 -6h-31q-4 0 -5 4l-23 78h-11v-76q0 -6 -4 -6h-29zM165 509h11q22 0 22 27v14q0 14 -5 20.5t-17 6.5h-11v-68z" />
    <glyph glyph-name="macron" unicode="&#xaf;" horiz-adv-x="225" 
d="M40 571q-10 0 -10 11v59q0 11 10 11h145q10 0 10 -11v-59q0 -11 -10 -11h-145z" />
    <glyph glyph-name="degree" unicode="&#xb0;" horiz-adv-x="262" 
d="M131 399q-55 0 -80.5 31.5t-25.5 84.5v58q0 54 25.5 85t80.5 31t80 -31t25 -85v-58q0 -53 -25 -84.5t-80 -31.5zM131 468q19 0 26.5 12.5t7.5 36.5v54q0 24 -7.5 36.5t-26.5 12.5t-26.5 -12.5t-7.5 -36.5v-54q0 -24 7.5 -36.5t26.5 -12.5z" />
    <glyph glyph-name="plusminus" unicode="&#xb1;" horiz-adv-x="420" 
d="M178 181q-11 0 -11 12v85h-85q-12 0 -12 10v64q0 12 12 12h85v86q0 11 11 11h65q10 0 10 -11v-86h86q11 0 11 -12v-64q0 -10 -11 -10h-86v-85q0 -12 -10 -12h-65zM83 46q-11 0 -11 11v64q0 11 11 11h254q11 0 11 -11v-64q0 -11 -11 -11h-254z" />
    <glyph glyph-name="uni00B2" unicode="&#xb2;" horiz-adv-x="308" 
d="M53 349q-12 0 -12 11v52q0 43 14.5 72t34.5 49.5t41 37.5t35 37t14 48v8q0 18 -5.5 27t-20.5 9t-21.5 -11t-5.5 -37q0 -11 -11 -11h-55q-10 0 -11 11q-4 59 24.5 91t81.5 32q54 0 81.5 -27t27.5 -85q0 -42 -13 -69.5t-31.5 -47t-37.5 -36.5t-32 -36.5t-13 -48.5h114
q4 0 7.5 -3t3.5 -8v-54q0 -11 -11 -11h-199z" />
    <glyph glyph-name="uni00B3" unicode="&#xb3;" horiz-adv-x="308" 
d="M149 344q-44 1 -68 16t-33 42.5t-7 65.5q1 12 11 12h55q12 0 12 -12q0 -24 6.5 -35.5t24.5 -11.5q17 0 25 12.5t8 36.5v12q0 23 -8 34.5t-27 11.5h-18q-11 0 -11 12v47q0 11 11 11h14q18 0 26 12.5t8 37.5v11q0 20 -7.5 30t-22.5 10q-19 0 -25 -13.5t-5 -33.5
q1 -11 -11 -11h-54q-10 0 -11 11q-4 58 22.5 90.5t86.5 32.5q57 0 84.5 -27.5t27.5 -82.5q0 -35 -12 -59t-30 -38v-1q23 -12 35 -36t12 -61q0 -61 -30.5 -93.5t-88.5 -32.5z" />
    <glyph glyph-name="acute" unicode="&#xb4;" horiz-adv-x="220" 
d="M37 557q-5 0 -6.5 3.5t0.5 7.5l65 124q5 8 13 8h73q5 0 7 -3.5t-2 -9.5l-77 -122q-5 -8 -16 -8h-57z" />
    <glyph glyph-name="uni00B5" unicode="&#xb5;" horiz-adv-x="365" 
d="M47 -185q-10 0 -10 11v655q0 10 10 10h83q9 0 9 -10v-338q0 -29 8.5 -43t26.5 -14q14 0 27 9t26 26v360q0 10 9 10h83q10 0 10 -10v-370q0 -16 3 -23t12 -7q4 0 8 1t7 2q6 1 6 -7v-66q0 -8 -9 -11q-11 -3 -24 -4.5t-25 -1.5q-26 0 -43.5 11.5t-24.5 37.5l-1 1
q-14 -22 -29 -35t-36 -13q-12 0 -21 6t-14 12v-188q0 -11 -9 -11h-82z" />
    <glyph glyph-name="paragraph" unicode="&#xb6;" horiz-adv-x="397" 
d="M127 -185q-11 0 -11 11v480h-13q-46 0 -69 31t-23 96v123q0 65 23 96t69 31h252q9 0 9 -11v-846q0 -11 -12 -11h-67q-11 0 -11 11v764h-68v-764q0 -11 -12 -11h-67z" />
    <glyph glyph-name="periodcentered" unicode="&#xb7;" horiz-adv-x="212" 
d="M109 196q-30 0 -48.5 15.5t-18.5 45.5v15q0 30 18.5 45.5t48.5 15.5q33 0 50 -15.5t17 -45.5v-15q0 -30 -17 -45.5t-50 -15.5z" />
    <glyph glyph-name="cedilla" unicode="&#xb8;" horiz-adv-x="190" 
d="M84 -191q-14 0 -26 1.5l-20 2.5q-8 3 -8 10v42q0 9 7 7q4 -1 9.5 -1.5t12.5 -0.5q14 0 20.5 6.5t6.5 19.5v10q0 14 -8 19.5t-19 5.5h-11q-6 0 -6 6v10.5t1 9.5l22 76q3 7 9 7h46q10 0 7 -11l-21 -61h6q22 0 35 -15t13 -45v-20q0 -39 -18 -59t-58 -20z" />
    <glyph glyph-name="uni00B9" unicode="&#xb9;" horiz-adv-x="308" 
d="M57 349q-12 0 -12 11v54q0 11 12 11h57v251l-56 -20q-10 -3 -10 6v57q0 10 7 13l105 37q4 1 7.5 1.5t7.5 0.5h12q11 0 11 -11v-335h53q11 0 11 -11v-54q0 -11 -11 -11h-194z" />
    <glyph glyph-name="ordmasculine" unicode="&#xba;" horiz-adv-x="258" 
d="M129 315q-48 0 -73.5 28.5t-25.5 83.5v123q0 54 25.5 82.5t73.5 28.5t73 -28.5t25 -82.5v-123q0 -55 -25 -83.5t-73 -28.5zM45 188q-9 0 -9 11v55q0 11 9 11h168q8 0 8 -11v-55q0 -11 -8 -11h-168zM129 383q14 0 21 9.5t7 29.5v133q0 20 -7 29.5t-21 9.5
q-15 0 -21.5 -9.5t-6.5 -29.5v-133q0 -20 6.5 -29.5t21.5 -9.5z" />
    <glyph glyph-name="guillemotright" unicode="&#xbb;" horiz-adv-x="385" 
d="M188 89q-12 0 -6 13l75 161l-75 161q-3 7 -1 10t7 3h80q6 0 9 -7l78 -160q3 -7 0 -14l-78 -159q-3 -8 -9 -8h-80zM38 89q-13 0 -6 13l74 161l-75 161q-3 7 -0.5 10t6.5 3h80q6 0 10 -7l77 -160q3 -7 0 -14l-77 -159q-3 -8 -10 -8h-79z" />
    <glyph glyph-name="onequarter" unicode="&#xbc;" horiz-adv-x="741" 
d="M57 236q-12 0 -12 11v54q0 11 12 11h57v251l-56 -20q-10 -3 -10 6v57q0 10 7 13l105 37q4 1 7.5 1.5t7.5 0.5h12q11 0 11 -11v-335h53q11 0 11 -11v-54q0 -11 -11 -11h-194zM235 -32q-9 0 -6 11l120 367l110 334q2 7 9 7h76q9 0 6 -10l-120 -354l-110 -349q-2 -6 -9 -6
h-76zM625 0q-11 0 -11 11v62h-150q-11 0 -11 12v6q0 5 1.5 9.5t2.5 8.5l106 298q4 12 13 12h59q5 0 8 -3.5t0 -9.5l-87 -260h59l8 127q1 12 11 12h47q10 0 10 -12v-126h20q9 0 9 -11v-51q0 -12 -9 -12h-20v-62q0 -11 -11 -11h-55z" />
    <glyph glyph-name="onehalf" unicode="&#xbd;" horiz-adv-x="768" 
d="M57 236q-12 0 -12 11v54q0 11 12 11h57v251l-56 -20q-10 -3 -10 6v57q0 10 7 13l105 37q4 1 7.5 1.5t7.5 0.5h12q11 0 11 -11v-335h53q11 0 11 -11v-54q0 -11 -11 -11h-194zM235 -32q-9 0 -6 11l120 367l110 334q2 7 9 7h76q9 0 6 -10l-120 -354l-110 -349q-2 -6 -9 -6
h-76zM513 0q-12 0 -12 11v52q0 43 14.5 72t34.5 49.5t41 37.5t35 37t14 48v8q0 18 -5.5 27t-20.5 9t-21.5 -11t-5.5 -37q0 -11 -11 -11h-55q-10 0 -11 11q-4 59 24.5 91t81.5 32q54 0 81.5 -27t27.5 -85q0 -42 -13 -69.5t-31.5 -47t-37.5 -36.5t-32 -36.5t-13 -48.5h114
q4 0 7.5 -3t3.5 -8v-54q0 -11 -11 -11h-199z" />
    <glyph glyph-name="threequarters" unicode="&#xbe;" horiz-adv-x="732" 
d="M149 231q-44 1 -68 16t-33 42.5t-7 65.5q1 12 11 12h55q12 0 12 -12q0 -24 6.5 -35.5t24.5 -11.5q17 0 25 12.5t8 36.5v12q0 23 -8 34.5t-27 11.5h-18q-11 0 -11 12v47q0 11 11 11h14q18 0 26 12.5t8 37.5v11q0 20 -7.5 30t-22.5 10q-19 0 -25 -13.5t-5 -33.5
q1 -11 -11 -11h-54q-10 0 -11 11q-4 58 22.5 90.5t86.5 32.5q57 0 84.5 -27.5t27.5 -82.5q0 -35 -12 -59t-30 -38v-1q23 -12 35 -36t12 -61q0 -61 -30.5 -93.5t-88.5 -32.5zM226 -32q-9 0 -6 11l120 367l110 334q2 7 9 7h76q9 0 6 -10l-120 -354l-110 -349q-2 -6 -9 -6h-76z
M616 0q-11 0 -11 11v62h-150q-11 0 -11 12v6q0 5 1.5 9.5t2.5 8.5l106 298q4 12 13 12h59q5 0 8 -3.5t0 -9.5l-87 -260h59l8 127q1 12 11 12h47q10 0 10 -12v-126h20q9 0 9 -11v-51q0 -12 -9 -12h-20v-62q0 -11 -11 -11h-55z" />
    <glyph glyph-name="questiondown" unicode="&#xbf;" horiz-adv-x="333" 
d="M230 282q6 0 6 -10v-41q0 -34 -10 -60t-25.5 -47.5t-31.5 -43.5t-26 -47.5t-10 -59.5q0 -32 9 -44.5t32 -12.5q29 0 38 24t6 72q-1 12 9 12h75q6 0 8 -3.5t2 -10.5q7 -91 -29 -136t-112 -45q-73 0 -107 34.5t-34 102.5q0 44 10 76.5t25.5 58t31 47t26 43t10.5 46.5v35
q0 10 9 10h88zM182 496q31 0 47 -14.5t16 -43.5v-16q0 -29 -16 -43.5t-47 -14.5q-30 0 -46 14.5t-16 43.5v16q0 29 16 43.5t46 14.5z" />
    <glyph glyph-name="Agrave" unicode="&#xc0;" horiz-adv-x="401" 
d="M8 0q-10 0 -8 12l133 634q2 9 11 9h113q9 0 11 -9l133 -634q2 -12 -7 -12h-95q-8 0 -10 8l-67 403q-6 35 -11.5 69.5t-9.5 68.5h-2q-5 -34 -9.5 -68.5t-10.5 -69.5l-69 -403q-1 -8 -9 -8h-93zM117 144l16 89h132l17 -89h-165zM195 711q-10 0 -15 8l-67 105q-3 6 -1.5 10
t6.5 4h74q5 0 8 -2.5t5 -5.5l55 -107q2 -5 1 -8.5t-7 -3.5h-59z" />
    <glyph glyph-name="Aacute" unicode="&#xc1;" horiz-adv-x="401" 
d="M8 0q-10 0 -8 12l133 634q2 9 11 9h113q9 0 11 -9l133 -634q2 -12 -7 -12h-95q-8 0 -10 8l-67 403q-6 35 -11.5 69.5t-9.5 68.5h-2q-5 -34 -9.5 -68.5t-10.5 -69.5l-69 -403q-1 -8 -9 -8h-93zM117 144l16 89h132l17 -89h-165zM142 711q-5 0 -6.5 3.5t0.5 8.5l56 107
q5 8 13 8h73q6 0 7.5 -4t-2.5 -10l-67 -105q-4 -8 -15 -8h-59z" />
    <glyph glyph-name="Acircumflex" unicode="&#xc2;" horiz-adv-x="401" 
d="M8 0q-10 0 -8 12l133 634q2 9 11 9h113q9 0 11 -9l133 -634q2 -12 -7 -12h-95q-8 0 -10 8l-67 403q-6 35 -11.5 69.5t-9.5 68.5h-2q-5 -34 -9.5 -68.5t-10.5 -69.5l-69 -403q-1 -8 -9 -8h-93zM117 144l16 89h132l17 -89h-165zM115 717q-10 -4 -10 4v54q0 9 5 12l85 42
q6 3 12 0l85 -42q5 -3 5 -12v-54q0 -8 -10 -4l-86 35z" />
    <glyph glyph-name="Atilde" unicode="&#xc3;" horiz-adv-x="401" 
d="M8 0q-10 0 -8 12l133 634q2 9 11 9h113q9 0 11 -9l133 -634q2 -12 -7 -12h-95q-8 0 -10 8l-67 403q-6 35 -11.5 69.5t-9.5 68.5h-2q-5 -34 -9.5 -68.5t-10.5 -69.5l-69 -403q-1 -8 -9 -8h-93zM117 144l16 89h132l17 -89h-165zM235 722q-25 0 -40 9t-35 9q-13 0 -23 -3.5
t-19 -8.5q-11 -7 -11 6v50q0 9 5 13q9 8 22.5 14t32.5 6q24 0 39.5 -9t34.5 -9q14 0 24.5 3.5t19.5 9.5q11 6 11 -7v-49q0 -10 -5 -14q-9 -8 -22 -14t-34 -6z" />
    <glyph glyph-name="Adieresis" unicode="&#xc4;" horiz-adv-x="401" 
d="M8 0q-10 0 -8 12l133 634q2 9 11 9h113q9 0 11 -9l133 -634q2 -12 -7 -12h-95q-8 0 -10 8l-67 403q-6 35 -11.5 69.5t-9.5 68.5h-2q-5 -34 -9.5 -68.5t-10.5 -69.5l-69 -403q-1 -8 -9 -8h-93zM117 144l16 89h132l17 -89h-165zM133 718q-25 0 -40 13.5t-15 37.5v13
q0 25 15 38.5t40 13.5t39.5 -13.5t14.5 -38.5v-13q0 -24 -14.5 -37.5t-39.5 -13.5zM270 718q-25 0 -39.5 13.5t-14.5 37.5v13q0 25 14.5 38.5t39.5 13.5q26 0 40 -13.5t14 -38.5v-13q0 -24 -14 -37.5t-40 -13.5z" />
    <glyph glyph-name="Aring" unicode="&#xc5;" horiz-adv-x="401" 
d="M401 12q2 -12 -7 -12h-95q-8 0 -10 8l-23 136h-132l-24 -136q-1 -8 -9 -8h-93q-10 0 -8 12l131 619q-20 22 -20 59q0 44 25 68t65 24t64.5 -24t24.5 -68q0 -39 -20 -59zM174 689q0 -43 27 -43t27 43t-27 43t-27 -43zM147 233h106l-31 178q-6 35 -11.5 71.5t-9.5 70.5h-2
q-5 -34 -9.5 -70.5t-10.5 -71.5z" />
    <glyph glyph-name="AE" unicode="&#xc6;" horiz-adv-x="562" 
d="M8 0q-10 0 -7 12l165 635q2 8 10 8h342q9 0 9 -11v-73q0 -11 -9 -11h-171v-182h156q9 0 9 -11v-69q0 -11 -9 -11h-156v-192h171q9 0 9 -11v-73q0 -11 -9 -11h-267q-8 0 -8 11v133h-98l-32 -136q-1 -8 -10 -8h-95zM162 233h81v240v51.5t1 50.5h-2q-5 -26 -10.5 -52
t-11.5 -53z" />
    <glyph glyph-name="Ccedilla" unicode="&#xc7;" horiz-adv-x="428" 
d="M217 -6q-89 0 -135.5 52.5t-46.5 163.5v235q0 108 46.5 162t135.5 54q62 0 104 -28t60.5 -79t10.5 -120q-2 -10 -9 -10h-87q-10 0 -8 11q5 64 -12 97t-60 33q-39 0 -58 -29t-19 -95v-225q0 -68 19.5 -97t58.5 -29q45 0 60 35.5t12 94.5q-1 12 8 12h85q9 0 11 -12
q8 -105 -36.5 -165.5t-139.5 -60.5zM221 -192q-14 0 -26 1.5l-20 2.5q-8 3 -8 10v42q0 9 7 7q4 -1 9.5 -1.5t12.5 -0.5q14 0 20.5 6.5t6.5 19.5v10q0 14 -8 19.5t-19 5.5h-11q-6 0 -6 6v10.5t1 9.5l22 76q3 7 9 7h46q10 0 7 -11l-21 -61h6q22 0 35 -15t13 -45v-20
q0 -39 -18 -59t-58 -20z" />
    <glyph glyph-name="Egrave" unicode="&#xc8;" horiz-adv-x="362" 
d="M53 0q-10 0 -10 11v633q0 11 9 11h266q9 0 9 -11v-73q0 -11 -9 -11h-170v-182h155q9 0 9 -11v-69q0 -11 -9 -11h-155v-192h170q9 0 9 -11v-73q0 -11 -9 -11h-265zM179 711q-10 0 -15 8l-67 105q-3 6 -1.5 10t6.5 4h74q5 0 8 -2.5t5 -5.5l55 -107q2 -5 1 -8.5t-7 -3.5h-59
z" />
    <glyph glyph-name="Eacute" unicode="&#xc9;" horiz-adv-x="362" 
d="M53 0q-10 0 -10 11v633q0 11 9 11h266q9 0 9 -11v-73q0 -11 -9 -11h-170v-182h155q9 0 9 -11v-69q0 -11 -9 -11h-155v-192h170q9 0 9 -11v-73q0 -11 -9 -11h-265zM127 711q-5 0 -6.5 3.5t0.5 8.5l56 107q5 8 13 8h73q6 0 7.5 -4t-2.5 -10l-67 -105q-4 -8 -15 -8h-59z" />
    <glyph glyph-name="Ecircumflex" unicode="&#xca;" horiz-adv-x="362" 
d="M53 0q-10 0 -10 11v633q0 11 9 11h266q9 0 9 -11v-73q0 -11 -9 -11h-170v-182h155q9 0 9 -11v-69q0 -11 -9 -11h-155v-192h170q9 0 9 -11v-73q0 -11 -9 -11h-265zM99 717q-10 -4 -10 4v54q0 9 5 12l85 42q6 3 12 0l85 -42q5 -3 5 -12v-54q0 -8 -10 -4l-86 35z" />
    <glyph glyph-name="Edieresis" unicode="&#xcb;" horiz-adv-x="362" 
d="M53 0q-10 0 -10 11v633q0 11 9 11h266q9 0 9 -11v-73q0 -11 -9 -11h-170v-182h155q9 0 9 -11v-69q0 -11 -9 -11h-155v-192h170q9 0 9 -11v-73q0 -11 -9 -11h-265zM117 718q-25 0 -40 13.5t-15 37.5v13q0 25 15 38.5t40 13.5t39.5 -13.5t14.5 -38.5v-13q0 -24 -14.5 -37.5
t-39.5 -13.5zM254 718q-25 0 -39.5 13.5t-14.5 37.5v13q0 25 14.5 38.5t39.5 13.5q26 0 40 -13.5t14 -38.5v-13q0 -24 -14 -37.5t-40 -13.5z" />
    <glyph glyph-name="Igrave" unicode="&#xcc;" horiz-adv-x="191" 
d="M52 0q-9 0 -9 11v633q0 11 9 11h87q9 0 9 -11v-633q0 -11 -9 -11h-87zM91 711q-10 0 -15 8l-67 105q-3 6 -1.5 10t6.5 4h74q5 0 8 -2.5t5 -5.5l55 -107q2 -5 1 -8.5t-7 -3.5h-59z" />
    <glyph glyph-name="Iacute" unicode="&#xcd;" horiz-adv-x="191" 
d="M52 0q-9 0 -9 11v633q0 11 9 11h87q9 0 9 -11v-633q0 -11 -9 -11h-87zM39 711q-5 0 -6.5 3.5t0.5 8.5l56 107q5 8 13 8h73q6 0 7.5 -4t-2.5 -10l-67 -105q-4 -8 -15 -8h-59z" />
    <glyph glyph-name="Icircumflex" unicode="&#xce;" horiz-adv-x="191" 
d="M52 0q-9 0 -9 11v633q0 11 9 11h87q9 0 9 -11v-633q0 -11 -9 -11h-87zM11 717q-10 -4 -10 4v54q0 9 5 12l85 42q6 3 12 0l85 -42q5 -3 5 -12v-54q0 -8 -10 -4l-86 35z" />
    <glyph glyph-name="Idieresis" unicode="&#xcf;" horiz-adv-x="191" 
d="M52 0q-9 0 -9 11v633q0 11 9 11h87q9 0 9 -11v-633q0 -11 -9 -11h-87zM29 718q-25 0 -40 13.5t-15 37.5v13q0 25 15 38.5t40 13.5t39.5 -13.5t14.5 -38.5v-13q0 -24 -14.5 -37.5t-39.5 -13.5zM166 718q-25 0 -39.5 13.5t-14.5 37.5v13q0 25 14.5 38.5t39.5 13.5
q26 0 40 -13.5t14 -38.5v-13q0 -24 -14 -37.5t-40 -13.5z" />
    <glyph glyph-name="Eth" unicode="&#xd0;" horiz-adv-x="436" 
d="M14 291q-9 0 -9 11v60q0 11 9 11h33h164q9 0 9 -11v-60q0 -11 -9 -11h-197zM58 0q-11 0 -11 11v633q0 11 11 11h128q110 0 164.5 -67t54.5 -205v-89q0 -149 -53.5 -221.5t-160.5 -72.5h-133zM152 95h35q61 0 87 47.5t26 148.5v92q0 91 -27.5 134t-88.5 43h-32v-465z" />
    <glyph glyph-name="Ntilde" unicode="&#xd1;" horiz-adv-x="445" 
d="M52 0q-9 0 -9 11v633q0 11 9 11h115q8 0 10 -8l91 -330q7 -25 14.5 -56t15 -62.5t11.5 -55.5h2q-1 20 -2.5 46.5t-3 55t-2 55t-0.5 46.5v299q0 10 9 10h81q9 0 9 -10v-634q0 -11 -9 -11h-114q-7 0 -10 7l-91 323q-13 47 -23 93.5t-18 86.5h-2q2 -29 3.5 -68t2.5 -77.5
t1 -67.5v-286q0 -11 -8 -11h-82zM256 722q-25 0 -40 9t-35 9q-13 0 -23 -3.5t-19 -8.5q-11 -7 -11 6v50q0 9 5 13q9 8 22.5 14t32.5 6q24 0 39.5 -9t34.5 -9q14 0 24.5 3.5t19.5 9.5q11 6 11 -7v-49q0 -10 -5 -14q-9 -8 -22 -14t-34 -6z" />
    <glyph glyph-name="Ograve" unicode="&#xd2;" horiz-adv-x="434" 
d="M217 -6q-89 0 -135.5 52t-46.5 155v252q0 104 46.5 156t135.5 52q88 0 135 -52t47 -156v-252q0 -103 -47 -155t-135 -52zM217 90q39 0 58.5 27t19.5 89v242q0 63 -19.5 90t-58.5 27t-58.5 -27t-19.5 -90v-242q0 -62 19.5 -89t58.5 -27zM210 711q-10 0 -15 8l-67 105
q-3 6 -1.5 10t6.5 4h74q5 0 8 -2.5t5 -5.5l55 -107q2 -5 1 -8.5t-7 -3.5h-59z" />
    <glyph glyph-name="Oacute" unicode="&#xd3;" horiz-adv-x="434" 
d="M217 -6q-89 0 -135.5 52t-46.5 155v252q0 104 46.5 156t135.5 52q88 0 135 -52t47 -156v-252q0 -103 -47 -155t-135 -52zM217 90q39 0 58.5 27t19.5 89v242q0 63 -19.5 90t-58.5 27t-58.5 -27t-19.5 -90v-242q0 -62 19.5 -89t58.5 -27zM158 711q-5 0 -6.5 3.5t0.5 8.5
l56 107q5 8 13 8h73q6 0 7.5 -4t-2.5 -10l-67 -105q-4 -8 -15 -8h-59z" />
    <glyph glyph-name="Ocircumflex" unicode="&#xd4;" horiz-adv-x="434" 
d="M217 -6q-89 0 -135.5 52t-46.5 155v252q0 104 46.5 156t135.5 52q88 0 135 -52t47 -156v-252q0 -103 -47 -155t-135 -52zM217 90q39 0 58.5 27t19.5 89v242q0 63 -19.5 90t-58.5 27t-58.5 -27t-19.5 -90v-242q0 -62 19.5 -89t58.5 -27zM130 717q-10 -4 -10 4v54q0 9 5 12
l85 42q6 3 12 0l85 -42q5 -3 5 -12v-54q0 -8 -10 -4l-86 35z" />
    <glyph glyph-name="Otilde" unicode="&#xd5;" horiz-adv-x="434" 
d="M217 -6q-89 0 -135.5 52t-46.5 155v252q0 104 46.5 156t135.5 52q88 0 135 -52t47 -156v-252q0 -103 -47 -155t-135 -52zM217 90q39 0 58.5 27t19.5 89v242q0 63 -19.5 90t-58.5 27t-58.5 -27t-19.5 -90v-242q0 -62 19.5 -89t58.5 -27zM250 722q-25 0 -40 9t-35 9
q-13 0 -23 -3.5t-19 -8.5q-11 -7 -11 6v50q0 9 5 13q9 8 22.5 14t32.5 6q24 0 39.5 -9t34.5 -9q14 0 24.5 3.5t19.5 9.5q11 6 11 -7v-49q0 -10 -5 -14q-9 -8 -22 -14t-34 -6z" />
    <glyph glyph-name="Odieresis" unicode="&#xd6;" horiz-adv-x="434" 
d="M217 -6q-89 0 -135.5 52t-46.5 155v252q0 104 46.5 156t135.5 52q88 0 135 -52t47 -156v-252q0 -103 -47 -155t-135 -52zM217 90q39 0 58.5 27t19.5 89v242q0 63 -19.5 90t-58.5 27t-58.5 -27t-19.5 -90v-242q0 -62 19.5 -89t58.5 -27zM148 718q-25 0 -40 13.5t-15 37.5
v13q0 25 15 38.5t40 13.5t39.5 -13.5t14.5 -38.5v-13q0 -24 -14.5 -37.5t-39.5 -13.5zM285 718q-25 0 -39.5 13.5t-14.5 37.5v13q0 25 14.5 38.5t39.5 13.5q26 0 40 -13.5t14 -38.5v-13q0 -24 -14 -37.5t-40 -13.5z" />
    <glyph glyph-name="multiply" unicode="&#xd7;" horiz-adv-x="420" 
d="M134 179l-46 45q-7 9 0 16l63 61l-63 61q-6 8 0 16l46 45q8 8 16 0l61 -62l60 62q8 7 16 0l45 -46q8 -7 0 -16l-61 -60l61 -60q8 -8 0 -16l-45 -46q-8 -6 -16 0l-60 62l-61 -62q-8 -7 -16 0z" />
    <glyph glyph-name="Oslash" unicode="&#xd8;" horiz-adv-x="434" 
d="M50 -50q-10 0 -6 12l43 120l36 80l148 412l10 48l27 75q2 8 10 8h66q10 0 6 -12l-42 -116l-34 -76l-149 -419l-10 -48l-28 -77q-2 -7 -9 -7h-68zM217 -6q-89 0 -135.5 52t-46.5 155v252q0 104 46.5 156t135.5 52q88 0 135 -52t47 -156v-252q0 -103 -47 -155t-135 -52z
M217 90q39 0 58.5 27t19.5 89v242q0 63 -19.5 90t-58.5 27t-58.5 -27t-19.5 -90v-242q0 -62 19.5 -89t58.5 -27z" />
    <glyph glyph-name="Ugrave" unicode="&#xd9;" horiz-adv-x="435" 
d="M217 -6q-90 0 -133.5 54.5t-43.5 164.5v432q0 10 9 10h87q9 0 9 -10v-429q0 -68 17 -97t55 -29q39 0 56 28.5t17 97.5v429q0 10 9 10h87q9 0 9 -10v-432q0 -110 -44.5 -164.5t-133.5 -54.5zM211 711q-10 0 -15 8l-67 105q-3 6 -1.5 10t6.5 4h74q5 0 8 -2.5t5 -5.5
l55 -107q2 -5 1 -8.5t-7 -3.5h-59z" />
    <glyph glyph-name="Uacute" unicode="&#xda;" horiz-adv-x="435" 
d="M217 -6q-90 0 -133.5 54.5t-43.5 164.5v432q0 10 9 10h87q9 0 9 -10v-429q0 -68 17 -97t55 -29q39 0 56 28.5t17 97.5v429q0 10 9 10h87q9 0 9 -10v-432q0 -110 -44.5 -164.5t-133.5 -54.5zM158 711q-5 0 -6.5 3.5t0.5 8.5l56 107q5 8 13 8h73q6 0 7.5 -4t-2.5 -10
l-67 -105q-4 -8 -15 -8h-59z" />
    <glyph glyph-name="Ucircumflex" unicode="&#xdb;" horiz-adv-x="435" 
d="M217 -6q-90 0 -133.5 54.5t-43.5 164.5v432q0 10 9 10h87q9 0 9 -10v-429q0 -68 17 -97t55 -29q39 0 56 28.5t17 97.5v429q0 10 9 10h87q9 0 9 -10v-432q0 -110 -44.5 -164.5t-133.5 -54.5zM131 717q-10 -4 -10 4v54q0 9 5 12l85 42q6 3 12 0l85 -42q5 -3 5 -12v-54
q0 -8 -10 -4l-86 35z" />
    <glyph glyph-name="Udieresis" unicode="&#xdc;" horiz-adv-x="435" 
d="M217 -6q-90 0 -133.5 54.5t-43.5 164.5v432q0 10 9 10h87q9 0 9 -10v-429q0 -68 17 -97t55 -29q39 0 56 28.5t17 97.5v429q0 10 9 10h87q9 0 9 -10v-432q0 -110 -44.5 -164.5t-133.5 -54.5zM149 718q-25 0 -40 13.5t-15 37.5v13q0 25 15 38.5t40 13.5t39.5 -13.5
t14.5 -38.5v-13q0 -24 -14.5 -37.5t-39.5 -13.5zM286 718q-25 0 -39.5 13.5t-14.5 37.5v13q0 25 14.5 38.5t39.5 13.5q26 0 40 -13.5t14 -38.5v-13q0 -24 -14 -37.5t-40 -13.5z" />
    <glyph glyph-name="Yacute" unicode="&#xdd;" horiz-adv-x="392" 
d="M153 0q-9 0 -9 11v214l-138 417q-4 13 7 13h97q8 0 9 -8l50 -198q7 -28 14 -57.5t13 -58.5h1q7 29 13.5 58.5t13.5 58.5l50 197q1 8 9 8h95q11 0 7 -13l-137 -416v-215q0 -11 -8 -11h-87zM137 711q-5 0 -6.5 3.5t0.5 8.5l56 107q5 8 13 8h73q6 0 7.5 -4t-2.5 -10
l-67 -105q-4 -8 -15 -8h-59z" />
    <glyph glyph-name="Thorn" unicode="&#xde;" horiz-adv-x="380" 
d="M52 0q-9 0 -9 11v633q0 11 9 11h87q9 0 9 -11v-95h27q94 0 138.5 -51t44.5 -159q0 -102 -45.5 -156t-133.5 -54h-31v-118q0 -11 -9 -11h-87zM148 225h27q41 0 59.5 27t18.5 85q0 63 -18.5 90.5t-57.5 27.5h-29v-230z" />
    <glyph glyph-name="germandbls" unicode="&#xdf;" horiz-adv-x="390" 
d="M260 -6q-55 0 -79.5 29.5t-20.5 91.5q1 10 8 10h59q7 0 7 -9q0 -21 5 -31t17 -10q14 0 19 11.5t5 39.5q0 32 -10 55t-24 42t-29 39t-25 44.5t-10 60.5q0 24 6.5 45t14.5 41t14 41.5t6 47.5q0 30 -10 42.5t-30 12.5q-24 0 -34 -16.5t-10 -59.5v-510q0 -11 -8 -11h-85
q-9 0 -9 11v505q0 90 35 131.5t110 41.5q69 0 105 -33.5t36 -100.5q0 -33 -6.5 -57.5t-14.5 -44t-14.5 -37.5t-6.5 -38q0 -25 9.5 -44t23.5 -37.5t28 -41t23.5 -52.5t9.5 -73q0 -67 -29 -101.5t-86 -34.5z" />
    <glyph glyph-name="agrave" unicode="&#xe0;" horiz-adv-x="346" 
d="M233 0q-9 0 -10 10q-2 17 -4 42.5t-3 45.5l-9 12v248q0 32 -7.5 44t-29.5 12t-30.5 -13.5t-5.5 -45.5q1 -11 -10 -11h-72q-11 0 -12 14q-5 66 29 102.5t104 36.5q72 0 104 -32t32 -108v-232q0 -43 1 -70t2 -43q1 -12 -7 -12h-72zM113 -6q-42 0 -65 35t-23 97q0 69 31 109
t103 49l56 7v-65l-36 -5q-28 -3 -42 -23.5t-14 -58.5q0 -29 8 -45t23 -16t30 12.5t37 42.5l8 -64q-33 -41 -58 -58t-58 -17zM174 557q-10 0 -15 8l-78 122q-3 6 -1.5 9.5t6.5 3.5h74q8 0 12 -8l65 -124q3 -4 1.5 -7.5t-7.5 -3.5h-57z" />
    <glyph glyph-name="aacute" unicode="&#xe1;" horiz-adv-x="346" 
d="M233 0q-9 0 -10 10q-2 17 -4 42.5t-3 45.5l-9 12v248q0 32 -7.5 44t-29.5 12t-30.5 -13.5t-5.5 -45.5q1 -11 -10 -11h-72q-11 0 -12 14q-5 66 29 102.5t104 36.5q72 0 104 -32t32 -108v-232q0 -43 1 -70t2 -43q1 -12 -7 -12h-72zM113 -6q-42 0 -65 35t-23 97q0 69 31 109
t103 49l56 7v-65l-36 -5q-28 -3 -42 -23.5t-14 -58.5q0 -29 8 -45t23 -16t30 12.5t37 42.5l8 -64q-33 -41 -58 -58t-58 -17zM120 557q-5 0 -6.5 3.5t0.5 7.5l65 124q5 8 13 8h73q5 0 7 -3.5t-2 -9.5l-77 -122q-5 -8 -16 -8h-57z" />
    <glyph glyph-name="acircumflex" unicode="&#xe2;" horiz-adv-x="346" 
d="M233 0q-9 0 -10 10q-2 17 -4 42.5t-3 45.5l-9 12v248q0 32 -7.5 44t-29.5 12t-30.5 -13.5t-5.5 -45.5q1 -11 -10 -11h-72q-11 0 -12 14q-5 66 29 102.5t104 36.5q72 0 104 -32t32 -108v-232q0 -43 1 -70t2 -43q1 -12 -7 -12h-72zM113 -6q-42 0 -65 35t-23 97q0 69 31 109
t103 49l56 7v-65l-36 -5q-28 -3 -42 -23.5t-14 -58.5q0 -29 8 -45t23 -16t30 12.5t37 42.5l8 -64q-33 -41 -58 -58t-58 -17zM96 554q-10 -5 -10 4v57q0 9 5 12l78 44q6 4 12 0l79 -44q4 -3 4 -12v-57q0 -8 -10 -4l-79 39z" />
    <glyph glyph-name="atilde" unicode="&#xe3;" horiz-adv-x="346" 
d="M233 0q-9 0 -10 10q-2 17 -4 42.5t-3 45.5l-9 12v248q0 32 -7.5 44t-29.5 12t-30.5 -13.5t-5.5 -45.5q1 -11 -10 -11h-72q-11 0 -12 14q-5 66 29 102.5t104 36.5q72 0 104 -32t32 -108v-232q0 -43 1 -70t2 -43q1 -12 -7 -12h-72zM113 -6q-42 0 -65 35t-23 97q0 69 31 109
t103 49l56 7v-65l-36 -5q-28 -3 -42 -23.5t-14 -58.5q0 -29 8 -45t23 -16t30 12.5t37 42.5l8 -64q-33 -41 -58 -58t-58 -17zM208 567q-16 0 -27.5 5t-21 9t-21.5 4q-11 0 -21 -3.5t-19 -9.5q-11 -6 -11 7v50q0 9 5 13q9 8 22.5 13.5t29.5 5.5q17 0 27.5 -4t20.5 -8.5
t21 -4.5q12 0 21.5 3.5t18.5 9.5q12 5 12 -8v-49q0 -9 -6 -13q-8 -8 -21.5 -14t-29.5 -6z" />
    <glyph glyph-name="adieresis" unicode="&#xe4;" horiz-adv-x="346" 
d="M233 0q-9 0 -10 10q-2 17 -4 42.5t-3 45.5l-9 12v248q0 32 -7.5 44t-29.5 12t-30.5 -13.5t-5.5 -45.5q1 -11 -10 -11h-72q-11 0 -12 14q-5 66 29 102.5t104 36.5q72 0 104 -32t32 -108v-232q0 -43 1 -70t2 -43q1 -12 -7 -12h-72zM113 -6q-42 0 -65 35t-23 97q0 69 31 109
t103 49l56 7v-65l-36 -5q-28 -3 -42 -23.5t-14 -58.5q0 -29 8 -45t23 -16t30 12.5t37 42.5l8 -64q-33 -41 -58 -58t-58 -17zM107 569q-25 0 -40 14t-15 38v13q0 25 15 38.5t40 13.5t39.5 -13.5t14.5 -38.5v-13q0 -24 -14.5 -38t-39.5 -14zM244 569q-25 0 -39.5 14t-14.5 38
v13q0 25 14.5 38.5t39.5 13.5q26 0 40 -13.5t14 -38.5v-13q0 -24 -14 -38t-40 -14z" />
    <glyph glyph-name="aring" unicode="&#xe5;" horiz-adv-x="346" 
d="M233 0q-9 0 -10 10q-2 17 -4 42.5t-3 45.5l-9 12v248q0 32 -7.5 44t-29.5 12t-30.5 -13.5t-5.5 -45.5q1 -11 -10 -11h-72q-11 0 -12 14q-5 66 29 102.5t104 36.5q72 0 104 -32t32 -108v-232q0 -43 1 -70t2 -43q1 -12 -7 -12h-72zM113 -6q-42 0 -65 35t-23 97q0 69 31 109
t103 49l56 7v-65l-36 -5q-28 -3 -42 -23.5t-14 -58.5q0 -29 8 -45t23 -16t30 12.5t37 42.5l8 -64q-33 -41 -58 -58t-58 -17zM175 551q-39 0 -63 24t-24 68t24 68.5t63 24.5q41 0 64.5 -24.5t23.5 -68.5t-23.5 -68t-64.5 -24zM175 604q25 0 25 39t-25 39q-24 0 -24 -39
t24 -39z" />
    <glyph glyph-name="ae" unicode="&#xe6;" horiz-adv-x="530" 
d="M113 -6q-42 0 -65 34.5t-23 97.5q0 70 31.5 109.5t102.5 49.5l49 7v66q0 32 -7.5 44t-30.5 12q-22 0 -29.5 -13.5t-6.5 -45.5q1 -11 -10 -11h-72q-11 0 -12 14q-5 66 28.5 102.5t100.5 36.5q37 0 59 -10t38 -32q19 22 42.5 32t53.5 10q66 0 102.5 -44t36.5 -127v-94
q0 -10 -10 -10h-182v-61q0 -44 11.5 -63t35.5 -19q22 0 32 13.5t10 42.5q0 11 8 11h79q10 0 10 -10q0 -70 -34.5 -106t-104.5 -36q-48 0 -80.5 18t-49.5 54q-29 -36 -54 -54t-59 -18zM154 78q13 0 26 9t31 33q-1 11 -2 21t-1 21v63l-29 -4q-28 -4 -42 -24t-14 -58
q0 -29 8 -45t23 -16zM309 293h91v48q0 38 -11 55t-34 17q-24 0 -35 -17t-11 -55v-48z" />
    <glyph glyph-name="ccedilla" unicode="&#xe7;" horiz-adv-x="353" 
d="M183 -6q-76 0 -114 43t-38 130v161q0 85 38 127t113 42q47 0 80 -20t48.5 -57t11.5 -86q-1 -14 -11 -14h-73q-5 0 -7.5 3t-1.5 8q2 38 -9 56.5t-37 18.5t-38 -18t-12 -62v-158q0 -45 11.5 -63.5t38.5 -18.5q25 0 35.5 17.5t9.5 56.5q0 13 9 13h75q10 0 10 -11
q1 -84 -33 -126t-106 -42zM177 -192q-14 0 -26 1.5l-20 2.5q-8 3 -8 10v42q0 9 7 7q4 -1 9.5 -1.5t12.5 -0.5q14 0 20.5 6.5t6.5 19.5v10q0 14 -8 19.5t-19 5.5h-11q-6 0 -6 6v10.5t1 9.5l22 76q3 7 9 7h46q10 0 7 -11l-21 -61h6q22 0 35 -15t13 -45v-20q0 -39 -18 -59
t-58 -20z" />
    <glyph glyph-name="egrave" unicode="&#xe8;" horiz-adv-x="359" 
d="M182 -6q-76 0 -113.5 42t-37.5 130v163q0 85 38 126.5t110 41.5q75 0 112.5 -42t37.5 -129v-94q0 -10 -10 -10h-187v-61q0 -44 11.5 -63t38.5 -19q24 0 34.5 13.5t9.5 42.5q-1 11 8 11h79q9 0 9 -10q2 -70 -33.5 -106t-106.5 -36zM132 293h96v48q0 38 -11.5 55t-36.5 17
q-24 0 -36 -17.5t-12 -54.5v-48zM178 557q-10 0 -15 8l-78 122q-3 6 -1.5 9.5t6.5 3.5h74q8 0 12 -8l65 -124q3 -4 1.5 -7.5t-7.5 -3.5h-57z" />
    <glyph glyph-name="eacute" unicode="&#xe9;" horiz-adv-x="359" 
d="M182 -6q-76 0 -113.5 42t-37.5 130v163q0 85 38 126.5t110 41.5q75 0 112.5 -42t37.5 -129v-94q0 -10 -10 -10h-187v-61q0 -44 11.5 -63t38.5 -19q24 0 34.5 13.5t9.5 42.5q-1 11 8 11h79q9 0 9 -10q2 -70 -33.5 -106t-106.5 -36zM132 293h96v48q0 38 -11.5 55t-36.5 17
q-24 0 -36 -17.5t-12 -54.5v-48zM124 557q-5 0 -6.5 3.5t0.5 7.5l65 124q5 8 13 8h73q5 0 7 -3.5t-2 -9.5l-77 -122q-5 -8 -16 -8h-57z" />
    <glyph glyph-name="ecircumflex" unicode="&#xea;" horiz-adv-x="359" 
d="M182 -6q-76 0 -113.5 42t-37.5 130v163q0 85 38 126.5t110 41.5q75 0 112.5 -42t37.5 -129v-94q0 -10 -10 -10h-187v-61q0 -44 11.5 -63t38.5 -19q24 0 34.5 13.5t9.5 42.5q-1 11 8 11h79q9 0 9 -10q2 -70 -33.5 -106t-106.5 -36zM132 293h96v48q0 38 -11.5 55t-36.5 17
q-24 0 -36 -17.5t-12 -54.5v-48zM100 554q-10 -5 -10 4v57q0 9 5 12l78 44q6 4 12 0l79 -44q4 -3 4 -12v-57q0 -8 -10 -4l-79 39z" />
    <glyph glyph-name="edieresis" unicode="&#xeb;" horiz-adv-x="359" 
d="M182 -6q-76 0 -113.5 42t-37.5 130v163q0 85 38 126.5t110 41.5q75 0 112.5 -42t37.5 -129v-94q0 -10 -10 -10h-187v-61q0 -44 11.5 -63t38.5 -19q24 0 34.5 13.5t9.5 42.5q-1 11 8 11h79q9 0 9 -10q2 -70 -33.5 -106t-106.5 -36zM132 293h96v48q0 38 -11.5 55t-36.5 17
q-24 0 -36 -17.5t-12 -54.5v-48zM111 569q-25 0 -40 14t-15 38v13q0 25 15 38.5t40 13.5t39.5 -13.5t14.5 -38.5v-13q0 -24 -14.5 -38t-39.5 -14zM248 569q-25 0 -39.5 14t-14.5 38v13q0 25 14.5 38.5t39.5 13.5q26 0 40 -13.5t14 -38.5v-13q0 -24 -14 -38t-40 -14z" />
    <glyph glyph-name="igrave" unicode="&#xec;" horiz-adv-x="177" 
d="M46 0q-9 0 -9 11v470q0 10 9 10h84q9 0 9 -10v-470q0 -11 -9 -11h-84zM87 557q-10 0 -15 8l-78 122q-3 6 -1.5 9.5t6.5 3.5h74q8 0 12 -8l65 -124q3 -4 1.5 -7.5t-7.5 -3.5h-57z" />
    <glyph glyph-name="iacute" unicode="&#xed;" horiz-adv-x="177" 
d="M46 0q-9 0 -9 11v470q0 10 9 10h84q9 0 9 -10v-470q0 -11 -9 -11h-84zM33 557q-5 0 -6.5 3.5t0.5 7.5l65 124q5 8 13 8h73q5 0 7 -3.5t-2 -9.5l-77 -122q-5 -8 -16 -8h-57z" />
    <glyph glyph-name="icircumflex" unicode="&#xee;" horiz-adv-x="177" 
d="M46 0q-9 0 -9 11v470q0 10 9 10h84q9 0 9 -10v-470q0 -11 -9 -11h-84zM10 554q-10 -5 -10 4v57q0 9 5 12l78 44q6 4 12 0l79 -44q4 -3 4 -12v-57q0 -8 -10 -4l-79 39z" />
    <glyph glyph-name="idieresis" unicode="&#xef;" horiz-adv-x="177" 
d="M46 0q-9 0 -9 11v470q0 10 9 10h84q9 0 9 -10v-470q0 -11 -9 -11h-84zM21 569q-25 0 -40 14t-15 38v13q0 25 15 38.5t40 13.5t39.5 -13.5t14.5 -38.5v-13q0 -24 -14.5 -38t-39.5 -14zM158 569q-25 0 -39.5 14t-14.5 38v13q0 25 14.5 38.5t39.5 13.5q26 0 40 -13.5
t14 -38.5v-13q0 -24 -14 -38t-40 -14z" />
    <glyph glyph-name="eth" unicode="&#xf0;" horiz-adv-x="364" 
d="M182 -6q-74 0 -112.5 42t-38.5 126v148q0 76 29 113.5t81 37.5q31 0 57.5 -14.5t43.5 -36.5v-85q-13 19 -30 33t-37 14t-31 -16t-11 -52v-141q0 -42 11.5 -59.5t37.5 -17.5q27 0 38 17.5t11 59.5v192q3 71 -6 122t-35 86t-77 54q-5 3 -6 7t2 8l35 51q4 6 7.5 6.5
t9.5 -1.5q87 -30 129.5 -110.5t42.5 -205.5v-210q0 -84 -38 -126t-113 -42zM141 509q-5 -4 -9 1l-22 33q-3 5 3 10l165 127q6 4 10 -2l20 -31q4 -6 -1 -10z" />
    <glyph glyph-name="ntilde" unicode="&#xf1;" horiz-adv-x="371" 
d="M241 0q-9 0 -9 11v346q0 26 -8 37.5t-25 11.5q-15 0 -31.5 -11.5t-33.5 -32.5l-14 57q27 35 58.5 56.5t68.5 21.5q44 0 65.5 -30.5t21.5 -95.5v-360q0 -11 -10 -11h-83zM47 0q-10 0 -10 11v356q0 38 -0.5 66t-2.5 46q-1 12 8 12h71q9 0 11 -10q2 -17 4 -43.5t2 -43.5
l9 -19v-364q0 -11 -9 -11h-83zM221 567q-16 0 -27.5 5t-21 9t-21.5 4q-11 0 -21 -3.5t-19 -9.5q-11 -6 -11 7v50q0 9 5 13q9 8 22.5 13.5t29.5 5.5q17 0 27.5 -4t20.5 -8.5t21 -4.5q12 0 21.5 3.5t18.5 9.5q12 5 12 -8v-49q0 -9 -6 -13q-8 -8 -21.5 -14t-29.5 -6z" />
    <glyph glyph-name="ograve" unicode="&#xf2;" horiz-adv-x="364" 
d="M182 -6q-74 0 -112.5 42t-38.5 126v168q0 83 38.5 125t112.5 42q75 0 113 -42t38 -125v-168q0 -84 -38 -126t-113 -42zM182 86q26 0 37.5 17.5t11.5 59.5v165q0 42 -11.5 60t-37.5 18t-37.5 -18t-11.5 -60v-165q0 -42 12 -59.5t37 -17.5zM181 557q-10 0 -15 8l-78 122
q-3 6 -1.5 9.5t6.5 3.5h74q8 0 12 -8l65 -124q3 -4 1.5 -7.5t-7.5 -3.5h-57z" />
    <glyph glyph-name="oacute" unicode="&#xf3;" horiz-adv-x="364" 
d="M182 -6q-74 0 -112.5 42t-38.5 126v168q0 83 38.5 125t112.5 42q75 0 113 -42t38 -125v-168q0 -84 -38 -126t-113 -42zM182 86q26 0 37.5 17.5t11.5 59.5v165q0 42 -11.5 60t-37.5 18t-37.5 -18t-11.5 -60v-165q0 -42 12 -59.5t37 -17.5zM126 557q-5 0 -6.5 3.5t0.5 7.5
l65 124q5 8 13 8h73q5 0 7 -3.5t-2 -9.5l-77 -122q-5 -8 -16 -8h-57z" />
    <glyph glyph-name="ocircumflex" unicode="&#xf4;" horiz-adv-x="364" 
d="M182 -6q-74 0 -112.5 42t-38.5 126v168q0 83 38.5 125t112.5 42q75 0 113 -42t38 -125v-168q0 -84 -38 -126t-113 -42zM182 86q26 0 37.5 17.5t11.5 59.5v165q0 42 -11.5 60t-37.5 18t-37.5 -18t-11.5 -60v-165q0 -42 12 -59.5t37 -17.5zM103 554q-10 -5 -10 4v57
q0 9 5 12l78 44q6 4 12 0l79 -44q4 -3 4 -12v-57q0 -8 -10 -4l-79 39z" />
    <glyph glyph-name="otilde" unicode="&#xf5;" horiz-adv-x="364" 
d="M182 -6q-74 0 -112.5 42t-38.5 126v168q0 83 38.5 125t112.5 42q75 0 113 -42t38 -125v-168q0 -84 -38 -126t-113 -42zM182 86q26 0 37.5 17.5t11.5 59.5v165q0 42 -11.5 60t-37.5 18t-37.5 -18t-11.5 -60v-165q0 -42 12 -59.5t37 -17.5zM215 567q-16 0 -27.5 5t-21 9
t-21.5 4q-11 0 -21 -3.5t-19 -9.5q-11 -6 -11 7v50q0 9 5 13q9 8 22.5 13.5t29.5 5.5q17 0 27.5 -4t20.5 -8.5t21 -4.5q12 0 21.5 3.5t18.5 9.5q12 5 12 -8v-49q0 -9 -6 -13q-8 -8 -21.5 -14t-29.5 -6z" />
    <glyph glyph-name="odieresis" unicode="&#xf6;" horiz-adv-x="364" 
d="M182 -6q-74 0 -112.5 42t-38.5 126v168q0 83 38.5 125t112.5 42q75 0 113 -42t38 -125v-168q0 -84 -38 -126t-113 -42zM182 86q26 0 37.5 17.5t11.5 59.5v165q0 42 -11.5 60t-37.5 18t-37.5 -18t-11.5 -60v-165q0 -42 12 -59.5t37 -17.5zM114 569q-25 0 -40 14t-15 38v13
q0 25 15 38.5t40 13.5t39.5 -13.5t14.5 -38.5v-13q0 -24 -14.5 -38t-39.5 -14zM251 569q-25 0 -39.5 14t-14.5 38v13q0 25 14.5 38.5t39.5 13.5q26 0 40 -13.5t14 -38.5v-13q0 -24 -14 -38t-40 -14z" />
    <glyph glyph-name="divide" unicode="&#xf7;" horiz-adv-x="420" 
d="M85 258q-11 0 -11 10v65q0 11 11 11h251q11 0 11 -11v-65q0 -10 -11 -10h-251zM211 100q-24 0 -36.5 13.5t-12.5 35.5v16q0 22 12.5 35.5t36.5 13.5t36 -13.5t12 -35.5v-16q0 -22 -12 -35.5t-36 -13.5zM211 386q-24 0 -36.5 14t-12.5 35v16q0 23 12.5 36t36.5 13t36 -13
t12 -36v-16q0 -21 -12 -35t-36 -14z" />
    <glyph glyph-name="oslash" unicode="&#xf8;" horiz-adv-x="364" 
d="M27 -51q-5 0 -6 3.5t1 8.5l49 124l39 47l119 291l6 42l29 70q4 6 10 6h65q10 0 6 -11l-44 -108l-37 -44l-126 -307l-7 -44l-29 -71q-4 -7 -11 -7h-64zM182 -6q-74 0 -112.5 42t-38.5 126v168q0 83 38.5 125t112.5 42q75 0 113 -42t38 -125v-168q0 -84 -38 -126t-113 -42z
M182 86q26 0 37.5 17.5t11.5 59.5v165q0 42 -11.5 60t-37.5 18t-37.5 -18t-11.5 -60v-165q0 -42 12 -59.5t37 -17.5z" />
    <glyph glyph-name="ugrave" unicode="&#xf9;" horiz-adv-x="365" 
d="M125 -6q-47 0 -67.5 30.5t-20.5 96.5v360q0 10 10 10h83q9 0 9 -10v-346q0 -29 7 -39t22 -10q18 0 35.5 13.5t33.5 36.5l14 -58q-25 -37 -58 -60.5t-68 -23.5zM252 0q-8 0 -10 10q-2 18 -3.5 45t-2.5 43l-10 19v364q0 10 10 10h83q9 0 9 -10v-356q0 -38 1 -66t2 -46
q1 -13 -8 -13h-71zM182 557q-10 0 -15 8l-78 122q-3 6 -1.5 9.5t6.5 3.5h74q8 0 12 -8l65 -124q3 -4 1.5 -7.5t-7.5 -3.5h-57z" />
    <glyph glyph-name="uacute" unicode="&#xfa;" horiz-adv-x="365" 
d="M125 -6q-47 0 -67.5 30.5t-20.5 96.5v360q0 10 10 10h83q9 0 9 -10v-346q0 -29 7 -39t22 -10q18 0 35.5 13.5t33.5 36.5l14 -58q-25 -37 -58 -60.5t-68 -23.5zM252 0q-8 0 -10 10q-2 18 -3.5 45t-2.5 43l-10 19v364q0 10 10 10h83q9 0 9 -10v-356q0 -38 1 -66t2 -46
q1 -13 -8 -13h-71zM127 557q-5 0 -6.5 3.5t0.5 7.5l65 124q5 8 13 8h73q5 0 7 -3.5t-2 -9.5l-77 -122q-5 -8 -16 -8h-57z" />
    <glyph glyph-name="ucircumflex" unicode="&#xfb;" horiz-adv-x="365" 
d="M125 -6q-47 0 -67.5 30.5t-20.5 96.5v360q0 10 10 10h83q9 0 9 -10v-346q0 -29 7 -39t22 -10q18 0 35.5 13.5t33.5 36.5l14 -58q-25 -37 -58 -60.5t-68 -23.5zM252 0q-8 0 -10 10q-2 18 -3.5 45t-2.5 43l-10 19v364q0 10 10 10h83q9 0 9 -10v-356q0 -38 1 -66t2 -46
q1 -13 -8 -13h-71zM104 554q-10 -5 -10 4v57q0 9 5 12l78 44q6 4 12 0l79 -44q4 -3 4 -12v-57q0 -8 -10 -4l-79 39z" />
    <glyph glyph-name="udieresis" unicode="&#xfc;" horiz-adv-x="365" 
d="M125 -6q-47 0 -67.5 30.5t-20.5 96.5v360q0 10 10 10h83q9 0 9 -10v-346q0 -29 7 -39t22 -10q18 0 35.5 13.5t33.5 36.5l14 -58q-25 -37 -58 -60.5t-68 -23.5zM252 0q-8 0 -10 10q-2 18 -3.5 45t-2.5 43l-10 19v364q0 10 10 10h83q9 0 9 -10v-356q0 -38 1 -66t2 -46
q1 -13 -8 -13h-71zM115 569q-25 0 -40 14t-15 38v13q0 25 15 38.5t40 13.5t39.5 -13.5t14.5 -38.5v-13q0 -24 -14.5 -38t-39.5 -14zM252 569q-25 0 -39.5 14t-14.5 38v13q0 25 14.5 38.5t39.5 13.5q26 0 40 -13.5t14 -38.5v-13q0 -24 -14 -38t-40 -14z" />
    <glyph glyph-name="yacute" unicode="&#xfd;" horiz-adv-x="352" 
d="M95 -185q-10 0 -7 13l40 174l-114 477q-3 12 7 12h91q10 0 11 -9l34 -201q5 -32 9.5 -69t8.5 -69h3q4 32 8.5 69.5t9.5 68.5l35 202q1 8 10 8h89q5 0 7 -3t0 -9l-151 -655q-2 -9 -10 -9h-81zM121 557q-5 0 -6.5 3.5t0.5 7.5l65 124q5 8 13 8h73q5 0 7 -3.5t-2 -9.5
l-77 -122q-5 -8 -16 -8h-57z" />
    <glyph glyph-name="thorn" unicode="&#xfe;" horiz-adv-x="363" 
d="M46 -185q-9 0 -9 11v846q0 11 9 11h84q9 0 9 -11v-227q23 24 48.5 38t56.5 14q43 0 64.5 -29.5t21.5 -95.5v-219q0 -81 -26 -120t-78 -39q-21 0 -44 6t-43 15v-189q0 -11 -9 -11h-84zM188 82q20 0 30 17t10 56v202q0 27 -7 38t-23 11q-15 0 -29.5 -10t-29.5 -27v-273
q12 -6 24 -10t25 -4z" />
    <glyph glyph-name="ydieresis" unicode="&#xff;" horiz-adv-x="352" 
d="M95 -185q-10 0 -7 13l40 174l-114 477q-3 12 7 12h91q10 0 11 -9l34 -201q5 -32 9.5 -69t8.5 -69h3q4 32 8.5 69.5t9.5 68.5l35 202q1 8 10 8h89q5 0 7 -3t0 -9l-151 -655q-2 -9 -10 -9h-81zM109 569q-25 0 -40 14t-15 38v13q0 25 15 38.5t40 13.5t39.5 -13.5t14.5 -38.5
v-13q0 -24 -14.5 -38t-39.5 -14zM246 569q-25 0 -39.5 14t-14.5 38v13q0 25 14.5 38.5t39.5 13.5q26 0 40 -13.5t14 -38.5v-13q0 -24 -14 -38t-40 -14z" />
    <glyph glyph-name="Amacron" unicode="&#x100;" horiz-adv-x="401" 
d="M8 0q-10 0 -8 12l133 634q2 9 11 9h113q9 0 11 -9l133 -634q2 -12 -7 -12h-95q-8 0 -10 8l-67 403q-6 35 -11.5 69.5t-9.5 68.5h-2q-5 -34 -9.5 -68.5t-10.5 -69.5l-69 -403q-1 -8 -9 -8h-93zM117 144l16 89h132l17 -89h-165zM118 720q-10 0 -10 11v59q0 10 10 10h166
q10 0 10 -10v-59q0 -11 -10 -11h-166z" />
    <glyph glyph-name="amacron" unicode="&#x101;" horiz-adv-x="346" 
d="M233 0q-9 0 -10 10q-2 17 -4 42.5t-3 45.5l-9 12v248q0 32 -7.5 44t-29.5 12t-30.5 -13.5t-5.5 -45.5q1 -11 -10 -11h-72q-11 0 -12 14q-5 66 29 102.5t104 36.5q72 0 104 -32t32 -108v-232q0 -43 1 -70t2 -43q1 -12 -7 -12h-72zM113 -6q-42 0 -65 35t-23 97q0 69 31 109
t103 49l56 7v-65l-36 -5q-28 -3 -42 -23.5t-14 -58.5q0 -29 8 -45t23 -16t30 12.5t37 42.5l8 -64q-33 -41 -58 -58t-58 -17zM103 571q-10 0 -10 11v59q0 11 10 11h145q10 0 10 -11v-59q0 -11 -10 -11h-145z" />
    <glyph glyph-name="Abreve" unicode="&#x102;" horiz-adv-x="401" 
d="M8 0q-10 0 -8 12l133 634q2 9 11 9h113q9 0 11 -9l133 -634q2 -12 -7 -12h-95q-8 0 -10 8l-67 403q-6 35 -11.5 69.5t-9.5 68.5h-2q-5 -34 -9.5 -68.5t-10.5 -69.5l-69 -403q-1 -8 -9 -8h-93zM117 144l16 89h132l17 -89h-165zM201 708q-33 0 -55 10t-36 22q-4 4 -4 11v53
q0 12 10 5q17 -11 37.5 -19t47.5 -8q28 0 47.5 8t36.5 19q4 4 7.5 2.5t3.5 -7.5v-53q0 -8 -5 -11q-14 -12 -35.5 -22t-54.5 -10z" />
    <glyph glyph-name="abreve" unicode="&#x103;" horiz-adv-x="346" 
d="M233 0q-9 0 -10 10q-2 17 -4 42.5t-3 45.5l-9 12v248q0 32 -7.5 44t-29.5 12t-30.5 -13.5t-5.5 -45.5q1 -11 -10 -11h-72q-11 0 -12 14q-5 66 29 102.5t104 36.5q72 0 104 -32t32 -108v-232q0 -43 1 -70t2 -43q1 -12 -7 -12h-72zM113 -6q-42 0 -65 35t-23 97q0 69 31 109
t103 49l56 7v-65l-36 -5q-28 -3 -42 -23.5t-14 -58.5q0 -29 8 -45t23 -16t30 12.5t37 42.5l8 -64q-33 -41 -58 -58t-58 -17zM176 546q-29 0 -50 10t-35 22q-4 4 -4 11v53q0 7 3 8t7 -2q17 -12 36.5 -19.5t42.5 -7.5t42 7.5t36 19.5q4 3 7 2t3 -8v-53q0 -7 -4 -11
q-14 -13 -35 -22.5t-49 -9.5z" />
    <glyph glyph-name="Aogonek" unicode="&#x104;" horiz-adv-x="401" 
d="M8 0q-10 0 -8 12l133 634q2 9 11 9h113q9 0 11 -9l133 -634q2 -12 -7 -12h-95q-8 0 -10 8l-67 403q-6 35 -11.5 69.5t-9.5 68.5h-2q-5 -34 -9.5 -68.5t-10.5 -69.5l-69 -403q-1 -8 -9 -8h-93zM117 144l16 89h132l17 -89h-165zM348 -192q-39 0 -58.5 17.5t-19.5 54.5v10
q0 42 28.5 76t80.5 57l10 -13l1 -5q-21 -18 -33 -40.5t-12 -42.5v-9q0 -15 6 -21t18 -6h9t10 1q8 2 8 -8v-55q0 -8 -7 -10q-11 -3 -21 -4.5t-20 -1.5z" />
    <glyph glyph-name="aogonek" unicode="&#x105;" horiz-adv-x="346" 
d="M233 0q-9 0 -10 10q-2 17 -4 42.5t-3 45.5l-9 12v248q0 32 -7.5 44t-29.5 12t-30.5 -13.5t-5.5 -45.5q1 -11 -10 -11h-72q-11 0 -12 14q-5 66 29 102.5t104 36.5q72 0 104 -32t32 -108v-232q0 -43 1 -70t2 -43q1 -12 -7 -12h-72zM113 -6q-42 0 -65 35t-23 97q0 69 31 109
t103 49l56 7v-65l-36 -5q-28 -3 -42 -23.5t-14 -58.5q0 -29 8 -45t23 -16t30 12.5t37 42.5l8 -64q-33 -41 -58 -58t-58 -17zM263 -192q-39 0 -58.5 17.5t-19.5 54.5v10q0 42 28.5 76t80.5 57l10 -13l1 -5q-21 -18 -33 -40.5t-12 -42.5v-9q0 -15 6 -21t18 -6h9t10 1q8 2 8 -8
v-55q0 -8 -7 -10q-11 -3 -21 -4.5t-20 -1.5z" />
    <glyph glyph-name="Cacute" unicode="&#x106;" horiz-adv-x="428" 
d="M217 -6q-89 0 -135.5 52.5t-46.5 163.5v235q0 108 46.5 162t135.5 54q62 0 104 -28t60.5 -79t10.5 -120q-2 -10 -9 -10h-87q-10 0 -8 11q5 64 -12 97t-60 33q-39 0 -58 -29t-19 -95v-225q0 -68 19.5 -97t58.5 -29q45 0 60 35.5t12 94.5q-1 12 8 12h85q9 0 11 -12
q8 -105 -36.5 -165.5t-139.5 -60.5zM156 711q-5 0 -6.5 3.5t0.5 8.5l56 107q5 8 13 8h73q6 0 7.5 -4t-2.5 -10l-67 -105q-4 -8 -15 -8h-59z" />
    <glyph glyph-name="cacute" unicode="&#x107;" horiz-adv-x="353" 
d="M183 -6q-76 0 -114 43t-38 130v161q0 85 38 127t113 42q47 0 80 -20t48.5 -57t11.5 -86q-1 -14 -11 -14h-73q-5 0 -7.5 3t-1.5 8q2 38 -9 56.5t-37 18.5t-38 -18t-12 -62v-158q0 -45 11.5 -63.5t38.5 -18.5q25 0 35.5 17.5t9.5 56.5q0 13 9 13h75q10 0 10 -11
q1 -84 -33 -126t-106 -42zM124 557q-5 0 -6.5 3.5t0.5 7.5l65 124q5 8 13 8h73q5 0 7 -3.5t-2 -9.5l-77 -122q-5 -8 -16 -8h-57z" />
    <glyph glyph-name="Cdotaccent" unicode="&#x10a;" horiz-adv-x="428" 
d="M217 -6q-89 0 -135.5 52.5t-46.5 163.5v235q0 108 46.5 162t135.5 54q62 0 104 -28t60.5 -79t10.5 -120q-2 -10 -9 -10h-87q-10 0 -8 11q5 64 -12 97t-60 33q-39 0 -58 -29t-19 -95v-225q0 -68 19.5 -97t58.5 -29q45 0 60 35.5t12 94.5q-1 12 8 12h85q9 0 11 -12
q8 -105 -36.5 -165.5t-139.5 -60.5zM215 728q-29 0 -45.5 15t-16.5 41v14q0 28 16.5 42.5t45.5 14.5q30 0 45.5 -14.5t15.5 -42.5v-14q0 -26 -15.5 -41t-45.5 -15z" />
    <glyph glyph-name="cdotaccent" unicode="&#x10b;" horiz-adv-x="353" 
d="M183 -6q-76 0 -114 43t-38 130v161q0 85 38 127t113 42q47 0 80 -20t48.5 -57t11.5 -86q-1 -14 -11 -14h-73q-5 0 -7.5 3t-1.5 8q2 38 -9 56.5t-37 18.5t-38 -18t-12 -62v-158q0 -45 11.5 -63.5t38.5 -18.5q25 0 35.5 17.5t9.5 56.5q0 13 9 13h75q10 0 10 -11
q1 -84 -33 -126t-106 -42zM180 565q-29 0 -45.5 14.5t-16.5 41.5v14q0 28 16.5 42.5t45.5 14.5q30 0 45.5 -14.5t15.5 -42.5v-14q0 -27 -15.5 -41.5t-45.5 -14.5z" />
    <glyph glyph-name="Ccaron" unicode="&#x10c;" horiz-adv-x="428" 
d="M217 -6q-89 0 -135.5 52.5t-46.5 163.5v235q0 108 46.5 162t135.5 54q62 0 104 -28t60.5 -79t10.5 -120q-2 -10 -9 -10h-87q-10 0 -8 11q5 64 -12 97t-60 33q-39 0 -58 -29t-19 -95v-225q0 -68 19.5 -97t58.5 -29q45 0 60 35.5t12 94.5q-1 12 8 12h85q9 0 11 -12
q8 -105 -36.5 -165.5t-139.5 -60.5zM210 718l-85 41q-5 4 -5 12v54q0 8 10 4l86 -35l86 35q10 4 10 -4v-54q0 -8 -5 -12l-85 -41q-6 -3 -12 0z" />
    <glyph glyph-name="ccaron" unicode="&#x10d;" horiz-adv-x="353" 
d="M183 -6q-76 0 -114 43t-38 130v161q0 85 38 127t113 42q47 0 80 -20t48.5 -57t11.5 -86q-1 -14 -11 -14h-73q-5 0 -7.5 3t-1.5 8q2 38 -9 56.5t-37 18.5t-38 -18t-12 -62v-158q0 -45 11.5 -63.5t38.5 -18.5q25 0 35.5 17.5t9.5 56.5q0 13 9 13h75q10 0 10 -11
q1 -84 -33 -126t-106 -42zM174 553l-78 44q-5 3 -5 12v56q0 10 10 5l79 -40l79 40q10 4 10 -5v-56q0 -9 -4 -12l-79 -44q-6 -4 -12 0z" />
    <glyph glyph-name="Dcaron" unicode="&#x10e;" horiz-adv-x="432" 
d="M54 0q-11 0 -11 11v633q0 11 11 11h129q109 0 163.5 -67t54.5 -205v-89q0 -149 -53.5 -221.5t-160.5 -72.5h-133zM148 95h35q61 0 87.5 47.5t26.5 148.5v92q0 91 -28 134t-89 43h-32v-465zM180 719l-85 41q-5 4 -5 12v54q0 8 10 4l86 -35l86 35q10 4 10 -4v-54
q0 -8 -5 -12l-85 -41q-6 -3 -12 0z" />
    <glyph glyph-name="dcaron" unicode="&#x10f;" horiz-adv-x="364" 
d="M124 -6q-46 0 -68.5 31t-22.5 98v230q0 72 27.5 108t80.5 36q28 0 52.5 -7t43.5 -18v-80q-36 18 -59 18q-21 0 -32 -16t-11 -50v-211q0 -26 8 -36.5t25 -10.5q16 0 32 11.5t34 36.5l12 -60q-24 -37 -55 -58.5t-67 -21.5zM251 0q-8 0 -10 10q-2 18 -3.5 45t-2.5 43l-10 15
v559q0 11 10 11h83q9 0 9 -11v-547q0 -38 1 -66t2 -46q1 -13 -8 -13h-71zM395 531q-7 0 -6 9l14 60q-10 3 -17.5 11.5t-7.5 23.5v15q0 22 12.5 32.5t34.5 10.5q21 0 33 -10.5t12 -31.5v-16q0 -9 -2 -19.5t-7 -22.5l-18 -55q-3 -7 -8 -7h-40z" />
    <glyph glyph-name="Dcroat" unicode="&#x110;" horiz-adv-x="436" 
d="M14 291q-9 0 -9 11v60q0 11 9 11h33h164q9 0 9 -11v-60q0 -11 -9 -11h-197zM58 0q-11 0 -11 11v633q0 11 11 11h128q110 0 164.5 -67t54.5 -205v-89q0 -149 -53.5 -221.5t-160.5 -72.5h-133zM152 95h35q61 0 87 47.5t26 148.5v92q0 91 -27.5 134t-88.5 43h-32v-465z" />
    <glyph glyph-name="dcroat" unicode="&#x111;" horiz-adv-x="368" 
d="M168 554q-9 0 -9 11v53q0 10 9 10h192q9 0 9 -10v-53q0 -11 -9 -11h-33h-159zM124 -6q-46 0 -68.5 31t-22.5 98v230q0 72 27.5 108t80.5 36q28 0 52.5 -7t43.5 -18v-80q-36 18 -59 18q-21 0 -32 -16t-11 -50v-211q0 -26 8 -36.5t25 -10.5q16 0 32 11.5t34 36.5l12 -60
q-24 -37 -55 -58.5t-67 -21.5zM251 0q-8 0 -10 10q-2 18 -3.5 45t-2.5 43l-10 15v559q0 11 10 11h83q9 0 9 -11v-547q0 -38 1 -66t2 -46q1 -13 -8 -13h-71z" />
    <glyph glyph-name="Emacron" unicode="&#x112;" horiz-adv-x="362" 
d="M53 0q-10 0 -10 11v633q0 11 9 11h266q9 0 9 -11v-73q0 -11 -9 -11h-170v-182h155q9 0 9 -11v-69q0 -11 -9 -11h-155v-192h170q9 0 9 -11v-73q0 -11 -9 -11h-265zM102 720q-10 0 -10 11v59q0 10 10 10h166q10 0 10 -10v-59q0 -11 -10 -11h-166z" />
    <glyph glyph-name="emacron" unicode="&#x113;" horiz-adv-x="359" 
d="M182 -6q-76 0 -113.5 42t-37.5 130v163q0 85 38 126.5t110 41.5q75 0 112.5 -42t37.5 -129v-94q0 -10 -10 -10h-187v-61q0 -44 11.5 -63t38.5 -19q24 0 34.5 13.5t9.5 42.5q-1 11 8 11h79q9 0 9 -10q2 -70 -33.5 -106t-106.5 -36zM132 293h96v48q0 38 -11.5 55t-36.5 17
q-24 0 -36 -17.5t-12 -54.5v-48zM107 571q-10 0 -10 11v59q0 11 10 11h145q10 0 10 -11v-59q0 -11 -10 -11h-145z" />
    <glyph glyph-name="Edotaccent" unicode="&#x116;" horiz-adv-x="362" 
d="M53 0q-10 0 -10 11v633q0 11 9 11h266q9 0 9 -11v-73q0 -11 -9 -11h-170v-182h155q9 0 9 -11v-69q0 -11 -9 -11h-155v-192h170q9 0 9 -11v-73q0 -11 -9 -11h-265zM185 728q-29 0 -45.5 15t-16.5 41v14q0 28 16.5 42.5t45.5 14.5q30 0 45.5 -14.5t15.5 -42.5v-14
q0 -26 -15.5 -41t-45.5 -15z" />
    <glyph glyph-name="edotaccent" unicode="&#x117;" horiz-adv-x="359" 
d="M182 -6q-76 0 -113.5 42t-37.5 130v163q0 85 38 126.5t110 41.5q75 0 112.5 -42t37.5 -129v-94q0 -10 -10 -10h-187v-61q0 -44 11.5 -63t38.5 -19q24 0 34.5 13.5t9.5 42.5q-1 11 8 11h79q9 0 9 -10q2 -70 -33.5 -106t-106.5 -36zM132 293h96v48q0 38 -11.5 55t-36.5 17
q-24 0 -36 -17.5t-12 -54.5v-48zM180 565q-29 0 -45.5 14.5t-16.5 41.5v14q0 28 16.5 42.5t45.5 14.5q30 0 45.5 -14.5t15.5 -42.5v-14q0 -27 -15.5 -41.5t-45.5 -14.5z" />
    <glyph glyph-name="Eogonek" unicode="&#x118;" horiz-adv-x="362" 
d="M53 0q-10 0 -10 11v633q0 11 9 11h266q9 0 9 -11v-73q0 -11 -9 -11h-170v-182h155q9 0 9 -11v-69q0 -11 -9 -11h-155v-192h170q9 0 9 -11v-73q0 -11 -9 -11h-265zM261 -192q-39 0 -58.5 17.5t-19.5 54.5v10q0 42 28.5 76t80.5 57l10 -13l1 -5q-21 -18 -33 -40.5
t-12 -42.5v-9q0 -15 6 -21t18 -6h9t10 1q8 2 8 -8v-55q0 -8 -7 -10q-11 -3 -21 -4.5t-20 -1.5z" />
    <glyph glyph-name="eogonek" unicode="&#x119;" horiz-adv-x="359" 
d="M182 -6q-76 0 -113.5 42t-37.5 130v163q0 85 38 126.5t110 41.5q75 0 112.5 -42t37.5 -129v-94q0 -10 -10 -10h-187v-61q0 -44 11.5 -63t38.5 -19q24 0 34.5 13.5t9.5 42.5q-1 11 8 11h79q9 0 9 -10q2 -70 -33.5 -106t-106.5 -36zM132 293h96v48q0 38 -11.5 55t-36.5 17
q-24 0 -36 -17.5t-12 -54.5v-48zM207 -191q-39 0 -58.5 17.5t-19.5 54.5v10q0 42 28.5 76t80.5 57l10 -13l1 -5q-21 -18 -33 -40.5t-12 -42.5v-9q0 -15 6 -21t18 -6h9t10 1q8 2 8 -8v-55q0 -8 -7 -10q-11 -3 -21 -4.5t-20 -1.5z" />
    <glyph glyph-name="Ecaron" unicode="&#x11a;" horiz-adv-x="362" 
d="M53 0q-10 0 -10 11v633q0 11 9 11h266q9 0 9 -11v-73q0 -11 -9 -11h-170v-182h155q9 0 9 -11v-69q0 -11 -9 -11h-155v-192h170q9 0 9 -11v-73q0 -11 -9 -11h-265zM180 718l-85 41q-5 4 -5 12v54q0 8 10 4l86 -35l86 35q10 4 10 -4v-54q0 -8 -5 -12l-85 -41q-6 -3 -12 0z
" />
    <glyph glyph-name="ecaron" unicode="&#x11b;" horiz-adv-x="359" 
d="M182 -6q-76 0 -113.5 42t-37.5 130v163q0 85 38 126.5t110 41.5q75 0 112.5 -42t37.5 -129v-94q0 -10 -10 -10h-187v-61q0 -44 11.5 -63t38.5 -19q24 0 34.5 13.5t9.5 42.5q-1 11 8 11h79q9 0 9 -10q2 -70 -33.5 -106t-106.5 -36zM132 293h96v48q0 38 -11.5 55t-36.5 17
q-24 0 -36 -17.5t-12 -54.5v-48zM173 553l-78 44q-5 3 -5 12v56q0 10 10 5l79 -40l79 40q10 4 10 -5v-56q0 -9 -4 -12l-79 -44q-6 -4 -12 0z" />
    <glyph glyph-name="Gbreve" unicode="&#x11e;" horiz-adv-x="438" 
d="M188 -6q-75 0 -114 51t-39 155v246q0 105 46.5 160t134.5 55q90 0 136 -57t39 -155q-1 -11 -9 -11l-87 1q-9 0 -8 10q5 55 -13 85.5t-57 30.5q-40 0 -59 -29t-19 -91v-237q0 -64 16.5 -91t57.5 -27q38 0 58 30.5t20 92.5v45h-69q-9 0 -9 11v59q0 11 9 11h162q9 0 9 -11
v-183q0 -48 1.5 -78.5t4.5 -54.5q2 -12 -8 -12h-68q-9 0 -10 9q-2 12 -3.5 28.5t-1.5 40.5h-2q-15 -39 -43 -61.5t-75 -22.5zM216 708q-33 0 -55 10t-36 22q-4 4 -4 11v53q0 12 10 5q17 -11 37.5 -19t47.5 -8q28 0 47.5 8t36.5 19q4 4 7.5 2.5t3.5 -7.5v-53q0 -8 -5 -11
q-14 -12 -35.5 -22t-54.5 -10z" />
    <glyph glyph-name="gbreve" unicode="&#x11f;" horiz-adv-x="355" 
d="M172 -191q-83 0 -121 29t-38 87q0 42 18.5 71t55.5 48l69 -24q-19 -11 -30.5 -29.5t-11.5 -42.5q0 -28 15 -41t48 -13q39 -1 54 13.5t15 44.5q0 28 -11 41.5t-39 16.5l-78 7q-40 4 -61.5 28t-21.5 61q0 25 10 43t25.5 31t31.5 22l57 -31q-17 -6 -26.5 -16t-9.5 -23
t7.5 -21t27.5 -10l75 -9q58 -6 84 -39t26 -103q0 -72 -40 -106.5t-131 -34.5zM180 159q-73 0 -105 40.5t-32 130.5q0 88 32 127.5t105 39.5q74 0 105 -39.5t31 -127.5q0 -90 -31 -130.5t-105 -40.5zM180 242q25 0 32.5 18t7.5 68t-7.5 68t-32.5 18q-24 0 -32.5 -18t-8.5 -68
t8.5 -68t32.5 -18zM178 546q-29 0 -50 10t-35 22q-4 4 -4 11v53q0 7 3 8t7 -2q17 -12 36.5 -19.5t42.5 -7.5t42 7.5t36 19.5q4 3 7 2t3 -8v-53q0 -7 -4 -11q-14 -13 -35 -22.5t-49 -9.5z" />
    <glyph glyph-name="Gdotaccent" unicode="&#x120;" horiz-adv-x="438" 
d="M188 -6q-75 0 -114 51t-39 155v246q0 105 46.5 160t134.5 55q90 0 136 -57t39 -155q-1 -11 -9 -11l-87 1q-9 0 -8 10q5 55 -13 85.5t-57 30.5q-40 0 -59 -29t-19 -91v-237q0 -64 16.5 -91t57.5 -27q38 0 58 30.5t20 92.5v45h-69q-9 0 -9 11v59q0 11 9 11h162q9 0 9 -11
v-183q0 -48 1.5 -78.5t4.5 -54.5q2 -12 -8 -12h-68q-9 0 -10 9q-2 12 -3.5 28.5t-1.5 40.5h-2q-15 -39 -43 -61.5t-75 -22.5zM216 728q-29 0 -45.5 15t-16.5 41v14q0 28 16.5 42.5t45.5 14.5q30 0 45.5 -14.5t15.5 -42.5v-14q0 -26 -15.5 -41t-45.5 -15z" />
    <glyph glyph-name="gdotaccent" unicode="&#x121;" horiz-adv-x="355" 
d="M172 -191q-83 0 -121 29t-38 87q0 42 18.5 71t55.5 48l69 -24q-19 -11 -30.5 -29.5t-11.5 -42.5q0 -28 15 -41t48 -13q39 -1 54 13.5t15 44.5q0 28 -11 41.5t-39 16.5l-78 7q-40 4 -61.5 28t-21.5 61q0 25 10 43t25.5 31t31.5 22l57 -31q-17 -6 -26.5 -16t-9.5 -23
t7.5 -21t27.5 -10l75 -9q58 -6 84 -39t26 -103q0 -72 -40 -106.5t-131 -34.5zM180 159q-73 0 -105 40.5t-32 130.5q0 88 32 127.5t105 39.5q74 0 105 -39.5t31 -127.5q0 -90 -31 -130.5t-105 -40.5zM180 242q25 0 32.5 18t7.5 68t-7.5 68t-32.5 18q-24 0 -32.5 -18t-8.5 -68
t8.5 -68t32.5 -18zM178 565q-29 0 -45.5 14.5t-16.5 41.5v14q0 28 16.5 42.5t45.5 14.5q30 0 45.5 -14.5t15.5 -42.5v-14q0 -27 -15.5 -41.5t-45.5 -14.5z" />
    <glyph glyph-name="uni0122" unicode="&#x122;" horiz-adv-x="438" 
d="M188 -6q-75 0 -114 51t-39 155v246q0 105 46.5 160t134.5 55q90 0 136 -57t39 -155q-1 -11 -9 -11l-87 1q-9 0 -8 10q5 55 -13 85.5t-57 30.5q-40 0 -59 -29t-19 -91v-237q0 -64 16.5 -91t57.5 -27q38 0 58 30.5t20 92.5v45h-69q-9 0 -9 11v59q0 11 9 11h162q9 0 9 -11
v-183q0 -48 1.5 -78.5t4.5 -54.5q2 -12 -8 -12h-68q-9 0 -10 9q-2 12 -3.5 28.5t-1.5 40.5h-2q-15 -39 -43 -61.5t-75 -22.5zM179 -242q-8 0 -7 10l16 70q-10 5 -17.5 14t-7.5 29v17q0 23 13.5 35t35.5 12q25 0 37.5 -12t12.5 -35v-17q0 -14 -2 -25t-7 -25l-23 -66
q-3 -7 -9 -7h-42z" />
    <glyph glyph-name="uni0123" unicode="&#x123;" horiz-adv-x="355" 
d="M172 -191q-83 0 -121 29t-38 87q0 42 18.5 71t55.5 48l69 -24q-19 -11 -30.5 -29.5t-11.5 -42.5q0 -28 15 -41t48 -13q39 -1 54 13.5t15 44.5q0 28 -11 41.5t-39 16.5l-78 7q-40 4 -61.5 28t-21.5 61q0 25 10 43t25.5 31t31.5 22l57 -31q-17 -6 -26.5 -16t-9.5 -23
t7.5 -21t27.5 -10l75 -9q58 -6 84 -39t26 -103q0 -72 -40 -106.5t-131 -34.5zM180 159q-73 0 -105 40.5t-32 130.5q0 88 32 127.5t105 39.5q74 0 105 -39.5t31 -127.5q0 -90 -31 -130.5t-105 -40.5zM180 242q25 0 32.5 18t7.5 68t-7.5 68t-32.5 18q-24 0 -32.5 -18t-8.5 -68
t8.5 -68t32.5 -18zM177 559q-24 0 -36.5 12t-12.5 35v17q0 14 2 25t7 24l23 67q3 7 8 7h43q8 0 6 -10l-16 -70q11 -5 18.5 -14.5t7.5 -29.5v-16q0 -23 -13.5 -35t-36.5 -12z" />
    <glyph glyph-name="Hbar" unicode="&#x126;" horiz-adv-x="444" 
d="M11 509q-10 0 -10 11v55q0 11 10 11h422q9 0 9 -11v-55q0 -11 -9 -11h-32h-358h-32zM53 0q-10 0 -10 11v633q0 11 10 11h85q10 0 10 -11v-262h149v262q0 11 9 11h85q10 0 10 -11v-633q0 -11 -10 -11h-85q-9 0 -9 11v277h-149v-277q0 -11 -10 -11h-85z" />
    <glyph glyph-name="hbar" unicode="&#x127;" horiz-adv-x="375" 
d="M9 554q-10 0 -10 11v53q0 10 10 10h191q9 0 9 -10v-53q0 -11 -9 -11h-159h-32zM245 0q-9 0 -9 11v346q0 26 -8 37.5t-25 11.5q-15 0 -31.5 -11.5t-33.5 -32.5l-14 57q27 35 58 56.5t69 21.5q44 0 65.5 -30.5t21.5 -95.5v-360q0 -11 -9 -11h-84zM50 0q-9 0 -9 11v661
q0 11 9 11h84q9 0 9 -11v-661q0 -11 -9 -11h-84z" />
    <glyph glyph-name="Imacron" unicode="&#x12a;" horiz-adv-x="191" 
d="M52 0q-9 0 -9 11v633q0 11 9 11h87q9 0 9 -11v-633q0 -11 -9 -11h-87zM14 720q-10 0 -10 11v59q0 10 10 10h166q10 0 10 -10v-59q0 -11 -10 -11h-166z" />
    <glyph glyph-name="imacron" unicode="&#x12b;" horiz-adv-x="177" 
d="M46 0q-9 0 -9 11v470q0 10 9 10h84q9 0 9 -10v-470q0 -11 -9 -11h-84zM16 571q-10 0 -10 11v59q0 11 10 11h145q10 0 10 -11v-59q0 -11 -10 -11h-145z" />
    <glyph glyph-name="Iogonek" unicode="&#x12e;" horiz-adv-x="191" 
d="M52 0q-9 0 -9 11v633q0 11 9 11h87q9 0 9 -11v-633q0 -11 -9 -11h-87zM102 -192q-39 0 -58.5 17.5t-19.5 54.5v10q0 42 28.5 76t80.5 57l10 -13l1 -5q-21 -18 -33 -40.5t-12 -42.5v-9q0 -15 6 -21t18 -6h9t10 1q8 2 8 -8v-55q0 -8 -7 -10q-11 -3 -21 -4.5t-20 -1.5z" />
    <glyph glyph-name="iogonek" unicode="&#x12f;" horiz-adv-x="177" 
d="M46 0q-9 0 -9 11v470q0 10 9 10h84q9 0 9 -10v-470q0 -11 -9 -11h-84zM89 565q-29 0 -45.5 14.5t-16.5 41.5v14q0 28 16.5 42.5t45.5 14.5q30 0 45.5 -14.5t15.5 -42.5v-14q0 -27 -15.5 -41.5t-45.5 -14.5zM85 -192q-39 0 -58.5 17.5t-19.5 54.5v10q0 42 28.5 76t80.5 57
l10 -13l1 -5q-21 -18 -33 -40.5t-12 -42.5v-9q0 -15 6 -21t18 -6h9t10 1q8 2 8 -8v-55q0 -8 -7 -10q-11 -3 -21 -4.5t-20 -1.5z" />
    <glyph glyph-name="Idotaccent" unicode="&#x130;" horiz-adv-x="191" 
d="M52 0q-9 0 -9 11v633q0 11 9 11h87q9 0 9 -11v-633q0 -11 -9 -11h-87zM97 728q-29 0 -45.5 15t-16.5 41v14q0 28 16.5 42.5t45.5 14.5q30 0 45.5 -14.5t15.5 -42.5v-14q0 -26 -15.5 -41t-45.5 -15z" />
    <glyph glyph-name="dotlessi" unicode="&#x131;" horiz-adv-x="177" 
d="M46 0q-9 0 -9 11v470q0 10 9 10h84q9 0 9 -10v-470q0 -11 -9 -11h-84z" />
    <glyph glyph-name="IJ" unicode="&#x132;" horiz-adv-x="381" 
d="M52 0q-9 0 -9 11v633q0 11 9 11h87q9 0 9 -11v-633q0 -11 -9 -11h-87zM214 -149q-9 -4 -12 7l-22 71q-2 6 -0.5 10t5.5 5q17 7 28 20.5t16 40t5 71.5v568q0 11 9 11h87q9 0 9 -11v-564q0 -73 -14 -120t-42 -73t-69 -36z" />
    <glyph glyph-name="ij" unicode="&#x133;" horiz-adv-x="345" 
d="M46 0q-9 0 -9 11v470q0 10 9 10h84q9 0 9 -10v-470q0 -11 -9 -11h-84zM89 565q-29 0 -45.5 14.5t-16.5 41.5v14q0 28 16.5 42.5t45.5 14.5q30 0 45.5 -14.5t15.5 -42.5v-14q0 -27 -15.5 -41.5t-45.5 -14.5zM226 -188q-3 -1 -6 -1t-5 4l-49 59q-8 9 0 15q27 25 35.5 66
t8.5 112v414q0 10 9 10h84q9 0 9 -10v-417q0 -64 -7 -111t-25.5 -81t-53.5 -60zM263 565q-29 0 -45.5 14.5t-16.5 41.5v14q0 28 16.5 42.5t45.5 14.5q30 0 45.5 -14.5t15.5 -42.5v-14q0 -27 -15.5 -41.5t-45.5 -14.5z" />
    <glyph glyph-name="uni0136" unicode="&#x136;" horiz-adv-x="412" 
d="M52 0q-9 0 -9 11v633q0 11 9 11h87q9 0 9 -11v-164q0 -20 -1 -45.5t-1.5 -50t-2.5 -45.5h2q11 31 23.5 66.5t29.5 73.5l82 170q2 6 10 6h97q12 0 5 -13l-125 -257l142 -372q6 -13 -6 -13h-103q-8 0 -10 7l-96 279l-46 -87v-188q0 -11 -9 -11h-87zM178 -242q-8 0 -7 10
l16 70q-10 5 -17.5 14t-7.5 29v17q0 23 13.5 35t35.5 12q25 0 37.5 -12t12.5 -35v-17q0 -14 -2 -25t-7 -25l-23 -66q-3 -7 -9 -7h-42z" />
    <glyph glyph-name="uni0137" unicode="&#x137;" horiz-adv-x="358" 
d="M46 0q-9 0 -9 11v661q0 11 9 11h84q9 0 9 -11v-257v-42.5t-1 -44.5t-2 -42h1q10 26 21 49.5t23 48.5l53 102q3 5 10 5h93q11 0 6 -12l-105 -186l113 -280q5 -13 -6 -13h-95q-8 0 -10 7l-72 196l-29 -52v-140q0 -11 -8 -11h-85zM157 -245q-8 0 -7 9l16 71q-10 5 -17.5 14
t-7.5 29v16q0 24 13.5 36t35.5 12q25 0 37.5 -12t12.5 -36v-17q0 -13 -2 -24t-7 -25l-23 -66q-3 -7 -9 -7h-42z" />
    <glyph glyph-name="kgreenlandic" unicode="&#x138;" horiz-adv-x="358" 
d="M46 0q-9 0 -9 11v470q0 10 9 10h84q9 0 9 -10v-69v-41t-1 -45t-2 -44h1q10 26 21 51.5t23 50.5l53 102q3 5 10 5h93q11 0 6 -12l-105 -186l113 -280q5 -13 -6 -13h-95q-8 0 -10 7l-71 197l-30 -53v-140q0 -11 -8 -11h-85z" />
    <glyph glyph-name="Lacute" unicode="&#x139;" horiz-adv-x="330" 
d="M53 0q-10 0 -10 11v633q0 11 10 11h85q10 0 10 -11v-549h159q10 0 10 -11v-73q0 -11 -10 -11h-254zM38 711q-5 0 -6.5 3.5t0.5 8.5l56 107q5 8 13 8h73q6 0 7.5 -4t-2.5 -10l-67 -105q-4 -8 -15 -8h-59z" />
    <glyph glyph-name="lacute" unicode="&#x13a;" horiz-adv-x="177" 
d="M46 0q-9 0 -9 11v661q0 11 9 11h84q9 0 9 -11v-661q0 -11 -9 -11h-84zM30 739q-5 0 -6.5 3.5t0.5 8.5l56 107q5 8 13 8h73q6 0 7.5 -4t-2.5 -10l-67 -105q-4 -8 -15 -8h-59z" />
    <glyph glyph-name="uni013B" unicode="&#x13b;" horiz-adv-x="330" 
d="M53 0q-10 0 -10 11v633q0 11 10 11h85q10 0 10 -11v-549h159q10 0 10 -11v-73q0 -11 -10 -11h-254zM148 -242q-8 0 -7 10l16 70q-10 5 -17.5 14t-7.5 29v17q0 23 13.5 35t35.5 12q25 0 37.5 -12t12.5 -35v-17q0 -14 -2 -25t-7 -25l-23 -66q-3 -7 -9 -7h-42z" />
    <glyph glyph-name="uni013C" unicode="&#x13c;" horiz-adv-x="177" 
d="M46 0q-9 0 -9 11v661q0 11 9 11h84q9 0 9 -11v-661q0 -11 -9 -11h-84zM55 -245q-8 0 -7 9l16 71q-10 5 -17.5 14t-7.5 29v16q0 24 13.5 36t35.5 12q25 0 37.5 -12t12.5 -36v-17q0 -13 -2 -24t-7 -25l-23 -66q-3 -7 -9 -7h-42z" />
    <glyph glyph-name="Lcaron" unicode="&#x13d;" horiz-adv-x="330" 
d="M53 0q-10 0 -10 11v633q0 11 10 11h85q10 0 10 -11v-549h159q10 0 10 -11v-73q0 -11 -10 -11h-254zM221 505q-7 0 -6 9l14 60q-10 3 -17.5 11.5t-7.5 23.5v15q0 22 12.5 32.5t34.5 10.5q21 0 33 -10.5t12 -31.5v-16q0 -9 -2 -19.5t-7 -22.5l-18 -55q-3 -7 -8 -7h-40z" />
    <glyph glyph-name="lcaron" unicode="&#x13e;" horiz-adv-x="168" 
d="M46 0q-9 0 -9 11v661q0 11 9 11h84q9 0 9 -11v-661q0 -11 -9 -11h-84zM197 531q-7 0 -6 9l14 60q-10 3 -17.5 11.5t-7.5 23.5v15q0 22 12.5 32.5t34.5 10.5q21 0 33 -10.5t12 -31.5v-16q0 -9 -2 -19.5t-7 -22.5l-18 -55q-3 -7 -8 -7h-40z" />
    <glyph glyph-name="Lslash" unicode="&#x141;" horiz-adv-x="333" 
d="M7 256q-8 -5 -8 6v69q0 8 6 11l219 121q10 5 10 -6v-69q0 -8 -6 -11zM55 0q-9 0 -9 11v633q0 11 9 11h86q9 0 9 -11v-549h160q10 0 10 -11v-73q0 -11 -10 -11h-255z" />
    <glyph glyph-name="lslash" unicode="&#x142;" horiz-adv-x="177" 
d="M7 332q-2 -2 -5 -1t-3 5v67q0 7 6 10l164 98q9 4 9 -5v-66q0 -7 -7 -11l-134 -77zM46 0q-9 0 -9 11v661q0 11 9 11h84q9 0 9 -11v-661q0 -11 -9 -11h-84z" />
    <glyph glyph-name="Nacute" unicode="&#x143;" horiz-adv-x="445" 
d="M52 0q-9 0 -9 11v633q0 11 9 11h115q8 0 10 -8l91 -330q7 -25 14.5 -56t15 -62.5t11.5 -55.5h2q-1 20 -2.5 46.5t-3 55t-2 55t-0.5 46.5v299q0 10 9 10h81q9 0 9 -10v-634q0 -11 -9 -11h-114q-7 0 -10 7l-91 323q-13 47 -23 93.5t-18 86.5h-2q2 -29 3.5 -68t2.5 -77.5
t1 -67.5v-286q0 -11 -8 -11h-82zM164 711q-5 0 -6.5 3.5t0.5 8.5l56 107q5 8 13 8h73q6 0 7.5 -4t-2.5 -10l-67 -105q-4 -8 -15 -8h-59z" />
    <glyph glyph-name="nacute" unicode="&#x144;" horiz-adv-x="371" 
d="M241 0q-9 0 -9 11v346q0 26 -8 37.5t-25 11.5q-15 0 -31.5 -11.5t-33.5 -32.5l-14 57q27 35 58.5 56.5t68.5 21.5q44 0 65.5 -30.5t21.5 -95.5v-360q0 -11 -10 -11h-83zM47 0q-10 0 -10 11v356q0 38 -0.5 66t-2.5 46q-1 12 8 12h71q9 0 11 -10q2 -17 4 -43.5t2 -43.5
l9 -19v-364q0 -11 -9 -11h-83zM133 557q-5 0 -6.5 3.5t0.5 7.5l65 124q5 8 13 8h73q5 0 7 -3.5t-2 -9.5l-77 -122q-5 -8 -16 -8h-57z" />
    <glyph glyph-name="uni0145" unicode="&#x145;" horiz-adv-x="445" 
d="M52 0q-9 0 -9 11v633q0 11 9 11h115q8 0 10 -8l91 -330q7 -25 14.5 -56t15 -62.5t11.5 -55.5h2q-1 20 -2.5 46.5t-3 55t-2 55t-0.5 46.5v299q0 10 9 10h81q9 0 9 -10v-634q0 -11 -9 -11h-114q-7 0 -10 7l-91 323q-13 47 -23 93.5t-18 86.5h-2q2 -29 3.5 -68t2.5 -77.5
t1 -67.5v-286q0 -11 -8 -11h-82zM188 -242q-8 0 -7 10l16 70q-10 5 -17.5 14t-7.5 29v17q0 23 13.5 35t35.5 12q25 0 37.5 -12t12.5 -35v-17q0 -14 -2 -25t-7 -25l-23 -66q-3 -7 -9 -7h-42z" />
    <glyph glyph-name="uni0146" unicode="&#x146;" horiz-adv-x="371" 
d="M241 0q-9 0 -9 11v346q0 26 -8 37.5t-25 11.5q-15 0 -31.5 -11.5t-33.5 -32.5l-14 57q27 35 58.5 56.5t68.5 21.5q44 0 65.5 -30.5t21.5 -95.5v-360q0 -11 -10 -11h-83zM47 0q-10 0 -10 11v356q0 38 -0.5 66t-2.5 46q-1 12 8 12h71q9 0 11 -10q2 -17 4 -43.5t2 -43.5
l9 -19v-364q0 -11 -9 -11h-83zM154 -245q-8 0 -7 9l16 71q-10 5 -17.5 14t-7.5 29v16q0 24 13.5 36t35.5 12q25 0 37.5 -12t12.5 -36v-17q0 -13 -2 -24t-7 -25l-23 -66q-3 -7 -9 -7h-42z" />
    <glyph glyph-name="Ncaron" unicode="&#x147;" horiz-adv-x="445" 
d="M52 0q-9 0 -9 11v633q0 11 9 11h115q8 0 10 -8l91 -330q7 -25 14.5 -56t15 -62.5t11.5 -55.5h2q-1 20 -2.5 46.5t-3 55t-2 55t-0.5 46.5v299q0 10 9 10h81q9 0 9 -10v-634q0 -11 -9 -11h-114q-7 0 -10 7l-91 323q-13 47 -23 93.5t-18 86.5h-2q2 -29 3.5 -68t2.5 -77.5
t1 -67.5v-286q0 -11 -8 -11h-82zM217 718l-85 41q-5 4 -5 12v54q0 8 10 4l86 -35l86 35q10 4 10 -4v-54q0 -8 -5 -12l-85 -41q-6 -3 -12 0z" />
    <glyph glyph-name="ncaron" unicode="&#x148;" horiz-adv-x="371" 
d="M241 0q-9 0 -9 11v346q0 26 -8 37.5t-25 11.5q-15 0 -31.5 -11.5t-33.5 -32.5l-14 57q27 35 58.5 56.5t68.5 21.5q44 0 65.5 -30.5t21.5 -95.5v-360q0 -11 -10 -11h-83zM47 0q-10 0 -10 11v356q0 38 -0.5 66t-2.5 46q-1 12 8 12h71q9 0 11 -10q2 -17 4 -43.5t2 -43.5
l9 -19v-364q0 -11 -9 -11h-83zM182 553l-78 44q-5 3 -5 12v56q0 10 10 5l79 -40l79 40q10 4 10 -5v-56q0 -9 -4 -12l-79 -44q-6 -4 -12 0z" />
    <glyph glyph-name="Eng" unicode="&#x14a;" horiz-adv-x="445" 
d="M304 -184l-48 60q-8 8 -1 14q20 17 30 43.5t12 66.5h-18q-7 0 -10 7l-91 323q-13 47 -23 93.5t-18 86.5h-2q2 -29 3.5 -68t2.5 -77.5t1 -67.5v-286q0 -11 -8 -11h-82q-9 0 -9 11v633q0 11 9 11h115q8 0 10 -8l91 -330q7 -25 14.5 -56t15 -62.5t11.5 -55.5h2
q-1 20 -2.5 46.5t-3 55t-2 55t-0.5 46.5v299q0 10 9 10h81q9 0 9 -10v-595q-1 -60 -8.5 -103.5t-26 -76t-52.5 -56.5q-6 -5 -11 2z" />
    <glyph glyph-name="eng" unicode="&#x14b;" horiz-adv-x="371" 
d="M247 -186q-6 -5 -11 2l-48 60q-8 8 -1 14q28 24 36.5 66t8.5 113v288q0 26 -8 37.5t-25 11.5q-14 0 -29 -9.5t-31 -27.5v-358q0 -11 -9 -11h-83q-10 0 -10 11v356q0 38 -0.5 66t-2.5 46q-1 12 8 12h71q9 0 11 -10t2.5 -23.5t1.5 -27.5q25 31 55 49t64 18q44 0 65.5 -30.5
t21.5 -95.5v-305q0 -65 -7 -111.5t-25.5 -80.5t-54.5 -60z" />
    <glyph glyph-name="Omacron" unicode="&#x14c;" horiz-adv-x="434" 
d="M217 -6q-89 0 -135.5 52t-46.5 155v252q0 104 46.5 156t135.5 52q88 0 135 -52t47 -156v-252q0 -103 -47 -155t-135 -52zM217 90q39 0 58.5 27t19.5 89v242q0 63 -19.5 90t-58.5 27t-58.5 -27t-19.5 -90v-242q0 -62 19.5 -89t58.5 -27zM133 720q-10 0 -10 11v59
q0 10 10 10h166q10 0 10 -10v-59q0 -11 -10 -11h-166z" />
    <glyph glyph-name="omacron" unicode="&#x14d;" horiz-adv-x="364" 
d="M182 -6q-74 0 -112.5 42t-38.5 126v168q0 83 38.5 125t112.5 42q75 0 113 -42t38 -125v-168q0 -84 -38 -126t-113 -42zM182 86q26 0 37.5 17.5t11.5 59.5v165q0 42 -11.5 60t-37.5 18t-37.5 -18t-11.5 -60v-165q0 -42 12 -59.5t37 -17.5zM109 571q-10 0 -10 11v59
q0 11 10 11h145q10 0 10 -11v-59q0 -11 -10 -11h-145z" />
    <glyph glyph-name="Ohungarumlaut" unicode="&#x150;" horiz-adv-x="434" 
d="M217 -6q-89 0 -135.5 52t-46.5 155v252q0 104 46.5 156t135.5 52q88 0 135 -52t47 -156v-252q0 -103 -47 -155t-135 -52zM217 90q39 0 58.5 27t19.5 89v242q0 63 -19.5 90t-58.5 27t-58.5 -27t-19.5 -90v-242q0 -62 19.5 -89t58.5 -27zM245 711q-12 0 -7 13l42 107
q3 9 11 9h69q5 0 7 -3.5t-1 -9.5l-53 -107q-4 -9 -13 -9h-55zM120 711q-12 0 -7 13l43 107q3 9 11 9h69q4 0 6 -3.5t-1 -9.5l-53 -107q-3 -9 -12 -9h-56z" />
    <glyph glyph-name="ohungarumlaut" unicode="&#x151;" horiz-adv-x="364" 
d="M182 -6q-74 0 -112.5 42t-38.5 126v168q0 83 38.5 125t112.5 42q75 0 113 -42t38 -125v-168q0 -84 -38 -126t-113 -42zM182 86q26 0 37.5 17.5t11.5 59.5v165q0 42 -11.5 60t-37.5 18t-37.5 -18t-11.5 -60v-165q0 -42 12 -59.5t37 -17.5zM90 557q-12 0 -7 13l50 126
q4 9 11 9h71q4 0 6.5 -3t-0.5 -9l-63 -127q-4 -9 -13 -9h-55zM215 557q-13 0 -7 13l49 126q4 9 12 9h70q5 0 7 -3t-1 -9l-62 -127q-4 -9 -13 -9h-55z" />
    <glyph glyph-name="OE" unicode="&#x152;" horiz-adv-x="583" 
d="M217 -6q-89 0 -135.5 52t-46.5 155v252q0 104 46.5 156t135.5 52q17 0 32.5 -2t28.5 -4h262q8 0 8 -11v-73q0 -11 -8 -11h-171v-182h156q8 0 8 -11v-69q0 -11 -8 -11h-156v-192h171q8 0 8 -11v-73q0 -11 -8 -11h-262q-13 -2 -28.5 -4t-32.5 -2zM217 90q14 0 26 2t21 7
v459q-10 3 -21.5 5t-25.5 2q-39 0 -58.5 -27t-19.5 -90v-242q0 -62 19.5 -89t58.5 -27z" />
    <glyph glyph-name="oe" unicode="&#x153;" horiz-adv-x="559" 
d="M179 -6q-72 0 -110 42t-38 126v168q0 83 38 125t108 42q37 0 62 -12.5t43 -34.5q18 23 44 35t60 12q69 0 106 -42.5t37 -128.5v-94q0 -10 -9 -10h-188v-61q0 -44 12 -63t38 -19q24 0 35 13.5t9 42.5q-1 11 8 11h80q9 0 9 -10q1 -70 -34 -106t-105 -36q-36 0 -60.5 12
t-42.5 35q-19 -23 -43 -35t-59 -12zM182 86q26 0 37.5 17.5t11.5 59.5v165q0 42 -11.5 60t-37.5 18t-37.5 -18t-11.5 -60v-165q0 -42 11.5 -59.5t37.5 -17.5zM332 293h96v48q0 38 -11 55t-37 17q-25 0 -36.5 -17t-11.5 -55v-48z" />
    <glyph glyph-name="Racute" unicode="&#x154;" horiz-adv-x="410" 
d="M52 0q-9 0 -9 11v633q0 11 9 11h136q95 0 139 -45.5t44 -143.5q0 -73 -20.5 -116.5t-58.5 -61.5l-1 -1l104 -274q3 -13 -8 -13h-94q-7 0 -10 7l-90 260h-45v-256q0 -11 -9 -11h-87zM148 356h41q41 0 59 26t18 79q0 52 -19 75.5t-60 23.5h-39v-204zM125 711q-5 0 -6.5 3.5
t0.5 8.5l56 107q5 8 13 8h73q6 0 7.5 -4t-2.5 -10l-67 -105q-4 -8 -15 -8h-59z" />
    <glyph glyph-name="racute" unicode="&#x155;" horiz-adv-x="270" 
d="M46 0q-9 0 -9 11v356q0 38 -0.5 66t-2.5 46q-1 12 8 12h73q8 0 9 -9q2 -18 4 -44.5t2 -43.5l9 -19v-364q0 -11 -9 -11h-84zM131 332l-7 90q12 18 28 35t35 28.5t40 11.5q11 0 18 -1q5 -2 6.5 -5.5t1.5 -8.5q0 -22 -1 -44t-3 -44q-1 -10 -8 -9q-5 2 -11 2.5t-13 0.5
q-21 0 -44.5 -15.5t-41.5 -40.5zM88 557q-5 0 -6.5 3.5t0.5 7.5l65 124q5 8 13 8h73q5 0 7 -3.5t-2 -9.5l-77 -122q-5 -8 -16 -8h-57z" />
    <glyph glyph-name="uni0156" unicode="&#x156;" horiz-adv-x="410" 
d="M52 0q-9 0 -9 11v633q0 11 9 11h136q95 0 139 -45.5t44 -143.5q0 -73 -20.5 -116.5t-58.5 -61.5l-1 -1l104 -274q3 -13 -8 -13h-94q-7 0 -10 7l-90 260h-45v-256q0 -11 -9 -11h-87zM148 356h41q41 0 59 26t18 79q0 52 -19 75.5t-60 23.5h-39v-204zM179 -242q-8 0 -7 10
l16 70q-10 5 -17.5 14t-7.5 29v17q0 23 13.5 35t35.5 12q25 0 37.5 -12t12.5 -35v-17q0 -14 -2 -25t-7 -25l-23 -66q-3 -7 -9 -7h-42z" />
    <glyph glyph-name="uni0157" unicode="&#x157;" horiz-adv-x="270" 
d="M46 0q-9 0 -9 11v356q0 38 -0.5 66t-2.5 46q-1 12 8 12h73q8 0 9 -9q2 -18 4 -44.5t2 -43.5l9 -19v-364q0 -11 -9 -11h-84zM131 332l-7 90q12 18 28 35t35 28.5t40 11.5q11 0 18 -1q5 -2 6.5 -5.5t1.5 -8.5q0 -22 -1 -44t-3 -44q-1 -10 -8 -9q-5 2 -11 2.5t-13 0.5
q-21 0 -44.5 -15.5t-41.5 -40.5zM57 -245q-8 0 -7 9l16 71q-10 5 -17.5 14t-7.5 29v16q0 24 13.5 36t35.5 12q25 0 37.5 -12t12.5 -36v-17q0 -13 -2 -24t-7 -25l-23 -66q-3 -7 -9 -7h-42z" />
    <glyph glyph-name="Rcaron" unicode="&#x158;" horiz-adv-x="410" 
d="M52 0q-9 0 -9 11v633q0 11 9 11h136q95 0 139 -45.5t44 -143.5q0 -73 -20.5 -116.5t-58.5 -61.5l-1 -1l104 -274q3 -13 -8 -13h-94q-7 0 -10 7l-90 260h-45v-256q0 -11 -9 -11h-87zM148 356h41q41 0 59 26t18 79q0 52 -19 75.5t-60 23.5h-39v-204zM178 718l-85 41
q-5 4 -5 12v54q0 8 10 4l86 -35l86 35q10 4 10 -4v-54q0 -8 -5 -12l-85 -41q-6 -3 -12 0z" />
    <glyph glyph-name="rcaron" unicode="&#x159;" horiz-adv-x="270" 
d="M46 0q-9 0 -9 11v356q0 38 -0.5 66t-2.5 46q-1 12 8 12h73q8 0 9 -9q2 -18 4 -44.5t2 -43.5l9 -19v-364q0 -11 -9 -11h-84zM131 332l-7 90q12 18 28 35t35 28.5t40 11.5q11 0 18 -1q5 -2 6.5 -5.5t1.5 -8.5q0 -22 -1 -44t-3 -44q-1 -10 -8 -9q-5 2 -11 2.5t-13 0.5
q-21 0 -44.5 -15.5t-41.5 -40.5zM137 553l-78 44q-5 3 -5 12v56q0 10 10 5l79 -40l79 40q10 4 10 -5v-56q0 -9 -4 -12l-79 -44q-6 -4 -12 0z" />
    <glyph glyph-name="Sacute" unicode="&#x15a;" horiz-adv-x="373" 
d="M182 -6q-60 0 -96.5 24t-51 67t-9.5 101q1 12 9 12h85q9 0 8 -11q-5 -49 10 -74.5t48 -25.5q30 0 44.5 18t14.5 57q0 34 -10.5 57.5t-34.5 41.5l-84 66q-45 35 -67 75.5t-21 100.5q1 75 40 116.5t114 41.5q86 0 126 -49t32 -137q-1 -14 -9 -14h-86q-10 0 -8 14
q4 42 -9 67.5t-42 25.5q-25 0 -39 -16t-15 -50q0 -33 12.5 -55t36.5 -40l81 -63q33 -24 52 -49.5t27.5 -57t7.5 -74.5q0 -80 -40 -124.5t-126 -44.5zM127 711q-5 0 -6.5 3.5t0.5 8.5l56 107q5 8 13 8h73q6 0 7.5 -4t-2.5 -10l-67 -105q-4 -8 -15 -8h-59z" />
    <glyph glyph-name="sacute" unicode="&#x15b;" horiz-adv-x="326" 
d="M160 -6q-74 0 -105.5 38.5t-25.5 114.5q1 10 9 10h78q9 0 8 -10q-1 -39 6.5 -55.5t30.5 -16.5q39 0 39 51q0 24 -8.5 39t-28.5 30l-71 54q-31 23 -46.5 53t-15.5 72q0 60 33.5 91.5t99.5 31.5q69 0 102 -35t29 -99q0 -11 -10 -11h-75q-4 0 -7 2.5t-2 10.5q2 25 -6.5 38.5
t-28.5 13.5q-34 0 -34 -40q0 -21 8 -35t26 -29l69 -52q35 -27 50.5 -56t15.5 -74q0 -68 -35 -102.5t-105 -34.5zM104 557q-5 0 -6.5 3.5t0.5 7.5l65 124q5 8 13 8h73q5 0 7 -3.5t-2 -9.5l-77 -122q-5 -8 -16 -8h-57z" />
    <glyph glyph-name="Scedilla" unicode="&#x15e;" horiz-adv-x="373" 
d="M182 -6q-60 0 -96.5 24t-51 67t-9.5 101q1 12 9 12h85q9 0 8 -11q-5 -49 10 -74.5t48 -25.5q30 0 44.5 18t14.5 57q0 34 -10.5 57.5t-34.5 41.5l-84 66q-45 35 -67 75.5t-21 100.5q1 75 40 116.5t114 41.5q86 0 126 -49t32 -137q-1 -14 -9 -14h-86q-10 0 -8 14
q4 42 -9 67.5t-42 25.5q-25 0 -39 -16t-15 -50q0 -33 12.5 -55t36.5 -40l81 -63q33 -24 52 -49.5t27.5 -57t7.5 -74.5q0 -80 -40 -124.5t-126 -44.5zM181 -192q-14 0 -26 1.5l-20 2.5q-8 3 -8 10v42q0 9 7 7q4 -1 9.5 -1.5t12.5 -0.5q14 0 20.5 6.5t6.5 19.5v10
q0 14 -8 19.5t-19 5.5h-11q-6 0 -6 6v10.5t1 9.5l22 76q3 7 9 7h46q10 0 7 -11l-21 -61h6q22 0 35 -15t13 -45v-20q0 -39 -18 -59t-58 -20z" />
    <glyph glyph-name="scedilla" unicode="&#x15f;" horiz-adv-x="326" 
d="M160 -6q-74 0 -105.5 38.5t-25.5 114.5q1 10 9 10h78q9 0 8 -10q-1 -39 6.5 -55.5t30.5 -16.5q39 0 39 51q0 24 -8.5 39t-28.5 30l-71 54q-31 23 -46.5 53t-15.5 72q0 60 33.5 91.5t99.5 31.5q69 0 102 -35t29 -99q0 -11 -10 -11h-75q-4 0 -7 2.5t-2 10.5q2 25 -6.5 38.5
t-28.5 13.5q-34 0 -34 -40q0 -21 8 -35t26 -29l69 -52q35 -27 50.5 -56t15.5 -74q0 -68 -35 -102.5t-105 -34.5zM163 -192q-14 0 -26 1.5l-20 2.5q-8 3 -8 10v42q0 9 7 7q4 -1 9.5 -1.5t12.5 -0.5q14 0 20.5 6.5t6.5 19.5v10q0 14 -8 19.5t-19 5.5h-11q-6 0 -6 6v10.5t1 9.5
l22 76q3 7 9 7h46q10 0 7 -11l-21 -61h6q22 0 35 -15t13 -45v-20q0 -39 -18 -59t-58 -20z" />
    <glyph glyph-name="Scaron" unicode="&#x160;" horiz-adv-x="373" 
d="M182 -6q-60 0 -96.5 24t-51 67t-9.5 101q1 12 9 12h85q9 0 8 -11q-5 -49 10 -74.5t48 -25.5q30 0 44.5 18t14.5 57q0 34 -10.5 57.5t-34.5 41.5l-84 66q-45 35 -67 75.5t-21 100.5q1 75 40 116.5t114 41.5q86 0 126 -49t32 -137q-1 -14 -9 -14h-86q-10 0 -8 14
q4 42 -9 67.5t-42 25.5q-25 0 -39 -16t-15 -50q0 -33 12.5 -55t36.5 -40l81 -63q33 -24 52 -49.5t27.5 -57t7.5 -74.5q0 -80 -40 -124.5t-126 -44.5zM180 718l-85 41q-5 4 -5 12v54q0 8 10 4l86 -35l86 35q10 4 10 -4v-54q0 -8 -5 -12l-85 -41q-6 -3 -12 0z" />
    <glyph glyph-name="scaron" unicode="&#x161;" horiz-adv-x="326" 
d="M160 -6q-74 0 -105.5 38.5t-25.5 114.5q1 10 9 10h78q9 0 8 -10q-1 -39 6.5 -55.5t30.5 -16.5q39 0 39 51q0 24 -8.5 39t-28.5 30l-71 54q-31 23 -46.5 53t-15.5 72q0 60 33.5 91.5t99.5 31.5q69 0 102 -35t29 -99q0 -11 -10 -11h-75q-4 0 -7 2.5t-2 10.5q2 25 -6.5 38.5
t-28.5 13.5q-34 0 -34 -40q0 -21 8 -35t26 -29l69 -52q35 -27 50.5 -56t15.5 -74q0 -68 -35 -102.5t-105 -34.5zM154 553l-78 44q-5 3 -5 12v56q0 10 10 5l79 -40l79 40q10 4 10 -5v-56q0 -9 -4 -12l-79 -44q-6 -4 -12 0z" />
    <glyph glyph-name="uni0162" unicode="&#x162;" horiz-adv-x="362" 
d="M138 0q-9 0 -9 11v549h-104q-10 0 -10 11v73q0 11 10 11h313q9 0 9 -11v-73q0 -11 -9 -11h-104v-549q0 -11 -10 -11h-86zM174 -192q-14 0 -26 1.5l-20 2.5q-8 3 -8 10v42q0 9 7 7q4 -1 9.5 -1.5t12.5 -0.5q14 0 20.5 6.5t6.5 19.5v10q0 14 -8 19.5t-19 5.5h-11q-6 0 -6 6
v10.5t1 9.5l22 76q3 7 9 7h46q10 0 7 -11l-21 -61h6q22 0 35 -15t13 -45v-20q0 -39 -18 -59t-58 -20z" />
    <glyph glyph-name="uni0163" unicode="&#x163;" horiz-adv-x="285" 
d="M186 -6q-64 0 -91 35.5t-27 118.5v252h-44q-10 0 -10 11v70q0 10 10 10h47l11 121q1 9 9 9h70q9 0 9 -10v-120h87q9 0 9 -10v-70q0 -11 -9 -11h-87v-246q0 -37 9 -53t32 -16q12 0 23 2.5t23 7.5q10 4 10 -7v-70q0 -10 -8 -12q-14 -6 -33 -9t-40 -3zM174 -192
q-14 0 -26 1.5l-20 2.5q-8 3 -8 10v42q0 9 7 7q4 -1 9.5 -1.5t12.5 -0.5q14 0 20.5 6.5t6.5 19.5v10q0 14 -8 19.5t-19 5.5h-11q-6 0 -6 6v10.5t1 9.5l22 76q3 7 9 7h46q10 0 7 -11l-21 -61h6q22 0 35 -15t13 -45v-20q0 -39 -18 -59t-58 -20z" />
    <glyph glyph-name="Tcaron" unicode="&#x164;" horiz-adv-x="362" 
d="M138 0q-9 0 -9 11v549h-104q-10 0 -10 11v73q0 11 10 11h313q9 0 9 -11v-73q0 -11 -9 -11h-104v-549q0 -11 -10 -11h-86zM178 718l-85 41q-5 4 -5 12v54q0 8 10 4l86 -35l86 35q10 4 10 -4v-54q0 -8 -5 -12l-85 -41q-6 -3 -12 0z" />
    <glyph glyph-name="tcaron" unicode="&#x165;" horiz-adv-x="302" 
d="M186 -6q-64 0 -91 35.5t-27 118.5v252h-44q-10 0 -10 11v70q0 10 10 10h47l11 121q1 9 9 9h70q9 0 9 -10v-120h87q9 0 9 -10v-70q0 -11 -9 -11h-87v-246q0 -37 9 -53t32 -16q12 0 23 2.5t23 7.5q10 4 10 -7v-70q0 -10 -8 -12q-14 -6 -33 -9t-40 -3zM210 531q-7 0 -6 9
l14 60q-10 3 -17.5 11.5t-7.5 23.5v15q0 22 12.5 32.5t34.5 10.5q21 0 33 -10.5t12 -31.5v-16q0 -9 -2 -19.5t-7 -22.5l-18 -55q-3 -7 -8 -7h-40z" />
    <glyph glyph-name="Tbar" unicode="&#x166;" horiz-adv-x="362" 
d="M74 289q-9 0 -9 11v59q0 10 9 10h211q9 0 9 -10v-59q0 -11 -9 -11h-53h-105h-53zM138 0q-9 0 -9 11v549h-104q-10 0 -10 11v73q0 11 10 11h313q9 0 9 -11v-73q0 -11 -9 -11h-104v-549q0 -11 -10 -11h-86z" />
    <glyph glyph-name="tbar" unicode="&#x167;" horiz-adv-x="285" 
d="M29 249q-8 0 -8 10v56q0 11 8 11h36h102h75q9 0 9 -11v-56q0 -10 -9 -10h-213zM186 -6q-64 0 -91 35.5t-27 118.5v252h-44q-10 0 -10 11v70q0 10 10 10h47l11 121q1 9 9 9h70q9 0 9 -10v-120h87q9 0 9 -10v-70q0 -11 -9 -11h-87v-246q0 -37 9 -53t32 -16q12 0 23 2.5
t23 7.5q10 4 10 -7v-70q0 -10 -8 -12q-14 -6 -33 -9t-40 -3z" />
    <glyph glyph-name="Umacron" unicode="&#x16a;" horiz-adv-x="435" 
d="M217 -6q-90 0 -133.5 54.5t-43.5 164.5v432q0 10 9 10h87q9 0 9 -10v-429q0 -68 17 -97t55 -29q39 0 56 28.5t17 97.5v429q0 10 9 10h87q9 0 9 -10v-432q0 -110 -44.5 -164.5t-133.5 -54.5zM133 720q-10 0 -10 11v59q0 10 10 10h166q10 0 10 -10v-59q0 -11 -10 -11h-166z
" />
    <glyph glyph-name="umacron" unicode="&#x16b;" horiz-adv-x="365" 
d="M125 -6q-47 0 -67.5 30.5t-20.5 96.5v360q0 10 10 10h83q9 0 9 -10v-346q0 -29 7 -39t22 -10q18 0 35.5 13.5t33.5 36.5l14 -58q-25 -37 -58 -60.5t-68 -23.5zM252 0q-8 0 -10 10q-2 18 -3.5 45t-2.5 43l-10 19v364q0 10 10 10h83q9 0 9 -10v-356q0 -38 1 -66t2 -46
q1 -13 -8 -13h-71zM110 571q-10 0 -10 11v59q0 11 10 11h145q10 0 10 -11v-59q0 -11 -10 -11h-145z" />
    <glyph glyph-name="Uring" unicode="&#x16e;" horiz-adv-x="435" 
d="M217 -6q-90 0 -133.5 54.5t-43.5 164.5v432q0 10 9 10h87q9 0 9 -10v-429q0 -68 17 -97t55 -29q39 0 56 28.5t17 97.5v429q0 10 9 10h87q9 0 9 -10v-432q0 -110 -44.5 -164.5t-133.5 -54.5zM216 690q-39 0 -63 24.5t-24 67.5q0 44 24 68t63 24q41 0 64.5 -24t23.5 -68
q0 -43 -23.5 -67.5t-64.5 -24.5zM216 743q25 0 25 39t-25 39q-24 0 -24 -39t24 -39z" />
    <glyph glyph-name="uring" unicode="&#x16f;" horiz-adv-x="365" 
d="M125 -6q-47 0 -67.5 30.5t-20.5 96.5v360q0 10 10 10h83q9 0 9 -10v-346q0 -29 7 -39t22 -10q18 0 35.5 13.5t33.5 36.5l14 -58q-25 -37 -58 -60.5t-68 -23.5zM252 0q-8 0 -10 10q-2 18 -3.5 45t-2.5 43l-10 19v364q0 10 10 10h83q9 0 9 -10v-356q0 -38 1 -66t2 -46
q1 -13 -8 -13h-71zM183 551q-39 0 -63 24t-24 68t24 68.5t63 24.5q41 0 64.5 -24.5t23.5 -68.5t-23.5 -68t-64.5 -24zM183 604q25 0 25 39t-25 39q-24 0 -24 -39t24 -39z" />
    <glyph glyph-name="Uhungarumlaut" unicode="&#x170;" horiz-adv-x="435" 
d="M217 -6q-90 0 -133.5 54.5t-43.5 164.5v432q0 10 9 10h87q9 0 9 -10v-429q0 -68 17 -97t55 -29q39 0 56 28.5t17 97.5v429q0 10 9 10h87q9 0 9 -10v-432q0 -110 -44.5 -164.5t-133.5 -54.5zM246 711q-12 0 -7 13l42 107q3 9 11 9h69q5 0 7 -3.5t-1 -9.5l-53 -107
q-4 -9 -13 -9h-55zM121 711q-12 0 -7 13l43 107q3 9 11 9h69q4 0 6 -3.5t-1 -9.5l-53 -107q-3 -9 -12 -9h-56z" />
    <glyph glyph-name="uhungarumlaut" unicode="&#x171;" horiz-adv-x="365" 
d="M125 -6q-47 0 -67.5 30.5t-20.5 96.5v360q0 10 10 10h83q9 0 9 -10v-346q0 -29 7 -39t22 -10q18 0 35.5 13.5t33.5 36.5l14 -58q-25 -37 -58 -60.5t-68 -23.5zM252 0q-8 0 -10 10q-2 18 -3.5 45t-2.5 43l-10 19v364q0 10 10 10h83q9 0 9 -10v-356q0 -38 1 -66t2 -46
q1 -13 -8 -13h-71zM91 557q-12 0 -7 13l50 126q4 9 11 9h71q4 0 6.5 -3t-0.5 -9l-63 -127q-4 -9 -13 -9h-55zM216 557q-13 0 -7 13l49 126q4 9 12 9h70q5 0 7 -3t-1 -9l-62 -127q-4 -9 -13 -9h-55z" />
    <glyph glyph-name="Uogonek" unicode="&#x172;" horiz-adv-x="435" 
d="M217 -6q-90 0 -133.5 54.5t-43.5 164.5v432q0 10 9 10h87q9 0 9 -10v-429q0 -68 17 -97t55 -29q39 0 56 28.5t17 97.5v429q0 10 9 10h87q9 0 9 -10v-432q0 -110 -44.5 -164.5t-133.5 -54.5zM246 -192q-39 0 -58.5 17.5t-19.5 54.5v10q0 42 28.5 76t80.5 57l10 -13l1 -5
q-21 -18 -33 -40.5t-12 -42.5v-9q0 -15 6 -21t18 -6h9t10 1q8 2 8 -8v-55q0 -8 -7 -10q-11 -3 -21 -4.5t-20 -1.5z" />
    <glyph glyph-name="uogonek" unicode="&#x173;" horiz-adv-x="365" 
d="M125 -6q-47 0 -67.5 30.5t-20.5 96.5v360q0 10 10 10h83q9 0 9 -10v-346q0 -29 7 -39t22 -10q18 0 35.5 13.5t33.5 36.5l14 -58q-25 -37 -58 -60.5t-68 -23.5zM252 0q-8 0 -10 10q-2 18 -3.5 45t-2.5 43l-10 19v364q0 10 10 10h83q9 0 9 -10v-356q0 -38 1 -66t2 -46
q1 -13 -8 -13h-71zM284 -192q-39 0 -58.5 17.5t-19.5 54.5v10q0 42 28.5 76t80.5 57l10 -13l1 -5q-21 -18 -33 -40.5t-12 -42.5v-9q0 -15 6 -21t18 -6h9t10 1q8 2 8 -8v-55q0 -8 -7 -10q-11 -3 -21 -4.5t-20 -1.5z" />
    <glyph glyph-name="Wcircumflex" unicode="&#x174;" horiz-adv-x="582" 
d="M125 0q-8 0 -9 9l-106 634q-2 12 7 12h87q9 0 11 -9l46 -307q5 -37 8.5 -73.5t6 -74t3.5 -75.5h2q5 34 10 68.5t11 67.5l47 259l-22 118q-3 13 7 13h85q9 0 10 -9l57 -377q5 -35 9.5 -70t7.5 -70h2q2 39 4 75t5.5 73.5t8.5 77.5l45 304q1 9 9 9h88q9 0 7 -12l-106 -634
q-1 -9 -9 -9h-99q-10 0 -11 9l-35 229q-5 31 -9 62.5t-8 62.5h-2l-10 -62t-10 -63l-41 -229q-1 -5 -3.5 -7t-5.5 -2h-98zM205 717q-10 -4 -10 4v54q0 9 5 12l85 42q6 3 12 0l85 -42q5 -3 5 -12v-54q0 -8 -10 -4l-86 35z" />
    <glyph glyph-name="wcircumflex" unicode="&#x175;" horiz-adv-x="510" 
d="M115 0q-9 0 -11 9l-87 471q-2 11 7 11h88q9 0 10 -10l34 -240q4 -33 7 -66.5t6 -66.5h3q4 33 8.5 66t9.5 66l22 131l-15 98q-1 13 7 13h78q9 0 10 -9l31 -234q5 -33 8 -66t6 -65h2q4 33 7.5 67t7.5 67l33 239q2 10 9 10h89q9 0 7 -11l-87 -471q-2 -9 -11 -9h-97
q-9 0 -11 8l-16 100q-4 29 -7.5 61.5t-6.5 78.5h-4q-3 -46 -7 -78.5t-8 -62.5l-14 -98q-1 -9 -10 -9h-98zM176 554q-10 -5 -10 4v57q0 9 5 12l78 44q6 4 12 0l79 -44q4 -3 4 -12v-57q0 -8 -10 -4l-79 39z" />
    <glyph glyph-name="Ycircumflex" unicode="&#x176;" horiz-adv-x="392" 
d="M153 0q-9 0 -9 11v214l-138 417q-4 13 7 13h97q8 0 9 -8l50 -198q7 -28 14 -57.5t13 -58.5h1q7 29 13.5 58.5t13.5 58.5l50 197q1 8 9 8h95q11 0 7 -13l-137 -416v-215q0 -11 -8 -11h-87zM109 717q-10 -4 -10 4v54q0 9 5 12l85 42q6 3 12 0l85 -42q5 -3 5 -12v-54
q0 -8 -10 -4l-86 35z" />
    <glyph glyph-name="ycircumflex" unicode="&#x177;" horiz-adv-x="352" 
d="M95 -185q-10 0 -7 13l40 174l-114 477q-3 12 7 12h91q10 0 11 -9l34 -201q5 -32 9.5 -69t8.5 -69h3q4 32 8.5 69.5t9.5 68.5l35 202q1 8 10 8h89q5 0 7 -3t0 -9l-151 -655q-2 -9 -10 -9h-81zM98 554q-10 -5 -10 4v57q0 9 5 12l78 44q6 4 12 0l79 -44q4 -3 4 -12v-57
q0 -8 -10 -4l-79 39z" />
    <glyph glyph-name="Ydieresis" unicode="&#x178;" horiz-adv-x="392" 
d="M153 0q-9 0 -9 11v214l-138 417q-4 13 7 13h97q8 0 9 -8l50 -198q7 -28 14 -57.5t13 -58.5h1q7 29 13.5 58.5t13.5 58.5l50 197q1 8 9 8h95q11 0 7 -13l-137 -416v-215q0 -11 -8 -11h-87zM127 718q-25 0 -40 13.5t-15 37.5v13q0 25 15 38.5t40 13.5t39.5 -13.5
t14.5 -38.5v-13q0 -24 -14.5 -37.5t-39.5 -13.5zM264 718q-25 0 -39.5 13.5t-14.5 37.5v13q0 25 14.5 38.5t39.5 13.5q26 0 40 -13.5t14 -38.5v-13q0 -24 -14 -37.5t-40 -13.5z" />
    <glyph glyph-name="Zacute" unicode="&#x179;" horiz-adv-x="366" 
d="M16 0q-8 0 -8 10v4q0 7 3 13l163 424q11 28 23 56t22 52v2q-19 -1 -39.5 -1h-39.5h-105q-9 0 -9 11v73q0 11 9 11h312q9 0 9 -10v-3q0 -4 -0.5 -7.5t-2.5 -6.5l-170 -437q-10 -24 -20.5 -48.5t-20.5 -46.5v-2q21 1 39.5 1h37.5h111q9 0 9 -11v-73q0 -11 -9 -11h-314z
M131 711q-5 0 -6.5 3.5t0.5 8.5l56 107q5 8 13 8h73q6 0 7.5 -4t-2.5 -10l-67 -105q-4 -8 -15 -8h-59z" />
    <glyph glyph-name="zacute" unicode="&#x17a;" horiz-adv-x="326" 
d="M25 0q-9 0 -9 9v2q0 11 4 16l121 286q9 22 18 43.5t18 43.5v1q-17 0 -30 -0.5t-26 -0.5h-79q-9 0 -9 11v70q0 10 9 10h259q9 0 9 -7v-3q0 -9 -5 -21l-119 -282q-9 -21 -18.5 -42.5t-19.5 -43.5v-1q18 1 29.5 1h26.5h84q10 0 10 -11v-70q0 -11 -10 -11h-263zM112 557
q-5 0 -6.5 3.5t0.5 7.5l65 124q5 8 13 8h73q5 0 7 -3.5t-2 -9.5l-77 -122q-5 -8 -16 -8h-57z" />
    <glyph glyph-name="Zdotaccent" unicode="&#x17b;" horiz-adv-x="366" 
d="M16 0q-8 0 -8 10v4q0 7 3 13l163 424q11 28 23 56t22 52v2q-19 -1 -39.5 -1h-39.5h-105q-9 0 -9 11v73q0 11 9 11h312q9 0 9 -10v-3q0 -4 -0.5 -7.5t-2.5 -6.5l-170 -437q-10 -24 -20.5 -48.5t-20.5 -46.5v-2q21 1 39.5 1h37.5h111q9 0 9 -11v-73q0 -11 -9 -11h-314z
M190 728q-29 0 -45.5 15t-16.5 41v14q0 28 16.5 42.5t45.5 14.5q30 0 45.5 -14.5t15.5 -42.5v-14q0 -26 -15.5 -41t-45.5 -15z" />
    <glyph glyph-name="zdotaccent" unicode="&#x17c;" horiz-adv-x="326" 
d="M25 0q-9 0 -9 9v2q0 11 4 16l121 286q9 22 18 43.5t18 43.5v1q-17 0 -30 -0.5t-26 -0.5h-79q-9 0 -9 11v70q0 10 9 10h259q9 0 9 -7v-3q0 -9 -5 -21l-119 -282q-9 -21 -18.5 -42.5t-19.5 -43.5v-1q18 1 29.5 1h26.5h84q10 0 10 -11v-70q0 -11 -10 -11h-263zM168 565
q-29 0 -45.5 14.5t-16.5 41.5v14q0 28 16.5 42.5t45.5 14.5q30 0 45.5 -14.5t15.5 -42.5v-14q0 -27 -15.5 -41.5t-45.5 -14.5z" />
    <glyph glyph-name="Zcaron" unicode="&#x17d;" horiz-adv-x="366" 
d="M16 0q-8 0 -8 10v4q0 7 3 13l163 424q11 28 23 56t22 52v2q-19 -1 -39.5 -1h-39.5h-105q-9 0 -9 11v73q0 11 9 11h312q9 0 9 -10v-3q0 -4 -0.5 -7.5t-2.5 -6.5l-170 -437q-10 -24 -20.5 -48.5t-20.5 -46.5v-2q21 1 39.5 1h37.5h111q9 0 9 -11v-73q0 -11 -9 -11h-314z
M185 718l-85 41q-5 4 -5 12v54q0 8 10 4l86 -35l86 35q10 4 10 -4v-54q0 -8 -5 -12l-85 -41q-6 -3 -12 0z" />
    <glyph glyph-name="zcaron" unicode="&#x17e;" horiz-adv-x="326" 
d="M25 0q-9 0 -9 9v2q0 11 4 16l121 286q9 22 18 43.5t18 43.5v1q-17 0 -30 -0.5t-26 -0.5h-79q-9 0 -9 11v70q0 10 9 10h259q9 0 9 -7v-3q0 -9 -5 -21l-119 -282q-9 -21 -18.5 -42.5t-19.5 -43.5v-1q18 1 29.5 1h26.5h84q10 0 10 -11v-70q0 -11 -10 -11h-263zM162 553
l-78 44q-5 3 -5 12v56q0 10 10 5l79 -40l79 40q10 4 10 -5v-56q0 -9 -4 -12l-79 -44q-6 -4 -12 0z" />
    <glyph glyph-name="florin" unicode="&#x192;" horiz-adv-x="436" 
d="M154 -185q-5 0 -8.5 3.5t-3.5 7.5v509h-43q-4 0 -7.5 3t-3.5 8v66q0 5 3.5 8t7.5 3h43v92q0 77 29 111.5t86 34.5q28 0 50 -4.5t35 -9.5q7 -2 7 -11v-66q0 -11 -11 -8q-11 5 -24.5 8.5t-28.5 3.5q-20 0 -30.5 -13t-10.5 -50v-88h67q5 0 8 -3t3 -8v-66q0 -5 -3 -8t-8 -3
h-67v-509q0 -4 -3 -7.5t-8 -3.5h-79z" />
    <glyph glyph-name="uni0218" unicode="&#x218;" horiz-adv-x="373" 
d="M182 -6q-60 0 -96.5 24t-51 67t-9.5 101q1 12 9 12h85q9 0 8 -11q-5 -49 10 -74.5t48 -25.5q30 0 44.5 18t14.5 57q0 34 -10.5 57.5t-34.5 41.5l-84 66q-45 35 -67 75.5t-21 100.5q1 75 40 116.5t114 41.5q86 0 126 -49t32 -137q-1 -14 -9 -14h-86q-10 0 -8 14
q4 42 -9 67.5t-42 25.5q-25 0 -39 -16t-15 -50q0 -33 12.5 -55t36.5 -40l81 -63q33 -24 52 -49.5t27.5 -57t7.5 -74.5q0 -80 -40 -124.5t-126 -44.5zM154 -242q-8 0 -7 10l16 70q-10 5 -17.5 14t-7.5 29v17q0 23 13.5 35t35.5 12q25 0 37.5 -12t12.5 -35v-17q0 -14 -2 -25
t-7 -25l-23 -66q-3 -7 -9 -7h-42z" />
    <glyph glyph-name="uni0219" unicode="&#x219;" horiz-adv-x="326" 
d="M160 -6q-74 0 -105.5 38.5t-25.5 114.5q1 10 9 10h78q9 0 8 -10q-1 -39 6.5 -55.5t30.5 -16.5q39 0 39 51q0 24 -8.5 39t-28.5 30l-71 54q-31 23 -46.5 53t-15.5 72q0 60 33.5 91.5t99.5 31.5q69 0 102 -35t29 -99q0 -11 -10 -11h-75q-4 0 -7 2.5t-2 10.5q2 25 -6.5 38.5
t-28.5 13.5q-34 0 -34 -40q0 -21 8 -35t26 -29l69 -52q35 -27 50.5 -56t15.5 -74q0 -68 -35 -102.5t-105 -34.5zM138 -245q-8 0 -7 9l16 71q-10 5 -17.5 14t-7.5 29v16q0 24 13.5 36t35.5 12q25 0 37.5 -12t12.5 -36v-17q0 -13 -2 -24t-7 -25l-23 -66q-3 -7 -9 -7h-42z" />
    <glyph glyph-name="uni021A" unicode="&#x21a;" horiz-adv-x="362" 
d="M138 0q-9 0 -9 11v549h-104q-10 0 -10 11v73q0 11 10 11h313q9 0 9 -11v-73q0 -11 -9 -11h-104v-549q0 -11 -10 -11h-86zM148 -242q-8 0 -7 10l16 70q-10 5 -17.5 14t-7.5 29v17q0 23 13.5 35t35.5 12q25 0 37.5 -12t12.5 -35v-17q0 -14 -2 -25t-7 -25l-23 -66
q-3 -7 -9 -7h-42z" />
    <glyph glyph-name="uni021B" unicode="&#x21b;" horiz-adv-x="285" 
d="M186 -6q-64 0 -91 35.5t-27 118.5v252h-44q-10 0 -10 11v70q0 10 10 10h47l11 121q1 9 9 9h70q9 0 9 -10v-120h87q9 0 9 -10v-70q0 -11 -9 -11h-87v-246q0 -37 9 -53t32 -16q12 0 23 2.5t23 7.5q10 4 10 -7v-70q0 -10 -8 -12q-14 -6 -33 -9t-40 -3zM148 -245q-8 0 -7 9
l16 71q-10 5 -17.5 14t-7.5 29v16q0 24 13.5 36t35.5 12q25 0 37.5 -12t12.5 -36v-17q0 -13 -2 -24t-7 -25l-23 -66q-3 -7 -9 -7h-42z" />
    <glyph glyph-name="uni0237" unicode="&#x237;" horiz-adv-x="168" 
d="M49 -188q-3 -1 -6 -1t-5 4l-49 59q-8 9 0 15q27 25 35.5 66t8.5 112v414q0 10 9 10h84q9 0 9 -10v-417q0 -64 -7 -111t-25.5 -81t-53.5 -60z" />
    <glyph glyph-name="uni02BC" unicode="&#x2bc;" horiz-adv-x="159" 
d="M46 503q-8 0 -7 10l16 70q-10 4 -17.5 13.5t-7.5 29.5v16q0 24 13.5 35.5t35.5 11.5q25 0 37.5 -11.5t12.5 -35.5v-17q0 -13 -2 -24.5t-7 -24.5l-23 -66q-3 -7 -9 -7h-42z" />
    <glyph glyph-name="circumflex" unicode="&#x2c6;" horiz-adv-x="238" 
d="M40 554q-10 -5 -10 4v57q0 9 5 12l78 44q6 4 12 0l79 -44q4 -3 4 -12v-57q0 -8 -10 -4l-79 39z" />
    <glyph glyph-name="caron" unicode="&#x2c7;" horiz-adv-x="238" 
d="M113 553l-78 44q-5 3 -5 12v56q0 10 10 5l79 -40l79 40q10 4 10 -5v-56q0 -9 -4 -12l-79 -44q-6 -4 -12 0z" />
    <glyph glyph-name="breve" unicode="&#x2d8;" horiz-adv-x="237" 
d="M119 546q-29 0 -50 10t-35 22q-4 4 -4 11v53q0 7 3 8t7 -2q17 -12 36.5 -19.5t42.5 -7.5t42 7.5t36 19.5q4 3 7 2t3 -8v-53q0 -7 -4 -11q-14 -13 -35 -22.5t-49 -9.5z" />
    <glyph glyph-name="dotaccent" unicode="&#x2d9;" horiz-adv-x="183" 
d="M92 565q-29 0 -45.5 14.5t-16.5 41.5v14q0 28 16.5 42.5t45.5 14.5q30 0 45.5 -14.5t15.5 -42.5v-14q0 -27 -15.5 -41.5t-45.5 -14.5z" />
    <glyph glyph-name="ring" unicode="&#x2da;" horiz-adv-x="235" 
d="M117 551q-39 0 -63 24t-24 68t24 68.5t63 24.5q41 0 64.5 -24.5t23.5 -68.5t-23.5 -68t-64.5 -24zM117 604q25 0 25 39t-25 39q-24 0 -24 -39t24 -39z" />
    <glyph glyph-name="ogonek" unicode="&#x2db;" horiz-adv-x="186" 
d="M108 -192q-39 0 -58.5 17.5t-19.5 54.5v10q0 42 28.5 76t80.5 57l10 -13l1 -5q-21 -18 -33 -40.5t-12 -42.5v-9q0 -15 6 -21t18 -6h9t10 1q8 2 8 -8v-55q0 -8 -7 -10q-11 -3 -21 -4.5t-20 -1.5z" />
    <glyph glyph-name="tilde" unicode="&#x2dc;" horiz-adv-x="238" 
d="M151 567q-16 0 -27.5 5t-21 9t-21.5 4q-11 0 -21 -3.5t-19 -9.5q-11 -6 -11 7v50q0 9 5 13q9 8 22.5 13.5t29.5 5.5q17 0 27.5 -4t20.5 -8.5t21 -4.5q12 0 21.5 3.5t18.5 9.5q12 5 12 -8v-49q0 -9 -6 -13q-8 -8 -21.5 -14t-29.5 -6z" />
    <glyph glyph-name="hungarumlaut" unicode="&#x2dd;" horiz-adv-x="324" 
d="M38 557q-12 0 -7 13l50 126q4 9 11 9h71q4 0 6.5 -3t-0.5 -9l-63 -127q-4 -9 -13 -9h-55zM163 557q-13 0 -7 13l49 126q4 9 12 9h70q5 0 7 -3t-1 -9l-62 -127q-4 -9 -13 -9h-55z" />
    <glyph glyph-name="gravecomb" unicode="&#x300;" 
d="M125 557q-10 0 -15 8l-78 122q-3 6 -1.5 9.5t6.5 3.5h74q8 0 12 -8l65 -124q3 -4 1.5 -7.5t-7.5 -3.5h-57z" />
    <glyph glyph-name="acutecomb" unicode="&#x301;" 
d="M37 557q-5 0 -6.5 3.5t0.5 7.5l65 124q5 8 13 8h73q5 0 7 -3.5t-2 -9.5l-77 -122q-5 -8 -16 -8h-57z" />
    <glyph glyph-name="uni0302" unicode="&#x302;" 
d="M40 554q-10 -5 -10 4v57q0 9 5 12l78 44q6 4 12 0l79 -44q4 -3 4 -12v-57q0 -8 -10 -4l-79 39z" />
    <glyph glyph-name="tildecomb" unicode="&#x303;" 
d="M151 567q-16 0 -27.5 5t-21 9t-21.5 4q-11 0 -21 -3.5t-19 -9.5q-11 -6 -11 7v50q0 9 5 13q9 8 22.5 13.5t29.5 5.5q17 0 27.5 -4t20.5 -8.5t21 -4.5q12 0 21.5 3.5t18.5 9.5q12 5 12 -8v-49q0 -9 -6 -13q-8 -8 -21.5 -14t-29.5 -6z" />
    <glyph glyph-name="uni0304" unicode="&#x304;" 
d="M40 571q-10 0 -10 11v59q0 11 10 11h145q10 0 10 -11v-59q0 -11 -10 -11h-145z" />
    <glyph glyph-name="uni0306" unicode="&#x306;" 
d="M119 546q-29 0 -50 10t-35 22q-4 4 -4 11v53q0 7 3 8t7 -2q17 -12 36.5 -19.5t42.5 -7.5t42 7.5t36 19.5q4 3 7 2t3 -8v-53q0 -7 -4 -11q-14 -13 -35 -22.5t-49 -9.5z" />
    <glyph glyph-name="uni0307" unicode="&#x307;" 
d="M92 565q-29 0 -45.5 14.5t-16.5 41.5v14q0 28 16.5 42.5t45.5 14.5q30 0 45.5 -14.5t15.5 -42.5v-14q0 -27 -15.5 -41.5t-45.5 -14.5z" />
    <glyph glyph-name="uni0308" unicode="&#x308;" 
d="M85 569q-25 0 -40 14t-15 38v13q0 25 15 38.5t40 13.5t39.5 -13.5t14.5 -38.5v-13q0 -24 -14.5 -38t-39.5 -14zM222 569q-25 0 -39.5 14t-14.5 38v13q0 25 14.5 38.5t39.5 13.5q26 0 40 -13.5t14 -38.5v-13q0 -24 -14 -38t-40 -14z" />
    <glyph glyph-name="uni030A" unicode="&#x30a;" 
d="M117 551q-39 0 -63 24t-24 68t24 68.5t63 24.5q41 0 64.5 -24.5t23.5 -68.5t-23.5 -68t-64.5 -24zM117 604q25 0 25 39t-25 39q-24 0 -24 -39t24 -39z" />
    <glyph glyph-name="uni030B" unicode="&#x30b;" 
d="M38 557q-12 0 -7 13l50 126q4 9 11 9h71q4 0 6.5 -3t-0.5 -9l-63 -127q-4 -9 -13 -9h-55zM163 557q-13 0 -7 13l49 126q4 9 12 9h70q5 0 7 -3t-1 -9l-62 -127q-4 -9 -13 -9h-55z" />
    <glyph glyph-name="uni030C" unicode="&#x30c;" 
d="M113 553l-78 44q-5 3 -5 12v56q0 10 10 5l79 -40l79 40q10 4 10 -5v-56q0 -9 -4 -12l-79 -44q-6 -4 -12 0z" />
    <glyph glyph-name="uni0312" unicode="&#x312;" 
d="M79 559q-24 0 -36.5 12t-12.5 35v17q0 14 2 25t7 24l23 67q3 7 8 7h43q8 0 6 -10l-16 -70q11 -5 18.5 -14.5t7.5 -29.5v-16q0 -23 -13.5 -35t-36.5 -12z" />
    <glyph glyph-name="uni0313" unicode="&#x313;" 
d="M46 549q-8 0 -7 10l16 70q-10 4 -17.5 14t-7.5 30v16q0 23 13.5 34.5t35.5 11.5q25 0 37.5 -11.5t12.5 -34.5v-18q0 -13 -2 -24t-7 -24l-23 -67q-3 -7 -9 -7h-42z" />
    <glyph glyph-name="uni0324" unicode="&#x324;" 
d="M85 -176q-25 0 -40 14t-15 38v13q0 25 15 38.5t40 13.5t39.5 -13.5t14.5 -38.5v-13q0 -24 -14.5 -38t-39.5 -14zM222 -176q-25 0 -39.5 14t-14.5 38v13q0 25 14.5 38.5t39.5 13.5q26 0 40 -13.5t14 -38.5v-13q0 -24 -14 -38t-40 -14z" />
    <glyph glyph-name="uni0325" unicode="&#x325;" 
d="M117 -236q-39 0 -63 24t-24 68t24 68.5t63 24.5q41 0 64.5 -24.5t23.5 -68.5t-23.5 -68t-64.5 -24zM117 -183q25 0 25 39t-25 39q-24 0 -24 -39t24 -39z" />
    <glyph glyph-name="uni0326" unicode="&#x326;" 
d="M46 -245q-8 0 -7 9l16 71q-10 5 -17.5 14t-7.5 29v16q0 24 13.5 36t35.5 12q25 0 37.5 -12t12.5 -36v-17q0 -13 -2 -24t-7 -25l-23 -66q-3 -7 -9 -7h-42z" />
    <glyph glyph-name="uni0327" unicode="&#x327;" 
d="M84 -191q-14 0 -26 1.5l-20 2.5q-8 3 -8 10v42q0 9 7 7q4 -1 9.5 -1.5t12.5 -0.5q14 0 20.5 6.5t6.5 19.5v10q0 14 -8 19.5t-19 5.5h-11q-6 0 -6 6v10.5t1 9.5l22 76q3 7 9 7h46q10 0 7 -11l-21 -61h6q22 0 35 -15t13 -45v-20q0 -39 -18 -59t-58 -20z" />
    <glyph glyph-name="uni0328" unicode="&#x328;" 
d="M108 -192q-39 0 -58.5 17.5t-19.5 54.5v10q0 42 28.5 76t80.5 57l10 -13l1 -5q-21 -18 -33 -40.5t-12 -42.5v-9q0 -15 6 -21t18 -6h9t10 1q8 2 8 -8v-55q0 -8 -7 -10q-11 -3 -21 -4.5t-20 -1.5z" />
    <glyph glyph-name="uni0330" unicode="&#x330;" 
d="M151 -192q-16 0 -27.5 5t-21 9t-21.5 4q-11 0 -21 -3.5t-19 -9.5q-11 -6 -11 7v50q0 9 5 13q9 8 22.5 13.5t29.5 5.5q17 0 27.5 -4t20.5 -8.5t21 -4.5q12 0 21.5 3.5t18.5 9.5q12 5 12 -8v-49q0 -9 -6 -13q-8 -8 -21.5 -14t-29.5 -6z" />
    <glyph glyph-name="uni0331" unicode="&#x331;" 
d="M40 -183q-10 0 -10 11v59q0 11 10 11h145q10 0 10 -11v-59q0 -11 -10 -11h-145z" />
    <glyph glyph-name="uni0335" unicode="&#x335;" 
d="M37 225q-11 0 -11 11v59q0 11 11 11h224q11 0 11 -11v-59q0 -11 -11 -11h-224z" />
    <glyph glyph-name="uni0336" unicode="&#x336;" 
d="M37 225q-11 0 -11 11v59q0 11 11 11h475q11 0 11 -11v-59q0 -11 -11 -11h-475z" />
    <glyph glyph-name="tonos" unicode="&#x384;" horiz-adv-x="201" 
d="M38 545q-10 0 -8 12l35 147q1 10 12 10h85q12 0 7 -13l-54 -148q-4 -8 -14 -8h-63z" />
    <glyph glyph-name="dieresistonos" unicode="&#x385;" horiz-adv-x="322" 
d="M132 722q-12 0 -9 12l28 129q2 10 12 10h85q6 0 8.5 -3.5t-0.5 -9.5l-50 -129q-3 -9 -12 -9h-62zM85 567q-25 0 -40 13.5t-15 37.5v13q0 25 15 38.5t40 13.5t39.5 -13.5t14.5 -38.5v-13q0 -24 -14.5 -37.5t-39.5 -13.5zM238 567q-25 0 -39.5 13.5t-14.5 37.5v13
q0 25 14.5 38.5t39.5 13.5q26 0 40 -13.5t14 -38.5v-13q0 -24 -14 -37.5t-40 -13.5z" />
    <glyph glyph-name="Alphatonos" unicode="&#x386;" horiz-adv-x="440" 
d="M47 0q-10 0 -8 12l133 634q2 9 11 9h113q9 0 11 -9l133 -634q2 -12 -7 -12h-95q-8 0 -10 8l-67 403q-6 35 -11.5 69.5t-9.5 68.5h-2q-5 -34 -9.5 -68.5t-10.5 -69.5l-69 -403q-1 -8 -9 -8h-93zM156 144l16 89h132l17 -89h-165zM5 497q-9 0 -8 12l23 137q2 9 12 9h79
q11 0 7 -13l-38 -137q-3 -8 -13 -8h-62z" />
    <glyph glyph-name="anoteleia" unicode="&#x387;" horiz-adv-x="202" 
d="M101 349q-30 0 -48.5 15.5t-18.5 45.5v15q0 30 18.5 45.5t48.5 15.5q33 0 50 -15.5t17 -45.5v-15q0 -30 -17 -45.5t-50 -15.5z" />
    <glyph glyph-name="Epsilontonos" unicode="&#x388;" horiz-adv-x="477" 
d="M168 0q-10 0 -10 11v633q0 11 9 11h266q9 0 9 -11v-73q0 -11 -9 -11h-170v-182h155q9 0 9 -11v-69q0 -11 -9 -11h-155v-192h170q9 0 9 -11v-73q0 -11 -9 -11h-265zM8 497q-9 0 -8 12l23 137q2 9 12 9h79q11 0 7 -13l-38 -137q-3 -8 -13 -8h-62z" />
    <glyph glyph-name="Etatonos" unicode="&#x389;" horiz-adv-x="559" 
d="M168 0q-10 0 -10 11v633q0 11 10 11h85q10 0 10 -11v-262h149v262q0 11 9 11h85q10 0 10 -11v-633q0 -11 -10 -11h-85q-9 0 -9 11v277h-149v-277q0 -11 -10 -11h-85zM8 497q-9 0 -8 12l23 137q2 9 12 9h79q11 0 7 -13l-38 -137q-3 -8 -13 -8h-62z" />
    <glyph glyph-name="Iotatonos" unicode="&#x38a;" horiz-adv-x="306" 
d="M167 0q-9 0 -9 11v633q0 11 9 11h87q9 0 9 -11v-633q0 -11 -9 -11h-87zM8 497q-9 0 -8 12l23 137q2 9 12 9h79q11 0 7 -13l-38 -137q-3 -8 -13 -8h-62z" />
    <glyph glyph-name="Omicrontonos" unicode="&#x38c;" horiz-adv-x="521" 
d="M305 -6q-89 0 -135.5 52t-46.5 155v252q0 104 46.5 156t135.5 52q88 0 135 -52t47 -156v-252q0 -103 -47 -155t-135 -52zM305 90q39 0 58.5 27t19.5 89v242q0 63 -19.5 90t-58.5 27t-58.5 -27t-19.5 -90v-242q0 -62 19.5 -89t58.5 -27zM8 497q-9 0 -8 12l23 137q2 9 12 9
h79q11 0 7 -13l-38 -137q-3 -8 -13 -8h-62z" />
    <glyph glyph-name="Upsilontonos" unicode="&#x38e;" horiz-adv-x="535" 
d="M296 0q-9 0 -9 11v214l-138 417q-4 13 7 13h97q8 0 9 -8l50 -198q7 -28 14 -57.5t13 -58.5h1q7 29 13.5 58.5t13.5 58.5l50 197q1 8 9 8h95q11 0 7 -13l-137 -416v-215q0 -11 -8 -11h-87zM8 497q-9 0 -8 12l23 137q2 9 12 9h79q11 0 7 -13l-38 -137q-3 -8 -13 -8h-62z
" />
    <glyph glyph-name="Omegatonos" unicode="&#x38f;" horiz-adv-x="524" 
d="M127 0q-9 0 -9 11v75q0 11 9 11h51v2q-17 14 -28.5 33t-17.5 44.5t-6 61.5v215q0 104 46.5 156t135.5 52t135.5 -52t46.5 -156v-215q0 -36 -6.5 -61.5t-17.5 -44.5t-28 -33v-2h50q9 0 9 -11v-75q0 -11 -9 -11h-151q-9 0 -9 11v74q0 10 7 10q26 0 38.5 30t12.5 81v242
q0 63 -19.5 90t-58.5 27t-58.5 -27t-19.5 -90v-242q0 -51 12 -81t39 -30q7 0 7 -10v-74q0 -11 -9 -11h-152zM8 497q-9 0 -8 12l23 137q2 9 12 9h79q11 0 7 -13l-38 -137q-3 -8 -13 -8h-62z" />
    <glyph glyph-name="iotadieresistonos" unicode="&#x390;" horiz-adv-x="226" 
d="M142 -6q-36 0 -59.5 13t-34.5 42.5t-11 78.5v353q0 10 9 10h84q9 0 9 -10v-352q0 -27 8.5 -37.5t26.5 -10.5q9 0 18.5 1.5t17.5 2.5q7 2 7 -8v-64q0 -8 -7 -11q-13 -3 -29.5 -5.5t-38.5 -2.5zM59 722q-12 0 -9 12l28 129q2 10 12 10h85q6 0 8.5 -3.5t-0.5 -9.5l-50 -129
q-3 -9 -12 -9h-62zM12 567q-25 0 -40 13.5t-15 37.5v13q0 25 15 38.5t40 13.5t39.5 -13.5t14.5 -38.5v-13q0 -24 -14.5 -37.5t-39.5 -13.5zM165 567q-25 0 -39.5 13.5t-14.5 37.5v13q0 25 14.5 38.5t39.5 13.5q26 0 40 -13.5t14 -38.5v-13q0 -24 -14 -37.5t-40 -13.5z" />
    <glyph glyph-name="Alpha" unicode="&#x391;" horiz-adv-x="401" 
d="M8 0q-10 0 -8 12l133 634q2 9 11 9h113q9 0 11 -9l133 -634q2 -12 -7 -12h-95q-8 0 -10 8l-67 403q-6 35 -11.5 69.5t-9.5 68.5h-2q-5 -34 -9.5 -68.5t-10.5 -69.5l-69 -403q-1 -8 -9 -8h-93zM117 144l16 89h132l17 -89h-165z" />
    <glyph glyph-name="Beta" unicode="&#x392;" horiz-adv-x="400" 
d="M54 0q-11 0 -11 11v633q0 11 11 11h128q88 0 131 -40.5t43 -122.5q0 -52 -19 -88t-58 -57v-2q47 -15 71.5 -55t24.5 -102q0 -94 -45.5 -141t-138.5 -47h-137zM148 90h42q41 0 61.5 26t20.5 79q0 50 -20.5 75t-60.5 25h-43v-205zM148 378h36q34 0 51.5 25t17.5 73
q0 47 -17 68t-54 21h-34v-187z" />
    <glyph glyph-name="Gamma" unicode="&#x393;" horiz-adv-x="316" 
d="M52 0q-9 0 -9 11v633q0 11 9 11h241q8 0 8 -11v-73q0 -11 -8 -11h-145v-549q0 -11 -9 -11h-87z" />
    <glyph glyph-name="uni0394" unicode="&#x394;" horiz-adv-x="393" 
d="M18 0q-9 0 -9 11v57v6t1 6l119 566q2 9 11 9h114q8 0 10 -9l118 -563q1 -4 1.5 -7.5t0.5 -7.5v-57q0 -11 -9 -11h-357zM120 95h152l-55 316q-5 35 -10.5 69.5t-9.5 68.5h-2q-5 -34 -9.5 -68.5t-10.5 -69.5z" />
    <glyph glyph-name="Epsilon" unicode="&#x395;" horiz-adv-x="362" 
d="M53 0q-10 0 -10 11v633q0 11 9 11h266q9 0 9 -11v-73q0 -11 -9 -11h-170v-182h155q9 0 9 -11v-69q0 -11 -9 -11h-155v-192h170q9 0 9 -11v-73q0 -11 -9 -11h-265z" />
    <glyph glyph-name="Zeta" unicode="&#x396;" horiz-adv-x="366" 
d="M16 0q-8 0 -8 10v4q0 7 3 13l163 424q11 28 23 56t22 52v2q-19 -1 -39.5 -1h-39.5h-105q-9 0 -9 11v73q0 11 9 11h312q9 0 9 -10v-3q0 -4 -0.5 -7.5t-2.5 -6.5l-170 -437q-10 -24 -20.5 -48.5t-20.5 -46.5v-2q21 1 39.5 1h37.5h111q9 0 9 -11v-73q0 -11 -9 -11h-314z" />
    <glyph glyph-name="Eta" unicode="&#x397;" horiz-adv-x="444" 
d="M53 0q-10 0 -10 11v633q0 11 10 11h85q10 0 10 -11v-262h149v262q0 11 9 11h85q10 0 10 -11v-633q0 -11 -10 -11h-85q-9 0 -9 11v277h-149v-277q0 -11 -10 -11h-85z" />
    <glyph glyph-name="Theta" unicode="&#x398;" horiz-adv-x="434" 
d="M179 290q-9 0 -9 10v64q0 11 9 11h77q9 0 9 -11v-63q0 -11 -9 -11h-77zM217 -6q-89 0 -135.5 52t-46.5 155v252q0 104 46.5 156t135.5 52q88 0 135 -52t47 -156v-252q0 -103 -47 -155t-135 -52zM217 90q39 0 58.5 27t19.5 89v242q0 63 -19.5 90t-58.5 27t-58.5 -27
t-19.5 -90v-242q0 -62 19.5 -89t58.5 -27z" />
    <glyph glyph-name="Iota" unicode="&#x399;" horiz-adv-x="191" 
d="M52 0q-9 0 -9 11v633q0 11 9 11h87q9 0 9 -11v-633q0 -11 -9 -11h-87z" />
    <glyph glyph-name="Kappa" unicode="&#x39a;" horiz-adv-x="411" 
d="M304 0q-7 0 -10 6l-130 319q-3 8 0 15l122 307q4 8 12 8h90q5 0 7 -3.5t0 -9.5l-124 -304l139 -325q3 -13 -7 -13h-99zM52 0q-9 0 -9 11v633q0 11 9 11h87q9 0 9 -11v-633q0 -11 -9 -11h-87z" />
    <glyph glyph-name="Lambda" unicode="&#x39b;" horiz-adv-x="395" 
d="M8 0q-10 0 -8 12l130 634q2 9 11 9h113q9 0 11 -9l130 -634q2 -12 -7 -12h-94q-8 0 -10 8l-66 402q-6 35 -11 70t-9 69h-2q-5 -34 -9.5 -69t-9.5 -70l-67 -402q-1 -8 -10 -8h-92z" />
    <glyph glyph-name="Mu" unicode="&#x39c;" horiz-adv-x="531" 
d="M45 0q-9 0 -9 11l8 633q0 11 10 11h109q10 0 11 -8l91 -351l92 351q1 8 11 8h109q9 0 9 -11l9 -633q0 -11 -9 -11h-85q-9 0 -9 11l-3 324q-1 44 0.5 83.5t3.5 72.5h-1q-7 -31 -16 -62.5t-19 -62.5l-80 -274q-2 -8 -10 -8h-4q-7 0 -9 8l-81 274q-10 31 -18.5 62.5
t-15.5 62.5h-2q3 -33 4.5 -72.5t0.5 -83.5l-3 -324q0 -11 -9 -11h-85z" />
    <glyph glyph-name="Nu" unicode="&#x39d;" horiz-adv-x="445" 
d="M52 0q-9 0 -9 11v633q0 11 9 11h115q8 0 10 -8l91 -330q7 -25 14.5 -56t15 -62.5t11.5 -55.5h2q-1 20 -2.5 46.5t-3 55t-2 55t-0.5 46.5v299q0 10 9 10h81q9 0 9 -10v-634q0 -11 -9 -11h-114q-7 0 -10 7l-91 323q-13 47 -23 93.5t-18 86.5h-2q2 -29 3.5 -68t2.5 -77.5
t1 -67.5v-286q0 -11 -8 -11h-82z" />
    <glyph glyph-name="Xi" unicode="&#x39e;" horiz-adv-x="377" 
d="M41 557q-9 0 -9 10v77q0 11 9 11h295q9 0 9 -11v-77q0 -10 -9 -10h-295zM41 0q-9 0 -9 11v77q0 10 9 10h295q9 0 9 -10v-77q0 -11 -9 -11h-295zM84 283q-9 0 -9 11v77q0 11 9 11h208q9 0 9 -11v-77q0 -11 -9 -11h-208z" />
    <glyph glyph-name="Omicron" unicode="&#x39f;" horiz-adv-x="434" 
d="M217 -6q-89 0 -135.5 52t-46.5 155v252q0 104 46.5 156t135.5 52q88 0 135 -52t47 -156v-252q0 -103 -47 -155t-135 -52zM217 90q39 0 58.5 27t19.5 89v242q0 63 -19.5 90t-58.5 27t-58.5 -27t-19.5 -90v-242q0 -62 19.5 -89t58.5 -27z" />
    <glyph glyph-name="Pi" unicode="&#x3a0;" horiz-adv-x="442" 
d="M52 0q-9 0 -9 11v633q0 11 10 11h336q10 0 10 -11v-633q0 -11 -10 -11h-85q-10 0 -10 11v549h-146v-548q0 -12 -9 -12h-87z" />
    <glyph glyph-name="Rho" unicode="&#x3a1;" horiz-adv-x="380" 
d="M52 0q-9 0 -9 11v633q0 11 9 11h123q94 0 138.5 -51t44.5 -160q0 -101 -45.5 -155t-133.5 -54h-31v-224q0 -11 -9 -11h-87zM148 330h27q41 0 59.5 28t18.5 85q0 63 -18.5 90t-57.5 27h-29v-230z" />
    <glyph glyph-name="Sigma" unicode="&#x3a3;" horiz-adv-x="339" 
d="M27 0q-9 0 -9 11v63q0 9 4 16l114 239l-114 236q-4 8 -4 16v63q0 11 8 11h290q9 0 9 -11v-73q0 -11 -9 -11h-101q-18 0 -37.5 0.5t-43.5 1.5v-2q10 -19 20 -37.5t19 -38.5l58 -124q4 -6 4 -14v-35q0 -7 -4 -14l-63 -131q-8 -18 -17 -35t-20 -36v-2q19 2 42 2h41h102
q9 0 9 -11v-73q0 -11 -9 -11h-289z" />
    <glyph glyph-name="Tau" unicode="&#x3a4;" horiz-adv-x="362" 
d="M138 0q-9 0 -9 11v549h-104q-10 0 -10 11v73q0 11 10 11h313q9 0 9 -11v-73q0 -11 -9 -11h-104v-549q0 -11 -10 -11h-86z" />
    <glyph glyph-name="Upsilon" unicode="&#x3a5;" horiz-adv-x="392" 
d="M153 0q-9 0 -9 11v214l-138 417q-4 13 7 13h97q8 0 9 -8l50 -198q7 -28 14 -57.5t13 -58.5h1q7 29 13.5 58.5t13.5 58.5l50 197q1 8 9 8h95q11 0 7 -13l-137 -416v-215q0 -11 -8 -11h-87z" />
    <glyph glyph-name="Phi" unicode="&#x3a6;" horiz-adv-x="549" 
d="M246 66q-68 0 -115.5 22.5t-71.5 70.5t-24 121v127q0 73 24 121t71.5 71t115.5 23h54q69 0 116.5 -23t72.5 -70.5t25 -121.5v-127q0 -74 -25 -121.5t-72.5 -70t-116.5 -22.5h-54zM241 158h67q36 0 59 11.5t34 39.5t11 74v121q0 47 -11 74.5t-34 39t-59 11.5h-67
q-36 0 -59.5 -11.5t-34.5 -39t-11 -74.5v-121q0 -46 11 -74t34.5 -39.5t59.5 -11.5zM232 -16q-10 0 -10 11v85l4 15v488l-4 12v97q0 11 10 11h85q10 0 10 -11v-97l-6 -13v-485l6 -17v-85q0 -11 -10 -11h-85z" />
    <glyph glyph-name="Chi" unicode="&#x3a7;" horiz-adv-x="390" 
d="M9 0q-12 0 -7 13l133 324l-125 305q-5 13 6 13h102q6 0 9 -6l40 -126q7 -25 15 -51t14 -52h2q6 26 14 52l16 52l38 124q2 7 9 7h101q11 0 5 -13l-124 -306l131 -323q6 -13 -6 -13h-102q-7 0 -9 7l-45 139q-8 27 -16 53t-15 52h-1q-7 -26 -14.5 -52t-15.5 -53l-46 -139
q-3 -7 -10 -7h-99z" />
    <glyph glyph-name="Psi" unicode="&#x3a8;" horiz-adv-x="535" 
d="M184 165q-57 0 -90.5 17t-47.5 56t-14 104v302q0 11 9 11h86q9 0 9 -11v-302q0 -48 11.5 -65.5t46.5 -17.5h146q36 0 47.5 17.5t11.5 65.5v302q0 11 9 11h86q9 0 9 -11v-302q0 -65 -14 -104t-47.5 -56t-90.5 -17h-167zM225 0q-10 0 -10 11v633q0 11 10 11h85q10 0 10 -11
l-1 -633q0 -11 -9 -11h-85z" />
    <glyph glyph-name="uni03A9" unicode="&#x3a9;" horiz-adv-x="434" 
d="M36 0q-9 0 -9 11v75q0 11 9 11h51v2q-17 14 -28.5 33t-17.5 44.5t-6 61.5v215q0 104 46.5 156t135.5 52t135.5 -52t46.5 -156v-215q0 -36 -6.5 -61.5t-17.5 -44.5t-28 -33v-2h50q9 0 9 -11v-75q0 -11 -9 -11h-151q-9 0 -9 11v74q0 10 7 10q26 0 38.5 30t12.5 81v242
q0 63 -19.5 90t-58.5 27t-58.5 -27t-19.5 -90v-242q0 -51 12 -81t39 -30q7 0 7 -10v-74q0 -11 -9 -11h-152z" />
    <glyph glyph-name="Iotadieresis" unicode="&#x3aa;" horiz-adv-x="191" 
d="M52 0q-9 0 -9 11v633q0 11 9 11h87q9 0 9 -11v-633q0 -11 -9 -11h-87zM29 718q-25 0 -40 13.5t-15 37.5v13q0 25 15 38.5t40 13.5t39.5 -13.5t14.5 -38.5v-13q0 -24 -14.5 -37.5t-39.5 -13.5zM166 718q-25 0 -39.5 13.5t-14.5 37.5v13q0 25 14.5 38.5t39.5 13.5
q26 0 40 -13.5t14 -38.5v-13q0 -24 -14 -37.5t-40 -13.5z" />
    <glyph glyph-name="Upsilondieresis" unicode="&#x3ab;" horiz-adv-x="392" 
d="M153 0q-9 0 -9 11v214l-138 417q-4 13 7 13h97q8 0 9 -8l50 -198q7 -28 14 -57.5t13 -58.5h1q7 29 13.5 58.5t13.5 58.5l50 197q1 8 9 8h95q11 0 7 -13l-137 -416v-215q0 -11 -8 -11h-87zM127 718q-25 0 -40 13.5t-15 37.5v13q0 25 15 38.5t40 13.5t39.5 -13.5
t14.5 -38.5v-13q0 -24 -14.5 -37.5t-39.5 -13.5zM264 718q-25 0 -39.5 13.5t-14.5 37.5v13q0 25 14.5 38.5t39.5 13.5q26 0 40 -13.5t14 -38.5v-13q0 -24 -14 -37.5t-40 -13.5z" />
    <glyph glyph-name="alphatonos" unicode="&#x3ac;" horiz-adv-x="361" 
d="M120 -6q-48 0 -68.5 30t-20.5 97v236q0 45 11.5 76.5t34 47.5t56.5 16q29 0 56.5 -11.5t46.5 -27.5l-3 -74q-15 12 -30.5 19t-30.5 7q-12 0 -20.5 -6.5t-13.5 -19.5t-5 -35v-212q0 -29 7 -40t24 -11t34.5 13.5t32.5 36.5l14 -58q-25 -37 -57.5 -60.5t-67.5 -23.5zM303 -6
q-75 0 -75 88v17l-6 7v312l3 25v38q0 10 10 10h80q9 0 9 -10v-370q0 -17 3.5 -23.5t12.5 -6.5q4 0 8 1t7 2q6 2 6 -6v-66q0 -9 -9 -12q-25 -6 -49 -6zM129 545q-10 0 -8 12l35 147q1 10 12 10h85q12 0 7 -13l-54 -148q-4 -8 -14 -8h-63z" />
    <glyph glyph-name="epsilontonos" unicode="&#x3ad;" horiz-adv-x="339" 
d="M175 -6q-78 0 -115 37t-37 112q0 41 19 69.5t51 38.5v3q-28 14 -44.5 42.5t-16.5 74.5q0 61 35 93.5t105 32.5q71 0 108.5 -36.5t31.5 -102.5q-1 -13 -10 -13h-75q-10 0 -9 12q4 56 -41 56q-23 0 -33 -13.5t-10 -43.5q0 -36 12.5 -53.5t36.5 -17.5h25q9 0 9 -11v-54
q0 -11 -9 -11h-31q-27 0 -39.5 -15t-12.5 -49q0 -33 11.5 -49.5t37.5 -16.5q25 0 37.5 14.5t10.5 41.5q-2 9 8 9h76q8 0 9 -12q7 -66 -28.5 -102t-111.5 -36zM131 546q-10 0 -8 12l35 147q1 10 12 10h85q12 0 7 -13l-54 -148q-4 -8 -14 -8h-63z" />
    <glyph glyph-name="etatonos" unicode="&#x3ae;" horiz-adv-x="379" 
d="M249 -185q-9 0 -9 11v531q0 26 -7.5 37.5t-25.5 11.5q-16 0 -32 -11.5t-33 -32.5l-13 57q26 35 57.5 56.5t68.5 21.5q44 0 65.5 -30.5t21.5 -95.5v-545q0 -11 -10 -11h-83zM55 0q-9 0 -9 11v371q0 15 -3.5 21.5t-11.5 6.5q-5 0 -9 -1t-7 -2q-6 -1 -6 6v67q0 8 9 11
q12 4 25 5t26 1q36 0 55 -22t19 -65v-11l5 -16v-372q0 -11 -10 -11h-83zM149 546q-10 0 -8 12l35 147q1 10 12 10h85q12 0 7 -13l-54 -148q-4 -8 -14 -8h-63z" />
    <glyph glyph-name="iotatonos" unicode="&#x3af;" horiz-adv-x="226" 
d="M142 -6q-36 0 -59.5 13t-34.5 42.5t-11 78.5v353q0 10 9 10h84q9 0 9 -10v-352q0 -27 8.5 -37.5t26.5 -10.5q9 0 18.5 1.5t17.5 2.5q7 2 7 -8v-64q0 -8 -7 -11q-13 -3 -29.5 -5.5t-38.5 -2.5zM48 546q-10 0 -8 12l35 147q1 10 12 10h85q12 0 7 -13l-54 -148q-4 -8 -14 -8
h-63z" />
    <glyph glyph-name="upsilondieresistonos" unicode="&#x3b0;" horiz-adv-x="371" 
d="M191 -6q-72 0 -108.5 39.5t-36.5 119.5v228q0 16 -3 22.5t-12 6.5q-5 0 -9 -1t-7 -2q-6 -1 -6 6v67q0 10 9 11q12 3 25.5 4.5t27.5 1.5q44 0 60.5 -22.5t16.5 -73.5v-249q0 -38 10 -52t33 -14t33 16.5t10 56.5v116q0 62 -4.5 114t-9.5 92q-1 10 8 10h86q8 0 9 -9
q5 -38 9 -91t4 -115v-111q0 -88 -36 -129.5t-109 -41.5zM147 721q-12 0 -9 12l28 129q2 10 12 10h85q6 0 8.5 -3.5t-0.5 -9.5l-50 -129q-3 -9 -12 -9h-62zM100 566q-25 0 -40 13.5t-15 37.5v13q0 25 15 38.5t40 13.5t39.5 -13.5t14.5 -38.5v-13q0 -24 -14.5 -37.5
t-39.5 -13.5zM253 566q-25 0 -39.5 13.5t-14.5 37.5v13q0 25 14.5 38.5t39.5 13.5q26 0 40 -13.5t14 -38.5v-13q0 -24 -14 -37.5t-40 -13.5z" />
    <glyph glyph-name="alpha" unicode="&#x3b1;" horiz-adv-x="361" 
d="M120 -6q-48 0 -68.5 30t-20.5 97v236q0 45 11.5 76.5t34 47.5t56.5 16q29 0 56.5 -11.5t46.5 -27.5l-3 -74q-15 12 -30.5 19t-30.5 7q-12 0 -20.5 -6.5t-13.5 -19.5t-5 -35v-212q0 -29 7 -40t24 -11t34.5 13.5t32.5 36.5l14 -58q-25 -37 -57.5 -60.5t-67.5 -23.5zM303 -6
q-75 0 -75 88v17l-6 7v312l3 25v38q0 10 10 10h80q9 0 9 -10v-370q0 -17 3.5 -23.5t12.5 -6.5q4 0 8 1t7 2q6 2 6 -6v-66q0 -9 -9 -12q-25 -6 -49 -6z" />
    <glyph glyph-name="beta" unicode="&#x3b2;" horiz-adv-x="372" 
d="M47 -185q-10 0 -10 11v705q0 78 37.5 118t107.5 40q68 0 103.5 -36t35.5 -111v-42q0 -44 -13 -71.5t-40 -43.5v-2q35 -8 54.5 -34.5t19.5 -74.5v-132q0 -74 -29 -111t-85 -37q-27 0 -51.5 7t-44.5 17l1 82q13 -7 29.5 -12.5t31.5 -5.5q23 0 35 17t12 52v124q0 27 -11 43
t-33 16h-23q-6 0 -6 8v57q0 8 6 8h12q19 0 27.5 17.5t8.5 55.5v52q0 37 -10 51t-31 14t-31.5 -14t-10.5 -45v-712q0 -11 -9 -11h-83z" />
    <glyph glyph-name="gamma" unicode="&#x3b3;" horiz-adv-x="357" 
d="M138 -185q-9 0 -9 11v133q-5 57 -15.5 126t-24 139.5t-27.5 134.5q-5 29 -13 40t-22 11q-8 0 -18 -2q-4 -1 -6 1t-2 6v65q0 10 8 12q11 3 24 4t29 1q24 0 41.5 -9.5t30 -35.5t20.5 -77q6 -36 10.5 -65t6.5 -55q3 -21 5 -48t4 -53.5t3 -48.5h2q2 16 4 36t4.5 41.5t5 43.5
t5.5 40l37 216q1 9 9 9h89q11 0 8 -12l-116 -483v-170q0 -11 -10 -11h-83z" />
    <glyph glyph-name="delta" unicode="&#x3b4;" horiz-adv-x="367" 
d="M183 -6q-73 0 -112.5 42.5t-39.5 126.5v106q0 41 11 72t31.5 53t48 37t59.5 25l47 -62q-37 -12 -58 -28t-29 -39t-8 -60v-103q0 -42 12 -60t38 -18q27 0 39 18t12 60v106q0 37 -4.5 59.5t-15 43t-32.5 48.5l-94 126q-12 17 -18.5 35.5t-6.5 37.5q0 29 18 47.5t59 18.5
h177q9 0 9 -11v-63q0 -10 -9 -10h-118q-15 0 -15 -13q0 -6 3 -12t8 -13l69 -91q32 -40 47 -72.5t19.5 -64t4.5 -71.5v-102q0 -84 -39 -126.5t-113 -42.5z" />
    <glyph glyph-name="epsilon" unicode="&#x3b5;" horiz-adv-x="339" 
d="M175 -6q-78 0 -115 37t-37 112q0 41 19 69.5t51 38.5v3q-28 14 -44.5 42.5t-16.5 74.5q0 61 35 93.5t105 32.5q71 0 108.5 -36.5t31.5 -102.5q-1 -13 -10 -13h-75q-10 0 -9 12q4 56 -41 56q-23 0 -33 -13.5t-10 -43.5q0 -36 12.5 -53.5t36.5 -17.5h25q9 0 9 -11v-54
q0 -11 -9 -11h-31q-27 0 -39.5 -15t-12.5 -49q0 -33 11.5 -49.5t37.5 -16.5q25 0 37.5 14.5t10.5 41.5q-2 9 8 9h76q8 0 9 -12q7 -66 -28.5 -102t-111.5 -36z" />
    <glyph glyph-name="zeta" unicode="&#x3b6;" horiz-adv-x="308" 
d="M214 -131q-10 0 -10 11v86q0 21 -6 27.5t-22 6.5h-18q-69 0 -103.5 47.5t-34.5 135.5q0 57 14 108.5t37 100.5t50 97l60 110h-139q-10 0 -10 10v63q0 11 10 11h242q9 0 9 -11v-51q0 -4 -0.5 -7.5t-2.5 -7.5l-65 -121q-30 -54 -53.5 -104.5t-37 -97.5t-13.5 -92
q0 -52 17 -76t60 -25q34 -1 57 -8t34.5 -27.5t11.5 -61.5v-113q0 -11 -9 -11h-78z" />
    <glyph glyph-name="eta" unicode="&#x3b7;" horiz-adv-x="379" 
d="M249 -185q-9 0 -9 11v531q0 26 -7.5 37.5t-25.5 11.5q-16 0 -32 -11.5t-33 -32.5l-13 57q26 35 57.5 56.5t68.5 21.5q44 0 65.5 -30.5t21.5 -95.5v-545q0 -11 -10 -11h-83zM55 0q-9 0 -9 11v371q0 15 -3.5 21.5t-11.5 6.5q-5 0 -9 -1t-7 -2q-6 -1 -6 6v67q0 8 9 11
q12 4 25 5t26 1q36 0 55 -22t19 -65v-11l5 -16v-372q0 -11 -10 -11h-83z" />
    <glyph glyph-name="theta" unicode="&#x3b8;" horiz-adv-x="377" 
d="M188 689q73 0 112 -42.5t39 -125.5v-358q0 -84 -39.5 -126.5t-111.5 -42.5q-71 0 -111 42.5t-40 126.5v358q0 83 40 125.5t111 42.5zM188 597q-26 0 -38 -18t-12 -60v-125h100v125q0 42 -11.5 60t-38.5 18zM188 86q27 0 38.5 18t11.5 60v147h-100v-147q0 -42 12 -60
t38 -18z" />
    <glyph glyph-name="iota" unicode="&#x3b9;" horiz-adv-x="226" 
d="M142 -6q-36 0 -59.5 13t-34.5 42.5t-11 78.5v353q0 10 9 10h84q9 0 9 -10v-352q0 -27 8.5 -37.5t26.5 -10.5q9 0 18.5 1.5t17.5 2.5q7 2 7 -8v-64q0 -8 -7 -11q-13 -3 -29.5 -5.5t-38.5 -2.5z" />
    <glyph glyph-name="kappa" unicode="&#x3ba;" horiz-adv-x="361" 
d="M260 0q-7 0 -10 6l-102 234q-4 9 0 19l98 226q3 6 10 6h90q6 0 7 -3t-1 -9l-102 -224l110 -242q6 -13 -6 -13h-94zM46 0q-9 0 -9 11v470q0 10 9 10h84q9 0 9 -10v-470q0 -11 -9 -11h-84z" />
    <glyph glyph-name="lambda" unicode="&#x3bb;" horiz-adv-x="358" 
d="M295 -6q-28 0 -46.5 10.5t-28.5 38t-16 75.5l-17 113q-5 37 -8.5 69.5t-7.5 70.5h-1q-5 -38 -9 -70t-11 -68l-38 -224q-1 -9 -9 -9h-91q-10 0 -7 12l104 451q2 9 10 9h21l-14 89q-3 21 -12 30.5t-23 9.5q-8 0 -14 -0.5t-13 -2.5q-7 -1 -7 7v66q0 9 6 11q24 7 56 7
q27 0 48.5 -9t37.5 -30t22 -58l76 -469q3 -22 10 -31.5t18 -9.5q7 0 19 3q8 2 8 -8v-63q0 -9 -7 -12q-13 -4 -27.5 -6t-28.5 -2z" />
    <glyph glyph-name="uni03BC" unicode="&#x3bc;" horiz-adv-x="365" 
d="M47 -185q-10 0 -10 11v655q0 10 10 10h83q9 0 9 -10v-338q0 -29 8.5 -43t26.5 -14q14 0 27 9t26 26v360q0 10 9 10h83q10 0 10 -10v-370q0 -16 3 -23t12 -7q4 0 8 1t7 2q6 1 6 -7v-66q0 -8 -9 -11q-11 -3 -24 -4.5t-25 -1.5q-26 0 -43.5 11.5t-24.5 37.5l-1 1
q-14 -22 -29 -35t-36 -13q-12 0 -21 6t-14 12v-188q0 -11 -9 -11h-82z" />
    <glyph glyph-name="nu" unicode="&#x3bd;" horiz-adv-x="356" 
d="M129 0q-7 0 -9 8l-104 471q-4 12 7 12h91q9 0 10 -9l42 -265q3 -28 7 -56t7 -56h1q5 29 10.5 57t11.5 57l18 81q6 36 10.5 68t4.5 67v46q0 10 9 10h84q9 0 9 -11v-41q0 -43 -7.5 -85.5t-19.5 -88.5l-68 -257q-1 -8 -9 -8h-105z" />
    <glyph glyph-name="xi" unicode="&#x3be;" horiz-adv-x="310" 
d="M217 -131q-10 0 -10 11v84q0 23 -6 29.5t-23 6.5h-19q-67 0 -100.5 39t-33.5 115v59q0 64 21 98t60 46v2q-37 16 -50.5 42t-13.5 65v23q0 43 16.5 69t50.5 41v2q-17 -1 -29.5 -1.5t-24.5 -0.5h-26q-10 0 -10 11v62q0 11 10 11h245q9 0 9 -11v-65q0 -11 -10 -11h-43
q-46 0 -66.5 -24t-20.5 -75v-22q0 -40 14 -59.5t48 -19.5h30q10 0 10 -11v-61q0 -10 -10 -10h-43q-33 0 -49.5 -23.5t-16.5 -66.5v-55q0 -44 18 -61.5t57 -17.5q36 0 58.5 -7t33.5 -27.5t11 -61.5v-114q0 -11 -10 -11h-77z" />
    <glyph glyph-name="omicron" unicode="&#x3bf;" horiz-adv-x="364" 
d="M182 -6q-74 0 -112.5 42t-38.5 126v168q0 83 38.5 125t112.5 42q75 0 113 -42t38 -125v-168q0 -84 -38 -126t-113 -42zM182 86q26 0 37.5 17.5t11.5 59.5v165q0 42 -11.5 60t-37.5 18t-37.5 -18t-11.5 -60v-165q0 -42 12 -59.5t37 -17.5z" />
    <glyph glyph-name="pi" unicode="&#x3c0;" horiz-adv-x="409" 
d="M333 -6q-45 0 -69 28t-24 101v278h-78v-390q0 -11 -10 -11h-83q-9 0 -9 11v390h-41q-9 0 -9 11v69q0 10 9 10h371q9 0 9 -10v-69q0 -11 -9 -11h-48v-276q0 -23 6.5 -33.5t20.5 -10.5q7 0 13 1t13 2q9 2 9 -7v-63q0 -10 -7 -12q-13 -3 -29.5 -5.5t-34.5 -2.5z" />
    <glyph glyph-name="rho" unicode="&#x3c1;" horiz-adv-x="360" 
d="M46 -185q-9 0 -9 11v506q0 85 38.5 125t107.5 40q71 0 108.5 -40t37.5 -125v-178q0 -79 -26.5 -119.5t-77.5 -40.5q-23 0 -48.5 7t-50.5 19v82q14 -7 29 -13.5t31 -6.5q21 0 31 17.5t10 54.5v180q0 38 -10 55t-34 17q-22 0 -33 -17t-11 -55v-508q0 -11 -9 -11h-84z" />
    <glyph glyph-name="uni03C2" unicode="&#x3c2;" horiz-adv-x="353" 
d="M224 -131q-9 0 -9 11v85q0 20 -6 27.5t-25 7.5h-19q-68 0 -101 39t-33 130v159q0 85 38 127t113 42q47 0 80 -20t48.5 -57t11.5 -86q-1 -14 -11 -14h-73q-5 0 -7.5 3t-1.5 8q2 38 -9 56.5t-37 18.5t-38 -18t-12 -62v-152q0 -48 15 -65.5t49 -18.5q45 -1 70 -9.5t35 -29.5
t10 -58v-113q0 -11 -9 -11h-79z" />
    <glyph glyph-name="sigma" unicode="&#x3c3;" horiz-adv-x="387" 
d="M182 -6q-74 0 -112.5 42.5t-38.5 125.5v162q0 76 37.5 121.5t107.5 45.5h193q9 0 9 -9v-69q0 -11 -9 -10l-70 5v-1q15 -14 24.5 -39t9.5 -60v-146q0 -83 -38 -125.5t-113 -42.5zM182 86q27 0 38 17.5t11 59.5v164q0 23 -3.5 38t-11 25t-17.5 16h-19q-23 0 -35 -19.5
t-12 -59.5v-164q0 -42 11.5 -59.5t37.5 -17.5z" />
    <glyph glyph-name="tau" unicode="&#x3c4;" horiz-adv-x="341" 
d="M212 -6q-34 0 -57 13t-34.5 42t-11.5 79v273h-87q-9 0 -9 11v69q0 10 9 10h297q9 0 9 -10v-69q0 -11 -9 -11h-107v-271q0 -28 8.5 -38.5t27.5 -10.5q11 0 22.5 1.5t19.5 3.5q7 2 7 -8v-65q0 -8 -7 -11l-32.5 -5t-45.5 -3z" />
    <glyph glyph-name="upsilon" unicode="&#x3c5;" horiz-adv-x="371" 
d="M191 -6q-72 0 -108.5 39.5t-36.5 119.5v228q0 16 -3 22.5t-12 6.5q-5 0 -9 -1t-7 -2q-6 -1 -6 6v67q0 10 9 11q12 3 25.5 4.5t27.5 1.5q44 0 60.5 -22.5t16.5 -73.5v-249q0 -38 10 -52t33 -14t33 16.5t10 56.5v116q0 62 -4.5 114t-9.5 92q-1 10 8 10h86q8 0 9 -9
q5 -38 9 -91t4 -115v-111q0 -88 -36 -129.5t-109 -41.5z" />
    <glyph glyph-name="phi" unicode="&#x3c6;" horiz-adv-x="523" 
d="M219 -185q-9 0 -9 11v174h-18q-74 0 -114.5 38t-40.5 128v315q0 10 10 10h83q9 0 9 -10v-320q0 -40 14.5 -57t40.5 -17h16v385q0 11 9 13q20 4 54 8t71 4q75 0 108 -37t33 -113v-181q0 -90 -40.5 -128t-113.5 -38h-19v-174q0 -11 -9 -11h-84zM312 87h16q27 0 41 17t14 57
v190q0 33 -9 45t-28 12q-10 0 -18.5 -1t-15.5 -3v-317z" />
    <glyph glyph-name="chi" unicode="&#x3c7;" horiz-adv-x="342" 
d="M286 -191q-42 0 -57.5 23.5t-23.5 68.5l-17 91q-4 25 -8 49.5t-8 49.5h-2q-4 -25 -9 -49.5t-10 -49.5l-34 -169q-2 -8 -10 -8h-92q-11 0 -8 13l101 334l-50 212q-5 22 -10 29.5t-16 7.5q-5 0 -10.5 -0.5t-11.5 -2.5t-6 7v65q0 9 6 10q10 4 24 5.5t29 1.5q43 0 58.5 -23.5
t23.5 -68.5l15 -85q4 -22 8 -44.5t8 -45.5h1q4 23 8 45.5t9 44.5l30 164q1 7 10 7h93q10 0 6 -12l-93 -316l52 -231q5 -20 10.5 -28.5t14.5 -8.5q5 0 10.5 1.5t11.5 2.5q7 1 7 -7v-65q0 -8 -7 -11q-9 -4 -23 -5.5t-30 -1.5z" />
    <glyph glyph-name="psi" unicode="&#x3c8;" horiz-adv-x="528" 
d="M220 -185q-9 0 -9 11v174h-19q-74 0 -114.5 38t-40.5 128v315q0 10 9 10h84q9 0 9 -10v-320q0 -40 14.5 -57t40.5 -17h17v542q0 11 9 11h83q10 0 10 -11v-542h21q26 0 40 17t14 57v204q0 23 -5 33.5t-18 11.5q-6 2 -6 11v67q0 9 8 9q66 0 94.5 -30.5t28.5 -101.5v-199
q1 -90 -40 -128t-114 -38h-23v-174q0 -11 -10 -11h-83z" />
    <glyph glyph-name="omega" unicode="&#x3c9;" horiz-adv-x="521" 
d="M154 -6q-57 0 -88.5 39.5t-31.5 117.5l1 214q0 69 27.5 100.5t94.5 31.5q9 0 9 -9v-67q0 -9 -6 -11q-13 -1 -18 -11t-5 -34l-1 -212q0 -37 9.5 -51t27.5 -14t28 16.5t10 49.5v178q0 11 9 11h81q9 0 9 -11v-178q0 -33 10 -49.5t28 -16.5t27.5 14t9.5 51l-1 212q0 24 -5 34
t-18 11q-6 2 -6 11v67q0 9 9 9q67 0 94.5 -31.5t27.5 -100.5l1 -214q0 -78 -32 -117.5t-88 -39.5q-39 0 -66.5 21t-39.5 60h-2q-12 -39 -39 -60t-66 -21z" />
    <glyph glyph-name="iotadieresis" unicode="&#x3ca;" horiz-adv-x="226" 
d="M142 -6q-36 0 -59.5 13t-34.5 42.5t-11 78.5v353q0 10 9 10h84q9 0 9 -10v-352q0 -27 8.5 -37.5t26.5 -10.5q9 0 18.5 1.5t17.5 2.5q7 2 7 -8v-64q0 -8 -7 -11q-13 -3 -29.5 -5.5t-38.5 -2.5zM20 569q-25 0 -40 14t-15 38v13q0 25 15 38.5t40 13.5t39.5 -13.5t14.5 -38.5
v-13q0 -24 -14.5 -38t-39.5 -14zM157 569q-25 0 -39.5 14t-14.5 38v13q0 25 14.5 38.5t39.5 13.5q26 0 40 -13.5t14 -38.5v-13q0 -24 -14 -38t-40 -14z" />
    <glyph glyph-name="upsilondieresis" unicode="&#x3cb;" horiz-adv-x="371" 
d="M191 -6q-72 0 -108.5 39.5t-36.5 119.5v228q0 16 -3 22.5t-12 6.5q-5 0 -9 -1t-7 -2q-6 -1 -6 6v67q0 10 9 11q12 3 25.5 4.5t27.5 1.5q44 0 60.5 -22.5t16.5 -73.5v-249q0 -38 10 -52t33 -14t33 16.5t10 56.5v116q0 62 -4.5 114t-9.5 92q-1 10 8 10h86q8 0 9 -9
q5 -38 9 -91t4 -115v-111q0 -88 -36 -129.5t-109 -41.5zM108 568q-25 0 -40 14t-15 38v13q0 25 15 38.5t40 13.5t39.5 -13.5t14.5 -38.5v-13q0 -24 -14.5 -38t-39.5 -14zM245 568q-25 0 -39.5 14t-14.5 38v13q0 25 14.5 38.5t39.5 13.5q26 0 40 -13.5t14 -38.5v-13
q0 -24 -14 -38t-40 -14z" />
    <glyph glyph-name="omicrontonos" unicode="&#x3cc;" horiz-adv-x="364" 
d="M182 -6q-74 0 -112.5 42t-38.5 126v168q0 83 38.5 125t112.5 42q75 0 113 -42t38 -125v-168q0 -84 -38 -126t-113 -42zM182 86q26 0 37.5 17.5t11.5 59.5v165q0 42 -11.5 60t-37.5 18t-37.5 -18t-11.5 -60v-165q0 -42 12 -59.5t37 -17.5zM142 546q-10 0 -8 12l35 147
q1 10 12 10h85q12 0 7 -13l-54 -148q-4 -8 -14 -8h-63z" />
    <glyph glyph-name="upsilontonos" unicode="&#x3cd;" horiz-adv-x="371" 
d="M191 -6q-72 0 -108.5 39.5t-36.5 119.5v228q0 16 -3 22.5t-12 6.5q-5 0 -9 -1t-7 -2q-6 -1 -6 6v67q0 10 9 11q12 3 25.5 4.5t27.5 1.5q44 0 60.5 -22.5t16.5 -73.5v-249q0 -38 10 -52t33 -14t33 16.5t10 56.5v116q0 62 -4.5 114t-9.5 92q-1 10 8 10h86q8 0 9 -9
q5 -38 9 -91t4 -115v-111q0 -88 -36 -129.5t-109 -41.5zM136 545q-10 0 -8 12l35 147q1 10 12 10h85q12 0 7 -13l-54 -148q-4 -8 -14 -8h-63z" />
    <glyph glyph-name="omegatonos" unicode="&#x3ce;" horiz-adv-x="521" 
d="M154 -6q-57 0 -88.5 39.5t-31.5 117.5l1 214q0 69 27.5 100.5t94.5 31.5q9 0 9 -9v-67q0 -9 -6 -11q-13 -1 -18 -11t-5 -34l-1 -212q0 -37 9.5 -51t27.5 -14t28 16.5t10 49.5v178q0 11 9 11h81q9 0 9 -11v-178q0 -33 10 -49.5t28 -16.5t27.5 14t9.5 51l-1 212q0 24 -5 34
t-18 11q-6 2 -6 11v67q0 9 9 9q67 0 94.5 -31.5t27.5 -100.5l1 -214q0 -78 -32 -117.5t-88 -39.5q-39 0 -66.5 21t-39.5 60h-2q-12 -39 -39 -60t-66 -21zM221 546q-10 0 -8 12l35 147q1 10 12 10h85q12 0 7 -13l-54 -148q-4 -8 -14 -8h-63z" />
    <glyph glyph-name="uni0400" unicode="&#x400;" horiz-adv-x="362" 
d="M53 0q-10 0 -10 11v633q0 11 9 11h266q9 0 9 -11v-73q0 -11 -9 -11h-170v-182h155q9 0 9 -11v-69q0 -11 -9 -11h-155v-192h170q9 0 9 -11v-73q0 -11 -9 -11h-265zM179 711q-10 0 -15 8l-67 105q-3 6 -1.5 10t6.5 4h74q5 0 8 -2.5t5 -5.5l55 -107q2 -5 1 -8.5t-7 -3.5h-59
z" />
    <glyph glyph-name="uni0401" unicode="&#x401;" horiz-adv-x="362" 
d="M53 0q-10 0 -10 11v633q0 11 9 11h266q9 0 9 -11v-73q0 -11 -9 -11h-170v-182h155q9 0 9 -11v-69q0 -11 -9 -11h-155v-192h170q9 0 9 -11v-73q0 -11 -9 -11h-265zM117 718q-25 0 -40 13.5t-15 37.5v13q0 25 15 38.5t40 13.5t39.5 -13.5t14.5 -38.5v-13q0 -24 -14.5 -37.5
t-39.5 -13.5zM254 718q-25 0 -39.5 13.5t-14.5 37.5v13q0 25 14.5 38.5t39.5 13.5q26 0 40 -13.5t14 -38.5v-13q0 -24 -14 -37.5t-40 -13.5z" />
    <glyph glyph-name="uni0402" unicode="&#x402;" horiz-adv-x="479" 
d="M325 -6q-9 -2 -12 6l-22 72q-4 13 6 15q16 6 24.5 19t12 36t3.5 56v91q0 26 -9 39t-28 13q-17 0 -33.5 -9.5t-32.5 -24.5v-296q0 -11 -10 -11h-86q-9 0 -9 11v549h-104q-10 0 -10 11v73q0 11 10 11h313q9 0 9 -11v-73q0 -11 -9 -11h-104v-173q21 18 50.5 33t63.5 15
q47 0 70 -32t23 -90v-116q0 -62 -11.5 -103.5t-37 -65t-67.5 -34.5z" />
    <glyph glyph-name="uni0403" unicode="&#x403;" horiz-adv-x="316" 
d="M52 0q-9 0 -9 11v633q0 11 9 11h241q8 0 8 -11v-73q0 -11 -8 -11h-145v-549q0 -11 -9 -11h-87zM123 711q-5 0 -6.5 3.5t0.5 8.5l56 107q5 8 13 8h73q6 0 7.5 -4t-2.5 -10l-67 -105q-4 -8 -15 -8h-59z" />
    <glyph glyph-name="uni0404" unicode="&#x404;" horiz-adv-x="416" 
d="M209 -6q-59 0 -97.5 21t-57.5 66t-19 115v263q0 106 44.5 154t131.5 48q58 0 97.5 -22.5t58 -64t14.5 -99.5q-2 -12 -9 -12h-88q-8 0 -8 13q1 30 -6 49.5t-22 29.5t-39 10q-37 0 -53.5 -21t-16.5 -80v-86h107q9 0 9 -11v-71q0 -11 -9 -11h-107v-94q0 -56 16.5 -78.5
t52.5 -22.5q38 0 54.5 24t14.5 67q0 12 10 12h85q9 0 9 -11q3 -58 -15 -100.5t-57.5 -65t-99.5 -22.5z" />
    <glyph glyph-name="uni0405" unicode="&#x405;" horiz-adv-x="373" 
d="M182 -6q-60 0 -96.5 24t-51 67t-9.5 101q1 12 9 12h85q9 0 8 -11q-5 -49 10 -74.5t48 -25.5q30 0 44.5 18t14.5 57q0 34 -10.5 57.5t-34.5 41.5l-84 66q-45 35 -67 75.5t-21 100.5q1 75 40 116.5t114 41.5q86 0 126 -49t32 -137q-1 -14 -9 -14h-86q-10 0 -8 14
q4 42 -9 67.5t-42 25.5q-25 0 -39 -16t-15 -50q0 -33 12.5 -55t36.5 -40l81 -63q33 -24 52 -49.5t27.5 -57t7.5 -74.5q0 -80 -40 -124.5t-126 -44.5z" />
    <glyph glyph-name="uni0406" unicode="&#x406;" horiz-adv-x="191" 
d="M52 0q-9 0 -9 11v633q0 11 9 11h87q9 0 9 -11v-633q0 -11 -9 -11h-87z" />
    <glyph glyph-name="uni0407" unicode="&#x407;" horiz-adv-x="191" 
d="M52 0q-9 0 -9 11v633q0 11 9 11h87q9 0 9 -11v-633q0 -11 -9 -11h-87zM29 718q-25 0 -40 13.5t-15 37.5v13q0 25 15 38.5t40 13.5t39.5 -13.5t14.5 -38.5v-13q0 -24 -14.5 -37.5t-39.5 -13.5zM166 718q-25 0 -39.5 13.5t-14.5 37.5v13q0 25 14.5 38.5t39.5 13.5
q26 0 40 -13.5t14 -38.5v-13q0 -24 -14 -37.5t-40 -13.5z" />
    <glyph glyph-name="uni0408" unicode="&#x408;" horiz-adv-x="191" 
d="M23 -149q-9 -4 -12 7l-22 71q-2 6 -0.5 10t5.5 5q17 7 28 20.5t16 40t5 71.5v568q0 11 9 11h87q9 0 9 -11v-564q0 -73 -14 -120t-42 -73t-69 -36z" />
    <glyph glyph-name="uni0409" unicode="&#x409;" horiz-adv-x="592" 
d="M8 0q-10 0 -8 12l130 634q2 9 11 9h113q9 0 11 -9l46 -226h58q102 0 151 -52t49 -156q0 -102 -40.5 -156.5t-129.5 -55.5h-105q-8 0 -10 8l-67 408q-6 34 -10.5 67t-8.5 66h-2q-4 -33 -8.5 -66t-10.5 -67l-67 -408q-1 -8 -10 -8h-92zM376 95h13q39 0 58 28t18 89
q-1 63 -24 89.5t-76 26.5h-35z" />
    <glyph glyph-name="uni040A" unicode="&#x40a;" horiz-adv-x="639" 
d="M53 0q-10 0 -10 11v633q0 11 10 11h85q10 0 10 -11v-242h149v242q0 11 9 11h85q10 0 10 -11v-242h29q94 0 140.5 -50t46.5 -145q0 -100 -44 -153.5t-145 -53.5h-122q-9 0 -9 11v299h-149v-299q0 -11 -10 -11h-85zM401 95h27q46 0 65.5 28t19.5 84q-1 54 -21.5 78.5
t-64.5 24.5h-26v-215z" />
    <glyph glyph-name="uni040B" unicode="&#x40b;" horiz-adv-x="479" 
d="M138 0q-9 0 -9 11v549h-104q-10 0 -10 11v73q0 11 10 11h323q9 0 9 -11v-73q0 -11 -9 -11h-114v-173q21 18 50.5 33t63.5 15q47 0 70 -32t23 -90v-302q0 -11 -9 -11h-86q-9 0 -9 11v278q0 26 -9 39t-28 13q-17 0 -33.5 -9.5t-32.5 -24.5v-296q0 -11 -10 -11h-86z" />
    <glyph glyph-name="uni040C" unicode="&#x40c;" horiz-adv-x="411" 
d="M53 0q-10 0 -10 11v633q0 11 10 11h85q10 0 10 -11v-268h34l104 273q2 4 5 5t6 1h89q6 0 6.5 -4t-1.5 -9l-118 -300l135 -329q6 -13 -7 -13h-95q-4 0 -6.5 1t-4.5 6l-112 276h-35v-272q0 -11 -10 -11h-85zM150 711q-5 0 -6.5 3.5t0.5 8.5l56 107q5 8 13 8h73q6 0 7.5 -4
t-2.5 -10l-67 -105q-4 -8 -15 -8h-59z" />
    <glyph glyph-name="uni040D" unicode="&#x40d;" horiz-adv-x="442" 
d="M53 0q-10 0 -10 11v633q0 11 10 11h82q9 0 9 -11v-260q0 -20 -1 -51.5t-3 -66t-4 -66t-3 -51.5h2q7 26 16 60.5t21.5 78.5t28.5 96l81 263q2 8 10 8h98q10 0 10 -11v-633q0 -11 -10 -11h-82q-9 0 -9 11l2 244q0 23 1 56t2.5 68.5t3.5 68t4 56.5h-2q-8 -30 -18 -66.5
t-23 -82t-30 -100.5l-79 -247q-2 -8 -10 -8h-97zM215 711q-10 0 -15 8l-67 105q-3 6 -1.5 10t6.5 4h74q5 0 8 -2.5t5 -5.5l55 -107q2 -5 1 -8.5t-7 -3.5h-59z" />
    <glyph glyph-name="uni040E" unicode="&#x40e;" horiz-adv-x="399" 
d="M82 0q-5 0 -7 3.5t-1 9.5l69 210l-133 419q-4 13 7 13h100q8 0 10 -7l48 -194l12 -56l12 -56h2q7 28 13 56t13 56l48 193q1 8 9 8h100q11 0 8 -13l-203 -634q-3 -8 -11 -8h-96zM201 708q-33 0 -55 10t-36 22q-4 4 -4 11v53q0 12 10 5q17 -11 37.5 -19t47.5 -8
q28 0 47.5 8t36.5 19q4 4 7.5 2.5t3.5 -7.5v-53q0 -8 -5 -11q-14 -12 -35.5 -22t-54.5 -10z" />
    <glyph glyph-name="uni040F" unicode="&#x40f;" horiz-adv-x="442" 
d="M180 -138q-10 0 -10 11v127h-118q-9 0 -9 11v633q0 11 10 11h86q9 0 9 -11v-549h147v549q0 11 9 11h86q9 0 9 -11v-633q0 -11 -8 -11h-119v-127q0 -11 -9 -11h-83z" />
    <glyph glyph-name="uni0410" unicode="&#x410;" horiz-adv-x="401" 
d="M8 0q-10 0 -8 12l133 634q2 9 11 9h113q9 0 11 -9l133 -634q2 -12 -7 -12h-95q-8 0 -10 8l-67 403q-6 35 -11.5 69.5t-9.5 68.5h-2q-5 -34 -9.5 -68.5t-10.5 -69.5l-69 -403q-1 -8 -9 -8h-93zM117 144l16 89h132l17 -89h-165z" />
    <glyph glyph-name="uni0411" unicode="&#x411;" horiz-adv-x="395" 
d="M53 0q-10 0 -10 11v633q0 11 10 11h264q8 0 8 -11v-73q0 -11 -9 -11h-168v-154h35q99 0 143 -48.5t44 -146.5q0 -71 -19.5 -117.5t-61 -70t-110.5 -23.5h-126zM148 90h34q45 0 64.5 28t19.5 91q0 61 -19.5 86t-64.5 25h-34v-230z" />
    <glyph glyph-name="uni0412" unicode="&#x412;" horiz-adv-x="400" 
d="M54 0q-11 0 -11 11v633q0 11 11 11h128q88 0 131 -40.5t43 -122.5q0 -52 -19 -88t-58 -57v-2q47 -15 71.5 -55t24.5 -102q0 -94 -45.5 -141t-138.5 -47h-137zM148 90h42q41 0 61.5 26t20.5 79q0 50 -20.5 75t-60.5 25h-43v-205zM148 378h36q34 0 51.5 25t17.5 73
q0 47 -17 68t-54 21h-34v-187z" />
    <glyph glyph-name="uni0413" unicode="&#x413;" horiz-adv-x="316" 
d="M52 0q-9 0 -9 11v633q0 11 9 11h241q8 0 8 -11v-73q0 -11 -8 -11h-145v-549q0 -11 -9 -11h-87z" />
    <glyph glyph-name="uni0414" unicode="&#x414;" horiz-adv-x="450" 
d="M147 35h-108l119 611q2 9 11 9h114q8 0 10 -9l118 -611h-110l-56 376q-6 35 -10.5 69.5t-8.5 68.5h-2q-5 -34 -9.5 -68.5t-9.5 -69.5zM20 -138q-9 0 -9 11v212q0 10 9 10h410q10 0 10 -10v-212q0 -11 -10 -11h-83q-9 0 -9 11v127h-225v-127q0 -11 -10 -11h-83z" />
    <glyph glyph-name="uni0415" unicode="&#x415;" horiz-adv-x="362" 
d="M53 0q-10 0 -10 11v633q0 11 9 11h266q9 0 9 -11v-73q0 -11 -9 -11h-170v-182h155q9 0 9 -11v-69q0 -11 -9 -11h-155v-192h170q9 0 9 -11v-73q0 -11 -9 -11h-265z" />
    <glyph glyph-name="uni0416" unicode="&#x416;" horiz-adv-x="599" 
d="M17 0q-10 0 -6 13l110 326l-96 303q-4 13 6 13h93q9 0 11 -7l75 -274h39v270q0 11 9 11h82q10 0 10 -11v-270h38l77 274q2 7 10 7h94q9 0 5 -13l-96 -303l110 -326q4 -13 -7 -13h-99q-4 0 -6.5 1.5t-3.5 6.5l-83 277h-39v-274q0 -11 -10 -11h-82q-9 0 -9 11v274h-40
l-85 -277q-2 -5 -4 -6.5t-7 -1.5h-96z" />
    <glyph glyph-name="uni0417" unicode="&#x417;" horiz-adv-x="390" 
d="M186 -6q-60 0 -97.5 21.5t-52.5 62t-11 97.5q1 7 4 9t8 2h78q8 0 7 -10q-3 -45 13 -68t52 -23q40 0 57 24.5t17 79.5q0 51 -19 74.5t-64 23.5h-43q-9 0 -9 10v66q0 11 9 11h33q42 0 60 27t18 80q0 47 -14.5 68t-49.5 21t-48.5 -21.5t-9.5 -66.5q0 -11 -8 -11h-79
q-5 0 -7.5 2t-2.5 8q-7 87 33.5 133.5t127.5 46.5q80 0 120.5 -41.5t40.5 -123.5q0 -56 -19.5 -96.5t-52.5 -59.5v-2q42 -15 64.5 -53t22.5 -97q0 -98 -45 -146t-133 -48z" />
    <glyph glyph-name="uni0418" unicode="&#x418;" horiz-adv-x="442" 
d="M53 0q-10 0 -10 11v633q0 11 10 11h82q9 0 9 -11v-260q0 -20 -1 -51.5t-3 -66t-4 -66t-3 -51.5h2q7 26 16 60.5t21.5 78.5t28.5 96l81 263q2 8 10 8h98q10 0 10 -11v-633q0 -11 -10 -11h-82q-9 0 -9 11l2 244q0 23 1 56t2.5 68.5t3.5 68t4 56.5h-2q-8 -30 -18 -66.5
t-23 -82t-30 -100.5l-79 -247q-2 -8 -10 -8h-97z" />
    <glyph glyph-name="uni0419" unicode="&#x419;" horiz-adv-x="442" 
d="M53 0q-10 0 -10 11v633q0 11 10 11h82q9 0 9 -11v-260q0 -20 -1 -51.5t-3 -66t-4 -66t-3 -51.5h2q7 26 16 60.5t21.5 78.5t28.5 96l81 263q2 8 10 8h98q10 0 10 -11v-633q0 -11 -10 -11h-82q-9 0 -9 11l2 244q0 23 1 56t2.5 68.5t3.5 68t4 56.5h-2q-8 -30 -18 -66.5
t-23 -82t-30 -100.5l-79 -247q-2 -8 -10 -8h-97zM221 708q-33 0 -55 10t-36 22q-4 4 -4 11v53q0 12 10 5q17 -11 37.5 -19t47.5 -8q28 0 47.5 8t36.5 19q4 4 7.5 2.5t3.5 -7.5v-53q0 -8 -5 -11q-14 -12 -35.5 -22t-54.5 -10z" />
    <glyph glyph-name="uni041A" unicode="&#x41a;" horiz-adv-x="411" 
d="M53 0q-10 0 -10 11v633q0 11 10 11h85q10 0 10 -11v-268h34l104 273q2 4 5 5t6 1h89q6 0 6.5 -4t-1.5 -9l-118 -300l135 -329q6 -13 -7 -13h-95q-4 0 -6.5 1t-4.5 6l-112 276h-35v-272q0 -11 -10 -11h-85z" />
    <glyph glyph-name="uni041B" unicode="&#x41b;" horiz-adv-x="395" 
d="M8 0q-10 0 -8 12l130 634q2 9 11 9h113q9 0 11 -9l130 -634q2 -12 -7 -12h-94q-8 0 -10 8l-66 402q-6 35 -11 70t-9 69h-2q-5 -34 -9.5 -69t-9.5 -70l-67 -402q-1 -8 -10 -8h-92z" />
    <glyph glyph-name="uni041C" unicode="&#x41c;" horiz-adv-x="531" 
d="M45 0q-9 0 -9 11l8 633q0 11 10 11h109q10 0 11 -8l91 -351l92 351q1 8 11 8h109q9 0 9 -11l9 -633q0 -11 -9 -11h-85q-9 0 -9 11l-3 324q-1 44 0.5 83.5t3.5 72.5h-1q-7 -31 -16 -62.5t-19 -62.5l-80 -274q-2 -8 -10 -8h-4q-7 0 -9 8l-81 274q-10 31 -18.5 62.5
t-15.5 62.5h-2q3 -33 4.5 -72.5t0.5 -83.5l-3 -324q0 -11 -9 -11h-85z" />
    <glyph glyph-name="uni041D" unicode="&#x41d;" horiz-adv-x="444" 
d="M53 0q-10 0 -10 11v633q0 11 10 11h85q10 0 10 -11v-262h149v262q0 11 9 11h85q10 0 10 -11v-633q0 -11 -10 -11h-85q-9 0 -9 11v277h-149v-277q0 -11 -10 -11h-85z" />
    <glyph glyph-name="uni041E" unicode="&#x41e;" horiz-adv-x="434" 
d="M217 -6q-89 0 -135.5 52t-46.5 155v252q0 104 46.5 156t135.5 52q88 0 135 -52t47 -156v-252q0 -103 -47 -155t-135 -52zM217 90q39 0 58.5 27t19.5 89v242q0 63 -19.5 90t-58.5 27t-58.5 -27t-19.5 -90v-242q0 -62 19.5 -89t58.5 -27z" />
    <glyph glyph-name="uni041F" unicode="&#x41f;" horiz-adv-x="442" 
d="M52 0q-9 0 -9 11v633q0 11 10 11h336q10 0 10 -11v-633q0 -11 -10 -11h-85q-10 0 -10 11v549h-146v-548q0 -12 -9 -12h-87z" />
    <glyph glyph-name="uni0420" unicode="&#x420;" horiz-adv-x="380" 
d="M52 0q-9 0 -9 11v633q0 11 9 11h123q94 0 138.5 -51t44.5 -160q0 -101 -45.5 -155t-133.5 -54h-31v-224q0 -11 -9 -11h-87zM148 330h27q41 0 59.5 28t18.5 85q0 63 -18.5 90t-57.5 27h-29v-230z" />
    <glyph glyph-name="uni0421" unicode="&#x421;" horiz-adv-x="428" 
d="M217 -6q-89 0 -135.5 52.5t-46.5 163.5v235q0 108 46.5 162t135.5 54q62 0 104 -28t60.5 -79t10.5 -120q-2 -10 -9 -10h-87q-10 0 -8 11q5 64 -12 97t-60 33q-39 0 -58 -29t-19 -95v-225q0 -68 19.5 -97t58.5 -29q45 0 60 35.5t12 94.5q-1 12 8 12h85q9 0 11 -12
q8 -105 -36.5 -165.5t-139.5 -60.5z" />
    <glyph glyph-name="uni0422" unicode="&#x422;" horiz-adv-x="362" 
d="M138 0q-9 0 -9 11v549h-104q-10 0 -10 11v73q0 11 10 11h313q9 0 9 -11v-73q0 -11 -9 -11h-104v-549q0 -11 -10 -11h-86z" />
    <glyph glyph-name="uni0423" unicode="&#x423;" horiz-adv-x="399" 
d="M82 0q-5 0 -7 3.5t-1 9.5l69 210l-133 419q-4 13 7 13h100q8 0 10 -7l48 -194l12 -56l12 -56h2q7 28 13 56t13 56l48 193q1 8 9 8h100q11 0 8 -13l-203 -634q-3 -8 -11 -8h-96z" />
    <glyph glyph-name="uni0424" unicode="&#x424;" horiz-adv-x="556" 
d="M248 -6q-69 0 -116.5 23.5t-72 74.5t-24.5 133v210q0 78 24.5 127.5t72 74t116.5 24.5h58q69 0 117 -23.5t73 -73.5t25 -129v-210q0 -84 -25 -134.5t-73 -73.5t-117 -23h-58zM244 87h68q40 0 63 11.5t33.5 42.5t10.5 86v205q0 52 -10.5 81.5t-33.5 42t-63 12.5h-68
q-39 0 -63 -12.5t-34.5 -42t-10.5 -81.5v-205q0 -55 10.5 -86t34.5 -42.5t63 -11.5zM234 -77q-8 0 -8 11v102l4 26v531l-4 26v102q0 11 8 11h87q9 0 9 -11v-102l-5 -27v-528l5 -28v-102q0 -11 -9 -11h-87z" />
    <glyph glyph-name="uni0425" unicode="&#x425;" horiz-adv-x="390" 
d="M9 0q-12 0 -7 13l133 324l-125 305q-5 13 6 13h102q6 0 9 -6l40 -126q7 -25 15 -51t14 -52h2q6 26 14 52l16 52l38 124q2 7 9 7h101q11 0 5 -13l-124 -306l131 -323q6 -13 -6 -13h-102q-7 0 -9 7l-45 139q-8 27 -16 53t-15 52h-1q-7 -26 -14.5 -52t-15.5 -53l-46 -139
q-3 -7 -10 -7h-99z" />
    <glyph glyph-name="uni0426" unicode="&#x426;" horiz-adv-x="458" 
d="M351 -138q-9 0 -9 11v127h-289q-10 0 -10 11v633q0 11 10 11h85q10 0 10 -11v-549h145v549q0 11 9 11h86q9 0 9 -11v-549h38q9 0 9 -10v-212q0 -11 -9 -11h-84z" />
    <glyph glyph-name="uni0427" unicode="&#x427;" horiz-adv-x="426" 
d="M158 203q-57 0 -88 36.5t-31 118.5v286q0 11 10 11h85q10 0 10 -11v-272q0 -39 12 -56t40 -17q25 0 49 13t44 33v-89q-25 -21 -57.5 -37t-73.5 -16zM289 0q-10 0 -10 11v633q0 11 10 11h85q10 0 10 -11v-633q0 -11 -10 -11h-85z" />
    <glyph glyph-name="uni0428" unicode="&#x428;" horiz-adv-x="597" 
d="M53 0q-10 0 -10 11v633q0 11 10 11h85q10 0 10 -11v-549h99v549q0 11 9 11h86q9 0 9 -11v-549h99v549q0 11 9 11h86q9 0 9 -11v-633q0 -11 -9 -11h-492z" />
    <glyph glyph-name="uni0429" unicode="&#x429;" horiz-adv-x="615" 
d="M509 -138q-10 0 -10 11v127h-446q-10 0 -10 11v633q0 11 10 11h85q10 0 10 -11v-549h99v549q0 11 9 11h86q9 0 9 -11v-549h99v549q0 11 9 11h86q9 0 9 -11v-549h37q5 0 7.5 -3t2.5 -8v-211q0 -11 -10 -11h-82z" />
    <glyph glyph-name="uni042A" unicode="&#x42a;" horiz-adv-x="449" 
d="M113 0q-9 0 -9 11v549h-80q-10 0 -10 11v73q0 11 10 11h174q10 0 10 -11v-224h28q96 0 143.5 -51.5t47.5 -151.5q0 -107 -44.5 -162t-148.5 -55h-121zM208 95h26q48 0 68.5 29t20.5 93q-1 59 -22 85t-67 26h-26v-233z" />
    <glyph glyph-name="uni042B" unicode="&#x42b;" horiz-adv-x="579" 
d="M53 0q-10 0 -10 11v633q0 11 10 11h85q10 0 10 -11v-224h28q96 0 143 -51.5t47 -151.5q0 -107 -44.5 -162t-147.5 -55h-121zM148 95h26q48 0 68.5 29t20.5 93q-1 59 -22 85t-68 26h-25v-233zM441 0q-9 0 -9 11v633q0 11 9 11h87q9 0 9 -11v-633q0 -11 -9 -11h-87z" />
    <glyph glyph-name="uni042C" unicode="&#x42c;" horiz-adv-x="389" 
d="M53 0q-10 0 -10 11v633q0 11 10 11h85q10 0 10 -11v-224h28q96 0 143 -51.5t47 -151.5q0 -107 -44.5 -162t-147.5 -55h-121zM148 95h26q48 0 68.5 29t20.5 93q-1 59 -22 85t-68 26h-25v-233z" />
    <glyph glyph-name="uni042D" unicode="&#x42d;" horiz-adv-x="414" 
d="M206 -6q-61 0 -99.5 22.5t-56 65t-15.5 100.5q0 11 10 11h83q10 0 10 -12q-1 -43 14.5 -67t53.5 -24q37 0 53 22.5t16 78.5v94h-107q-9 0 -9 11v71q0 11 9 11h107v86q0 59 -16.5 80t-53.5 21q-23 0 -39 -10t-23 -29.5t-6 -49.5q1 -13 -8 -13h-86q-7 0 -8 12
q-6 58 14 99.5t61.5 64t98.5 22.5q88 0 129.5 -48t41.5 -157v-260q0 -70 -18 -115t-56.5 -66t-99.5 -21z" />
    <glyph glyph-name="uni042E" unicode="&#x42e;" horiz-adv-x="602" 
d="M392 -6q-84 0 -130 52t-46 155v253q0 104 46 155.5t130 51.5t129.5 -51t45.5 -156v-253q0 -104 -45.5 -155.5t-129.5 -51.5zM52 0q-9 0 -9 11v633q0 11 9 11h87q9 0 9 -11v-262h105v-94h-105v-277q0 -11 -9 -11h-87zM392 90q35 0 53 26t18 90v243q0 64 -18 90t-53 26
t-53 -26t-18 -90v-243q0 -63 18 -89.5t53 -26.5z" />
    <glyph glyph-name="uni042F" unicode="&#x42f;" horiz-adv-x="405" 
d="M17 0q-11 0 -5 13l67 186q8 23 16.5 45.5t17.5 44.5v2q-37 22 -57 61.5t-20 100.5q0 65 20 110.5t61.5 68.5t103.5 23h131q10 0 10 -11v-633q0 -11 -10 -11h-85q-10 0 -10 11v256h-48l-90 -260q-1 -4 -4 -5.5t-7 -1.5h-91zM222 353h35v207h-34q-42 0 -62.5 -25.5
t-20.5 -81.5q0 -53 20.5 -76.5t61.5 -23.5z" />
    <glyph glyph-name="uni0430" unicode="&#x430;" horiz-adv-x="346" 
d="M233 0q-9 0 -10 10q-2 17 -4 42.5t-3 45.5l-9 12v248q0 32 -7.5 44t-29.5 12t-30.5 -13.5t-5.5 -45.5q1 -11 -10 -11h-72q-11 0 -12 14q-5 66 29 102.5t104 36.5q72 0 104 -32t32 -108v-232q0 -43 1 -70t2 -43q1 -12 -7 -12h-72zM113 -6q-42 0 -65 35t-23 97q0 69 31 109
t103 49l56 7v-65l-36 -5q-28 -3 -42 -23.5t-14 -58.5q0 -29 8 -45t23 -16t30 12.5t37 42.5l8 -64q-33 -41 -58 -58t-58 -17z" />
    <glyph glyph-name="uni0431" unicode="&#x431;" horiz-adv-x="363" 
d="M181 -6q-73 0 -110.5 42t-37.5 129v278q0 69 15.5 109.5t49.5 65.5q24 17 54.5 28t62 23.5t57.5 34.5q4 3 7.5 1.5t4.5 -6.5l20 -73q3 -11 -3 -15q-19 -16 -43.5 -25t-48 -16.5t-40.5 -19.5q-21 -14 -28 -36.5t-7 -61.5v-287q0 -41 11 -60t36 -19q27 0 38 19t11 60v150
q0 30 -7.5 42t-24.5 12q-18 0 -35.5 -13.5t-35.5 -36.5l-3 77q27 30 56 47t61 17q45 0 68 -32t23 -99l-1 -164q-1 -84 -39 -127.5t-111 -43.5z" />
    <glyph glyph-name="uni0432" unicode="&#x432;" horiz-adv-x="365" 
d="M182 -6q-76 0 -113 42t-37 126v369q0 80 37 119t108 39q70 0 105.5 -36.5t35.5 -109.5q0 -56 -15.5 -93.5t-46.5 -58.5v-2q38 -6 57.5 -36t19.5 -85v-105q0 -80 -38.5 -124.5t-112.5 -44.5zM181 86q27 0 39 19.5t12 58.5v111q0 33 -10 46t-32 13q-14 0 -29 -4.5
t-28 -11.5v-156q0 -39 10.5 -57.5t37.5 -18.5zM133 392l29 11q28 11 42 41t14 78q0 40 -9.5 57.5t-32.5 17.5q-22 0 -32.5 -14t-10.5 -45v-146z" />
    <glyph glyph-name="uni0433" unicode="&#x433;" horiz-adv-x="331" 
d="M164 -6q-70 0 -104 30.5t-34 92.5q0 45 14.5 78t47.5 58l72 53q20 15 28 30.5t8 36.5q0 42 -36 42q-19 0 -28 -13.5t-8 -39.5q1 -12 -9 -12h-74q-9 0 -10 12q-5 64 30 99.5t104 35.5q65 0 99 -30t34 -91q0 -45 -16 -75.5t-50 -56.5l-63 -47q-21 -15 -31 -33t-10 -42
t10.5 -35t30.5 -11q23 0 33 15.5t8 48.5q0 10 9 10h76q8 0 9 -10q6 -73 -30.5 -109.5t-109.5 -36.5z" />
    <glyph glyph-name="uni0434" unicode="&#x434;" horiz-adv-x="362" 
d="M176 -191q-76 0 -108 36.5t-27 98.5q1 7 4 9t8 2h73q9 0 9 -11q-1 -26 8.5 -38t32.5 -12q27 0 37 16.5t10 54.5v53v25.5v23.5h-1q-23 -23 -49 -36.5t-53 -13.5q-46 0 -67.5 29.5t-21.5 92.5v200q0 83 34.5 120.5t101.5 37.5q44 0 81.5 -7.5t76.5 -10.5v-507
q0 -82 -36.5 -122.5t-112.5 -40.5zM165 109q14 0 29 10t29 27v257q-9 2 -21 4.5t-23 2.5q-24 0 -35 -17.5t-11 -54.5v-184q0 -24 7.5 -34.5t24.5 -10.5z" />
    <glyph glyph-name="uni0435" unicode="&#x435;" horiz-adv-x="359" 
d="M182 -6q-76 0 -113.5 42t-37.5 130v163q0 85 38 126.5t110 41.5q75 0 112.5 -42t37.5 -129v-94q0 -10 -10 -10h-187v-61q0 -44 11.5 -63t38.5 -19q24 0 34.5 13.5t9.5 42.5q-1 11 8 11h79q9 0 9 -10q2 -70 -33.5 -106t-106.5 -36zM132 293h96v48q0 38 -11.5 55t-36.5 17
q-24 0 -36 -17.5t-12 -54.5v-48z" />
    <glyph glyph-name="uni0436" unicode="&#x436;" horiz-adv-x="511" 
d="M12 0q-5 0 -6.5 4t0.5 9l83 253l-74 213q-4 12 7 12h88q8 0 10 -6l56 -183h30v370q0 11 9 11h82q9 0 9 -11v-370h30l57 183q1 6 10 6h87q11 0 6 -12l-73 -213l83 -253q2 -5 0.5 -9t-6.5 -4h-92q-8 0 -10 7l-64 209h-28v-205q0 -11 -9 -11h-82q-9 0 -9 11v205h-31
l-65 -209q-2 -7 -10 -7h-88z" />
    <glyph glyph-name="uni0437" unicode="&#x437;" horiz-adv-x="324" 
d="M152 -191q-77 0 -109.5 41.5t-25.5 114.5q2 12 9 12h76q10 0 9 -12q-2 -38 7 -56t34 -18q24 0 35.5 18t11.5 64v71q0 42 -16.5 62t-55.5 20h-43q-4 0 -6.5 3t-2.5 7v66q0 5 2.5 8t6.5 3h38q35 0 51 22.5t16 68.5v50q0 33 -9 47.5t-30 14.5q-22 0 -30.5 -16t-7.5 -45
q1 -4 -1.5 -7t-5.5 -3h-77q-8 0 -9 12q-5 61 28 100.5t106 39.5q68 0 103 -34.5t35 -103.5v-51q0 -47 -17.5 -81t-49.5 -50v-1q36 -11 56.5 -44t20.5 -84v-63q0 -84 -36 -130t-113 -46z" />
    <glyph glyph-name="uni0438" unicode="&#x438;" horiz-adv-x="365" 
d="M125 -6q-47 0 -67.5 30.5t-20.5 96.5v360q0 10 10 10h83q9 0 9 -10v-346q0 -29 7 -39t22 -10q18 0 35.5 13.5t33.5 36.5l14 -58q-25 -37 -58 -60.5t-68 -23.5zM252 0q-8 0 -10 10q-2 18 -3.5 45t-2.5 43l-10 19v364q0 10 10 10h83q9 0 9 -10v-356q0 -38 1 -66t2 -46
q1 -13 -8 -13h-71z" />
    <glyph glyph-name="uni0439" unicode="&#x439;" horiz-adv-x="365" 
d="M125 -6q-47 0 -67.5 30.5t-20.5 96.5v360q0 10 10 10h83q9 0 9 -10v-346q0 -29 7 -39t22 -10q18 0 35.5 13.5t33.5 36.5l14 -58q-25 -37 -58 -60.5t-68 -23.5zM252 0q-8 0 -10 10q-2 18 -3.5 45t-2.5 43l-10 19v364q0 10 10 10h83q9 0 9 -10v-356q0 -38 1 -66t2 -46
q1 -13 -8 -13h-71zM184 546q-29 0 -50 10t-35 22q-4 4 -4 11v53q0 7 3 8t7 -2q17 -12 36.5 -19.5t42.5 -7.5t42 7.5t36 19.5q4 3 7 2t3 -8v-53q0 -7 -4 -11q-14 -13 -35 -22.5t-49 -9.5z" />
    <glyph glyph-name="uni043A" unicode="&#x43a;" horiz-adv-x="357" 
d="M355 13q5 -13 -7 -13h-93q-8 0 -12 9l-75 207h-29v-205q0 -11 -9 -11h-83q-10 0 -10 11v661q0 11 10 11h83q9 0 9 -11v-369h29l71 182q2 6 10 6h90q6 0 7 -3.5t-1 -8.5l-89 -212z" />
    <glyph glyph-name="uni043B" unicode="&#x43b;" horiz-adv-x="333" 
d="M12 0q-10 0 -8 13l100 466q3 12 12 12h100q10 0 13 -12l100 -467q2 -12 -7 -12h-89q-9 0 -10 9l-40 251q-4 31 -8 63t-7 66h-2q-3 -34 -7.5 -65.5t-9.5 -62.5l-40 -252q-1 -9 -9 -9h-88z" />
    <glyph glyph-name="uni043C" unicode="&#x43c;" horiz-adv-x="432" 
d="M44 0q-10 0 -10 11l6 470q0 10 10 10h88q7 0 10 -8l68 -257l68 257q3 8 11 8h88q9 0 9 -10l6 -470q0 -11 -9 -11h-76q-9 0 -9 11v176q0 19 1 48t3 59t4 54h-3q-7 -33 -15 -62.5t-16 -53.5l-50 -165q-1 -5 -3.5 -7t-8.5 -2q-5 0 -7.5 2t-4.5 7l-51 165q-7 23 -15 53
t-15 63h-2q2 -24 3.5 -53.5t2.5 -59t1 -48.5v-176q0 -11 -9 -11h-75z" />
    <glyph glyph-name="uni043D" unicode="&#x43d;" horiz-adv-x="366" 
d="M236 0q-9 0 -9 11v470q0 10 9 10h83q10 0 10 -10v-470q0 -11 -10 -11h-83zM47 0q-10 0 -10 11v470q0 10 10 10h83q9 0 9 -10v-470q0 -11 -9 -11h-83zM125 205v89h117v-89h-117z" />
    <glyph glyph-name="uni043E" unicode="&#x43e;" horiz-adv-x="364" 
d="M182 -6q-74 0 -112.5 42t-38.5 126v168q0 83 38.5 125t112.5 42q75 0 113 -42t38 -125v-168q0 -84 -38 -126t-113 -42zM182 86q26 0 37.5 17.5t11.5 59.5v165q0 42 -11.5 60t-37.5 18t-37.5 -18t-11.5 -60v-165q0 -42 12 -59.5t37 -17.5z" />
    <glyph glyph-name="uni043F" unicode="&#x43f;" horiz-adv-x="371" 
d="M241 0q-9 0 -9 11v346q0 26 -8 37.5t-25 11.5q-15 0 -31.5 -11.5t-33.5 -32.5l-14 57q27 35 58.5 56.5t68.5 21.5q44 0 65.5 -30.5t21.5 -95.5v-360q0 -11 -10 -11h-83zM47 0q-10 0 -10 11v356q0 38 -0.5 66t-2.5 46q-1 12 8 12h71q9 0 11 -10q2 -17 4 -43.5t2 -43.5
l9 -19v-364q0 -11 -9 -11h-83z" />
    <glyph glyph-name="uni0440" unicode="&#x440;" horiz-adv-x="363" 
d="M226 -6q-25 0 -51.5 7.5t-47.5 18.5v82q14 -7 29.5 -13.5t31.5 -6.5q20 0 30 17t10 56v202q0 27 -7 38t-23 11q-18 0 -35 -14t-33 -35l-14 62q29 35 59 56.5t69 21.5q43 0 64.5 -29.5t21.5 -95.5v-219q0 -81 -26 -120t-78 -39zM46 -185q-9 0 -9 11v546q0 34 -0.5 60.5
t-2.5 47.5q-1 11 8 11h71q10 0 11 -9q2 -12 3 -32.5t2 -40.5l10 -29v-554q0 -11 -9 -11h-84z" />
    <glyph glyph-name="uni0441" unicode="&#x441;" horiz-adv-x="353" 
d="M183 -6q-76 0 -114 43t-38 130v161q0 85 38 127t113 42q47 0 80 -20t48.5 -57t11.5 -86q-1 -14 -11 -14h-73q-5 0 -7.5 3t-1.5 8q2 38 -9 56.5t-37 18.5t-38 -18t-12 -62v-158q0 -45 11.5 -63.5t38.5 -18.5q25 0 35.5 17.5t9.5 56.5q0 13 9 13h75q10 0 10 -11
q1 -84 -33 -126t-106 -42z" />
    <glyph glyph-name="uni0442" unicode="&#x442;" horiz-adv-x="550" 
d="M46 0q-9 0 -9 11v356q0 38 -0.5 66t-2.5 46q-1 12 8 12h73q8 0 9 -9q1 -12 2 -25.5t2 -26.5q26 30 52.5 48.5t62.5 18.5q29 0 48.5 -15t27.5 -47q24 28 50.5 45t58.5 17q42 0 63 -29.5t21 -89.5v-367q0 -11 -9 -11h-84q-9 0 -9 11v353q0 22 -6.5 32t-21.5 10
q-13 0 -27 -9.5t-29 -28.5v-357q0 -11 -9 -11h-84q-9 0 -9 11v353q0 22 -6.5 32t-21.5 10q-14 0 -28 -9.5t-29 -28.5v-357q0 -11 -9 -11h-84z" />
    <glyph glyph-name="uni0443" unicode="&#x443;" horiz-adv-x="352" 
d="M95 -185q-10 0 -7 13l40 174l-114 477q-3 12 7 12h91q10 0 11 -9l34 -201q5 -32 9.5 -69t8.5 -69h3q4 32 8.5 69.5t9.5 68.5l35 202q1 8 10 8h89q5 0 7 -3t0 -9l-151 -655q-2 -9 -10 -9h-81z" />
    <glyph glyph-name="uni0444" unicode="&#x444;" horiz-adv-x="486" 
d="M190 -6q-75 0 -117 39.5t-42 126.5v172q0 87 42 126t117 39h107q74 0 116 -39t42 -126v-172q0 -87 -42 -126.5t-116 -39.5h-107zM191 81h105q28 0 43 17t15 60v175q0 43 -15 60.5t-43 17.5h-105q-28 0 -43.5 -17.5t-15.5 -60.5v-175q0 -43 15.5 -60t43.5 -17zM202 -185
q-9 0 -9 11v193l4 26v395l-4 34v199q0 10 9 10h82q10 0 10 -10v-199l-5 -32v-397l5 -27v-192q0 -11 -9 -11h-83z" />
    <glyph glyph-name="uni0445" unicode="&#x445;" horiz-adv-x="357" 
d="M19 0q-6 0 -8 4t1 9l104 240l-97 226q-2 6 -0.5 9t6.5 3h92q10 0 12 -7l26 -83q6 -18 11.5 -40t11.5 -52h1q6 30 11.5 52t11.5 40l25 84q3 6 11 6h93q5 0 6.5 -3t-0.5 -9l-98 -224l106 -242q2 -5 0.5 -9t-6.5 -4h-94q-9 0 -11 7l-30 93q-6 20 -12.5 43t-12.5 50h-2
q-6 -27 -12 -50.5t-12 -42.5l-32 -93q-1 -7 -11 -7h-91z" />
    <glyph glyph-name="uni0446" unicode="&#x446;" horiz-adv-x="386" 
d="M283 -125q-10 0 -10 11v114h-17l68 91h37q10 0 10 -11v-194q0 -11 -9 -11h-79zM125 -6q-47 0 -67.5 30.5t-20.5 96.5v360q0 10 10 10h83q9 0 9 -10v-346q0 -29 7 -39t22 -10q18 0 35.5 13.5t33.5 36.5l14 -58q-25 -37 -58 -60.5t-68 -23.5zM252 0q-8 0 -10 10
q-2 18 -3.5 45t-2.5 43l-10 19v364q0 10 10 10h83q9 0 9 -10v-356q0 -38 1 -66t2 -46q1 -13 -8 -13h-71z" />
    <glyph glyph-name="uni0447" unicode="&#x447;" horiz-adv-x="356" 
d="M227 0q-10 0 -10 11v169q-21 -21 -45.5 -35.5t-55.5 -14.5q-46 0 -65.5 30.5t-19.5 91.5v229q0 10 9 10h83q10 0 10 -10v-212q0 -25 6 -36.5t23 -11.5q16 0 30 9.5t25 24.5v226q0 10 10 10h83q9 0 9 -10v-470q0 -11 -9 -11h-83z" />
    <glyph glyph-name="uni0448" unicode="&#x448;" horiz-adv-x="545" 
d="M122 -6q-44 0 -64.5 30t-20.5 89v368q0 10 9 10h84q9 0 9 -10v-354q0 -21 7 -31t21 -10q13 0 26.5 9.5t27.5 27.5v358q0 10 9 10h84q9 0 9 -10v-354q0 -21 6.5 -31t21.5 -10q12 0 26 9.5t28 27.5v358q0 10 9 10h84q9 0 9 -10v-356q0 -38 1 -66t2 -46q2 -13 -8 -13h-71
q-8 0 -10 10q-1 10 -2 24t-2 27q-25 -31 -51.5 -49t-60.5 -18q-30 0 -48.5 15.5t-28.5 46.5q-23 -28 -49 -45t-57 -17z" />
    <glyph glyph-name="uni0449" unicode="&#x449;" horiz-adv-x="569" 
d="M466 -125q-10 0 -10 11v114h-17l68 91h37q10 0 10 -11v-194q0 -11 -9 -11h-79zM122 -6q-44 0 -64.5 30t-20.5 89v368q0 10 9 10h84q9 0 9 -10v-354q0 -21 7 -31t21 -10q13 0 26.5 9.5t27.5 27.5v358q0 10 9 10h84q9 0 9 -10v-354q0 -21 6.5 -31t21.5 -10q12 0 26 9.5
t28 27.5v358q0 10 9 10h84q9 0 9 -10v-356q0 -38 1 -66t2 -46q2 -13 -8 -13h-71q-8 0 -10 10q-1 10 -2 24t-2 27q-25 -31 -51.5 -49t-60.5 -18q-30 0 -48.5 15.5t-28.5 46.5q-23 -28 -49 -45t-57 -17z" />
    <glyph glyph-name="uni044A" unicode="&#x44a;" horiz-adv-x="393" 
d="M13 400q-10 0 -10 11v70q0 10 10 10h87v-91h-87zM220 -6q-73 0 -109 39t-36 117v331q0 10 9 10h84q9 0 9 -10v-335q0 -32 10 -47t32 -15q23 0 33 15t10 47v84q0 27 -8 37.5t-23 10.5q-17 0 -33 -12.5t-29 -28.5l-1 73q18 20 45 37.5t61 17.5q41 0 65.5 -29.5t24.5 -96.5
v-89q0 -78 -36 -117t-108 -39z" />
    <glyph glyph-name="uni044B" unicode="&#x44b;" horiz-adv-x="529" 
d="M182 -6q-72 0 -108.5 39t-36.5 117v331q0 10 10 10h83q9 0 9 -10v-335q0 -32 10 -47t33 -15q22 0 32 15t10 47v84q0 27 -8 37.5t-23 10.5q-17 0 -32.5 -12.5t-28.5 -28.5l-2 73q19 20 46 37.5t61 17.5q40 0 64.5 -29.5t24.5 -96.5v-89q0 -78 -36 -117t-108 -39zM398 0
q-9 0 -9 11v470q0 10 9 10h84q9 0 9 -10v-470q0 -11 -9 -11h-84z" />
    <glyph glyph-name="uni044C" unicode="&#x44c;" horiz-adv-x="355" 
d="M182 -6q-72 0 -108.5 39t-36.5 117v331q0 10 10 10h83q9 0 9 -10v-335q0 -32 10 -47t33 -15q22 0 32 15t10 47v84q0 27 -8 37.5t-23 10.5q-17 0 -32.5 -12.5t-28.5 -28.5l-2 73q19 20 46 37.5t61 17.5q40 0 64.5 -29.5t24.5 -96.5v-89q0 -78 -36 -117t-108 -39z" />
    <glyph glyph-name="uni044D" unicode="&#x44d;" horiz-adv-x="351" 
d="M172 -6q-71 0 -107.5 39.5t-33.5 110.5q0 12 10 12h76q9 0 9 -12q0 -28 11 -43t34 -15q24 0 35.5 16.5t11.5 57.5v56h-77q-6 0 -6 9v46q0 10 6 10h77v54q0 38 -11 54.5t-35 16.5t-34.5 -14t-9.5 -42q0 -13 -9 -13h-77q-4 0 -6.5 3t-3.5 11q-7 68 31 107t110 39
q48 0 81 -18.5t49 -53.5t16 -86v-181q0 -84 -36 -124t-111 -40z" />
    <glyph glyph-name="uni044E" unicode="&#x44e;" horiz-adv-x="512" 
d="M37 408v265q0 10 10 10h83q9 0 9 -10v-265h-102zM331 -6q-71 0 -109.5 42t-38.5 124v172q0 81 38.5 123t109.5 42q73 0 111 -42t38 -123v-172q0 -82 -38 -124t-111 -42zM47 0q-10 0 -10 11v470q0 10 10 10h83q9 0 9 -10v-188h87v-87h-87v-195q0 -11 -9 -11h-83zM331 86
q26 0 37 18t11 56v172q0 38 -11 56t-37 18q-25 0 -35.5 -18t-10.5 -56v-172q0 -38 10.5 -56t35.5 -18z" />
    <glyph glyph-name="uni044F" unicode="&#x44f;" horiz-adv-x="355" 
d="M22 0q-10 0 -6 13l44 114q8 18 15 37t15 36v1q-29 17 -46 47t-17 84q0 80 37.5 119.5t114.5 39.5h129q9 0 9 -10v-470q0 -11 -9 -11h-83q-10 0 -10 11v168h-34l-58 -170q-4 -9 -12 -9h-89zM181 257h34v151h-30q-29 0 -42.5 -19t-13.5 -59q0 -38 13.5 -55.5t38.5 -17.5z
" />
    <glyph glyph-name="uni0450" unicode="&#x450;" horiz-adv-x="359" 
d="M182 -6q-76 0 -113.5 42t-37.5 130v163q0 85 38 126.5t110 41.5q75 0 112.5 -42t37.5 -129v-94q0 -10 -10 -10h-187v-61q0 -44 11.5 -63t38.5 -19q24 0 34.5 13.5t9.5 42.5q-1 11 8 11h79q9 0 9 -10q2 -70 -33.5 -106t-106.5 -36zM132 293h96v48q0 38 -11.5 55t-36.5 17
q-24 0 -36 -17.5t-12 -54.5v-48zM178 557q-10 0 -15 8l-78 122q-3 6 -1.5 9.5t6.5 3.5h74q8 0 12 -8l65 -124q3 -4 1.5 -7.5t-7.5 -3.5h-57z" />
    <glyph glyph-name="uni0451" unicode="&#x451;" horiz-adv-x="359" 
d="M182 -6q-76 0 -113.5 42t-37.5 130v163q0 85 38 126.5t110 41.5q75 0 112.5 -42t37.5 -129v-94q0 -10 -10 -10h-187v-61q0 -44 11.5 -63t38.5 -19q24 0 34.5 13.5t9.5 42.5q-1 11 8 11h79q9 0 9 -10q2 -70 -33.5 -106t-106.5 -36zM132 293h96v48q0 38 -11.5 55t-36.5 17
q-24 0 -36 -17.5t-12 -54.5v-48zM111 569q-25 0 -40 14t-15 38v13q0 25 15 38.5t40 13.5t39.5 -13.5t14.5 -38.5v-13q0 -24 -14.5 -38t-39.5 -14zM248 569q-25 0 -39.5 14t-14.5 38v13q0 25 14.5 38.5t39.5 13.5q26 0 40 -13.5t14 -38.5v-13q0 -24 -14 -38t-40 -14z" />
    <glyph glyph-name="uni0452" unicode="&#x452;" horiz-adv-x="371" 
d="M251 -186q-6 -5 -11 2l-48 60q-8 8 -1 14q28 24 36.5 66t8.5 113v288q0 26 -8 37.5t-25 11.5q-14 0 -29 -9.5t-31 -27.5v-358q0 -11 -9 -11h-84q-9 0 -9 11v543h-32q-10 0 -10 11v53q0 10 10 10h32v44q0 11 9 11h84q9 0 9 -11v-44h57q9 0 9 -10v-53q0 -11 -9 -11h-57
v-111q25 25 51.5 39.5t56.5 14.5q44 0 65.5 -30.5t21.5 -95.5v-305q0 -65 -7 -111.5t-25.5 -80.5t-54.5 -60z" />
    <glyph glyph-name="uni0453" unicode="&#x453;" horiz-adv-x="331" 
d="M164 -6q-70 0 -104 30.5t-34 92.5q0 45 14.5 78t47.5 58l72 53q20 15 28 30.5t8 36.5q0 42 -36 42q-19 0 -28 -13.5t-8 -39.5q1 -12 -9 -12h-74q-9 0 -10 12q-5 64 30 99.5t104 35.5q65 0 99 -30t34 -91q0 -45 -16 -75.5t-50 -56.5l-63 -47q-21 -15 -31 -33t-10 -42
t10.5 -35t30.5 -11q23 0 33 15.5t8 48.5q0 10 9 10h76q8 0 9 -10q6 -73 -30.5 -109.5t-109.5 -36.5zM111 557q-5 0 -6.5 3.5t0.5 7.5l65 124q5 8 13 8h73q5 0 7 -3.5t-2 -9.5l-77 -122q-5 -8 -16 -8h-57z" />
    <glyph glyph-name="uni0454" unicode="&#x454;" horiz-adv-x="350" 
d="M179 -6q-74 0 -111 40t-37 124v177q0 80 37 121t110 41q71 0 109 -39t31 -107q0 -8 -2.5 -11t-6.5 -3h-77q-9 0 -9 13q1 28 -9.5 42t-34.5 14t-35 -16t-11 -55v-54h76q6 0 6 -10v-46q0 -9 -6 -9h-76v-56q0 -41 11 -57.5t36 -16.5q23 0 34 15t10 43q0 12 9 12h77
q9 0 9 -12q3 -71 -33 -110.5t-107 -39.5z" />
    <glyph glyph-name="uni0455" unicode="&#x455;" horiz-adv-x="326" 
d="M160 -6q-74 0 -105.5 38.5t-25.5 114.5q1 10 9 10h78q9 0 8 -10q-1 -39 6.5 -55.5t30.5 -16.5q39 0 39 51q0 24 -8.5 39t-28.5 30l-71 54q-31 23 -46.5 53t-15.5 72q0 60 33.5 91.5t99.5 31.5q69 0 102 -35t29 -99q0 -11 -10 -11h-75q-4 0 -7 2.5t-2 10.5q2 25 -6.5 38.5
t-28.5 13.5q-34 0 -34 -40q0 -21 8 -35t26 -29l69 -52q35 -27 50.5 -56t15.5 -74q0 -68 -35 -102.5t-105 -34.5z" />
    <glyph glyph-name="uni0456" unicode="&#x456;" horiz-adv-x="177" 
d="M46 0q-9 0 -9 11v470q0 10 9 10h84q9 0 9 -10v-470q0 -11 -9 -11h-84zM89 565q-29 0 -45.5 14.5t-16.5 41.5v14q0 28 16.5 42.5t45.5 14.5q30 0 45.5 -14.5t15.5 -42.5v-14q0 -27 -15.5 -41.5t-45.5 -14.5z" />
    <glyph glyph-name="uni0457" unicode="&#x457;" horiz-adv-x="177" 
d="M46 0q-9 0 -9 11v470q0 10 9 10h84q9 0 9 -10v-470q0 -11 -9 -11h-84zM21 569q-25 0 -40 14t-15 38v13q0 25 15 38.5t40 13.5t39.5 -13.5t14.5 -38.5v-13q0 -24 -14.5 -38t-39.5 -14zM158 569q-25 0 -39.5 14t-14.5 38v13q0 25 14.5 38.5t39.5 13.5q26 0 40 -13.5
t14 -38.5v-13q0 -24 -14 -38t-40 -14z" />
    <glyph glyph-name="uni0458" unicode="&#x458;" horiz-adv-x="168" 
d="M49 -188q-3 -1 -6 -1t-5 4l-49 59q-8 9 0 15q27 25 35.5 66t8.5 112v414q0 10 9 10h84q9 0 9 -10v-417q0 -64 -7 -111t-25.5 -81t-53.5 -60zM86 565q-29 0 -45.5 14.5t-16.5 41.5v14q0 28 16.5 42.5t45.5 14.5q30 0 45.5 -14.5t15.5 -42.5v-14q0 -27 -15.5 -41.5
t-45.5 -14.5z" />
    <glyph glyph-name="uni0459" unicode="&#x459;" horiz-adv-x="506" 
d="M335 -6q-43 0 -71 14t-43.5 46.5t-22.5 86.5l-17 124q-3 33 -7 62t-6 62h-2q-2 -32 -5.5 -61.5t-8.5 -62.5l-40 -256q-1 -9 -9 -9h-91q-10 0 -8 13l100 466q3 12 12 12h102q11 0 14 -12l34 -175q31 32 61.5 48.5t57.5 16.5q47 0 69.5 -31t22.5 -95v-93
q0 -77 -35.5 -116.5t-106.5 -39.5zM336 84q21 0 30 14.5t9 46.5v89q0 48 -31 48q-26 0 -65 -46l17 -91q5 -24 10 -37.5t12.5 -18.5t17.5 -5z" />
    <glyph glyph-name="uni045A" unicode="&#x45a;" horiz-adv-x="548" 
d="M47 0q-10 0 -10 11v470q0 10 10 10h83q9 0 9 -10v-187h103v-89h-103v-194q0 -11 -9 -11h-83zM374 -6q-72 0 -108 39t-36 117v331q0 10 9 10h83q10 0 10 -10v-335q0 -32 9.5 -47t32.5 -15t33 15t10 47v84q0 27 -8 37.5t-23 10.5q-18 0 -33.5 -12.5t-28.5 -28.5l-1 73
q18 20 45 37.5t61 17.5q41 0 65.5 -29.5t24.5 -96.5v-89q0 -78 -36.5 -117t-108.5 -39z" />
    <glyph glyph-name="uni045B" unicode="&#x45b;" horiz-adv-x="375" 
d="M9 554q-10 0 -10 11v53q0 10 10 10h191q9 0 9 -10v-53q0 -11 -9 -11h-159h-32zM245 0q-9 0 -9 11v346q0 26 -8 37.5t-25 11.5q-15 0 -31.5 -11.5t-33.5 -32.5l-14 57q27 35 58 56.5t69 21.5q44 0 65.5 -30.5t21.5 -95.5v-360q0 -11 -9 -11h-84zM50 0q-9 0 -9 11v661
q0 11 9 11h84q9 0 9 -11v-661q0 -11 -9 -11h-84z" />
    <glyph glyph-name="uni045C" unicode="&#x45c;" horiz-adv-x="357" 
d="M355 13q5 -13 -7 -13h-93q-8 0 -12 9l-75 207h-29v-205q0 -11 -9 -11h-83q-10 0 -10 11v661q0 11 10 11h83q9 0 9 -11v-369h29l71 182q2 6 10 6h90q6 0 7 -3.5t-1 -8.5l-89 -212zM176 557q-5 0 -6.5 3.5t0.5 7.5l65 124q5 8 13 8h73q5 0 7 -3.5t-2 -9.5l-77 -122
q-5 -8 -16 -8h-57z" />
    <glyph glyph-name="uni045D" unicode="&#x45d;" horiz-adv-x="365" 
d="M125 -6q-47 0 -67.5 30.5t-20.5 96.5v360q0 10 10 10h83q9 0 9 -10v-346q0 -29 7 -39t22 -10q18 0 35.5 13.5t33.5 36.5l14 -58q-25 -37 -58 -60.5t-68 -23.5zM252 0q-8 0 -10 10q-2 18 -3.5 45t-2.5 43l-10 19v364q0 10 10 10h83q9 0 9 -10v-356q0 -38 1 -66t2 -46
q1 -13 -8 -13h-71zM182 557q-10 0 -15 8l-78 122q-3 6 -1.5 9.5t6.5 3.5h74q8 0 12 -8l65 -124q3 -4 1.5 -7.5t-7.5 -3.5h-57z" />
    <glyph glyph-name="uni045E" unicode="&#x45e;" horiz-adv-x="352" 
d="M95 -185q-10 0 -7 13l40 174l-114 477q-3 12 7 12h91q10 0 11 -9l34 -201q5 -32 9.5 -69t8.5 -69h3q4 32 8.5 69.5t9.5 68.5l35 202q1 8 10 8h89q5 0 7 -3t0 -9l-151 -655q-2 -9 -10 -9h-81zM177 546q-29 0 -50 10t-35 22q-4 4 -4 11v53q0 7 3 8t7 -2q17 -12 36.5 -19.5
t42.5 -7.5t42 7.5t36 19.5q4 3 7 2t3 -8v-53q0 -7 -4 -11q-14 -13 -35 -22.5t-49 -9.5z" />
    <glyph glyph-name="uni045F" unicode="&#x45f;" horiz-adv-x="365" 
d="M108 -125q-9 0 -9 11v174l94 2v-176q0 -11 -9 -11h-76zM125 -6q-47 0 -67.5 30.5t-20.5 96.5v360q0 10 10 10h83q9 0 9 -10v-346q0 -29 7 -39t22 -10q18 0 35.5 13.5t33.5 36.5l14 -58q-25 -37 -58 -60.5t-68 -23.5zM252 0q-8 0 -10 10q-2 18 -3.5 45t-2.5 43l-10 19v364
q0 10 10 10h83q9 0 9 -10v-356q0 -38 1 -66t2 -46q1 -13 -8 -13h-71z" />
    <glyph glyph-name="uni0490" unicode="&#x490;" horiz-adv-x="316" 
d="M52 0q-9 0 -9 11v633q0 11 9 11h241q8 0 8 -11v-73q0 -11 -9 -11h-144v-549q0 -11 -9 -11h-87zM199 577v211q0 5 2.5 8t5.5 3h85q4 0 6.5 -3t2.5 -8v-211h-102z" />
    <glyph glyph-name="uni0491" unicode="&#x491;" horiz-adv-x="316" 
d="M73 -11q-21 0 -35.5 2t-27.5 8q-6 2 -6 10l2 66q0 5 2.5 7.5t7.5 -0.5q14 -8 28 -8q11 0 17 13t9 55l12 170q7 91 27 137t72 46q21 0 31 9.5t14 24.5q3 10 3 20.5v19.5t9 9h76q9 0 9 -13q0 -40 -3 -66.5t-12 -42.5q-10 -19 -24.5 -30t-47.5 -12q-27 -1 -37.5 -27
t-15.5 -89l-14 -166q-6 -76 -28 -109.5t-68 -33.5z" />
    <glyph glyph-name="uni04C0" unicode="&#x4c0;" horiz-adv-x="191" 
d="M52 0q-9 0 -9 11v633q0 11 9 11h87q9 0 9 -11v-633q0 -11 -9 -11h-87z" />
    <glyph glyph-name="uni04CF" unicode="&#x4cf;" horiz-adv-x="177" 
d="M46 0q-9 0 -9 11v661q0 11 9 11h84q9 0 9 -11v-661q0 -11 -9 -11h-84z" />
    <glyph glyph-name="uni04E2" unicode="&#x4e2;" horiz-adv-x="442" 
d="M53 0q-10 0 -10 11v633q0 11 10 11h82q9 0 9 -11v-260q0 -20 -1 -51.5t-3 -66t-4 -66t-3 -51.5h2q7 26 16 60.5t21.5 78.5t28.5 96l81 263q2 8 10 8h98q10 0 10 -11v-633q0 -11 -10 -11h-82q-9 0 -9 11l2 244q0 23 1 56t2.5 68.5t3.5 68t4 56.5h-2q-8 -30 -18 -66.5
t-23 -82t-30 -100.5l-79 -247q-2 -8 -10 -8h-97zM138 720q-10 0 -10 11v59q0 10 10 10h166q10 0 10 -10v-59q0 -11 -10 -11h-166z" />
    <glyph glyph-name="uni04E3" unicode="&#x4e3;" horiz-adv-x="365" 
d="M125 -6q-47 0 -67.5 30.5t-20.5 96.5v360q0 10 10 10h83q9 0 9 -10v-346q0 -29 7 -39t22 -10q18 0 35.5 13.5t33.5 36.5l14 -58q-25 -37 -58 -60.5t-68 -23.5zM252 0q-8 0 -10 10q-2 18 -3.5 45t-2.5 43l-10 19v364q0 10 10 10h83q9 0 9 -10v-356q0 -38 1 -66t2 -46
q1 -13 -8 -13h-71zM110 571q-10 0 -10 11v59q0 11 10 11h145q10 0 10 -11v-59q0 -11 -10 -11h-145z" />
    <glyph glyph-name="uni04EE" unicode="&#x4ee;" horiz-adv-x="399" 
d="M82 0q-5 0 -7 3.5t-1 9.5l69 210l-133 419q-4 13 7 13h100q8 0 10 -7l48 -194l12 -56l12 -56h2q7 28 13 56t13 56l48 193q1 8 9 8h100q11 0 8 -13l-203 -634q-3 -8 -11 -8h-96zM117 720q-10 0 -10 11v59q0 10 10 10h166q10 0 10 -10v-59q0 -11 -10 -11h-166z" />
    <glyph glyph-name="uni04EF" unicode="&#x4ef;" horiz-adv-x="352" 
d="M95 -185q-10 0 -7 13l40 174l-114 477q-3 12 7 12h91q10 0 11 -9l34 -201q5 -32 9.5 -69t8.5 -69h3q4 32 8.5 69.5t9.5 68.5l35 202q1 8 10 8h89q5 0 7 -3t0 -9l-151 -655q-2 -9 -10 -9h-81zM104 571q-10 0 -10 11v59q0 11 10 11h145q10 0 10 -11v-59q0 -11 -10 -11h-145
z" />
    <glyph glyph-name="Wgrave" unicode="&#x1e80;" horiz-adv-x="582" 
d="M125 0q-8 0 -9 9l-106 634q-2 12 7 12h87q9 0 11 -9l46 -307q5 -37 8.5 -73.5t6 -74t3.5 -75.5h2q5 34 10 68.5t11 67.5l47 259l-22 118q-3 13 7 13h85q9 0 10 -9l57 -377q5 -35 9.5 -70t7.5 -70h2q2 39 4 75t5.5 73.5t8.5 77.5l45 304q1 9 9 9h88q9 0 7 -12l-106 -634
q-1 -9 -9 -9h-99q-10 0 -11 9l-35 229q-5 31 -9 62.5t-8 62.5h-2l-10 -62t-10 -63l-41 -229q-1 -5 -3.5 -7t-5.5 -2h-98zM285 711q-10 0 -15 8l-67 105q-3 6 -1.5 10t6.5 4h74q5 0 8 -2.5t5 -5.5l55 -107q2 -5 1 -8.5t-7 -3.5h-59z" />
    <glyph glyph-name="wgrave" unicode="&#x1e81;" horiz-adv-x="510" 
d="M115 0q-9 0 -11 9l-87 471q-2 11 7 11h88q9 0 10 -10l34 -240q4 -33 7 -66.5t6 -66.5h3q4 33 8.5 66t9.5 66l22 131l-15 98q-1 13 7 13h78q9 0 10 -9l31 -234q5 -33 8 -66t6 -65h2q4 33 7.5 67t7.5 67l33 239q2 10 9 10h89q9 0 7 -11l-87 -471q-2 -9 -11 -9h-97
q-9 0 -11 8l-16 100q-4 29 -7.5 61.5t-6.5 78.5h-4q-3 -46 -7 -78.5t-8 -62.5l-14 -98q-1 -9 -10 -9h-98zM253 557q-10 0 -15 8l-78 122q-3 6 -1.5 9.5t6.5 3.5h74q8 0 12 -8l65 -124q3 -4 1.5 -7.5t-7.5 -3.5h-57z" />
    <glyph glyph-name="Wacute" unicode="&#x1e82;" horiz-adv-x="582" 
d="M125 0q-8 0 -9 9l-106 634q-2 12 7 12h87q9 0 11 -9l46 -307q5 -37 8.5 -73.5t6 -74t3.5 -75.5h2q5 34 10 68.5t11 67.5l47 259l-22 118q-3 13 7 13h85q9 0 10 -9l57 -377q5 -35 9.5 -70t7.5 -70h2q2 39 4 75t5.5 73.5t8.5 77.5l45 304q1 9 9 9h88q9 0 7 -12l-106 -634
q-1 -9 -9 -9h-99q-10 0 -11 9l-35 229q-5 31 -9 62.5t-8 62.5h-2l-10 -62t-10 -63l-41 -229q-1 -5 -3.5 -7t-5.5 -2h-98zM232 711q-5 0 -6.5 3.5t0.5 8.5l56 107q5 8 13 8h73q6 0 7.5 -4t-2.5 -10l-67 -105q-4 -8 -15 -8h-59z" />
    <glyph glyph-name="wacute" unicode="&#x1e83;" horiz-adv-x="510" 
d="M115 0q-9 0 -11 9l-87 471q-2 11 7 11h88q9 0 10 -10l34 -240q4 -33 7 -66.5t6 -66.5h3q4 33 8.5 66t9.5 66l22 131l-15 98q-1 13 7 13h78q9 0 10 -9l31 -234q5 -33 8 -66t6 -65h2q4 33 7.5 67t7.5 67l33 239q2 10 9 10h89q9 0 7 -11l-87 -471q-2 -9 -11 -9h-97
q-9 0 -11 8l-16 100q-4 29 -7.5 61.5t-6.5 78.5h-4q-3 -46 -7 -78.5t-8 -62.5l-14 -98q-1 -9 -10 -9h-98zM199 557q-5 0 -6.5 3.5t0.5 7.5l65 124q5 8 13 8h73q5 0 7 -3.5t-2 -9.5l-77 -122q-5 -8 -16 -8h-57z" />
    <glyph glyph-name="Wdieresis" unicode="&#x1e84;" horiz-adv-x="582" 
d="M125 0q-8 0 -9 9l-106 634q-2 12 7 12h87q9 0 11 -9l46 -307q5 -37 8.5 -73.5t6 -74t3.5 -75.5h2q5 34 10 68.5t11 67.5l47 259l-22 118q-3 13 7 13h85q9 0 10 -9l57 -377q5 -35 9.5 -70t7.5 -70h2q2 39 4 75t5.5 73.5t8.5 77.5l45 304q1 9 9 9h88q9 0 7 -12l-106 -634
q-1 -9 -9 -9h-99q-10 0 -11 9l-35 229q-5 31 -9 62.5t-8 62.5h-2l-10 -62t-10 -63l-41 -229q-1 -5 -3.5 -7t-5.5 -2h-98zM223 718q-25 0 -40 13.5t-15 37.5v13q0 25 15 38.5t40 13.5t39.5 -13.5t14.5 -38.5v-13q0 -24 -14.5 -37.5t-39.5 -13.5zM360 718q-25 0 -39.5 13.5
t-14.5 37.5v13q0 25 14.5 38.5t39.5 13.5q26 0 40 -13.5t14 -38.5v-13q0 -24 -14 -37.5t-40 -13.5z" />
    <glyph glyph-name="wdieresis" unicode="&#x1e85;" horiz-adv-x="510" 
d="M115 0q-9 0 -11 9l-87 471q-2 11 7 11h88q9 0 10 -10l34 -240q4 -33 7 -66.5t6 -66.5h3q4 33 8.5 66t9.5 66l22 131l-15 98q-1 13 7 13h78q9 0 10 -9l31 -234q5 -33 8 -66t6 -65h2q4 33 7.5 67t7.5 67l33 239q2 10 9 10h89q9 0 7 -11l-87 -471q-2 -9 -11 -9h-97
q-9 0 -11 8l-16 100q-4 29 -7.5 61.5t-6.5 78.5h-4q-3 -46 -7 -78.5t-8 -62.5l-14 -98q-1 -9 -10 -9h-98zM187 569q-25 0 -40 14t-15 38v13q0 25 15 38.5t40 13.5t39.5 -13.5t14.5 -38.5v-13q0 -24 -14.5 -38t-39.5 -14zM324 569q-25 0 -39.5 14t-14.5 38v13q0 25 14.5 38.5
t39.5 13.5q26 0 40 -13.5t14 -38.5v-13q0 -24 -14 -38t-40 -14z" />
    <glyph glyph-name="uni1E9E" unicode="&#x1e9e;" horiz-adv-x="462" 
d="M302 -6q-67 0 -98 37.5t-26 111.5q1 12 10 12l69 -1q9 0 9 -11q-1 -29 6.5 -42.5t25.5 -13.5q23 0 32 23.5t9 85.5q0 61 -19 87.5t-64 26.5h-27q-10 0 -10 9v38q0 5 1 8.5t2 7.5l57 187h-131v-549q0 -11 -9 -11h-87q-9 0 -9 11v633q0 11 9 11h349q6 0 8 -6.5t-1 -16.5
l-81 -248q60 -10 88 -56t28 -133q0 -103 -34.5 -152t-106.5 -49z" />
    <glyph glyph-name="Ygrave" unicode="&#x1ef2;" horiz-adv-x="392" 
d="M153 0q-9 0 -9 11v214l-138 417q-4 13 7 13h97q8 0 9 -8l50 -198q7 -28 14 -57.5t13 -58.5h1q7 29 13.5 58.5t13.5 58.5l50 197q1 8 9 8h95q11 0 7 -13l-137 -416v-215q0 -11 -8 -11h-87zM189 711q-10 0 -15 8l-67 105q-3 6 -1.5 10t6.5 4h74q5 0 8 -2.5t5 -5.5l55 -107
q2 -5 1 -8.5t-7 -3.5h-59z" />
    <glyph glyph-name="ygrave" unicode="&#x1ef3;" horiz-adv-x="352" 
d="M95 -185q-10 0 -7 13l40 174l-114 477q-3 12 7 12h91q10 0 11 -9l34 -201q5 -32 9.5 -69t8.5 -69h3q4 32 8.5 69.5t9.5 68.5l35 202q1 8 10 8h89q5 0 7 -3t0 -9l-151 -655q-2 -9 -10 -9h-81zM175 557q-10 0 -15 8l-78 122q-3 6 -1.5 9.5t6.5 3.5h74q8 0 12 -8l65 -124
q3 -4 1.5 -7.5t-7.5 -3.5h-57z" />
    <glyph glyph-name="uni2007" unicode="&#x2007;" horiz-adv-x="325" 
 />
    <glyph glyph-name="uni2008" unicode="&#x2008;" horiz-adv-x="142" 
 />
    <glyph glyph-name="uni200B" unicode="&#x200b;" horiz-adv-x="2" 
 />
    <glyph glyph-name="endash" unicode="&#x2013;" horiz-adv-x="478" 
d="M46 225q-11 0 -11 11v59q0 11 11 11h386q11 0 11 -11v-59q0 -11 -11 -11h-386z" />
    <glyph glyph-name="emdash" unicode="&#x2014;" horiz-adv-x="566" 
d="M46 225q-11 0 -11 11v59q0 11 11 11h475q11 0 11 -11v-59q0 -11 -11 -11h-475z" />
    <glyph glyph-name="quoteleft" unicode="&#x2018;" horiz-adv-x="203" 
d="M177 655q10 0 9 -11l-45 -249q-2 -10 -11 -10h-100q-6 0 -8.5 3.5t-1.5 9.5l73 249q2 8 11 8h73z" />
    <glyph glyph-name="quoteright" unicode="&#x2019;" horiz-adv-x="215" 
d="M28 385q-11 0 -9 11l45 248q2 11 11 11h100q6 0 8.5 -3.5t0.5 -9.5l-73 -249q-2 -8 -10 -8h-73z" />
    <glyph glyph-name="quotesinglbase" unicode="&#x201a;" horiz-adv-x="215" 
d="M28 -139q-11 0 -9 11l45 248q2 11 11 11h100q6 0 8.5 -3.5t0.5 -9.5l-73 -249q-2 -8 -10 -8h-73z" />
    <glyph glyph-name="quotedblleft" unicode="&#x201c;" horiz-adv-x="363" 
d="M336 655q10 0 9 -11l-45 -249q-2 -10 -11 -10h-100q-6 0 -8.5 3.5t-1.5 9.5l73 249q2 8 11 8h73zM177 655q10 0 9 -11l-45 -249q-2 -10 -11 -10h-100q-6 0 -8.5 3.5t-1.5 9.5l73 249q2 8 11 8h73z" />
    <glyph glyph-name="quotedblright" unicode="&#x201d;" horiz-adv-x="374" 
d="M28 385q-11 0 -9 11l45 248q2 11 11 11h100q6 0 8.5 -3.5t0.5 -9.5l-73 -249q-2 -8 -10 -8h-73zM188 385q-11 0 -9 11l45 248q2 11 11 11h100q6 0 8.5 -3.5t0.5 -9.5l-73 -249q-2 -8 -10 -8h-73z" />
    <glyph glyph-name="quotedblbase" unicode="&#x201e;" horiz-adv-x="374" 
d="M28 -139q-11 0 -9 11l45 248q2 11 11 11h100q6 0 8.5 -3.5t0.5 -9.5l-73 -249q-2 -8 -10 -8h-73zM188 -139q-11 0 -9 11l45 248q2 11 11 11h100q6 0 8.5 -3.5t0.5 -9.5l-73 -249q-2 -8 -10 -8h-73z" />
    <glyph glyph-name="dagger" unicode="&#x2020;" horiz-adv-x="345" 
d="M137 0q-11 0 -11 11v387h-97q-12 0 -12 11v66q0 11 12 11h97v158q0 11 11 11h70q12 0 12 -11v-158h97q11 0 11 -11v-66q0 -11 -11 -11h-97v-387q0 -11 -12 -11h-70z" />
    <glyph glyph-name="daggerdbl" unicode="&#x2021;" horiz-adv-x="345" 
d="M137 0q-11 0 -11 11v146h-97q-12 0 -12 11v66q0 11 12 11h97v165h-97q-12 0 -12 11v66q0 11 12 11h97v146q0 11 11 11h70q12 0 12 -11v-146h97q11 0 11 -11v-66q0 -11 -11 -11h-97v-165h97q11 0 11 -11v-66q0 -11 -11 -11h-97v-146q0 -11 -12 -11h-70z" />
    <glyph glyph-name="bullet" unicode="&#x2022;" horiz-adv-x="244" 
d="M122 171q-38 0 -60 20.5t-22 57.5v38q0 37 22 57.5t60 20.5q40 0 61 -20.5t21 -57.5v-38q0 -37 -21 -57.5t-61 -20.5z" />
    <glyph glyph-name="ellipsis" unicode="&#x2026;" horiz-adv-x="572" 
d="M471 -6q-31 0 -49 15.5t-18 45.5v15q0 30 18 45.5t49 15.5q32 0 49.5 -15.5t17.5 -45.5v-15q0 -30 -17.5 -45.5t-49.5 -15.5zM101 -6q-30 0 -48.5 15.5t-18.5 45.5v15q0 30 18.5 45.5t48.5 15.5q33 0 50 -15.5t17 -45.5v-15q0 -30 -17 -45.5t-50 -15.5zM286 -6
q-31 0 -49 15.5t-18 45.5v15q0 30 18 45.5t49 15.5q33 0 50 -15.5t17 -45.5v-15q0 -30 -17 -45.5t-50 -15.5z" />
    <glyph glyph-name="perthousand" unicode="&#x2030;" horiz-adv-x="891" 
d="M740 -6q-58 0 -85.5 34.5t-27.5 87.5v99q0 53 27.5 88t85.5 35q57 0 84.5 -35t27.5 -88v-99q0 -53 -27.5 -87.5t-84.5 -34.5zM740 68q19 0 27.5 11.5t8.5 35.5v102q0 24 -8.5 36t-27.5 12q-20 0 -28.5 -12t-8.5 -36v-102q0 -24 8.5 -35.5t28.5 -11.5zM158 0q-11 0 -7 13
l129 331l108 305q3 7 11 7h73q13 0 6 -13l-122 -312l-115 -324q-3 -7 -11 -7h-72zM151 317q-57 0 -84.5 34.5t-27.5 87.5v99q0 53 27.5 88t84.5 35q58 0 85.5 -35t27.5 -88v-99q0 -53 -27.5 -87.5t-85.5 -34.5zM151 390q38 0 38 48v102q0 24 -9 35.5t-29 11.5
q-19 0 -27.5 -11.5t-8.5 -35.5v-102q0 -48 36 -48zM478 -6q-57 0 -85 34.5t-28 87.5v99q0 53 28 88t85 35q58 0 85.5 -35t27.5 -88v-99q0 -53 -27.5 -87.5t-85.5 -34.5zM478 68q20 0 28.5 11.5t8.5 35.5v102q0 24 -8.5 36t-28.5 12q-19 0 -27.5 -12t-8.5 -36v-102
q0 -24 8.5 -35.5t27.5 -11.5z" />
    <glyph glyph-name="guilsinglleft" unicode="&#x2039;" horiz-adv-x="235" 
d="M117 89q-6 0 -9 8l-77 159q-3 7 0 14l77 160q3 7 10 7h79q5 0 7.5 -3t-0.5 -10l-75 -161l74 -161q5 -13 -6 -13h-80z" />
    <glyph glyph-name="guilsinglright" unicode="&#x203a;" horiz-adv-x="227" 
d="M33 89q-12 0 -7 13l75 161l-75 161q-2 7 -0.5 10t7.5 3h79q7 0 10 -7l77 -160q3 -7 0 -14l-77 -159q-3 -8 -10 -8h-79z" />
    <glyph glyph-name="fraction" unicode="&#x2044;" horiz-adv-x="145" 
d="M-82 -32q-9 0 -6 11l120 367l110 334q2 7 9 7h76q9 0 6 -10l-120 -354l-110 -349q-2 -6 -9 -6h-76z" />
    <glyph glyph-name="uni2070" unicode="&#x2070;" horiz-adv-x="308" 
d="M154 344q-58 0 -89 35.5t-31 105.5v150q0 70 31 105t89 35t89 -35t31 -105v-150q0 -70 -31 -105.5t-89 -35.5zM154 422q19 0 27 13.5t8 45.5v158q0 33 -8 46t-27 13q-18 0 -26.5 -13t-8.5 -46v-158q0 -32 8.5 -45.5t26.5 -13.5z" />
    <glyph glyph-name="uni2074" unicode="&#x2074;" horiz-adv-x="308" 
d="M192 349q-11 0 -11 11v62h-150q-11 0 -11 12v6q0 5 1.5 9.5t2.5 8.5l106 298q4 12 13 12h59q5 0 8 -3.5t0 -9.5l-87 -260h59l8 127q1 12 11 12h47q10 0 10 -12v-126h20q9 0 9 -11v-51q0 -12 -9 -12h-20v-62q0 -11 -11 -11h-55z" />
    <glyph glyph-name="uni2075" unicode="&#x2075;" horiz-adv-x="308" 
d="M149 344q-43 0 -68 14.5t-34 41.5t-8 67q0 10 10 10h60q9 0 9 -10q0 -22 6.5 -35t25.5 -13q20 0 28 15t8 44v15q0 32 -11 46.5t-36 14.5q-19 0 -39.5 -4.5t-40.5 -11.5q-13 -5 -13 10l15 209q1 11 11 11h170q11 0 11 -11v-53q0 -11 -11 -11h-110l-5 -81q13 4 25.5 6
t28.5 2q46 0 67.5 -34.5t21.5 -99.5q0 -70 -29 -106t-92 -36z" />
    <glyph glyph-name="uni2076" unicode="&#x2076;" horiz-adv-x="308" 
d="M154 344q-63 0 -91.5 33.5t-28.5 100.5v166q0 63 30 97t89 34q55 0 83 -25t28 -79q0 -11 -12 -11h-55q-11 0 -11 11q0 32 -32 32q-19 0 -27 -12t-8 -40v-56q17 11 34 17t37 6q44 0 64.5 -30t20.5 -94q0 -74 -30 -112t-91 -38zM154 419q19 0 27.5 15.5t8.5 47.5v15
q0 27 -7 39.5t-23 12.5q-11 0 -21 -4.5t-20 -11.5v-60q0 -26 8 -40t27 -14z" />
    <glyph glyph-name="uni2077" unicode="&#x2077;" horiz-adv-x="308" 
d="M81 349q-12 0 -8 13l97 334h-64v-49q0 -11 -11 -11h-51q-12 0 -12 11v110q0 11 12 11h221q11 0 11 -10v-3q0 -4 -1 -8.5t-2 -8.5l-116 -379q-4 -10 -14 -10h-62z" />
    <glyph glyph-name="uni2078" unicode="&#x2078;" horiz-adv-x="308" 
d="M154 344q-59 0 -88 31t-29 90q0 39 13 66.5t39 41.5q-20 12 -32 33.5t-12 55.5q0 56 27.5 84.5t81.5 28.5t81.5 -28.5t27.5 -84.5q0 -34 -12 -55.5t-32 -33.5q26 -14 39 -41.5t13 -66.5q0 -59 -29 -90t-88 -31zM154 416q18 0 27 11.5t9 35.5v19q0 26 -8 41t-28 15
t-28.5 -15t-8.5 -41v-19q0 -24 9.5 -35.5t27.5 -11.5zM154 604q15 0 22 11t7 31v17q0 21 -6.5 31.5t-22.5 10.5t-22.5 -10.5t-6.5 -31.5v-17q0 -20 7 -31t22 -11z" />
    <glyph glyph-name="uni2079" unicode="&#x2079;" horiz-adv-x="308" 
d="M156 344q-55 0 -83 26t-28 80q0 11 11 11h55q11 0 11 -11q0 -17 8 -25t24 -8q19 0 27 12t8 40v53q-17 -11 -33.5 -17t-36.5 -6q-44 0 -64.5 31t-20.5 96q0 74 28.5 111.5t90.5 37.5q65 0 93 -33t28 -100v-167q0 -63 -29.5 -97t-88.5 -34zM148 568q11 0 21 4t20 12v63
q0 27 -8 40.5t-27 13.5t-27 -15.5t-8 -47.5v-15q0 -29 7 -42t22 -13z" />
    <glyph glyph-name="uni2080" unicode="&#x2080;" horiz-adv-x="308" 
d="M154 -113q-58 0 -89 35.5t-31 105.5v150q0 70 31 105t89 35t89 -35t31 -105v-150q0 -70 -31 -105.5t-89 -35.5zM154 -35q19 0 27 13.5t8 45.5v158q0 33 -8 46t-27 13q-18 0 -26.5 -13t-8.5 -46v-158q0 -32 8.5 -45.5t26.5 -13.5z" />
    <glyph glyph-name="uni2081" unicode="&#x2081;" horiz-adv-x="308" 
d="M57 -108q-12 0 -12 11v54q0 11 12 11h57v251l-56 -20q-10 -3 -10 6v57q0 10 7 13l105 37q4 1 7.5 1.5t7.5 0.5h12q11 0 11 -11v-335h53q11 0 11 -11v-54q0 -11 -11 -11h-194z" />
    <glyph glyph-name="uni2082" unicode="&#x2082;" horiz-adv-x="308" 
d="M53 -108q-12 0 -12 11v52q0 43 14.5 72t34.5 49.5t41 37.5t35 37t14 48v8q0 18 -5.5 27t-20.5 9t-21.5 -11t-5.5 -37q0 -11 -11 -11h-55q-10 0 -11 11q-4 59 24.5 91t81.5 32q54 0 81.5 -27t27.5 -85q0 -42 -13 -69.5t-31.5 -47t-37.5 -36.5t-32 -36.5t-13 -48.5h114
q4 0 7.5 -3t3.5 -8v-54q0 -11 -11 -11h-199z" />
    <glyph glyph-name="uni2083" unicode="&#x2083;" horiz-adv-x="308" 
d="M149 -113q-44 1 -68 16t-33 42.5t-7 65.5q1 12 11 12h55q12 0 12 -12q0 -24 6.5 -35.5t24.5 -11.5q17 0 25 12.5t8 36.5v12q0 23 -8 34.5t-27 11.5h-18q-11 0 -11 12v47q0 11 11 11h14q18 0 26 12.5t8 37.5v11q0 20 -7.5 30t-22.5 10q-19 0 -25 -13.5t-5 -33.5
q1 -11 -11 -11h-54q-10 0 -11 11q-4 58 22.5 90.5t86.5 32.5q57 0 84.5 -27.5t27.5 -82.5q0 -35 -12 -59t-30 -38v-1q23 -12 35 -36t12 -61q0 -61 -30.5 -93.5t-88.5 -32.5z" />
    <glyph glyph-name="uni2084" unicode="&#x2084;" horiz-adv-x="308" 
d="M192 -108q-11 0 -11 11v62h-150q-11 0 -11 12v6q0 5 1.5 9.5t2.5 8.5l106 298q4 12 13 12h59q5 0 8 -3.5t0 -9.5l-87 -260h59l8 127q1 12 11 12h47q10 0 10 -12v-126h20q9 0 9 -11v-51q0 -12 -9 -12h-20v-62q0 -11 -11 -11h-55z" />
    <glyph glyph-name="uni2085" unicode="&#x2085;" horiz-adv-x="308" 
d="M149 -113q-43 0 -68 14.5t-34 41.5t-8 67q0 10 10 10h60q9 0 9 -10q0 -22 6.5 -35t25.5 -13q20 0 28 15t8 44v15q0 32 -11 46.5t-36 14.5q-19 0 -39.5 -4.5t-40.5 -11.5q-13 -5 -13 10l15 209q1 11 11 11h170q11 0 11 -11v-53q0 -11 -11 -11h-110l-5 -81q13 4 25.5 6
t28.5 2q46 0 67.5 -34.5t21.5 -99.5q0 -70 -29 -106t-92 -36z" />
    </font>
</defs>
</svg>
