<?xml version="1.0" standalone="no"?>
<!DOCTYPE svg PUBLIC "-//W3C//DTD SVG 1.1//EN" "http://www.w3.org/Graphics/SVG/1.1/DTD/svg11.dtd" >
<svg xmlns="http://www.w3.org/2000/svg" xmlns:xlink="http://www.w3.org/1999/xlink" version="1.1">
<metadata>
Created by FontForge 20201107 at Thu Nov 12 20:55:45 2020
 By 
Copyright 2016 Production Systems SAS - Design Yoann Minet. Original art direction with Emmanuel Labard - All rights reserved - End-User License Agreement:  http://www.productiontype.com/license |DCNT
</metadata>
<defs>
<font id="Stratos-ExtraLight" horiz-adv-x="1126" >
  <font-face 
    font-family="Stratos ExtraLight"
    font-weight="275"
    font-stretch="normal"
    units-per-em="2048"
    panose-1="2 0 0 0 0 0 0 0 0 0"
    ascent="1516"
    descent="-532"
    x-height="1024"
    cap-height="1536"
    bbox="-471 -752 2554 2396"
    underline-thickness="57"
    underline-position="-352"
    unicode-range="U+0020-FB02"
  />
<missing-glyph horiz-adv-x="1044" 
d="M20 0v1536h1004v-1536h-1004zM184 1427l338 -559l338 559h-676zM125 209l338 559l-338 557v-1116zM922 209v1116l-338 -557zM184 113h676l-338 555z" />
    <glyph glyph-name="fi" unicode="fi" horiz-adv-x="1159" 
d="M330 1196v-172h651v-1024h-72v961h-579v-961h-72v961h-217v63h217v178q0 179 80 266.5t229 87.5q95 0 164 -26v-68q-62 29 -158 29q-121 0 -182 -71.5t-61 -223.5zM946 1309q-34 0 -57 23t-23 57q0 32 23 54.5t57 22.5t56 -22t22 -55q0 -34 -22 -57t-56 -23z" />
    <glyph glyph-name="fl" unicode="fl" horiz-adv-x="1159" 
d="M330 1196v-172h352v-63h-352v-961h-72v961h-217v63h217v178q0 179 81.5 266.5t233.5 87.5q95 0 164 -26v-70q-66 31 -157 31q-250 0 -250 -295zM981 0h-72v1536h72v-1536z" />
    <glyph glyph-name="f_b" unicode="fb" horiz-adv-x="1990" 
d="M330 1196v-172h387v-63h-387v-961h-72v961h-217v63h217v178q0 179 81.5 266.5t233.5 87.5q95 0 164 -26v-70q-66 31 -157 31q-250 0 -250 -295zM1903 512q0 -233 -140 -382.5t-352 -149.5q-145 0 -258.5 76t-171.5 208v-264h-72v1536h72v-776q58 132 171.5 208t258.5 76
q212 0 352 -149.5t140 -382.5zM1405 979q-184 0 -304 -129.5t-120 -337.5t120 -337.5t304 -129.5t305 129.5t121 337.5t-121 337.5t-305 129.5z" />
    <glyph glyph-name="f_f_b" unicode="ffb" horiz-adv-x="2643" 
d="M909 0v961h-579v-961h-72v961h-217v63h217v178q0 179 81.5 266.5t233.5 87.5q95 0 164 -26v-70q-66 31 -157 31q-250 0 -250 -295v-172h579v178q0 179 83 266.5t235 87.5q93 0 164 -26v-70q-66 31 -160 31q-250 0 -250 -295v-172h389v-63h-389v-961h-72zM2554 512
q0 -233 -139.5 -382.5t-350.5 -149.5q-145 0 -258 74.5t-172 205.5v-260h-71v1536h71v-772q59 131 172 205.5t258 74.5q211 0 350.5 -149.5t139.5 -382.5zM2058 979q-184 0 -304 -129.5t-120 -337.5t120 -337.5t304 -129.5t304 129.5t120 337.5t-120 337.5t-304 129.5z" />
    <glyph glyph-name="f_f" unicode="ff" horiz-adv-x="1431" 
d="M909 0v961h-579v-961h-72v961h-217v63h217v178q0 179 81.5 266.5t233.5 87.5q95 0 164 -26v-70q-66 31 -157 31q-250 0 -250 -295v-172h579v178q0 179 83 266.5t235 87.5q93 0 164 -26v-70q-66 31 -160 31q-250 0 -250 -295v-172h389v-63h-389v-961h-72z" />
    <glyph glyph-name="f_h" unicode="fh" horiz-adv-x="1929" 
d="M330 1196v-172h387v-63h-387v-961h-72v961h-217v63h217v178q0 179 81.5 266.5t233.5 87.5q95 0 164 -26v-70q-66 31 -157 31q-250 0 -250 -295zM981 543v-543h-72v1536h72v-739q44 125 139.5 186t227.5 61q92 0 166 -27.5t130 -84.5t86.5 -151t30.5 -220v-561h-71v543
q0 221 -93.5 329.5t-261.5 108.5t-261 -108.5t-93 -329.5z" />
    <glyph glyph-name="f_f_h" unicode="ffh" horiz-adv-x="2582" 
d="M909 0v961h-579v-961h-72v961h-217v63h217v178q0 179 81.5 266.5t233.5 87.5q95 0 164 -26v-70q-66 31 -157 31q-250 0 -250 -295v-172h579v178q0 179 83 266.5t235 87.5q93 0 164 -26v-70q-66 31 -160 31q-250 0 -250 -295v-172h389v-63h-389v-961h-72zM1634 543v-543
h-71v1536h71v-735q44 123 139 183t226 60q92 0 166.5 -27.5t131 -84.5t87.5 -151t31 -220v-561h-72v543q0 221 -93.5 329.5t-260.5 108.5q-168 0 -261.5 -108.5t-93.5 -329.5z" />
    <glyph glyph-name="f_f_i" unicode="ffi" horiz-adv-x="1812" 
d="M909 0v961h-579v-961h-72v961h-217v63h217v178q0 179 81.5 266.5t233.5 87.5q95 0 164 -26v-70q-66 31 -157 31q-250 0 -250 -295v-172h579v178q0 179 81 266.5t231 87.5q91 0 163 -26v-68q-62 29 -159 29q-244 0 -244 -295v-172h653v-1024h-71v961h-582v-961h-72z
M1597 1309q-33 0 -55 23t-22 57q0 33 22 55t55 22q35 0 56.5 -22t21.5 -55q0 -34 -21.5 -57t-56.5 -23z" />
    <glyph glyph-name="f_j" unicode="fj" horiz-adv-x="1159" 
d="M330 1196v-172h651v-1303q0 -233 -211 -233q-53 0 -86 10v64q54 -8 80 -8q69 0 107 37.5t38 132.5v1237h-579v-961h-72v961h-217v63h217v178q0 179 81.5 266.5t233.5 87.5q95 0 164 -26v-70q-66 31 -157 31q-250 0 -250 -295zM946 1309q-34 0 -57 23t-23 57q0 32 23 54.5
t57 22.5t56 -22t22 -55q0 -34 -22 -57t-56 -23z" />
    <glyph glyph-name="f_f_j" unicode="ffj" horiz-adv-x="1812" 
d="M981 1196v-172h653v-1303q0 -233 -213 -233q-54 0 -84 10v64q50 -8 80 -8q70 0 108 37.5t38 132.5v1237h-582v-961h-72v961h-579v-961h-72v961h-217v63h217v178q0 179 81.5 266.5t233.5 87.5q95 0 164 -26v-70q-66 31 -157 31q-250 0 -250 -295v-172h579v178
q0 179 81 266.5t231 87.5q91 0 163 -26v-68q-62 29 -159 29q-244 0 -244 -295zM1597 1309q-33 0 -55 23t-22 57q0 33 22 55t55 22q35 0 56.5 -22t21.5 -55q0 -34 -21.5 -57t-56.5 -23z" />
    <glyph glyph-name="f_k" unicode="fk" horiz-adv-x="1773" 
d="M330 1196v-172h387v-63h-387v-961h-72v961h-217v63h217v178q0 179 81.5 266.5t233.5 87.5q95 0 164 -26v-70q-66 31 -157 31q-124 0 -187 -71.5t-63 -223.5zM1645 0l-455 553l-209 -213v-340h-72v1536h72v-1110l592 598h94l-418 -424l490 -600h-94z" />
    <glyph glyph-name="f_f_k" unicode="ffk" horiz-adv-x="2424" 
d="M909 0v961h-579v-961h-72v961h-217v63h217v178q0 179 81.5 266.5t233.5 87.5q95 0 164 -26v-70q-66 31 -157 31q-124 0 -187 -71.5t-63 -223.5v-172h579v178q0 179 83 266.5t235 87.5q93 0 164 -26v-70q-66 31 -160 31q-250 0 -250 -295v-172h389v-63h-389v-961h-72z
M2296 0l-453 553l-209 -213v-340h-71v1536h71v-1108l592 596h94l-419 -424l489 -600h-94z" />
    <glyph glyph-name="f_f_l" unicode="ffl" horiz-adv-x="1812" 
d="M909 0v961h-579v-961h-72v961h-217v63h217v178q0 179 81.5 266.5t233.5 87.5q95 0 164 -26v-70q-66 31 -157 31q-250 0 -250 -295v-172h579v178q0 179 83 266.5t235 87.5q93 0 164 -26v-70q-66 31 -160 31q-250 0 -250 -295v-172h354v-63h-354v-961h-72zM1634 0h-71v1536
h71v-1536z" />
    <glyph glyph-name="f_t" unicode="ft" horiz-adv-x="1486" 
d="M330 1196v-172h579v287h72v-287h389v-63h-389v-611q0 -156 61 -230.5t183 -74.5q65 0 145 23v-66q-81 -22 -151 -22q-71 0 -125 17.5t-97 58t-65.5 114t-22.5 178.5v613h-579v-961h-72v961h-217v63h217v178q0 179 81.5 266.5t233.5 87.5q95 0 164 -26v-70q-66 31 -157 31
q-250 0 -250 -295z" />
    <glyph glyph-name="f_f_t" unicode="fft" horiz-adv-x="2138" 
d="M981 1196v-172h582v287h71v-287h387v-63h-387v-611q0 -157 60.5 -231t183.5 -74q67 0 143 23v-66q-77 -22 -151 -22q-71 0 -124.5 17.5t-96 58.5t-64.5 114t-22 178v613h-582v-961h-72v961h-579v-961h-72v961h-217v63h217v178q0 179 81.5 266.5t233.5 87.5q95 0 164 -26
v-70q-66 31 -157 31q-250 0 -250 -295v-172h579v178q0 179 83 266.5t235 87.5q93 0 164 -26v-70q-66 31 -160 31q-250 0 -250 -295z" />
    <glyph glyph-name=".notdef" horiz-adv-x="1044" 
d="M20 0v1536h1004v-1536h-1004zM184 1427l338 -559l338 559h-676zM125 209l338 559l-338 557v-1116zM922 209v1116l-338 -557zM184 113h676l-338 555z" />
    <glyph glyph-name=".null" horiz-adv-x="0" 
 />
    <glyph glyph-name="nonmarkingreturn" horiz-adv-x="682" 
 />
    <glyph glyph-name="space" unicode=" " horiz-adv-x="471" 
 />
    <glyph glyph-name="space" unicode="&#xa0;" horiz-adv-x="471" 
 />
    <glyph glyph-name="exclam" unicode="!" horiz-adv-x="432" 
d="M248 512h-66l-6 1024h78zM213 -20q-32 0 -54 22.5t-22 54.5t22 54t54 22q35 0 57.5 -21.5t22.5 -54.5t-22.5 -55t-57.5 -22z" />
    <glyph glyph-name="quotedbl" unicode="&#x22;" horiz-adv-x="647" 
d="M156 1024l-13 512h76l-12 -512h-51zM440 1024l-12 512h76l-12 -512h-52z" />
    <glyph glyph-name="numbersign" unicode="#" 
d="M565 0l117 463h-389l-117 -463h-63l116 463h-229v55h244l125 498h-248v55h262l117 465h63l-117 -465h390l116 465h64l-117 -465h227v-55h-241l-125 -498h246v-55h-261l-116 -463h-64zM307 518h389l125 498h-389z" />
    <glyph glyph-name="dollar" unicode="$" 
d="M952 358q0 -176 -101 -273t-261 -105v-236h-53v236q-158 9 -259.5 117t-101.5 292v88h72v-74q0 -160 78 -254.5t211 -103.5v719l-37 24q-66 40 -113 78t-91 89.5t-66.5 116t-22.5 140.5q0 165 91.5 251.5t238.5 92.5v236h53v-236q152 -9 242 -114t90 -297v-68h-72v62
q0 168 -67.5 255.5t-192.5 96.5v-676l84 -53q50 -31 87 -59t75 -66t62 -78t39 -91.5t15 -109.5zM279 1212q0 -63 19.5 -116.5t58 -97.5t79.5 -77t101 -71v641q-118 -8 -188 -80.5t-70 -198.5zM627 707l-37 24v-686q135 8 213 88t78 215q0 62 -19 115.5t-56.5 97t-79 77
t-99.5 69.5z" />
    <glyph glyph-name="percent" unicode="%" horiz-adv-x="1650" 
d="M367 727q-134 0 -216.5 104t-82.5 306t82.5 306.5t216.5 104.5t216.5 -104.5t82.5 -306.5t-82.5 -306t-216.5 -104zM262 0l1065 1536h62l-1065 -1536h-62zM367 784q105 0 169 88.5t64 264.5q0 175 -64 264.5t-169 89.5t-169.5 -90t-64.5 -264q0 -175 64.5 -264t169.5 -89
zM1284 -12q-134 0 -216.5 103.5t-82.5 305.5q0 203 82.5 307.5t216.5 104.5t216.5 -104.5t82.5 -307.5q0 -202 -82.5 -305.5t-216.5 -103.5zM1284 45q105 0 169.5 88.5t64.5 263.5q0 174 -64.5 264.5t-169.5 90.5t-169 -90t-64 -265t64 -263.5t169 -88.5z" />
    <glyph glyph-name="ampersand" unicode="&#x26;" horiz-adv-x="1187" 
d="M903 0v236q-82 -256 -368 -256q-191 0 -302.5 106t-111.5 303v47q0 148 79.5 240t215.5 123q-119 34 -186.5 119.5t-67.5 222.5v30q0 189 100.5 287t280.5 98q179 0 281 -98.5t102 -286.5v-71h-72v67q0 160 -81 242t-230 82q-148 0 -229 -81.5t-81 -242.5v-26
q0 -160 93.5 -236t255.5 -76h569v-65h-184v-764h-64zM543 43q168 0 260 104.5t92 311.5v305h-332q-172 0 -271 -81t-99 -255v-31q0 -178 89.5 -266t260.5 -88z" />
    <glyph glyph-name="quotesingle" unicode="'" horiz-adv-x="362" 
d="M156 1024l-13 512h76l-12 -512h-51z" />
    <glyph glyph-name="parenleft" unicode="(" horiz-adv-x="696" 
d="M238 584q0 545 342 952h67q-338 -406 -338 -952q0 -547 338 -953h-67q-342 407 -342 953z" />
    <glyph glyph-name="parenright" unicode=")" horiz-adv-x="696" 
d="M461 584q0 -268 -87 -509.5t-255 -443.5h-70q338 406 338 953q0 546 -338 952h70q342 -411 342 -952z" />
    <glyph glyph-name="asterisk" unicode="*" horiz-adv-x="796" 
d="M551 946l-156 230l-153 -230l-58 43l170 215l-268 78l23 70l260 -103l-11 287h72l-8 -287l268 103l23 -70l-277 -78l172 -213z" />
    <glyph glyph-name="plus" unicode="+" 
d="M973 592h-379v-395h-62v395h-378v57h378v395h62v-395h379v-57z" />
    <glyph glyph-name="comma" unicode="," horiz-adv-x="323" 
d="M246 43q0 -76 -99 -244h-55q64 122 80 181h-10q-34 0 -57 22.5t-23 54.5q0 34 23 57t57 23q39 0 61.5 -25t22.5 -69z" />
    <glyph glyph-name="hyphen" unicode="-" horiz-adv-x="716" 
d="M580 528h-443v70h443v-70z" />
    <glyph glyph-name="hyphen" unicode="&#xad;" horiz-adv-x="716" 
d="M580 528h-443v70h443v-70z" />
    <glyph glyph-name="period" unicode="." horiz-adv-x="323" 
d="M160 -20q-32 0 -55 22.5t-23 54.5q0 34 23 57t55 23q36 0 59 -23t23 -57q0 -33 -23 -55t-59 -22z" />
    <glyph glyph-name="slash" unicode="/" horiz-adv-x="698" 
d="M125 0h-62l512 1536h62z" />
    <glyph glyph-name="zero" unicode="0" 
d="M563 -20q-194 0 -299.5 120.5t-105.5 356.5v622q0 236 105.5 356.5t299.5 120.5t300 -120.5t106 -356.5v-622q0 -236 -106 -356.5t-300 -120.5zM563 45q160 0 247 102.5t87 309.5v622q0 205 -87 308.5t-247 103.5q-159 0 -246.5 -103.5t-87.5 -308.5v-622
q0 -207 87 -309.5t247 -102.5z" />
    <glyph glyph-name="one" unicode="1" 
d="M561 1350v186h72v-1536h-72v1167h-313v62h188q66 0 95.5 28.5t29.5 92.5z" />
    <glyph glyph-name="two" unicode="2" 
d="M942 1163q0 -91 -38 -176t-99.5 -153.5t-135.5 -136.5t-148.5 -137t-136.5 -141t-102 -163t-42 -190h723v-66h-797v49q0 107 39 205.5t101 175.5t137 149.5t150 140.5t137 135t101 146.5t39 161.5q0 164 -87.5 246t-221.5 82q-143 0 -227 -86.5t-84 -280.5v-106h-72v108
q0 218 106 324t277 106q165 0 273 -103t108 -290z" />
    <glyph glyph-name="three" unicode="3" 
d="M989 379q0 -188 -115.5 -293.5t-293.5 -105.5q-181 0 -299.5 110t-118.5 305v51h71v-38q0 -172 94 -267.5t253 -95.5q158 0 248 90t90 256v25q0 173 -88.5 260.5t-245.5 87.5h-88v67h88q136 0 214.5 83.5t78.5 234.5v29q0 152 -83.5 232.5t-213.5 80.5q-133 0 -219.5 -76
t-86.5 -219v-37h-71v47q0 165 107 257.5t270 92.5q160 0 264 -96.5t104 -271.5v-47q0 -129 -61.5 -216t-165.5 -122q125 -35 196.5 -131t71.5 -244v-49z" />
    <glyph glyph-name="four" unicode="4" 
d="M102 471l549 1065h119v-1065h238v-65h-238v-406h-72v406h-596v65zM170 471h528v1026z" />
    <glyph glyph-name="five" unicode="5" 
d="M565 981q-133 0 -213.5 -77.5t-83.5 -196.5h-69v829h727v-66h-658v-612q38 87 117.5 136.5t189.5 49.5q183 0 278 -110t95 -322v-190q0 -211 -108.5 -326.5t-274.5 -115.5q-168 0 -277.5 113.5t-109.5 316.5v45h72v-39q0 -174 84 -272.5t231 -98.5q143 0 227.5 96
t84.5 281v178q0 381 -312 381z" />
    <glyph glyph-name="six" unicode="6" 
d="M969 434q0 -223 -107.5 -338.5t-298.5 -115.5t-298 121t-107 354v628q0 232 107 352.5t298 120.5q190 0 297 -118.5t107 -345.5v-15h-72v13q0 199 -87 300t-245 101q-159 0 -246.5 -103.5t-87.5 -308.5v-374q48 115 139.5 169t204.5 54q184 0 290 -116t106 -337v-41z
M229 465v-23q0 -197 87 -297t247 -100q158 0 246 100.5t88 296.5v23q0 202 -82.5 299.5t-251.5 97.5q-160 0 -247 -100t-87 -297z" />
    <glyph glyph-name="seven" unicode="7" 
d="M535 78v-78h-72v70q0 163 11 299t38 257.5t56.5 217t83.5 208.5t101.5 199t125.5 219h-693v66h756v-88q-93 -156 -147 -256.5t-110.5 -233t-85 -253t-46.5 -279t-18 -348.5z" />
    <glyph glyph-name="eight" unicode="8" 
d="M1004 395q0 -131 -60 -226.5t-158.5 -142t-222.5 -46.5t-222.5 46.5t-158 142t-59.5 226.5v51q0 153 79 253t212 137q-106 35 -169 118.5t-63 204.5v47q0 165 108 257.5t273 92.5t274 -93t109 -257v-47q0 -121 -63 -204.5t-170 -118.5q133 -37 212 -137t79 -253v-51z
M254 1196v-27q0 -141 84 -220t225 -79q144 0 227.5 79t83.5 220v27q0 143 -87 219t-224 76q-135 0 -222 -76t-87 -219zM195 438v-30q0 -172 99.5 -267.5t268.5 -95.5q171 0 270 95t99 268v30q0 179 -98 271t-271 92q-171 0 -269.5 -92.5t-98.5 -270.5z" />
    <glyph glyph-name="nine" unicode="9" 
d="M969 455q0 -233 -107.5 -354t-298.5 -121q-190 0 -295.5 118t-105.5 346v15h71v-10q0 -201 86 -302.5t244 -101.5q159 0 246.5 103.5t87.5 308.5v374q-48 -115 -139.5 -169t-204.5 -54q-184 0 -289.5 116t-105.5 337v41q0 223 107 338.5t298 115.5t298.5 -120.5
t107.5 -352.5v-628zM897 1071v23q0 197 -87 297t-247 100q-158 0 -246 -100.5t-88 -296.5v-23q0 -202 82.5 -299.5t251.5 -97.5q160 0 247 100t87 297z" />
    <glyph glyph-name="colon" unicode=":" horiz-adv-x="323" 
d="M160 887q-32 0 -55 23t-23 55q0 33 23 56t55 23q36 0 59 -22.5t23 -56.5q0 -33 -23 -55.5t-59 -22.5zM160 -20q-32 0 -55 22.5t-23 54.5q0 34 23 57t55 23q36 0 59 -23t23 -57q0 -33 -23 -55t-59 -22z" />
    <glyph glyph-name="semicolon" unicode=";" horiz-adv-x="323" 
d="M160 887q-32 0 -55 23t-23 55q0 33 23 56t55 23q36 0 59 -22.5t23 -56.5q0 -33 -23 -55.5t-59 -22.5zM246 43q0 -76 -99 -244h-55q64 122 80 181h-10q-34 0 -57 22.5t-23 54.5q0 34 23 57t57 23q39 0 61.5 -25t22.5 -69z" />
    <glyph glyph-name="less" unicode="&#x3c;" 
d="M973 252v-64l-819 400v67l819 400v-66l-756 -368z" />
    <glyph glyph-name="equal" unicode="=" 
d="M154 797v57h819v-57h-819zM154 389v57h819v-57h-819z" />
    <glyph glyph-name="greater" unicode="&#x3e;" 
d="M973 588l-819 -400v64l755 369l-755 368v66l819 -400v-67z" />
    <glyph glyph-name="question" unicode="?" horiz-adv-x="1017" 
d="M932 1180q0 -68 -21 -124.5t-54.5 -96t-74.5 -74.5t-81.5 -69.5t-74.5 -72t-55.5 -90.5t-21.5 -118v-23h-66v35q0 68 21 124.5t54 96t73.5 75t80.5 69t73 70t54 86.5t21 110q0 150 -90.5 231.5t-253.5 81.5q-74 0 -136.5 -21t-112.5 -64t-78.5 -115.5t-28.5 -168.5v-28
h-74v43q0 103 34 184.5t93 132t136 76.5t167 26q198 0 307 -100t109 -276zM514 -20q-32 0 -55 22.5t-23 54.5t23 54t55 22q35 0 57.5 -21.5t22.5 -54.5t-22.5 -55t-57.5 -22z" />
    <glyph glyph-name="at" unicode="@" horiz-adv-x="1763" 
d="M1239 -238q-172 -90 -369 -90q-176 0 -324.5 60.5t-249.5 165.5t-157.5 250.5t-56.5 312.5q0 169 56.5 314t157.5 250t249.5 164.5t324.5 59.5q180 0 333.5 -62t257 -167t162 -246t58.5 -297q0 -245 -87.5 -371t-221.5 -126q-183 0 -205 217q-48 -107 -147.5 -162
t-212.5 -55q-142 0 -232 64.5t-90 186.5q0 82 37.5 134.5t97 75t132 34t145 18.5t132 20.5t97 48.5t37.5 95q0 110 -80.5 169t-208.5 59q-134 0 -216.5 -67.5t-82.5 -192.5h-63q0 83 30 145.5t81.5 98.5t114 53.5t134.5 17.5q97 0 174 -27.5t128 -94.5t51 -167v-389
q0 -116 39.5 -176.5t109.5 -60.5q117 0 187.5 116t70.5 336q0 146 -54.5 278.5t-151.5 232t-241.5 158t-314.5 58.5q-167 0 -306 -56.5t-233.5 -155.5t-147 -235.5t-52.5 -295.5q0 -158 52.5 -294.5t147 -235.5t233.5 -155.5t306 -56.5q189 0 344 84zM551 233q0 -96 70 -146
t190 -50q92 0 170.5 38t130 117.5t51.5 186.5v153q-38 -42 -117.5 -62t-160.5 -27.5t-158.5 -22t-126.5 -60t-49 -127.5z" />
    <glyph glyph-name="A" unicode="A" horiz-adv-x="1044" 
d="M39 0l428 1536h111l430 -1536h-74l-129 471h-563l-129 -471h-74zM260 535h526l-264 956z" />
    <glyph glyph-name="B" unicode="B" 
d="M178 0v1536h367q194 0 309 -96.5t115 -274.5v-20q0 -139 -69.5 -224.5t-190.5 -117.5q139 -30 220 -124t81 -245v-41q0 -187 -115.5 -290t-308.5 -103h-408zM524 1470h-274v-641h293q164 0 259 76.5t95 237.5v20q0 152 -96 229.5t-277 77.5zM565 764h-315v-698h315
q181 0 277 86t96 254v20q0 175 -99.5 256.5t-273.5 81.5z" />
    <glyph glyph-name="B" unicode="&#xe000;" 
d="M178 0v1536h367q194 0 309 -96.5t115 -274.5v-20q0 -139 -69.5 -224.5t-190.5 -117.5q139 -30 220 -124t81 -245v-41q0 -187 -115.5 -290t-308.5 -103h-408zM524 1470h-274v-641h293q164 0 259 76.5t95 237.5v20q0 152 -96 229.5t-277 77.5zM565 764h-315v-698h315
q181 0 277 86t96 254v20q0 175 -99.5 256.5t-273.5 81.5z" />
    <glyph glyph-name="C" unicode="C" horiz-adv-x="1167" 
d="M938 559h72v-82q0 -246 -111.5 -371.5t-314.5 -125.5t-314.5 125.5t-111.5 371.5v582q0 246 111.5 371.5t314.5 125.5t314.5 -125.5t111.5 -371.5v-64h-72v64q0 217 -91.5 324.5t-262.5 107.5q-169 0 -262 -108t-93 -324v-582q0 -217 92.5 -324.5t262.5 -107.5t262 107.5
t92 324.5v82z" />
    <glyph glyph-name="D" unicode="D" horiz-adv-x="1167" 
d="M549 1536q461 0 461 -512v-512q0 -512 -461 -512h-371v1536h371zM549 66q389 0 389 446v512q0 232 -99.5 339t-289.5 107h-299v-1404h299z" />
    <glyph glyph-name="E" unicode="E" horiz-adv-x="929" 
d="M178 0v1536h635v-66h-563v-641h522v-65h-522v-698h563v-66h-635z" />
    <glyph glyph-name="E" unicode="&#xe001;" horiz-adv-x="929" 
d="M178 0v1536h635v-66h-563v-641h522v-65h-522v-698h563v-66h-635z" />
    <glyph glyph-name="F" unicode="F" horiz-adv-x="888" 
d="M178 0v1536h635v-66h-563v-682h502v-65h-502v-723h-72z" />
    <glyph glyph-name="G" unicode="G" horiz-adv-x="1177" 
d="M553 809h457v-809h-64v240q-42 -129 -137.5 -194.5t-233.5 -65.5q-199 0 -308 125.5t-109 371.5v582q0 246 111.5 371.5t314.5 125.5t314.5 -125.5t111.5 -371.5v-64h-72v64q0 217 -91.5 324.5t-262.5 107.5q-169 0 -262 -108t-93 -324v-582q0 -217 92.5 -324.5
t262.5 -107.5q168 0 261 108t93 322v268h-385v66z" />
    <glyph glyph-name="H" unicode="H" horiz-adv-x="1208" 
d="M958 0v764h-708v-764h-72v1536h72v-707h708v707h72v-1536h-72z" />
    <glyph glyph-name="I" unicode="I" horiz-adv-x="428" 
d="M250 0h-72v1536h72v-1536z" />
    <glyph glyph-name="J" unicode="J" horiz-adv-x="1009" 
d="M780 1536h72v-1143q0 -201 -104.5 -307t-280.5 -106t-280.5 106t-104.5 307v117h72v-115q0 -171 86 -260.5t227 -89.5q143 0 228 89t85 261v1141z" />
    <glyph glyph-name="K" unicode="K" horiz-adv-x="1062" 
d="M944 0l-512 807l-182 -238v-569h-72v1536h72v-862l659 862h82l-508 -672l547 -864h-86z" />
    <glyph glyph-name="L" unicode="L" horiz-adv-x="888" 
d="M817 66v-66h-639v1536h72v-1470h567z" />
    <glyph glyph-name="M" unicode="M" horiz-adv-x="1458" 
d="M1208 0v1495l-440 -1495h-96l-424 1493v-1493h-70v1536h127l420 -1454l426 1454h129v-1536h-72z" />
    <glyph glyph-name="N" unicode="N" horiz-adv-x="1208" 
d="M1030 1536v-1536h-121l-661 1495v-1495h-70v1536h125l660 -1489v1489h67z" />
    <glyph glyph-name="O" unicode="O" horiz-adv-x="1167" 
d="M584 -20q-203 0 -314.5 125.5t-111.5 371.5v582q0 246 111.5 371.5t314.5 125.5t314.5 -125.5t111.5 -371.5v-582q0 -246 -111.5 -371.5t-314.5 -125.5zM584 45q170 0 262 107.5t92 324.5v582q0 217 -91.5 324.5t-262.5 107.5q-169 0 -262 -108t-93 -324v-582
q0 -217 92.5 -324.5t262.5 -107.5z" />
    <glyph glyph-name="P" unicode="P" horiz-adv-x="1085" 
d="M178 0v1536h432q178 0 288 -98t110 -279v-137q0 -187 -110.5 -291t-287.5 -104h-360v-627h-72zM590 1470h-340v-780h340q165 0 255.5 86t90.5 266v97q0 331 -346 331z" />
    <glyph glyph-name="Q" unicode="Q" horiz-adv-x="1167" 
d="M952 0l-86 102q-92 -122 -291 -122q-198 0 -307.5 125.5t-109.5 371.5v582q0 246 111.5 371.5t314.5 125.5t314.5 -125.5t111.5 -371.5v-582q0 -219 -97 -336l117 -141h-78zM229 477q0 -217 92.5 -324.5t262.5 -107.5q159 0 250 94l-332 393h80l290 -344q66 107 66 289
v582q0 217 -91.5 324.5t-262.5 107.5q-169 0 -262 -108t-93 -324v-582z" />
    <glyph glyph-name="R" unicode="R" 
d="M178 0v1536h408q187 0 300 -92.5t113 -261.5v-62q0 -181 -117 -276.5t-304 -98.5l456 -745h-88l-446 745h-250v-745h-72zM565 1470h-315v-663h315q363 0 363 334v20q0 162 -94 235.5t-269 73.5z" />
    <glyph glyph-name="S" unicode="S" horiz-adv-x="993" 
d="M147 1212q0 175 98 259.5t255 84.5q162 0 260 -104.5t98 -304.5v-68h-72v62q0 177 -75 263.5t-211 86.5q-127 0 -204 -73.5t-77 -205.5q0 -64 20.5 -118.5t61 -99.5t82.5 -78t104 -72l121 -80q63 -41 108 -77.5t86.5 -85.5t63 -110t21.5 -133q0 -183 -108.5 -280.5
t-276.5 -97.5q-166 0 -275.5 109t-109.5 300v88h71v-74q0 -165 86 -261.5t228 -96.5q145 0 229 80.5t84 222.5q0 62 -19 115.5t-56.5 97.5t-78.5 77.5t-98 70.5l-123 77q-66 42 -112 79.5t-90.5 89.5t-67.5 116.5t-23 140.5z" />
    <glyph glyph-name="S" unicode="&#xe002;" horiz-adv-x="993" 
d="M147 1212q0 175 98 259.5t255 84.5q162 0 260 -104.5t98 -304.5v-68h-72v62q0 177 -75 263.5t-211 86.5q-127 0 -204 -73.5t-77 -205.5q0 -64 20.5 -118.5t61 -99.5t82.5 -78t104 -72l121 -80q63 -41 108 -77.5t86.5 -85.5t63 -110t21.5 -133q0 -183 -108.5 -280.5
t-276.5 -97.5q-166 0 -275.5 109t-109.5 300v88h71v-74q0 -165 86 -261.5t228 -96.5q145 0 229 80.5t84 222.5q0 62 -19 115.5t-56.5 97.5t-78.5 77.5t-98 70.5l-123 77q-66 42 -112 79.5t-90.5 89.5t-67.5 116.5t-23 140.5z" />
    <glyph glyph-name="T" unicode="T" horiz-adv-x="888" 
d="M20 1470v66h848v-66h-387v-1470h-71v1470h-390z" />
    <glyph glyph-name="U" unicode="U" horiz-adv-x="1167" 
d="M168 1536h72v-1090q0 -401 344 -401t344 401v1090h71v-1090q0 -466 -415 -466q-416 0 -416 466v1090z" />
    <glyph glyph-name="V" unicode="V" horiz-adv-x="1044" 
d="M1008 1536l-430 -1536h-111l-428 1536h74l409 -1491l412 1491h74z" />
    <glyph glyph-name="W" unicode="W" horiz-adv-x="1536" 
d="M1516 1536l-312 -1536h-104l-332 1477l-332 -1477h-104l-312 1536h74l291 -1468l328 1468h110l328 -1468l291 1468h74z" />
    <glyph glyph-name="X" unicode="X" horiz-adv-x="1003" 
d="M879 0l-377 735l-377 -735h-82l414 793l-387 743h82l350 -686l350 686h82l-387 -739l414 -797h-82z" />
    <glyph glyph-name="Y" unicode="Y" horiz-adv-x="983" 
d="M975 1536l-447 -899v-637h-71v633l-449 903h74l410 -831l409 831h74z" />
    <glyph glyph-name="Z" unicode="Z" horiz-adv-x="901" 
d="M825 66v-66h-729v96l647 1374h-637v66h699v-94l-645 -1376h665z" />
    <glyph glyph-name="bracketleft" unicode="[" horiz-adv-x="696" 
d="M274 -369v1905h379v-59h-309v-1786h309v-60h-379z" />
    <glyph glyph-name="backslash" unicode="\" horiz-adv-x="698" 
d="M575 0l-512 1536h62l512 -1536h-62z" />
    <glyph glyph-name="bracketright" unicode="]" horiz-adv-x="696" 
d="M43 1477v59h379v-1905h-379v60h311v1786h-311z" />
    <glyph glyph-name="asciicircum" unicode="^" 
d="M932 717l-369 756l-368 -756h-64l399 819h68l399 -819h-65z" />
    <glyph glyph-name="underscore" unicode="_" horiz-adv-x="1024" 
d="M922 -324h-820v56h820v-56z" />
    <glyph glyph-name="grave" unicode="`" horiz-adv-x="1024" 
d="M481 1229l-202 307h102l158 -307h-58z" />
    <glyph glyph-name="a" unicode="a" 
d="M889 0v233q-51 -124 -164 -188.5t-244 -64.5q-160 0 -261 71.5t-101 206.5q0 72 26.5 124t71 80.5t102 46t121.5 25.5t128 14t121.5 16t102 27.5t71 52.5t26.5 87q0 123 -90.5 187.5t-237.5 64.5q-154 0 -248 -74.5t-94 -214.5h-69q0 74 22.5 133.5t60.5 99.5t91 66.5
t112 38.5t125 12q81 0 150.5 -17.5t126.5 -53.5t90 -98t33 -144v-731h-72zM190 260q0 -107 80.5 -163t218.5 -56q104 0 193.5 42.5t148 131t58.5 207.5v168q-33 -34 -90 -54.5t-120.5 -29t-133.5 -15.5t-132 -19t-112.5 -34t-80.5 -67t-30 -111z" />
    <glyph glyph-name="b" unicode="b" horiz-adv-x="1259" 
d="M1171 512q0 -233 -139.5 -382.5t-351.5 -149.5q-145 0 -258.5 76t-171.5 208v-264h-72v1536h72v-776q58 132 171.5 208t258.5 76q212 0 351.5 -149.5t139.5 -382.5zM674 979q-184 0 -304 -129.5t-120 -337.5t120 -337.5t304 -129.5t305 129.5t121 337.5t-121 337.5
t-305 129.5z" />
    <glyph glyph-name="b" unicode="&#xe003;" horiz-adv-x="1259" 
d="M1171 512q0 -233 -139.5 -382.5t-351.5 -149.5q-145 0 -258.5 76t-171.5 208v-264h-72v1536h72v-776q58 132 171.5 208t258.5 76q212 0 351.5 -149.5t139.5 -382.5zM674 979q-184 0 -304 -129.5t-120 -337.5t120 -337.5t304 -129.5t305 129.5t121 337.5t-121 337.5
t-305 129.5z" />
    <glyph glyph-name="c" unicode="c" horiz-adv-x="1171" 
d="M1001 616q-23 165 -138.5 264t-276.5 99q-184 0 -304 -129.5t-120 -337.5t120 -337.5t304 -129.5q166 0 284.5 105.5t133.5 279.5h75q-17 -199 -156.5 -324.5t-336.5 -125.5q-215 0 -355.5 149.5t-140.5 382.5t140.5 382.5t355.5 149.5q192 0 329 -118.5t160 -309.5h-74z
" />
    <glyph glyph-name="d" unicode="d" horiz-adv-x="1259" 
d="M1010 0v264q-58 -132 -171.5 -208t-258.5 -76q-212 0 -351 149.5t-139 382.5t139 382.5t351 149.5q145 0 258.5 -76t171.5 -208v776h71v-1536h-71zM586 979q-184 0 -304 -129.5t-120 -337.5t120 -337.5t304 -129.5t304 129.5t120 337.5t-120 337.5t-304 129.5z" />
    <glyph glyph-name="e" unicode="e" horiz-adv-x="1159" 
d="M1071 512q0 -5 -1 -14t-1 -15h-909q9 -199 126 -319.5t296 -120.5q133 0 236 71t147 193h77q-51 -151 -174.5 -239t-287.5 -88q-213 0 -351.5 149t-138.5 383t138.5 383t351.5 149t352 -149t139 -383zM580 981q-178 0 -294.5 -121t-125.5 -319h839q-9 198 -125 319
t-294 121z" />
    <glyph glyph-name="f" unicode="f" horiz-adv-x="778" 
d="M330 1196v-172h387v-63h-387v-961h-72v961h-217v63h217v178q0 179 81.5 266.5t233.5 87.5q95 0 164 -26v-70q-66 31 -157 31q-250 0 -250 -295z" />
    <glyph glyph-name="g" unicode="g" horiz-adv-x="1259" 
d="M1081 -35q0 -226 -134.5 -361.5t-342.5 -135.5q-190 0 -321 114.5t-156 300.5h74q28 -160 135 -254t268 -94q189 0 297.5 119t108.5 311v299q-58 -132 -171.5 -208t-258.5 -76q-212 0 -351 149.5t-139 382.5t139 382.5t351 149.5q145 0 258.5 -76t171.5 -208v264h71
v-1059zM586 45q184 0 304 129.5t120 337.5t-120 337.5t-304 129.5t-304 -129.5t-120 -337.5t120 -337.5t304 -129.5z" />
    <glyph glyph-name="h" unicode="h" horiz-adv-x="1198" 
d="M250 543v-543h-72v1536h72v-739q44 125 139 186t227 61q92 0 166 -27.5t130.5 -84.5t87 -151t30.5 -220v-561h-72v543q0 221 -93 329.5t-261 108.5t-261 -108.5t-93 -329.5z" />
    <glyph glyph-name="i" unicode="i" horiz-adv-x="428" 
d="M215 1309q-34 0 -57 23t-23 57q0 32 23 54.5t57 22.5q33 0 55.5 -22t22.5 -55q0 -34 -22 -57t-56 -23zM250 0h-72v1024h72v-1024z" />
    <glyph glyph-name="j" unicode="j" horiz-adv-x="428" 
d="M215 1309q-34 0 -57 23t-23 57q0 32 23 54.5t57 22.5q33 0 55.5 -22t22.5 -55q0 -34 -22 -57t-56 -23zM178 -276v1300h72v-1303q0 -233 -211 -233q-53 0 -86 10v64q54 -8 80 -8q69 0 107 37.5t38 132.5z" />
    <glyph glyph-name="k" unicode="k" horiz-adv-x="1042" 
d="M913 0l-454 553l-209 -213v-340h-72v1536h72v-1110l592 598h94l-418 -424l490 -600h-95z" />
    <glyph glyph-name="l" unicode="l" horiz-adv-x="428" 
d="M250 0h-72v1536h72v-1536z" />
    <glyph glyph-name="m" unicode="m" horiz-adv-x="1792" 
d="M250 598v-598h-72v1024h72v-193q41 107 124.5 160t194.5 53q129 0 221.5 -64.5t127.5 -195.5q35 131 127 195.5t221 64.5q162 0 260 -105.5t98 -322.5v-616h-72v598q0 193 -78 288t-221 95q-152 0 -233.5 -94.5t-81.5 -288.5v-598h-72v598q0 193 -80 288t-229 95
q-148 0 -227.5 -94.5t-79.5 -288.5z" />
    <glyph glyph-name="n" unicode="n" horiz-adv-x="1198" 
d="M250 543v-543h-72v1024h72v-227q44 125 139 186t227 61q92 0 166 -27.5t130.5 -84.5t87 -151t30.5 -220v-561h-72v543q0 221 -93 329.5t-261 108.5t-261 -108.5t-93 -329.5z" />
    <glyph glyph-name="o" unicode="o" horiz-adv-x="1187" 
d="M594 -20q-218 0 -361 149.5t-143 382.5t143 382.5t361 149.5t362 -149.5t144 -382.5t-144 -382.5t-362 -149.5zM594 45q187 0 310.5 129.5t123.5 337.5t-123.5 337.5t-310.5 129.5t-309.5 -129.5t-122.5 -337.5t122.5 -337.5t309.5 -129.5z" />
    <glyph glyph-name="p" unicode="p" horiz-adv-x="1259" 
d="M680 -20q-145 0 -258.5 76t-171.5 208v-776h-72v1536h72v-264q58 132 171.5 208t258.5 76q212 0 351.5 -149.5t139.5 -382.5t-139.5 -382.5t-351.5 -149.5zM674 45q184 0 305 129.5t121 337.5t-121 337.5t-305 129.5t-304 -129.5t-120 -337.5t120 -337.5t304 -129.5z" />
    <glyph glyph-name="q" unicode="q" horiz-adv-x="1259" 
d="M1081 1024v-1536h-71v776q-58 -132 -171.5 -208t-258.5 -76q-212 0 -351 149.5t-139 382.5t139 382.5t351 149.5q145 0 258.5 -76t171.5 -208v264h71zM586 45q184 0 304 129.5t120 337.5t-120 337.5t-304 129.5t-304 -129.5t-120 -337.5t120 -337.5t304 -129.5z" />
    <glyph glyph-name="r" unicode="r" horiz-adv-x="825" 
d="M250 483v-483h-72v1024h72v-260q48 142 149.5 211t241.5 69q56 0 109 -16v-74q-52 21 -117 21q-185 0 -284 -121.5t-99 -370.5z" />
    <glyph glyph-name="s" unicode="s" horiz-adv-x="1032" 
d="M915 268q0 -138 -103.5 -213t-279.5 -75q-184 0 -299.5 85t-115.5 238h73q0 -128 95 -196t247 -68q149 0 230.5 58.5t81.5 170.5q0 70 -38.5 115t-100.5 66.5t-136.5 36t-149.5 31t-137 42.5t-100.5 80t-38.5 135q0 125 100.5 197.5t258.5 72.5q167 0 277 -83.5
t110 -210.5h-74q0 101 -89 167t-224 66q-131 0 -209 -55.5t-78 -153.5q0 -52 24 -90t64.5 -59.5t93 -36.5t110.5 -26t116 -23t110.5 -32t93 -48.5t64.5 -77t24 -113.5z" />
    <glyph glyph-name="s" unicode="&#xe004;" horiz-adv-x="1032" 
d="M915 268q0 -138 -103.5 -213t-279.5 -75q-184 0 -299.5 85t-115.5 238h73q0 -128 95 -196t247 -68q149 0 230.5 58.5t81.5 170.5q0 70 -38.5 115t-100.5 66.5t-136.5 36t-149.5 31t-137 42.5t-100.5 80t-38.5 135q0 125 100.5 197.5t258.5 72.5q167 0 277 -83.5
t110 -210.5h-74q0 101 -89 167t-224 66q-131 0 -209 -55.5t-78 -153.5q0 -52 24 -90t64.5 -59.5t93 -36.5t110.5 -26t116 -23t110.5 -32t93 -48.5t64.5 -77t24 -113.5z" />
    <glyph glyph-name="t" unicode="t" horiz-adv-x="798" 
d="M295 350q0 -156 61 -230.5t183 -74.5q67 0 143 23v-66q-77 -22 -152 -22q-71 0 -124.5 17.5t-96 58.5t-64.5 114t-22 178v613h-182v63h182v291h72v-291h387v-63h-387v-611z" />
    <glyph glyph-name="u" unicode="u" horiz-adv-x="1187" 
d="M938 0v238q-44 -131 -138.5 -194.5t-224.5 -63.5q-185 0 -296 123.5t-111 377.5v543h72v-524q0 -230 91 -343.5t257 -113.5q168 0 259 113t91 344v524h72v-1024h-72z" />
    <glyph glyph-name="v" unicode="v" horiz-adv-x="1024" 
d="M1004 1024l-449 -1024h-86l-449 1024h76l416 -971l416 971h76z" />
    <glyph glyph-name="w" unicode="w" horiz-adv-x="1566" 
d="M1536 1024l-342 -1024h-82l-330 956l-329 -956h-82l-340 1024h71l310 -956l329 956h82l330 -961l311 961h72z" />
    <glyph glyph-name="x" unicode="x" horiz-adv-x="1064" 
d="M944 0l-418 479l-403 -479h-88l450 526l-428 498h86l389 -449l388 449h88l-430 -496l452 -528h-86z" />
    <glyph glyph-name="y" unicode="y" horiz-adv-x="1026" 
d="M549 -145q-21 -54 -36 -89.5t-36.5 -78.5t-41.5 -70t-48 -55t-58.5 -43t-70 -25t-86.5 -10q-75 0 -139 22v64q56 -21 131 -21q53 0 94 13.5t71 36.5t58 66t49 88t49 118l-467 1153h74l430 -1061l412 1061h74z" />
    <glyph glyph-name="y" unicode="&#xe006;" horiz-adv-x="1026" 
d="M549 -145q-21 -54 -36 -89.5t-36.5 -78.5t-41.5 -70t-48 -55t-58.5 -43t-70 -25t-86.5 -10q-75 0 -139 22v64q56 -21 131 -21q53 0 94 13.5t71 36.5t58 66t49 88t49 118l-467 1153h74l430 -1061l412 1061h74z" />
    <glyph glyph-name="z" unicode="z" horiz-adv-x="962" 
d="M877 63v-63h-771v94l670 867h-659v63h719v-94l-670 -867h711z" />
    <glyph glyph-name="braceleft" unicode="{" horiz-adv-x="696" 
d="M168 549h-102v69h102q23 0 45.5 7t47.5 23.5t40.5 51.5t15.5 84v441q0 149 76 230t203 81h57v-59h-51q-99 0 -157 -65.5t-58 -190.5v-441q0 -70 -32 -119t-81 -77q49 -28 81 -77.5t32 -119.5v-440q0 -125 58 -190.5t157 -65.5h51v-60h-57q-127 0 -203 81.5t-76 230.5v440
q0 50 -15.5 85t-40.5 51.5t-47.5 23t-45.5 6.5z" />
    <glyph glyph-name="bar" unicode="|" horiz-adv-x="473" 
d="M266 -512h-59v2048h59v-2048z" />
    <glyph glyph-name="braceright" unicode="}" horiz-adv-x="696" 
d="M528 618h103v-69h-103q-23 0 -45.5 -6.5t-47.5 -23t-40.5 -51.5t-15.5 -85v-440q0 -149 -76 -230.5t-203 -81.5h-57v60h51q99 0 157 65.5t58 190.5v440q0 70 32 119.5t81 77.5q-49 28 -81 77t-32 119v441q0 125 -58 190.5t-157 65.5h-51v59h57q127 0 203 -81t76 -230
v-441q0 -49 15.5 -84t40.5 -51.5t47.5 -23.5t45.5 -7z" />
    <glyph glyph-name="asciitilde" unicode="~" 
d="M358 719q-62 0 -101.5 -44t-39.5 -128v-76h-63v82q0 107 55 167t143 60q59 0 109.5 -26.5t86.5 -64t69 -75t72.5 -64t82.5 -26.5q60 0 98.5 43t38.5 127v76h64v-80q0 -110 -55 -169.5t-142 -59.5q-38 0 -72.5 14t-61.5 37t-52.5 50.5l-51 55t-51.5 50.5t-59.5 37
t-69.5 14z" />
    <glyph glyph-name="exclamdown" unicode="&#xa1;" horiz-adv-x="432" 
d="M215 1044q32 0 55 -22.5t23 -54.5t-23 -54t-55 -22q-34 0 -56 22t-22 54q0 33 22.5 55t55.5 22zM182 512h64l8 -1024h-80z" />
    <glyph glyph-name="cent" unicode="&#xa2;" 
d="M1059 686q-20 -192 -150.5 -315.5t-316.5 -134.5v-236h-53v236q-206 9 -341 157.5t-135 374.5t135 374.5t341 157.5v236h53v-236q181 -9 309.5 -127t153.5 -301h-72q-23 157 -131 255.5t-260 107.5v-934q158 11 267 115.5t126 269.5h74zM135 768q0 -199 114 -328.5
t290 -138.5v934q-176 -9 -290 -138.5t-114 -328.5z" />
    <glyph glyph-name="sterling" unicode="&#xa3;" 
d="M965 66v-66h-838v49q139 151 205.5 281t66.5 280q0 57 -20 119h-232v51h209q-19 37 -57.5 94t-64.5 97.5t-47 103.5t-21 129q0 167 106 259.5t269 92.5q85 0 154.5 -22.5t124.5 -68.5t85.5 -123.5t30.5 -180.5v-76h-72v74q0 175 -87.5 253.5t-235.5 78.5
q-133 0 -218 -71.5t-85 -215.5q0 -61 22 -121t50 -101.5t64.5 -99t55.5 -102.5h420v-51h-399q16 -56 16 -117q0 -147 -64 -277t-184 -269h746z" />
    <glyph glyph-name="currency" unicode="&#xa4;" 
d="M883 342l-41 -41l-115 115q-74 -54 -162 -54q-95 0 -164 56l-108 -107l-39 39l106 109q-53 65 -53 159q0 93 53 162l-116 119l41 41l118 -117q66 51 162 51q95 0 160 -53l109 109l38 -39l-108 -109q57 -66 57 -164q0 -90 -53 -159zM565 416q85 0 141 57t56 145
q0 89 -56 146t-141 57q-87 0 -143.5 -57t-56.5 -146q0 -88 57 -145t143 -57z" />
    <glyph glyph-name="yen" unicode="&#xa5;" 
d="M915 545h-315v-545h-72v545h-315v53h315v356h-315v54h279l-410 528h78l403 -522l404 522h77l-409 -528h280v-54h-315v-356h315v-53z" />
    <glyph glyph-name="brokenbar" unicode="&#xa6;" horiz-adv-x="473" 
d="M266 717h-59v819h59v-819zM266 -512h-59v819h59v-819z" />
    <glyph glyph-name="section" unicode="&#xa7;" horiz-adv-x="1019" 
d="M858 -225q0 -80 -27 -140.5t-76 -96t-111.5 -53t-137.5 -17.5q-163 0 -261 93t-98 271v57h72v-51q0 -153 75.5 -229t211.5 -76q127 0 203.5 63.5t76.5 176.5q0 109 -75 187t-205 140l-121 60q-122 60 -186 140t-64 208q0 150 94.5 244.5t245.5 109.5l-18 8
q-67 34 -118 69t-96 81t-69 104t-24 125q0 80 27 140t76 96t111.5 53.5t137.5 17.5q162 0 260 -93t98 -273v-55h-72v51q0 153 -75 229t-211 76q-128 0 -204.5 -63.5t-76.5 -178.5q0 -108 75.5 -185.5t205.5 -139.5l121 -60q120 -59 183.5 -140.5t63.5 -209.5
q0 -154 -96.5 -245t-241.5 -107l19 -8q307 -144 307 -379zM502 219q128 0 212.5 81.5t84.5 209.5q0 131 -84 213t-213 82q-127 0 -211 -82t-84 -213q0 -128 84 -209.5t211 -81.5z" />
    <glyph glyph-name="dieresis" unicode="&#xa8;" horiz-adv-x="1024" 
d="M307 1307q-32 0 -54 21.5t-22 53.5t22 54t54 22q33 0 54.5 -21.5t21.5 -54.5q0 -32 -21.5 -53.5t-54.5 -21.5zM717 1307q-32 0 -54 21.5t-22 53.5t22 54t54 22q33 0 54.5 -21.5t21.5 -54.5q0 -32 -21.5 -53.5t-54.5 -21.5z" />
    <glyph glyph-name="copyright" unicode="&#xa9;" horiz-adv-x="1699" 
d="M850 -20q-165 0 -311 63t-248 169.5t-160.5 251t-58.5 304.5q0 162 58.5 307t160.5 251t247.5 168t311.5 62t311.5 -62t247.5 -168t160.5 -251t58.5 -307q0 -160 -58.5 -304.5t-160.5 -251t-248 -169.5t-311 -63zM850 1511q-155 0 -291.5 -59t-232 -159t-150.5 -237
t-55 -288q0 -122 35 -234.5t100.5 -204.5t154 -160.5t202 -106t237.5 -37.5t237.5 37.5t202 106t154 160.5t100.5 204.5t35 234.5q0 151 -55 288t-150.5 237t-232 159t-291.5 59zM1188 852q-20 129 -115 209t-223 80q-148 0 -245 -104t-97 -271q0 -164 97 -268.5t245 -104.5
q134 0 230.5 85t109.5 222h61q-15 -160 -128 -261t-273 -101q-173 0 -288.5 120.5t-115.5 307.5q0 189 115.5 310.5t288.5 121.5q155 0 266 -96t131 -250h-59z" />
    <glyph glyph-name="ordfeminine" unicode="&#xaa;" horiz-adv-x="776" 
d="M592 561v148q-34 -79 -104.5 -119.5t-155.5 -40.5q-102 0 -167 47t-65 135q0 68 36.5 109t91 54t118.5 22t118.5 15t91 32.5t36.5 74.5q0 73 -56 113.5t-145 40.5q-94 0 -152.5 -47t-58.5 -133h-59q0 61 22.5 106.5t61 71.5t85.5 38.5t101 12.5q114 0 190 -50t76 -155
v-475h-65zM164 733q0 -64 50 -98.5t132 -34.5q101 0 173.5 63t72.5 173v102q-29 -27 -85.5 -41t-113 -19.5t-109.5 -16t-86.5 -42t-33.5 -86.5zM674 246h-572v57h572v-57z" />
    <glyph glyph-name="guillemotleft" unicode="&#xab;" horiz-adv-x="1187" 
d="M553 123l-451 356v86l451 357v-72l-420 -328l420 -327v-72zM1085 123l-450 356v86l450 357v-72l-419 -328l419 -327v-72z" />
    <glyph glyph-name="logicalnot" unicode="&#xac;" 
d="M973 197h-62v395h-757v57h819v-452z" />
    <glyph glyph-name="registered" unicode="&#xae;" horiz-adv-x="1019" 
d="M510 610q-132 0 -240 64.5t-167.5 172.5t-59.5 236q0 130 60 238t167.5 171.5t239.5 63.5t239.5 -63.5t167.5 -171.5t60 -238q0 -128 -59.5 -236t-167.5 -172.5t-240 -64.5zM510 1513q-179 0 -298.5 -125t-119.5 -305t119.5 -305t298.5 -125t298.5 125t119.5 305
t-119.5 305t-298.5 125zM348 838v491h191q163 0 163 -141q0 -64 -46 -99.5t-117 -35.5h-2l172 -215h-64l-170 215h-74v-215h-53zM537 1282h-136v-184h136q52 0 82 24t30 66q0 51 -28.5 72.5t-83.5 21.5z" />
    <glyph glyph-name="macron" unicode="&#xaf;" horiz-adv-x="1024" 
d="M782 1354v-56h-538v56h538z" />
    <glyph glyph-name="degree" unicode="&#xb0;" horiz-adv-x="735" 
d="M369 1024q-112 0 -185 72.5t-73 183.5t73 183.5t185 72.5q110 0 183 -73t73 -183t-73 -183t-183 -73zM369 1077q85 0 141.5 57.5t56.5 145.5q0 89 -56.5 146t-141.5 57q-87 0 -143 -57t-56 -146q0 -88 56.5 -145.5t142.5 -57.5z" />
    <glyph glyph-name="plusminus" unicode="&#xb1;" 
d="M973 592h-379v-395h-62v395h-378v57h378v395h62v-395h379v-57zM154 0v55h819v-55h-819z" />
    <glyph glyph-name="twosuperior" unicode="&#xb2;" horiz-adv-x="647" 
d="M586 1112q0 -46 -19 -85t-50 -66.5t-70.5 -54.5t-81 -48.5t-82 -49.5t-72 -57t-52 -70t-22.5 -89h461v-55h-537v34q0 63 25.5 116t66 89t89.5 68t98.5 60t90 57t66 67.5t25.5 83.5q0 81 -55 129.5t-137 48.5q-87 0 -143 -50.5t-56 -147.5v-19h-63v25q0 115 75 181.5
t187 66.5q110 0 183 -62.5t73 -171.5z" />
    <glyph glyph-name="threesuperior" unicode="&#xb3;" horiz-adv-x="706" 
d="M639 756q0 -105 -77.5 -168.5t-205.5 -63.5t-208 65.5t-80 170.5h63q0 -80 61 -130t162 -50q102 0 163 49.5t61 128.5q0 77 -60.5 124.5t-165.5 47.5h-51v53h51q89 0 142 42.5t53 109.5q0 70 -54.5 112.5t-146.5 42.5q-91 0 -145 -46.5t-54 -121.5h-61q0 101 71.5 162.5
t188.5 61.5q118 0 191 -58t73 -151q0 -62 -36.5 -109t-102.5 -70q78 -25 123 -78t45 -124z" />
    <glyph glyph-name="acute" unicode="&#xb4;" horiz-adv-x="1024" 
d="M555 1229h-57l157 307h103z" />
    <glyph glyph-name="paragraph" unicode="&#xb6;" horiz-adv-x="1310" 
d="M143 1159q0 180 111.5 278.5t290.5 98.5h182v-2048h-63v1174h-119q-179 0 -290.5 104t-111.5 291v102zM1116 -512h-63v2048h63v-2048z" />
    <glyph glyph-name="periodcentered" unicode="&#xb7;" horiz-adv-x="335" 
d="M166 455q-33 0 -55.5 22t-22.5 55t22.5 55.5t55.5 22.5q36 0 59 -22t23 -56t-22.5 -55.5t-59.5 -21.5z" />
    <glyph glyph-name="cedilla" unicode="&#xb8;" horiz-adv-x="1024" 
d="M725 -326q0 -79 -57.5 -132.5t-155.5 -53.5q-93 0 -152 48.5t-59 119.5h55q6 -59 48 -89t108 -30q72 0 114 38.5t42 98.5q0 62 -40 101t-104 39q-88 0 -145 -70h-66l181 256h61l-106 -152q38 15 77 15q89 0 144 -55.5t55 -133.5z" />
    <glyph glyph-name="onesuperior" unicode="&#xb9;" horiz-adv-x="342" 
d="M164 1280v53h65v-796h-65v610h-137v53h57q43 0 61.5 18.5t18.5 61.5z" />
    <glyph glyph-name="ordmasculine" unicode="&#xba;" horiz-adv-x="776" 
d="M389 549q-142 0 -237 97.5t-95 248.5q0 152 94.5 249t237.5 97q142 0 236 -97t94 -249q0 -151 -94 -248.5t-236 -97.5zM389 606q115 0 190.5 80.5t75.5 208.5q0 129 -75.5 210t-190.5 81q-117 0 -192.5 -81t-75.5 -210q0 -128 76 -208.5t192 -80.5zM674 246h-572v57h572
v-57z" />
    <glyph glyph-name="guillemotright" unicode="&#xbb;" horiz-adv-x="1187" 
d="M635 922l450 -357v-86l-450 -356v72l420 327l-420 328v72zM102 922l451 -357v-86l-451 -356v72l420 327l-420 328v72z" />
    <glyph glyph-name="onequarter" unicode="&#xbc;" horiz-adv-x="1650" 
d="M328 1483v53h65v-797h-65v611h-138v53h58q43 0 61.5 18.5t18.5 61.5zM262 0l1065 1536h62l-1065 -1536h-62zM913 266l369 531h104v-531h183v-55h-183v-211h-63v211h-410v55zM977 266h346v502z" />
    <glyph glyph-name="onehalf" unicode="&#xbd;" horiz-adv-x="1650" 
d="M328 1483v53h65v-797h-65v611h-138v53h58q43 0 61.5 18.5t18.5 61.5zM262 0l1065 1536h62l-1065 -1536h-62zM1503 575q0 -52 -24 -95t-63 -73.5t-86 -58.5t-94.5 -56.5t-87 -60t-65.5 -76.5t-28 -100h461v-55h-537v35q0 63 25.5 116t66 89t90 67.5t98.5 59.5t89.5 57
t66 67.5t25.5 83.5q0 81 -55.5 130t-137.5 49q-87 0 -142.5 -51t-55.5 -148v-18h-64v24q0 115 75 181.5t187 66.5q110 0 183 -62.5t73 -171.5z" />
    <glyph glyph-name="threequarters" unicode="&#xbe;" horiz-adv-x="1650" 
d="M639 958q0 -105 -77.5 -168t-205.5 -63t-208 65.5t-80 170.5h63q0 -80 61.5 -130.5t161.5 -50.5q102 0 163 50t61 129q0 77 -60.5 124.5t-165.5 47.5h-51v53h51q89 0 142 42t53 109q0 70 -55 113t-146 43t-145 -46.5t-54 -121.5h-61q0 101 71.5 162t188.5 61
q118 0 191 -58t73 -151q0 -61 -36.5 -108t-102.5 -70q78 -25 123 -78.5t45 -124.5zM262 0l1065 1536h62l-1065 -1536h-62zM913 266l369 531h104v-531h183v-55h-183v-211h-63v211h-410v55zM977 266h346v502z" />
    <glyph glyph-name="questiondown" unicode="&#xbf;" horiz-adv-x="1017" 
d="M504 1044q32 0 55 -22.5t23 -54.5t-23 -54t-55 -22q-35 0 -57.5 21.5t-22.5 54.5t22.5 55t57.5 22zM86 -156q0 68 21 124.5t54.5 96t74.5 74.5t81.5 69.5t74.5 72t55.5 90.5t21.5 118v23h66v-35q0 -68 -21 -124.5t-54 -96t-73 -75t-80.5 -69t-73.5 -70t-54 -86.5
t-21 -110q0 -150 90.5 -231.5t253.5 -81.5q74 0 136.5 21t112.5 64t78.5 115.5t28.5 168.5v28h74v-43q0 -103 -34 -184.5t-93 -132t-136 -76.5t-167 -26q-198 0 -307 100t-109 276z" />
    <glyph glyph-name="Agrave" unicode="&#xc0;" horiz-adv-x="1044" 
d="M489 1679l-202 308h102l158 -308h-58zM39 0l428 1536h111l430 -1536h-74l-129 471h-563l-129 -471h-74zM260 535h526l-264 956z" />
    <glyph glyph-name="Aacute" unicode="&#xc1;" horiz-adv-x="1044" 
d="M565 1679h-57l158 308h102zM39 0l428 1536h111l430 -1536h-74l-129 471h-563l-129 -471h-74zM260 535h526l-264 956z" />
    <glyph glyph-name="Acircumflex" unicode="&#xc2;" horiz-adv-x="1044" 
d="M295 1679h-57l233 308h98l234 -308h-58l-225 252zM39 0l428 1536h111l430 -1536h-74l-129 471h-563l-129 -471h-74zM260 535h526l-264 956z" />
    <glyph glyph-name="Atilde" unicode="&#xc3;" horiz-adv-x="1044" 
d="M227 1698v102q0 170 138 170q41 0 77.5 -23.5t62.5 -57t51 -66.5t55 -56.5t63 -23.5q86 0 86 115v94h59v-103q0 -170 -139 -170q-42 0 -78.5 23.5t-62.5 56.5t-51 66t-54.5 56.5t-62.5 23.5q-84 0 -84 -113v-94h-60zM39 0l428 1536h111l430 -1536h-74l-129 471h-563
l-129 -471h-74zM260 535h526l-264 956z" />
    <glyph glyph-name="Adieresis" unicode="&#xc4;" horiz-adv-x="1044" 
d="M317 1757q-32 0 -53.5 22t-21.5 54t21.5 54t53.5 22q33 0 54.5 -21.5t21.5 -54.5t-21.5 -54.5t-54.5 -21.5zM727 1757q-32 0 -54 22t-22 54t22 54t54 22q33 0 54.5 -21.5t21.5 -54.5t-21.5 -54.5t-54.5 -21.5zM39 0l428 1536h111l430 -1536h-74l-129 471h-563l-129 -471
h-74zM260 535h526l-264 956z" />
    <glyph glyph-name="Aring" unicode="&#xc5;" horiz-adv-x="1044" 
d="M522 1618q-88 0 -143 55.5t-55 138.5q0 82 55.5 138.5t142.5 56.5q89 0 146 -57t57 -138q0 -83 -56.5 -138.5t-146.5 -55.5zM522 1667q66 0 106 41t40 104t-40 104.5t-106 41.5q-61 0 -102 -42t-41 -104t41 -103.5t102 -41.5zM39 0l428 1536h111l430 -1536h-74l-129 471
h-563l-129 -471h-74zM260 535h526l-264 956z" />
    <glyph glyph-name="AE" unicode="&#xc6;" horiz-adv-x="1597" 
d="M1481 66v-66h-635v471h-514l-236 -471h-78l777 1536h686v-66h-563v-641h522v-65h-522v-698h563zM365 535h481v960z" />
    <glyph glyph-name="Ccedilla" unicode="&#xc7;" horiz-adv-x="1167" 
d="M797 -326q0 -79 -57.5 -132.5t-155.5 -53.5q-93 0 -152 48.5t-59 119.5h55q6 -59 48 -89t108 -30q72 0 113.5 38.5t41.5 98.5q0 62 -39.5 101t-103.5 39q-88 0 -145 -70h-66l166 236q-188 11 -290.5 136.5t-102.5 360.5v582q0 246 111.5 371.5t314.5 125.5t314.5 -125.5
t111.5 -371.5v-64h-72v64q0 217 -91.5 324.5t-262.5 107.5q-169 0 -262 -108t-93 -324v-582q0 -217 92.5 -324.5t262.5 -107.5t262 107.5t92 324.5v82h72v-82q0 -238 -103.5 -363t-294.5 -134l-92 -132q38 15 78 15q89 0 144 -55.5t55 -133.5z" />
    <glyph glyph-name="Egrave" unicode="&#xc8;" horiz-adv-x="929" 
d="M473 1679l-203 308h103l157 -308h-57zM178 0v1536h635v-66h-563v-641h522v-65h-522v-698h563v-66h-635z" />
    <glyph glyph-name="Eacute" unicode="&#xc9;" horiz-adv-x="929" 
d="M549 1679h-57l157 308h103zM178 0v1536h635v-66h-563v-641h522v-65h-522v-698h563v-66h-635z" />
    <glyph glyph-name="Ecircumflex" unicode="&#xca;" horiz-adv-x="929" 
d="M279 1679h-58l234 308h98l233 -308h-57l-225 252zM178 0v1536h635v-66h-563v-641h522v-65h-522v-698h563v-66h-635z" />
    <glyph glyph-name="Edieresis" unicode="&#xcb;" horiz-adv-x="929" 
d="M301 1757q-32 0 -54 22t-22 54t22 54t54 22q33 0 54.5 -21.5t21.5 -54.5t-21.5 -54.5t-54.5 -21.5zM711 1757q-32 0 -54 22t-22 54t22 54t54 22q33 0 54 -21.5t21 -54.5t-21 -54.5t-54 -21.5zM178 0v1536h635v-66h-563v-641h522v-65h-522v-698h563v-66h-635z" />
    <glyph glyph-name="Igrave" unicode="&#xcc;" horiz-adv-x="428" 
d="M180 1679l-203 308h103l158 -308h-58zM250 0h-72v1536h72v-1536z" />
    <glyph glyph-name="Iacute" unicode="&#xcd;" horiz-adv-x="428" 
d="M256 1679h-57l157 308h103zM250 0h-72v1536h72v-1536z" />
    <glyph glyph-name="Icircumflex" unicode="&#xce;" horiz-adv-x="428" 
d="M-14 1679h-58l234 308h98l234 -308h-58l-225 252zM250 0h-72v1536h72v-1536z" />
    <glyph glyph-name="Idieresis" unicode="&#xcf;" horiz-adv-x="428" 
d="M8 1757q-32 0 -54 22t-22 54t22 54t54 22q33 0 54.5 -21.5t21.5 -54.5t-21.5 -54.5t-54.5 -21.5zM418 1757q-32 0 -54 22t-22 54t22 54t54 22q33 0 54.5 -21.5t21.5 -54.5t-21.5 -54.5t-54.5 -21.5zM250 0h-72v1536h72v-1536z" />
    <glyph glyph-name="Eth" unicode="&#xd0;" horiz-adv-x="1167" 
d="M1010 512q0 -512 -461 -512h-371v770h-178v53h178v713h371q461 0 461 -512v-512zM250 66h299q389 0 389 446v512q0 232 -99 339t-290 107h-299v-647h328v-53h-328v-704z" />
    <glyph glyph-name="Ntilde" unicode="&#xd1;" horiz-adv-x="1208" 
d="M309 1698v102q0 170 137 170q41 0 77.5 -23.5t63 -57t51.5 -66.5t55 -56.5t63 -23.5q86 0 86 115v94h59v-103q0 -170 -139 -170q-42 0 -78.5 23.5t-62.5 56.5t-51 66t-54.5 56.5t-62.5 23.5q-84 0 -84 -113v-94h-60zM1030 1536v-1536h-121l-661 1495v-1495h-70v1536h125
l660 -1489v1489h67z" />
    <glyph glyph-name="Ograve" unicode="&#xd2;" horiz-adv-x="1167" 
d="M551 1679l-203 308h103l157 -308h-57zM584 -20q-203 0 -314.5 125.5t-111.5 371.5v582q0 246 111.5 371.5t314.5 125.5t314.5 -125.5t111.5 -371.5v-582q0 -246 -111.5 -371.5t-314.5 -125.5zM584 45q170 0 262 107.5t92 324.5v582q0 217 -91.5 324.5t-262.5 107.5
q-169 0 -262 -108t-93 -324v-582q0 -217 92.5 -324.5t262.5 -107.5z" />
    <glyph glyph-name="Oacute" unicode="&#xd3;" horiz-adv-x="1167" 
d="M627 1679h-58l158 308h102zM584 -20q-203 0 -314.5 125.5t-111.5 371.5v582q0 246 111.5 371.5t314.5 125.5t314.5 -125.5t111.5 -371.5v-582q0 -246 -111.5 -371.5t-314.5 -125.5zM584 45q170 0 262 107.5t92 324.5v582q0 217 -91.5 324.5t-262.5 107.5
q-169 0 -262 -108t-93 -324v-582q0 -217 92.5 -324.5t262.5 -107.5z" />
    <glyph glyph-name="Ocircumflex" unicode="&#xd4;" horiz-adv-x="1167" 
d="M356 1679h-57l233 308h99l233 -308h-57l-225 252zM584 -20q-203 0 -314.5 125.5t-111.5 371.5v582q0 246 111.5 371.5t314.5 125.5t314.5 -125.5t111.5 -371.5v-582q0 -246 -111.5 -371.5t-314.5 -125.5zM584 45q170 0 262 107.5t92 324.5v582q0 217 -91.5 324.5
t-262.5 107.5q-169 0 -262 -108t-93 -324v-582q0 -217 92.5 -324.5t262.5 -107.5z" />
    <glyph glyph-name="Otilde" unicode="&#xd5;" horiz-adv-x="1167" 
d="M289 1698v102q0 170 137 170q41 0 77.5 -23.5t62.5 -57t51 -66.5t55 -56.5t63 -23.5q86 0 86 115v94h60v-103q0 -170 -140 -170q-42 0 -78.5 23.5t-62.5 56.5t-51 66t-54.5 56.5t-62.5 23.5q-84 0 -84 -113v-94h-59zM584 -20q-203 0 -314.5 125.5t-111.5 371.5v582
q0 246 111.5 371.5t314.5 125.5t314.5 -125.5t111.5 -371.5v-582q0 -246 -111.5 -371.5t-314.5 -125.5zM584 45q170 0 262 107.5t92 324.5v582q0 217 -91.5 324.5t-262.5 107.5q-169 0 -262 -108t-93 -324v-582q0 -217 92.5 -324.5t262.5 -107.5z" />
    <glyph glyph-name="Odieresis" unicode="&#xd6;" horiz-adv-x="1167" 
d="M379 1757q-32 0 -54 22t-22 54t22 54t54 22q33 0 54.5 -21.5t21.5 -54.5t-21.5 -54.5t-54.5 -21.5zM788 1757q-32 0 -53.5 22t-21.5 54t21.5 54t53.5 22q33 0 54.5 -21.5t21.5 -54.5t-21.5 -54.5t-54.5 -21.5zM584 -20q-203 0 -314.5 125.5t-111.5 371.5v582
q0 246 111.5 371.5t314.5 125.5t314.5 -125.5t111.5 -371.5v-582q0 -246 -111.5 -371.5t-314.5 -125.5zM584 45q170 0 262 107.5t92 324.5v582q0 217 -91.5 324.5t-262.5 107.5q-169 0 -262 -108t-93 -324v-582q0 -217 92.5 -324.5t262.5 -107.5z" />
    <glyph glyph-name="multiply" unicode="&#xd7;" 
d="M883 342l-41 -41l-279 281l-270 -271l-39 39l270 271l-280 278l41 41l280 -278l269 268l38 -39l-268 -268z" />
    <glyph glyph-name="Oslash" unicode="&#xd8;" horiz-adv-x="1167" 
d="M1010 477q0 -245 -111.5 -371t-310.5 -126q-228 0 -326 151l-74 -131h-65l100 182q-65 109 -65 295v582q0 245 111.5 371t310.5 126q227 0 325 -151l74 131h65l-100 -182q66 -111 66 -295v-582zM229 477q0 -133 35 -223l608 1092q-87 145 -288 145q-170 0 -262.5 -107.5
t-92.5 -324.5v-582zM938 1059q0 133 -35 223l-608 -1092q87 -145 289 -145q170 0 262 107.5t92 324.5v582z" />
    <glyph glyph-name="Ugrave" unicode="&#xd9;" horiz-adv-x="1167" 
d="M551 1679l-203 308h103l157 -308h-57zM168 1536h72v-1090q0 -401 344 -401t344 401v1090h71v-1090q0 -466 -415 -466q-416 0 -416 466v1090z" />
    <glyph glyph-name="Uacute" unicode="&#xda;" horiz-adv-x="1167" 
d="M627 1679h-58l158 308h102zM168 1536h72v-1090q0 -401 344 -401t344 401v1090h71v-1090q0 -466 -415 -466q-416 0 -416 466v1090z" />
    <glyph glyph-name="Ucircumflex" unicode="&#xdb;" horiz-adv-x="1167" 
d="M356 1679h-57l233 308h99l233 -308h-57l-225 252zM168 1536h72v-1090q0 -401 344 -401t344 401v1090h71v-1090q0 -466 -415 -466q-416 0 -416 466v1090z" />
    <glyph glyph-name="Udieresis" unicode="&#xdc;" horiz-adv-x="1167" 
d="M379 1757q-32 0 -54 22t-22 54t22 54t54 22q33 0 54.5 -21.5t21.5 -54.5t-21.5 -54.5t-54.5 -21.5zM788 1757q-32 0 -53.5 22t-21.5 54t21.5 54t53.5 22q33 0 54.5 -21.5t21.5 -54.5t-21.5 -54.5t-54.5 -21.5zM168 1536h72v-1090q0 -401 344 -401t344 401v1090h71v-1090
q0 -466 -415 -466q-416 0 -416 466v1090z" />
    <glyph glyph-name="Yacute" unicode="&#xdd;" horiz-adv-x="983" 
d="M535 1679h-58l158 308h102zM975 1536l-447 -899v-637h-71v633l-449 903h74l410 -831l409 831h74z" />
    <glyph glyph-name="Thorn" unicode="&#xde;" horiz-adv-x="1085" 
d="M575 418h-325v-418h-72v1536h72v-242h325q178 0 288 -98.5t110 -277.5v-103q0 -188 -110.5 -292.5t-287.5 -104.5zM555 1229h-305v-746h305q164 0 255 86.5t91 266.5v61q0 332 -346 332z" />
    <glyph glyph-name="germandbls" unicode="&#xdf;" horiz-adv-x="1257" 
d="M330 1204v-1204h-72v961h-217v63h217v182q0 174 93 262t247 88q148 0 244 -83.5t96 -215.5q0 -83 -43 -147t-117 -100q174 -37 282.5 -172t108.5 -326q0 -224 -143.5 -368t-363.5 -144h-82v63h82q188 0 312 125t124 324t-124 324t-312 125h-82v63h36q110 0 181 64t71 169
t-76 170.5t-194 65.5q-123 0 -195.5 -70.5t-72.5 -218.5z" />
    <glyph glyph-name="agrave" unicode="&#xe0;" 
d="M530 1229l-202 307h102l158 -307h-58zM889 0v233q-51 -124 -164 -188.5t-244 -64.5q-160 0 -261 71.5t-101 206.5q0 72 26.5 124t71 80.5t102 46t121.5 25.5t128 14t121.5 16t102 27.5t71 52.5t26.5 87q0 123 -90.5 187.5t-237.5 64.5q-154 0 -248 -74.5t-94 -214.5h-69
q0 74 22.5 133.5t60.5 99.5t91 66.5t112 38.5t125 12q81 0 150.5 -17.5t126.5 -53.5t90 -98t33 -144v-731h-72zM190 260q0 -107 80.5 -163t218.5 -56q104 0 193.5 42.5t148 131t58.5 207.5v168q-33 -34 -90 -54.5t-120.5 -29t-133.5 -15.5t-132 -19t-112.5 -34t-80.5 -67
t-30 -111z" />
    <glyph glyph-name="aacute" unicode="&#xe1;" 
d="M604 1229h-57l158 307h102zM889 0v233q-51 -124 -164 -188.5t-244 -64.5q-160 0 -261 71.5t-101 206.5q0 72 26.5 124t71 80.5t102 46t121.5 25.5t128 14t121.5 16t102 27.5t71 52.5t26.5 87q0 123 -90.5 187.5t-237.5 64.5q-154 0 -248 -74.5t-94 -214.5h-69
q0 74 22.5 133.5t60.5 99.5t91 66.5t112 38.5t125 12q81 0 150.5 -17.5t126.5 -53.5t90 -98t33 -144v-731h-72zM190 260q0 -107 80.5 -163t218.5 -56q104 0 193.5 42.5t148 131t58.5 207.5v168q-33 -34 -90 -54.5t-120.5 -29t-133.5 -15.5t-132 -19t-112.5 -34t-80.5 -67
t-30 -111z" />
    <glyph glyph-name="acircumflex" unicode="&#xe2;" 
d="M336 1229h-57l233 307h98l234 -307h-58l-225 252zM889 0v233q-51 -124 -164 -188.5t-244 -64.5q-160 0 -261 71.5t-101 206.5q0 72 26.5 124t71 80.5t102 46t121.5 25.5t128 14t121.5 16t102 27.5t71 52.5t26.5 87q0 123 -90.5 187.5t-237.5 64.5q-154 0 -248 -74.5
t-94 -214.5h-69q0 74 22.5 133.5t60.5 99.5t91 66.5t112 38.5t125 12q81 0 150.5 -17.5t126.5 -53.5t90 -98t33 -144v-731h-72zM190 260q0 -107 80.5 -163t218.5 -56q104 0 193.5 42.5t148 131t58.5 207.5v168q-33 -34 -90 -54.5t-120.5 -29t-133.5 -15.5t-132 -19
t-112.5 -34t-80.5 -67t-30 -111z" />
    <glyph glyph-name="atilde" unicode="&#xe3;" 
d="M266 1247v103q0 170 137 170q41 0 77.5 -23.5t63 -57t51.5 -67t55 -57t63 -23.5q86 0 86 115v94h59v-102q0 -170 -139 -170q-42 0 -78.5 23t-62.5 56.5t-51 66.5t-54.5 56t-62.5 23q-84 0 -84 -113v-94h-60zM889 0v233q-51 -124 -164 -188.5t-244 -64.5q-160 0 -261 71.5
t-101 206.5q0 72 26.5 124t71 80.5t102 46t121.5 25.5t128 14t121.5 16t102 27.5t71 52.5t26.5 87q0 123 -90.5 187.5t-237.5 64.5q-154 0 -248 -74.5t-94 -214.5h-69q0 74 22.5 133.5t60.5 99.5t91 66.5t112 38.5t125 12q81 0 150.5 -17.5t126.5 -53.5t90 -98t33 -144v-731
h-72zM190 260q0 -107 80.5 -163t218.5 -56q104 0 193.5 42.5t148 131t58.5 207.5v168q-33 -34 -90 -54.5t-120.5 -29t-133.5 -15.5t-132 -19t-112.5 -34t-80.5 -67t-30 -111z" />
    <glyph glyph-name="adieresis" unicode="&#xe4;" 
d="M356 1307q-32 0 -53.5 21.5t-21.5 53.5t21.5 54t53.5 22q33 0 54.5 -21.5t21.5 -54.5q0 -32 -21 -53.5t-55 -21.5zM766 1307q-32 0 -54 21.5t-22 53.5t22 54t54 22q33 0 54.5 -21.5t21.5 -54.5q0 -32 -21 -53.5t-55 -21.5zM889 0v233q-51 -124 -164 -188.5t-244 -64.5
q-160 0 -261 71.5t-101 206.5q0 72 26.5 124t71 80.5t102 46t121.5 25.5t128 14t121.5 16t102 27.5t71 52.5t26.5 87q0 123 -90.5 187.5t-237.5 64.5q-154 0 -248 -74.5t-94 -214.5h-69q0 74 22.5 133.5t60.5 99.5t91 66.5t112 38.5t125 12q81 0 150.5 -17.5t126.5 -53.5
t90 -98t33 -144v-731h-72zM190 260q0 -107 80.5 -163t218.5 -56q104 0 193.5 42.5t148 131t58.5 207.5v168q-33 -34 -90 -54.5t-120.5 -29t-133.5 -15.5t-132 -19t-112.5 -34t-80.5 -67t-30 -111z" />
    <glyph glyph-name="aring" unicode="&#xe5;" 
d="M561 1167q-88 0 -143.5 56t-55.5 139q0 81 56 137.5t143 56.5q89 0 146 -56.5t57 -137.5q0 -83 -57 -139t-146 -56zM561 1217q66 0 106 41t40 104t-40 104t-106 41q-61 0 -102 -41.5t-41 -103.5t41 -103.5t102 -41.5zM889 0v233q-51 -124 -164 -188.5t-244 -64.5
q-160 0 -261 71.5t-101 206.5q0 72 26.5 124t71 80.5t102 46t121.5 25.5t128 14t121.5 16t102 27.5t71 52.5t26.5 87q0 123 -90.5 187.5t-237.5 64.5q-154 0 -248 -74.5t-94 -214.5h-69q0 74 22.5 133.5t60.5 99.5t91 66.5t112 38.5t125 12q81 0 150.5 -17.5t126.5 -53.5
t90 -98t33 -144v-731h-72zM190 260q0 -107 80.5 -163t218.5 -56q104 0 193.5 42.5t148 131t58.5 207.5v168q-33 -34 -90 -54.5t-120.5 -29t-133.5 -15.5t-132 -19t-112.5 -34t-80.5 -67t-30 -111z" />
    <glyph glyph-name="ae" unicode="&#xe6;" horiz-adv-x="1959" 
d="M1872 512q0 -5 -1 -14t-1 -15h-909q9 -199 125.5 -319.5t295.5 -120.5q133 0 236 71t147 193h78q-51 -151 -175 -239t-288 -88q-158 0 -278 85t-174 232q-26 -105 -97 -178.5t-159 -106t-187 -32.5q-162 0 -264 71.5t-102 206.5q0 72 26.5 124t71 80.5t102 46t121.5 25.5
t128 14t121.5 16t102 27.5t71 52.5t26.5 87q0 123 -90.5 187.5t-237.5 64.5q-154 0 -248 -74.5t-94 -214.5h-69q0 74 22.5 133.5t60.5 99.5t90.5 66.5t110.5 38.5t123 12q100 0 181.5 -25.5t140.5 -86t71 -150.5q62 123 174.5 192.5t255.5 69.5q213 0 352.5 -149t139.5 -383
zM1380 981q-178 0 -294 -121t-125 -319h839q-9 198 -125.5 319t-294.5 121zM190 260q0 -107 80.5 -163t218.5 -56q104 0 193.5 42.5t148 131t58.5 207.5v168q-33 -34 -90 -54.5t-120.5 -29t-133.5 -15.5t-132 -19t-112.5 -34t-80.5 -67t-30 -111z" />
    <glyph glyph-name="ccedilla" unicode="&#xe7;" horiz-adv-x="1171" 
d="M799 -326q0 -79 -57.5 -132.5t-155.5 -53.5q-93 0 -152 48.5t-59 119.5h55q6 -59 48 -89t108 -30q72 0 113.5 38.5t41.5 98.5q0 62 -39.5 101t-103.5 39q-88 0 -145 -70h-66l166 236q-202 12 -332.5 160t-130.5 372q0 233 140.5 382.5t355.5 149.5q192 0 329 -118.5
t160 -309.5h-74q-23 165 -138.5 264t-276.5 99q-184 0 -304 -129.5t-120 -337.5t120 -337.5t304 -129.5q166 0 284.5 105.5t133.5 279.5h75q-17 -192 -147 -315.5t-318 -134.5l-92 -132q38 15 78 15q89 0 144 -55.5t55 -133.5z" />
    <glyph glyph-name="egrave" unicode="&#xe8;" horiz-adv-x="1159" 
d="M549 1229l-203 307h103l157 -307h-57zM1071 512q0 -5 -1 -14t-1 -15h-909q9 -199 126 -319.5t296 -120.5q133 0 236 71t147 193h77q-51 -151 -174.5 -239t-287.5 -88q-213 0 -351.5 149t-138.5 383t138.5 383t351.5 149t352 -149t139 -383zM580 981q-178 0 -294.5 -121
t-125.5 -319h839q-9 198 -125 319t-294 121z" />
    <glyph glyph-name="eacute" unicode="&#xe9;" horiz-adv-x="1159" 
d="M623 1229h-58l158 307h102zM1071 512q0 -5 -1 -14t-1 -15h-909q9 -199 126 -319.5t296 -120.5q133 0 236 71t147 193h77q-51 -151 -174.5 -239t-287.5 -88q-213 0 -351.5 149t-138.5 383t138.5 383t351.5 149t352 -149t139 -383zM580 981q-178 0 -294.5 -121t-125.5 -319
h839q-9 198 -125 319t-294 121z" />
    <glyph glyph-name="ecircumflex" unicode="&#xea;" horiz-adv-x="1159" 
d="M354 1229h-57l233 307h99l233 -307h-57l-225 252zM1071 512q0 -5 -1 -14t-1 -15h-909q9 -199 126 -319.5t296 -120.5q133 0 236 71t147 193h77q-51 -151 -174.5 -239t-287.5 -88q-213 0 -351.5 149t-138.5 383t138.5 383t351.5 149t352 -149t139 -383zM580 981
q-178 0 -294.5 -121t-125.5 -319h839q-9 198 -125 319t-294 121z" />
    <glyph glyph-name="edieresis" unicode="&#xeb;" horiz-adv-x="1159" 
d="M375 1307q-32 0 -54 21.5t-22 53.5t22 54t54 22q33 0 54.5 -21.5t21.5 -54.5q0 -32 -21.5 -53.5t-54.5 -21.5zM784 1307q-32 0 -53.5 21.5t-21.5 53.5t21.5 54t53.5 22q33 0 54.5 -21.5t21.5 -54.5q0 -32 -21 -53.5t-55 -21.5zM1071 512q0 -5 -1 -14t-1 -15h-909
q9 -199 126 -319.5t296 -120.5q133 0 236 71t147 193h77q-51 -151 -174.5 -239t-287.5 -88q-213 0 -351.5 149t-138.5 383t138.5 383t351.5 149t352 -149t139 -383zM580 981q-178 0 -294.5 -121t-125.5 -319h839q-9 198 -125 319t-294 121z" />
    <glyph glyph-name="igrave" unicode="&#xec;" horiz-adv-x="428" 
d="M182 1229l-202 307h102l158 -307h-58zM250 0h-72v1024h72v-1024z" />
    <glyph glyph-name="iacute" unicode="&#xed;" horiz-adv-x="428" 
d="M256 1229h-57l157 307h103zM250 0h-72v1024h72v-1024z" />
    <glyph glyph-name="icircumflex" unicode="&#xee;" horiz-adv-x="428" 
d="M-12 1229h-58l234 307h98l234 -307h-58l-225 252zM250 0h-72v1024h72v-1024z" />
    <glyph glyph-name="idieresis" unicode="&#xef;" horiz-adv-x="428" 
d="M8 1307q-32 0 -54 21.5t-22 53.5t22 54t54 22q33 0 54.5 -21.5t21.5 -54.5q0 -32 -21 -53.5t-55 -21.5zM418 1307q-32 0 -54 21.5t-22 53.5t22 54t54 22q33 0 54.5 -21.5t21.5 -54.5q0 -32 -21 -53.5t-55 -21.5zM250 0h-72v1024h72v-1024z" />
    <glyph glyph-name="eth" unicode="&#xf0;" horiz-adv-x="1177" 
d="M1096 670q0 -149 -26 -266.5t-71.5 -196t-110 -130.5t-138 -74.5t-158.5 -22.5q-210 0 -348 138t-138 353q0 218 132.5 355t349.5 137q159 0 277.5 -92t156.5 -242v43q0 405 -201 622l-307 -252h-84l352 289q-155 137 -372 137q-61 0 -115 -10v66q78 12 119 12
q243 0 422 -162l196 162h84l-244 -199q224 -242 224 -667zM592 45q175 0 289 118t114 308t-114 308t-289 118q-180 0 -297 -118t-117 -308t117 -308t297 -118z" />
    <glyph glyph-name="ntilde" unicode="&#xf1;" horiz-adv-x="1198" 
d="M317 1247v103q0 170 138 170q41 0 77.5 -23.5t62.5 -57t51 -67t55 -57t63 -23.5q86 0 86 115v94h59v-102q0 -170 -139 -170q-42 0 -78.5 23t-62.5 56.5t-51 66.5t-54.5 56t-62.5 23q-84 0 -84 -113v-94h-60zM250 543v-543h-72v1024h72v-227q44 125 139 186t227 61
q92 0 166 -27.5t130.5 -84.5t87 -151t30.5 -220v-561h-72v543q0 221 -93 329.5t-261 108.5t-261 -108.5t-93 -329.5z" />
    <glyph glyph-name="ograve" unicode="&#xf2;" horiz-adv-x="1187" 
d="M563 1229l-203 307h103l158 -307h-58zM594 -20q-218 0 -361 149.5t-143 382.5t143 382.5t361 149.5t362 -149.5t144 -382.5t-144 -382.5t-362 -149.5zM594 45q187 0 310.5 129.5t123.5 337.5t-123.5 337.5t-310.5 129.5t-309.5 -129.5t-122.5 -337.5t122.5 -337.5
t309.5 -129.5z" />
    <glyph glyph-name="oacute" unicode="&#xf3;" horiz-adv-x="1187" 
d="M637 1229h-57l157 307h103zM594 -20q-218 0 -361 149.5t-143 382.5t143 382.5t361 149.5t362 -149.5t144 -382.5t-144 -382.5t-362 -149.5zM594 45q187 0 310.5 129.5t123.5 337.5t-123.5 337.5t-310.5 129.5t-309.5 -129.5t-122.5 -337.5t122.5 -337.5t309.5 -129.5z
" />
    <glyph glyph-name="ocircumflex" unicode="&#xf4;" horiz-adv-x="1187" 
d="M369 1229h-58l234 307h98l234 -307h-58l-225 252zM594 -20q-218 0 -361 149.5t-143 382.5t143 382.5t361 149.5t362 -149.5t144 -382.5t-144 -382.5t-362 -149.5zM594 45q187 0 310.5 129.5t123.5 337.5t-123.5 337.5t-310.5 129.5t-309.5 -129.5t-122.5 -337.5
t122.5 -337.5t309.5 -129.5z" />
    <glyph glyph-name="otilde" unicode="&#xf5;" horiz-adv-x="1187" 
d="M299 1247v103q0 170 137 170q41 0 77.5 -23.5t62.5 -57t51 -67t55 -57t63 -23.5q86 0 86 115v94h60v-102q0 -170 -139 -170q-42 0 -78.5 23t-63 56.5t-51 66.5t-54.5 56t-63 23q-84 0 -84 -113v-94h-59zM594 -20q-218 0 -361 149.5t-143 382.5t143 382.5t361 149.5
t362 -149.5t144 -382.5t-144 -382.5t-362 -149.5zM594 45q187 0 310.5 129.5t123.5 337.5t-123.5 337.5t-310.5 129.5t-309.5 -129.5t-122.5 -337.5t122.5 -337.5t309.5 -129.5z" />
    <glyph glyph-name="odieresis" unicode="&#xf6;" horiz-adv-x="1187" 
d="M389 1307q-32 0 -54 21.5t-22 53.5t22 54t54 22q33 0 54.5 -21.5t21.5 -54.5q0 -32 -21.5 -53.5t-54.5 -21.5zM799 1307q-32 0 -54 21.5t-22 53.5t22 54t54 22q33 0 54 -21.5t21 -54.5t-21 -54t-54 -21zM594 -20q-218 0 -361 149.5t-143 382.5t143 382.5t361 149.5
t362 -149.5t144 -382.5t-144 -382.5t-362 -149.5zM594 45q187 0 310.5 129.5t123.5 337.5t-123.5 337.5t-310.5 129.5t-309.5 -129.5t-122.5 -337.5t122.5 -337.5t309.5 -129.5z" />
    <glyph glyph-name="divide" unicode="&#xf7;" 
d="M489 942q0 31 21.5 52.5t52.5 21.5q33 0 54.5 -21.5t21.5 -52.5t-21.5 -52.5t-54.5 -21.5q-31 0 -52.5 21.5t-21.5 52.5zM154 592v57h819v-57h-819zM489 295q0 31 21.5 52.5t52.5 21.5q33 0 54.5 -21.5t21.5 -52.5t-21.5 -52.5t-54.5 -21.5q-31 0 -52.5 21.5t-21.5 52.5z
" />
    <glyph glyph-name="oslash" unicode="&#xf8;" horiz-adv-x="1187" 
d="M1100 512q0 -233 -144 -382.5t-362 -149.5q-200 0 -336 124l-94 -104h-74l131 143q-131 147 -131 369q0 233 143 382.5t361 149.5q200 0 336 -124l94 104h76l-131 -143q131 -147 131 -369zM162 512q0 -191 104 -317l617 675q-118 109 -289 109q-187 0 -309.5 -129.5
t-122.5 -337.5zM1028 512q0 192 -106 317l-617 -675q118 -109 289 -109q187 0 310.5 129.5t123.5 337.5z" />
    <glyph glyph-name="ugrave" unicode="&#xf9;" horiz-adv-x="1187" 
d="M557 1229l-203 307h103l157 -307h-57zM938 0v238q-44 -131 -138.5 -194.5t-224.5 -63.5q-185 0 -296 123.5t-111 377.5v543h72v-524q0 -230 91 -343.5t257 -113.5q168 0 259 113t91 344v524h72v-1024h-72z" />
    <glyph glyph-name="uacute" unicode="&#xfa;" horiz-adv-x="1187" 
d="M631 1229h-58l158 307h103zM938 0v238q-44 -131 -138.5 -194.5t-224.5 -63.5q-185 0 -296 123.5t-111 377.5v543h72v-524q0 -230 91 -343.5t257 -113.5q168 0 259 113t91 344v524h72v-1024h-72z" />
    <glyph glyph-name="ucircumflex" unicode="&#xfb;" horiz-adv-x="1187" 
d="M362 1229h-57l234 307h98l233 -307h-57l-225 252zM938 0v238q-44 -131 -138.5 -194.5t-224.5 -63.5q-185 0 -296 123.5t-111 377.5v543h72v-524q0 -230 91 -343.5t257 -113.5q168 0 259 113t91 344v524h72v-1024h-72z" />
    <glyph glyph-name="udieresis" unicode="&#xfc;" horiz-adv-x="1187" 
d="M383 1307q-32 0 -54 21.5t-22 53.5t22 54t54 22q33 0 54.5 -21.5t21.5 -54.5q0 -32 -21.5 -53.5t-54.5 -21.5zM793 1307q-32 0 -54 21.5t-22 53.5t22 54t54 22q33 0 54 -21.5t21 -54.5t-21 -54t-54 -21zM938 0v238q-44 -131 -138.5 -194.5t-224.5 -63.5
q-185 0 -296 123.5t-111 377.5v543h72v-524q0 -230 91 -343.5t257 -113.5q168 0 259 113t91 344v524h72v-1024h-72z" />
    <glyph glyph-name="yacute" unicode="&#xfd;" horiz-adv-x="1026" 
d="M561 1229h-57l158 307h102zM549 -145q-21 -54 -36 -89.5t-36.5 -78.5t-41.5 -70t-48 -55t-58.5 -43t-70 -25t-86.5 -10q-75 0 -139 22v64q56 -21 131 -21q53 0 94 13.5t71 36.5t58 66t49 88t49 118l-467 1153h74l430 -1061l412 1061h74z" />
    <glyph glyph-name="thorn" unicode="&#xfe;" horiz-adv-x="1259" 
d="M680 -20q-145 0 -258.5 76t-171.5 208v-776h-72v2048h72v-776q58 132 171.5 208t258.5 76q212 0 351.5 -149.5t139.5 -382.5t-139.5 -382.5t-351.5 -149.5zM674 45q184 0 305 129.5t121 337.5t-121 337.5t-305 129.5t-304 -129.5t-120 -337.5t120 -337.5t304 -129.5z" />
    <glyph glyph-name="ydieresis" unicode="&#xff;" horiz-adv-x="1026" 
d="M313 1307q-32 0 -53.5 21.5t-21.5 53.5t21.5 54t53.5 22q33 0 54.5 -21.5t21.5 -54.5q0 -32 -21.5 -53.5t-54.5 -21.5zM723 1307q-32 0 -54 21.5t-22 53.5t22 54t54 22q33 0 54.5 -21.5t21.5 -54.5q0 -32 -21.5 -53.5t-54.5 -21.5zM549 -145q-21 -54 -36 -89.5
t-36.5 -78.5t-41.5 -70t-48 -55t-58.5 -43t-70 -25t-86.5 -10q-75 0 -139 22v64q56 -21 131 -21q53 0 94 13.5t71 36.5t58 66t49 88t49 118l-467 1153h74l430 -1061l412 1061h74z" />
    <glyph glyph-name="Amacron" unicode="&#x100;" horiz-adv-x="1044" 
d="M793 1804v-55h-539v55h539zM39 0l428 1536h111l430 -1536h-74l-129 471h-563l-129 -471h-74zM260 535h526l-264 956z" />
    <glyph glyph-name="amacron" unicode="&#x101;" 
d="M831 1354v-56h-538v56h538zM889 0v233q-51 -124 -164 -188.5t-244 -64.5q-160 0 -261 71.5t-101 206.5q0 72 26.5 124t71 80.5t102 46t121.5 25.5t128 14t121.5 16t102 27.5t71 52.5t26.5 87q0 123 -90.5 187.5t-237.5 64.5q-154 0 -248 -74.5t-94 -214.5h-69
q0 74 22.5 133.5t60.5 99.5t91 66.5t112 38.5t125 12q81 0 150.5 -17.5t126.5 -53.5t90 -98t33 -144v-731h-72zM190 260q0 -107 80.5 -163t218.5 -56q104 0 193.5 42.5t148 131t58.5 207.5v168q-33 -34 -90 -54.5t-120.5 -29t-133.5 -15.5t-132 -19t-112.5 -34t-80.5 -67
t-30 -111z" />
    <glyph glyph-name="Abreve" unicode="&#x102;" horiz-adv-x="1044" 
d="M737 1987h56q0 -143 -74 -225.5t-197 -82.5q-121 0 -193.5 82.5t-72.5 225.5h55q0 -124 60.5 -187t150.5 -63q97 0 156 62t59 188zM39 0l428 1536h111l430 -1536h-74l-129 471h-563l-129 -471h-74zM260 535h526l-264 956z" />
    <glyph glyph-name="abreve" unicode="&#x103;" 
d="M776 1536h55q0 -143 -73.5 -225t-196.5 -82q-121 0 -193.5 82t-72.5 225h55q0 -124 60.5 -187t150.5 -63q97 0 156 62t59 188zM889 0v233q-51 -124 -164 -188.5t-244 -64.5q-160 0 -261 71.5t-101 206.5q0 72 26.5 124t71 80.5t102 46t121.5 25.5t128 14t121.5 16
t102 27.5t71 52.5t26.5 87q0 123 -90.5 187.5t-237.5 64.5q-154 0 -248 -74.5t-94 -214.5h-69q0 74 22.5 133.5t60.5 99.5t91 66.5t112 38.5t125 12q81 0 150.5 -17.5t126.5 -53.5t90 -98t33 -144v-731h-72zM190 260q0 -107 80.5 -163t218.5 -56q104 0 193.5 42.5t148 131
t58.5 207.5v168q-33 -34 -90 -54.5t-120.5 -29t-133.5 -15.5t-132 -19t-112.5 -34t-80.5 -67t-30 -111z" />
    <glyph glyph-name="Aogonek" unicode="&#x104;" horiz-adv-x="1044" 
d="M735 -336q0 36 13 72.5t47.5 86t58 79.5t80.5 98l-129 471h-563l-129 -471h-74l428 1536h111l430 -1536h-17q-194 -222 -194 -330q0 -69 41.5 -101t111.5 -32q66 0 107 30t47 91h61q0 -73 -60 -122.5t-155 -49.5q-98 0 -156.5 45t-58.5 133zM260 535h526l-264 956z" />
    <glyph glyph-name="aogonek" unicode="&#x105;" 
d="M692 -326q0 39 14 78t47.5 85.5t58.5 75.5t77 87v233q-51 -124 -164 -188.5t-244 -64.5q-160 0 -261 71.5t-101 206.5q0 72 26.5 124t71 80.5t102 46t121.5 25.5t128 14t121.5 16t102 27.5t71 52.5t26.5 87q0 123 -90.5 187.5t-237.5 64.5q-154 0 -248 -74.5t-94 -214.5
h-69q0 74 22.5 133.5t60.5 99.5t91 66.5t112 38.5t125 12q81 0 150.5 -17.5t126.5 -53.5t90 -98t33 -144v-731h-15q-192 -204 -192 -319q0 -74 41.5 -109t111.5 -35q65 0 106.5 30.5t47.5 90.5h61q0 -73 -61 -122.5t-156 -49.5q-97 0 -155 48t-58 140zM190 260
q0 -107 80.5 -163t218.5 -56q104 0 193.5 42.5t148 131t58.5 207.5v168q-33 -34 -90 -54.5t-120.5 -29t-133.5 -15.5t-132 -19t-112.5 -34t-80.5 -67t-30 -111z" />
    <glyph glyph-name="Cacute" unicode="&#x106;" horiz-adv-x="1167" 
d="M627 1679h-58l158 308h102zM938 559h72v-82q0 -246 -111.5 -371.5t-314.5 -125.5t-314.5 125.5t-111.5 371.5v582q0 246 111.5 371.5t314.5 125.5t314.5 -125.5t111.5 -371.5v-64h-72v64q0 217 -91.5 324.5t-262.5 107.5q-169 0 -262 -108t-93 -324v-582
q0 -217 92.5 -324.5t262.5 -107.5t262 107.5t92 324.5v82z" />
    <glyph glyph-name="cacute" unicode="&#x107;" horiz-adv-x="1171" 
d="M629 1229h-58l158 307h102zM1001 616q-23 165 -138.5 264t-276.5 99q-184 0 -304 -129.5t-120 -337.5t120 -337.5t304 -129.5q166 0 284.5 105.5t133.5 279.5h75q-17 -199 -156.5 -324.5t-336.5 -125.5q-215 0 -355.5 149.5t-140.5 382.5t140.5 382.5t355.5 149.5
q192 0 329 -118.5t160 -309.5h-74z" />
    <glyph glyph-name="Ccircumflex" unicode="&#x108;" horiz-adv-x="1167" 
d="M356 1679h-57l233 308h99l233 -308h-57l-225 252zM938 559h72v-82q0 -246 -111.5 -371.5t-314.5 -125.5t-314.5 125.5t-111.5 371.5v582q0 246 111.5 371.5t314.5 125.5t314.5 -125.5t111.5 -371.5v-64h-72v64q0 217 -91.5 324.5t-262.5 107.5q-169 0 -262 -108t-93 -324
v-582q0 -217 92.5 -324.5t262.5 -107.5t262 107.5t92 324.5v82z" />
    <glyph glyph-name="ccircumflex" unicode="&#x109;" horiz-adv-x="1171" 
d="M360 1229h-57l234 307h98l233 -307h-57l-225 252zM1001 616q-23 165 -138.5 264t-276.5 99q-184 0 -304 -129.5t-120 -337.5t120 -337.5t304 -129.5q166 0 284.5 105.5t133.5 279.5h75q-17 -199 -156.5 -324.5t-336.5 -125.5q-215 0 -355.5 149.5t-140.5 382.5
t140.5 382.5t355.5 149.5q192 0 329 -118.5t160 -309.5h-74z" />
    <glyph glyph-name="Cdotaccent" unicode="&#x10a;" horiz-adv-x="1167" 
d="M584 1755q-34 0 -56 22t-22 56t22 56t56 22q35 0 56.5 -22t21.5 -56t-21.5 -56t-56.5 -22zM938 559h72v-82q0 -246 -111.5 -371.5t-314.5 -125.5t-314.5 125.5t-111.5 371.5v582q0 246 111.5 371.5t314.5 125.5t314.5 -125.5t111.5 -371.5v-64h-72v64q0 217 -91.5 324.5
t-262.5 107.5q-169 0 -262 -108t-93 -324v-582q0 -217 92.5 -324.5t262.5 -107.5t262 107.5t92 324.5v82z" />
    <glyph glyph-name="cdotaccent" unicode="&#x10b;" horiz-adv-x="1171" 
d="M586 1305q-34 0 -56 21.5t-22 55.5t22 56t56 22q35 0 56.5 -22t21.5 -56t-21.5 -55.5t-56.5 -21.5zM1001 616q-23 165 -138.5 264t-276.5 99q-184 0 -304 -129.5t-120 -337.5t120 -337.5t304 -129.5q166 0 284.5 105.5t133.5 279.5h75q-17 -199 -156.5 -324.5
t-336.5 -125.5q-215 0 -355.5 149.5t-140.5 382.5t140.5 382.5t355.5 149.5q192 0 329 -118.5t160 -309.5h-74z" />
    <glyph glyph-name="Ccaron" unicode="&#x10c;" horiz-adv-x="1167" 
d="M864 1987l-233 -308h-99l-233 308h57l226 -252l225 252h57zM938 559h72v-82q0 -246 -111.5 -371.5t-314.5 -125.5t-314.5 125.5t-111.5 371.5v582q0 246 111.5 371.5t314.5 125.5t314.5 -125.5t111.5 -371.5v-64h-72v64q0 217 -91.5 324.5t-262.5 107.5q-169 0 -262 -108
t-93 -324v-582q0 -217 92.5 -324.5t262.5 -107.5t262 107.5t92 324.5v82z" />
    <glyph glyph-name="ccaron" unicode="&#x10d;" horiz-adv-x="1171" 
d="M868 1536l-233 -307h-98l-234 307h57l226 -252l225 252h57zM1001 616q-23 165 -138.5 264t-276.5 99q-184 0 -304 -129.5t-120 -337.5t120 -337.5t304 -129.5q166 0 284.5 105.5t133.5 279.5h75q-17 -199 -156.5 -324.5t-336.5 -125.5q-215 0 -355.5 149.5t-140.5 382.5
t140.5 382.5t355.5 149.5q192 0 329 -118.5t160 -309.5h-74z" />
    <glyph glyph-name="Dcaron" unicode="&#x10e;" horiz-adv-x="1167" 
d="M848 1987l-234 -308h-98l-233 308h57l225 -252l226 252h57zM549 1536q461 0 461 -512v-512q0 -512 -461 -512h-371v1536h371zM549 66q389 0 389 446v512q0 232 -99.5 339t-289.5 107h-299v-1404h299z" />
    <glyph glyph-name="dcaron" unicode="&#x10f;" horiz-adv-x="1259" 
d="M1010 0v264q-58 -132 -171.5 -208t-258.5 -76q-212 0 -351 149.5t-139 382.5t139 382.5t351 149.5q145 0 258.5 -76t171.5 -208v776h71v-1536h-71zM1262 1536h77l-67 -379h-45zM586 979q-184 0 -304 -129.5t-120 -337.5t120 -337.5t304 -129.5t304 129.5t120 337.5
t-120 337.5t-304 129.5z" />
    <glyph glyph-name="Dcroat" unicode="&#x110;" horiz-adv-x="1167" 
d="M1010 512q0 -512 -461 -512h-371v770h-178v53h178v713h371q461 0 461 -512v-512zM250 66h299q389 0 389 446v512q0 232 -99 339t-290 107h-299v-647h328v-53h-328v-704z" />
    <glyph glyph-name="dcroat" unicode="&#x111;" horiz-adv-x="1259" 
d="M1010 0v264q-58 -132 -171.5 -208t-258.5 -76q-211 0 -350.5 149.5t-139.5 382.5t139.5 382.5t350.5 149.5q145 0 258.5 -76t171.5 -208v506h-426v49h426v221h71v-221h179v-49h-179v-1266h-71zM586 979q-184 0 -304 -129.5t-120 -337.5t120 -337.5t304 -129.5t304 129.5
t120 337.5t-120 337.5t-304 129.5z" />
    <glyph glyph-name="Emacron" unicode="&#x112;" horiz-adv-x="929" 
d="M776 1804v-55h-538v55h538zM178 0v1536h635v-66h-563v-641h522v-65h-522v-698h563v-66h-635z" />
    <glyph glyph-name="emacron" unicode="&#x113;" horiz-adv-x="1159" 
d="M850 1354v-56h-539v56h539zM1071 512q0 -5 -1 -14t-1 -15h-909q9 -199 126 -319.5t296 -120.5q133 0 236 71t147 193h77q-51 -151 -174.5 -239t-287.5 -88q-213 0 -351.5 149t-138.5 383t138.5 383t351.5 149t352 -149t139 -383zM580 981q-178 0 -294.5 -121t-125.5 -319
h839q-9 198 -125 319t-294 121z" />
    <glyph glyph-name="Ebreve" unicode="&#x114;" horiz-adv-x="929" 
d="M721 1987h55q0 -143 -73.5 -225.5t-196.5 -82.5q-121 0 -193.5 82.5t-72.5 225.5h55q0 -124 60.5 -187t150.5 -63q97 0 156 62t59 188zM178 0v1536h635v-66h-563v-641h522v-65h-522v-698h563v-66h-635z" />
    <glyph glyph-name="ebreve" unicode="&#x115;" horiz-adv-x="1159" 
d="M795 1536h55q0 -143 -73.5 -225t-196.5 -82q-121 0 -194 82t-73 225h56q0 -124 60.5 -187t150.5 -63q97 0 156 62t59 188zM1071 512q0 -5 -1 -14t-1 -15h-909q9 -199 126 -319.5t296 -120.5q133 0 236 71t147 193h77q-51 -151 -174.5 -239t-287.5 -88q-213 0 -351.5 149
t-138.5 383t138.5 383t351.5 149t352 -149t139 -383zM580 981q-178 0 -294.5 -121t-125.5 -319h839q-9 198 -125 319t-294 121z" />
    <glyph glyph-name="Edotaccent" unicode="&#x116;" horiz-adv-x="929" 
d="M506 1755q-34 0 -56 22t-22 56t22 56t56 22q35 0 56.5 -22t21.5 -56t-21.5 -56t-56.5 -22zM178 0v1536h635v-66h-563v-641h522v-65h-522v-698h563v-66h-635z" />
    <glyph glyph-name="edotaccent" unicode="&#x117;" horiz-adv-x="1159" 
d="M580 1305q-34 0 -56 21.5t-22 55.5t22 56t56 22q35 0 56 -22t21 -56t-21 -55.5t-56 -21.5zM1071 512q0 -5 -1 -14t-1 -15h-909q9 -199 126 -319.5t296 -120.5q133 0 236 71t147 193h77q-51 -151 -174.5 -239t-287.5 -88q-213 0 -351.5 149t-138.5 383t138.5 383
t351.5 149t352 -149t139 -383zM580 981q-178 0 -294.5 -121t-125.5 -319h839q-9 198 -125 319t-294 121z" />
    <glyph glyph-name="Eogonek" unicode="&#x118;" horiz-adv-x="929" 
d="M813 66v-66h-170q-107 -123 -153 -200t-46 -130q0 -68 41.5 -100.5t112.5 -32.5q65 0 106.5 30.5t47.5 90.5h61q0 -73 -60 -122.5t-157 -49.5q-96 0 -154.5 45t-58.5 133q0 24 5.5 48t23 56t27.5 49.5t43 60.5t43.5 56t54.5 66h-402v1536h635v-66h-563v-641h522v-65h-522
v-698h563z" />
    <glyph glyph-name="eogonek" unicode="&#x119;" horiz-adv-x="1159" 
d="M1071 512q0 -5 -1 -14t-1 -15h-909q9 -199 126 -319.5t296 -120.5q133 0 236 71t147 193h77q-19 -65 -63.5 -137.5t-93 -134t-95 -123t-76.5 -124t-30 -116.5q0 -135 156 -135q65 0 107 30.5t48 90.5h56q0 -71 -59 -120.5t-152 -49.5q-97 0 -155 45t-58 133
q0 83 51.5 167t171.5 230q-125 -83 -270 -83q-213 0 -351.5 149t-138.5 383t138.5 383t351.5 149t352 -149t139 -383zM580 981q-178 0 -294.5 -121t-125.5 -319h839q-9 198 -125 319t-294 121z" />
    <glyph glyph-name="Ecaron" unicode="&#x11a;" horiz-adv-x="929" 
d="M786 1987l-233 -308h-98l-234 308h58l225 -252l225 252h57zM178 0v1536h635v-66h-563v-641h522v-65h-522v-698h563v-66h-635z" />
    <glyph glyph-name="ecaron" unicode="&#x11b;" horiz-adv-x="1159" 
d="M862 1536l-233 -307h-99l-233 307h57l226 -252l225 252h57zM1071 512q0 -5 -1 -14t-1 -15h-909q9 -199 126 -319.5t296 -120.5q133 0 236 71t147 193h77q-51 -151 -174.5 -239t-287.5 -88q-213 0 -351.5 149t-138.5 383t138.5 383t351.5 149t352 -149t139 -383zM580 981
q-178 0 -294.5 -121t-125.5 -319h839q-9 198 -125 319t-294 121z" />
    <glyph glyph-name="Gcircumflex" unicode="&#x11c;" horiz-adv-x="1177" 
d="M356 1679h-57l233 308h99l233 -308h-57l-225 252zM553 809h457v-809h-64v240q-42 -129 -137.5 -194.5t-233.5 -65.5q-199 0 -308 125.5t-109 371.5v582q0 246 111.5 371.5t314.5 125.5t314.5 -125.5t111.5 -371.5v-64h-72v64q0 217 -91.5 324.5t-262.5 107.5
q-169 0 -262 -108t-93 -324v-582q0 -217 92.5 -324.5t262.5 -107.5q168 0 261 108t93 322v268h-385v66z" />
    <glyph glyph-name="gcircumflex" unicode="&#x11d;" horiz-adv-x="1259" 
d="M358 1229h-57l234 307h98l233 -307h-57l-225 252zM1081 -35q0 -226 -134.5 -361.5t-342.5 -135.5q-190 0 -321 114.5t-156 300.5h74q28 -160 135 -254t268 -94q189 0 297.5 119t108.5 311v299q-58 -132 -171.5 -208t-258.5 -76q-212 0 -351 149.5t-139 382.5t139 382.5
t351 149.5q145 0 258.5 -76t171.5 -208v264h71v-1059zM586 45q184 0 304 129.5t120 337.5t-120 337.5t-304 129.5t-304 -129.5t-120 -337.5t120 -337.5t304 -129.5z" />
    <glyph glyph-name="Gbreve" unicode="&#x11e;" horiz-adv-x="1177" 
d="M799 1987h55q0 -143 -73.5 -225.5t-196.5 -82.5q-121 0 -194 82.5t-73 225.5h56q0 -124 60.5 -187t150.5 -63q97 0 156 62t59 188zM553 809h457v-809h-64v240q-42 -129 -137.5 -194.5t-233.5 -65.5q-199 0 -308 125.5t-109 371.5v582q0 246 111.5 371.5t314.5 125.5
t314.5 -125.5t111.5 -371.5v-64h-72v64q0 217 -91.5 324.5t-262.5 107.5q-169 0 -262 -108t-93 -324v-582q0 -217 92.5 -324.5t262.5 -107.5q168 0 261 108t93 322v268h-385v66z" />
    <glyph glyph-name="gbreve" unicode="&#x11f;" horiz-adv-x="1259" 
d="M799 1536h55q0 -143 -73.5 -225t-196.5 -82q-121 0 -194 82t-73 225h56q0 -124 60.5 -187t150.5 -63q97 0 156 62t59 188zM1081 -35q0 -226 -134.5 -361.5t-342.5 -135.5q-190 0 -321 114.5t-156 300.5h74q28 -160 135 -254t268 -94q189 0 297.5 119t108.5 311v299
q-58 -132 -171.5 -208t-258.5 -76q-212 0 -351 149.5t-139 382.5t139 382.5t351 149.5q145 0 258.5 -76t171.5 -208v264h71v-1059zM586 45q184 0 304 129.5t120 337.5t-120 337.5t-304 129.5t-304 -129.5t-120 -337.5t120 -337.5t304 -129.5z" />
    <glyph glyph-name="Gdotaccent" unicode="&#x120;" horiz-adv-x="1177" 
d="M584 1755q-34 0 -56 22t-22 56t22 56t56 22q35 0 56.5 -22t21.5 -56t-21.5 -56t-56.5 -22zM553 809h457v-809h-64v240q-42 -129 -137.5 -194.5t-233.5 -65.5q-199 0 -308 125.5t-109 371.5v582q0 246 111.5 371.5t314.5 125.5t314.5 -125.5t111.5 -371.5v-64h-72v64
q0 217 -91.5 324.5t-262.5 107.5q-169 0 -262 -108t-93 -324v-582q0 -217 92.5 -324.5t262.5 -107.5q168 0 261 108t93 322v268h-385v66z" />
    <glyph glyph-name="gdotaccent" unicode="&#x121;" horiz-adv-x="1259" 
d="M584 1305q-34 0 -56 21.5t-22 55.5t22 56t56 22q35 0 56.5 -22t21.5 -56t-21.5 -55.5t-56.5 -21.5zM1081 -35q0 -226 -134.5 -361.5t-342.5 -135.5q-190 0 -321 114.5t-156 300.5h74q28 -160 135 -254t268 -94q189 0 297.5 119t108.5 311v299q-58 -132 -171.5 -208
t-258.5 -76q-212 0 -351 149.5t-139 382.5t139 382.5t351 149.5q145 0 258.5 -76t171.5 -208v264h71v-1059zM586 45q184 0 304 129.5t120 337.5t-120 337.5t-304 129.5t-304 -129.5t-120 -337.5t120 -337.5t304 -129.5z" />
    <glyph glyph-name="Gcommaaccent" unicode="&#x122;" horiz-adv-x="1177" 
d="M553 809h457v-809h-64v240q-42 -129 -137.5 -194.5t-233.5 -65.5q-199 0 -308 125.5t-109 371.5v582q0 246 111.5 371.5t314.5 125.5t314.5 -125.5t111.5 -371.5v-64h-72v64q0 217 -91.5 324.5t-262.5 107.5q-169 0 -262 -108t-93 -324v-582q0 -217 92.5 -324.5
t262.5 -107.5q168 0 261 108t93 322v268h-385v66zM520 -430h-51l61 307h99z" />
    <glyph glyph-name="gcommaaccent" unicode="&#x123;" horiz-adv-x="1259" 
d="M643 1597h49l-61 -307h-96zM1081 -35q0 -226 -134.5 -361.5t-342.5 -135.5q-190 0 -321 114.5t-156 300.5h74q28 -160 135 -254t268 -94q189 0 297.5 119t108.5 311v299q-58 -132 -171.5 -208t-258.5 -76q-212 0 -351 149.5t-139 382.5t139 382.5t351 149.5
q145 0 258.5 -76t171.5 -208v264h71v-1059zM586 45q184 0 304 129.5t120 337.5t-120 337.5t-304 129.5t-304 -129.5t-120 -337.5t120 -337.5t304 -129.5z" />
    <glyph glyph-name="Hcircumflex" unicode="&#x124;" horiz-adv-x="1208" 
d="M377 1679h-58l234 308h98l234 -308h-58l-225 252zM958 0v764h-708v-764h-72v1536h72v-707h708v707h72v-1536h-72z" />
    <glyph glyph-name="hcircumflex" unicode="&#x125;" horiz-adv-x="1198" 
d="M385 1679h-57l233 308h98l234 -308h-57l-226 252zM250 543v-543h-72v1536h72v-739q44 125 139 186t227 61q92 0 166 -27.5t130.5 -84.5t87 -151t30.5 -220v-561h-72v543q0 221 -93 329.5t-261 108.5t-261 -108.5t-93 -329.5z" />
    <glyph glyph-name="Hbar" unicode="&#x126;" horiz-adv-x="1208" 
d="M958 0v764h-708v-764h-72v1165h-178v54h178v317h72v-317h708v317h72v-317h178v-54h-178v-1165h-72zM250 829h708v336h-708v-336z" />
    <glyph glyph-name="hbar" unicode="&#x127;" horiz-adv-x="1198" 
d="M250 543v-543h-72v1266h-178v49h178v221h72v-221h364v-49h-364v-469q44 125 139 186t227 61q92 0 166 -27.5t130.5 -84.5t87 -151t30.5 -220v-561h-72v543q0 221 -93 329.5t-261 108.5t-261 -108.5t-93 -329.5z" />
    <glyph glyph-name="Itilde" unicode="&#x128;" horiz-adv-x="428" 
d="M-82 1698v102q0 170 137 170q41 0 77.5 -23.5t63 -57t51.5 -66.5t55 -56.5t63 -23.5q86 0 86 115v94h59v-103q0 -170 -139 -170q-42 0 -78.5 23.5t-63 56.5t-51 66t-54.5 56.5t-63 23.5q-84 0 -84 -113v-94h-59zM250 0h-72v1536h72v-1536z" />
    <glyph glyph-name="itilde" unicode="&#x129;" horiz-adv-x="428" 
d="M-82 1247v103q0 170 137 170q41 0 77.5 -23.5t63 -57t51.5 -67t55 -57t63 -23.5q86 0 86 115v94h59v-102q0 -170 -139 -170q-42 0 -78.5 23t-63 56.5t-51 66.5t-54.5 56t-63 23q-84 0 -84 -113v-94h-59zM250 0h-72v1024h72v-1024z" />
    <glyph glyph-name="Imacron" unicode="&#x12a;" horiz-adv-x="428" 
d="M483 1804v-55h-538v55h538zM250 0h-72v1536h72v-1536z" />
    <glyph glyph-name="imacron" unicode="&#x12b;" horiz-adv-x="428" 
d="M483 1354v-56h-538v56h538zM250 0h-72v1024h72v-1024z" />
    <glyph glyph-name="Ibreve" unicode="&#x12c;" horiz-adv-x="428" 
d="M428 1987h55q0 -143 -73.5 -225.5t-196.5 -82.5q-121 0 -193.5 82.5t-72.5 225.5h55q0 -124 60.5 -187t150.5 -63q97 0 156 62t59 188zM250 0h-72v1536h72v-1536z" />
    <glyph glyph-name="ibreve" unicode="&#x12d;" horiz-adv-x="428" 
d="M428 1536h55q0 -143 -73.5 -225t-196.5 -82q-121 0 -193.5 82t-72.5 225h55q0 -124 60.5 -187t150.5 -63q97 0 156 62t59 188zM250 0h-72v1024h72v-1024z" />
    <glyph glyph-name="Iogonek" unicode="&#x12e;" horiz-adv-x="428" 
d="M-2 -336q0 151 190 336h-10v1536h72v-1536h-6q-101 -104 -143 -182t-42 -148q0 -68 41.5 -100.5t112.5 -32.5q66 0 108 30t48 91h61q0 -73 -61 -122.5t-156 -49.5q-98 0 -156.5 45t-58.5 133z" />
    <glyph glyph-name="iogonek" unicode="&#x12f;" horiz-adv-x="428" 
d="M215 1309q-34 0 -57 23t-23 57q0 32 23 54.5t57 22.5q33 0 55.5 -22t22.5 -55q0 -34 -22 -57t-56 -23zM-10 -336q0 36 13 73t46.5 85.5t58.5 80t80 97.5h-10v1024h72v-1024h-6q-193 -221 -193 -330q0 -68 41.5 -100.5t112.5 -32.5q66 0 106.5 30t46.5 91h62
q0 -73 -60 -122.5t-155 -49.5q-98 0 -156.5 45t-58.5 133z" />
    <glyph glyph-name="Idotaccent" unicode="&#x130;" horiz-adv-x="428" 
d="M213 1755q-34 0 -56 22t-22 56t22 56t56 22q35 0 56.5 -22t21.5 -56t-21.5 -56t-56.5 -22zM250 0h-72v1536h72v-1536z" />
    <glyph glyph-name="dotlessi" unicode="&#x131;" horiz-adv-x="428" 
d="M250 0h-72v1024h72v-1024z" />
    <glyph glyph-name="IJ" unicode="&#x132;" horiz-adv-x="1437" 
d="M250 0h-72v1536h72v-1536zM1208 1536h72v-1143q0 -201 -104.5 -307t-280.5 -106t-280.5 106t-104.5 307v117h72v-115q0 -171 86 -260.5t227 -89.5q143 0 228 89t85 261v1141z" />
    <glyph glyph-name="ij" unicode="&#x133;" horiz-adv-x="856" 
d="M215 1309q-34 0 -57 23t-23 57q0 32 23 54.5t57 22.5q33 0 55.5 -22t22.5 -55q0 -34 -22 -57t-56 -23zM643 1309q-34 0 -57 23t-23 57q0 32 23 54.5t57 22.5q33 0 55.5 -22t22.5 -55q0 -34 -22 -57t-56 -23zM250 0h-72v1024h72v-1024zM606 -276v1300h72v-1303
q0 -233 -211 -233q-53 0 -86 10v64q54 -8 80 -8q69 0 107 37.5t38 132.5z" />
    <glyph glyph-name="Jcircumflex" unicode="&#x134;" horiz-adv-x="1009" 
d="M590 1679h-58l234 308h98l234 -308h-58l-225 252zM780 1536h72v-1143q0 -201 -104.5 -307t-280.5 -106t-280.5 106t-104.5 307v117h72v-115q0 -171 86 -260.5t227 -89.5q143 0 228 89t85 261v1141z" />
    <glyph glyph-name="jcircumflex" unicode="&#x135;" horiz-adv-x="428" 
d="M-12 1229h-58l234 307h98l234 -307h-58l-225 252zM178 -276v1300h72v-1303q0 -233 -211 -233q-53 0 -86 10v64q54 -8 80 -8q69 0 107 37.5t38 132.5z" />
    <glyph glyph-name="Kcommaaccent" unicode="&#x136;" horiz-adv-x="1062" 
d="M944 0l-512 807l-182 -238v-569h-72v1536h72v-862l659 862h82l-508 -672l547 -864h-86zM477 -430h-51l61 307h99z" />
    <glyph glyph-name="kcommaaccent" unicode="&#x137;" horiz-adv-x="1042" 
d="M913 0l-454 553l-209 -213v-340h-72v1536h72v-1110l592 598h94l-418 -424l490 -600h-95zM483 -430h-51l62 307h98z" />
    <glyph glyph-name="Lacute" unicode="&#x139;" horiz-adv-x="888" 
d="M256 1679h-57l157 308h103zM817 66v-66h-639v1536h72v-1470h567z" />
    <glyph glyph-name="lacute" unicode="&#x13a;" horiz-adv-x="428" 
d="M256 1679h-57l157 308h103zM250 0h-72v1536h72v-1536z" />
    <glyph glyph-name="Lcommaaccent" unicode="&#x13b;" horiz-adv-x="888" 
d="M817 66v-66h-639v1536h72v-1470h567zM457 -430h-51l61 307h98z" />
    <glyph glyph-name="lcommaaccent" unicode="&#x13c;" horiz-adv-x="428" 
d="M250 0h-72v1536h72v-1536zM158 -430h-52l62 307h98z" />
    <glyph glyph-name="Lcaron" unicode="&#x13d;" horiz-adv-x="888" 
d="M817 66v-66h-639v1536h72v-1470h567zM492 1536h77l-67 -379h-45z" />
    <glyph glyph-name="lcaron" unicode="&#x13e;" horiz-adv-x="428" 
d="M250 0h-72v1536h72v-1536zM426 1536h78l-68 -379h-45z" />
    <glyph glyph-name="Ldot" unicode="&#x13f;" horiz-adv-x="888" 
d="M817 66v-66h-639v1536h72v-1470h567zM639 719q-34 0 -56 22t-22 56t22 55.5t56 21.5q35 0 56.5 -21.5t21.5 -55.5t-21.5 -56t-56.5 -22z" />
    <glyph glyph-name="ldot" unicode="&#x140;" horiz-adv-x="428" 
d="M250 0h-72v1536h72v-1536zM440 684q-34 0 -56 22t-22 56t22 56t56 22q35 0 56.5 -22t21.5 -56t-21.5 -56t-56.5 -22z" />
    <glyph glyph-name="Lslash" unicode="&#x141;" horiz-adv-x="888" 
d="M817 66v-66h-639v721l-178 -111v66l178 110v750h72v-705l344 213v-65l-344 -213v-700h567z" />
    <glyph glyph-name="lslash" unicode="&#x142;" horiz-adv-x="428" 
d="M428 975l-178 -137v-838h-72v782l-178 -137v70l178 137v684h72v-629l178 137v-69z" />
    <glyph glyph-name="Nacute" unicode="&#x143;" horiz-adv-x="1208" 
d="M647 1679h-57l158 308h102zM1030 1536v-1536h-121l-661 1495v-1495h-70v1536h125l660 -1489v1489h67z" />
    <glyph glyph-name="nacute" unicode="&#x144;" horiz-adv-x="1198" 
d="M655 1229h-57l158 307h102zM250 543v-543h-72v1024h72v-227q44 125 139 186t227 61q92 0 166 -27.5t130.5 -84.5t87 -151t30.5 -220v-561h-72v543q0 221 -93 329.5t-261 108.5t-261 -108.5t-93 -329.5z" />
    <glyph glyph-name="Ncommaaccent" unicode="&#x145;" horiz-adv-x="1208" 
d="M1030 1536v-1536h-121l-661 1495v-1495h-70v1536h125l660 -1489v1489h67zM549 -430h-51l61 307h98z" />
    <glyph glyph-name="ncommaaccent" unicode="&#x146;" horiz-adv-x="1198" 
d="M250 543v-543h-72v1024h72v-227q44 125 139 186t227 61q92 0 166 -27.5t130.5 -84.5t87 -151t30.5 -220v-561h-72v543q0 221 -93 329.5t-261 108.5t-261 -108.5t-93 -329.5zM557 -430h-51l61 307h99z" />
    <glyph glyph-name="Ncaron" unicode="&#x147;" horiz-adv-x="1208" 
d="M885 1987l-234 -308h-98l-234 308h58l225 -252l225 252h58zM1030 1536v-1536h-121l-661 1495v-1495h-70v1536h125l660 -1489v1489h67z" />
    <glyph glyph-name="ncaron" unicode="&#x148;" horiz-adv-x="1198" 
d="M895 1536l-233 -307h-99l-233 307h57l225 -252l226 252h57zM250 543v-543h-72v1024h72v-227q44 125 139 186t227 61q92 0 166 -27.5t130.5 -84.5t87 -151t30.5 -220v-561h-72v543q0 221 -93 329.5t-261 108.5t-261 -108.5t-93 -329.5z" />
    <glyph glyph-name="Eng" unicode="&#x14a;" horiz-adv-x="1208" 
d="M178 0v1536h125l660 -1489v1489h67v-1640q0 -114 -25 -195t-73 -127t-109.5 -66t-142.5 -20q-53 0 -86 10v64q54 -8 80 -8q65 0 115 16t90.5 53.5t62 106.5t21.5 168v102h-54l-661 1495v-1495h-70z" />
    <glyph glyph-name="eng" unicode="&#x14b;" horiz-adv-x="1198" 
d="M616 1044q92 0 166 -27.5t130.5 -84.5t87 -151t30.5 -220v-700q0 -373 -342 -373q-56 0 -94 10v64q39 -8 90 -8q63 0 110 14t85.5 47.5t58.5 95.5t20 152v680q0 221 -93 329.5t-261 108.5t-261 -108.5t-93 -329.5v-543h-72v1024h72v-227q44 125 139 186t227 61z" />
    <glyph glyph-name="Omacron" unicode="&#x14c;" horiz-adv-x="1167" 
d="M854 1804v-55h-539v55h539zM584 -20q-203 0 -314.5 125.5t-111.5 371.5v582q0 246 111.5 371.5t314.5 125.5t314.5 -125.5t111.5 -371.5v-582q0 -246 -111.5 -371.5t-314.5 -125.5zM584 45q170 0 262 107.5t92 324.5v582q0 217 -91.5 324.5t-262.5 107.5
q-169 0 -262 -108t-93 -324v-582q0 -217 92.5 -324.5t262.5 -107.5z" />
    <glyph glyph-name="omacron" unicode="&#x14d;" horiz-adv-x="1187" 
d="M864 1354v-56h-538v56h538zM594 -20q-218 0 -361 149.5t-143 382.5t143 382.5t361 149.5t362 -149.5t144 -382.5t-144 -382.5t-362 -149.5zM594 45q187 0 310.5 129.5t123.5 337.5t-123.5 337.5t-310.5 129.5t-309.5 -129.5t-122.5 -337.5t122.5 -337.5t309.5 -129.5z
" />
    <glyph glyph-name="Obreve" unicode="&#x14e;" horiz-adv-x="1167" 
d="M799 1987h55q0 -143 -73.5 -225.5t-196.5 -82.5q-121 0 -194 82.5t-73 225.5h56q0 -124 60.5 -187t150.5 -63q97 0 156 62t59 188zM584 -20q-203 0 -314.5 125.5t-111.5 371.5v582q0 246 111.5 371.5t314.5 125.5t314.5 -125.5t111.5 -371.5v-582q0 -246 -111.5 -371.5
t-314.5 -125.5zM584 45q170 0 262 107.5t92 324.5v582q0 217 -91.5 324.5t-262.5 107.5q-169 0 -262 -108t-93 -324v-582q0 -217 92.5 -324.5t262.5 -107.5z" />
    <glyph glyph-name="obreve" unicode="&#x14f;" horiz-adv-x="1187" 
d="M809 1536h55q0 -143 -73.5 -225t-196.5 -82q-121 0 -193.5 82t-72.5 225h55q0 -124 60.5 -187t150.5 -63q97 0 156 62t59 188zM594 -20q-218 0 -361 149.5t-143 382.5t143 382.5t361 149.5t362 -149.5t144 -382.5t-144 -382.5t-362 -149.5zM594 45q187 0 310.5 129.5
t123.5 337.5t-123.5 337.5t-310.5 129.5t-309.5 -129.5t-122.5 -337.5t122.5 -337.5t309.5 -129.5z" />
    <glyph glyph-name="Ohungarumlaut" unicode="&#x150;" horiz-adv-x="1167" 
d="M440 1679h-51l62 308h98zM809 1679h-51l61 308h99zM584 -20q-203 0 -314.5 125.5t-111.5 371.5v582q0 246 111.5 371.5t314.5 125.5t314.5 -125.5t111.5 -371.5v-582q0 -246 -111.5 -371.5t-314.5 -125.5zM584 45q170 0 262 107.5t92 324.5v582q0 217 -91.5 324.5
t-262.5 107.5q-169 0 -262 -108t-93 -324v-582q0 -217 92.5 -324.5t262.5 -107.5z" />
    <glyph glyph-name="ohungarumlaut" unicode="&#x151;" horiz-adv-x="1187" 
d="M451 1229h-52l62 307h98zM819 1229h-51l61 307h99zM594 -20q-218 0 -361 149.5t-143 382.5t143 382.5t361 149.5t362 -149.5t144 -382.5t-144 -382.5t-362 -149.5zM594 45q187 0 310.5 129.5t123.5 337.5t-123.5 337.5t-310.5 129.5t-309.5 -129.5t-122.5 -337.5
t122.5 -337.5t309.5 -129.5z" />
    <glyph glyph-name="OE" unicode="&#x152;" horiz-adv-x="1669" 
d="M618 0q-220 0 -340 126.5t-120 389.5v506q0 262 120 388t340 126h934v-66h-563v-641h522v-65h-522v-698h563v-66h-934zM618 1470q-389 0 -389 -452v-500q0 -236 99.5 -344t289.5 -108h300v1404h-300z" />
    <glyph glyph-name="oe" unicode="&#x153;" horiz-adv-x="2099" 
d="M2009 512v-29h-909q9 -199 126 -319.5t296 -120.5q133 0 235 71t148 193h75q-50 -151 -173 -239t-287 -88q-162 0 -285 89t-174 242q-53 -153 -177.5 -242t-289.5 -89q-218 0 -361 149.5t-143 382.5t143 382.5t361 149.5q165 0 289.5 -89t177.5 -242q51 153 174 242
t285 89q213 0 351 -149t138 -383zM1520 981q-178 0 -294.5 -121t-125.5 -319h839q-9 198 -125 319t-294 121zM594 45q187 0 310.5 129.5t123.5 337.5t-123.5 337.5t-310.5 129.5t-309.5 -129.5t-122.5 -337.5t122.5 -337.5t309.5 -129.5z" />
    <glyph glyph-name="Racute" unicode="&#x154;" 
d="M571 1679h-57l158 308h102zM178 0v1536h408q187 0 300 -92.5t113 -261.5v-62q0 -181 -117 -276.5t-304 -98.5l456 -745h-88l-446 745h-250v-745h-72zM565 1470h-315v-663h315q363 0 363 334v20q0 162 -94 235.5t-269 73.5z" />
    <glyph glyph-name="racute" unicode="&#x155;" horiz-adv-x="825" 
d="M487 1229h-57l158 307h102zM250 483v-483h-72v1024h72v-260q48 142 149.5 211t241.5 69q56 0 109 -16v-74q-52 21 -117 21q-185 0 -284 -121.5t-99 -370.5z" />
    <glyph glyph-name="Rcommaaccent" unicode="&#x156;" 
d="M178 0v1536h408q187 0 300 -92.5t113 -261.5v-62q0 -181 -117 -276.5t-304 -98.5l456 -745h-88l-446 745h-250v-745h-72zM565 1470h-315v-663h315q363 0 363 334v20q0 162 -94 235.5t-269 73.5zM500 -430h-51l61 307h98z" />
    <glyph glyph-name="rcommaaccent" unicode="&#x157;" horiz-adv-x="825" 
d="M250 483v-483h-72v1024h72v-260q48 142 149.5 211t241.5 69q56 0 109 -16v-74q-52 21 -117 21q-185 0 -284 -121.5t-99 -370.5zM158 -430h-52l62 307h98z" />
    <glyph glyph-name="Rcaron" unicode="&#x158;" 
d="M809 1987l-234 -308h-98l-233 308h57l225 -252l226 252h57zM178 0v1536h408q187 0 300 -92.5t113 -261.5v-62q0 -181 -117 -276.5t-304 -98.5l456 -745h-88l-446 745h-250v-745h-72zM565 1470h-315v-663h315q363 0 363 334v20q0 162 -94 235.5t-269 73.5z" />
    <glyph glyph-name="rcaron" unicode="&#x159;" horiz-adv-x="825" 
d="M727 1536l-233 -307h-99l-233 307h57l225 -252l226 252h57zM250 483v-483h-72v1024h72v-260q48 142 149.5 211t241.5 69q56 0 109 -16v-74q-52 21 -117 21q-185 0 -284 -121.5t-99 -370.5z" />
    <glyph glyph-name="Sacute" unicode="&#x15a;" horiz-adv-x="993" 
d="M543 1679h-58l158 308h102zM147 1212q0 175 98 259.5t255 84.5q162 0 260 -104.5t98 -304.5v-68h-72v62q0 177 -75 263.5t-211 86.5q-127 0 -204 -73.5t-77 -205.5q0 -64 20.5 -118.5t61 -99.5t82.5 -78t104 -72l121 -80q63 -41 108 -77.5t86.5 -85.5t63 -110t21.5 -133
q0 -183 -108.5 -280.5t-276.5 -97.5q-166 0 -275.5 109t-109.5 300v88h71v-74q0 -165 86 -261.5t228 -96.5q145 0 229 80.5t84 222.5q0 62 -19 115.5t-56.5 97.5t-78.5 77.5t-98 70.5l-123 77q-66 42 -112 79.5t-90.5 89.5t-67.5 116.5t-23 140.5z" />
    <glyph glyph-name="sacute" unicode="&#x15b;" horiz-adv-x="1032" 
d="M555 1229h-57l157 307h103zM915 268q0 -138 -103.5 -213t-279.5 -75q-184 0 -299.5 85t-115.5 238h73q0 -128 95 -196t247 -68q149 0 230.5 58.5t81.5 170.5q0 70 -38.5 115t-100.5 66.5t-136.5 36t-149.5 31t-137 42.5t-100.5 80t-38.5 135q0 125 100.5 197.5
t258.5 72.5q167 0 277 -83.5t110 -210.5h-74q0 101 -89 167t-224 66q-131 0 -209 -55.5t-78 -153.5q0 -52 24 -90t64.5 -59.5t93 -36.5t110.5 -26t116 -23t110.5 -32t93 -48.5t64.5 -77t24 -113.5z" />
    <glyph glyph-name="Scircumflex" unicode="&#x15c;" horiz-adv-x="993" 
d="M272 1679h-57l234 308h98l233 -308h-57l-225 252zM147 1212q0 175 98 259.5t255 84.5q162 0 260 -104.5t98 -304.5v-68h-72v62q0 177 -75 263.5t-211 86.5q-127 0 -204 -73.5t-77 -205.5q0 -64 20.5 -118.5t61 -99.5t82.5 -78t104 -72l121 -80q63 -41 108 -77.5
t86.5 -85.5t63 -110t21.5 -133q0 -183 -108.5 -280.5t-276.5 -97.5q-166 0 -275.5 109t-109.5 300v88h71v-74q0 -165 86 -261.5t228 -96.5q145 0 229 80.5t84 222.5q0 62 -19 115.5t-56.5 97.5t-78.5 77.5t-98 70.5l-123 77q-66 42 -112 79.5t-90.5 89.5t-67.5 116.5
t-23 140.5z" />
    <glyph glyph-name="scircumflex" unicode="&#x15d;" horiz-adv-x="1032" 
d="M287 1229h-58l234 307h98l234 -307h-58l-225 252zM915 268q0 -138 -103.5 -213t-279.5 -75q-184 0 -299.5 85t-115.5 238h73q0 -128 95 -196t247 -68q149 0 230.5 58.5t81.5 170.5q0 70 -38.5 115t-100.5 66.5t-136.5 36t-149.5 31t-137 42.5t-100.5 80t-38.5 135
q0 125 100.5 197.5t258.5 72.5q167 0 277 -83.5t110 -210.5h-74q0 101 -89 167t-224 66q-131 0 -209 -55.5t-78 -153.5q0 -52 24 -90t64.5 -59.5t93 -36.5t110.5 -26t116 -23t110.5 -32t93 -48.5t64.5 -77t24 -113.5z" />
    <glyph glyph-name="Scedilla" unicode="&#x15e;" horiz-adv-x="993" 
d="M715 -326q0 -79 -57.5 -132.5t-155.5 -53.5q-93 0 -152 48.5t-59 119.5h55q6 -59 48 -89t108 -30q72 0 113.5 38.5t41.5 98.5q0 62 -39.5 101t-103.5 39q-88 0 -145 -70h-66l166 238q-154 9 -253 117t-99 290v88h71v-74q0 -165 86 -261.5t228 -96.5q145 0 229 80.5
t84 222.5q0 82 -36.5 151.5t-87.5 115.5t-128 94l-123 77q-66 41 -113 79.5t-91 90t-66.5 116t-22.5 140.5q0 175 98 259.5t255 84.5q162 0 260 -104.5t98 -304.5v-68h-72v62q0 177 -75 263.5t-211 86.5q-127 0 -204 -73.5t-77 -205.5q0 -64 20.5 -118.5t61 -99.5t82.5 -78
t104 -72l121 -80q63 -41 108 -77.5t86.5 -85.5t63 -110t21.5 -133q0 -174 -99 -271.5t-258 -106.5l-92 -132q38 15 78 15q89 0 144 -55.5t55 -133.5z" />
    <glyph glyph-name="scedilla" unicode="&#x15f;" horiz-adv-x="1032" 
d="M745 -326q0 -79 -57.5 -132.5t-155.5 -53.5q-93 0 -151.5 48.5t-58.5 119.5h55q6 -59 47.5 -89t107.5 -30q72 0 114 38.5t42 98.5q0 62 -39.5 101t-103.5 39q-89 0 -146 -70h-65l166 236q-171 8 -277 93t-106 230h73q0 -126 95 -195t247 -69q149 0 230.5 58.5t81.5 170.5
q0 70 -38.5 115t-100.5 66.5t-136.5 36t-149.5 31t-137 42.5t-100.5 80t-38.5 135q0 125 100.5 197.5t258.5 72.5q167 0 277 -83.5t110 -210.5h-74q0 100 -89 166.5t-224 66.5q-131 0 -209 -55.5t-78 -153.5q0 -52 24 -90t64.5 -59.5t93 -36.5t110.5 -26t116 -23t110.5 -32
t93 -48.5t64.5 -77t24 -113.5q0 -132 -95.5 -207t-258.5 -81l-92 -132q37 15 78 15q89 0 143.5 -55.5t54.5 -133.5z" />
    <glyph glyph-name="Scaron" unicode="&#x160;" horiz-adv-x="993" 
d="M780 1987l-233 -308h-98l-234 308h57l226 -252l225 252h57zM147 1212q0 175 98 259.5t255 84.5q162 0 260 -104.5t98 -304.5v-68h-72v62q0 177 -75 263.5t-211 86.5q-127 0 -204 -73.5t-77 -205.5q0 -64 20.5 -118.5t61 -99.5t82.5 -78t104 -72l121 -80q63 -41 108 -77.5
t86.5 -85.5t63 -110t21.5 -133q0 -183 -108.5 -280.5t-276.5 -97.5q-166 0 -275.5 109t-109.5 300v88h71v-74q0 -165 86 -261.5t228 -96.5q145 0 229 80.5t84 222.5q0 62 -19 115.5t-56.5 97.5t-78.5 77.5t-98 70.5l-123 77q-66 42 -112 79.5t-90.5 89.5t-67.5 116.5
t-23 140.5z" />
    <glyph glyph-name="scaron" unicode="&#x161;" horiz-adv-x="1032" 
d="M795 1536l-234 -307h-98l-234 307h58l225 -252l225 252h58zM915 268q0 -138 -103.5 -213t-279.5 -75q-184 0 -299.5 85t-115.5 238h73q0 -128 95 -196t247 -68q149 0 230.5 58.5t81.5 170.5q0 70 -38.5 115t-100.5 66.5t-136.5 36t-149.5 31t-137 42.5t-100.5 80
t-38.5 135q0 125 100.5 197.5t258.5 72.5q167 0 277 -83.5t110 -210.5h-74q0 101 -89 167t-224 66q-131 0 -209 -55.5t-78 -153.5q0 -52 24 -90t64.5 -59.5t93 -36.5t110.5 -26t116 -23t110.5 -32t93 -48.5t64.5 -77t24 -113.5z" />
    <glyph glyph-name="Tcommaaccent" unicode="&#x162;" horiz-adv-x="888" 
d="M20 1470v66h848v-66h-387v-1470h-71v1470h-390zM389 -430h-51l61 307h99z" />
    <glyph glyph-name="tcommaaccent" unicode="&#x163;" horiz-adv-x="798" 
d="M295 350q0 -156 61 -230.5t183 -74.5q67 0 143 23v-66q-77 -22 -152 -22q-71 0 -124.5 17.5t-96 58.5t-64.5 114t-22 178v613h-182v63h182v291h72v-291h387v-63h-387v-611zM393 -430h-51l61 307h99z" />
    <glyph glyph-name="Tcaron" unicode="&#x164;" horiz-adv-x="888" 
d="M725 1987l-233 -308h-99l-233 308h57l225 -252l226 252h57zM20 1470v66h848v-66h-387v-1470h-71v1470h-390z" />
    <glyph glyph-name="tcaron" unicode="&#x165;" horiz-adv-x="798" 
d="M557 1536h78l-68 -379h-45zM295 350q0 -156 61 -230.5t183 -74.5q67 0 143 23v-66q-77 -22 -152 -22q-71 0 -124.5 17.5t-96 58.5t-64.5 114t-22 178v613h-182v63h182v291h72v-291h387v-63h-387v-611z" />
    <glyph glyph-name="Tbar" unicode="&#x166;" horiz-adv-x="888" 
d="M20 1470v66h848v-66h-387v-446h291v-53h-291v-971h-71v971h-293v53h293v446h-390z" />
    <glyph glyph-name="tbar" unicode="&#x167;" horiz-adv-x="798" 
d="M682 2q-77 -22 -152 -22q-71 0 -124.5 17.5t-96 58.5t-64.5 114t-22 178v264h-139v52h139v297h-182v63h182v291h72v-291h387v-63h-387v-297h309v-52h-309v-262q0 -157 60.5 -231t183.5 -74q67 0 143 23v-66z" />
    <glyph glyph-name="Utilde" unicode="&#x168;" horiz-adv-x="1167" 
d="M289 1698v102q0 170 137 170q41 0 77.5 -23.5t62.5 -57t51 -66.5t55 -56.5t63 -23.5q86 0 86 115v94h60v-103q0 -170 -140 -170q-42 0 -78.5 23.5t-62.5 56.5t-51 66t-54.5 56.5t-62.5 23.5q-84 0 -84 -113v-94h-59zM168 1536h72v-1090q0 -401 344 -401t344 401v1090h71
v-1090q0 -466 -415 -466q-416 0 -416 466v1090z" />
    <glyph glyph-name="utilde" unicode="&#x169;" horiz-adv-x="1187" 
d="M293 1247v103q0 170 137 170q41 0 77.5 -23.5t62.5 -57t51 -67t55 -57t63 -23.5q86 0 86 115v94h60v-102q0 -170 -140 -170q-42 0 -78.5 23t-62.5 56.5t-51 66.5t-54.5 56t-62.5 23q-84 0 -84 -113v-94h-59zM938 0v238q-44 -131 -138.5 -194.5t-224.5 -63.5
q-185 0 -296 123.5t-111 377.5v543h72v-524q0 -230 91 -343.5t257 -113.5q168 0 259 113t91 344v524h72v-1024h-72z" />
    <glyph glyph-name="Umacron" unicode="&#x16a;" horiz-adv-x="1167" 
d="M854 1804v-55h-539v55h539zM168 1536h72v-1090q0 -401 344 -401t344 401v1090h71v-1090q0 -466 -415 -466q-416 0 -416 466v1090z" />
    <glyph glyph-name="umacron" unicode="&#x16b;" horiz-adv-x="1187" 
d="M858 1354v-56h-539v56h539zM938 0v238q-44 -131 -138.5 -194.5t-224.5 -63.5q-185 0 -296 123.5t-111 377.5v543h72v-524q0 -230 91 -343.5t257 -113.5q168 0 259 113t91 344v524h72v-1024h-72z" />
    <glyph glyph-name="Ubreve" unicode="&#x16c;" horiz-adv-x="1167" 
d="M799 1987h55q0 -143 -73.5 -225.5t-196.5 -82.5q-121 0 -194 82.5t-73 225.5h56q0 -124 60.5 -187t150.5 -63q97 0 156 62t59 188zM168 1536h72v-1090q0 -401 344 -401t344 401v1090h71v-1090q0 -466 -415 -466q-416 0 -416 466v1090z" />
    <glyph glyph-name="ubreve" unicode="&#x16d;" horiz-adv-x="1187" 
d="M803 1536h55q0 -143 -73.5 -225t-196.5 -82q-121 0 -193.5 82t-72.5 225h55q0 -124 60.5 -187t150.5 -63q97 0 156 62t59 188zM938 0v238q-44 -131 -138.5 -194.5t-224.5 -63.5q-185 0 -296 123.5t-111 377.5v543h72v-524q0 -230 91 -343.5t257 -113.5q168 0 259 113
t91 344v524h72v-1024h-72z" />
    <glyph glyph-name="Uring" unicode="&#x16e;" horiz-adv-x="1167" 
d="M584 1618q-88 0 -143.5 55.5t-55.5 138.5q0 81 56 138t143 57q89 0 145.5 -57t56.5 -138q0 -83 -56.5 -138.5t-145.5 -55.5zM584 1667q66 0 105.5 41t39.5 104t-39.5 104.5t-105.5 41.5q-61 0 -102.5 -42t-41.5 -104t41.5 -103.5t102.5 -41.5zM168 1536h72v-1090
q0 -401 344 -401t344 401v1090h71v-1090q0 -466 -415 -466q-416 0 -416 466v1090z" />
    <glyph glyph-name="uring" unicode="&#x16f;" horiz-adv-x="1187" 
d="M588 1167q-88 0 -143.5 56t-55.5 139q0 81 56 137.5t143 56.5q89 0 146 -56.5t57 -137.5q0 -83 -57 -139t-146 -56zM588 1217q66 0 105.5 41t39.5 104t-39.5 104t-105.5 41q-61 0 -102.5 -41.5t-41.5 -103.5t41.5 -103.5t102.5 -41.5zM938 0v238q-44 -131 -138.5 -194.5
t-224.5 -63.5q-185 0 -296 123.5t-111 377.5v543h72v-524q0 -230 91 -343.5t257 -113.5q168 0 259 113t91 344v524h72v-1024h-72z" />
    <glyph glyph-name="Uhungarumlaut" unicode="&#x170;" horiz-adv-x="1167" 
d="M440 1679h-51l62 308h98zM809 1679h-51l61 308h99zM168 1536h72v-1090q0 -401 344 -401t344 401v1090h71v-1090q0 -466 -415 -466q-416 0 -416 466v1090z" />
    <glyph glyph-name="uhungarumlaut" unicode="&#x171;" horiz-adv-x="1187" 
d="M444 1229h-51l62 307h98zM813 1229h-51l61 307h99zM938 0v238q-44 -131 -138.5 -194.5t-224.5 -63.5q-185 0 -296 123.5t-111 377.5v543h72v-524q0 -230 91 -343.5t257 -113.5q168 0 259 113t91 344v524h72v-1024h-72z" />
    <glyph glyph-name="Uogonek" unicode="&#x172;" horiz-adv-x="1167" 
d="M799 -342q0 -73 -60 -122.5t-157 -49.5q-96 0 -154.5 45t-58.5 133q0 35 12 70t42.5 80.5t53 74.5t72.5 91q-381 19 -381 466v1090h72v-1090q0 -401 344 -401t344 401v1090h71v-1090q0 -450 -387 -466q-99 -114 -140.5 -186.5t-41.5 -123.5q0 -68 41.5 -100.5
t112.5 -32.5q65 0 106 30t47 91h62z" />
    <glyph glyph-name="uogonek" unicode="&#x173;" horiz-adv-x="1187" 
d="M741 -326q0 39 14 78t47.5 85.5t58.5 75.5t77 87v238q-44 -131 -138.5 -194.5t-224.5 -63.5q-185 0 -296 123.5t-111 377.5v543h72v-524q0 -230 91 -343.5t257 -113.5q168 0 259 113t91 344v524h72v-1024h-15q-192 -204 -192 -319q0 -74 41 -109t110 -35q66 0 108 30
t48 91h61q0 -73 -61 -122.5t-156 -49.5q-97 0 -155 48t-58 140z" />
    <glyph glyph-name="Wcircumflex" unicode="&#x174;" horiz-adv-x="1536" 
d="M541 1679h-58l234 308h98l234 -308h-58l-225 252zM1516 1536l-312 -1536h-104l-332 1477l-332 -1477h-104l-312 1536h74l291 -1468l328 1468h110l328 -1468l291 1468h74z" />
    <glyph glyph-name="wcircumflex" unicode="&#x175;" horiz-adv-x="1566" 
d="M557 1229h-57l233 307h98l234 -307h-57l-226 252zM1536 1024l-342 -1024h-82l-330 956l-329 -956h-82l-340 1024h71l310 -956l329 956h82l330 -961l311 961h72z" />
    <glyph glyph-name="Ycircumflex" unicode="&#x176;" horiz-adv-x="983" 
d="M264 1679h-57l233 308h99l233 -308h-57l-226 252zM975 1536l-447 -899v-637h-71v633l-449 903h74l410 -831l409 831h74z" />
    <glyph glyph-name="ycircumflex" unicode="&#x177;" horiz-adv-x="1026" 
d="M293 1229h-57l233 307h98l234 -307h-58l-225 252zM549 -145q-21 -54 -36 -89.5t-36.5 -78.5t-41.5 -70t-48 -55t-58.5 -43t-70 -25t-86.5 -10q-75 0 -139 22v64q56 -21 131 -21q53 0 94 13.5t71 36.5t58 66t49 88t49 118l-467 1153h74l430 -1061l412 1061h74z" />
    <glyph glyph-name="Ydieresis" unicode="&#x178;" horiz-adv-x="983" 
d="M287 1757q-32 0 -54 22t-22 54t22 54t54 22q33 0 54 -21.5t21 -54.5t-21 -54.5t-54 -21.5zM696 1757q-32 0 -53.5 22t-21.5 54t21.5 54t53.5 22q33 0 54.5 -21.5t21.5 -54.5t-21.5 -54.5t-54.5 -21.5zM975 1536l-447 -899v-637h-71v633l-449 903h74l410 -831l409 831h74z
" />
    <glyph glyph-name="Zacute" unicode="&#x179;" horiz-adv-x="901" 
d="M500 1679h-58l158 308h102zM825 66v-66h-729v96l647 1374h-637v66h699v-94l-645 -1376h665z" />
    <glyph glyph-name="zacute" unicode="&#x17a;" horiz-adv-x="962" 
d="M506 1229h-57l157 307h103zM877 63v-63h-771v94l670 867h-659v63h719v-94l-670 -867h711z" />
    <glyph glyph-name="Zdotaccent" unicode="&#x17b;" horiz-adv-x="901" 
d="M457 1755q-34 0 -56 22t-22 56t22 56t56 22q35 0 56.5 -22t21.5 -56t-21.5 -56t-56.5 -22zM825 66v-66h-729v96l647 1374h-637v66h699v-94l-645 -1376h665z" />
    <glyph glyph-name="zdotaccent" unicode="&#x17c;" horiz-adv-x="962" 
d="M463 1305q-34 0 -56 21.5t-22 55.5t22 56t56 22q35 0 56.5 -22t21.5 -56t-21.5 -55.5t-56.5 -21.5zM877 63v-63h-771v94l670 867h-659v63h719v-94l-670 -867h711z" />
    <glyph glyph-name="Zcaron" unicode="&#x17d;" horiz-adv-x="901" 
d="M737 1987l-233 -308h-98l-234 308h57l226 -252l225 252h57zM825 66v-66h-729v96l647 1374h-637v66h699v-94l-645 -1376h665z" />
    <glyph glyph-name="zcaron" unicode="&#x17e;" horiz-adv-x="962" 
d="M745 1536l-233 -307h-98l-234 307h58l225 -252l225 252h57zM877 63v-63h-771v94l670 867h-659v63h719v-94l-670 -867h711z" />
    <glyph glyph-name="florin" unicode="&#x192;" 
d="M885 729h-361l-264 -1241h-72l263 1241h-269v51h279l90 422q41 187 128 270.5t232 83.5q88 0 154 -26v-68q-55 29 -164 29q-110 0 -178 -71t-100 -224l-88 -416h350v-51z" />
    <glyph glyph-name="Aringacute" unicode="&#x1fa;" horiz-adv-x="1044" 
d="M557 2089h-57l157 307h103zM522 1618q-88 0 -143 55.5t-55 138.5q0 82 55.5 138.5t142.5 56.5q89 0 146 -57t57 -138q0 -83 -56.5 -138.5t-146.5 -55.5zM522 1667q66 0 106 41t40 104t-40 104.5t-106 41.5q-61 0 -102 -42t-41 -104t41 -103.5t102 -41.5zM39 0l428 1536
h111l430 -1536h-74l-129 471h-563l-129 -471h-74zM260 535h526l-264 956z" />
    <glyph glyph-name="aringacute" unicode="&#x1fb;" 
d="M594 1679h-57l157 308h103zM561 1167q-88 0 -143.5 56t-55.5 139q0 81 56 137.5t143 56.5q89 0 146 -56.5t57 -137.5q0 -83 -57 -139t-146 -56zM561 1217q66 0 106 41t40 104t-40 104t-106 41q-61 0 -102 -41.5t-41 -103.5t41 -103.5t102 -41.5zM889 0v233
q-51 -124 -164 -188.5t-244 -64.5q-160 0 -261 71.5t-101 206.5q0 72 26.5 124t71 80.5t102 46t121.5 25.5t128 14t121.5 16t102 27.5t71 52.5t26.5 87q0 123 -90.5 187.5t-237.5 64.5q-154 0 -248 -74.5t-94 -214.5h-69q0 74 22.5 133.5t60.5 99.5t91 66.5t112 38.5t125 12
q81 0 150.5 -17.5t126.5 -53.5t90 -98t33 -144v-731h-72zM190 260q0 -107 80.5 -163t218.5 -56q104 0 193.5 42.5t148 131t58.5 207.5v168q-33 -34 -90 -54.5t-120.5 -29t-133.5 -15.5t-132 -19t-112.5 -34t-80.5 -67t-30 -111z" />
    <glyph glyph-name="AEacute" unicode="&#x1fc;" horiz-adv-x="1597" 
d="M924 1679h-58l158 308h102zM1481 66v-66h-635v471h-514l-236 -471h-78l777 1536h686v-66h-563v-641h522v-65h-522v-698h563zM365 535h481v960z" />
    <glyph glyph-name="aeacute" unicode="&#x1fd;" horiz-adv-x="1959" 
d="M981 1229h-57l157 307h103zM1872 512q0 -5 -1 -14t-1 -15h-909q9 -199 125.5 -319.5t295.5 -120.5q133 0 236 71t147 193h78q-51 -151 -175 -239t-288 -88q-158 0 -278 85t-174 232q-26 -105 -97 -178.5t-159 -106t-187 -32.5q-162 0 -264 71.5t-102 206.5q0 72 26.5 124
t71 80.5t102 46t121.5 25.5t128 14t121.5 16t102 27.5t71 52.5t26.5 87q0 123 -90.5 187.5t-237.5 64.5q-154 0 -248 -74.5t-94 -214.5h-69q0 74 22.5 133.5t60.5 99.5t90.5 66.5t110.5 38.5t123 12q100 0 181.5 -25.5t140.5 -86t71 -150.5q62 123 174.5 192.5t255.5 69.5
q213 0 352.5 -149t139.5 -383zM1380 981q-178 0 -294 -121t-125 -319h839q-9 198 -125.5 319t-294.5 121zM190 260q0 -107 80.5 -163t218.5 -56q104 0 193.5 42.5t148 131t58.5 207.5v168q-33 -34 -90 -54.5t-120.5 -29t-133.5 -15.5t-132 -19t-112.5 -34t-80.5 -67
t-30 -111z" />
    <glyph glyph-name="Oslashacute" unicode="&#x1fe;" horiz-adv-x="1167" 
d="M627 1679h-58l158 308h102zM1010 477q0 -245 -111.5 -371t-310.5 -126q-228 0 -326 151l-74 -131h-65l100 182q-65 109 -65 295v582q0 245 111.5 371t310.5 126q227 0 325 -151l74 131h65l-100 -182q66 -111 66 -295v-582zM229 477q0 -133 35 -223l608 1092
q-87 145 -288 145q-170 0 -262.5 -107.5t-92.5 -324.5v-582zM938 1059q0 133 -35 223l-608 -1092q87 -145 289 -145q170 0 262 107.5t92 324.5v582z" />
    <glyph glyph-name="oslashacute" unicode="&#x1ff;" horiz-adv-x="1187" 
d="M637 1229h-57l157 307h103zM1100 512q0 -233 -144 -382.5t-362 -149.5q-200 0 -336 124l-94 -104h-74l131 143q-131 147 -131 369q0 233 143 382.5t361 149.5q200 0 336 -124l94 104h76l-131 -143q131 -147 131 -369zM162 512q0 -191 104 -317l617 675q-118 109 -289 109
q-187 0 -309.5 -129.5t-122.5 -337.5zM1028 512q0 192 -106 317l-617 -675q118 -109 289 -109q187 0 310.5 129.5t123.5 337.5z" />
    <glyph glyph-name="Scommaaccent" unicode="&#x218;" horiz-adv-x="993" 
d="M147 1212q0 175 98 259.5t255 84.5q162 0 260 -104.5t98 -304.5v-68h-72v62q0 177 -75 263.5t-211 86.5q-127 0 -204 -73.5t-77 -205.5q0 -64 20.5 -118.5t61 -99.5t82.5 -78t104 -72l121 -80q63 -41 108 -77.5t86.5 -85.5t63 -110t21.5 -133q0 -183 -108.5 -280.5
t-276.5 -97.5q-166 0 -275.5 109t-109.5 300v88h71v-74q0 -165 86 -261.5t228 -96.5q145 0 229 80.5t84 222.5q0 62 -19 115.5t-56.5 97.5t-78.5 77.5t-98 70.5l-123 77q-66 42 -112 79.5t-90.5 89.5t-67.5 116.5t-23 140.5zM446 -430h-51l62 307h98z" />
    <glyph glyph-name="scommaaccent" unicode="&#x219;" horiz-adv-x="1032" 
d="M915 268q0 -138 -103.5 -213t-279.5 -75q-184 0 -299.5 85t-115.5 238h73q0 -128 95 -196t247 -68q149 0 230.5 58.5t81.5 170.5q0 70 -38.5 115t-100.5 66.5t-136.5 36t-149.5 31t-137 42.5t-100.5 80t-38.5 135q0 125 100.5 197.5t258.5 72.5q167 0 277 -83.5
t110 -210.5h-74q0 101 -89 167t-224 66q-131 0 -209 -55.5t-78 -153.5q0 -52 24 -90t64.5 -59.5t93 -36.5t110.5 -26t116 -23t110.5 -32t93 -48.5t64.5 -77t24 -113.5zM477 -430h-51l61 307h99z" />
    <glyph glyph-name="circumflex" unicode="&#x2c6;" horiz-adv-x="1024" 
d="M287 1229h-58l234 307h98l234 -307h-58l-225 252z" />
    <glyph glyph-name="caron" unicode="&#x2c7;" horiz-adv-x="1024" 
d="M795 1536l-234 -307h-98l-234 307h58l225 -252l225 252h58z" />
    <glyph glyph-name="breve" unicode="&#x2d8;" horiz-adv-x="1024" 
d="M727 1536h55q0 -143 -73.5 -225t-196.5 -82q-121 0 -193.5 82t-72.5 225h55q0 -124 60.5 -187t150.5 -63q97 0 156 62t59 188z" />
    <glyph glyph-name="dotaccent" unicode="&#x2d9;" horiz-adv-x="1024" 
d="M512 1305q-34 0 -56 21.5t-22 55.5t22 56t56 22q35 0 56.5 -22t21.5 -56t-21.5 -55.5t-56.5 -21.5z" />
    <glyph glyph-name="ring" unicode="&#x2da;" horiz-adv-x="1024" 
d="M512 1167q-88 0 -143.5 56t-55.5 139q0 81 56 137.5t143 56.5q89 0 146 -56.5t57 -137.5q0 -83 -57 -139t-146 -56zM512 1217q66 0 105.5 41t39.5 104t-39.5 104t-105.5 41q-61 0 -102 -41.5t-41 -103.5t41 -103.5t102 -41.5z" />
    <glyph glyph-name="ogonek" unicode="&#x2db;" horiz-adv-x="1024" 
d="M510 -514q-96 0 -154.5 45t-58.5 133q0 24 5.5 48t23 56t27.5 49.5t43 60.5t43.5 56t54.5 66h63q-107 -123 -153 -200t-46 -130q0 -68 41.5 -100.5t112.5 -32.5q65 0 106.5 30.5t47.5 90.5h61q0 -73 -60 -122.5t-157 -49.5z" />
    <glyph glyph-name="tilde" unicode="&#x2dc;" horiz-adv-x="1024" 
d="M217 1247v103q0 170 137 170q41 0 77.5 -23.5t63 -57t51.5 -67t55 -57t63 -23.5q86 0 86 115v94h59v-102q0 -170 -139 -170q-42 0 -78.5 23t-63 56.5t-51 66.5t-54.5 56t-63 23q-84 0 -84 -113v-94h-59z" />
    <glyph glyph-name="hungarumlaut" unicode="&#x2dd;" horiz-adv-x="1024" 
d="M369 1229h-52l62 307h98zM737 1229h-51l62 307h98z" />
    <glyph glyph-name="Delta" unicode="&#x394;" horiz-adv-x="1044" 
d="M39 0l428 1536h111l430 -1536h-969zM131 66h784l-393 1425z" />
    <glyph glyph-name="Omega" unicode="&#x3a9;" horiz-adv-x="1167" 
d="M1010 0h-385v63q161 24 237 122.5t76 301.5v572q0 217 -91.5 324.5t-262.5 107.5q-169 0 -262 -108t-93 -324v-572q0 -203 76 -301.5t238 -122.5v-63h-385v63h211q-211 97 -211 424v572q0 246 111.5 371.5t314.5 125.5t314.5 -125.5t111.5 -371.5v-572q0 -332 -203 -424
h203v-63z" />
    <glyph glyph-name="mu" unicode="&#x3bc;" horiz-adv-x="1189" 
d="M242 -512h-72v1536h72v-524q0 -231 90.5 -344t257.5 -113t258.5 113t91.5 344v524h72v-1024h-72v238q-44 -131 -138.5 -194.5t-223.5 -63.5q-232 0 -336 180v-672z" />
    <glyph glyph-name="pi" unicode="&#x3c0;" horiz-adv-x="1320" 
d="M133 961v63h1106v-63h-205v-961h-71v961h-471l-211 -961h-74l211 961h-285z" />
    <glyph glyph-name="Wgrave" unicode="&#x1e80;" horiz-adv-x="1536" 
d="M735 1679l-203 308h103l158 -308h-58zM1516 1536l-312 -1536h-104l-332 1477l-332 -1477h-104l-312 1536h74l291 -1468l328 1468h110l328 -1468l291 1468h74z" />
    <glyph glyph-name="wgrave" unicode="&#x1e81;" horiz-adv-x="1566" 
d="M752 1229l-203 307h102l158 -307h-57zM1536 1024l-342 -1024h-82l-330 956l-329 -956h-82l-340 1024h71l310 -956l329 956h82l330 -961l311 961h72z" />
    <glyph glyph-name="Wacute" unicode="&#x1e82;" horiz-adv-x="1536" 
d="M811 1679h-57l157 308h103zM1516 1536l-312 -1536h-104l-332 1477l-332 -1477h-104l-312 1536h74l291 -1468l328 1468h110l328 -1468l291 1468h74z" />
    <glyph glyph-name="wacute" unicode="&#x1e83;" horiz-adv-x="1566" 
d="M825 1229h-57l158 307h102zM1536 1024l-342 -1024h-82l-330 956l-329 -956h-82l-340 1024h71l310 -956l329 956h82l330 -961l311 961h72z" />
    <glyph glyph-name="Wdieresis" unicode="&#x1e84;" horiz-adv-x="1536" 
d="M563 1757q-32 0 -54 22t-22 54t22 54t54 22q33 0 54.5 -21.5t21.5 -54.5t-21.5 -54.5t-54.5 -21.5zM973 1757q-32 0 -54 22t-22 54t22 54t54 22q33 0 54.5 -21.5t21.5 -54.5t-21.5 -54.5t-54.5 -21.5zM1516 1536l-312 -1536h-104l-332 1477l-332 -1477h-104l-312 1536h74
l291 -1468l328 1468h110l328 -1468l291 1468h74z" />
    <glyph glyph-name="wdieresis" unicode="&#x1e85;" horiz-adv-x="1566" 
d="M578 1307q-32 0 -54 21.5t-22 53.5t22 54t54 22q33 0 54 -21.5t21 -54.5t-21 -54t-54 -21zM987 1307q-32 0 -54 21.5t-22 53.5t22 54t54 22q33 0 54.5 -21.5t21.5 -54.5q0 -32 -21.5 -53.5t-54.5 -21.5zM1536 1024l-342 -1024h-82l-330 956l-329 -956h-82l-340 1024h71
l310 -956l329 956h82l330 -961l311 961h72z" />
    <glyph glyph-name="Ygrave" unicode="&#x1ef2;" horiz-adv-x="983" 
d="M459 1679l-203 308h102l158 -308h-57zM975 1536l-447 -899v-637h-71v633l-449 903h74l410 -831l409 831h74z" />
    <glyph glyph-name="ygrave" unicode="&#x1ef3;" horiz-adv-x="1026" 
d="M487 1229l-202 307h102l158 -307h-58zM549 -145q-21 -54 -36 -89.5t-36.5 -78.5t-41.5 -70t-48 -55t-58.5 -43t-70 -25t-86.5 -10q-75 0 -139 22v64q56 -21 131 -21q53 0 94 13.5t71 36.5t58 66t49 88t49 118l-467 1153h74l430 -1061l412 1061h74z" />
    <glyph glyph-name="endash" unicode="&#x2013;" horiz-adv-x="1024" 
d="M922 535h-820v57h820v-57z" />
    <glyph glyph-name="emdash" unicode="&#x2014;" horiz-adv-x="2048" 
d="M1946 535h-1844v57h1844v-57z" />
    <glyph glyph-name="quoteleft" unicode="&#x2018;" horiz-adv-x="317" 
d="M238 1278q0 -32 -24 -55t-56 -23q-37 0 -59.5 25.5t-22.5 68.5q0 82 98 242h55q-64 -116 -79 -180h8q32 0 56 -23t24 -55z" />
    <glyph glyph-name="quoteright" unicode="&#x2019;" horiz-adv-x="317" 
d="M242 1452q0 -46 -25 -103t-74 -139h-55q66 118 80 183h-8q-33 0 -56.5 21.5t-23.5 53.5t24 55t56 23q37 0 59.5 -25.5t22.5 -68.5z" />
    <glyph glyph-name="quotesinglbase" unicode="&#x201a;" horiz-adv-x="317" 
d="M242 41q0 -46 -25 -103t-74 -139h-55q66 118 80 181h-8q-33 0 -56.5 22.5t-23.5 54.5t23.5 54t56.5 22q37 0 59.5 -25t22.5 -67z" />
    <glyph glyph-name="quotedblleft" unicode="&#x201c;" horiz-adv-x="602" 
d="M238 1278q0 -32 -24 -55t-56 -23q-37 0 -59.5 25.5t-22.5 68.5q0 82 98 242h55q-64 -116 -79 -180h8q32 0 56 -23t24 -55zM522 1278q0 -32 -24 -55t-56 -23q-37 0 -59.5 25.5t-22.5 68.5q0 80 99 242h55q-66 -119 -80 -180h8q32 0 56 -23t24 -55z" />
    <glyph glyph-name="quotedblright" unicode="&#x201d;" horiz-adv-x="602" 
d="M242 1452q0 -46 -25 -103t-74 -139h-55q66 118 80 183h-8q-33 0 -56.5 21.5t-23.5 53.5t24 55t56 23q37 0 59.5 -25.5t22.5 -68.5zM526 1452q0 -76 -98 -242h-55q66 118 80 183h-9q-33 0 -56 21.5t-23 53.5t23.5 55t55.5 23q37 0 59.5 -25.5t22.5 -68.5z" />
    <glyph glyph-name="quotedblbase" unicode="&#x201e;" horiz-adv-x="602" 
d="M526 41q0 -76 -98 -242h-55q66 118 80 181h-9q-32 0 -55.5 22.5t-23.5 54.5t23 54t56 22q37 0 59.5 -25t22.5 -67zM242 41q0 -46 -25 -103t-74 -139h-55q66 118 80 181h-8q-33 0 -56.5 22.5t-23.5 54.5t23.5 54t56.5 22q37 0 59.5 -25t22.5 -67z" />
    <glyph glyph-name="dagger" unicode="&#x2020;" horiz-adv-x="675" 
d="M635 1024h-266v-1024h-62v1024h-266v53h266v459h62v-459h266v-53z" />
    <glyph glyph-name="daggerdbl" unicode="&#x2021;" horiz-adv-x="675" 
d="M635 459h-266v-459h-62v459h-266v53h266v512h-266v53h266v459h62v-459h266v-53h-266v-512h266v-53z" />
    <glyph glyph-name="bullet" unicode="&#x2022;" horiz-adv-x="655" 
d="M328 399q-94 0 -160 66t-66 158q0 94 66 159.5t160 65.5q93 0 159 -66t66 -159q0 -92 -66.5 -158t-158.5 -66z" />
    <glyph glyph-name="ellipsis" unicode="&#x2026;" horiz-adv-x="870" 
d="M160 -20q-32 0 -54 22.5t-22 54.5t22 54t54 22q35 0 57.5 -21.5t22.5 -54.5t-22.5 -55t-57.5 -22zM434 -20q-32 0 -55 22.5t-23 54.5t23 54t55 22q35 0 57.5 -21.5t22.5 -54.5t-22.5 -55t-57.5 -22zM707 -20q-32 0 -54 22.5t-22 54.5t22 54t54 22q35 0 57 -21.5t22 -54.5
t-22 -55t-57 -22z" />
    <glyph glyph-name="perthousand" unicode="&#x2030;" horiz-adv-x="2385" 
d="M367 727q-134 0 -216.5 104t-82.5 306t82.5 306.5t216.5 104.5t216.5 -104.5t82.5 -306.5t-82.5 -306t-216.5 -104zM262 0l1065 1536h62l-1065 -1536h-62zM367 784q105 0 169 88.5t64 264.5q0 175 -64 264.5t-169 89.5t-169.5 -90t-64.5 -264q0 -175 64.5 -264t169.5 -89
zM1284 -12q-134 0 -216.5 103.5t-82.5 305.5q0 203 82.5 307.5t216.5 104.5t216.5 -104.5t82.5 -307.5q0 -202 -82.5 -305.5t-216.5 -103.5zM2019 -12q-134 0 -216.5 103.5t-82.5 305.5q0 203 82.5 307.5t216.5 104.5t216.5 -104.5t82.5 -307.5q0 -202 -82.5 -305.5
t-216.5 -103.5zM1284 45q105 0 169.5 88.5t64.5 263.5q0 174 -64.5 264.5t-169.5 90.5t-169 -90t-64 -265t64 -263.5t169 -88.5zM2019 45q105 0 169.5 88.5t64.5 263.5q0 174 -64.5 264.5t-169.5 90.5t-169 -90t-64 -265t64 -263.5t169 -88.5z" />
    <glyph glyph-name="guilsinglleft" unicode="&#x2039;" horiz-adv-x="655" 
d="M553 123l-451 356v86l451 357v-72l-420 -328l420 -327v-72z" />
    <glyph glyph-name="guilsinglright" unicode="&#x203a;" horiz-adv-x="655" 
d="M102 922l451 -357v-86l-451 -356v72l420 327l-420 328v72z" />
    <glyph glyph-name="fraction" unicode="&#x2044;" horiz-adv-x="184" 
d="M-471 0l1065 1536h61l-1065 -1536h-61z" />
    <glyph glyph-name="zerosuperior" unicode="&#x2070;" horiz-adv-x="733" 
d="M367 524q-134 0 -216.5 104t-82.5 306q0 203 82.5 307.5t216.5 104.5t216.5 -104.5t82.5 -307.5q0 -202 -82.5 -306t-216.5 -104zM367 582q105 0 169 88.5t64 263.5t-64 264.5t-169 89.5t-169.5 -90t-64.5 -264q0 -175 64.5 -263.5t169.5 -88.5z" />
    <glyph glyph-name="foursuperior" unicode="&#x2074;" horiz-adv-x="706" 
d="M37 803l369 530h104v-530h182v-55h-182v-211h-64v211h-409v55zM100 803h346v502z" />
    <glyph glyph-name="fivesuperior" unicode="&#x2075;" horiz-adv-x="698" 
d="M360 1034q-84 0 -138 -39.5t-64 -95.5h-64v434h512v-55h-450v-301q30 50 87 79t128 29q122 0 198 -78t76 -202q0 -125 -79 -203t-206 -78q-124 0 -201 71t-77 187h63q0 -90 59 -146t156 -56q101 0 162.5 63.5t61.5 161.5q0 101 -61 165t-163 64z" />
    <glyph glyph-name="sixsuperior" unicode="&#x2076;" horiz-adv-x="712" 
d="M651 784q0 -114 -79 -187t-193 -73q-137 0 -221 99.5t-84 314.5q0 205 85.5 306.5t219.5 101.5q114 0 187 -68t73 -176h-59q-2 84 -56 136t-145 52q-111 0 -176.5 -87.5t-65.5 -264.5q0 -38 4 -92q21 96 91 148.5t159 52.5q108 0 184 -73t76 -190zM379 580q89 0 149 58
t60 146q0 91 -60 150t-149 59t-149 -59t-60 -150q0 -88 60 -146t149 -58z" />
    <glyph glyph-name="sevensuperior" unicode="&#x2077;" horiz-adv-x="567" 
d="M262 573v-36h-61v36q0 391 295 705h-482v55h539v-69q-291 -306 -291 -691z" />
    <glyph glyph-name="eightsuperior" unicode="&#x2078;" horiz-adv-x="706" 
d="M627 756q0 -103 -75.5 -167.5t-199.5 -64.5t-198 64t-74 168q0 72 43.5 127t116.5 82q-60 23 -93.5 69.5t-33.5 106.5q0 91 65.5 148t173.5 57q110 0 176 -57t66 -148q0 -61 -33.5 -107t-93.5 -69q73 -27 116.5 -82t43.5 -127zM352 989q83 0 131.5 41.5t48.5 106.5
q0 68 -49 110.5t-131 42.5q-81 0 -129.5 -42.5t-48.5 -110.5q0 -65 47.5 -106.5t130.5 -41.5zM352 580q97 0 154 49.5t57 128.5q0 81 -57 130.5t-154 49.5q-96 0 -152.5 -50t-56.5 -130q0 -79 56.5 -128.5t152.5 -49.5z" />
    <glyph glyph-name="ninesuperior" unicode="&#x2079;" horiz-adv-x="712" 
d="M639 932q0 -205 -85.5 -306.5t-219.5 -101.5q-114 0 -187 68t-73 176h61q0 -84 54.5 -136t144.5 -52q112 0 176.5 87t64.5 265q0 38 -4 92q-21 -97 -90.5 -150t-158.5 -53q-108 0 -184.5 74t-76.5 190q0 115 79 188t194 73q137 0 221 -99.5t84 -314.5zM334 1290
q-89 0 -149 -58t-60 -147q0 -91 60 -149.5t149 -58.5t149 58.5t60 149.5q0 89 -60 147t-149 58z" />
    <glyph glyph-name="parenleftsuperior" unicode="&#x207d;" horiz-adv-x="452" 
d="M147 915q0 355 222 621h57q-219 -266 -219 -621t219 -618h-57q-222 266 -222 618z" />
    <glyph glyph-name="parenrightsuperior" unicode="&#x207e;" horiz-adv-x="452" 
d="M305 915q0 -352 -219 -618h-59q219 263 219 618t-219 621h59q219 -266 219 -621z" />
    <glyph glyph-name="zeroinferior" unicode="&#x2080;" horiz-adv-x="733" 
d="M367 -524q-134 0 -216.5 103.5t-82.5 305.5q0 203 82.5 307.5t216.5 104.5t216.5 -104.5t82.5 -307.5q0 -202 -82.5 -305.5t-216.5 -103.5zM367 -467q105 0 169 88.5t64 263.5t-64 265t-169 90t-169.5 -90.5t-64.5 -264.5q0 -175 64.5 -263.5t169.5 -88.5z" />
    <glyph glyph-name="oneinferior" unicode="&#x2081;" horiz-adv-x="327" 
d="M164 231v54h65v-797h-65v610h-137v54h57q43 0 61.5 18t18.5 61z" />
    <glyph glyph-name="twoinferior" unicode="&#x2082;" horiz-adv-x="647" 
d="M586 63q0 -46 -19 -85t-50 -66.5t-70.5 -54.5t-81 -48.5t-82 -49.5t-72 -57t-52 -70t-22.5 -89h461v-55h-537v35q0 63 25.5 116t66 89t89.5 67.5t98.5 59.5t90 57t66 67.5t25.5 83.5q0 81 -55 130t-137 49q-87 0 -143 -51t-56 -148v-18h-63v24q0 115 75 181.5t187 66.5
q110 0 183 -62.5t73 -171.5z" />
    <glyph glyph-name="threeinferior" unicode="&#x2083;" horiz-adv-x="706" 
d="M639 -293q0 -105 -77.5 -168t-205.5 -63t-208 65t-80 170h63q0 -80 61 -130t162 -50q102 0 163 49.5t61 128.5q0 77 -60.5 124.5t-165.5 47.5h-51v53h51q89 0 142 42.5t53 109.5q0 70 -55 113t-146 43t-145 -46.5t-54 -121.5h-61q0 101 71.5 162t188.5 61q118 0 191 -58
t73 -151q0 -61 -36.5 -108t-102.5 -70q78 -25 123 -78.5t45 -124.5z" />
    <glyph glyph-name="fourinferior" unicode="&#x2084;" horiz-adv-x="706" 
d="M37 -246l369 531h104v-531h182v-55h-182v-211h-64v211h-409v55zM100 -246h346v502z" />
    <glyph glyph-name="fiveinferior" unicode="&#x2085;" horiz-adv-x="698" 
d="M360 -14q-84 0 -138 -40t-64 -96h-64v435h512v-56h-450v-301q30 50 87 79.5t128 29.5q121 0 197.5 -78t76.5 -203t-79 -202.5t-206 -77.5q-124 0 -201 71t-77 187h63q0 -90 59 -146.5t156 -56.5q101 0 162.5 63.5t61.5 161.5q0 101 -61.5 165.5t-162.5 64.5z" />
    <glyph glyph-name="sixinferior" unicode="&#x2086;" horiz-adv-x="712" 
d="M651 -264q0 -114 -79 -187t-193 -73q-137 0 -221 99t-84 314q0 205 85.5 306.5t219.5 101.5q114 0 187 -68t73 -176h-59q-2 84 -56 136.5t-145 52.5q-111 0 -176.5 -88t-65.5 -265q0 -38 4 -92q21 96 91 148.5t159 52.5q108 0 184 -72.5t76 -189.5zM379 -469q89 0 149 58
t60 147q0 91 -60 150t-149 59t-149 -59t-60 -150q0 -89 60 -147t149 -58z" />
    <glyph glyph-name="seveninferior" unicode="&#x2087;" horiz-adv-x="567" 
d="M262 -475v-37h-61v37q0 390 295 704h-482v56h539v-70q-291 -306 -291 -690z" />
    <glyph glyph-name="eightinferior" unicode="&#x2088;" horiz-adv-x="706" 
d="M627 -293q0 -103 -75.5 -167t-199.5 -64t-198 64t-74 167q0 72 43.5 127t116.5 82q-60 23 -93.5 69.5t-33.5 106.5q0 91 65.5 148t173.5 57q110 0 176 -57t66 -148q0 -61 -33.5 -107t-93.5 -69q73 -27 116.5 -82t43.5 -127zM352 -59q83 0 131.5 41t48.5 106q0 68 -49 111
t-131 43q-81 0 -129.5 -43t-48.5 -111q0 -65 47.5 -106t130.5 -41zM352 -469q97 0 154 49.5t57 128.5q0 81 -57 130.5t-154 49.5q-96 0 -152.5 -50t-56.5 -130q0 -79 56.5 -128.5t152.5 -49.5z" />
    <glyph glyph-name="nineinferior" unicode="&#x2089;" horiz-adv-x="712" 
d="M639 -117q0 -205 -85.5 -306t-219.5 -101q-115 0 -187.5 67.5t-72.5 175.5h61q0 -84 54.5 -136t144.5 -52q112 0 176.5 87t64.5 265q0 38 -4 92q-21 -97 -90.5 -149.5t-158.5 -52.5q-108 0 -184.5 74t-76.5 190q0 115 79 187.5t194 72.5q137 0 221 -99.5t84 -314.5z
M334 242q-89 0 -149 -58t-60 -147q0 -91 60 -150t149 -59t149 59t60 150q0 89 -60 147t-149 58z" />
    <glyph glyph-name="parenleftinferior" unicode="&#x208d;" horiz-adv-x="452" 
d="M147 -133q0 354 222 620h57q-219 -266 -219 -620q0 -356 219 -619h-57q-222 266 -222 619z" />
    <glyph glyph-name="parenrightinferior" unicode="&#x208e;" horiz-adv-x="452" 
d="M305 -133q0 -353 -219 -619h-59q219 263 219 619q0 354 -219 620h59q219 -266 219 -620z" />
    <glyph glyph-name="Euro" unicode="&#x20ac;" 
d="M1069 467q0 -240 -112.5 -363.5t-311.5 -123.5t-310.5 125t-111.5 366v74h-182v53h182v356h-182v54h182v57q0 241 111.5 366t310.5 125t311.5 -123.5t112.5 -363.5v-61h-72v59q0 211 -92 317.5t-260 106.5q-166 0 -258 -108t-92 -320v-55h442v-54h-442v-356h442v-53h-442
v-70q0 -214 91 -322t259 -108q167 0 259.5 106.5t92.5 317.5v76h72v-78z" />
    <glyph glyph-name="uni2117" unicode="&#x2117;" horiz-adv-x="1699" 
d="M850 -20q-165 0 -311 63t-248 169.5t-160.5 251t-58.5 304.5q0 162 58.5 307t160.5 251t247.5 168t311.5 62t311.5 -62t247.5 -168t160.5 -251t58.5 -307q0 -160 -58.5 -304.5t-160.5 -251t-248 -169.5t-311 -63zM850 1511q-155 0 -291.5 -59t-232 -159t-150.5 -237
t-55 -288q0 -122 35 -234.5t100.5 -204.5t154 -160.5t202 -106t237.5 -37.5t237.5 37.5t202 106t154 160.5t100.5 204.5t35 234.5q0 151 -55 288t-150.5 237t-232 159t-291.5 59zM637 358v820h250q126 0 200 -61t74 -197q0 -131 -75 -194.5t-199 -63.5h-187v-304h-63z
M883 1118h-183v-399h183q215 0 215 201q0 198 -215 198z" />
    <glyph glyph-name="trademark" unicode="&#x2122;" horiz-adv-x="1896" 
d="M1595 717v790l-276 -790h-84l-277 784v-784h-59v819h111l268 -764l266 764h111v-819h-60zM66 1481v55h620v-55h-272v-764h-60v764h-288z" />
    <glyph glyph-name="estimated" unicode="&#x212e;" horiz-adv-x="1699" 
d="M354 725v-520q79 -85 208 -135t288 -50q118 0 227.5 36.5t194 99t148.5 141.5t102 168h47q-86 -211 -281 -348t-438 -137q-229 0 -405.5 97.5t-274.5 277t-98 413.5q0 173 60.5 321t165.5 250t247.5 159.5t304.5 57.5q168 0 314.5 -62.5t247.5 -169t158.5 -251
t57.5 -305.5q0 -8 -1 -21.5t-1 -21.5h-1272zM354 766h1006v537q-75 93 -209 151.5t-301 58.5q-150 0 -285.5 -54.5t-210.5 -139.5v-553z" />
    <glyph glyph-name="arrowleft" unicode="&#x2190;" 
d="M569 229l-43 -43l-434 437l434 434l43 -43l-364 -365h829v-57h-825z" />
    <glyph glyph-name="arrowup" unicode="&#x2191;" 
d="M954 567l-364 367v-832h-58v828l-362 -363l-43 43l436 434l434 -434z" />
    <glyph glyph-name="arrowright" unicode="&#x2192;" 
d="M1034 623l-434 -437l-43 43l363 363h-828v57h832l-367 365l43 43z" />
    <glyph glyph-name="arrowdown" unicode="&#x2193;" 
d="M997 414l-434 -434l-436 434l43 43l362 -361v826h58v-830l364 365z" />
    <glyph glyph-name="partialdiff" unicode="&#x2202;" horiz-adv-x="1177" 
d="M1096 670q0 -149 -26 -266.5t-71.5 -196t-110 -130.5t-138 -74.5t-158.5 -22.5q-210 0 -348 138t-138 353q0 218 132.5 355t349.5 137q159 0 277.5 -92t156.5 -242v43q0 189 -46.5 341t-128.5 251t-193.5 151.5t-243.5 52.5q-61 0 -115 -10v66q78 12 119 12
q145 0 270 -60t216.5 -169.5t143.5 -273.5t52 -363zM592 45q175 0 289 118t114 308t-114 308t-289 118q-180 0 -297 -118t-117 -308t117 -308t297 -118z" />
    <glyph glyph-name="product" unicode="&#x220f;" horiz-adv-x="1208" 
d="M178 -512v2048h852v-2048h-72v1982h-708v-1982h-72z" />
    <glyph glyph-name="summation" unicode="&#x2211;" horiz-adv-x="903" 
d="M815 -446v-66h-698v94l565 930l-565 930v94h698v-66h-629l555 -909v-98l-555 -909h629z" />
    <glyph glyph-name="minus" unicode="&#x2212;" 
d="M154 592v57h819v-57h-819z" />
    <glyph glyph-name="radical" unicode="&#x221a;" horiz-adv-x="1024" 
d="M1028 1536l-473 -1536h-86l-430 1024h74l395 -961l444 1473h76z" />
    <glyph glyph-name="infinity" unicode="&#x221e;" 
d="M1053 618q0 -110 -73.5 -183t-182.5 -73q-82 0 -144 42t-90 112q-27 -70 -88 -112t-143 -42q-110 0 -184 73t-74 183t74 183t184 73q82 0 143 -41.5t88 -111.5q28 70 90 111.5t144 41.5q109 0 182.5 -73t73.5 -183zM332 416q85 0 141.5 57.5t56.5 144.5q0 89 -56.5 146
t-141.5 57q-87 0 -143 -57t-56 -146q0 -88 56.5 -145t142.5 -57zM797 416q85 0 140.5 57t55.5 145q0 89 -55.5 146t-140.5 57q-87 0 -144 -57t-57 -146q0 -88 57 -145t144 -57z" />
    <glyph glyph-name="integral" unicode="&#x222b;" horiz-adv-x="749" 
d="M109 -512q-53 0 -86 10v64q54 -8 79 -8q70 0 108 37.5t38 132.5v1478q0 179 73 266.5t209 87.5q92 0 164 -26v-70q-66 31 -159 31q-216 0 -216 -295v-1475q0 -233 -210 -233z" />
    <glyph glyph-name="approxequal" unicode="&#x2248;" 
d="M358 924q-62 0 -101.5 -44t-39.5 -128v-76h-63v82q0 107 55 167t143 60q59 0 109.5 -26.5t86.5 -64t69 -75t72.5 -64t82.5 -26.5q60 0 98.5 43t38.5 127v76h64v-80q0 -110 -55 -169.5t-142 -59.5q-38 0 -72.5 14t-61.5 37t-52.5 50.5l-51 55t-51.5 50.5t-59.5 37
t-69.5 14zM358 514q-62 0 -101.5 -44t-39.5 -128v-76h-63v82q0 107 55 167t143 60q59 0 109.5 -26.5t86.5 -64t69 -75t72.5 -64t82.5 -26.5q60 0 98.5 43t38.5 127v76h64v-80q0 -110 -55 -169.5t-142 -59.5q-38 0 -72.5 14t-61.5 37t-52.5 50.5l-51 55t-51.5 50.5t-59.5 37
t-69.5 14z" />
    <glyph glyph-name="notequal" unicode="&#x2260;" 
d="M973 389h-574l-168 -192h-77l168 192h-168v57h219l305 351h-524v57h575l166 190h78l-166 -190h166v-57h-217l-305 -351h522v-57z" />
    <glyph glyph-name="lessequal" unicode="&#x2264;" 
d="M973 264v-63l-819 393v68l819 393v-66l-754 -362zM154 0v55h819v-55h-819z" />
    <glyph glyph-name="greaterequal" unicode="&#x2265;" 
d="M973 594l-819 -393v63l755 363l-755 362v66l819 -393v-68zM973 0h-819v55h819v-55z" />
    <glyph glyph-name="uni25B4" unicode="&#x25b4;" horiz-adv-x="1153" 
d="M119 338l456 743l457 -743h-913z" />
    <glyph glyph-name="uni25B5" unicode="&#x25b5;" horiz-adv-x="1153" 
d="M119 373l456 743l457 -743h-913zM213 426h725l-363 592z" />
    <glyph glyph-name="uni25B8" unicode="&#x25b8;" horiz-adv-x="1153" 
d="M289 123v913l743 -456z" />
    <glyph glyph-name="uni25B9" unicode="&#x25b9;" horiz-adv-x="1153" 
d="M289 158v913l743 -457zM344 252l592 362l-592 363v-725z" />
    <glyph glyph-name="uni25BE" unicode="&#x25be;" horiz-adv-x="1153" 
d="M119 1096h913l-457 -744z" />
    <glyph glyph-name="uni25BF" unicode="&#x25bf;" horiz-adv-x="1153" 
d="M119 1096h913l-457 -744zM213 1042l362 -591l363 591h-725z" />
    <glyph glyph-name="uni25C2" unicode="&#x25c2;" horiz-adv-x="1153" 
d="M864 123l-743 457l743 456v-913z" />
    <glyph glyph-name="uni25C3" unicode="&#x25c3;" horiz-adv-x="1153" 
d="M864 158l-743 456l743 457v-913zM809 252v725l-592 -363z" />
    <glyph glyph-name="lozenge" unicode="&#x25ca;" horiz-adv-x="1024" 
d="M479 0l-375 768l375 768h68l375 -768l-375 -768h-68zM512 63l344 705l-344 705l-344 -705z" />
    <glyph glyph-name="heart" unicode="&#x2665;" horiz-adv-x="1726" 
d="M885 0h-43q-25 77 -78 148.5t-116 128t-134 113.5t-136 115t-118 121.5t-85 145.5t-32 174q0 182 106.5 283.5t264.5 101.5q115 0 207 -60t141 -186q48 125 141.5 185.5t208.5 60.5q101 0 183.5 -42t135 -131.5t52.5 -211.5q0 -92 -31.5 -174t-84.5 -145.5t-118.5 -121.5
t-136 -115t-133.5 -113.5t-116 -128t-78 -148.5zM883 985h-37q-44 148 -131.5 219.5t-198.5 71.5q-132 0 -221.5 -87.5t-89.5 -244.5q0 -82 27.5 -154.5t74 -129t104 -108.5t123 -104t125 -103.5t115.5 -117.5t90 -137q34 71 89.5 137t115.5 117.5t125 103.5t122.5 104
t104.5 108.5t74 129t27 154.5q0 157 -90 244.5t-222 87.5q-111 0 -198 -71.5t-129 -219.5z" />
    <glyph glyph-name="uni2780" unicode="&#x2780;" horiz-adv-x="1699" 
d="M850 -20q-165 0 -311 63t-248 169.5t-160.5 251t-58.5 304.5q0 162 58.5 307t160.5 251t247.5 168t311.5 62t311.5 -62t247.5 -168t160.5 -251t58.5 -307q0 -160 -58.5 -304.5t-160.5 -251t-248 -169.5t-311 -63zM850 1511q-155 0 -291.5 -59t-232 -159t-150.5 -237
t-55 -288q0 -122 35 -234.5t100.5 -204.5t154 -160.5t202 -106t237.5 -37.5t237.5 37.5t202 106t154 160.5t100.5 204.5t35 234.5q0 151 -55 288t-150.5 237t-232 159t-291.5 59zM827 1112v53h66v-796h-66v610h-137v53h58q43 0 61 18.5t18 61.5z" />
    <glyph glyph-name="uni2781" unicode="&#x2781;" horiz-adv-x="1699" 
d="M850 -20q-165 0 -311 63t-248 169.5t-160.5 251t-58.5 304.5q0 162 58.5 307t160.5 251t247.5 168t311.5 62t311.5 -62t247.5 -168t160.5 -251t58.5 -307q0 -160 -58.5 -304.5t-160.5 -251t-248 -169.5t-311 -63zM850 1511q-155 0 -291.5 -59t-232 -159t-150.5 -237
t-55 -288q0 -122 35 -234.5t100.5 -204.5t154 -160.5t202 -106t237.5 -37.5t237.5 37.5t202 106t154 160.5t100.5 204.5t35 234.5q0 151 -55 288t-150.5 237t-232 159t-291.5 59zM1098 944q0 -46 -19 -85t-50 -66.5t-70.5 -54.5t-81 -48.5t-82 -49.5t-72 -57t-52 -70
t-22.5 -89h461v-55h-537v34q0 63 25.5 116t66 89t90 68t98.5 60t89.5 57t66 67.5t25.5 83.5q0 81 -55 129.5t-137 48.5q-87 0 -143 -50.5t-56 -147.5v-19h-63v25q0 115 75 181.5t187 66.5q110 0 183 -62.5t73 -171.5z" />
    <glyph glyph-name="uni2782" unicode="&#x2782;" horiz-adv-x="1699" 
d="M850 -20q-165 0 -311 63t-248 169.5t-160.5 251t-58.5 304.5q0 162 58.5 307t160.5 251t247.5 168t311.5 62t311.5 -62t247.5 -168t160.5 -251t58.5 -307q0 -160 -58.5 -304.5t-160.5 -251t-248 -169.5t-311 -63zM850 1511q-155 0 -291.5 -59t-232 -159t-150.5 -237
t-55 -288q0 -122 35 -234.5t100.5 -204.5t154 -160.5t202 -106t237.5 -37.5t237.5 37.5t202 106t154 160.5t100.5 204.5t35 234.5q0 151 -55 288t-150.5 237t-232 159t-291.5 59zM1126 588q0 -106 -77 -169t-205 -63t-208.5 65.5t-80.5 170.5h63q0 -80 61.5 -130t162.5 -50
q102 0 162.5 49.5t60.5 128.5q0 78 -60.5 125t-164.5 47h-52v53h52q89 0 141.5 42.5t52.5 109.5q0 70 -54.5 112.5t-145.5 42.5t-145 -46.5t-54 -121.5h-62q0 101 72 162.5t189 61.5q118 0 191 -58t73 -151q0 -61 -37 -108t-103 -70q78 -25 123 -78.5t45 -124.5z" />
    <glyph glyph-name="uni2783" unicode="&#x2783;" horiz-adv-x="1699" 
d="M850 -20q-165 0 -311 63t-248 169.5t-160.5 251t-58.5 304.5q0 162 58.5 307t160.5 251t247.5 168t311.5 62t311.5 -62t247.5 -168t160.5 -251t58.5 -307q0 -160 -58.5 -304.5t-160.5 -251t-248 -169.5t-311 -63zM850 1511q-155 0 -291.5 -59t-232 -159t-150.5 -237
t-55 -288q0 -122 35 -234.5t100.5 -204.5t154 -160.5t202 -106t237.5 -37.5t237.5 37.5t202 106t154 160.5t100.5 204.5t35 234.5q0 151 -55 288t-150.5 237t-232 159t-291.5 59zM487 635l369 530h105v-530h182v-55h-182v-211h-64v211h-410v55zM551 635h346v502z" />
    <glyph glyph-name="uni2784" unicode="&#x2784;" horiz-adv-x="1699" 
d="M850 -20q-165 0 -311 63t-248 169.5t-160.5 251t-58.5 304.5q0 162 58.5 307t160.5 251t247.5 168t311.5 62t311.5 -62t247.5 -168t160.5 -251t58.5 -307q0 -160 -58.5 -304.5t-160.5 -251t-248 -169.5t-311 -63zM850 1511q-155 0 -291.5 -59t-232 -159t-150.5 -237
t-55 -288q0 -122 35 -234.5t100.5 -204.5t154 -160.5t202 -106t237.5 -37.5t237.5 37.5t202 106t154 160.5t100.5 204.5t35 234.5q0 151 -55 288t-150.5 237t-232 159t-291.5 59zM844 866q-84 0 -138.5 -39.5t-64.5 -95.5h-63v434h512v-55h-451v-301q30 50 87 79.5t128 29.5
q121 0 197.5 -78t76.5 -203t-78.5 -203t-205.5 -78q-125 0 -202 71.5t-77 186.5h64q0 -90 59 -146t156 -56q101 0 162 63.5t61 161.5q0 101 -61 165t-162 64z" />
    <glyph glyph-name="uni2785" unicode="&#x2785;" horiz-adv-x="1699" 
d="M850 -20q-165 0 -311 63t-248 169.5t-160.5 251t-58.5 304.5q0 162 58.5 307t160.5 251t247.5 168t311.5 62t311.5 -62t247.5 -168t160.5 -251t58.5 -307q0 -160 -58.5 -304.5t-160.5 -251t-248 -169.5t-311 -63zM850 1511q-155 0 -291.5 -59t-232 -159t-150.5 -237
t-55 -288q0 -122 35 -234.5t100.5 -204.5t154 -160.5t202 -106t237.5 -37.5t237.5 37.5t202 106t154 160.5t100.5 204.5t35 234.5q0 151 -55 288t-150.5 237t-232 159t-291.5 59zM1122 616q0 -114 -79 -187t-193 -73q-137 0 -221 99.5t-84 314.5q0 205 85.5 306.5
t219.5 101.5q114 0 187 -68t73 -176h-59q-2 84 -56 136t-145 52q-111 0 -176.5 -87.5t-65.5 -264.5q0 -38 4 -92q21 96 91 148.5t159 52.5q108 0 184 -73t76 -190zM850 412q89 0 149 58t60 146q0 91 -60 150t-149 59t-149 -59t-60 -150q0 -88 60 -146t149 -58z" />
    <glyph glyph-name="uni2786" unicode="&#x2786;" horiz-adv-x="1699" 
d="M850 -20q-165 0 -311 63t-248 169.5t-160.5 251t-58.5 304.5q0 162 58.5 307t160.5 251t247.5 168t311.5 62t311.5 -62t247.5 -168t160.5 -251t58.5 -307q0 -160 -58.5 -304.5t-160.5 -251t-248 -169.5t-311 -63zM850 1511q-155 0 -291.5 -59t-232 -159t-150.5 -237
t-55 -288q0 -122 35 -234.5t100.5 -204.5t154 -160.5t202 -106t237.5 -37.5t237.5 37.5t202 106t154 160.5t100.5 204.5t35 234.5q0 151 -55 288t-150.5 237t-232 159t-291.5 59zM844 406v-37h-62v37q0 390 295 704h-481v55h539v-69q-291 -306 -291 -690z" />
    <glyph glyph-name="uni2787" unicode="&#x2787;" horiz-adv-x="1699" 
d="M850 -20q-165 0 -311 63t-248 169.5t-160.5 251t-58.5 304.5q0 162 58.5 307t160.5 251t247.5 168t311.5 62t311.5 -62t247.5 -168t160.5 -251t58.5 -307q0 -160 -58.5 -304.5t-160.5 -251t-248 -169.5t-311 -63zM850 1511q-155 0 -291.5 -59t-232 -159t-150.5 -237
t-55 -288q0 -122 35 -234.5t100.5 -204.5t154 -160.5t202 -106t237.5 -37.5t237.5 37.5t202 106t154 160.5t100.5 204.5t35 234.5q0 151 -55 288t-150.5 237t-232 159t-291.5 59zM1124 588q0 -103 -75 -167.5t-199 -64.5t-198 64t-74 168q0 72 43 127t116 82
q-60 23 -93.5 69.5t-33.5 106.5q0 91 66 148t174 57q110 0 176 -57t66 -148q0 -61 -33.5 -107t-93.5 -69q73 -27 116 -82t43 -127zM850 821q83 0 131.5 41.5t48.5 106.5q0 68 -49 110.5t-131 42.5q-81 0 -129.5 -42.5t-48.5 -110.5q0 -65 47.5 -106.5t130.5 -41.5zM850 412
q97 0 154 49.5t57 128.5q0 81 -57 130.5t-154 49.5q-96 0 -152.5 -50t-56.5 -130q0 -79 56.5 -128.5t152.5 -49.5z" />
    <glyph glyph-name="uni2788" unicode="&#x2788;" horiz-adv-x="1699" 
d="M850 -20q-165 0 -311 63t-248 169.5t-160.5 251t-58.5 304.5q0 162 58.5 307t160.5 251t247.5 168t311.5 62t311.5 -62t247.5 -168t160.5 -251t58.5 -307q0 -160 -58.5 -304.5t-160.5 -251t-248 -169.5t-311 -63zM850 1511q-155 0 -291.5 -59t-232 -159t-150.5 -237
t-55 -288q0 -122 35 -234.5t100.5 -204.5t154 -160.5t202 -106t237.5 -37.5t237.5 37.5t202 106t154 160.5t100.5 204.5t35 234.5q0 151 -55 288t-150.5 237t-232 159t-291.5 59zM1155 764q0 -205 -85.5 -306.5t-219.5 -101.5q-114 0 -187 68t-73 176h61q0 -84 54.5 -136
t144.5 -52q112 0 177 87t65 265q0 24 -5 92q-21 -97 -90.5 -150t-158.5 -53q-108 0 -184 74.5t-76 190.5q0 115 78.5 187.5t193.5 72.5q137 0 221 -99.5t84 -314.5zM850 1122q-89 0 -149 -58t-60 -146q0 -91 60 -150t149 -59t149 59t60 150q0 88 -60 146t-149 58z" />
    <glyph glyph-name="uni2789" unicode="&#x2789;" horiz-adv-x="1699" 
d="M850 -20q-165 0 -311 63t-248 169.5t-160.5 251t-58.5 304.5q0 162 58.5 307t160.5 251t247.5 168t311.5 62t311.5 -62t247.5 -168t160.5 -251t58.5 -307q0 -160 -58.5 -304.5t-160.5 -251t-248 -169.5t-311 -63zM850 1511q-155 0 -291.5 -59t-232 -159t-150.5 -237
t-55 -288q0 -122 35 -234.5t100.5 -204.5t154 -160.5t202 -106t237.5 -37.5t237.5 37.5t202 106t154 160.5t100.5 204.5t35 234.5q0 151 -55 288t-150.5 237t-232 159t-291.5 59zM1075 358q-134 0 -216.5 104t-82.5 306q0 203 82.5 307.5t216.5 104.5t216.5 -104.5
t82.5 -307.5q0 -202 -82.5 -306t-216.5 -104zM471 1112v53h66v-796h-66v610h-137v53h57q43 0 61.5 18.5t18.5 61.5zM1075 416q105 0 169.5 88.5t64.5 263.5q0 174 -64.5 264t-169.5 90t-169 -89.5t-64 -264.5t64 -263.5t169 -88.5z" />
    <glyph glyph-name="uni278A" unicode="&#x278a;" horiz-adv-x="1699" 
d="M850 -20q-165 0 -311 63t-248 169.5t-160.5 251t-58.5 304.5q0 162 58.5 307t160.5 251t247.5 168t311.5 62t311.5 -62t247.5 -168t160.5 -251t58.5 -307q0 -160 -58.5 -304.5t-160.5 -251t-248 -169.5t-311 -63zM827 1112q0 -43 -18 -61.5t-61 -18.5h-58v-53h137v-610
h66v796h-66v-53z" />
    <glyph glyph-name="uni278B" unicode="&#x278b;" horiz-adv-x="1699" 
d="M850 -20q-165 0 -311 63t-248 169.5t-160.5 251t-58.5 304.5q0 162 58.5 307t160.5 251t247.5 168t311.5 62t311.5 -62t247.5 -168t160.5 -251t58.5 -307q0 -160 -58.5 -304.5t-160.5 -251t-248 -169.5t-311 -63zM1098 944q0 109 -73 171.5t-183 62.5q-112 0 -187 -66.5
t-75 -181.5v-25h63v19q0 97 56 147.5t143 50.5q82 0 137 -48.5t55 -129.5q0 -45 -25.5 -83.5t-66 -67.5t-89.5 -57t-98.5 -60t-90 -68t-66 -89t-25.5 -116v-34h537v55h-461q2 48 22.5 89t52 70t72 57t82 49.5t81 48.5t70.5 54.5t50 66.5t19 85z" />
    <glyph glyph-name="uni278C" unicode="&#x278c;" horiz-adv-x="1699" 
d="M850 -20q-165 0 -311 63t-248 169.5t-160.5 251t-58.5 304.5q0 162 58.5 307t160.5 251t247.5 168t311.5 62t311.5 -62t247.5 -168t160.5 -251t58.5 -307q0 -160 -58.5 -304.5t-160.5 -251t-248 -169.5t-311 -63zM844 356q128 0 205 63t77 169q0 73 -46 126.5t-126 76.5
q67 20 105.5 67.5t38.5 110.5q0 93 -73 151t-191 58q-117 0 -189 -61.5t-72 -162.5h62q0 75 54 121.5t145 46.5t145.5 -42.5t54.5 -112.5q0 -67 -52.5 -109.5t-141.5 -42.5h-52v-53h52q104 0 164.5 -47t60.5 -125q0 -79 -60.5 -128.5t-162.5 -49.5q-101 0 -162.5 50
t-61.5 130h-63q0 -105 80.5 -170.5t208.5 -65.5z" />
    <glyph glyph-name="uni278D" unicode="&#x278d;" horiz-adv-x="1699" 
d="M850 -20q-165 0 -311 63t-248 169.5t-160.5 251t-58.5 304.5q0 162 58.5 307t160.5 251t247.5 168t311.5 62t311.5 -62t247.5 -168t160.5 -251t58.5 -307q0 -160 -58.5 -304.5t-160.5 -251t-248 -169.5t-311 -63zM1143 580v55h-182v530h-105l-369 -530v-55h410v-211h64
v211h182zM551 635l346 493v-493h-346z" />
    <glyph glyph-name="uni278E" unicode="&#x278e;" horiz-adv-x="1699" 
d="M850 -20q-165 0 -311 63t-248 169.5t-160.5 251t-58.5 304.5q0 162 58.5 307t160.5 251t247.5 168t311.5 62t311.5 -62t247.5 -168t160.5 -251t58.5 -307q0 -160 -58.5 -304.5t-160.5 -251t-248 -169.5t-311 -63zM844 356q127 0 205.5 78t78.5 203t-76.5 203t-197.5 78
q-70 0 -127.5 -30.5t-87.5 -80.5v303h451v55h-512v-434h63q10 56 64.5 95.5t138.5 39.5q101 0 162 -64t61 -165q0 -98 -61 -161.5t-162 -63.5q-97 0 -156 56t-59 146h-64q0 -115 77 -186.5t202 -71.5z" />
    <glyph glyph-name="uni278F" unicode="&#x278f;" horiz-adv-x="1699" 
d="M850 -20q-165 0 -311 63t-248 169.5t-160.5 251t-58.5 304.5q0 162 58.5 307t160.5 251t247.5 168t311.5 62t311.5 -62t247.5 -168t160.5 -251t58.5 -307q0 -160 -58.5 -304.5t-160.5 -251t-248 -169.5t-311 -63zM850 356q114 0 193 73t79 187q0 117 -76 190t-184 73
q-90 0 -160 -53.5t-86 -151.5q-8 36 -8 98q0 176 65.5 263t176.5 87q91 0 145 -52t56 -136h59q0 108 -73 176t-187 68q-134 0 -219.5 -101.5t-85.5 -306.5q0 -215 84 -314.5t221 -99.5zM850 412q-89 0 -149 58t-60 146q0 91 60 150t149 59t149 -59t60 -150q0 -88 -60 -146
t-149 -58z" />
    <glyph glyph-name="uni2790" unicode="&#x2790;" horiz-adv-x="1699" 
d="M850 -20q-165 0 -311 63t-248 169.5t-160.5 251t-58.5 304.5q0 162 58.5 307t160.5 251t247.5 168t311.5 62t311.5 -62t247.5 -168t160.5 -251t58.5 -307q0 -160 -58.5 -304.5t-160.5 -251t-248 -169.5t-311 -63zM844 369v37q0 384 291 690v69h-539v-55h481
q-295 -318 -295 -704v-37h62z" />
    <glyph glyph-name="uni2791" unicode="&#x2791;" horiz-adv-x="1699" 
d="M850 -20q-165 0 -311 63t-248 169.5t-160.5 251t-58.5 304.5q0 162 58.5 307t160.5 251t247.5 168t311.5 62t311.5 -62t247.5 -168t160.5 -251t58.5 -307q0 -160 -58.5 -304.5t-160.5 -251t-248 -169.5t-311 -63zM850 356q124 0 199 64.5t75 167.5q0 74 -45 129.5
t-121 79.5q63 22 98.5 68.5t35.5 107.5q0 91 -66 148t-176 57q-108 0 -174 -57t-66 -148q0 -61 34.5 -107.5t96.5 -68.5q-75 -24 -119 -79.5t-44 -129.5q0 -104 74 -168t198 -64zM850 821q-83 0 -130.5 41.5t-47.5 106.5q0 68 48.5 110.5t129.5 42.5q82 0 131 -42.5
t49 -110.5q0 -65 -48.5 -106.5t-131.5 -41.5zM850 412q-96 0 -152.5 49.5t-56.5 128.5q0 80 56.5 130t152.5 50q97 0 154 -49.5t57 -130.5q0 -79 -57 -128.5t-154 -49.5z" />
    <glyph glyph-name="uni2792" unicode="&#x2792;" horiz-adv-x="1699" 
d="M850 -20q-165 0 -311 63t-248 169.5t-160.5 251t-58.5 304.5q0 162 58.5 307t160.5 251t247.5 168t311.5 62t311.5 -62t247.5 -168t160.5 -251t58.5 -307q0 -160 -58.5 -304.5t-160.5 -251t-248 -169.5t-311 -63zM1092 762q0 -176 -65.5 -263t-176.5 -87q-90 0 -144.5 52
t-54.5 136h-61q0 -108 73 -176t187 -68q134 0 219.5 101.5t85.5 306.5q0 215 -84 314.5t-221 99.5q-115 0 -193.5 -72.5t-78.5 -187.5q0 -116 76 -190.5t184 -74.5q90 0 159 54.5t86 152.5q9 -41 9 -98zM850 1122q89 0 149 -58t60 -146q0 -91 -60 -150t-149 -59t-149 59
t-60 150q0 88 60 146t149 58z" />
    <glyph glyph-name="uni2793" unicode="&#x2793;" horiz-adv-x="1699" 
d="M850 -20q-165 0 -311 63t-248 169.5t-160.5 251t-58.5 304.5q0 162 58.5 307t160.5 251t247.5 168t311.5 62t311.5 -62t247.5 -168t160.5 -251t58.5 -307q0 -160 -58.5 -304.5t-160.5 -251t-248 -169.5t-311 -63zM1075 358q134 0 216.5 104t82.5 306q0 203 -82.5 307.5
t-216.5 104.5t-216.5 -104.5t-82.5 -307.5q0 -202 82.5 -306t216.5 -104zM471 1112q0 -43 -18.5 -61.5t-61.5 -18.5h-57v-53h137v-610h66v796h-66v-53zM1075 416q-105 0 -169 88.5t-64 263.5t64 264.5t169 89.5t169.5 -90t64.5 -264q0 -175 -64.5 -263.5t-169.5 -88.5z" />
    <glyph glyph-name="uni27F7" unicode="&#x27f7;" horiz-adv-x="1781" 
d="M1688 623l-435 -437l-41 43l361 363h-1364l362 -363l-43 -43l-434 437l434 434l43 -43l-366 -365h1372l-365 365l41 43z" />
    <glyph glyph-name="dotlessj" unicode="&#xf6be;" horiz-adv-x="428" 
d="M178 -276v1300h72v-1303q0 -233 -211 -233q-53 0 -86 10v64q54 -8 80 -8q69 0 107 37.5t38 132.5z" />
    <glyph glyph-name="commaaccent" unicode="&#xf6c3;" horiz-adv-x="1024" 
d="M457 -430h-51l61 307h98z" />
    <glyph glyph-name="centinferior" unicode="&#xf6df;" horiz-adv-x="733" 
d="M692 -229q-12 -127 -95.5 -207t-207.5 -88v-154h-39v154q-134 6 -221.5 102t-87.5 244q0 146 88 243t221 103v151h39v-151q120 -8 202 -84.5t97 -196.5h-61q-13 94 -79.5 155t-158.5 69v-580q96 8 163 73t77 167h63zM102 -178q0 -125 69.5 -205t178.5 -86v580
q-107 -6 -177.5 -86t-70.5 -203z" />
    <glyph glyph-name="centsuperior" unicode="&#xf6e0;" horiz-adv-x="733" 
d="M692 819q-12 -127 -95.5 -207t-207.5 -88v-153h-39v153q-134 6 -221.5 102t-87.5 244q0 146 88 243.5t221 103.5v151h39v-151q120 -8 202 -84.5t97 -196.5h-61q-13 94 -79.5 154.5t-158.5 68.5v-579q97 8 163.5 73t76.5 166h63zM102 870q0 -124 69.5 -204t178.5 -86v579
q-107 -6 -177.5 -86t-70.5 -203z" />
    <glyph glyph-name="commainferior" unicode="&#xf6e1;" horiz-adv-x="208" 
d="M170 -479q0 -62 -68 -168h-43q46 87 56 123h-4q-24 0 -41 16t-17 39q0 24 17 40.5t41 16.5q26 0 42.5 -19t16.5 -48z" />
    <glyph glyph-name="commasuperior" unicode="&#xf6e2;" horiz-adv-x="221" 
d="M170 569q0 -62 -68 -168h-43q46 87 56 123h-4q-23 0 -40.5 16.5t-17.5 39.5q0 24 17 40.5t41 16.5q26 0 42.5 -19.5t16.5 -48.5z" />
    <glyph glyph-name="dollarinferior" unicode="&#xf6e3;" horiz-adv-x="671" 
d="M600 -305q0 -104 -68 -161.5t-176 -57.5v-154h-41v156q-110 8 -176.5 71.5t-66.5 174.5h63q0 -85 49.5 -136t130.5 -59v348q-43 12 -68 20t-59 26t-52.5 38.5t-32 55t-13.5 79.5q0 91 65 146t160 55v156h41v-158q100 -9 164 -72t64 -155h-62q0 68 -46.5 116.5
t-119.5 57.5v-318q35 -9 52 -14t47.5 -16t47 -21t38 -27.5t32.5 -38t19 -49t8 -63.5zM150 96q0 -37 12 -64t37.5 -45.5t51 -29.5t64.5 -23v310q-76 -3 -120.5 -42t-44.5 -106zM539 -307q0 41 -14 71t-43 49.5t-56 30.5t-70 23v-340q87 3 135 45.5t48 120.5z" />
    <glyph glyph-name="dollarsuperior" unicode="&#xf6e4;" horiz-adv-x="671" 
d="M600 743q0 -104 -68 -161.5t-176 -57.5v-153h-41v155q-110 8 -176.5 71.5t-66.5 174.5h63q0 -85 49.5 -135.5t130.5 -58.5v348q-43 12 -68 20t-59 26t-52.5 38.5t-32 55t-13.5 79.5q0 91 65 146t160 55v155h41v-158q100 -9 164 -72t64 -155h-62q0 68 -46.5 116.5
t-119.5 57.5v-317q34 -9 52 -14t48 -16t46.5 -21.5t38 -28t32.5 -38t19 -49t8 -63.5zM150 1145q0 -37 12 -64t37.5 -45.5t51 -29.5t64.5 -23v309q-76 -3 -120.5 -41.5t-44.5 -105.5zM539 741q0 41 -14 71t-43 49.5t-56 30.5t-70 23v-340q87 3 135 45.5t48 120.5z" />
    <glyph glyph-name="periodinferior" unicode="&#xf6e7;" horiz-adv-x="208" 
d="M111 -524q-26 0 -43 16t-17 41t17 41t43 16q25 0 41 -16t16 -41t-16 -41t-41 -16z" />
    <glyph glyph-name="periodsuperior" unicode="&#xf6e8;" horiz-adv-x="221" 
d="M111 524q-26 0 -43 16.5t-17 41.5t17 41t43 16q25 0 41 -16t16 -41t-16 -41.5t-41 -16.5z" />
    <glyph glyph-name="thinspace" horiz-adv-x="256" 
 />
    <glyph glyph-name="fi.cap" horiz-adv-x="1316" 
d="M178 0v1536h635v-66h-563v-682h502v-65h-502v-723h-72zM1139 0h-72v1536h72v-1536z" />
    <glyph glyph-name="fl.cap" horiz-adv-x="1777" 
d="M178 0v1536h635v-66h-563v-682h502v-65h-502v-723h-72zM1706 66v-66h-639v1536h72v-1470h567z" />
    <glyph glyph-name="germandbls.cap" horiz-adv-x="1986" 
d="M147 1212q0 175 98 259.5t255 84.5q162 0 260 -104.5t98 -304.5v-68h-72v62q0 177 -75 263.5t-211 86.5q-127 0 -204 -73.5t-77 -205.5q0 -64 20.5 -118.5t61 -99.5t82.5 -78t104 -72l121 -80q63 -41 108 -77.5t86.5 -85.5t63 -110t21.5 -133q0 -183 -108.5 -280.5
t-276.5 -97.5q-166 0 -275.5 109t-109.5 300v88h71v-74q0 -165 86 -261.5t228 -96.5q145 0 229 80.5t84 222.5q0 62 -19 115.5t-56.5 97.5t-78.5 77.5t-98 70.5l-123 77q-66 42 -112 79.5t-90.5 89.5t-67.5 116.5t-23 140.5zM1141 1212q0 175 97.5 259.5t254.5 84.5
q162 0 260 -104.5t98 -304.5v-68h-71v62q0 177 -75.5 263.5t-211.5 86.5q-127 0 -204 -73.5t-77 -205.5q0 -64 20.5 -118.5t61.5 -99.5t83 -78t104 -72l121 -80q63 -41 107.5 -77.5t86.5 -85.5t63 -110t21 -133q0 -183 -108.5 -280.5t-276.5 -97.5q-166 0 -275.5 109
t-109.5 300v88h72v-74q0 -165 85.5 -261.5t227.5 -96.5q145 0 229 80.5t84 222.5q0 62 -19 115.5t-56.5 97.5t-78.5 77.5t-98 70.5l-122 77q-66 42 -112 79.5t-90.5 89.5t-67.5 116.5t-23 140.5z" />
    <glyph glyph-name="a.alt" horiz-adv-x="1259" 
d="M1010 0v264q-58 -132 -171.5 -208t-258.5 -76q-211 0 -350.5 149.5t-139.5 382.5t139.5 382.5t350.5 149.5q145 0 258.5 -76t171.5 -208v264h71v-1024h-71zM586 979q-184 0 -304 -129.5t-120 -337.5t120 -337.5t304 -129.5t304 129.5t120 337.5t-120 337.5t-304 129.5z
" />
    <glyph glyph-name="g.alt" horiz-adv-x="1105" 
d="M1075 -231q0 -139 -114.5 -220t-372.5 -81h-62q-248 0 -361.5 78t-113.5 214q0 85 54.5 147t148.5 89q-68 20 -108 68t-40 112q0 71 51 120t140 62q-80 51 -127 132t-47 180q0 162 118.5 268t290.5 106q90 0 170 -30q23 30 66 30h317v-71h-307q77 -51 120.5 -129.5
t43.5 -173.5q0 -163 -119 -269t-291 -106q-88 0 -172 33q-81 -3 -133.5 -42t-52.5 -100q0 -63 49.5 -100t143.5 -37h299q409 0 409 -280zM532 356q148 0 244 88t96 226t-94.5 225.5t-245.5 87.5q-150 0 -244.5 -87.5t-94.5 -225.5t95.5 -226t243.5 -88zM547 -471h35
q122 0 207.5 18t131.5 52t65.5 75.5t19.5 96.5q0 99 -79 157t-245 58h-203q-184 0 -271 -58t-87 -157q0 -55 19.5 -96.5t66 -75.5t132 -52t208.5 -18z" />
    <glyph glyph-name="agrave.alt" horiz-adv-x="1259" 
d="M553 1229l-203 307h103l157 -307h-57zM1010 0v264q-58 -132 -171.5 -208t-258.5 -76q-211 0 -350.5 149.5t-139.5 382.5t139.5 382.5t350.5 149.5q145 0 258.5 -76t171.5 -208v264h71v-1024h-71zM586 979q-184 0 -304 -129.5t-120 -337.5t120 -337.5t304 -129.5
t304 129.5t120 337.5t-120 337.5t-304 129.5z" />
    <glyph glyph-name="aacute.alt" horiz-adv-x="1259" 
d="M627 1229h-58l158 307h102zM1010 0v264q-58 -132 -171.5 -208t-258.5 -76q-211 0 -350.5 149.5t-139.5 382.5t139.5 382.5t350.5 149.5q145 0 258.5 -76t171.5 -208v264h71v-1024h-71zM586 979q-184 0 -304 -129.5t-120 -337.5t120 -337.5t304 -129.5t304 129.5
t120 337.5t-120 337.5t-304 129.5z" />
    <glyph glyph-name="acircumflex.alt" horiz-adv-x="1259" 
d="M358 1229h-57l234 307h98l233 -307h-57l-225 252zM1010 0v264q-58 -132 -171.5 -208t-258.5 -76q-211 0 -350.5 149.5t-139.5 382.5t139.5 382.5t350.5 149.5q145 0 258.5 -76t171.5 -208v264h71v-1024h-71zM586 979q-184 0 -304 -129.5t-120 -337.5t120 -337.5
t304 -129.5t304 129.5t120 337.5t-120 337.5t-304 129.5z" />
    <glyph glyph-name="atilde.alt" horiz-adv-x="1259" 
d="M289 1247v103q0 170 137 170q41 0 77.5 -23.5t62.5 -57t51 -67t55 -57t63 -23.5q86 0 86 115v94h60v-102q0 -170 -140 -170q-42 0 -78.5 23t-62.5 56.5t-51 66.5t-54.5 56t-62.5 23q-84 0 -84 -113v-94h-59zM1010 0v264q-58 -132 -171.5 -208t-258.5 -76
q-211 0 -350.5 149.5t-139.5 382.5t139.5 382.5t350.5 149.5q145 0 258.5 -76t171.5 -208v264h71v-1024h-71zM586 979q-184 0 -304 -129.5t-120 -337.5t120 -337.5t304 -129.5t304 129.5t120 337.5t-120 337.5t-304 129.5z" />
    <glyph glyph-name="adieresis.alt" horiz-adv-x="1259" 
d="M379 1307q-32 0 -54 21.5t-22 53.5t22 54t54 22q33 0 54.5 -21.5t21.5 -54.5q0 -32 -21.5 -53.5t-54.5 -21.5zM788 1307q-32 0 -53.5 21.5t-21.5 53.5t21.5 54t53.5 22q33 0 54.5 -21.5t21.5 -54.5q0 -32 -21 -53.5t-55 -21.5zM1010 0v264q-58 -132 -171.5 -208
t-258.5 -76q-211 0 -350.5 149.5t-139.5 382.5t139.5 382.5t350.5 149.5q145 0 258.5 -76t171.5 -208v264h71v-1024h-71zM586 979q-184 0 -304 -129.5t-120 -337.5t120 -337.5t304 -129.5t304 129.5t120 337.5t-120 337.5t-304 129.5z" />
    <glyph glyph-name="amacron.alt" horiz-adv-x="1259" 
d="M854 1354v-56h-539v56h539zM1010 0v264q-58 -132 -171.5 -208t-258.5 -76q-211 0 -350.5 149.5t-139.5 382.5t139.5 382.5t350.5 149.5q145 0 258.5 -76t171.5 -208v264h71v-1024h-71zM586 979q-184 0 -304 -129.5t-120 -337.5t120 -337.5t304 -129.5t304 129.5
t120 337.5t-120 337.5t-304 129.5z" />
    <glyph glyph-name="abreve.alt" horiz-adv-x="1259" 
d="M799 1536h55q0 -143 -73.5 -225t-196.5 -82q-121 0 -194 82t-73 225h56q0 -124 60.5 -187t150.5 -63q97 0 156 62t59 188zM1010 0v264q-58 -132 -171.5 -208t-258.5 -76q-211 0 -350.5 149.5t-139.5 382.5t139.5 382.5t350.5 149.5q145 0 258.5 -76t171.5 -208v264h71
v-1024h-71zM586 979q-184 0 -304 -129.5t-120 -337.5t120 -337.5t304 -129.5t304 129.5t120 337.5t-120 337.5t-304 129.5z" />
    <glyph glyph-name="aring.alt" horiz-adv-x="1259" 
d="M584 1167q-88 0 -143.5 56t-55.5 139q0 81 56 137.5t143 56.5q89 0 145.5 -56.5t56.5 -137.5q0 -83 -56.5 -139t-145.5 -56zM584 1217q66 0 105.5 41t39.5 104t-39.5 104t-105.5 41q-61 0 -102.5 -41.5t-41.5 -103.5t41.5 -103.5t102.5 -41.5zM1010 0v264
q-58 -132 -171.5 -208t-258.5 -76q-211 0 -350.5 149.5t-139.5 382.5t139.5 382.5t350.5 149.5q145 0 258.5 -76t171.5 -208v264h71v-1024h-71zM586 979q-184 0 -304 -129.5t-120 -337.5t120 -337.5t304 -129.5t304 129.5t120 337.5t-120 337.5t-304 129.5z" />
    <glyph glyph-name="aringacute.alt" horiz-adv-x="1259" 
d="M610 1679h-57l158 308h102zM584 1167q-88 0 -143.5 56t-55.5 139q0 81 56 137.5t143 56.5q89 0 145.5 -56.5t56.5 -137.5q0 -83 -56.5 -139t-145.5 -56zM584 1217q66 0 105.5 41t39.5 104t-39.5 104t-105.5 41q-61 0 -102.5 -41.5t-41.5 -103.5t41.5 -103.5t102.5 -41.5z
M1010 0v264q-58 -132 -171.5 -208t-258.5 -76q-211 0 -350.5 149.5t-139.5 382.5t139.5 382.5t350.5 149.5q145 0 258.5 -76t171.5 -208v264h71v-1024h-71zM586 979q-184 0 -304 -129.5t-120 -337.5t120 -337.5t304 -129.5t304 129.5t120 337.5t-120 337.5t-304 129.5z" />
    <glyph glyph-name="aogonek.alt" horiz-adv-x="1259" 
d="M813 -326q0 39 14 78t47.5 85.5t58.5 75.5t77 87v264q-58 -132 -171.5 -208t-258.5 -76q-211 0 -350.5 149.5t-139.5 382.5t139.5 382.5t350.5 149.5q145 0 258.5 -76t171.5 -208v264h71v-1024h-14q-193 -205 -193 -319q0 -74 41.5 -109t110.5 -35q66 0 108 30t48 91h61
q0 -73 -61 -122.5t-156 -49.5q-97 0 -155 48t-58 140zM586 979q-184 0 -304 -129.5t-120 -337.5t120 -337.5t304 -129.5t304 129.5t120 337.5t-120 337.5t-304 129.5z" />
    <glyph glyph-name="ae.alt" horiz-adv-x="2080" 
d="M1993 512q0 -17 -2 -29h-910q9 -198 126.5 -319t295.5 -121q133 0 236 71t149 193h76q-51 -151 -175 -239t-288 -88q-138 0 -249.5 72.5t-170.5 197.5v-250h-71v264q-58 -132 -171.5 -208t-258.5 -76q-211 0 -350.5 149.5t-139.5 382.5t139.5 382.5t350.5 149.5
q145 0 258.5 -76t171.5 -208v264h71v-250q59 125 170.5 197.5t249.5 72.5q213 0 352.5 -149t139.5 -383zM1501 981q-178 0 -294.5 -121t-125.5 -319h842q-9 198 -126.5 319t-295.5 121zM586 979q-184 0 -304 -129.5t-120 -337.5t120 -337.5t304 -129.5t304 129.5t120 337.5
t-120 337.5t-304 129.5z" />
    <glyph glyph-name="aeacute.alt" horiz-adv-x="2080" 
d="M1090 1229h-58l158 307h102zM1993 512q0 -17 -2 -29h-910q9 -198 126.5 -319t295.5 -121q133 0 236 71t149 193h76q-51 -151 -175 -239t-288 -88q-138 0 -249.5 72.5t-170.5 197.5v-250h-71v264q-58 -132 -171.5 -208t-258.5 -76q-211 0 -350.5 149.5t-139.5 382.5
t139.5 382.5t350.5 149.5q145 0 258.5 -76t171.5 -208v264h71v-250q59 125 170.5 197.5t249.5 72.5q213 0 352.5 -149t139.5 -383zM1501 981q-178 0 -294.5 -121t-125.5 -319h842q-9 198 -126.5 319t-295.5 121zM586 979q-184 0 -304 -129.5t-120 -337.5t120 -337.5
t304 -129.5t304 129.5t120 337.5t-120 337.5t-304 129.5z" />
    <glyph glyph-name="gcircumflex.alt" horiz-adv-x="1105" 
d="M307 1229h-57l233 307h99l233 -307h-57l-226 252zM1075 -231q0 -139 -114.5 -220t-372.5 -81h-62q-248 0 -361.5 78t-113.5 214q0 85 54.5 147t148.5 89q-68 20 -108 68t-40 112q0 71 51 120t140 62q-80 51 -127 132t-47 180q0 162 118.5 268t290.5 106q90 0 170 -30
q23 30 66 30h317v-71h-307q77 -51 120.5 -129.5t43.5 -173.5q0 -163 -119 -269t-291 -106q-88 0 -172 33q-81 -3 -133.5 -42t-52.5 -100q0 -63 49.5 -100t143.5 -37h299q409 0 409 -280zM532 356q148 0 244 88t96 226t-94.5 225.5t-245.5 87.5q-150 0 -244.5 -87.5
t-94.5 -225.5t95.5 -226t243.5 -88zM547 -471h35q122 0 207.5 18t131.5 52t65.5 75.5t19.5 96.5q0 99 -79 157t-245 58h-203q-184 0 -271 -58t-87 -157q0 -55 19.5 -96.5t66 -75.5t132 -52t208.5 -18z" />
    <glyph glyph-name="gbreve.alt" horiz-adv-x="1105" 
d="M748 1536h55q0 -143 -74 -225t-197 -82q-121 0 -193.5 82t-72.5 225h56q0 -125 60 -187.5t150 -62.5q97 0 156.5 62t59.5 188zM1075 -231q0 -139 -114.5 -220t-372.5 -81h-62q-248 0 -361.5 78t-113.5 214q0 85 54.5 147t148.5 89q-68 20 -108 68t-40 112q0 71 51 120
t140 62q-80 51 -127 132t-47 180q0 162 118.5 268t290.5 106q90 0 170 -30q23 30 66 30h317v-71h-307q77 -51 120.5 -129.5t43.5 -173.5q0 -163 -119 -269t-291 -106q-88 0 -172 33q-81 -3 -133.5 -42t-52.5 -100q0 -63 49.5 -100t143.5 -37h299q409 0 409 -280zM532 356
q148 0 244 88t96 226t-94.5 225.5t-245.5 87.5q-150 0 -244.5 -87.5t-94.5 -225.5t95.5 -226t243.5 -88zM547 -471h35q122 0 207.5 18t131.5 52t65.5 75.5t19.5 96.5q0 99 -79 157t-245 58h-203q-184 0 -271 -58t-87 -157q0 -55 19.5 -96.5t66 -75.5t132 -52t208.5 -18z" />
    <glyph glyph-name="gdotaccent.alt" horiz-adv-x="1105" 
d="M532 1305q-34 0 -55.5 21.5t-21.5 55.5t21.5 56t55.5 22q35 0 56.5 -22t21.5 -56t-21.5 -55.5t-56.5 -21.5zM1075 -231q0 -139 -114.5 -220t-372.5 -81h-62q-248 0 -361.5 78t-113.5 214q0 85 54.5 147t148.5 89q-68 20 -108 68t-40 112q0 71 51 120t140 62
q-80 51 -127 132t-47 180q0 162 118.5 268t290.5 106q90 0 170 -30q23 30 66 30h317v-71h-307q77 -51 120.5 -129.5t43.5 -173.5q0 -163 -119 -269t-291 -106q-88 0 -172 33q-81 -3 -133.5 -42t-52.5 -100q0 -63 49.5 -100t143.5 -37h299q409 0 409 -280zM532 356
q148 0 244 88t96 226t-94.5 225.5t-245.5 87.5q-150 0 -244.5 -87.5t-94.5 -225.5t95.5 -226t243.5 -88zM547 -471h35q122 0 207.5 18t131.5 52t65.5 75.5t19.5 96.5q0 99 -79 157t-245 58h-203q-184 0 -271 -58t-87 -157q0 -55 19.5 -96.5t66 -75.5t132 -52t208.5 -18z" />
    <glyph glyph-name="gcommaaccent.alt" horiz-adv-x="1105" 
d="M592 1597h49l-61 -307h-97zM1075 -231q0 -139 -114.5 -220t-372.5 -81h-62q-248 0 -361.5 78t-113.5 214q0 85 54.5 147t148.5 89q-68 20 -108 68t-40 112q0 71 51 120t140 62q-80 51 -127 132t-47 180q0 162 118.5 268t290.5 106q90 0 170 -30q23 30 66 30h317v-71h-307
q77 -51 120.5 -129.5t43.5 -173.5q0 -163 -119 -269t-291 -106q-88 0 -172 33q-81 -3 -133.5 -42t-52.5 -100q0 -63 49.5 -100t143.5 -37h299q409 0 409 -280zM532 356q148 0 244 88t96 226t-94.5 225.5t-245.5 87.5q-150 0 -244.5 -87.5t-94.5 -225.5t95.5 -226t243.5 -88z
M547 -471h35q122 0 207.5 18t131.5 52t65.5 75.5t19.5 96.5q0 99 -79 157t-245 58h-203q-184 0 -271 -58t-87 -157q0 -55 19.5 -96.5t66 -75.5t132 -52t208.5 -18z" />
    <glyph glyph-name="idotaccent" horiz-adv-x="428" 
d="M213 1305q-34 0 -56 21.5t-22 55.5t22 56t56 22q35 0 56.5 -22t21.5 -56t-21.5 -55.5t-56.5 -21.5zM250 0h-72v1024h72v-1024z" />
    <glyph glyph-name="a.superior" horiz-adv-x="733" 
d="M565 537v147q-34 -79 -104.5 -119.5t-155.5 -40.5q-102 0 -166.5 47t-64.5 136q0 68 36.5 109t91 54t118 22t118 15t91 32.5t36.5 74.5q0 73 -56 113t-147 40q-93 0 -150.5 -47t-57.5 -133h-60q0 61 22.5 106.5t61.5 72t86 39t101 12.5q114 0 189 -50t75 -155v-475h-64z
M137 709q0 -64 50 -99t132 -35q100 0 173 63t73 173v102q-29 -27 -85.5 -40.5t-113 -19t-109.5 -16t-86.5 -42t-33.5 -86.5z" />
    <glyph glyph-name="b.superior" horiz-adv-x="819" 
d="M764 870q0 -151 -90.5 -248.5t-227.5 -97.5q-89 0 -160 46.5t-110 127.5v-161h-63v999h63v-492q39 81 109.5 127t160.5 46q138 0 228 -97t90 -250zM438 1161q-114 0 -188 -81t-74 -210q0 -128 74 -208t188 -80t188 80t74 208q0 129 -74 210t-188 81z" />
    <glyph glyph-name="c.superior" horiz-adv-x="761" 
d="M637 936q-13 102 -85 163.5t-171 61.5q-114 0 -188 -81t-74 -210q0 -128 73.5 -208t188.5 -80q103 0 174.5 64t83.5 173h66q-12 -131 -103 -213t-221 -82q-140 0 -233 97.5t-93 248.5q0 153 92.5 250t233.5 97q127 0 216.5 -77.5t104.5 -203.5h-65z" />
    <glyph glyph-name="d.superior" horiz-adv-x="819" 
d="M643 537v157q-39 -79 -110.5 -124.5t-159.5 -45.5q-137 0 -227.5 97.5t-90.5 248.5q0 153 90 250t228 97q88 0 159.5 -45.5t110.5 -124.5v489h64v-999h-64zM381 1161q-114 0 -188 -81t-74 -210q0 -128 74 -208t188 -80t188 80t74 208q0 129 -74 210t-188 81z" />
    <glyph glyph-name="e.superior" horiz-adv-x="753" 
d="M698 870v-22h-581q7 -122 79.5 -195t180.5 -73q83 0 146 42.5t91 116.5h68q-34 -99 -115.5 -157t-189.5 -58q-139 0 -230.5 97.5t-91.5 248.5q0 153 91.5 250t230.5 97t230 -97t91 -250zM377 1163q-108 0 -180.5 -73.5t-79.5 -196.5h520q-7 123 -79.5 196.5t-180.5 73.5z
" />
    <glyph glyph-name="f.superior" horiz-adv-x="505" 
d="M227 1311v-107h222v-53h-222v-614h-65v614h-135v53h135v111q0 118 50 175.5t142 57.5q63 0 105 -18v-55q-37 18 -99 18q-133 0 -133 -182z" />
    <glyph glyph-name="g.superior" horiz-adv-x="819" 
d="M707 514q0 -147 -88.5 -235.5t-225.5 -88.5q-125 0 -210.5 75.5t-102.5 197.5h63q17 -99 84 -157t166 -58q116 0 183 73.5t67 192.5v180q-39 -79 -110.5 -124.5t-159.5 -45.5q-138 0 -228 96.5t-90 249.5q0 151 90.5 249t227.5 98q88 0 159.5 -45.5t110.5 -124.5v157h64
v-690zM381 582q114 0 188 80t74 208t-74 208.5t-188 80.5t-188 -80.5t-74 -208.5t74 -208t188 -80z" />
    <glyph glyph-name="h.superior" horiz-adv-x="778" 
d="M176 891v-354h-63v999h63v-471q57 152 234 152q122 0 193 -76t71 -234v-370h-64v354q0 136 -57 203t-160 67q-104 0 -160.5 -67t-56.5 -203z" />
    <glyph glyph-name="i.superior" horiz-adv-x="286" 
d="M143 1378q-26 0 -42.5 17.5t-16.5 42.5t16.5 42t42.5 17t43 -17t17 -42t-17 -42.5t-43 -17.5zM176 537h-63v667h63v-667z" />
    <glyph glyph-name="j.superior" horiz-adv-x="286" 
d="M143 1378q-26 0 -42.5 17.5t-16.5 42.5t16.5 41t42.5 16t43 -16t17 -41t-17 -42.5t-43 -17.5zM113 367v837h63v-839q0 -162 -149 -162q-36 0 -60 8v53q24 -6 51 -6q95 0 95 109z" />
    <glyph glyph-name="k.superior" horiz-adv-x="684" 
d="M584 537l-277 350l-131 -137v-213h-63v999h63v-709l365 377h82l-269 -280l312 -387h-82z" />
    <glyph glyph-name="l.superior" horiz-adv-x="286" 
d="M176 537h-63v999h63v-999z" />
    <glyph glyph-name="m.superior" horiz-adv-x="1165" 
d="M176 926v-389h-63v667h63v-119q27 66 80.5 99t124.5 33q82 0 140.5 -40t82.5 -122q24 81 82.5 121.5t140.5 40.5q105 0 169.5 -68t64.5 -207v-405h-64v389q0 235 -184 235q-195 0 -195 -235v-389h-63v389q0 235 -190 235q-189 0 -189 -235z" />
    <glyph glyph-name="n.superior" horiz-adv-x="778" 
d="M176 891v-354h-63v667h63v-139q57 152 234 152q122 0 193 -76t71 -234v-370h-64v354q0 136 -57 203t-160 67q-104 0 -160.5 -67t-56.5 -203z" />
    <glyph glyph-name="o.superior" horiz-adv-x="772" 
d="M387 524q-142 0 -237 97.5t-95 248.5q0 152 95 249.5t237 97.5t236 -97.5t94 -249.5q0 -151 -94 -248.5t-236 -97.5zM387 582q115 0 190.5 80t75.5 208q0 129 -75.5 210t-190.5 81q-117 0 -192.5 -81t-75.5 -210q0 -128 75.5 -208t192.5 -80z" />
    <glyph glyph-name="p.superior" horiz-adv-x="819" 
d="M446 524q-89 0 -160 46.5t-110 127.5v-493h-63v999h63v-160q39 81 109.5 127t160.5 46q138 0 228 -97t90 -250q0 -151 -90.5 -248.5t-227.5 -97.5zM438 582q114 0 188 80t74 208q0 129 -74 210t-188 81t-188 -81t-74 -210q0 -128 74 -208t188 -80z" />
    <glyph glyph-name="q.superior" horiz-adv-x="819" 
d="M707 1204v-999h-64v489q-39 -79 -110.5 -124.5t-159.5 -45.5q-137 0 -227.5 97.5t-90.5 248.5q0 153 90 250t228 97q88 0 159.5 -45.5t110.5 -124.5v157h64zM381 582q114 0 188 80t74 208q0 129 -74 210t-188 81t-188 -81t-74 -210q0 -128 74 -208t188 -80z" />
    <glyph glyph-name="r.superior" horiz-adv-x="509" 
d="M176 879v-342h-63v667h61v-149q57 162 223 162q21 0 66 -9v-65q-30 12 -74 12q-213 0 -213 -276z" />
    <glyph glyph-name="s.superior" horiz-adv-x="671" 
d="M600 717q0 -92 -69.5 -142.5t-184.5 -50.5q-121 0 -197.5 57t-76.5 156h63q0 -77 59 -118t152 -41q92 0 141.5 34.5t49.5 102.5q0 43 -25 70.5t-64.5 40.5t-87.5 22.5t-95.5 20.5t-87 28t-64.5 52.5t-25 88.5q0 83 67 131t171 48q113 0 185.5 -55.5t72.5 -141.5h-64
q0 63 -54.5 104t-139.5 41q-80 0 -128 -33.5t-48 -93.5q0 -41 25 -67t64.5 -38.5t87.5 -21t96 -20t87.5 -29.5t64.5 -54.5t25 -90.5z" />
    <glyph glyph-name="t.superior" horiz-adv-x="520" 
d="M207 768q0 -186 149 -186q53 0 93 14v-57q-63 -15 -101 -15q-98 0 -152.5 55t-54.5 187v383h-114v55h114v187h66v-187h242v-55h-242v-381z" />
    <glyph glyph-name="u.superior" horiz-adv-x="772" 
d="M598 537v145q-59 -158 -229 -158q-121 0 -193 79t-72 239v362h64v-344q0 -142 56 -211t159 -69q215 0 215 280v344h64v-667h-64z" />
    <glyph glyph-name="v.superior" horiz-adv-x="665" 
d="M653 1204l-278 -667h-84l-277 667h64l256 -629l254 629h65z" />
    <glyph glyph-name="w.superior" horiz-adv-x="1017" 
d="M999 1204l-215 -667h-73l-203 618l-201 -618h-76l-211 667h60l190 -622l203 622h72l203 -622l190 622h61z" />
    <glyph glyph-name="x.superior" horiz-adv-x="692" 
d="M598 537l-256 305l-246 -305h-76l283 344l-268 323h74l237 -286l238 286h73l-268 -323l283 -344h-74z" />
    <glyph glyph-name="y.superior" horiz-adv-x="667" 
d="M369 455q-19 -51 -33.5 -84.5t-37 -69t-46.5 -55t-59 -32.5t-78 -13q-34 0 -97 14v53q37 -12 88 -12q80 0 122 45t81 150l-297 753h64l262 -678l254 678h63z" />
    <glyph glyph-name="z.superior" horiz-adv-x="626" 
d="M571 592v-55h-503v77l426 537h-420v53h471v-76l-428 -536h454z" />
    <glyph glyph-name="hyphen.cap" horiz-adv-x="716" 
d="M580 733h-443v70h443v-70z" />
    <glyph glyph-name="exclamdown.cap" horiz-adv-x="432" 
d="M215 1556q32 0 55 -22.5t23 -54.5t-23 -54t-55 -22q-34 0 -56 22t-22 54q0 33 22.5 55t55.5 22zM182 1024h64l8 -1024h-80z" />
    <glyph glyph-name="questiondown.cap" horiz-adv-x="1017" 
d="M504 1556q32 0 55 -22.5t23 -54.5t-23 -54t-55 -22q-35 0 -57.5 21.5t-22.5 54.5t22.5 55t57.5 22zM86 356q0 68 21 124.5t54.5 96t74.5 74.5t81.5 69.5t74.5 72t55.5 90.5t21.5 118v23h66v-35q0 -68 -21 -124.5t-54 -96t-73 -75t-80.5 -69t-73.5 -70t-54 -86.5t-21 -110
q0 -150 90.5 -231.5t253.5 -81.5q74 0 136.5 21t112.5 64t78.5 115.5t28.5 168.5v28h74v-43q0 -103 -34 -184.5t-93 -132t-136 -76.5t-167 -26q-198 0 -307 100t-109 276z" />
    <glyph glyph-name="guilsinglleft.cap" horiz-adv-x="655" 
d="M553 369l-451 356v86l451 356v-71l-420 -328l420 -328v-71z" />
    <glyph glyph-name="guilsinglright.cap" horiz-adv-x="655" 
d="M102 1167l451 -356v-86l-451 -356v71l420 328l-420 328v71z" />
    <glyph glyph-name="guillemotleft.cap" horiz-adv-x="1187" 
d="M553 369l-451 356v86l451 356v-71l-420 -328l420 -328v-71zM1085 369l-450 356v86l450 356v-71l-419 -328l419 -328v-71z" />
    <glyph glyph-name="guillemotright.cap" horiz-adv-x="1187" 
d="M635 1167l450 -356v-86l-450 -356v71l420 328l-420 328v71zM102 1167l451 -356v-86l-451 -356v71l420 328l-420 328v71z" />
    <glyph glyph-name="slash.OP" horiz-adv-x="698" 
d="M23 -307h-62l614 1843h62z" />
    <glyph glyph-name="backslash.OP" horiz-adv-x="698" 
d="M678 -307l-615 1843h62l614 -1843h-61z" />
    <glyph glyph-name="endash.cap" horiz-adv-x="1024" 
d="M922 739h-820v58h820v-58z" />
    <glyph glyph-name="emdash.cap" horiz-adv-x="2048" 
d="M1946 739h-1844v58h1844v-58z" />
    <glyph glyph-name="periodcentered.cap" horiz-adv-x="335" 
d="M166 700q-33 0 -55.5 22.5t-22.5 55.5t22.5 55.5t55.5 22.5q36 0 59 -22t23 -56t-23 -56t-59 -22z" />
    <glyph glyph-name="parenleft.cap" horiz-adv-x="696" 
d="M238 768q0 545 342 952h67q-338 -406 -338 -952t338 -952h-67q-342 407 -342 952z" />
    <glyph glyph-name="parenright.cap" horiz-adv-x="696" 
d="M461 768q0 -541 -342 -952h-70q338 406 338 952t-338 952h70q342 -411 342 -952z" />
    <glyph glyph-name="bracketleft.cap" horiz-adv-x="696" 
d="M274 -184v1904h379v-59h-309v-1786h309v-59h-379z" />
    <glyph glyph-name="bracketright.cap" horiz-adv-x="696" 
d="M43 1661v59h379v-1904h-379v59h311v1786h-311z" />
    <glyph glyph-name="braceleft.cap" horiz-adv-x="696" 
d="M168 733h-102v70h102q23 0 45.5 7t47.5 23.5t40.5 51.5t15.5 84v440q0 149 76 230t203 81h57v-59h-51q-99 0 -157 -65.5t-58 -190.5v-440q0 -70 -32 -119.5t-81 -77.5q49 -28 81 -77.5t32 -119.5v-440q0 -125 58 -190.5t157 -65.5h51v-59h-57q-127 0 -203 81t-76 230v440
q0 50 -15.5 85t-40.5 51.5t-47.5 23t-45.5 6.5z" />
    <glyph glyph-name="braceright.cap" horiz-adv-x="696" 
d="M528 803h103v-70h-103q-23 0 -45.5 -6.5t-47.5 -23t-40.5 -51.5t-15.5 -85v-440q0 -149 -76 -230t-203 -81h-57v59h51q99 0 157 65.5t58 190.5v440q0 70 32 119.5t81 77.5q-49 28 -81 77.5t-32 119.5v440q0 125 -58 190.5t-157 65.5h-51v59h57q127 0 203 -81t76 -230
v-440q0 -49 15.5 -84t40.5 -51.5t47.5 -23.5t45.5 -7z" />
    <glyph glyph-name="at.cap" horiz-adv-x="1763" 
d="M1239 70q-172 -90 -369 -90q-235 0 -415.5 103.5t-276.5 282t-96 402.5q0 169 56.5 314t157.5 250t249.5 164.5t324.5 59.5q180 0 333.5 -62t257 -167t162 -246t58.5 -297q0 -245 -87.5 -371t-221.5 -126q-183 0 -205 217q-48 -107 -147.5 -162t-212.5 -55
q-142 0 -232 65t-90 187q0 82 37.5 134.5t97 75t132 34t145 18.5t132 20.5t97 48.5t37.5 95q0 110 -80 168.5t-209 58.5q-134 0 -216.5 -67.5t-82.5 -192.5h-63q0 83 30 145.5t81.5 98.5t114 53.5t134.5 17.5q97 0 174 -27.5t128 -94.5t51 -167v-389q0 -116 39.5 -176.5
t109.5 -60.5q117 0 187.5 116t70.5 336q0 146 -54.5 278.5t-151.5 232t-241.5 158t-314.5 58.5q-167 0 -306 -56.5t-233.5 -155.5t-147 -235.5t-52.5 -295.5q0 -158 52.5 -294.5t147 -235t233.5 -155t306 -56.5q189 0 344 84zM551 541q0 -96 70 -146.5t190 -50.5
q92 0 170.5 38t130 117.5t51.5 186.5v154q-38 -42 -117.5 -62t-160.5 -27.5t-158.5 -22t-126.5 -60t-49 -127.5z" />
    <glyph glyph-name="numero" horiz-adv-x="1984" 
d="M1597 549q-142 0 -236.5 97.5t-94.5 248.5q0 152 94.5 249t236.5 97t236 -97t94 -249q0 -151 -94 -248.5t-236 -97.5zM1030 1229v-1229h-123l-659 1196v-1196h-70v1229h127l658 -1192v1192h67zM1597 606q115 0 191 80.5t76 208.5q0 129 -76 210t-191 81
q-117 0 -192.5 -81t-75.5 -210q0 -128 76 -208.5t192 -80.5zM1882 246h-571v57h571v-57z" />
    <glyph glyph-name="zero.slash" 
d="M969 457q0 -236 -106 -356.5t-300 -120.5q-191 0 -295 116l-47 -96h-63l71 147q-71 115 -71 310v622q0 236 105.5 356.5t299.5 120.5q191 0 295 -116l47 96h64l-72 -147q72 -116 72 -310v-622zM229 457q0 -135 39 -230l555 1143q-84 121 -260 121q-159 0 -246.5 -103.5
t-87.5 -308.5v-622zM897 1079q0 135 -39 230l-555 -1143q84 -121 260 -121q160 0 247 103.5t87 308.5v622z" />
    <glyph glyph-name="numbersign.LP" 
d="M565 0l117 463h-389l-117 -463h-63l116 463h-229v55h244l125 498h-248v55h262l117 465h63l-117 -465h390l116 465h64l-117 -465h227v-55h-241l-125 -498h246v-55h-261l-116 -463h-64zM307 518h389l125 498h-389z" />
    <glyph glyph-name="Euro.LP" 
d="M1069 467q0 -240 -112.5 -363.5t-311.5 -123.5t-310.5 125t-111.5 366v74h-182v53h182v356h-182v54h182v57q0 241 111.5 366t310.5 125t311.5 -123.5t112.5 -363.5v-61h-72v59q0 211 -92 317.5t-260 106.5q-166 0 -258 -108t-92 -320v-55h442v-54h-442v-356h442v-53h-442
v-70q0 -214 91 -322t259 -108q167 0 259.5 106.5t92.5 317.5v76h72v-78z" />
    <glyph glyph-name="dollar.LP" 
d="M952 358q0 -176 -101 -273t-261 -105v-236h-53v236q-158 9 -259.5 117t-101.5 292v88h72v-74q0 -160 78 -254.5t211 -103.5v719l-37 24q-66 40 -113 78t-91 89.5t-66.5 116t-22.5 140.5q0 165 91.5 251.5t238.5 92.5v236h53v-236q152 -9 242 -114t90 -297v-68h-72v62
q0 168 -67.5 255.5t-192.5 96.5v-676l84 -53q50 -31 87 -59t75 -66t62 -78t39 -91.5t15 -109.5zM279 1212q0 -63 19.5 -116.5t58 -97.5t79.5 -77t101 -71v641q-118 -8 -188 -80.5t-70 -198.5zM627 707l-37 24v-686q135 8 213 88t78 215q0 62 -19 115.5t-56.5 97t-79 77
t-99.5 69.5z" />
    <glyph glyph-name="cent.LP" 
d="M1061 686q-20 -192 -150.5 -315.5t-316.5 -134.5v-236h-53v236q-206 9 -340.5 157t-134.5 375t134.5 375t340.5 157v236h53v-236q181 -9 309.5 -127t153.5 -301h-72q-23 157 -131 255.5t-260 107.5v-934q158 11 267 115.5t126 269.5h74zM137 768q0 -199 114 -328.5
t290 -138.5v934q-176 -9 -290 -138.5t-114 -328.5z" />
    <glyph glyph-name="sterling.LP" horiz-adv-x="1077" 
d="M961 66v-66h-838v49q138 151 205 281.5t67 279.5q0 57 -20 119h-232v51h209q-19 37 -57.5 93.5t-64.5 96.5t-47 103.5t-21 130.5q0 167 106 259.5t269 92.5q84 0 153.5 -22.5t124.5 -68.5t86 -123.5t31 -180.5v-76h-72v74q0 175 -87.5 253.5t-235.5 78.5
q-133 0 -218.5 -71.5t-85.5 -215.5q0 -61 22 -121t50 -101.5t65 -99t56 -102.5h420v-51h-400q17 -60 17 -117q0 -147 -64 -277t-184 -269h746z" />
    <glyph glyph-name="florin.LP" horiz-adv-x="1089" 
d="M883 729h-363l-264 -1241h-72l265 1241h-269v51h279l90 422q39 187 126 270.5t232 83.5q90 0 154 -26v-68q-52 29 -164 29q-110 0 -177 -70.5t-99 -224.5l-89 -416h351v-51z" />
    <glyph glyph-name="yen.LP" 
d="M915 545h-315v-545h-72v545h-315v53h315v356h-315v54h279l-410 528h78l403 -522l404 522h77l-409 -528h280v-54h-315v-356h315v-53z" />
    <glyph glyph-name="zero.slashLP" 
d="M969 457q0 -236 -106 -356.5t-300 -120.5q-191 0 -295 116l-47 -96h-63l71 147q-71 115 -71 310v622q0 236 105.5 356.5t299.5 120.5q191 0 295 -116l47 96h64l-72 -147q72 -116 72 -310v-622zM229 457q0 -135 39 -230l555 1143q-84 121 -260 121q-159 0 -246.5 -103.5
t-87.5 -308.5v-622zM897 1079q0 135 -39 230l-555 -1143q84 -121 260 -121q160 0 247 103.5t87 308.5v622z" />
    <glyph glyph-name="zero.LP" 
d="M563 -20q-194 0 -299.5 120.5t-105.5 356.5v622q0 236 105.5 356.5t299.5 120.5t300 -120.5t106 -356.5v-622q0 -236 -106 -356.5t-300 -120.5zM563 45q160 0 247 102.5t87 309.5v622q0 205 -87 308.5t-247 103.5q-159 0 -246.5 -103.5t-87.5 -308.5v-622
q0 -207 87 -309.5t247 -102.5z" />
    <glyph glyph-name="one.LP" horiz-adv-x="501" 
d="M252 1440v96h72v-1536h-72v1253h-211v64h90q65 0 93 28.5t28 94.5z" />
    <glyph glyph-name="two.LP" horiz-adv-x="1015" 
d="M897 1163q0 -91 -38 -176t-99.5 -153.5t-135.5 -136.5t-148.5 -137t-136.5 -141t-102 -163t-42 -190h723v-66h-797v49q0 107 39 205.5t101 175.5t137 149.5t150 140.5t137 135t101 146.5t39 161.5q0 164 -87.5 246t-221.5 82q-143 0 -227 -86.5t-84 -280.5v-106h-72v108
q0 112 29.5 196t82.5 134.5t121 75t150 24.5q165 0 273 -103t108 -290z" />
    <glyph glyph-name="three.LP" horiz-adv-x="1064" 
d="M948 379q0 -188 -115.5 -293.5t-293.5 -105.5q-181 0 -299.5 110t-118.5 305v51h72v-38q0 -172 93.5 -267.5t252.5 -95.5q158 0 248 90t90 256v25q0 173 -88.5 260.5t-245.5 87.5h-88v67h88q136 0 214.5 83.5t78.5 234.5v29q0 152 -83.5 232.5t-213.5 80.5
q-133 0 -219.5 -76t-86.5 -219v-37h-71v47q0 165 107 257.5t270 92.5q160 0 264 -96.5t104 -271.5v-47q0 -129 -61.5 -216t-165.5 -122q125 -35 196.5 -131t71.5 -244v-49z" />
    <glyph glyph-name="four.LP" horiz-adv-x="1064" 
d="M82 471l549 1065h119v-1065h237v-65h-237v-406h-72v406h-596v65zM150 471h528v1026z" />
    <glyph glyph-name="five.LP" horiz-adv-x="980" 
d="M500 981q-135 0 -215 -77.5t-82 -196.5h-70v829h725v-66h-655v-606q39 84 118 132t187 48q183 0 279 -110t96 -322v-190q0 -211 -109 -326.5t-274 -115.5q-168 0 -277.5 113.5t-109.5 316.5v45h71v-39q0 -174 84 -272.5t232 -98.5q142 0 226.5 96t84.5 281v178
q0 198 -82.5 289.5t-228.5 91.5z" />
    <glyph glyph-name="six.LP" 
d="M969 434q0 -223 -107.5 -338.5t-298.5 -115.5t-298 121t-107 354v628q0 232 107 352.5t298 120.5q190 0 297 -118.5t107 -345.5v-15h-72v13q0 199 -87 300t-245 101q-159 0 -246.5 -103.5t-87.5 -308.5v-374q48 115 139.5 169t204.5 54q184 0 290 -116t106 -337v-41z
M229 465v-23q0 -197 87 -297t247 -100q158 0 246 100.5t88 296.5v23q0 202 -82.5 299.5t-251.5 97.5q-160 0 -247 -100t-87 -297z" />
    <glyph glyph-name="seven.LP" horiz-adv-x="872" 
d="M406 78v-78h-72v70q0 140 10 262.5t25 222t45 200.5t59 178t78.5 176t90.5 173t108 188h-693v66h756v-88q-93 -156 -147 -256.5t-110.5 -233t-85 -253t-46.5 -279t-18 -348.5z" />
    <glyph glyph-name="eight.LP" horiz-adv-x="1085" 
d="M983 395q0 -131 -59.5 -226.5t-158 -142t-222.5 -46.5t-222.5 46.5t-158.5 142t-60 226.5v51q0 153 79 253t212 137q-106 35 -168.5 118.5t-62.5 204.5v47q0 165 108 257.5t273 92.5t274 -93t109 -257v-47q0 -121 -63.5 -204.5t-170.5 -118.5q133 -37 212 -137t79 -253
v-51zM233 1196v-27q0 -141 84 -220t226 -79q144 0 227.5 79t83.5 220v27q0 143 -87 219t-224 76q-135 0 -222.5 -76t-87.5 -219zM174 438v-30q0 -172 100 -267.5t269 -95.5q171 0 269.5 95t98.5 268v30q0 179 -97.5 271t-270.5 92q-171 0 -270 -92.5t-99 -270.5z" />
    <glyph glyph-name="nine.LP" 
d="M969 455q0 -233 -107.5 -354t-298.5 -121q-190 0 -295.5 118t-105.5 346v15h71v-10q0 -201 86 -302.5t244 -101.5q159 0 246.5 103.5t87.5 308.5v374q-48 -115 -139.5 -169t-204.5 -54q-184 0 -289.5 116t-105.5 337v41q0 223 107 338.5t298 115.5t298.5 -120.5
t107.5 -352.5v-628zM897 1071v23q0 197 -87 297t-247 100q-158 0 -246 -100.5t-88 -296.5v-23q0 -202 82.5 -299.5t251.5 -97.5q160 0 247 100t87 297z" />
    <glyph glyph-name="numbersign.OT" 
d="M590 0l96 383h-389l-96 -383h-64l96 383h-233v57h248l98 394h-225v57h239l86 338h64l-86 -338h389l86 338h64l-86 -338h249v-57h-264l-98 -394h242v-57h-256l-97 -383h-63zM311 440h389l99 394h-389z" />
    <glyph glyph-name="Euro.OT" 
d="M1087 455q-21 -236 -134 -355.5t-289 -119.5q-169 0 -286.5 110.5t-154.5 327.5h-184v53h178q-8 60 -8 143q0 86 8 146h-178v51h186q36 217 153 327.5t286 110.5q175 0 288.5 -119.5t134.5 -353.5h-71q-20 202 -114 305t-238 103q-137 0 -235 -94t-132 -279h438v-51h-446
q-8 -60 -8 -146t8 -143h446v-53h-438q34 -186 132 -279.5t235 -93.5q144 0 238 102.5t114 307.5h71z" />
    <glyph glyph-name="dollar.OT" 
d="M963 309q0 -157 -102 -243t-271 -86v-236h-55v238q-167 12 -269 110.5t-102 265.5h74q0 -140 81.5 -220t215.5 -93v567q-45 12 -74 20.5t-68.5 24t-65 31.5t-53.5 41.5t-44 55t-26.5 71t-10.5 90.5q0 136 95.5 217t246.5 86v236h55v-238q153 -12 250.5 -108.5
t97.5 -237.5h-74q0 114 -76.5 192.5t-197.5 90.5v-520q51 -13 79 -21t73.5 -25t71.5 -33t58.5 -43.5t49.5 -58.5t29 -76t12 -98zM262 946q0 -51 15 -91t38.5 -66.5t61.5 -48.5t73 -35t85 -27v508q-126 -5 -199.5 -67.5t-73.5 -172.5zM891 309q0 57 -17 102t-42.5 73
t-68.5 51.5t-80 35.5t-93 27v-555q143 3 222 71t79 195z" />
    <glyph glyph-name="cent.OT" 
d="M1061 430q-20 -192 -150.5 -315.5t-316.5 -134.5v-236h-53v236q-206 9 -340.5 157t-134.5 375t134.5 375t340.5 157v236h53v-236q181 -9 309.5 -127t153.5 -301h-74q-22 157 -129.5 255.5t-259.5 107.5v-934q158 11 267 115.5t126 269.5h74zM137 512q0 -199 114 -328.5
t290 -138.5v934q-176 -9 -290 -138.5t-114 -328.5z" />
    <glyph glyph-name="sterling.OT" 
d="M991 66v-66h-821v53q55 69 84.5 110.5t59 95t41.5 104.5t12 110q0 42 -15 96h-178v54h156q-9 18 -47 78t-55 110t-17 119q0 148 100.5 233.5t253.5 85.5q171 0 283.5 -101.5t112.5 -281.5v-26h-72v26q0 153 -93 235.5t-231 82.5q-120 0 -201 -68.5t-81 -185.5
q0 -50 13.5 -95t30.5 -73t41.5 -68.5t37.5 -70.5h464v-54h-448q12 -43 12 -96q0 -192 -178 -407h735z" />
    <glyph glyph-name="florin.OT" 
d="M838 569h-404l-172 -825h-72l172 825h-221v54h232l57 272q39 187 126 270.5t232 83.5q90 0 154 -26v-68q-52 29 -162 29t-178 -71.5t-100 -223.5l-56 -266h392v-54z" />
    <glyph glyph-name="yen.OT" 
d="M915 418h-315v-418h-72v418h-309v53h309v289h-309v51h279l-361 418h82l346 -404l346 404h80l-362 -418h286v-51h-315v-289h315v-53z" />
    <glyph glyph-name="zero.slashOT" 
d="M1018 614q0 -314 -125 -474t-330 -160q-189 0 -307 133l-78 -113h-67l108 160q-108 165 -108 454q0 313 124 474t328 161q189 0 307 -133l78 113h70l-111 -162q111 -165 111 -453zM182 614q0 -241 82 -389l565 830q-100 129 -266 129q-171 0 -276 -144t-105 -426z
M946 614q0 242 -82 390l-567 -830q100 -129 266 -129q172 0 277.5 143.5t105.5 425.5z" />
    <glyph glyph-name="zero.OT" 
d="M563 -20q-205 0 -328.5 160t-123.5 474q0 313 124 474t328 161q99 0 181 -39t143.5 -115.5t96 -199t34.5 -281.5q0 -314 -125 -474t-330 -160zM563 45q172 0 277.5 143.5t105.5 425.5q0 281 -106 425.5t-277 144.5t-276 -144t-105 -426q0 -283 104.5 -426t276.5 -143z
" />
    <glyph glyph-name="one.OT" 
d="M555 1130v99h72v-1229h-72v946h-313v64h188q67 0 96 27.5t29 92.5z" />
    <glyph glyph-name="two.OT" 
d="M954 895q0 -65 -24 -120.5t-65 -97t-94.5 -79t-112 -71t-118 -67.5t-113 -73.5t-95.5 -84t-68 -105t-28 -131.5h737v-66h-819v47q0 80 25 148t67 118t97 93.5t115 78.5t120.5 69t115.5 69.5t97 74t67 88.5t25 109q0 133 -92 211t-230 78q-139 0 -232 -83t-93 -239v-28
h-72v34q0 178 113 279.5t284 101.5q169 0 281 -95t112 -259z" />
    <glyph glyph-name="three.OT" 
d="M1004 332q0 -159 -119 -255.5t-312 -96.5q-195 0 -316.5 98t-121.5 256h72q0 -128 99.5 -208.5t264.5 -80.5q163 0 262 79.5t99 207.5q0 129 -98 209t-265 80h-75v65h75q146 0 231 69t85 179q0 111 -89 180.5t-237 69.5t-237 -75t-89 -196h-71q0 151 109.5 243.5
t287.5 92.5t287.5 -87.5t109.5 -227.5q0 -100 -60 -173.5t-167 -105.5q128 -36 201.5 -121t73.5 -202z" />
    <glyph glyph-name="four.OT" 
d="M63 401l590 828h121v-828h295v-63h-295v-338h-72v338h-639v63zM139 401h563v791z" />
    <glyph glyph-name="five.OT" 
d="M557 778q-133 0 -222.5 -63.5t-107.5 -153.5h-69v668h776v-64h-709v-501q43 79 136 127.5t208 48.5q188 0 306 -119t118 -309q0 -192 -119.5 -312t-314.5 -120q-188 0 -305 109.5t-117 283.5h72q0 -146 95 -237t255 -91q165 0 264 101.5t99 265.5q0 163 -99.5 264.5
t-265.5 101.5z" />
    <glyph glyph-name="six.OT" 
d="M1004 381q0 -175 -120 -288t-294 -113q-101 0 -182.5 33.5t-146.5 106t-100.5 198t-35.5 296.5q0 164 36 288.5t101 199t147 111t181 36.5q173 0 283 -105t110 -276h-72q0 141 -87.5 228.5t-233.5 87.5q-182 0 -286.5 -142t-104.5 -428q0 -82 8 -184q12 91 50 160.5
t93 110.5t118 61t132 20q169 0 286.5 -113t117.5 -288zM590 45q145 0 243.5 94.5t98.5 241.5q0 146 -99 241t-243 95q-143 0 -241.5 -95t-98.5 -241q0 -147 98.5 -241.5t241.5 -94.5z" />
    <glyph glyph-name="seven.OT" 
d="M516 55v-55h-72v53q0 618 467 1112h-764v64h832v-80q-463 -470 -463 -1094z" />
    <glyph glyph-name="eight.OT" 
d="M977 332q0 -157 -114 -254.5t-300 -97.5t-299.5 97.5t-113.5 254.5q0 116 71 201.5t191 121.5q-100 34 -156.5 108.5t-56.5 172.5q0 140 100 226.5t264 86.5t264.5 -86.5t100.5 -226.5q0 -98 -56.5 -172.5t-156.5 -108.5q120 -36 191 -121.5t71 -201.5zM563 686
q135 0 214 69t79 179q0 112 -80 182t-213 70t-213 -70t-80 -182q0 -109 79.5 -178.5t213.5 -69.5zM563 43q155 0 248.5 81t93.5 210t-93.5 210t-248.5 81t-248.5 -81t-93.5 -210t93.5 -210t248.5 -81z" />
    <glyph glyph-name="nine.OT" 
d="M1004 614q0 -164 -36 -288.5t-101 -198.5t-147 -110.5t-181 -36.5q-173 0 -283.5 105t-110.5 275h72q0 -141 87.5 -228t234.5 -87q182 0 286.5 141.5t104.5 427.5q0 83 -8 185q-12 -90 -50 -159.5t-93 -110t-118.5 -60.5t-132.5 -20q-169 0 -285 112t-116 287
q0 176 119.5 288.5t292.5 112.5q80 0 147.5 -20.5t127 -68t101 -119.5t65.5 -180.5t24 -246.5zM539 1184q-143 0 -241.5 -94.5t-98.5 -241.5q0 -146 98.5 -241t241.5 -95q144 0 243 95t99 241q0 147 -98.5 241.5t-243.5 94.5z" />
    <glyph glyph-name="numbersign.OP" horiz-adv-x="1167" 
d="M610 0l97 383h-390l-96 -383h-63l96 383h-234v57h248l99 394h-226v57h240l86 338h63l-86 -338h390l86 338h63l-86 -338h250v-57h-264l-99 -394h242v-57h-256l-96 -383h-64zM332 440h389l98 394h-389z" />
    <glyph glyph-name="Euro.OP" horiz-adv-x="1249" 
d="M1090 455q-21 -237 -134 -356t-290 -119q-169 0 -285.5 110.5t-153.5 327.5h-186v53h180q-8 60 -8 143q0 86 8 146h-180v51h186q37 217 153.5 327.5t285.5 110.5q176 0 289.5 -119.5t134.5 -353.5h-72q-20 203 -113.5 305.5t-238.5 102.5q-137 0 -234 -94t-131 -279h436
v-51h-444q-8 -60 -8 -146t8 -143h444v-53h-436q34 -186 131 -279.5t234 -93.5q145 0 238.5 102.5t113.5 307.5h72z" />
    <glyph glyph-name="dollar.OP" horiz-adv-x="1032" 
d="M915 309q0 -157 -101.5 -243t-270.5 -86v-236h-56v238q-166 12 -268 110.5t-102 265.5h73q0 -140 81.5 -220t215.5 -93v567q-45 12 -74 20.5t-68.5 24t-65 31.5t-53.5 41.5t-44 55t-26.5 71t-10.5 90.5q0 136 95.5 217t246.5 86v236h56v-238q153 -12 250.5 -108.5
t97.5 -237.5h-74q0 114 -76.5 192.5t-197.5 90.5v-520q50 -13 78.5 -21t74 -25t71.5 -33t58 -43.5t49 -59t29 -76t12 -97.5zM215 946q0 -51 15 -91t38 -66.5t61.5 -48.5t73 -35t84.5 -27v508q-125 -5 -198.5 -67.5t-73.5 -172.5zM844 309q0 57 -17 102t-42.5 73t-68.5 51.5
t-80 35.5t-93 27v-555q143 3 222 71t79 195z" />
    <glyph glyph-name="cent.OP" 
d="M1061 430q-20 -192 -150.5 -315.5t-316.5 -134.5v-236h-53v236q-206 9 -340.5 157t-134.5 375t134.5 375t340.5 157v236h53v-236q181 -9 309.5 -127t153.5 -301h-72q-23 157 -131 255.5t-260 107.5v-934q158 11 267 115.5t126 269.5h74zM137 512q0 -199 114 -328.5
t290 -138.5v934q-176 -9 -290 -138.5t-114 -328.5z" />
    <glyph glyph-name="sterling.OP" horiz-adv-x="1036" 
d="M975 66v-66h-819v53q55 71 83.5 111t58.5 94.5t42 105t12 109.5q0 45 -14 96h-180v54h157q-8 17 -46.5 77.5t-55 110.5t-16.5 119q0 148 99.5 233.5t252.5 85.5q171 0 284 -101.5t113 -281.5v-26h-72v26q0 154 -93 236t-232 82q-120 0 -200.5 -68t-80.5 -186
q0 -64 19.5 -114t54.5 -105t49 -88h463v-54h-446q12 -43 12 -96q0 -190 -180 -407h735z" />
    <glyph glyph-name="florin.OP" horiz-adv-x="1089" 
d="M854 569h-401l-174 -825h-72l174 825h-223v54h233l58 272q39 187 126 270.5t232 83.5q90 0 154 -26v-68q-52 29 -164 29q-109 0 -177 -71.5t-100 -223.5l-55 -266h389v-54z" />
    <glyph glyph-name="yen.OP" horiz-adv-x="935" 
d="M819 418h-315v-418h-72v418h-309v53h309v289h-309v51h278l-360 418h82l346 -404l346 404h80l-363 -418h287v-51h-315v-289h315v-53z" />
    <glyph glyph-name="zero.slashOP" 
d="M1018 614q0 -314 -125 -474t-330 -160q-189 0 -307 133l-78 -113h-67l108 160q-108 165 -108 454q0 313 124 474t328 161q189 0 307 -133l78 113h70l-111 -162q111 -165 111 -453zM182 614q0 -241 82 -389l565 830q-100 129 -266 129q-171 0 -276 -144t-105 -426z
M946 614q0 242 -82 390l-567 -830q100 -129 266 -129q172 0 277.5 143.5t105.5 425.5z" />
    <glyph glyph-name="zero.OP" 
d="M563 -20q-205 0 -328.5 160t-123.5 474q0 313 124 474t328 161q99 0 181 -39t143.5 -115.5t96 -199t34.5 -281.5q0 -314 -125 -474t-330 -160zM563 45q172 0 277.5 143.5t105.5 425.5q0 281 -106 425.5t-277 144.5t-276 -144t-105 -426q0 -283 104.5 -426t276.5 -143z
" />
    <glyph glyph-name="one.OP" horiz-adv-x="501" 
d="M252 1139v90h72v-1229h-72v963h-211v61h96q61 0 88 27t27 88z" />
    <glyph glyph-name="two.OP" horiz-adv-x="995" 
d="M899 895q0 -65 -24 -120.5t-65 -97t-94.5 -79t-112.5 -71t-118 -67.5t-113 -73.5t-96 -84t-68 -105t-28 -131.5h738v-66h-820v47q0 80 25 148t67 118t97 93.5t115 78.5t120.5 69t115.5 69.5t97 74t67 88.5t25 109q0 133 -91.5 211t-229.5 78q-140 0 -233 -83t-93 -239
v-28h-71v34q0 179 112.5 280t284.5 101q169 0 281 -95t112 -259z" />
    <glyph glyph-name="three.OP" horiz-adv-x="1085" 
d="M979 332q0 -159 -119 -255.5t-313 -96.5t-315 98t-121 256h71q0 -128 100 -208.5t265 -80.5q163 0 261.5 79.5t98.5 207.5q0 129 -97.5 209t-264.5 80h-76v65h76q145 0 230 68.5t85 179.5t-88.5 180.5t-236.5 69.5t-237 -75t-89 -196h-72q0 151 109.5 243.5t288.5 92.5
q177 0 287 -87.5t110 -227.5q0 -100 -60 -173.5t-167 -105.5q127 -36 200.5 -121t73.5 -202z" />
    <glyph glyph-name="four.OP" horiz-adv-x="1085" 
d="M59 401l588 828h123v-828h295v-63h-295v-338h-72v338h-639v63zM135 401h563v791z" />
    <glyph glyph-name="five.OP" horiz-adv-x="1075" 
d="M553 778q-134 0 -223 -63.5t-107 -153.5h-69v668h774v-64h-707v-501q43 79 136 127.5t208 48.5q188 0 305 -119t117 -309q0 -193 -119 -312.5t-313 -119.5q-190 0 -307 109.5t-117 283.5h74q0 -146 95 -237t255 -91q164 0 262 101.5t98 265.5q0 163 -98.5 264.5
t-263.5 101.5z" />
    <glyph glyph-name="six.OP" horiz-adv-x="1095" 
d="M997 381q0 -175 -120 -288t-293 -113q-101 0 -182.5 33.5t-146.5 106t-100.5 198t-35.5 296.5q0 164 36 288.5t101 199t147 111t181 36.5q173 0 283 -105t110 -276h-72q0 141 -87.5 228.5t-233.5 87.5q-182 0 -286.5 -142t-104.5 -428q0 -82 8 -184q12 91 50 160.5
t93 110.5t118 61t132 20q169 0 286 -113t117 -288zM584 45q145 0 243.5 94.5t98.5 241.5q0 146 -99 241t-243 95q-143 0 -241.5 -95t-98.5 -241q0 -147 98.5 -241.5t241.5 -94.5z" />
    <glyph glyph-name="seven.OP" horiz-adv-x="872" 
d="M389 55v-55h-72v53q0 618 467 1112h-764v64h832v-80q-463 -470 -463 -1094z" />
    <glyph glyph-name="eight.OP" horiz-adv-x="1085" 
d="M956 332q0 -157 -113.5 -254.5t-299.5 -97.5t-300 97.5t-114 254.5q0 116 71 201.5t191 121.5q-100 34 -156.5 108.5t-56.5 172.5q0 140 100.5 226.5t264.5 86.5t264 -86.5t100 -226.5q0 -98 -56.5 -172.5t-156.5 -108.5q120 -36 191 -121.5t71 -201.5zM543 686
q135 0 214 69t79 179q0 112 -80 182t-213 70t-213 -70t-80 -182q0 -109 79.5 -178.5t213.5 -69.5zM543 43q155 0 248.5 81t93.5 210t-93.5 210t-248.5 81t-248.5 -81t-93.5 -210t93.5 -210t248.5 -81z" />
    <glyph glyph-name="nine.OP" horiz-adv-x="1095" 
d="M977 614q0 -164 -36 -288.5t-101 -198.5t-147 -110.5t-181 -36.5q-173 0 -283 105t-110 275h71q0 -141 87.5 -228t234.5 -87q182 0 286.5 141.5t104.5 427.5q0 83 -8 185q-12 -90 -50 -159.5t-93 -110t-118 -60.5t-132 -20q-169 0 -285.5 112t-116.5 287
q0 176 119.5 288.5t292.5 112.5q80 0 147.5 -20.5t127 -68t101 -119.5t65.5 -180.5t24 -246.5zM512 1184q-143 0 -241.5 -94.5t-98.5 -241.5q0 -146 98.5 -241t241.5 -95q144 0 243 95t99 241q0 147 -98.5 241.5t-243.5 94.5z" />
    <glyph glyph-name="plussuperior" horiz-adv-x="665" 
d="M600 905h-244v-252h-47v252h-241v47h241v254h47v-254h244v-47z" />
    <glyph glyph-name="minussuperior" horiz-adv-x="665" 
d="M68 905v47h532v-47h-532z" />
    <glyph glyph-name="multiplysuperior" horiz-adv-x="665" 
d="M545 750l-33 -35l-180 180l-172 -172l-31 33l172 172l-180 178l33 35l180 -180l172 172l31 -33l-170 -170z" />
    <glyph glyph-name="dividesuperior" horiz-adv-x="665" 
d="M281 1139q0 20 15.5 35.5t37.5 15.5q23 0 38 -15t15 -36q0 -23 -15 -38.5t-38 -15.5q-22 0 -37.5 15.5t-15.5 38.5zM68 905v47h532v-47h-532zM281 717q0 21 15.5 35t37.5 14q23 0 38 -13.5t15 -35.5t-15 -36.5t-38 -14.5q-22 0 -37.5 14.5t-15.5 36.5z" />
    <glyph glyph-name="equalsuperior" horiz-adv-x="665" 
d="M68 1038v45h532v-45h-532zM68 772v45h532v-45h-532z" />
    <glyph glyph-name="Eurosuperior" horiz-adv-x="813" 
d="M715 844q0 -153 -77 -236.5t-206 -83.5q-120 0 -194.5 73.5t-83.5 209.5h-127v39h125v2v176v2h-125v41h127q10 134 84.5 206.5t193.5 72.5q129 0 206 -83t77 -235h-64q0 131 -57.5 196.5t-161.5 65.5q-93 0 -149.5 -56.5t-65.5 -166.5h262v-41h-264v-2v-176v-2h264v-39
h-262q9 -113 65.5 -171t149.5 -58q103 0 161 67.5t58 198.5h64z" />
    <glyph glyph-name="zeroslashsuperior" horiz-adv-x="733" 
d="M666 934q0 -202 -82.5 -306t-216.5 -104q-117 0 -197 80l-45 -67h-57l71 106q-71 107 -71 291q0 203 82.5 307.5t216.5 104.5q117 0 194 -80l45 67h60l-72 -106q72 -109 72 -293zM131 934q0 -151 47 -234l348 514q-62 74 -159 74q-106 0 -171 -89.5t-65 -264.5zM602 934
q0 149 -47 235l-348 -514q61 -73 160 -73q107 0 171 88t64 264z" />
    <glyph glyph-name="plusinferior" horiz-adv-x="665" 
d="M600 -143h-244v-252h-47v252h-241v47h241v254h47v-254h244v-47z" />
    <glyph glyph-name="minusinferior" horiz-adv-x="665" 
d="M68 -143v47h532v-47h-532z" />
    <glyph glyph-name="multiplyinferior" horiz-adv-x="665" 
d="M545 -299l-33 -35l-180 180l-172 -172l-31 33l172 170l-180 180l33 35l180 -180l172 172l31 -33l-170 -172z" />
    <glyph glyph-name="divideinferior" horiz-adv-x="665" 
d="M281 90q0 20 15.5 35.5t37.5 15.5q23 0 38 -15t15 -36q0 -23 -15 -38t-38 -15q-22 0 -37.5 15t-15.5 38zM68 -143v47h532v-47h-532zM281 -332q0 21 15.5 35t37.5 14q23 0 38 -13.5t15 -35.5t-15 -36.5t-38 -14.5q-22 0 -37.5 14.5t-15.5 36.5z" />
    <glyph glyph-name="equalinferior" horiz-adv-x="665" 
d="M68 -10v45h532v-45h-532zM68 -276v45h532v-45h-532z" />
    <glyph glyph-name="Euroinferior" horiz-adv-x="813" 
d="M715 -205q0 -153 -77 -236t-206 -83q-121 0 -195 73t-83 209h-127v39h125v2v176v2h-125v41h127q10 134 84.5 206.5t193.5 72.5q129 0 206 -82.5t77 -234.5h-64q0 131 -57.5 196.5t-161.5 65.5q-93 0 -149.5 -57t-65.5 -167h262v-41h-264v-2v-176v-2h264v-39h-262
q9 -113 65.5 -171t149.5 -58q103 0 161 67.5t58 198.5h64z" />
    <glyph glyph-name="zeroslashinferior" horiz-adv-x="733" 
d="M666 -115q0 -202 -82.5 -305.5t-216.5 -103.5q-117 0 -197 80l-45 -68h-57l71 106q-71 107 -71 291q0 203 82.5 307.5t216.5 104.5q117 0 194 -80l45 68h60l-72 -107q72 -109 72 -293zM131 -115q0 -150 47 -233l348 514q-62 74 -159 74q-106 0 -171 -90t-65 -265z
M602 -115q0 150 -47 236l-348 -514q62 -74 160 -74q107 0 171 88t64 264z" />
    <glyph glyph-name="comma.numr" horiz-adv-x="307" 
d="M170 465q0 -62 -68 -168h-43q46 87 56 123h-4q-24 0 -41 16t-17 39q0 24 17 40.5t41 16.5q26 0 42.5 -19t16.5 -48z" />
    <glyph glyph-name="period.numr" horiz-adv-x="307" 
d="M111 420q-26 0 -43 16t-17 41t17 41.5t43 16.5q25 0 41 -16.5t16 -41.5t-16 -41t-41 -16z" />
    <glyph glyph-name="parenleft.numr" horiz-adv-x="452" 
d="M147 1118q0 355 222 621h57q-219 -266 -219 -621t219 -618h-57q-222 266 -222 618z" />
    <glyph glyph-name="parenright.numr" horiz-adv-x="452" 
d="M305 1118q0 -352 -219 -618h-59q219 263 219 618t-219 621h59q219 -266 219 -621z" />
    <glyph glyph-name="plus.numr" horiz-adv-x="665" 
d="M600 1108h-244v-252h-47v252h-241v47h241v254h47v-254h244v-47z" />
    <glyph glyph-name="minus.numr" horiz-adv-x="665" 
d="M68 1108v47h532v-47h-532z" />
    <glyph glyph-name="multiply.numr" horiz-adv-x="665" 
d="M545 952l-33 -34l-180 180l-172 -172l-31 32l172 172l-180 179l33 34l180 -180l172 172l31 -32l-170 -170z" />
    <glyph glyph-name="divide.numr" horiz-adv-x="665" 
d="M281 1341q0 21 15.5 36.5t37.5 15.5q23 0 38 -15.5t15 -36.5q0 -23 -15 -38t-38 -15q-22 0 -37.5 15t-15.5 38zM68 1108v47h532v-47h-532zM281 920q0 21 15.5 35t37.5 14q23 0 38 -13.5t15 -35.5t-15 -37t-38 -15q-22 0 -37.5 15t-15.5 37z" />
    <glyph glyph-name="equal.numr" horiz-adv-x="665" 
d="M68 1241v45h532v-45h-532zM68 975v45h532v-45h-532z" />
    <glyph glyph-name="Euro.numr" horiz-adv-x="813" 
d="M715 1047q0 -153 -77 -236.5t-206 -83.5q-120 0 -194.5 73.5t-83.5 209.5h-127v39h125v2v176v2h-125v41h127q10 134 84.5 206t193.5 72q129 0 206 -82.5t77 -234.5h-64q0 131 -57.5 196.5t-161.5 65.5q-93 0 -149.5 -56.5t-65.5 -166.5h262v-41h-264v-2v-176v-2h264v-39
h-262q9 -113 65.5 -171.5t149.5 -58.5q103 0 161 68t58 199h64z" />
    <glyph glyph-name="dollar.numr" horiz-adv-x="671" 
d="M600 946q0 -104 -68 -161.5t-176 -57.5v-154h-41v156q-110 8 -176.5 71.5t-66.5 174.5h63q0 -85 49.5 -136t130.5 -59v348q-43 12 -68 20.5t-59 26t-52.5 38.5t-32 55.5t-13.5 79.5q0 91 65 145.5t160 54.5v156h41v-158q100 -9 164 -72t64 -155h-62q0 68 -46.5 116.5
t-119.5 57.5v-317q34 -9 52 -14t48 -16t46.5 -21.5t38 -28t32.5 -38t19 -49t8 -63.5zM150 1348q0 -37 12 -64t37.5 -45.5t51 -29.5t64.5 -23v309q-76 -3 -120.5 -41.5t-44.5 -105.5zM539 944q0 41 -14 71t-43 49.5t-56 30.5t-70 23v-340q87 3 135 45.5t48 120.5z" />
    <glyph glyph-name="cent.numr" horiz-adv-x="733" 
d="M692 1022q-12 -127 -95.5 -207t-207.5 -88v-154h-39v154q-134 6 -221.5 102t-87.5 244q0 146 88 243t221 103v152h39v-152q120 -8 202 -84t97 -196h-61q-13 94 -79.5 154.5t-158.5 68.5v-580q96 8 163 73t77 167h63zM102 1073q0 -125 69.5 -205t178.5 -86v580
q-107 -6 -177.5 -86t-70.5 -203z" />
    <glyph glyph-name="zeroslash.numr" horiz-adv-x="733" 
d="M666 1137q0 -202 -82.5 -306t-216.5 -104q-117 0 -197 80l-45 -68h-57l71 107q-71 107 -71 291q0 202 82.5 306.5t216.5 104.5q117 0 194 -80l45 68h60l-72 -106q72 -109 72 -293zM131 1137q0 -151 47 -234l348 514q-62 74 -159 74q-106 0 -171 -89.5t-65 -264.5z
M602 1137q0 149 -47 235l-348 -514q62 -74 160 -74q106 0 170.5 88.5t64.5 264.5z" />
    <glyph glyph-name="zero.numr" horiz-adv-x="733" 
d="M367 727q-134 0 -216.5 104t-82.5 306t82.5 306.5t216.5 104.5t216.5 -104.5t82.5 -306.5t-82.5 -306t-216.5 -104zM367 784q105 0 169 88.5t64 264.5q0 175 -64 264.5t-169 89.5t-169.5 -90t-64.5 -264q0 -175 64.5 -264t169.5 -89z" />
    <glyph glyph-name="one.numr" horiz-adv-x="440" 
d="M164 1483v53h65v-797h-65v611h-137v53h57q43 0 61.5 18.5t18.5 61.5z" />
    <glyph glyph-name="two.numr" horiz-adv-x="647" 
d="M586 1315q0 -46 -19 -85t-50 -66.5t-70.5 -54.5t-81 -48.5t-82 -49.5t-72 -57t-52 -70t-22.5 -89h461v-56h-537v35q0 63 25.5 116t66 89t89.5 68t98.5 60t90 57t66 67.5t25.5 83.5q0 81 -55 129.5t-137 48.5q-87 0 -143 -51t-56 -148v-18h-63v24q0 115 75 181.5t187 66.5
q110 0 183 -62t73 -171z" />
    <glyph glyph-name="three.numr" horiz-adv-x="706" 
d="M639 958q0 -105 -77.5 -168t-205.5 -63t-208 65.5t-80 170.5h63q0 -80 61.5 -130.5t161.5 -50.5q102 0 163 50t61 129q0 77 -60.5 124.5t-165.5 47.5h-51v53h51q89 0 142 42t53 109q0 70 -55 113t-146 43t-145 -46.5t-54 -121.5h-61q0 101 71.5 162t188.5 61
q118 0 191 -58t73 -151q0 -61 -36.5 -108t-102.5 -70q78 -25 123 -78.5t45 -124.5z" />
    <glyph glyph-name="four.numr" horiz-adv-x="706" 
d="M37 1006l369 530h104v-530h182v-56h-182v-211h-64v211h-409v56zM100 1006h346v501z" />
    <glyph glyph-name="five.numr" horiz-adv-x="698" 
d="M360 1237q-84 0 -138 -39.5t-64 -95.5h-64v434h512v-55h-450v-301q30 50 87 79t128 29q122 0 198 -78t76 -202q0 -125 -79 -203t-206 -78q-124 0 -201 71t-77 187h63q0 -90 59 -146.5t156 -56.5q101 0 162.5 64t61.5 162q0 101 -61 165t-163 64z" />
    <glyph glyph-name="six.numr" horiz-adv-x="712" 
d="M651 987q0 -114 -79 -187t-193 -73q-137 0 -221 99.5t-84 314.5q0 205 85.5 306t219.5 101q115 0 187.5 -67.5t72.5 -175.5h-59q-2 84 -56 136t-145 52q-111 0 -176.5 -87.5t-65.5 -264.5q0 -38 4 -92q21 96 91 148t159 52q108 0 184 -72.5t76 -189.5zM379 782
q89 0 149 58t60 147q0 91 -60 150t-149 59t-149 -59t-60 -150q0 -89 60 -147t149 -58z" />
    <glyph glyph-name="seven.numr" horiz-adv-x="567" 
d="M262 776v-37h-61v37q0 391 295 705h-482v55h539v-70q-291 -306 -291 -690z" />
    <glyph glyph-name="eight.numr" horiz-adv-x="706" 
d="M627 958q0 -103 -75.5 -167t-199.5 -64t-198 64t-74 167q0 72 43.5 127t116.5 82q-60 23 -93.5 69.5t-33.5 106.5q0 91 65.5 148t173.5 57q110 0 176 -57t66 -148q0 -61 -33.5 -107t-93.5 -69q73 -27 116.5 -82t43.5 -127zM352 1192q83 0 131.5 41t48.5 106q0 68 -49 111
t-131 43q-81 0 -129.5 -43t-48.5 -111q0 -65 47.5 -106t130.5 -41zM352 782q97 0 154 50t57 129q0 81 -57 130.5t-154 49.5q-96 0 -152.5 -50t-56.5 -130q0 -79 57 -129t152 -50z" />
    <glyph glyph-name="nine.numr" horiz-adv-x="712" 
d="M639 1135q0 -205 -85.5 -306.5t-219.5 -101.5q-114 0 -187 68t-73 176h61q0 -84 54.5 -136.5t144.5 -52.5q112 0 176.5 87.5t64.5 265.5q0 38 -4 92q-21 -97 -90.5 -150t-158.5 -53q-108 0 -184.5 74t-76.5 190q0 115 79 187.5t194 72.5q137 0 221 -99t84 -314zM334 1493
q-89 0 -149 -58t-60 -147q0 -91 60 -150t149 -59t149 59t60 150q0 89 -60 147t-149 58z" />
    <glyph glyph-name="comma.dnom" horiz-adv-x="208" 
d="M170 33q0 -62 -68 -168h-43q46 87 56 123h-4q-24 0 -41 16t-17 39q0 24 17 40.5t41 16.5q26 0 42.5 -19t16.5 -48z" />
    <glyph glyph-name="period.dnom" horiz-adv-x="208" 
d="M111 -12q-26 0 -43 16t-17 41t17 41t43 16q25 0 41 -16t16 -41t-16 -41t-41 -16z" />
    <glyph glyph-name="parenleft.dnom" horiz-adv-x="452" 
d="M147 379q0 354 222 620h57q-219 -266 -219 -620q0 -356 219 -619h-57q-222 266 -222 619z" />
    <glyph glyph-name="parenright.dnom" horiz-adv-x="452" 
d="M305 379q0 -353 -219 -619h-59q219 263 219 619q0 354 -219 620h59q219 -266 219 -620z" />
    <glyph glyph-name="plus.dnom" horiz-adv-x="665" 
d="M600 369h-244v-252h-47v252h-241v47h241v254h47v-254h244v-47z" />
    <glyph glyph-name="minus.dnom" horiz-adv-x="665" 
d="M68 369v47h532v-47h-532z" />
    <glyph glyph-name="multiply.dnom" horiz-adv-x="665" 
d="M545 213l-33 -35l-180 180l-172 -172l-31 33l172 172l-180 178l33 35l180 -180l172 172l31 -33l-170 -170z" />
    <glyph glyph-name="divide.dnom" horiz-adv-x="665" 
d="M281 602q0 20 15.5 35.5t37.5 15.5q23 0 38 -15t15 -36q0 -23 -15 -38t-38 -15q-22 0 -37.5 15t-15.5 38zM68 369v47h532v-47h-532zM281 180q0 21 15.5 35t37.5 14q23 0 38 -13.5t15 -35.5t-15 -36.5t-38 -14.5q-22 0 -37.5 14.5t-15.5 36.5z" />
    <glyph glyph-name="equal.dnom" horiz-adv-x="665" 
d="M68 502v45h532v-45h-532zM68 236v45h532v-45h-532z" />
    <glyph glyph-name="Euro.dnom" horiz-adv-x="813" 
d="M715 307q0 -153 -77 -236t-206 -83q-121 0 -195 73t-83 209h-127v39h125v2v176v2h-125v41h127q10 134 84.5 206.5t193.5 72.5q129 0 206 -82.5t77 -234.5h-64q0 131 -57.5 196.5t-161.5 65.5q-93 0 -149.5 -57t-65.5 -167h262v-41h-264v-2v-176v-2h264v-39h-262
q9 -113 65.5 -171t149.5 -58q103 0 161 67.5t58 198.5h64z" />
    <glyph glyph-name="dollar.dnom" horiz-adv-x="671" 
d="M600 207q0 -104 -68 -161.5t-176 -57.5v-154h-41v156q-110 8 -176.5 71.5t-66.5 174.5h63q0 -85 49.5 -136t130.5 -59v348q-43 12 -68 20t-59 26t-52.5 38.5t-32 55t-13.5 79.5q0 91 65 146t160 55v156h41v-158q100 -9 164 -72t64 -155h-62q0 68 -46.5 116.5t-119.5 57.5
v-318q35 -9 52 -14t47.5 -16t47 -21t38 -27.5t32.5 -38t19 -49t8 -63.5zM150 608q0 -37 12 -64t37.5 -45.5t51 -29.5t64.5 -23v310q-76 -3 -120.5 -42t-44.5 -106zM539 205q0 41 -14 71t-43 49.5t-56 30.5t-70 23v-340q87 3 135 45.5t48 120.5z" />
    <glyph glyph-name="cent.dnom" horiz-adv-x="733" 
d="M692 283q-12 -127 -95.5 -207t-207.5 -88v-154h-39v154q-134 6 -221.5 102t-87.5 244q0 146 88 243t221 103v151h39v-151q120 -8 202 -84.5t97 -196.5h-61q-13 94 -79.5 155t-158.5 69v-580q96 8 163 73t77 167h63zM102 334q0 -125 69.5 -205t178.5 -86v580
q-107 -6 -177.5 -86t-70.5 -203z" />
    <glyph glyph-name="zeroslash.dnom" horiz-adv-x="733" 
d="M666 397q0 -202 -82.5 -305.5t-216.5 -103.5q-117 0 -197 80l-45 -68h-57l71 106q-71 107 -71 291q0 203 82.5 307.5t216.5 104.5q117 0 194 -80l45 68h60l-72 -107q72 -109 72 -293zM131 397q0 -150 47 -233l348 514q-62 74 -159 74q-106 0 -171 -90t-65 -265zM602 397
q0 150 -47 236l-348 -514q62 -74 160 -74q107 0 171 88t64 264z" />
    <glyph glyph-name="zero.dnom" horiz-adv-x="733" 
d="M367 -12q-134 0 -216.5 103.5t-82.5 305.5q0 203 82.5 307.5t216.5 104.5t216.5 -104.5t82.5 -307.5q0 -202 -82.5 -305.5t-216.5 -103.5zM367 45q105 0 169 88.5t64 263.5t-64 265t-169 90t-169.5 -90.5t-64.5 -264.5q0 -175 64.5 -263.5t169.5 -88.5z" />
    <glyph glyph-name="one.dnom" horiz-adv-x="327" 
d="M164 743v54h65v-797h-65v610h-137v54h57q43 0 61.5 18t18.5 61z" />
    <glyph glyph-name="two.dnom" horiz-adv-x="647" 
d="M586 575q0 -46 -19 -85t-50 -66.5t-70.5 -54.5t-81 -48.5t-82 -49.5t-72 -57t-52 -70t-22.5 -89h461v-55h-537v35q0 63 25.5 116t66 89t89.5 67.5t98.5 59.5t90 57t66 67.5t25.5 83.5q0 81 -55 130t-137 49q-87 0 -143 -51t-56 -148v-18h-63v24q0 115 75 181.5t187 66.5
q110 0 183 -62.5t73 -171.5z" />
    <glyph glyph-name="three.dnom" horiz-adv-x="706" 
d="M639 219q0 -105 -77.5 -168t-205.5 -63t-208 65t-80 170h63q0 -80 61 -130t162 -50q102 0 163 49.5t61 128.5q0 77 -60.5 124.5t-165.5 47.5h-51v53h51q89 0 142 42.5t53 109.5q0 70 -55 113t-146 43t-145 -46.5t-54 -121.5h-61q0 101 71.5 162t188.5 61q118 0 191 -58
t73 -151q0 -61 -36.5 -108t-102.5 -70q78 -25 123 -78.5t45 -124.5z" />
    <glyph glyph-name="four.dnom" horiz-adv-x="706" 
d="M37 266l369 531h104v-531h182v-55h-182v-211h-64v211h-409v55zM100 266h346v502z" />
    <glyph glyph-name="five.dnom" horiz-adv-x="698" 
d="M360 498q-84 0 -138 -40t-64 -96h-64v435h512v-56h-450v-301q30 50 87 79.5t128 29.5q121 0 197.5 -78t76.5 -203t-79 -202.5t-206 -77.5q-124 0 -201 71t-77 187h63q0 -90 59 -146.5t156 -56.5q101 0 162.5 63.5t61.5 161.5q0 101 -61.5 165.5t-162.5 64.5z" />
    <glyph glyph-name="six.dnom" horiz-adv-x="712" 
d="M651 248q0 -114 -79 -187t-193 -73q-137 0 -221 99t-84 314q0 205 85.5 306.5t219.5 101.5q114 0 187 -68t73 -176h-59q-2 84 -56 136.5t-145 52.5q-111 0 -176.5 -88t-65.5 -265q0 -38 4 -92q21 96 91 148.5t159 52.5q108 0 184 -72.5t76 -189.5zM379 43q89 0 149 58
t60 147q0 91 -60 150t-149 59t-149 -59t-60 -150q0 -89 60 -147t149 -58z" />
    <glyph glyph-name="seven.dnom" horiz-adv-x="567" 
d="M262 37v-37h-61v37q0 390 295 704h-482v56h539v-70q-291 -306 -291 -690z" />
    <glyph glyph-name="eight.dnom" horiz-adv-x="706" 
d="M627 219q0 -103 -75.5 -167t-199.5 -64t-198 64t-74 167q0 72 43.5 127t116.5 82q-60 23 -93.5 69.5t-33.5 106.5q0 91 65.5 148t173.5 57q110 0 176 -57t66 -148q0 -61 -33.5 -107t-93.5 -69q73 -27 116.5 -82t43.5 -127zM352 453q83 0 131.5 41t48.5 106q0 68 -49 111
t-131 43q-81 0 -129.5 -43t-48.5 -111q0 -65 47.5 -106t130.5 -41zM352 43q97 0 154 49.5t57 128.5q0 81 -57 130.5t-154 49.5q-96 0 -152.5 -50t-56.5 -130q0 -79 56.5 -128.5t152.5 -49.5z" />
    <glyph glyph-name="nine.dnom" horiz-adv-x="712" 
d="M639 395q0 -205 -85.5 -306t-219.5 -101q-115 0 -187.5 67.5t-72.5 175.5h61q0 -84 54.5 -136t144.5 -52q112 0 176.5 87t64.5 265q0 38 -4 92q-21 -97 -90.5 -149.5t-158.5 -52.5q-108 0 -184.5 74t-76.5 190q0 115 79 187.5t194 72.5q137 0 221 -99.5t84 -314.5z
M334 754q-89 0 -149 -58t-60 -147q0 -91 60 -150t149 -59t149 59t60 150q0 89 -60 147t-149 58z" />
    <glyph glyph-name="fraction.OP" horiz-adv-x="348" 
d="M-279 0l844 1229h62l-844 -1229h-62z" />
    </font>
</defs>
</svg>
