<?xml version="1.0" standalone="no"?>
<!DOCTYPE svg PUBLIC "-//W3C//DTD SVG 1.1//EN" "http://www.w3.org/Graphics/SVG/1.1/DTD/svg11.dtd" >
<svg xmlns="http://www.w3.org/2000/svg" xmlns:xlink="http://www.w3.org/1999/xlink" version="1.1">
<metadata>
Created by FontForge 20201107 at Wed Jan 11 22:20:41 2023
 By 
Copyright 2019 The Sofia Sans Project Authors (https://github.com/lettersoup/Sofia-Sans)
</metadata>
<defs>
<font id="SofiaSansExtraCondensed-Light" horiz-adv-x="0" >
  <font-face 
    font-family="Sofia Sans Extra Condensed Light"
    font-weight="300"
    font-stretch="normal"
    units-per-em="1000"
    panose-1="0 0 0 0 0 0 0 0 0 0"
    ascent="800"
    descent="-200"
    x-height="482"
    cap-height="655"
    bbox="-78.5 -216 1005.5 867"
    underline-thickness="50"
    underline-position="-125"
    unicode-range="U+000D-FB02"
  />
<missing-glyph horiz-adv-x="336" 
d="M68 0q-4 0 -4 6v655q0 6 4 6h200q5 0 5 -6v-655q0 -6 -5 -6h-200zM100 35h137v597h-137v-597z" />
    <glyph glyph-name="f_f" unicode="ff" horiz-adv-x="455" 
d="M77 0q-5 0 -5 6v437h-47q-5 0 -5 5v28q0 6 5 6h47v79q0 66 21.5 97t69.5 31q19 0 34.5 -3.5t25.5 -7.5q5 -4 5 -9v-26q0 -3 -2 -4.5t-6 0.5q-11 4 -23.5 7t-26.5 3q-32 0 -44.5 -20.5t-12.5 -67.5v-79h92q6 0 6 -6v-28q0 -5 -6 -5h-92v-437q0 -6 -5 -6h-31zM302 0
q-5 0 -5 6v437h-47q-5 0 -5 5v28q0 6 5 6h47v79q0 66 21.5 97t69.5 31q19 0 34.5 -3.5t25.5 -7.5q5 -4 5 -9v-26q0 -3 -2 -4.5t-6 0.5q-11 4 -23.5 7t-26.5 3q-32 0 -44.5 -20.5t-12.5 -67.5v-79h92q6 0 6 -6v-28q0 -5 -6 -5h-92v-437q0 -6 -5 -6h-31z" />
    <glyph glyph-name="f_i" unicode="fi" horiz-adv-x="341" 
d="M77 0q-5 0 -5 6v437h-47q-5 0 -5 5v28q0 6 5 6h47v79q0 66 21.5 97t70.5 31q25 0 44 -4t28 -7q5 -3 5 -9v-26q0 -7 -7 -4q-12 4 -29 7t-35 3q-31 0 -44 -20.5t-13 -68.5v-78h170q5 0 5 -6v-470q0 -6 -5 -6h-32q-4 0 -4 6v437h-134v-437q0 -6 -5 -6h-31z" />
    <glyph glyph-name="f_l" unicode="fl" horiz-adv-x="341" 
d="M77 0q-5 0 -5 6v437h-47q-5 0 -5 5v28q0 6 5 6h47v80q0 65 21.5 96t74.5 31q21 0 42 -3t40 -6l33 3q5 0 5 -6v-671q0 -6 -5 -6h-31q-5 0 -5 6v635q-14 3 -33 5.5t-39 2.5q-35 0 -48.5 -20.5t-13.5 -67.5v-79h80q6 0 6 -6v-28q0 -5 -6 -5h-80v-437q0 -6 -5 -6h-31z" />
    <glyph glyph-name=".notdef" horiz-adv-x="336" 
d="M68 0q-4 0 -4 6v655q0 6 4 6h200q5 0 5 -6v-655q0 -6 -5 -6h-200zM100 35h137v597h-137v-597z" />
    <glyph glyph-name=".null" 
 />
    <glyph glyph-name="nonmarkingreturn" horiz-adv-x="333" 
 />
    <glyph glyph-name="CR" unicode="&#xd;" horiz-adv-x="2" 
 />
    <glyph glyph-name="space" unicode=" " horiz-adv-x="138" 
 />
    <glyph glyph-name="exclam" unicode="!" horiz-adv-x="148" 
d="M58 176q-4 0 -4 6l-3 467q0 6 4 6h37q5 0 5 -6l-3 -467q0 -6 -5 -6h-31zM74 -6q-15 0 -23 8t-8 23v7q0 15 8 23t23 8t23 -8t8 -23v-7q0 -15 -8 -23t-23 -8z" />
    <glyph glyph-name="quotedbl" unicode="&#x22;" horiz-adv-x="240" 
d="M166 431q-6 0 -6 6v240q0 6 6 6h28q6 0 6 -6v-240q0 -6 -6 -6h-28zM46 431q-6 0 -6 6v240q0 6 6 6h28q6 0 6 -6v-240q0 -6 -6 -6h-28z" />
    <glyph glyph-name="numbersign" unicode="#" horiz-adv-x="353" 
d="M81 0q-6 0 -6 6v125h-48q-6 0 -6 6v26q0 6 6 6h48v275h-48q-6 0 -6 6v26q0 6 6 6h48v125q0 6 6 6h24q6 0 6 -6v-125h130v125q0 6 6 6h24q5 0 5 -6v-125h49q6 0 6 -6v-26q0 -6 -6 -6h-49v-275h49q6 0 6 -6v-26q0 -6 -6 -6h-49v-125q0 -6 -5 -6h-24q-6 0 -6 6v125h-130
v-125q0 -6 -6 -6h-24zM111 169h130v275h-130v-275z" />
    <glyph glyph-name="dollar" unicode="$" horiz-adv-x="420" 
d="M208 -6q-68 0 -98 47.5t-26 131.5q0 6 5 6h30q6 0 5 -6q-3 -71 19 -105t67 -34q43 0 65 27.5t22 86.5q0 53 -13 85t-48 61l-69 58q-41 35 -59 72t-18 95q0 67 33 104.5t86 37.5q63 0 94 -45.5t27 -128.5q0 -7 -6 -7h-29q-6 0 -5 7q2 65 -19 99.5t-62 34.5q-34 0 -56 -26
t-22 -75q0 -46 14.5 -74.5t46.5 -57.5l68 -57q29 -25 46 -50.5t24.5 -56.5t7.5 -74q0 -76 -32.5 -116t-97.5 -40zM200 -89q-6 0 -6 6v83l36 2v-85q0 -6 -6 -6h-24zM194 655v81q0 6 6 6h24q6 0 6 -6v-83z" />
    <glyph glyph-name="percent" unicode="%" horiz-adv-x="573" 
d="M158 0q-6 0 -4 7l117 329l108 316q1 4 6 4h29q8 0 4 -7l-112 -316l-113 -329q-1 -4 -6 -4h-29zM145 324q-48 0 -72.5 29t-24.5 78v121q0 49 24.5 79t72.5 30q47 0 71.5 -30t24.5 -79v-121q0 -49 -24.5 -78t-71.5 -29zM145 356q62 0 62 75v122q0 37 -15 56t-47 19t-47 -19
t-15 -56v-122q0 -75 62 -75zM429 -6q-47 0 -72 29.5t-25 78.5v121q0 49 25 78.5t72 29.5t71.5 -29.5t24.5 -78.5v-121q0 -49 -24.5 -78.5t-71.5 -29.5zM429 27q32 0 46.5 19t14.5 56v122q0 37 -14.5 56t-46.5 19q-33 0 -47.5 -19t-14.5 -56v-122q0 -37 14.5 -56t47.5 -19z
" />
    <glyph glyph-name="ampersand" unicode="&#x26;" horiz-adv-x="389" 
d="M341 0q-4 0 -6 3l-226 380q-21 34 -34 75t-13 85q0 58 25.5 88t70.5 30q41 0 62 -29t21 -81q0 -33 -7.5 -62.5t-25.5 -61t-51 -72.5l-21 27q31 38 49 75.5t18 90.5q0 37 -12 56.5t-35 19.5q-25 0 -40.5 -19.5t-15.5 -60.5q0 -37 11 -72t32 -71l235 -393q1 -3 1 -5.5
t-4 -2.5h-34zM156 -6q-59 0 -89.5 41t-30.5 115q0 29 5 56.5t16 55t28.5 55t42.5 56.5l20 -27q-27 -36 -43.5 -67.5t-23.5 -61.5t-7 -65q0 -57 22.5 -89t63.5 -32q68 0 105 77.5t37 233.5q0 5 6 5h26q6 0 6 -5q0 -113 -22 -190.5t-63 -117.5t-99 -40z" />
    <glyph glyph-name="quotesingle" unicode="'" horiz-adv-x="120" 
d="M46 431q-6 0 -6 6v240q0 6 6 6h28q6 0 6 -6v-240q0 -6 -6 -6h-28z" />
    <glyph glyph-name="parenleft" unicode="(" horiz-adv-x="169" 
d="M118 -140q-31 32 -46 56.5t-20 53.5t-5 73v469q0 45 5 74t20 53.5t46 55.5q4 4 8 0l18 -19q2 -2 2 -4t-2 -4q-23 -26 -35.5 -46.5t-17 -45t-4.5 -64.5v-469q0 -40 4.5 -65t17 -44.5t35.5 -46.5q2 -2 2 -4t-2 -4l-18 -19q-4 -4 -8 0z" />
    <glyph glyph-name="parenright" unicode=")" horiz-adv-x="169" 
d="M43 -140l-19 19q-2 2 -2 4t2 4q24 27 36.5 46.5t17 44.5t4.5 65v469q0 40 -5 64.5t-17.5 45t-35.5 46.5q-2 2 -2 4t2 4l19 19q4 5 8 0q31 -31 46 -55.5t19.5 -53.5t4.5 -74v-469q0 -44 -4.5 -73t-19.5 -53.5t-46 -56.5q-4 -5 -8 0z" />
    <glyph glyph-name="asterisk" unicode="*" horiz-adv-x="315" 
d="M96 453l-18 15q-4 3 -1 7l60 68l-87 26q-3 2 -4 3t0 4l9 22q1 5 7 3l83 -34l-4 92q0 5 4 5h24q3 0 4 -1.5t1 -3.5l-4 -93l84 35q2 1 4 1t3 -4l8 -22q1 -3 0 -4.5t-4 -2.5l-88 -26l61 -68q1 -1 1 -3.5t-2 -3.5l-19 -15q-3 -3 -7 1l-54 74l-54 -74q-2 -4 -7 -1z" />
    <glyph glyph-name="plus" unicode="+" horiz-adv-x="420" 
d="M196 179q-6 0 -6 6v97h-97q-5 0 -5 5v27q0 6 5 6h97v98q0 5 6 5h27q6 0 6 -5v-98h97q6 0 6 -6v-27q0 -5 -6 -5h-97v-97q0 -6 -6 -6h-27z" />
    <glyph glyph-name="comma" unicode="," horiz-adv-x="150" 
d="M28 -138q-5 0 -4 7l44 218q1 6 6 6h36q3 0 4.5 -2t0.5 -6l-56 -218q-1 -5 -5 -5h-26z" />
    <glyph glyph-name="hyphen" unicode="-" horiz-adv-x="290" 
d="M49 248q-5 0 -5 6v23q0 6 5 6h192q6 0 6 -6v-23q0 -6 -6 -6h-192z" />
    <glyph glyph-name="period" unicode="." horiz-adv-x="148" 
d="M74 -6q-14 0 -22.5 8t-8.5 23v7q0 15 8.5 23t22.5 8q15 0 23 -8t8 -23v-7q0 -15 -8 -23t-23 -8z" />
    <glyph glyph-name="slash" unicode="/" horiz-adv-x="224" 
d="M12 0q-5 0 -3 6l168 644q1 5 6 5h29q5 0 3 -7l-169 -643q-1 -5 -4 -5h-30z" />
    <glyph glyph-name="zero" unicode="0" horiz-adv-x="355" 
d="M178 -6q-66 0 -99.5 45.5t-33.5 132.5v311q0 88 33.5 133t99.5 45q65 0 98.5 -45t33.5 -133v-311q0 -87 -33.5 -132.5t-98.5 -45.5zM178 34q46 0 68 34.5t22 104.5v308q0 71 -22 105.5t-68 34.5q-47 0 -69.5 -34.5t-22.5 -105.5v-308q0 -70 22.5 -104.5t69.5 -34.5z" />
    <glyph glyph-name="one" unicode="1" horiz-adv-x="274" 
d="M32 0q-6 0 -6 6v28q0 6 6 6h96v566l-95 -41q-2 -1 -4 0t-2 4v28q0 5 5 7l120 53q4 2 7 2h5q5 0 5 -6v-613h87q6 0 6 -6v-28q0 -6 -6 -6h-224z" />
    <glyph glyph-name="two" unicode="2" horiz-adv-x="324" 
d="M48 0q-6 0 -6 6v37q0 69 14.5 116.5t37.5 81t49 60.5t48.5 54.5t37 62t14.5 84.5v14q0 56 -18 80.5t-58 24.5q-45 0 -64 -32t-16 -94q0 -6 -6 -6h-28q-6 0 -6 6q-3 82 27 124t93 42q59 0 88.5 -36t29.5 -113q0 -61 -14.5 -101.5t-37 -69.5t-48.5 -55t-48.5 -57t-37 -76
t-14.5 -113h193q5 0 5 -6v-28q0 -6 -5 -6h-230z" />
    <glyph glyph-name="three" unicode="3" horiz-adv-x="334" 
d="M161 -6q-65 0 -94 44t-28 125q0 6 6 6h28q6 0 6 -6q-1 -65 19 -97t65 -32q43 0 66.5 33t23.5 97v21q0 65 -23 98.5t-74 33.5h-36q-6 0 -6 5v28q0 6 6 6h36q39 0 63.5 35.5t24.5 99.5v19q0 57 -19.5 84t-59.5 27q-45 0 -65 -33t-18 -93q0 -6 -6 -6h-28q-6 0 -6 6
q-2 80 29.5 123t95.5 43q59 0 88.5 -38t29.5 -119q0 -69 -19.5 -109t-51.5 -55v-1q38 -14 59 -52t21 -111q0 -91 -34.5 -136.5t-98.5 -45.5z" />
    <glyph glyph-name="four" unicode="4" horiz-adv-x="324" 
d="M222 0q-6 0 -6 6v135h-199q-6 0 -6 6v4v4.5t1 3.5l161 491q2 5 7 5h30q6 0 4 -7l-151 -467h153l2 238q0 6 6 6h27q6 0 6 -6v-238h49q6 0 6 -5v-29q0 -6 -6 -6h-49v-135q0 -6 -6 -6h-29z" />
    <glyph glyph-name="five" unicode="5" horiz-adv-x="312" 
d="M152 -6q-41 0 -68 19.5t-39.5 57t-11.5 92.5q0 4 1.5 5t4.5 1h28q5 0 5 -6q-1 -60 17.5 -94.5t63.5 -34.5q44 0 67 39.5t23 113.5v27q0 46 -8 79.5t-27.5 52.5t-52.5 19q-24 0 -49 -9.5t-49 -24.5q-5 -3 -8.5 -1t-3.5 6l26 313q0 6 6 6h178q6 0 6 -6v-28q0 -6 -6 -6h-147
l-21 -233q20 10 39.5 16t40.5 6q61 0 89.5 -51.5t28.5 -153.5q0 -98 -34.5 -151.5t-98.5 -53.5z" />
    <glyph glyph-name="six" unicode="6" horiz-adv-x="348" 
d="M177 -6q-68 0 -100 43.5t-32 136.5v305q0 93 32.5 137.5t100.5 44.5q56 0 86.5 -34t30.5 -96q0 -7 -6 -7h-28q-6 0 -6 7q0 43 -20 66.5t-57 23.5q-48 0 -70 -33t-22 -108v-304q0 -75 21 -108.5t69 -33.5q46 0 68.5 41t22.5 127v11q0 83 -17 117.5t-57 34.5
q-25 0 -53 -13.5t-62 -42.5v41q35 29 65 42t60 13q55 0 80.5 -46.5t25.5 -150.5q0 -106 -33 -160t-99 -54z" />
    <glyph glyph-name="seven" unicode="7" horiz-adv-x="311" 
d="M93 0q-2 0 -3 2t0 6l161 607h-180v-104q0 -6 -6 -6h-29q-6 0 -6 6v138q0 6 6 6h259q6 0 6 -6v-5q0 -5 -1 -9l-169 -630q-2 -5 -6 -5h-32z" />
    <glyph glyph-name="eight" unicode="8" horiz-adv-x="345" 
d="M173 -6q-139 0 -139 175q0 72 22 118t63 63q-35 18 -51.5 54.5t-16.5 95.5q0 77 31.5 119t90.5 42q58 0 89 -42t31 -119q0 -59 -16 -95.5t-51 -54.5q41 -17 63 -63t22 -118q0 -175 -138 -175zM173 32q49 0 72.5 32t23.5 100v13q0 76 -25 115.5t-71 39.5
q-47 0 -72.5 -39.5t-25.5 -115.5v-13q0 -68 24 -100t74 -32zM173 368q38 0 59 32t21 91v12q0 61 -20 90.5t-60 29.5q-41 0 -61 -29.5t-20 -90.5v-12q0 -59 21 -91t60 -32z" />
    <glyph glyph-name="nine" unicode="9" horiz-adv-x="352" 
d="M174 -6q-60 0 -89.5 37t-29.5 111q0 5 6 5h28q6 0 6 -5q0 -55 19 -81.5t59 -26.5q48 0 70 32t22 107v304q0 75 -21 109.5t-68 34.5t-69 -38t-22 -128v-11q0 -82 17.5 -118t57.5 -36q26 0 52.5 14t61.5 43v-41q-35 -30 -64.5 -43t-59.5 -13q-54 0 -80.5 48t-26.5 151
q0 110 32.5 161t100.5 51q67 0 99 -45t32 -135v-307q0 -93 -32.5 -136.5t-100.5 -43.5z" />
    <glyph glyph-name="colon" unicode=":" horiz-adv-x="148" 
d="M74 386q-14 0 -22.5 8t-8.5 23v7q0 15 8.5 23t22.5 8q15 0 23 -8t8 -23v-7q0 -15 -8 -23t-23 -8zM74 -6q-14 0 -22.5 8t-8.5 23v7q0 15 8.5 23t22.5 8q15 0 23 -8t8 -23v-7q0 -15 -8 -23t-23 -8z" />
    <glyph glyph-name="semicolon" unicode=";" horiz-adv-x="154" 
d="M20 -138q-5 0 -4 7l44 218q1 6 6 6h36q4 0 5 -2t0 -6l-56 -218q0 -5 -6 -5h-25zM80 387q-15 0 -23 7.5t-8 22.5v7q0 15 8 23t23 8t22.5 -8t7.5 -23v-7q0 -15 -7.5 -22.5t-22.5 -7.5z" />
    <glyph glyph-name="less" unicode="&#x3c;" horiz-adv-x="420" 
d="M325 156l-232 123q-3 2 -3 6v30q0 4 3 7l231 122q4 2 5.5 0.5t1.5 -4.5v-39q0 -6 -4 -7l-194 -94l194 -94q4 -2 4 -7v-38q0 -3 -1.5 -4.5t-4.5 -0.5z" />
    <glyph glyph-name="equal" unicode="=" horiz-adv-x="420" 
d="M95 349q-6 0 -6 5v27q0 6 6 6h231q6 0 6 -6v-27q0 -5 -6 -5h-231zM95 216q-6 0 -6 6v27q0 6 6 6h231q6 0 6 -6v-27q0 -6 -6 -6h-231z" />
    <glyph glyph-name="greater" unicode="&#x3e;" horiz-adv-x="420" 
d="M96 156q-3 -1 -4.5 0.5t-1.5 4.5v38q0 5 3 7l195 94l-195 94q-3 1 -3 7v39q0 3 2 4.5t4 -0.5l232 -122q3 -3 3 -7v-30q0 -3 -3 -6z" />
    <glyph glyph-name="question" unicode="?" horiz-adv-x="284" 
d="M114 176q-4 0 -4 6v51q0 38 10 67.5t26 54.5t31.5 51t25.5 57t10 72q0 50 -16 69t-51 19q-45 0 -61 -33.5t-13 -98.5q0 -6 -5 -6h-29q-2 0 -3.5 2t-1.5 5q-4 86 25 127.5t90 41.5q54 0 80 -28.5t26 -96.5q0 -42 -10.5 -75.5t-26 -61.5t-31 -54t-26 -53t-10.5 -60v-50
q0 -6 -5 -6h-31zM131 -6q-16 0 -23.5 8t-7.5 23v7q0 15 7.5 23t23.5 8q15 0 23 -8t8 -23v-7q0 -15 -8 -23t-23 -8z" />
    <glyph glyph-name="at" unicode="@" horiz-adv-x="583" 
d="M291 -185q-84 0 -140 43t-83.5 121t-27.5 181v184q0 104 27.5 181.5t83.5 120.5t140 43q85 0 140.5 -43t83 -120.5t27.5 -181.5v-87q0 -73 -14 -124.5t-40 -78t-65 -26.5q-28 0 -49.5 15t-31.5 43.5t-6 69.5l30 271q-14 2 -32 7.5t-40 5.5q-30 0 -45.5 -25.5t-21.5 -80.5
l-19 -172q-5 -46 7 -71t37 -25t50.5 21.5t49.5 56.5l5 -41q-30 -37 -58 -56.5t-60 -19.5q-37 0 -56 35.5t-12 98.5l19 179q8 69 32.5 103.5t70.5 34.5q31 0 56.5 -9t51.5 -11q4 -1 4 -7l-32 -287q-4 -48 10.5 -73t42.5 -25q26 0 43 22t25.5 64.5t8.5 104.5v87q0 94 -23 163
t-70 106.5t-119 37.5q-71 0 -118.5 -37.5t-70.5 -106.5t-23 -163v-184q0 -94 23 -163t70.5 -106.5t118.5 -37.5h74q6 0 6 -6v-26q0 -6 -6 -6h-74z" />
    <glyph glyph-name="A" unicode="A" horiz-adv-x="334" 
d="M6 0q-6 0 -5 7l138 643q1 5 6 5h43q5 0 6 -5l138 -643q1 -7 -4 -7h-33q-5 0 -6 5l-95 464q-7 35 -13.5 69t-13.5 69h-1q-6 -35 -12.5 -69.5t-14.5 -70.5l-95 -462q-1 -5 -6 -5h-32zM71 176l9 40h172l9 -40h-190z" />
    <glyph glyph-name="B" unicode="B" horiz-adv-x="359" 
d="M65 0q-6 0 -6 6v643q0 6 6 6h93q76 0 111.5 -39.5t35.5 -120.5q0 -55 -19 -94.5t-55 -56.5v-2q45 -13 68.5 -54t23.5 -105q0 -91 -38.5 -137t-116.5 -46h-103zM100 40h66q60 0 88 34.5t28 111.5q0 66 -27.5 99.5t-81.5 33.5h-73v-279zM100 358h69q45 0 70 35.5t25 96.5
q0 66 -25 95.5t-78 29.5h-61v-257z" />
    <glyph glyph-name="C" unicode="C" horiz-adv-x="391" 
d="M198 -6q-73 0 -111 48t-38 143v285q0 95 38 143t111 48q52 0 86 -25t48.5 -71.5t8.5 -113.5q-1 -5 -5 -5h-31q-6 0 -5 6q5 85 -19.5 127t-82.5 42q-53 0 -80.5 -37.5t-27.5 -116.5v-279q0 -78 27.5 -116t80.5 -38q59 0 83.5 43.5t20.5 125.5q-1 6 5 6h29q6 0 6 -6
q5 -102 -31 -155.5t-113 -53.5z" />
    <glyph glyph-name="D" unicode="D" horiz-adv-x="395" 
d="M65 0q-6 0 -6 6v643q0 6 5 6h92q99 0 146.5 -63.5t47.5 -203.5v-106q0 -147 -45 -214.5t-145 -67.5h-95zM100 40h58q82 0 116.5 56.5t34.5 183.5v108q0 120 -37 173.5t-117 53.5h-55v-575z" />
    <glyph glyph-name="E" unicode="E" horiz-adv-x="330" 
d="M64 0q-5 0 -5 6v643q0 6 5 6h217q5 0 5 -6v-28q0 -6 -5 -6h-181v-261h167q5 0 5 -6v-26q0 -6 -5 -6h-167v-276h181q5 0 5 -6v-28q0 -6 -5 -6h-217z" />
    <glyph glyph-name="F" unicode="F" horiz-adv-x="309" 
d="M63 0q-4 0 -4 6v643q0 6 5 6h217q5 0 5 -6v-28q0 -6 -5 -6h-181v-270h160q5 0 5 -6v-26q0 -6 -5 -6h-160v-301q0 -6 -5 -6h-32z" />
    <glyph glyph-name="G" unicode="G" horiz-adv-x="403" 
d="M189 -6q-70 0 -105 47t-35 141v289q0 94 38 142t110 48q74 0 113 -52.5t32 -147.5q0 -5 -5 -5h-32q-5 0 -4 5q6 77 -22.5 118.5t-80.5 41.5q-53 0 -80.5 -37t-27.5 -115v-284q0 -78 25.5 -114.5t79.5 -36.5t81.5 47.5t27.5 148.5v54h-96q-5 0 -5 6v28q0 6 5 6h131
q5 0 5 -6v-184q0 -42 1 -71t4 -56q0 -7 -4 -7h-26q-5 0 -5 5q-3 20 -4 43.5t-1 52.5h-1q-12 -47 -39.5 -77t-79.5 -30z" />
    <glyph glyph-name="H" unicode="H" horiz-adv-x="408" 
d="M64 0q-5 0 -5 6v643q0 6 5 6h31q5 0 5 -6v-290h208v290q0 6 5 6h31q5 0 5 -6v-643q0 -6 -5 -6h-31q-5 0 -5 6v313h-208v-313q0 -6 -5 -6h-31z" />
    <glyph glyph-name="I" unicode="I" horiz-adv-x="158" 
d="M64 0q-5 0 -5 6v643q0 6 5 6h31q5 0 5 -6v-643q0 -6 -5 -6h-31z" />
    <glyph glyph-name="J" unicode="J" horiz-adv-x="158" 
d="M17 -138q-6 -3 -8 3l-9 29q-1 3 -0.5 5.5t3.5 3.5q19 7 31.5 24.5t18.5 50.5t6 90v581q0 6 5 6h31q5 0 5 -6v-581q0 -69 -9 -110.5t-27.5 -63.5t-46.5 -32z" />
    <glyph glyph-name="K" unicode="K" horiz-adv-x="353" 
d="M64 0q-5 0 -5 6v643q0 6 5 6h31q5 0 5 -6v-250q0 -20 -0.5 -41t-0.5 -41.5t-1 -42.5h1q15 32 29.5 62.5t30.5 61.5l130 254q1 3 6 3h37q6 0 2 -8l-139 -261l153 -378q4 -8 -2 -8h-38q-4 0 -6 4l-132 335l-70 -132v-201q0 -6 -5 -6h-31z" />
    <glyph glyph-name="L" unicode="L" horiz-adv-x="297" 
d="M64 0q-5 0 -5 6v643q0 6 5 6h31q5 0 5 -6v-609h176q6 0 6 -6v-28q0 -6 -6 -6h-212z" />
    <glyph glyph-name="M" unicode="M" horiz-adv-x="482" 
d="M56 0q-5 0 -5 6l9 643q0 6 6 6h49q5 0 6 -5l120 -435l120 435q1 5 7 5h48q5 0 5 -6l9 -643q0 -6 -5 -6h-30q-6 0 -6 6l-5 462q-1 29 -0.5 62.5t0.5 64.5h-1q-7 -30 -16 -60.5t-17 -59.5l-102 -360q-1 -5 -6 -5h-3q-5 0 -6 5l-103 363q-8 29 -16 58.5t-15 58.5h-2
q1 -30 1 -62v-61l-6 -466q0 -6 -5 -6h-31z" />
    <glyph glyph-name="N" unicode="N" horiz-adv-x="410" 
d="M63 0q-4 0 -4 6v643q0 6 5 6h52q5 0 6 -4l124 -384q12 -33 23.5 -70t22.5 -74t21 -70h1q0 25 -0.5 52t-1 55t-0.5 55.5v52.5v381q0 6 5 6h30q5 0 5 -6v-643q0 -6 -5 -6h-52q-4 0 -6 4l-120 371q-19 58 -36.5 116t-33.5 111h-2q1 -35 1 -74.5t0.5 -79t0.5 -76.5v-366
q0 -6 -5 -6h-31z" />
    <glyph glyph-name="O" unicode="O" horiz-adv-x="396" 
d="M198 -6q-72 0 -110.5 45.5t-38.5 135.5v304q0 92 38.5 137t110.5 45q71 0 110 -45t39 -137v-304q0 -90 -39 -135.5t-110 -45.5zM198 34q52 0 80 35t28 109v298q0 75 -28 110t-80 35q-53 0 -80.5 -35t-27.5 -110v-298q0 -74 27.5 -109t80.5 -35z" />
    <glyph glyph-name="P" unicode="P" horiz-adv-x="337" 
d="M64 0q-5 0 -5 6v643q0 6 5 6h85q80 0 120 -46.5t40 -149.5q0 -95 -37 -144.5t-119 -49.5h-53v-259q0 -6 -5 -6h-31zM100 305h49q66 0 92.5 38.5t26.5 114.5q0 84 -29.5 121t-86.5 37h-52v-311z" />
    <glyph glyph-name="Q" unicode="Q" horiz-adv-x="396" 
d="M271 -176q-26 0 -44 19.5t-26.5 60.5t-6.5 105q0 3 2 4.5t3 1.5l32 1q3 0 3 -6q-2 -50 3 -82.5t15.5 -48t24.5 -15.5q7 0 12.5 1.5t9.5 3.5q5 2 5 -5v-27q0 -6 -5 -8t-12 -3.5t-16 -1.5zM198 -6q-72 0 -110.5 45.5t-38.5 135.5v304q0 92 38.5 137t110.5 45q71 0 110 -45
t39 -137v-304q0 -90 -39 -135.5t-110 -45.5zM198 34q52 0 80 35t28 109v298q0 75 -28 110t-80 35q-53 0 -80.5 -35t-27.5 -110v-298q0 -74 27.5 -109t80.5 -35z" />
    <glyph glyph-name="R" unicode="R" horiz-adv-x="364" 
d="M64 0q-5 0 -5 6v643q0 6 5 6h103q77 0 114 -42.5t37 -134.5q0 -73 -23.5 -117t-64.5 -57v-1l108 -295q2 -8 -5 -8h-34q-3 0 -5 4l-105 290h-89v-288q0 -6 -5 -6h-31zM100 332h72q55 0 80 37t25 106q0 75 -27.5 107.5t-82.5 32.5h-67v-283z" />
    <glyph glyph-name="S" unicode="S" horiz-adv-x="338" 
d="M165 -6q-50 0 -80 21.5t-42.5 61.5t-9.5 96q0 6 5 6h30q6 0 5 -6q-5 -71 18.5 -105t75.5 -34q48 0 71.5 27.5t23.5 86.5q0 53 -15 85.5t-53 60.5l-75 58q-43 32 -61.5 70.5t-18.5 96.5q0 67 34 104.5t93 37.5q69 0 102 -45.5t27 -128.5q0 -7 -5 -7h-32q-4 0 -4 7
q5 65 -18 99.5t-69 34.5q-41 0 -64 -26t-23 -75q0 -46 15 -77t49 -57l74 -57q32 -24 50.5 -48.5t26.5 -56t8 -74.5q0 -76 -33.5 -116t-104.5 -40z" />
    <glyph glyph-name="T" unicode="T" horiz-adv-x="322" 
d="M146 0q-5 0 -5 6v609h-115q-6 0 -6 6v28q0 6 6 6h271q5 0 5 -6v-28q0 -6 -5 -6h-115v-609q0 -6 -6 -6h-30z" />
    <glyph glyph-name="U" unicode="U" horiz-adv-x="398" 
d="M199 -6q-75 0 -109.5 50.5t-34.5 152.5v452q0 6 5 6h31q5 0 5 -6v-451q0 -84 24.5 -124t78.5 -40t78.5 39.5t24.5 124.5v451q0 6 5 6h31q5 0 5 -6v-452q0 -102 -35 -152.5t-109 -50.5z" />
    <glyph glyph-name="V" unicode="V" horiz-adv-x="354" 
d="M154 0q-4 0 -6 5l-135 643q-1 7 5 7h32q5 0 6 -5l95 -460q7 -35 13.5 -70.5t12.5 -71.5h1q7 36 13.5 71.5t13.5 71.5l93 459q1 5 6 5h32q6 0 5 -7l-134 -642q-1 -6 -5 -6h-48z" />
    <glyph glyph-name="W" unicode="W" horiz-adv-x="513" 
d="M135 0q-4 0 -5 5l-114 643q-1 7 3 7h32q5 0 6 -5l79 -456q4 -23 7.5 -48.5t7 -50t6.5 -46.5h1q6 32 11 64t11 64l60 331l-22 130q-1 7 5 7h31q5 0 6 -6l76 -459q5 -33 10.5 -65.5t9.5 -65.5h1q3 23 6.5 47t7 49.5t7.5 51.5l77 453q1 5 5 5h32q6 0 5 -7l-113 -642
q-1 -6 -6 -6h-42q-5 0 -6 6l-49 298q-6 32 -10.5 64t-9.5 64h-1q-5 -32 -11 -63.5t-11 -62.5l-56 -300q-1 -4 -2 -5t-3 -1h-42z" />
    <glyph glyph-name="X" unicode="X" horiz-adv-x="331" 
d="M8 0q-5 0 -3 8l135 329l-127 310q-3 8 3 8h37q4 0 6 -3l69 -178q10 -25 19.5 -51t18.5 -51h1q9 26 19 51.5t20 51.5l69 176q1 4 5 4h36q6 0 3 -8l-126 -311l133 -329q4 -7 -3 -7h-37q-3 0 -5 4l-73 184q-11 29 -21.5 57t-20.5 56h-1q-9 -28 -20 -56t-21 -55l-73 -185
q-2 -5 -6 -5h-37z" />
    <glyph glyph-name="Y" unicode="Y" horiz-adv-x="330" 
d="M149 0q-4 0 -4 6v218l-133 423q-2 8 3 8h36q4 0 5 -5l77 -260q8 -28 16.5 -56t15.5 -56h1q8 28 16.5 56t15.5 56l77 261q1 4 5 4h34q6 0 4 -8l-132 -422v-219q0 -6 -4 -6h-33z" />
    <glyph glyph-name="Z" unicode="Z" horiz-adv-x="317" 
d="M15 0q-5 0 -5 6v2q0 4 2 9l198 499q10 25 19.5 49t19.5 49v2q-17 -1 -36 -1h-37h-141q-6 0 -6 6v28q0 6 6 6h264q5 0 5 -6v-2q0 -2 -0.5 -4.5t-1.5 -4.5l-199 -501q-9 -24 -19 -48l-20 -48v-2q20 1 36.5 1h33.5h151q5 0 5 -6v-28q0 -6 -5 -6h-270z" />
    <glyph glyph-name="bracketleft" unicode="[" horiz-adv-x="163" 
d="M53 -141q-6 0 -6 6v825q0 6 6 6h106q6 0 6 -6v-26q0 -6 -6 -6h-73v-761h73q6 0 6 -6v-26q0 -6 -6 -6h-106z" />
    <glyph glyph-name="backslash" unicode="\" horiz-adv-x="225" 
d="M183 0q-6 0 -6 5l-168 643q-2 7 4 7h28q5 0 6 -5l169 -643q2 -7 -4 -7h-29z" />
    <glyph glyph-name="bracketright" unicode="]" horiz-adv-x="163" 
d="M3 -141q-5 0 -5 6v26q0 6 5 6h74v761h-74q-5 0 -5 6v26q0 6 5 6h107q5 0 5 -6v-825q0 -6 -5 -6h-107z" />
    <glyph glyph-name="asciicircum" unicode="^" horiz-adv-x="302" 
d="M33 350q-6 0 -4 7l103 322q2 4 5 4h28q3 0 5 -4l102 -321q3 -8 -3 -8h-30q-4 0 -5 4l-83 283l-83 -283q-1 -4 -6 -4h-29z" />
    <glyph glyph-name="underscore" unicode="_" horiz-adv-x="291" 
d="M12 -99q-7 0 -7 6v24q0 5 7 5h267q6 0 6 -5v-24q0 -6 -6 -6h-267z" />
    <glyph glyph-name="grave" unicode="`" horiz-adv-x="168" 
d="M109 559q-5 0 -8 4l-69 119q-3 4 -1.5 6t4.5 2h31q5 0 7 -5l64 -119q2 -3 1 -5t-4 -2h-25z" />
    <glyph glyph-name="a" unicode="a" horiz-adv-x="307" 
d="M225 0q-5 0 -5 6q-2 23 -3.5 49t-1.5 42l-2 3v260q0 50 -13 69.5t-47 19.5q-35 0 -50 -21t-11 -63q0 -6 -6 -6h-27q-7 0 -7 8q-5 57 21.5 89t79.5 32q55 1 78 -28t23 -99v-246q0 -34 1 -61.5t2 -46.5q0 -7 -4 -7h-28zM114 -6q-38 0 -58 33t-20 90q0 65 28.5 105.5
t91.5 47.5l62 8v-35l-58 -8q-44 -5 -63.5 -35t-19.5 -81q0 -39 12.5 -62t35.5 -23q20 0 41 15.5t54 60.5l1 -41q-33 -43 -56 -59t-51 -16z" />
    <glyph glyph-name="b" unicode="b" horiz-adv-x="335" 
d="M175 -6q-31 0 -60.5 7.5t-61.5 12.5v663q0 6 5 6h31q5 0 5 -6v-630q19 -4 38.5 -8.5t39.5 -4.5q38 0 58 26.5t20 92.5v207q0 46 -13 67.5t-40 21.5q-29 0 -57 -23.5t-54 -58.5l-3 41q29 36 60.5 58t65.5 22q41 0 61.5 -29.5t20.5 -94.5v-212q0 -86 -29.5 -122t-86.5 -36z
" />
    <glyph glyph-name="c" unicode="c" horiz-adv-x="317" 
d="M165 -6q-62 0 -92.5 37t-30.5 115v191q0 77 30.5 114t91.5 37q38 0 64 -16.5t38.5 -48t9.5 -74.5q0 -8 -6 -8h-29q-2 0 -3.5 1.5t-0.5 4.5q2 47 -16.5 74.5t-56.5 27.5q-41 0 -61 -27t-20 -87v-188q0 -59 20 -86t62 -27q38 0 55.5 26t15.5 79q0 7 5 7h29q6 0 6 -6
q1 -72 -26 -109t-85 -37z" />
    <glyph glyph-name="d" unicode="d" horiz-adv-x="334" 
d="M128 -6q-40 0 -62 29t-22 96v225q0 75 29 109.5t78 34.5q28 0 52.5 -9t45.5 -24v-41q-50 35 -90 35q-33 0 -53.5 -25t-20.5 -85v-219q0 -48 14 -67t41 -19t53.5 22t54.5 59l1 -41q-29 -37 -57.5 -58.5t-63.5 -21.5zM253 0q-5 0 -6 6q-1 23 -2.5 49.5t-1.5 41.5l-3 4v576
q0 6 6 6h30q5 0 5 -6v-562q0 -34 1 -61t2 -47q1 -7 -4 -7h-27z" />
    <glyph glyph-name="e" unicode="e" horiz-adv-x="319" 
d="M165 -6q-62 0 -92.5 39t-30.5 120v184q0 79 31 115t88 36q56 0 87 -37.5t31 -112.5v-94q0 -6 -6 -6h-190v-84q0 -61 20 -90.5t62 -29.5q36 0 52.5 22t16.5 65q-1 7 4 7h30q5 0 5 -6q1 -63 -26.5 -95.5t-81.5 -32.5zM83 277h155v60q0 56 -19.5 84t-57.5 28t-58 -28
t-20 -84v-60z" />
    <glyph glyph-name="f" unicode="f" horiz-adv-x="230" 
d="M77 0q-5 0 -5 6v437h-47q-5 0 -5 5v28q0 6 5 6h47v79q0 66 21.5 97t69.5 31q19 0 34.5 -3.5t25.5 -7.5q5 -4 5 -9v-26q0 -3 -2 -4.5t-6 0.5q-11 4 -23.5 7t-26.5 3q-32 0 -44.5 -20.5t-12.5 -67.5v-79h92q6 0 6 -6v-28q0 -5 -6 -5h-92v-437q0 -6 -5 -6h-31z" />
    <glyph glyph-name="g" unicode="g" horiz-adv-x="317" 
d="M158 -191q-69 0 -100 29.5t-31 91.5q0 43 19 74t56 50l34 -13q-34 -17 -51 -43t-17 -62q0 -47 21.5 -67.5t70.5 -20.5q50 0 71.5 22t21.5 70q0 42 -15 62.5t-50 24.5l-70 9q-34 4 -53 25.5t-19 53.5q0 22 9 38.5t23.5 28.5t29.5 21l28 -19q-25 -11 -38 -25.5t-13 -35.5
q0 -20 12 -33.5t37 -16.5l68 -9q47 -6 69 -35.5t22 -90.5q0 -66 -32 -97.5t-103 -31.5zM164 171q-60 0 -85.5 38t-25.5 120q0 83 25.5 121t85.5 38t84.5 -38t24.5 -121q0 -82 -24.5 -120t-84.5 -38zM164 210q40 0 54.5 28t14.5 91q0 64 -14.5 92t-54.5 28t-55 -28t-15 -92
q0 -63 15 -91t55 -28zM232 455l-33 13q3 41 7 78t8 59q1 7 6 7h26q6 0 5 -6q-6 -28 -11 -65.5t-8 -85.5z" />
    <glyph glyph-name="h" unicode="h" horiz-adv-x="345" 
d="M256 0q-5 0 -5 6v354q0 46 -13 67.5t-40 21.5t-54.5 -22t-55.5 -57l-2 38q30 37 60 58.5t65 21.5q40 0 60.5 -29.5t20.5 -94.5v-358q0 -6 -5 -6h-31zM57 0q-4 0 -4 6v671q0 6 5 6h31q5 0 5 -6v-671q0 -6 -5 -6h-32z" />
    <glyph glyph-name="i" unicode="i" horiz-adv-x="147" 
d="M58 0q-5 0 -5 6v470q0 6 5 6h31q5 0 5 -6v-470q0 -6 -5 -6h-31zM74 581q-15 0 -23 8t-8 23v7q0 15 8 22.5t23 7.5t22.5 -7.5t7.5 -22.5v-7q0 -15 -7.5 -23t-22.5 -8z" />
    <glyph glyph-name="j" unicode="j" horiz-adv-x="135" 
d="M23 -185q-2 -1 -3.5 -1t-3.5 2l-19 26q-4 4 0 8q32 30 41 73t9 114v439q0 6 5 6h31q5 0 5 -6v-442q0 -52 -4.5 -92t-18.5 -71t-42 -56zM68 581q-15 0 -23 8t-8 23v7q0 15 8 22.5t23 7.5t22.5 -7.5t7.5 -22.5v-7q0 -15 -7.5 -23t-22.5 -8z" />
    <glyph glyph-name="k" unicode="k" horiz-adv-x="304" 
d="M57 0q-4 0 -4 6v671q0 6 5 6h31q5 0 5 -6v-333v-37.5v-36.5t-1 -38h1q13 25 26 48.5t26 47.5l85 151q3 3 7 3h35q7 0 4 -7l-105 -177l118 -290q2 -8 -4 -8h-36q-3 0 -4 4l-100 251l-52 -88v-161q0 -6 -5 -6h-32z" />
    <glyph glyph-name="l" unicode="l" horiz-adv-x="147" 
d="M58 0q-5 0 -5 6v671q0 6 5 6h31q5 0 5 -6v-671q0 -6 -5 -6h-31z" />
    <glyph glyph-name="m" unicode="m" horiz-adv-x="515" 
d="M58 0q-5 0 -5 6v361q0 34 -0.5 61.5t-2.5 46.5q-1 7 4 7h28q4 0 5 -6q2 -16 2.5 -31.5t1.5 -29.5q30 37 56.5 55t56.5 18q29 0 47.5 -18.5t23.5 -54.5q30 37 56.5 55t56.5 18q36 0 55 -27t19 -78v-377q0 -6 -5 -6h-31q-5 0 -5 6v370q0 35 -11.5 54t-35.5 19
q-22 0 -44.5 -17t-51.5 -55v-371q0 -6 -5 -6h-31q-5 0 -5 6v370q0 35 -11.5 54t-35.5 19q-21 0 -44 -17t-52 -55v-371q0 -6 -5 -6h-31z" />
    <glyph glyph-name="n" unicode="n" horiz-adv-x="345" 
d="M256 0q-5 0 -5 6v354q0 46 -13 67.5t-40 21.5t-54.5 -22t-55.5 -57l-2 38q30 37 60 58.5t65 21.5q40 0 60.5 -29.5t20.5 -94.5v-358q0 -6 -5 -6h-31zM58 0q-5 0 -5 6v361q0 34 -0.5 61.5t-2.5 46.5q-1 7 4 7h27q5 0 6 -6q2 -19 3.5 -48t1.5 -44l2 -4v-374q0 -6 -5 -6h-31
z" />
    <glyph glyph-name="o" unicode="o" horiz-adv-x="329" 
d="M165 -6q-62 0 -92.5 37.5t-30.5 112.5v193q0 76 30.5 113.5t92.5 37.5q61 0 91.5 -37.5t30.5 -113.5v-193q0 -75 -30.5 -112.5t-91.5 -37.5zM165 34q41 0 61 27t20 84v191q0 57 -20 85t-61 28q-42 0 -62 -28t-20 -85v-191q0 -57 20.5 -84t61.5 -27z" />
    <glyph glyph-name="p" unicode="p" horiz-adv-x="333" 
d="M190 -6q-27 0 -53.5 9.5t-50.5 22.5v40q22 -12 46.5 -22t49.5 -10q32 0 49 27.5t17 83.5v218q0 45 -12.5 65.5t-38.5 20.5q-31 0 -59.5 -25.5t-54.5 -60.5l-3 40q30 38 60.5 61.5t68.5 23.5q40 0 60 -28t20 -92v-224q0 -75 -25.5 -112.5t-73.5 -37.5zM58 -185q-5 0 -5 6
v550q0 31 -0.5 57.5t-2.5 47.5q-1 6 4 6h27q5 0 6 -6q2 -17 3 -37.5t1 -35.5l3 -15v-567q0 -6 -5 -6h-31z" />
    <glyph glyph-name="q" unicode="q" horiz-adv-x="335" 
d="M245 -185q-4 0 -4 6v614q-19 5 -40 9.5t-39 4.5q-37 0 -57 -26t-20 -85v-218q0 -45 13 -65.5t40 -20.5q29 0 57 23t54 58l3 -40q-30 -37 -61 -59t-65 -22q-40 0 -61 29t-21 93v223q0 81 31 115t83 34q32 0 61.5 -7t62.5 -13v-647q0 -6 -4 -6h-33z" />
    <glyph glyph-name="r" unicode="r" horiz-adv-x="232" 
d="M58 0q-5 0 -5 6v361q0 34 -0.5 61t-2.5 47q-1 7 4 7h28q4 0 5 -6q2 -22 3.5 -49t1.5 -41l2 -5v-375q0 -6 -5 -6h-31zM88 361l-3 43q12 18 28 37.5t35.5 33t42.5 13.5q11 0 17 -2q3 -1 4 -2.5t1 -5.5v-18.5t-1 -18.5q-1 -6 -6 -5q-4 2 -9 2.5t-12 0.5q-26 0 -51.5 -23
t-45.5 -55z" />
    <glyph glyph-name="s" unicode="s" horiz-adv-x="283" 
d="M143 -6q-57 0 -83 36t-22 106q0 6 5 6h32q4 0 4 -5q-2 -55 13 -79.5t52 -24.5q67 0 67 81q0 32 -10 53.5t-34 40.5l-67 54q-32 25 -45.5 53t-13.5 68q0 50 27 77.5t75 27.5q53 0 78.5 -31t21.5 -90q0 -6 -5 -6h-31q-1 0 -3 1t-1 6q2 40 -13 60.5t-48 20.5q-61 0 -61 -66
q0 -30 10.5 -48.5t34.5 -39.5l67 -55q33 -26 45.5 -53t12.5 -72q0 -60 -27.5 -90.5t-80.5 -30.5z" />
    <glyph glyph-name="t" unicode="t" horiz-adv-x="247" 
d="M158 -6q-45 0 -65 30t-20 99v320h-46q-5 0 -5 5v28q0 6 5 6h47l5 129q1 6 6 6h25q4 0 4 -6v-129h100q5 0 5 -6v-28q0 -5 -5 -5h-100v-319q0 -48 12 -69.5t39 -21.5q14 0 27 3.5t24 7.5q5 3 5 -4v-28q0 -6 -4 -8q-12 -4 -27.5 -7t-31.5 -3z" />
    <glyph glyph-name="u" unicode="u" horiz-adv-x="338" 
d="M132 -6q-41 0 -60 27t-19 92v363q0 6 5 6h31q5 0 5 -6v-361q0 -48 12 -64.5t37 -16.5q30 0 57 23.5t53 59.5l3 -39q-29 -36 -59 -60t-65 -24zM256 0q-4 0 -5 6q-2 23 -3.5 49.5t-1.5 41.5l-2 4v375q0 6 5 6h31q5 0 5 -6v-361q0 -34 1 -61t2 -47q0 -7 -5 -7h-27z" />
    <glyph glyph-name="v" unicode="v" horiz-adv-x="306" 
d="M132 0q-4 0 -5 6l-105 468q-1 8 4 8h34q5 0 6 -6l64 -309q6 -30 11.5 -60.5t11.5 -61.5h1q5 31 10.5 62t12.5 61l65 308q1 6 5 6h34q5 0 3 -8l-104 -468q-1 -6 -6 -6h-42z" />
    <glyph glyph-name="w" unicode="w" horiz-adv-x="444" 
d="M122 0q-6 0 -7 7l-92 468q-1 7 3 7h32q5 0 6 -6l55 -291q7 -35 13 -70.5t11 -69.5h2q6 34 12 69l12 70l35 190l-17 94q-1 8 4 8h30q5 0 6 -6l50 -285q7 -35 12 -70.5t10 -69.5h2q6 35 12 71t12 70l54 289q2 7 6 7h31q6 0 5 -8l-92 -468q-1 -6 -7 -6h-42q-6 0 -7 5
l-25 142q-7 37 -13 76.5t-12 84.5h-2q-6 -45 -12.5 -84.5t-13.5 -77.5l-24 -140q-1 -6 -7 -6h-42z" />
    <glyph glyph-name="x" unicode="x" horiz-adv-x="297" 
d="M18 0q-3 0 -4 2.5t0 5.5l109 243l-99 224q-2 3 -1 5t4 2h33q5 0 7 -4l47 -112q9 -19 17.5 -41t16.5 -42h1q9 20 17.5 42t16.5 41l46 113q2 3 7 3h33q3 0 4 -2t-1 -5l-100 -222l110 -245q1 -3 0.5 -5.5t-3.5 -2.5h-35q-4 0 -6 4l-55 131q-8 21 -17 43t-18 42h-1
q-8 -20 -16.5 -42.5t-17.5 -42.5l-56 -131q-2 -4 -7 -4h-32z" />
    <glyph glyph-name="y" unicode="y" horiz-adv-x="305" 
d="M93 -185q-6 0 -4 8l44 181l-113 471q-2 7 3 7h34q5 0 6 -6l60 -269q8 -33 15 -68t14 -68h1q7 33 14.5 68t14.5 68l60 269q1 6 6 6h32q3 0 4.5 -2t-0.5 -7l-154 -652q-1 -6 -7 -6h-30z" />
    <glyph glyph-name="z" unicode="z" horiz-adv-x="286" 
d="M26 0q-5 0 -5 6v2q0 7 2 11l153 341q9 21 17.5 41t17.5 41v1h-30h-31h-110q-5 0 -5 5v28q0 6 5 6h220q5 0 5 -5v-2q0 -6 -2 -10l-152 -342q-10 -20 -18.5 -40.5t-17.5 -41.5v-1h27.5h27.5h122q5 0 5 -6v-28q0 -6 -5 -6h-226z" />
    <glyph glyph-name="braceleft" unicode="{" horiz-adv-x="163" 
d="M158 -142q-36 0 -57 11t-29.5 42.5t-8.5 91.5v184q0 35 -7.5 53.5t-27.5 18.5h-12q-6 0 -6 6v25q0 6 6 6h12q20 0 27.5 18.5t7.5 54.5v183q0 61 8.5 92t29.5 42t57 11q6 0 6 -6v-26q0 -5 -6 -5q-23 0 -35.5 -8t-17 -30t-4.5 -65v-189q0 -37 -8.5 -59t-26.5 -32
q18 -8 26.5 -30.5t8.5 -59.5v-189q0 -42 5 -64.5t17 -30.5t35 -8q6 0 6 -5v-26q0 -6 -6 -6z" />
    <glyph glyph-name="bar" unicode="|" horiz-adv-x="161" 
d="M66 -185q-6 0 -6 6v1003q0 6 6 6h29q6 0 6 -6v-1003q0 -6 -6 -6h-29z" />
    <glyph glyph-name="braceright" unicode="}" horiz-adv-x="163" 
d="M6 -142q-6 0 -6 6v26q0 5 6 5q23 0 35 8t17 30.5t5 64.5v189q0 37 8.5 59.5t25.5 30.5q-17 10 -25.5 32t-8.5 59v189q0 43 -5 65t-17 30t-35 8q-6 0 -6 5v26q0 6 6 6q36 0 57 -11t29.5 -42t8.5 -92v-183q0 -36 7.5 -54.5t27.5 -18.5h11q6 0 6 -6v-25q0 -6 -6 -6h-11
q-20 0 -27.5 -18.5t-7.5 -53.5v-184q0 -60 -9 -91.5t-29.5 -42.5t-56.5 -11z" />
    <glyph glyph-name="asciitilde" unicode="~" horiz-adv-x="420" 
d="M263 266q-22 0 -38 8l-32 16t-37 8q-19 0 -35 -7t-26 -15q-5 -4 -5 3v28q0 5 3 7q12 10 28 16.5t36 6.5q23 0 39 -8t31.5 -16.5t36.5 -8.5q18 0 34.5 8t26.5 16q5 3 5 -3v-27q0 -6 -3 -9q-11 -10 -28 -16.5t-36 -6.5z" />
    <glyph glyph-name="uni00A0" unicode="&#xa0;" horiz-adv-x="138" 
 />
    <glyph glyph-name="exclamdown" unicode="&#xa1;" horiz-adv-x="148" 
d="M58 306h31q5 0 5 -6l3 -467q0 -6 -5 -6h-37q-4 0 -4 6l3 467q0 6 4 6zM74 489q15 0 23 -8.5t8 -23.5v-7q0 -15 -8 -22.5t-23 -7.5t-23 7.5t-8 22.5v7q0 15 8 23.5t23 8.5z" />
    <glyph glyph-name="cent" unicode="&#xa2;" horiz-adv-x="420" 
d="M194 528v88q0 6 6 6h25q6 0 6 -6v-86zM200 -38q-6 0 -6 7v84l37 -2v-82q0 -7 -6 -7h-25zM215 44q-61 0 -91.5 37t-30.5 115v191q0 77 30.5 114t91.5 37q38 0 64 -16.5t38.5 -48t9.5 -74.5q0 -8 -6 -8h-29q-2 0 -3.5 1.5t-0.5 4.5q2 47 -16.5 74.5t-56.5 27.5
q-41 0 -61 -27t-20 -87v-188q0 -59 20 -86t61 -27q39 0 56.5 26t15.5 79q0 7 5 7h29q6 0 6 -6q1 -72 -26 -109t-86 -37z" />
    <glyph glyph-name="sterling" unicode="&#xa3;" horiz-adv-x="420" 
d="M104 0q-6 0 -6 6v20q0 4 2 8q13 26 19 55.5t6 65.5v348q0 83 26 120.5t79 37.5q38 0 60 -18.5t31.5 -55t9.5 -90.5q0 -6 -6 -6h-27q-6 0 -6 6q0 37 -4 65t-17 43.5t-40 15.5q-33 0 -49 -24.5t-16 -94.5v-339q0 -47 -6.5 -75t-17.5 -48h197q6 0 6 -6v-28q0 -6 -6 -6h-235z
M81 327q-6 0 -6 6v26q0 6 6 6h184q6 0 6 -6v-26q0 -6 -6 -6h-184z" />
    <glyph glyph-name="currency" unicode="&#xa4;" horiz-adv-x="420" 
d="M98 125q-4 -6 -8 -1l-18 17q-4 4 0 10l42 54q-8 21 -12 48t-4 61t4 61t12 48l-42 54q-4 6 0 10l17 17q5 5 9 -1l35 -46q27 40 77 40t77 -40l35 47q4 5 8 0l18 -17q3 -4 0 -10l-42 -54q8 -21 12 -48t4 -61t-4 -61t-12 -48l42 -54q4 -6 0 -10l-18 -17q-4 -4 -8 1l-35 46
q-27 -40 -77 -40t-77 40zM210 166q38 0 56.5 36.5t18.5 111.5q0 76 -18.5 112t-56.5 36t-56.5 -36t-18.5 -112q0 -75 18.5 -111.5t56.5 -36.5z" />
    <glyph glyph-name="yen" unicode="&#xa5;" horiz-adv-x="420" 
d="M194 0q-4 0 -4 6v218l-125 423q-2 8 4 8h34q5 0 6 -5l72 -257q8 -28 15 -57l14 -58h1q7 29 14.5 58t15.5 58l71 256q2 5 6 5h35q5 0 3 -8l-125 -422v-219q0 -6 -5 -6h-32zM120 118q-6 0 -6 5v23q0 6 6 6h181q6 0 6 -6v-23q0 -5 -6 -5h-181zM120 225q-6 0 -6 6v23q0 6 6 6
h181q6 0 6 -6v-23q0 -6 -6 -6h-181z" />
    <glyph glyph-name="brokenbar" unicode="&#xa6;" horiz-adv-x="161" 
d="M66 392q-6 0 -6 6v426q0 6 6 6h29q6 0 6 -6v-426q0 -6 -6 -6h-29zM66 -185q-6 0 -6 6v426q0 6 6 6h29q6 0 6 -6v-426q0 -6 -6 -6h-29z" />
    <glyph glyph-name="section" unicode="&#xa7;" horiz-adv-x="280" 
d="M166 115l-17 29q32 8 50.5 35t18.5 65q0 33 -10 58t-34 49l-86 89q-26 28 -37 54.5t-11 64.5q0 55 27 84.5t76 29.5q51 0 78 -31t27 -90q0 -5 -4 -5h-30q-5 0 -5 5q0 81 -65 81q-62 0 -62 -73q0 -27 8.5 -48.5t27.5 -42.5l91 -96q26 -27 37.5 -57.5t11.5 -70.5
q0 -50 -24.5 -85t-67.5 -45zM136 -118q-51 0 -78 31.5t-27 90.5q0 5 4 5h30q5 0 5 -6q0 -81 66 -81q62 0 62 74q0 28 -8.5 49.5t-28.5 41.5l-91 95q-26 28 -37.5 58.5t-11.5 70.5q0 50 25 84.5t68 44.5l16 -28q-32 -9 -50.5 -36t-18.5 -64q0 -33 10.5 -58t33.5 -49l86 -90
q26 -28 37 -54.5t11 -63.5q0 -54 -27 -84.5t-76 -30.5z" />
    <glyph glyph-name="dieresis" unicode="&#xa8;" horiz-adv-x="212" 
d="M59 583q-14 0 -21.5 8t-7.5 21v8q0 13 7.5 20.5t21.5 7.5t21.5 -7.5t7.5 -20.5v-8q0 -13 -7.5 -21t-21.5 -8zM153 583q-13 0 -20.5 8t-7.5 21v8q0 13 7.5 20.5t20.5 7.5q15 0 22 -7.5t7 -20.5v-8q0 -13 -7 -21t-22 -8z" />
    <glyph glyph-name="copyright" unicode="&#xa9;" horiz-adv-x="419" 
d="M210 -6q-55 0 -92 22t-55 66.5t-18 110.5v218q0 67 18 111t55 66t92 22t91.5 -22t54.5 -66t18 -111v-218q0 -66 -18 -110.5t-54.5 -66.5t-91.5 -22zM210 25q65 0 98.5 39.5t33.5 126.5v222q0 87 -33.5 126.5t-98.5 39.5q-66 0 -99.5 -39.5t-33.5 -126.5v-222
q0 -87 33.5 -126.5t99.5 -39.5zM212 125q-40 0 -59.5 27.5t-19.5 78.5v137q0 51 19.5 79t59.5 28q41 0 59 -28t18 -78q0 -2 -0.5 -4t-3.5 -2h-23q-4 0 -4 6q0 39 -11 57.5t-35 18.5q-48 0 -48 -79v-132q0 -80 48 -80q24 0 35 19t11 58q0 6 4 6h23q3 0 3.5 -1.5t0.5 -4.5
q0 -51 -18 -78.5t-59 -27.5z" />
    <glyph glyph-name="ordfeminine" unicode="&#xaa;" horiz-adv-x="230" 
d="M92 329q-25 0 -39.5 23t-14.5 66q0 47 21.5 71.5t61.5 30.5l36 5v51q0 28 -8.5 40.5t-28.5 12.5q-43 0 -39 -50q1 -6 -3 -6h-22q-6 0 -7 7q-2 35 16 58t56 23q24 0 39.5 -9t23 -27t7.5 -45v-164q0 -21 1 -39.5t1 -33.5q0 -6 -4 -6h-22q-5 0 -5 4q-1 10 -1.5 17.5
t-1.5 14.5q-14 -18 -30.5 -31t-36.5 -13zM44 225q-5 0 -5 6v23q0 6 5 6h144q5 0 5 -6v-23q0 -6 -5 -6h-144zM102 362q13 0 26.5 11t28.5 30v93l-35 -6q-25 -4 -38 -22t-13 -50q0 -29 7.5 -42.5t23.5 -13.5z" />
    <glyph glyph-name="guillemotleft" unicode="&#xab;" horiz-adv-x="316" 
d="M238 93q-3 0 -5 4l-78 162q-2 3 0 8l78 161q3 4 6 4h30q3 0 4 -1.5t0 -5.5l-77 -163l76 -161q4 -8 -3 -8h-31zM127 93q-3 0 -5 4l-78 162q-1 3 0 8l79 161q2 4 5 4h31q3 0 4 -1.5t-1 -5.5l-77 -163l77 -161q2 -8 -4 -8h-31z" />
    <glyph glyph-name="logicalnot" unicode="&#xac;" horiz-adv-x="420" 
d="M297 155q-6 0 -6 6v121h-195q-6 0 -6 5v27q0 6 6 6h229q6 0 6 -6v-153q0 -6 -6 -6h-28z" />
    <glyph glyph-name="uni00AD" unicode="&#xad;" horiz-adv-x="290" 
d="M49 248q-5 0 -5 6v23q0 6 5 6h192q6 0 6 -6v-23q0 -6 -6 -6h-192z" />
    <glyph glyph-name="registered" unicode="&#xae;" horiz-adv-x="345" 
d="M172 307q-64 0 -97 42.5t-33 128.5v47q0 87 33 129.5t97 42.5q65 0 97.5 -42.5t32.5 -129.5v-47q0 -86 -32.5 -128.5t-97.5 -42.5zM172 335q53 0 77 34.5t24 108.5v48q0 74 -24 108.5t-77 34.5q-34 0 -56.5 -15t-33 -46.5t-10.5 -81.5v-48q0 -49 10.5 -81t33 -47
t56.5 -15zM128 392q-3 0 -3 4v215q0 4 4 4h39q30 0 44.5 -15t14.5 -49q0 -27 -8.5 -40.5t-22.5 -20.5l33 -94q2 -4 -2 -4h-20q-3 0 -4 3l-31 90h-22v-89q0 -4 -3 -4h-19zM150 508h20q31 0 31 35v13q0 20 -7.5 28t-23.5 8h-20v-84z" />
    <glyph glyph-name="macron" unicode="&#xaf;" horiz-adv-x="193" 
d="M36 577q-6 0 -6 6v28q0 5 6 5h121q6 0 6 -5v-28q0 -6 -6 -6h-121z" />
    <glyph glyph-name="degree" unicode="&#xb0;" horiz-adv-x="236" 
d="M118 423q-43 0 -64 27.5t-21 75.5v59q0 49 21 76.5t64 27.5t63.5 -27.5t20.5 -76.5v-59q0 -48 -20.5 -75.5t-63.5 -27.5zM118 454q28 0 40 18.5t12 53.5v59q0 37 -12 55t-40 18t-40 -18t-12 -55v-59q0 -35 12 -53.5t40 -18.5z" />
    <glyph glyph-name="plusminus" unicode="&#xb1;" horiz-adv-x="420" 
d="M197 179q-6 0 -6 6v97h-97q-6 0 -6 5v27q0 6 6 6h97v98q0 5 6 5h27q5 0 5 -5v-98h98q5 0 5 -6v-27q0 -5 -5 -5h-98v-97q0 -6 -5 -6h-27zM96 79q-6 0 -6 6v27q0 6 6 6h228q6 0 6 -6v-27q0 -6 -6 -6h-228z" />
    <glyph glyph-name="uni00B2" unicode="&#xb2;" horiz-adv-x="235" 
d="M40 357q-6 0 -6 6v26q0 51 13 83.5t32 54.5t38.5 41t32.5 42t13 58v8q0 32 -10 47.5t-33 15.5q-27 0 -38 -19t-10 -58q0 -6 -6 -6h-22q-6 0 -6 6q-3 53 18.5 83t64.5 30q41 0 59.5 -25t18.5 -76q0 -45 -13 -72.5t-31.5 -47t-37.5 -39t-32 -48t-13 -75.5h121q3 0 4.5 -1
t1.5 -5v-23q0 -6 -6 -6h-153z" />
    <glyph glyph-name="uni00B3" unicode="&#xb3;" horiz-adv-x="235" 
d="M115 352q-30 0 -48.5 12.5t-27 37.5t-8.5 62q0 6 6 6h22q6 0 6 -6q0 -39 11 -57.5t39 -18.5q26 0 39.5 20.5t13.5 55.5v12q0 37 -12.5 55.5t-40.5 18.5h-26q-6 0 -6 6v24q0 6 6 6h24q23 0 36.5 20t13.5 56v11q0 32 -11 49t-36 17q-29 0 -39.5 -20t-9.5 -57q0 -6 -6 -6
h-22q-6 0 -6 6q-2 55 18.5 84t65.5 29q41 0 61.5 -26t20.5 -78q0 -39 -12 -63.5t-30 -36.5v-1q24 -10 35.5 -34.5t11.5 -65.5q0 -58 -23 -88t-66 -30z" />
    <glyph glyph-name="acute" unicode="&#xb4;" horiz-adv-x="168" 
d="M34 559q-3 0 -4 2t1 5l64 119q2 5 7 5h31q4 0 5 -2t-1 -6l-69 -119q-3 -4 -9 -4h-25z" />
    <glyph glyph-name="uni00B5" unicode="&#xb5;" horiz-adv-x="339" 
d="M58 -185q-5 0 -5 6v655q0 6 5 6h31q5 0 5 -6v-350q0 -42 14.5 -67t40.5 -25t49 19.5t47 50.5v372q0 6 5 6h30q6 0 6 -6v-399q0 -23 4.5 -33.5t18.5 -10.5q6 0 11 1t10 3q4 1 4 -5v-27q0 -4 -4 -6q-7 -3 -15.5 -4t-16.5 -1q-22 0 -35 13.5t-15 53.5v2q-24 -30 -47 -49.5
t-53 -19.5q-20 0 -34 11.5t-21 26.5v-211q0 -6 -5 -6h-30z" />
    <glyph glyph-name="paragraph" unicode="&#xb6;" horiz-adv-x="363" 
d="M134 -185q-6 0 -6 6v493h-17q-46 0 -69.5 29.5t-23.5 93.5v122q0 65 23.5 94.5t69.5 29.5h197q5 0 5 -6v-856q0 -6 -6 -6h-27q-6 0 -6 6v822h-107v-822q0 -6 -6 -6h-27z" />
    <glyph glyph-name="periodcentered" unicode="&#xb7;" horiz-adv-x="158" 
d="M82 237q-14 0 -22.5 8t-8.5 23v7q0 15 8.5 23t22.5 8q15 0 23 -8t8 -23v-7q0 -15 -8 -23t-23 -8z" />
    <glyph glyph-name="cedilla" unicode="&#xb8;" horiz-adv-x="155" 
d="M70 -191q-11 0 -19.5 1.5t-15.5 2.5q-5 2 -5 6v20q0 6 5 5t11 -2t15 -1q18 0 24 11.5t6 31.5v11q0 21 -8 30.5t-24 9.5h-14q-4 0 -4 6v7.5t1 7.5l17 60q2 4 5 4h22q5 0 3 -6l-16 -53h5q20 0 33.5 -14t13.5 -48v-17q0 -36 -13 -54.5t-42 -18.5z" />
    <glyph glyph-name="uni00B9" unicode="&#xb9;" horiz-adv-x="235" 
d="M43 357q-6 0 -6 6v23q0 6 6 6h59v333l-58 -24q-6 -2 -6 4v24q0 6 5 9l79 31q2 1 4 1h3h3q6 0 6 -6v-372h53q6 0 6 -6v-23q0 -6 -6 -6h-148z" />
    <glyph glyph-name="ordmasculine" unicode="&#xba;" horiz-adv-x="235" 
d="M118 329q-39 0 -60 23.5t-21 71.5v142q0 47 21 71t60 24q38 0 59 -24t21 -71v-142q0 -48 -21 -71.5t-59 -23.5zM47 225q-5 0 -5 6v23q0 6 5 6h141q5 0 5 -6v-23q0 -6 -5 -6h-141zM118 362q23 0 34.5 14t11.5 46v146q0 33 -11.5 47t-34.5 14q-24 0 -35.5 -14t-11.5 -47
v-146q0 -32 11.5 -46t35.5 -14z" />
    <glyph glyph-name="guillemotright" unicode="&#xbb;" horiz-adv-x="316" 
d="M158 93q-6 0 -3 8l77 161l-77 163q-2 4 -0.5 5.5t3.5 1.5h31q3 0 5 -4l79 -161q1 -5 0 -8l-78 -162q-2 -4 -6 -4h-31zM48 93q-7 0 -4 8l77 161l-77 163q-2 4 -0.5 5.5t3.5 1.5h31q3 0 5 -4l79 -161q1 -5 0 -8l-78 -162q-2 -4 -5 -4h-31z" />
    <glyph glyph-name="onequarter" unicode="&#xbc;" horiz-adv-x="540" 
d="M43 244q-6 0 -6 6v23q0 6 6 6h59v333l-58 -24q-6 -2 -6 4v24q0 6 5 9l79 31q2 1 4 1h3h3q6 0 6 -6v-372h53q6 0 6 -6v-23q0 -6 -6 -6h-148zM164 -24q-6 0 -4 8l107 357l101 333q1 5 6 5h26q7 0 5 -6l-106 -344l-102 -348q-2 -5 -7 -5h-26zM460 0q-6 0 -6 6v80h-127
q-6 0 -6 6v4q0 3 0.5 5.5t1.5 5.5l102 297q3 7 6 7h26q3 0 4 -2t0 -6l-96 -282h90l1 144q0 6 6 6h20q5 0 5 -6v-144h32q4 0 4 -6v-23q0 -6 -4 -6h-32v-80q0 -6 -6 -6h-21z" />
    <glyph glyph-name="onehalf" unicode="&#xbd;" horiz-adv-x="562" 
d="M43 244q-6 0 -6 6v23q0 6 6 6h59v333l-58 -24q-6 -2 -6 4v24q0 6 5 9l79 31q2 1 4 1h3h3q6 0 6 -6v-372h53q6 0 6 -6v-23q0 -6 -6 -6h-148zM164 -24q-6 0 -4 8l107 357l101 333q1 5 6 5h26q7 0 5 -6l-106 -344l-102 -348q-2 -5 -7 -5h-26zM367 0q-6 0 -6 6v26
q0 51 13 83.5t32 54.5t38.5 41t32.5 42t13 58v8q0 32 -10 47.5t-33 15.5q-27 0 -38 -19t-10 -58q0 -6 -6 -6h-22q-6 0 -6 6q-3 53 18.5 83t64.5 30q41 0 59.5 -25t18.5 -76q0 -45 -13 -72.5t-31.5 -47t-37.5 -39t-32 -48t-13 -75.5h121q3 0 4.5 -1t1.5 -5v-23q0 -6 -6 -6
h-153z" />
    <glyph glyph-name="threequarters" unicode="&#xbe;" horiz-adv-x="537" 
d="M115 239q-30 0 -48.5 12.5t-27 37.5t-8.5 62q0 6 6 6h22q6 0 6 -6q0 -39 11 -57.5t39 -18.5q26 0 39.5 20.5t13.5 55.5v12q0 37 -12.5 55.5t-40.5 18.5h-26q-6 0 -6 6v24q0 6 6 6h24q23 0 36.5 20t13.5 56v11q0 32 -11 49t-36 17q-29 0 -39.5 -20t-9.5 -57q0 -6 -6 -6
h-22q-6 0 -6 6q-2 55 18.5 84t65.5 29q41 0 61.5 -26t20.5 -78q0 -39 -12 -63.5t-30 -36.5v-1q24 -10 35.5 -34.5t11.5 -65.5q0 -58 -23 -88t-66 -30zM161 -24q-6 0 -4 8l107 357l101 333q1 5 6 5h26q7 0 5 -6l-106 -344l-102 -348q-2 -5 -7 -5h-26zM457 0q-6 0 -6 6v80
h-127q-6 0 -6 6v4q0 3 0.5 5.5t1.5 5.5l102 297q3 7 6 7h26q3 0 4 -2t0 -6l-96 -282h90l1 144q0 6 6 6h20q5 0 5 -6v-144h32q4 0 4 -6v-23q0 -6 -4 -6h-32v-80q0 -6 -6 -6h-21z" />
    <glyph glyph-name="questiondown" unicode="&#xbf;" horiz-adv-x="282" 
d="M169 306q4 0 4 -6v-51q0 -38 -10 -67t-25.5 -54.5t-31.5 -51.5t-26 -57t-10 -72q0 -50 16 -68.5t52 -18.5q45 0 60.5 33t12.5 98q0 6 5 6h29q3 0 4 -1.5t1 -5.5q5 -86 -24.5 -127.5t-89.5 -41.5q-54 0 -80.5 29t-26.5 96q0 43 10.5 76t26 61t31 54t26 53t10.5 60v50
q0 6 5 6h31zM153 489q15 0 22.5 -8.5t7.5 -23.5v-7q0 -15 -7.5 -22.5t-22.5 -7.5q-16 0 -24 7.5t-8 22.5v7q0 15 8 23.5t24 8.5z" />
    <glyph glyph-name="Agrave" unicode="&#xc0;" horiz-adv-x="334" 
d="M6 0q-6 0 -5 7l138 643q1 5 6 5h43q5 0 6 -5l138 -643q1 -7 -4 -7h-33q-5 0 -6 5l-95 464q-7 35 -13.5 69t-13.5 69h-1q-6 -35 -12.5 -69.5t-14.5 -70.5l-95 -462q-1 -5 -6 -5h-32zM71 176l9 40h172l9 -40h-190zM175 723q-6 0 -7 4l-61 104q-3 3 -1.5 5.5t3.5 2.5h33
q3 0 4.5 -1.5l3.5 -3.5l55 -105q2 -3 1 -4.5t-4 -1.5h-27z" />
    <glyph glyph-name="Aacute" unicode="&#xc1;" horiz-adv-x="334" 
d="M6 0q-6 0 -5 7l138 643q1 5 6 5h43q5 0 6 -5l138 -643q1 -7 -4 -7h-33q-5 0 -6 5l-95 464q-7 35 -13.5 69t-13.5 69h-1q-6 -35 -12.5 -69.5t-14.5 -70.5l-95 -462q-1 -5 -6 -5h-32zM71 176l9 40h172l9 -40h-190zM132 723q-3 0 -4 1.5t1 4.5l55 105q4 5 8 5h32q4 0 5 -2.5
t-2 -5.5l-61 -104q-1 -4 -8 -4h-26z" />
    <glyph glyph-name="Acircumflex" unicode="&#xc2;" horiz-adv-x="334" 
d="M6 0q-6 0 -5 7l138 643q1 5 6 5h43q5 0 6 -5l138 -643q1 -7 -4 -7h-33q-5 0 -6 5l-95 464q-7 35 -13.5 69t-13.5 69h-1q-6 -35 -12.5 -69.5t-14.5 -70.5l-95 -462q-1 -5 -6 -5h-32zM71 176l9 40h172l9 -40h-190zM96 734q-6 -3 -6 2v25q0 6 3 8l70 40q4 2 8 0l70 -40
q3 -2 3 -8v-25q0 -4 -6 -2l-71 39z" />
    <glyph glyph-name="Atilde" unicode="&#xc3;" horiz-adv-x="334" 
d="M6 0q-6 0 -5 7l138 643q1 5 6 5h43q5 0 6 -5l138 -643q1 -7 -4 -7h-33q-5 0 -6 5l-95 464q-7 35 -13.5 69t-13.5 69h-1q-6 -35 -12.5 -69.5t-14.5 -70.5l-95 -462q-1 -5 -6 -5h-32zM71 176l9 40h172l9 -40h-190zM195 748q-20 0 -32 7.5t-28 7.5q-12 0 -21 -4t-17 -10
q-6 -3 -6 4v23q0 6 3 8q6 5 17 10.5t28 5.5q20 0 31.5 -7.5t27.5 -7.5q12 0 21.5 3.5t17.5 8.5q6 3 6 -4v-22q0 -6 -3 -9q-7 -5 -17.5 -9.5t-27.5 -4.5z" />
    <glyph glyph-name="Adieresis" unicode="&#xc4;" horiz-adv-x="334" 
d="M6 0q-6 0 -5 7l138 643q1 5 6 5h43q5 0 6 -5l138 -643q1 -7 -4 -7h-33q-5 0 -6 5l-95 464q-7 35 -13.5 69t-13.5 69h-1q-6 -35 -12.5 -69.5t-14.5 -70.5l-95 -462q-1 -5 -6 -5h-32zM71 176l9 40h172l9 -40h-190zM120 741q-14 0 -21.5 7.5t-7.5 21.5v7q0 14 7.5 21.5
t21.5 7.5t21.5 -7.5t7.5 -21.5v-7q0 -14 -7.5 -21.5t-21.5 -7.5zM214 741q-13 0 -20.5 7.5t-7.5 21.5v7q0 14 7.5 21.5t20.5 7.5q15 0 22 -7.5t7 -21.5v-7q0 -14 -7 -21.5t-22 -7.5z" />
    <glyph glyph-name="Aring" unicode="&#xc5;" horiz-adv-x="334" 
d="M332 7q1 -7 -4 -7h-33q-5 0 -6 5l-36 171h-174l-35 -171q-1 -5 -6 -5h-32q-6 0 -5 7l135 630q-34 16 -34 68q0 36 17.5 56t47.5 20q31 0 48 -20t17 -56q0 -53 -35 -68zM132 704q0 -50 35 -50t35 50t-35 50t-35 -50zM86 216h160l-52 253q-7 35 -13.5 70t-13.5 69h-1
q-6 -34 -12.5 -69.5t-14.5 -71.5z" />
    <glyph glyph-name="AE" unicode="&#xc6;" horiz-adv-x="501" 
d="M6 0q-6 0 -4 7l199 644q1 4 5 4h246q5 0 5 -6v-28q0 -6 -5 -6h-181v-261h167q5 0 5 -6v-26q0 -6 -5 -6h-167v-276h181q5 0 5 -6v-28q0 -6 -5 -6h-218q-4 0 -4 6v170h-132l-53 -172q-1 -4 -5 -4h-34zM108 216h122v315v44v45h-1q-6 -23 -12.5 -46.5t-13.5 -45.5z" />
    <glyph glyph-name="Ccedilla" unicode="&#xc7;" horiz-adv-x="391" 
d="M198 -6q-73 0 -111 48t-38 143v285q0 95 38 143t111 48q52 0 86 -25t48.5 -71.5t8.5 -113.5q-1 -5 -5 -5h-31q-6 0 -5 6q5 85 -19.5 127t-82.5 42q-53 0 -80.5 -37.5t-27.5 -116.5v-279q0 -78 27.5 -116t80.5 -38q59 0 83.5 43.5t20.5 125.5q-1 6 5 6h29q6 0 6 -6
q5 -102 -31 -155.5t-113 -53.5zM201 -193q-11 0 -19.5 1.5t-15.5 2.5q-5 2 -5 6v20q0 6 5 5t11 -2t15 -1q18 0 24 11.5t6 31.5v11q0 21 -8 30.5t-24 9.5h-14q-4 0 -4 6v7.5t1 7.5l17 60q2 4 5 4h22q5 0 3 -6l-16 -53h5q20 0 33.5 -14t13.5 -48v-17q0 -36 -13 -54.5
t-42 -18.5z" />
    <glyph glyph-name="Egrave" unicode="&#xc8;" horiz-adv-x="330" 
d="M64 0q-5 0 -5 6v643q0 6 5 6h217q5 0 5 -6v-28q0 -6 -5 -6h-181v-261h167q5 0 5 -6v-26q0 -6 -5 -6h-167v-276h181q5 0 5 -6v-28q0 -6 -5 -6h-217zM180 723q-6 0 -7 4l-61 104q-3 3 -1.5 5.5t3.5 2.5h33q3 0 4.5 -1.5l3.5 -3.5l55 -105q2 -3 1 -4.5t-4 -1.5h-27z" />
    <glyph glyph-name="Eacute" unicode="&#xc9;" horiz-adv-x="330" 
d="M64 0q-5 0 -5 6v643q0 6 5 6h217q5 0 5 -6v-28q0 -6 -5 -6h-181v-261h167q5 0 5 -6v-26q0 -6 -5 -6h-167v-276h181q5 0 5 -6v-28q0 -6 -5 -6h-217zM138 723q-3 0 -4 1.5t1 4.5l55 105q4 5 8 5h32q4 0 5 -2.5t-2 -5.5l-61 -104q-1 -4 -8 -4h-26z" />
    <glyph glyph-name="Ecircumflex" unicode="&#xca;" horiz-adv-x="330" 
d="M64 0q-5 0 -5 6v643q0 6 5 6h217q5 0 5 -6v-28q0 -6 -5 -6h-181v-261h167q5 0 5 -6v-26q0 -6 -5 -6h-167v-276h181q5 0 5 -6v-28q0 -6 -5 -6h-217zM101 734q-6 -3 -6 2v25q0 6 3 8l70 40q4 2 8 0l70 -40q3 -2 3 -8v-25q0 -4 -6 -2l-71 39z" />
    <glyph glyph-name="Edieresis" unicode="&#xcb;" horiz-adv-x="330" 
d="M64 0q-5 0 -5 6v643q0 6 5 6h217q5 0 5 -6v-28q0 -6 -5 -6h-181v-261h167q5 0 5 -6v-26q0 -6 -5 -6h-167v-276h181q5 0 5 -6v-28q0 -6 -5 -6h-217zM126 741q-14 0 -21.5 7.5t-7.5 21.5v7q0 14 7.5 21.5t21.5 7.5t21.5 -7.5t7.5 -21.5v-7q0 -14 -7.5 -21.5t-21.5 -7.5z
M220 741q-13 0 -20.5 7.5t-7.5 21.5v7q0 14 7.5 21.5t20.5 7.5q15 0 22 -7.5t7 -21.5v-7q0 -14 -7 -21.5t-22 -7.5z" />
    <glyph glyph-name="Igrave" unicode="&#xcc;" horiz-adv-x="158" 
d="M64 0q-5 0 -5 6v643q0 6 5 6h31q5 0 5 -6v-643q0 -6 -5 -6h-31zM88 723q-6 0 -7 4l-61 104q-3 3 -1.5 5.5t3.5 2.5h33q3 0 4.5 -1.5l3.5 -3.5l55 -105q2 -3 1 -4.5t-4 -1.5h-27z" />
    <glyph glyph-name="Iacute" unicode="&#xcd;" horiz-adv-x="158" 
d="M64 0q-5 0 -5 6v643q0 6 5 6h31q5 0 5 -6v-643q0 -6 -5 -6h-31zM45 723q-3 0 -4 1.5t1 4.5l55 105q4 5 8 5h32q4 0 5 -2.5t-2 -5.5l-61 -104q-1 -4 -8 -4h-26z" />
    <glyph glyph-name="Icircumflex" unicode="&#xce;" horiz-adv-x="158" 
d="M64 0q-5 0 -5 6v643q0 6 5 6h31q5 0 5 -6v-643q0 -6 -5 -6h-31zM9 734q-6 -3 -6 2v25q0 6 3 8l70 40q4 2 8 0l70 -40q3 -2 3 -8v-25q0 -4 -6 -2l-71 39z" />
    <glyph glyph-name="Idieresis" unicode="&#xcf;" horiz-adv-x="158" 
d="M64 0q-5 0 -5 6v643q0 6 5 6h31q5 0 5 -6v-643q0 -6 -5 -6h-31zM33 741q-14 0 -21.5 7.5t-7.5 21.5v7q0 14 7.5 21.5t21.5 7.5t21.5 -7.5t7.5 -21.5v-7q0 -14 -7.5 -21.5t-21.5 -7.5zM127 741q-13 0 -20.5 7.5t-7.5 21.5v7q0 14 7.5 21.5t20.5 7.5q15 0 22 -7.5t7 -21.5
v-7q0 -14 -7 -21.5t-22 -7.5z" />
    <glyph glyph-name="Eth" unicode="&#xd0;" horiz-adv-x="395" 
d="M11 316q-5 0 -5 6v26q0 6 5 6h48h131q5 0 5 -6v-26q0 -6 -5 -6h-179zM65 0q-6 0 -6 6v643q0 6 5 6h92q99 0 146.5 -63.5t47.5 -203.5v-106q0 -147 -45 -214.5t-145 -67.5h-95zM100 40h58q82 0 116.5 56.5t34.5 183.5v108q0 120 -37 173.5t-117 53.5h-55v-575z" />
    <glyph glyph-name="Ntilde" unicode="&#xd1;" horiz-adv-x="410" 
d="M63 0q-4 0 -4 6v643q0 6 5 6h52q5 0 6 -4l124 -384q12 -33 23.5 -70t22.5 -74t21 -70h1q0 25 -0.5 52t-1 55t-0.5 55.5v52.5v381q0 6 5 6h30q5 0 5 -6v-643q0 -6 -5 -6h-52q-4 0 -6 4l-120 371q-19 58 -36.5 116t-33.5 111h-2q1 -35 1 -74.5t0.5 -79t0.5 -76.5v-366
q0 -6 -5 -6h-31zM233 748q-20 0 -32 7.5t-28 7.5q-12 0 -21 -4t-17 -10q-6 -3 -6 4v23q0 6 3 8q6 5 17 10.5t28 5.5q20 0 31.5 -7.5t27.5 -7.5q12 0 21.5 3.5t17.5 8.5q6 3 6 -4v-22q0 -6 -3 -9q-7 -5 -17.5 -9.5t-27.5 -4.5z" />
    <glyph glyph-name="Ograve" unicode="&#xd2;" horiz-adv-x="396" 
d="M198 -6q-72 0 -110.5 45.5t-38.5 135.5v304q0 92 38.5 137t110.5 45q71 0 110 -45t39 -137v-304q0 -90 -39 -135.5t-110 -45.5zM198 34q52 0 80 35t28 109v298q0 75 -28 110t-80 35q-53 0 -80.5 -35t-27.5 -110v-298q0 -74 27.5 -109t80.5 -35zM205 723q-6 0 -7 4
l-61 104q-3 3 -1.5 5.5t3.5 2.5h33q3 0 4.5 -1.5l3.5 -3.5l55 -105q2 -3 1 -4.5t-4 -1.5h-27z" />
    <glyph glyph-name="Oacute" unicode="&#xd3;" horiz-adv-x="396" 
d="M198 -6q-72 0 -110.5 45.5t-38.5 135.5v304q0 92 38.5 137t110.5 45q71 0 110 -45t39 -137v-304q0 -90 -39 -135.5t-110 -45.5zM198 34q52 0 80 35t28 109v298q0 75 -28 110t-80 35q-53 0 -80.5 -35t-27.5 -110v-298q0 -74 27.5 -109t80.5 -35zM163 723q-3 0 -4 1.5
t1 4.5l55 105q4 5 8 5h32q4 0 5 -2.5t-2 -5.5l-61 -104q-1 -4 -8 -4h-26z" />
    <glyph glyph-name="Ocircumflex" unicode="&#xd4;" horiz-adv-x="396" 
d="M198 -6q-72 0 -110.5 45.5t-38.5 135.5v304q0 92 38.5 137t110.5 45q71 0 110 -45t39 -137v-304q0 -90 -39 -135.5t-110 -45.5zM198 34q52 0 80 35t28 109v298q0 75 -28 110t-80 35q-53 0 -80.5 -35t-27.5 -110v-298q0 -74 27.5 -109t80.5 -35zM126 734q-6 -3 -6 2v25
q0 6 3 8l70 40q4 2 8 0l70 -40q3 -2 3 -8v-25q0 -4 -6 -2l-71 39z" />
    <glyph glyph-name="Otilde" unicode="&#xd5;" horiz-adv-x="396" 
d="M198 -6q-72 0 -110.5 45.5t-38.5 135.5v304q0 92 38.5 137t110.5 45q71 0 110 -45t39 -137v-304q0 -90 -39 -135.5t-110 -45.5zM198 34q52 0 80 35t28 109v298q0 75 -28 110t-80 35q-53 0 -80.5 -35t-27.5 -110v-298q0 -74 27.5 -109t80.5 -35zM226 748q-20 0 -32 7.5
t-28 7.5q-12 0 -21 -4t-17 -10q-6 -3 -6 4v23q0 6 3 8q6 5 17 10.5t28 5.5q20 0 31.5 -7.5t27.5 -7.5q12 0 21.5 3.5t17.5 8.5q6 3 6 -4v-22q0 -6 -3 -9q-7 -5 -17.5 -9.5t-27.5 -4.5z" />
    <glyph glyph-name="Odieresis" unicode="&#xd6;" horiz-adv-x="396" 
d="M198 -6q-72 0 -110.5 45.5t-38.5 135.5v304q0 92 38.5 137t110.5 45q71 0 110 -45t39 -137v-304q0 -90 -39 -135.5t-110 -45.5zM198 34q52 0 80 35t28 109v298q0 75 -28 110t-80 35q-53 0 -80.5 -35t-27.5 -110v-298q0 -74 27.5 -109t80.5 -35zM151 741q-14 0 -21.5 7.5
t-7.5 21.5v7q0 14 7.5 21.5t21.5 7.5t21.5 -7.5t7.5 -21.5v-7q0 -14 -7.5 -21.5t-21.5 -7.5zM245 741q-13 0 -20.5 7.5t-7.5 21.5v7q0 14 7.5 21.5t20.5 7.5q15 0 22 -7.5t7 -21.5v-7q0 -14 -7 -21.5t-22 -7.5z" />
    <glyph glyph-name="multiply" unicode="&#xd7;" horiz-adv-x="420" 
d="M133 206l-19 19q-3 4 0 8l69 68l-69 69q-3 4 0 8l19 19q5 5 9 0l69 -68l68 68q4 4 8 0l19 -19q5 -4 0 -8l-69 -69l69 -68q5 -4 0 -9l-19 -19q-4 -3 -8 0l-68 69l-69 -68q-4 -5 -9 0z" />
    <glyph glyph-name="Oslash" unicode="&#xd8;" horiz-adv-x="396" 
d="M43 -49q-4 0 -2 6l40 111l12 29l186 500l7 20l31 83q1 4 6 4h28q5 0 3 -7l-40 -106l-12 -33l-186 -501l-7 -21l-31 -81q-1 -4 -5 -4h-30zM198 -6q-72 0 -110.5 45.5t-38.5 135.5v304q0 92 38.5 137t110.5 45q71 0 110 -45t39 -137v-304q0 -90 -39 -135.5t-110 -45.5z
M198 34q52 0 80 35t28 109v298q0 75 -28 110t-80 35q-53 0 -80.5 -35t-27.5 -110v-298q0 -74 27.5 -109t80.5 -35z" />
    <glyph glyph-name="Ugrave" unicode="&#xd9;" horiz-adv-x="398" 
d="M199 -6q-75 0 -109.5 50.5t-34.5 152.5v452q0 6 5 6h31q5 0 5 -6v-451q0 -84 24.5 -124t78.5 -40t78.5 39.5t24.5 124.5v451q0 6 5 6h31q5 0 5 -6v-452q0 -102 -35 -152.5t-109 -50.5zM206 723q-6 0 -7 4l-61 104q-3 3 -1.5 5.5t3.5 2.5h33q3 0 4.5 -1.5l3.5 -3.5
l55 -105q2 -3 1 -4.5t-4 -1.5h-27z" />
    <glyph glyph-name="Uacute" unicode="&#xda;" horiz-adv-x="398" 
d="M199 -6q-75 0 -109.5 50.5t-34.5 152.5v452q0 6 5 6h31q5 0 5 -6v-451q0 -84 24.5 -124t78.5 -40t78.5 39.5t24.5 124.5v451q0 6 5 6h31q5 0 5 -6v-452q0 -102 -35 -152.5t-109 -50.5zM164 723q-3 0 -4 1.5t1 4.5l55 105q4 5 8 5h32q4 0 5 -2.5t-2 -5.5l-61 -104
q-1 -4 -8 -4h-26z" />
    <glyph glyph-name="Ucircumflex" unicode="&#xdb;" horiz-adv-x="398" 
d="M199 -6q-75 0 -109.5 50.5t-34.5 152.5v452q0 6 5 6h31q5 0 5 -6v-451q0 -84 24.5 -124t78.5 -40t78.5 39.5t24.5 124.5v451q0 6 5 6h31q5 0 5 -6v-452q0 -102 -35 -152.5t-109 -50.5zM127 734q-6 -3 -6 2v25q0 6 3 8l70 40q4 2 8 0l70 -40q3 -2 3 -8v-25q0 -4 -6 -2
l-71 39z" />
    <glyph glyph-name="Udieresis" unicode="&#xdc;" horiz-adv-x="398" 
d="M199 -6q-75 0 -109.5 50.5t-34.5 152.5v452q0 6 5 6h31q5 0 5 -6v-451q0 -84 24.5 -124t78.5 -40t78.5 39.5t24.5 124.5v451q0 6 5 6h31q5 0 5 -6v-452q0 -102 -35 -152.5t-109 -50.5zM152 741q-14 0 -21.5 7.5t-7.5 21.5v7q0 14 7.5 21.5t21.5 7.5t21.5 -7.5t7.5 -21.5
v-7q0 -14 -7.5 -21.5t-21.5 -7.5zM246 741q-13 0 -20.5 7.5t-7.5 21.5v7q0 14 7.5 21.5t20.5 7.5q15 0 22 -7.5t7 -21.5v-7q0 -14 -7 -21.5t-22 -7.5z" />
    <glyph glyph-name="Yacute" unicode="&#xdd;" horiz-adv-x="330" 
d="M149 0q-4 0 -4 6v218l-133 423q-2 8 3 8h36q4 0 5 -5l77 -260q8 -28 16.5 -56t15.5 -56h1q8 28 16.5 56t15.5 56l77 261q1 4 5 4h34q6 0 4 -8l-132 -422v-219q0 -6 -4 -6h-33zM130 723q-3 0 -4 1.5t1 4.5l55 105q4 5 8 5h32q4 0 5 -2.5t-2 -5.5l-61 -104q-1 -4 -8 -4h-26
z" />
    <glyph glyph-name="Thorn" unicode="&#xde;" horiz-adv-x="337" 
d="M64 0q-5 0 -5 6v643q0 6 5 6h31q5 0 5 -6v-115h49q80 0 120 -46t40 -149q0 -96 -37 -145.5t-119 -49.5h-53v-138q0 -6 -5 -6h-31zM100 184h49q66 0 92.5 38.5t26.5 114.5q0 85 -29.5 121.5t-86.5 36.5h-52v-311z" />
    <glyph glyph-name="germandbls" unicode="&#xdf;" horiz-adv-x="337" 
d="M223 -6q-44 0 -64.5 24.5t-19.5 79.5q0 5 4 5h31q4 0 4 -6q0 -34 10 -48.5t36 -14.5t37 20t11 67q0 36 -10.5 61t-26 45t-31 39t-26 42.5t-10.5 57.5q0 30 9 53t20.5 45t20.5 47.5t9 60.5q0 43 -17 60t-47 17q-37 0 -53 -27t-16 -88v-528q0 -6 -4 -6h-33q-4 0 -4 6v522
q0 86 26.5 123.5t84.5 37.5q50 0 77 -26.5t27 -86.5q0 -40 -9 -68t-20.5 -50t-20.5 -43t-9 -47q0 -27 10.5 -46.5t26 -38t31 -40t26 -50t10.5 -70.5q0 -65 -22.5 -97t-67.5 -32z" />
    <glyph glyph-name="agrave" unicode="&#xe0;" horiz-adv-x="307" 
d="M225 0q-5 0 -5 6q-2 23 -3.5 49t-1.5 42l-2 3v260q0 50 -13 69.5t-47 19.5q-35 0 -50 -21t-11 -63q0 -6 -6 -6h-27q-7 0 -7 8q-5 57 21.5 89t79.5 32q55 1 78 -28t23 -99v-246q0 -34 1 -61.5t2 -46.5q0 -7 -4 -7h-28zM114 -6q-38 0 -58 33t-20 90q0 65 28.5 105.5
t91.5 47.5l62 8v-35l-58 -8q-44 -5 -63.5 -35t-19.5 -81q0 -39 12.5 -62t35.5 -23q20 0 41 15.5t54 60.5l1 -41q-33 -43 -56 -59t-51 -16zM160 559q-5 0 -8 4l-69 119q-3 4 -1.5 6t4.5 2h31q5 0 7 -5l64 -119q2 -3 1 -5t-4 -2h-25z" />
    <glyph glyph-name="aacute" unicode="&#xe1;" horiz-adv-x="307" 
d="M225 0q-5 0 -5 6q-2 23 -3.5 49t-1.5 42l-2 3v260q0 50 -13 69.5t-47 19.5q-35 0 -50 -21t-11 -63q0 -6 -6 -6h-27q-7 0 -7 8q-5 57 21.5 89t79.5 32q55 1 78 -28t23 -99v-246q0 -34 1 -61.5t2 -46.5q0 -7 -4 -7h-28zM114 -6q-38 0 -58 33t-20 90q0 65 28.5 105.5
t91.5 47.5l62 8v-35l-58 -8q-44 -5 -63.5 -35t-19.5 -81q0 -39 12.5 -62t35.5 -23q20 0 41 15.5t54 60.5l1 -41q-33 -43 -56 -59t-51 -16zM119 559q-3 0 -4 2t1 5l64 119q2 5 7 5h31q4 0 5 -2t-1 -6l-69 -119q-3 -4 -9 -4h-25z" />
    <glyph glyph-name="acircumflex" unicode="&#xe2;" horiz-adv-x="307" 
d="M225 0q-5 0 -5 6q-2 23 -3.5 49t-1.5 42l-2 3v260q0 50 -13 69.5t-47 19.5q-35 0 -50 -21t-11 -63q0 -6 -6 -6h-27q-7 0 -7 8q-5 57 21.5 89t79.5 32q55 1 78 -28t23 -99v-246q0 -34 1 -61.5t2 -46.5q0 -7 -4 -7h-28zM114 -6q-38 0 -58 33t-20 90q0 65 28.5 105.5
t91.5 47.5l62 8v-35l-58 -8q-44 -5 -63.5 -35t-19.5 -81q0 -39 12.5 -62t35.5 -23q20 0 41 15.5t54 60.5l1 -41q-33 -43 -56 -59t-51 -16zM86 563q-6 -3 -6 3v26q0 6 3 8l68 41q4 3 8 0l68 -41q2 -2 2 -8v-26q0 -5 -6 -3l-68 42z" />
    <glyph glyph-name="atilde" unicode="&#xe3;" horiz-adv-x="307" 
d="M225 0q-5 0 -5 6q-2 23 -3.5 49t-1.5 42l-2 3v260q0 50 -13 69.5t-47 19.5q-35 0 -50 -21t-11 -63q0 -6 -6 -6h-27q-7 0 -7 8q-5 57 21.5 89t79.5 32q55 1 78 -28t23 -99v-246q0 -34 1 -61.5t2 -46.5q0 -7 -4 -7h-28zM114 -6q-38 0 -58 33t-20 90q0 65 28.5 105.5
t91.5 47.5l62 8v-35l-58 -8q-44 -5 -63.5 -35t-19.5 -81q0 -39 12.5 -62t35.5 -23q20 0 41 15.5t54 60.5l1 -41q-33 -43 -56 -59t-51 -16zM182 575q-12 0 -22 4t-18 7.5t-17 3.5q-10 0 -19 -5t-17 -10q-6 -3 -6 4v24q0 5 3 8q6 6 17 11t25 5q13 0 22 -3.5t17 -7.5t17 -4
q11 0 19.5 3.5t16.5 8.5q7 3 7 -4v-23q0 -5 -3 -8q-7 -7 -18 -10.5t-24 -3.5z" />
    <glyph glyph-name="adieresis" unicode="&#xe4;" horiz-adv-x="307" 
d="M225 0q-5 0 -5 6q-2 23 -3.5 49t-1.5 42l-2 3v260q0 50 -13 69.5t-47 19.5q-35 0 -50 -21t-11 -63q0 -6 -6 -6h-27q-7 0 -7 8q-5 57 21.5 89t79.5 32q55 1 78 -28t23 -99v-246q0 -34 1 -61.5t2 -46.5q0 -7 -4 -7h-28zM114 -6q-38 0 -58 33t-20 90q0 65 28.5 105.5
t91.5 47.5l62 8v-35l-58 -8q-44 -5 -63.5 -35t-19.5 -81q0 -39 12.5 -62t35.5 -23q20 0 41 15.5t54 60.5l1 -41q-33 -43 -56 -59t-51 -16zM108 583q-14 0 -21.5 8t-7.5 21v8q0 13 7.5 20.5t21.5 7.5t21.5 -7.5t7.5 -20.5v-8q0 -13 -7.5 -21t-21.5 -8zM202 583q-13 0 -20.5 8
t-7.5 21v8q0 13 7.5 20.5t20.5 7.5q15 0 22 -7.5t7 -20.5v-8q0 -13 -7 -21t-22 -8z" />
    <glyph glyph-name="aring" unicode="&#xe5;" horiz-adv-x="307" 
d="M225 0q-5 0 -5 6q-2 23 -3.5 49t-1.5 42l-2 3v260q0 50 -13 69.5t-47 19.5q-35 0 -50 -21t-11 -63q0 -6 -6 -6h-27q-7 0 -7 8q-5 57 21.5 89t79.5 32q55 1 78 -28t23 -99v-246q0 -34 1 -61.5t2 -46.5q0 -7 -4 -7h-28zM114 -6q-38 0 -58 33t-20 90q0 65 28.5 105.5
t91.5 47.5l62 8v-35l-58 -8q-44 -5 -63.5 -35t-19.5 -81q0 -39 12.5 -62t35.5 -23q20 0 41 15.5t54 60.5l1 -41q-33 -43 -56 -59t-51 -16zM155 548q-30 0 -47.5 20t-17.5 56t17.5 56t47.5 20q31 0 48 -20t17 -56t-17.5 -56t-47.5 -20zM155 575q35 0 35 49t-35 49t-35 -49
t35 -49z" />
    <glyph glyph-name="ae" unicode="&#xe6;" horiz-adv-x="481" 
d="M114 -6q-38 0 -58 33t-20 90q0 65 28.5 104t91.5 48l57 8v83q0 48 -13 68.5t-47 20.5q-35 0 -48 -21t-13 -63q0 -6 -6 -6h-27q-7 0 -7 8q-3 57 22.5 89t78.5 32q36 1 56 -13.5t29 -45.5q14 31 38 45t53 14q53 0 82.5 -37.5t29.5 -112.5v-94q0 -6 -5 -6h-182v-84
q0 -61 19.5 -90.5t57.5 -29.5q34 0 49.5 22t15.5 65q0 7 4 7h31q5 0 5 -6q0 -63 -27 -95.5t-78 -32.5q-40 0 -67.5 19t-39.5 59q-31 -40 -56 -59t-54 -19zM125 34q19 0 39.5 14.5t51.5 57.5q-1 10 -2 21t-1 23v90l-53 -8q-43 -5 -63 -33.5t-20 -79.5q0 -39 12.5 -62
t35.5 -23zM254 277h146v60q0 56 -19 84t-53 28q-35 0 -54.5 -28t-19.5 -84v-60z" />
    <glyph glyph-name="ccedilla" unicode="&#xe7;" horiz-adv-x="317" 
d="M165 -6q-62 0 -92.5 37t-30.5 115v191q0 77 30.5 114t91.5 37q38 0 64 -16.5t38.5 -48t9.5 -74.5q0 -8 -6 -8h-29q-2 0 -3.5 1.5t-0.5 4.5q2 47 -16.5 74.5t-56.5 27.5q-41 0 -61 -27t-20 -87v-188q0 -59 20 -86t62 -27q38 0 55.5 26t15.5 79q0 7 5 7h29q6 0 6 -6
q1 -72 -26 -109t-85 -37zM165 -193q-11 0 -19.5 1.5t-15.5 2.5q-5 2 -5 6v20q0 6 5 5t11 -2t15 -1q18 0 24 11.5t6 31.5v11q0 21 -8 30.5t-24 9.5h-14q-4 0 -4 6v7.5t1 7.5l17 60q2 4 5 4h22q5 0 3 -6l-16 -53h5q20 0 33.5 -14t13.5 -48v-17q0 -36 -13 -54.5t-42 -18.5z" />
    <glyph glyph-name="egrave" unicode="&#xe8;" horiz-adv-x="319" 
d="M165 -6q-62 0 -92.5 39t-30.5 120v184q0 79 31 115t88 36q56 0 87 -37.5t31 -112.5v-94q0 -6 -6 -6h-190v-84q0 -61 20 -90.5t62 -29.5q36 0 52.5 22t16.5 65q-1 7 4 7h30q5 0 5 -6q1 -63 -26.5 -95.5t-81.5 -32.5zM83 277h155v60q0 56 -19.5 84t-57.5 28t-58 -28
t-20 -84v-60zM165 559q-5 0 -8 4l-69 119q-3 4 -1.5 6t4.5 2h31q5 0 7 -5l64 -119q2 -3 1 -5t-4 -2h-25z" />
    <glyph glyph-name="eacute" unicode="&#xe9;" horiz-adv-x="319" 
d="M165 -6q-62 0 -92.5 39t-30.5 120v184q0 79 31 115t88 36q56 0 87 -37.5t31 -112.5v-94q0 -6 -6 -6h-190v-84q0 -61 20 -90.5t62 -29.5q36 0 52.5 22t16.5 65q-1 7 4 7h30q5 0 5 -6q1 -63 -26.5 -95.5t-81.5 -32.5zM83 277h155v60q0 56 -19.5 84t-57.5 28t-58 -28
t-20 -84v-60zM124 559q-3 0 -4 2t1 5l64 119q2 5 7 5h31q4 0 5 -2t-1 -6l-69 -119q-3 -4 -9 -4h-25z" />
    <glyph glyph-name="ecircumflex" unicode="&#xea;" horiz-adv-x="319" 
d="M165 -6q-62 0 -92.5 39t-30.5 120v184q0 79 31 115t88 36q56 0 87 -37.5t31 -112.5v-94q0 -6 -6 -6h-190v-84q0 -61 20 -90.5t62 -29.5q36 0 52.5 22t16.5 65q-1 7 4 7h30q5 0 5 -6q1 -63 -26.5 -95.5t-81.5 -32.5zM83 277h155v60q0 56 -19.5 84t-57.5 28t-58 -28
t-20 -84v-60zM91 563q-6 -3 -6 3v26q0 6 3 8l68 41q4 3 8 0l68 -41q2 -2 2 -8v-26q0 -5 -6 -3l-68 42z" />
    <glyph glyph-name="edieresis" unicode="&#xeb;" horiz-adv-x="319" 
d="M165 -6q-62 0 -92.5 39t-30.5 120v184q0 79 31 115t88 36q56 0 87 -37.5t31 -112.5v-94q0 -6 -6 -6h-190v-84q0 -61 20 -90.5t62 -29.5q36 0 52.5 22t16.5 65q-1 7 4 7h30q5 0 5 -6q1 -63 -26.5 -95.5t-81.5 -32.5zM83 277h155v60q0 56 -19.5 84t-57.5 28t-58 -28
t-20 -84v-60zM113 583q-14 0 -21.5 8t-7.5 21v8q0 13 7.5 20.5t21.5 7.5t21.5 -7.5t7.5 -20.5v-8q0 -13 -7.5 -21t-21.5 -8zM207 583q-13 0 -20.5 8t-7.5 21v8q0 13 7.5 20.5t20.5 7.5q15 0 22 -7.5t7 -20.5v-8q0 -13 -7 -21t-22 -8z" />
    <glyph glyph-name="igrave" unicode="&#xec;" horiz-adv-x="147" 
d="M58 0q-5 0 -5 6v470q0 6 5 6h31q5 0 5 -6v-470q0 -6 -5 -6h-31zM79 559q-5 0 -8 4l-69 119q-3 4 -1.5 6t4.5 2h31q5 0 7 -5l64 -119q2 -3 1 -5t-4 -2h-25z" />
    <glyph glyph-name="iacute" unicode="&#xed;" horiz-adv-x="147" 
d="M58 0q-5 0 -5 6v470q0 6 5 6h31q5 0 5 -6v-470q0 -6 -5 -6h-31zM38 559q-3 0 -4 2t1 5l64 119q2 5 7 5h31q4 0 5 -2t-1 -6l-69 -119q-3 -4 -9 -4h-25z" />
    <glyph glyph-name="icircumflex" unicode="&#xee;" horiz-adv-x="147" 
d="M58 0q-5 0 -5 6v470q0 6 5 6h31q5 0 5 -6v-470q0 -6 -5 -6h-31zM5 563q-6 -3 -6 3v26q0 6 3 8l68 41q4 3 8 0l68 -41q2 -2 2 -8v-26q0 -5 -6 -3l-68 42z" />
    <glyph glyph-name="idieresis" unicode="&#xef;" horiz-adv-x="147" 
d="M58 0q-5 0 -5 6v470q0 6 5 6h31q5 0 5 -6v-470q0 -6 -5 -6h-31zM27 583q-14 0 -21.5 8t-7.5 21v8q0 13 7.5 20.5t21.5 7.5t21.5 -7.5t7.5 -20.5v-8q0 -13 -7.5 -21t-21.5 -8zM121 583q-13 0 -20.5 8t-7.5 21v8q0 13 7.5 20.5t20.5 7.5q15 0 22 -7.5t7 -20.5v-8
q0 -13 -7 -21t-22 -8z" />
    <glyph glyph-name="eth" unicode="&#xf0;" horiz-adv-x="329" 
d="M165 -6q-62 0 -92.5 37.5t-30.5 112.5v172q0 68 26 100t71 32q35 0 64.5 -22t48.5 -47v-47q-20 28 -47 52t-57 24q-31 0 -48 -23t-17 -72v-168q0 -57 20.5 -84t61.5 -27t61 27t20 84v219q1 76 -12 133t-41.5 96.5t-75.5 61.5q-3 2 -3.5 4.5t0.5 4.5l15 21q2 4 4 4.5
t5 -1.5q78 -37 113.5 -119t35.5 -205v-220q0 -75 -30.5 -112.5t-91.5 -37.5zM125 527q-3 -3 -6 1l-14 21q-2 3 3 7l153 115q4 3 6 -1l13 -20q2 -4 -1 -7z" />
    <glyph glyph-name="ntilde" unicode="&#xf1;" horiz-adv-x="345" 
d="M256 0q-5 0 -5 6v354q0 46 -13 67.5t-40 21.5t-54.5 -22t-55.5 -57l-2 38q30 37 60 58.5t65 21.5q40 0 60.5 -29.5t20.5 -94.5v-358q0 -6 -5 -6h-31zM58 0q-5 0 -5 6v361q0 34 -0.5 61.5t-2.5 46.5q-1 7 4 7h27q5 0 6 -6q2 -19 3.5 -48t1.5 -44l2 -4v-374q0 -6 -5 -6h-31
zM200 575q-12 0 -22 4t-18 7.5t-17 3.5q-10 0 -19 -5t-17 -10q-6 -3 -6 4v24q0 5 3 8q6 6 17 11t25 5q13 0 22 -3.5t17 -7.5t17 -4q11 0 19.5 3.5t16.5 8.5q7 3 7 -4v-23q0 -5 -3 -8q-7 -7 -18 -10.5t-24 -3.5z" />
    <glyph glyph-name="ograve" unicode="&#xf2;" horiz-adv-x="329" 
d="M165 -6q-62 0 -92.5 37.5t-30.5 112.5v193q0 76 30.5 113.5t92.5 37.5q61 0 91.5 -37.5t30.5 -113.5v-193q0 -75 -30.5 -112.5t-91.5 -37.5zM165 34q41 0 61 27t20 84v191q0 57 -20 85t-61 28q-42 0 -62 -28t-20 -85v-191q0 -57 20.5 -84t61.5 -27zM170 559q-5 0 -8 4
l-69 119q-3 4 -1.5 6t4.5 2h31q5 0 7 -5l64 -119q2 -3 1 -5t-4 -2h-25z" />
    <glyph glyph-name="oacute" unicode="&#xf3;" horiz-adv-x="329" 
d="M165 -6q-62 0 -92.5 37.5t-30.5 112.5v193q0 76 30.5 113.5t92.5 37.5q61 0 91.5 -37.5t30.5 -113.5v-193q0 -75 -30.5 -112.5t-91.5 -37.5zM165 34q41 0 61 27t20 84v191q0 57 -20 85t-61 28q-42 0 -62 -28t-20 -85v-191q0 -57 20.5 -84t61.5 -27zM129 559q-3 0 -4 2
t1 5l64 119q2 5 7 5h31q4 0 5 -2t-1 -6l-69 -119q-3 -4 -9 -4h-25z" />
    <glyph glyph-name="ocircumflex" unicode="&#xf4;" horiz-adv-x="329" 
d="M165 -6q-62 0 -92.5 37.5t-30.5 112.5v193q0 76 30.5 113.5t92.5 37.5q61 0 91.5 -37.5t30.5 -113.5v-193q0 -75 -30.5 -112.5t-91.5 -37.5zM165 34q41 0 61 27t20 84v191q0 57 -20 85t-61 28q-42 0 -62 -28t-20 -85v-191q0 -57 20.5 -84t61.5 -27zM96 563q-6 -3 -6 3v26
q0 6 3 8l68 41q4 3 8 0l68 -41q2 -2 2 -8v-26q0 -5 -6 -3l-68 42z" />
    <glyph glyph-name="otilde" unicode="&#xf5;" horiz-adv-x="329" 
d="M165 -6q-62 0 -92.5 37.5t-30.5 112.5v193q0 76 30.5 113.5t92.5 37.5q61 0 91.5 -37.5t30.5 -113.5v-193q0 -75 -30.5 -112.5t-91.5 -37.5zM165 34q41 0 61 27t20 84v191q0 57 -20 85t-61 28q-42 0 -62 -28t-20 -85v-191q0 -57 20.5 -84t61.5 -27zM192 575q-12 0 -22 4
t-18 7.5t-17 3.5q-10 0 -19 -5t-17 -10q-6 -3 -6 4v24q0 5 3 8q6 6 17 11t25 5q13 0 22 -3.5t17 -7.5t17 -4q11 0 19.5 3.5t16.5 8.5q7 3 7 -4v-23q0 -5 -3 -8q-7 -7 -18 -10.5t-24 -3.5z" />
    <glyph glyph-name="odieresis" unicode="&#xf6;" horiz-adv-x="329" 
d="M165 -6q-62 0 -92.5 37.5t-30.5 112.5v193q0 76 30.5 113.5t92.5 37.5q61 0 91.5 -37.5t30.5 -113.5v-193q0 -75 -30.5 -112.5t-91.5 -37.5zM165 34q41 0 61 27t20 84v191q0 57 -20 85t-61 28q-42 0 -62 -28t-20 -85v-191q0 -57 20.5 -84t61.5 -27zM118 583
q-14 0 -21.5 8t-7.5 21v8q0 13 7.5 20.5t21.5 7.5t21.5 -7.5t7.5 -20.5v-8q0 -13 -7.5 -21t-21.5 -8zM212 583q-13 0 -20.5 8t-7.5 21v8q0 13 7.5 20.5t20.5 7.5q15 0 22 -7.5t7 -20.5v-8q0 -13 -7 -21t-22 -8z" />
    <glyph glyph-name="divide" unicode="&#xf7;" horiz-adv-x="420" 
d="M97 282q-6 0 -6 5v27q0 6 6 6h227q6 0 6 -6v-27q0 -5 -6 -5h-227zM211 155q-12 0 -18.5 7t-6.5 19v14q0 13 6.5 19.5t18.5 6.5q11 0 17 -6.5t6 -19.5v-14q0 -12 -6 -19t-17 -7zM211 380q-12 0 -18.5 7t-6.5 19v14q0 12 6.5 19t18.5 7q11 0 17 -7t6 -19v-14q0 -12 -6 -19
t-17 -7z" />
    <glyph glyph-name="oslash" unicode="&#xf8;" horiz-adv-x="329" 
d="M23 -51q-3 0 -4 2t1 5l50 116l9 20l149 341l7 18l37 83q2 3 6 3h28q6 0 3 -6l-47 -108l-10 -22l-154 -352l-6 -14l-36 -82q-2 -4 -6 -4h-27zM165 -6q-62 0 -92.5 37.5t-30.5 112.5v193q0 76 30.5 113.5t92.5 37.5q61 0 91.5 -37.5t30.5 -113.5v-193q0 -75 -30.5 -112.5
t-91.5 -37.5zM165 34q41 0 61 27t20 84v191q0 57 -20 85t-61 28q-42 0 -62 -28t-20 -85v-191q0 -57 20.5 -84t61.5 -27z" />
    <glyph glyph-name="ugrave" unicode="&#xf9;" horiz-adv-x="338" 
d="M132 -6q-41 0 -60 27t-19 92v363q0 6 5 6h31q5 0 5 -6v-361q0 -48 12 -64.5t37 -16.5q30 0 57 23.5t53 59.5l3 -39q-29 -36 -59 -60t-65 -24zM256 0q-4 0 -5 6q-2 23 -3.5 49.5t-1.5 41.5l-2 4v375q0 6 5 6h31q5 0 5 -6v-361q0 -34 1 -61t2 -47q0 -7 -5 -7h-27zM175 559
q-5 0 -8 4l-69 119q-3 4 -1.5 6t4.5 2h31q5 0 7 -5l64 -119q2 -3 1 -5t-4 -2h-25z" />
    <glyph glyph-name="uacute" unicode="&#xfa;" horiz-adv-x="338" 
d="M132 -6q-41 0 -60 27t-19 92v363q0 6 5 6h31q5 0 5 -6v-361q0 -48 12 -64.5t37 -16.5q30 0 57 23.5t53 59.5l3 -39q-29 -36 -59 -60t-65 -24zM256 0q-4 0 -5 6q-2 23 -3.5 49.5t-1.5 41.5l-2 4v375q0 6 5 6h31q5 0 5 -6v-361q0 -34 1 -61t2 -47q0 -7 -5 -7h-27zM133 559
q-3 0 -4 2t1 5l64 119q2 5 7 5h31q4 0 5 -2t-1 -6l-69 -119q-3 -4 -9 -4h-25z" />
    <glyph glyph-name="ucircumflex" unicode="&#xfb;" horiz-adv-x="338" 
d="M132 -6q-41 0 -60 27t-19 92v363q0 6 5 6h31q5 0 5 -6v-361q0 -48 12 -64.5t37 -16.5q30 0 57 23.5t53 59.5l3 -39q-29 -36 -59 -60t-65 -24zM256 0q-4 0 -5 6q-2 23 -3.5 49.5t-1.5 41.5l-2 4v375q0 6 5 6h31q5 0 5 -6v-361q0 -34 1 -61t2 -47q0 -7 -5 -7h-27zM100 563
q-6 -3 -6 3v26q0 6 3 8l68 41q4 3 8 0l68 -41q2 -2 2 -8v-26q0 -5 -6 -3l-68 42z" />
    <glyph glyph-name="udieresis" unicode="&#xfc;" horiz-adv-x="338" 
d="M132 -6q-41 0 -60 27t-19 92v363q0 6 5 6h31q5 0 5 -6v-361q0 -48 12 -64.5t37 -16.5q30 0 57 23.5t53 59.5l3 -39q-29 -36 -59 -60t-65 -24zM256 0q-4 0 -5 6q-2 23 -3.5 49.5t-1.5 41.5l-2 4v375q0 6 5 6h31q5 0 5 -6v-361q0 -34 1 -61t2 -47q0 -7 -5 -7h-27zM122 583
q-14 0 -21.5 8t-7.5 21v8q0 13 7.5 20.5t21.5 7.5t21.5 -7.5t7.5 -20.5v-8q0 -13 -7.5 -21t-21.5 -8zM216 583q-13 0 -20.5 8t-7.5 21v8q0 13 7.5 20.5t20.5 7.5q15 0 22 -7.5t7 -20.5v-8q0 -13 -7 -21t-22 -8z" />
    <glyph glyph-name="yacute" unicode="&#xfd;" horiz-adv-x="305" 
d="M93 -185q-6 0 -4 8l44 181l-113 471q-2 7 3 7h34q5 0 6 -6l60 -269q8 -33 15 -68t14 -68h1q7 33 14.5 68t14.5 68l60 269q1 6 6 6h32q3 0 4.5 -2t-0.5 -7l-154 -652q-1 -6 -7 -6h-30zM117 559q-3 0 -4 2t1 5l64 119q2 5 7 5h31q4 0 5 -2t-1 -6l-69 -119q-3 -4 -9 -4h-25z
" />
    <glyph glyph-name="thorn" unicode="&#xfe;" horiz-adv-x="333" 
d="M58 -185q-5 0 -5 6v856q0 6 5 6h31q5 0 5 -6v-257q26 30 53.5 49t61.5 19q40 0 60 -28t20 -92v-224q0 -75 -25.5 -112.5t-73.5 -37.5q-25 0 -49.5 8t-46.5 21v-202q0 -6 -5 -6h-31zM182 34q32 0 49 27.5t17 83.5v218q0 45 -12.5 65.5t-38.5 20.5q-28 0 -53.5 -21
t-49.5 -50v-316q20 -11 43 -19.5t45 -8.5z" />
    <glyph glyph-name="ydieresis" unicode="&#xff;" horiz-adv-x="305" 
d="M93 -185q-6 0 -4 8l44 181l-113 471q-2 7 3 7h34q5 0 6 -6l60 -269q8 -33 15 -68t14 -68h1q7 33 14.5 68t14.5 68l60 269q1 6 6 6h32q3 0 4.5 -2t-0.5 -7l-154 -652q-1 -6 -7 -6h-30zM106 583q-14 0 -21.5 8t-7.5 21v8q0 13 7.5 20.5t21.5 7.5t21.5 -7.5t7.5 -20.5v-8
q0 -13 -7.5 -21t-21.5 -8zM200 583q-13 0 -20.5 8t-7.5 21v8q0 13 7.5 20.5t20.5 7.5q15 0 22 -7.5t7 -20.5v-8q0 -13 -7 -21t-22 -8z" />
    <glyph glyph-name="Amacron" unicode="&#x100;" horiz-adv-x="334" 
d="M6 0q-6 0 -5 7l138 643q1 5 6 5h43q5 0 6 -5l138 -643q1 -7 -4 -7h-33q-5 0 -6 5l-95 464q-7 35 -13.5 69t-13.5 69h-1q-6 -35 -12.5 -69.5t-14.5 -70.5l-95 -462q-1 -5 -6 -5h-32zM71 176l9 40h172l9 -40h-190zM100 737q-6 0 -6 6v27q0 6 6 6h134q5 0 5 -6v-27
q0 -6 -5 -6h-134z" />
    <glyph glyph-name="amacron" unicode="&#x101;" horiz-adv-x="307" 
d="M225 0q-5 0 -5 6q-2 23 -3.5 49t-1.5 42l-2 3v260q0 50 -13 69.5t-47 19.5q-35 0 -50 -21t-11 -63q0 -6 -6 -6h-27q-7 0 -7 8q-5 57 21.5 89t79.5 32q55 1 78 -28t23 -99v-246q0 -34 1 -61.5t2 -46.5q0 -7 -4 -7h-28zM114 -6q-38 0 -58 33t-20 90q0 65 28.5 105.5
t91.5 47.5l62 8v-35l-58 -8q-44 -5 -63.5 -35t-19.5 -81q0 -39 12.5 -62t35.5 -23q20 0 41 15.5t54 60.5l1 -41q-33 -43 -56 -59t-51 -16zM94 577q-6 0 -6 6v28q0 5 6 5h121q6 0 6 -5v-28q0 -6 -6 -6h-121z" />
    <glyph glyph-name="Abreve" unicode="&#x102;" horiz-adv-x="334" 
d="M6 0q-6 0 -5 7l138 643q1 5 6 5h43q5 0 6 -5l138 -643q1 -7 -4 -7h-33q-5 0 -6 5l-95 464q-7 35 -13.5 69t-13.5 69h-1q-6 -35 -12.5 -69.5t-14.5 -70.5l-95 -462q-1 -5 -6 -5h-32zM71 176l9 40h172l9 -40h-190zM167 732q-26 0 -44 9t-29 17q-3 3 -3 8v24q0 8 6 4
q14 -11 30.5 -18.5t39.5 -7.5q24 0 40 7.5t30 18.5q2 2 4 1t2 -5v-24q0 -5 -3 -8q-11 -9 -29 -17.5t-44 -8.5z" />
    <glyph glyph-name="abreve" unicode="&#x103;" horiz-adv-x="307" 
d="M225 0q-5 0 -5 6q-2 23 -3.5 49t-1.5 42l-2 3v260q0 50 -13 69.5t-47 19.5q-35 0 -50 -21t-11 -63q0 -6 -6 -6h-27q-7 0 -7 8q-5 57 21.5 89t79.5 32q55 1 78 -28t23 -99v-246q0 -34 1 -61.5t2 -46.5q0 -7 -4 -7h-28zM114 -6q-38 0 -58 33t-20 90q0 65 28.5 105.5
t91.5 47.5l62 8v-35l-58 -8q-44 -5 -63.5 -35t-19.5 -81q0 -39 12.5 -62t35.5 -23q20 0 41 15.5t54 60.5l1 -41q-33 -43 -56 -59t-51 -16zM155 553q-24 0 -41.5 9.5t-28.5 17.5q-3 3 -3 8v24q0 4 2 5t4 -1q14 -12 30 -19t37 -7t37 7t29 19q3 2 4.5 1t1.5 -5v-24q0 -5 -3 -8
q-11 -9 -28.5 -18t-40.5 -9z" />
    <glyph glyph-name="Aogonek" unicode="&#x104;" horiz-adv-x="334" 
d="M6 0q-6 0 -5 7l138 643q1 5 6 5h43q5 0 6 -5l138 -643q1 -7 -4 -7h-33q-5 0 -6 5l-95 464q-7 35 -13.5 69t-13.5 69h-1q-6 -35 -12.5 -69.5t-14.5 -70.5l-95 -462q-1 -5 -6 -5h-32zM71 176l9 40h172l9 -40h-190zM303 -194q-30 0 -44.5 16.5t-14.5 49.5v7q0 36 18.5 70.5
t53.5 63.5l9 -7l1 -5q-21 -23 -34.5 -53.5t-13.5 -58.5v-7q0 -22 7.5 -32t22.5 -10q5 0 10.5 1t10.5 2t5 -4v-24q0 -5 -4 -6q-6 -1 -13 -2t-14 -1z" />
    <glyph glyph-name="aogonek" unicode="&#x105;" horiz-adv-x="307" 
d="M225 0q-5 0 -5 6q-2 23 -3.5 49t-1.5 42l-2 3v260q0 50 -13 69.5t-47 19.5q-35 0 -50 -21t-11 -63q0 -6 -6 -6h-27q-7 0 -7 8q-5 57 21.5 89t79.5 32q55 1 78 -28t23 -99v-246q0 -34 1 -61.5t2 -46.5q0 -7 -4 -7h-28zM114 -6q-38 0 -58 33t-20 90q0 65 28.5 105.5
t91.5 47.5l62 8v-35l-58 -8q-44 -5 -63.5 -35t-19.5 -81q0 -39 12.5 -62t35.5 -23q20 0 41 15.5t54 60.5l1 -41q-33 -43 -56 -59t-51 -16zM230 -194q-30 0 -44.5 16.5t-14.5 49.5v7q0 36 18.5 70.5t53.5 63.5l9 -7l1 -5q-21 -23 -34.5 -53.5t-13.5 -58.5v-7q0 -22 7.5 -32
t22.5 -10q5 0 10.5 1t10.5 2t5 -4v-24q0 -5 -4 -6q-6 -1 -13 -2t-14 -1z" />
    <glyph glyph-name="Cacute" unicode="&#x106;" horiz-adv-x="391" 
d="M198 -6q-73 0 -111 48t-38 143v285q0 95 38 143t111 48q52 0 86 -25t48.5 -71.5t8.5 -113.5q-1 -5 -5 -5h-31q-6 0 -5 6q5 85 -19.5 127t-82.5 42q-53 0 -80.5 -37.5t-27.5 -116.5v-279q0 -78 27.5 -116t80.5 -38q59 0 83.5 43.5t20.5 125.5q-1 6 5 6h29q6 0 6 -6
q5 -102 -31 -155.5t-113 -53.5zM162 723q-3 0 -4 1.5t1 4.5l55 105q4 5 8 5h32q4 0 5 -2.5t-2 -5.5l-61 -104q-1 -4 -8 -4h-26z" />
    <glyph glyph-name="cacute" unicode="&#x107;" horiz-adv-x="317" 
d="M165 -6q-62 0 -92.5 37t-30.5 115v191q0 77 30.5 114t91.5 37q38 0 64 -16.5t38.5 -48t9.5 -74.5q0 -8 -6 -8h-29q-2 0 -3.5 1.5t-0.5 4.5q2 47 -16.5 74.5t-56.5 27.5q-41 0 -61 -27t-20 -87v-188q0 -59 20 -86t62 -27q38 0 55.5 26t15.5 79q0 7 5 7h29q6 0 6 -6
q1 -72 -26 -109t-85 -37zM126 559q-3 0 -4 2t1 5l64 119q2 5 7 5h31q4 0 5 -2t-1 -6l-69 -119q-3 -4 -9 -4h-25z" />
    <glyph glyph-name="Cdotaccent" unicode="&#x10a;" horiz-adv-x="391" 
d="M198 -6q-73 0 -111 48t-38 143v285q0 95 38 143t111 48q52 0 86 -25t48.5 -71.5t8.5 -113.5q-1 -5 -5 -5h-31q-6 0 -5 6q5 85 -19.5 127t-82.5 42q-53 0 -80.5 -37.5t-27.5 -116.5v-279q0 -78 27.5 -116t80.5 -38q59 0 83.5 43.5t20.5 125.5q-1 6 5 6h29q6 0 6 -6
q5 -102 -31 -155.5t-113 -53.5zM197 746q-15 0 -23 8t-8 23v7q0 15 8 22.5t23 7.5t22.5 -7.5t7.5 -22.5v-7q0 -15 -7.5 -23t-22.5 -8z" />
    <glyph glyph-name="cdotaccent" unicode="&#x10b;" horiz-adv-x="317" 
d="M165 -6q-62 0 -92.5 37t-30.5 115v191q0 77 30.5 114t91.5 37q38 0 64 -16.5t38.5 -48t9.5 -74.5q0 -8 -6 -8h-29q-2 0 -3.5 1.5t-0.5 4.5q2 47 -16.5 74.5t-56.5 27.5q-41 0 -61 -27t-20 -87v-188q0 -59 20 -86t62 -27q38 0 55.5 26t15.5 79q0 7 5 7h29q6 0 6 -6
q1 -72 -26 -109t-85 -37zM162 581q-15 0 -23 8t-8 23v7q0 15 8 22.5t23 7.5t22.5 -7.5t7.5 -22.5v-7q0 -15 -7.5 -23t-22.5 -8z" />
    <glyph glyph-name="Ccaron" unicode="&#x10c;" horiz-adv-x="391" 
d="M198 -6q-73 0 -111 48t-38 143v285q0 95 38 143t111 48q52 0 86 -25t48.5 -71.5t8.5 -113.5q-1 -5 -5 -5h-31q-6 0 -5 6q5 85 -19.5 127t-82.5 42q-53 0 -80.5 -37.5t-27.5 -116.5v-279q0 -78 27.5 -116t80.5 -38q59 0 83.5 43.5t20.5 125.5q-1 6 5 6h29q6 0 6 -6
q5 -102 -31 -155.5t-113 -53.5zM193 735l-70 40q-3 2 -3 7v25q0 5 6 2l71 -39l71 39q6 3 6 -2v-25q0 -5 -3 -7l-70 -40q-4 -2 -8 0z" />
    <glyph glyph-name="ccaron" unicode="&#x10d;" horiz-adv-x="317" 
d="M165 -6q-62 0 -92.5 37t-30.5 115v191q0 77 30.5 114t91.5 37q38 0 64 -16.5t38.5 -48t9.5 -74.5q0 -8 -6 -8h-29q-2 0 -3.5 1.5t-0.5 4.5q2 47 -16.5 74.5t-56.5 27.5q-41 0 -61 -27t-20 -87v-188q0 -59 20 -86t62 -27q38 0 55.5 26t15.5 79q0 7 5 7h29q6 0 6 -6
q1 -72 -26 -109t-85 -37zM158 562l-68 41q-3 2 -3 8v26q0 6 6 3l69 -42l68 42q6 2 6 -3v-26q0 -6 -2 -8l-68 -41q-4 -3 -8 0z" />
    <glyph glyph-name="Dcaron" unicode="&#x10e;" horiz-adv-x="395" 
d="M65 0q-6 0 -6 6v643q0 6 5 6h92q99 0 146.5 -63.5t47.5 -203.5v-106q0 -147 -45 -214.5t-145 -67.5h-95zM100 40h58q82 0 116.5 56.5t34.5 183.5v108q0 120 -37 173.5t-117 53.5h-55v-575zM163 736l-70 40q-3 2 -3 7v25q0 5 6 2l71 -39l71 39q6 3 6 -2v-25q0 -5 -3 -7
l-70 -40q-4 -2 -8 0z" />
    <glyph glyph-name="dcaron" unicode="&#x10f;" horiz-adv-x="334" 
d="M128 -6q-40 0 -62 29t-22 96v225q0 75 29 109.5t78 34.5q28 0 52.5 -9t45.5 -24v-41q-50 35 -90 35q-33 0 -53.5 -25t-20.5 -85v-219q0 -48 14 -67t41 -19t53.5 22t54.5 59l1 -41q-29 -37 -57.5 -58.5t-63.5 -21.5zM253 0q-5 0 -6 6q-1 23 -2.5 49.5t-1.5 41.5l-3 4v576
q0 6 6 6h30q5 0 5 -6v-562q0 -34 1 -61t2 -47q1 -7 -4 -7h-27zM350 552q-4 0 -3 6l18 73q-9 1 -15 7t-6 17v11q0 14 7.5 20t19.5 6q14 0 20.5 -6.5t6.5 -19.5v-11q0 -8 -1 -15.5t-5 -16.5l-19 -66q-1 -5 -4 -5h-19z" />
    <glyph glyph-name="Dcroat" unicode="&#x110;" horiz-adv-x="395" 
d="M11 316q-5 0 -5 6v26q0 6 5 6h48h131q5 0 5 -6v-26q0 -6 -5 -6h-179zM65 0q-6 0 -6 6v643q0 6 5 6h92q99 0 146.5 -63.5t47.5 -203.5v-106q0 -147 -45 -214.5t-145 -67.5h-95zM100 40h58q82 0 116.5 56.5t34.5 183.5v108q0 120 -37 173.5t-117 53.5h-55v-575z" />
    <glyph glyph-name="dcroat" unicode="&#x111;" horiz-adv-x="334" 
d="M165 571q-5 0 -5 6v26q0 6 5 6h162q5 0 5 -6v-26q0 -6 -5 -6h-46h-116zM128 -6q-40 0 -62 29t-22 96v225q0 75 29 109.5t78 34.5q28 0 52.5 -9t45.5 -24v-41q-50 35 -90 35q-33 0 -53.5 -25t-20.5 -85v-219q0 -48 14 -67t41 -19t53.5 22t54.5 59l1 -41
q-29 -37 -57.5 -58.5t-63.5 -21.5zM253 0q-5 0 -6 6q-1 23 -2.5 49.5t-1.5 41.5l-3 4v576q0 6 6 6h30q5 0 5 -6v-562q0 -34 1 -61t2 -47q1 -7 -4 -7h-27z" />
    <glyph glyph-name="Emacron" unicode="&#x112;" horiz-adv-x="330" 
d="M64 0q-5 0 -5 6v643q0 6 5 6h217q5 0 5 -6v-28q0 -6 -5 -6h-181v-261h167q5 0 5 -6v-26q0 -6 -5 -6h-167v-276h181q5 0 5 -6v-28q0 -6 -5 -6h-217zM105 737q-6 0 -6 6v27q0 6 6 6h134q5 0 5 -6v-27q0 -6 -5 -6h-134z" />
    <glyph glyph-name="emacron" unicode="&#x113;" horiz-adv-x="319" 
d="M165 -6q-62 0 -92.5 39t-30.5 120v184q0 79 31 115t88 36q56 0 87 -37.5t31 -112.5v-94q0 -6 -6 -6h-190v-84q0 -61 20 -90.5t62 -29.5q36 0 52.5 22t16.5 65q-1 7 4 7h30q5 0 5 -6q1 -63 -26.5 -95.5t-81.5 -32.5zM83 277h155v60q0 56 -19.5 84t-57.5 28t-58 -28
t-20 -84v-60zM99 577q-6 0 -6 6v28q0 5 6 5h121q6 0 6 -5v-28q0 -6 -6 -6h-121z" />
    <glyph glyph-name="Edotaccent" unicode="&#x116;" horiz-adv-x="330" 
d="M64 0q-5 0 -5 6v643q0 6 5 6h217q5 0 5 -6v-28q0 -6 -5 -6h-181v-261h167q5 0 5 -6v-26q0 -6 -5 -6h-167v-276h181q5 0 5 -6v-28q0 -6 -5 -6h-217zM173 746q-15 0 -23 8t-8 23v7q0 15 8 22.5t23 7.5t22.5 -7.5t7.5 -22.5v-7q0 -15 -7.5 -23t-22.5 -8z" />
    <glyph glyph-name="edotaccent" unicode="&#x117;" horiz-adv-x="319" 
d="M165 -6q-62 0 -92.5 39t-30.5 120v184q0 79 31 115t88 36q56 0 87 -37.5t31 -112.5v-94q0 -6 -6 -6h-190v-84q0 -61 20 -90.5t62 -29.5q36 0 52.5 22t16.5 65q-1 7 4 7h30q5 0 5 -6q1 -63 -26.5 -95.5t-81.5 -32.5zM83 277h155v60q0 56 -19.5 84t-57.5 28t-58 -28
t-20 -84v-60zM160 581q-15 0 -23 8t-8 23v7q0 15 8 22.5t23 7.5t22.5 -7.5t7.5 -22.5v-7q0 -15 -7.5 -23t-22.5 -8z" />
    <glyph glyph-name="Eogonek" unicode="&#x118;" horiz-adv-x="330" 
d="M64 0q-5 0 -5 6v643q0 6 5 6h217q5 0 5 -6v-28q0 -6 -5 -6h-181v-261h167q5 0 5 -6v-26q0 -6 -5 -6h-167v-276h181q5 0 5 -6v-28q0 -6 -5 -6h-217zM240 -194q-30 0 -44.5 16.5t-14.5 49.5v7q0 36 18.5 70.5t53.5 63.5l9 -7l1 -5q-21 -23 -34.5 -53.5t-13.5 -58.5v-7
q0 -22 7.5 -32t22.5 -10q5 0 10.5 1t10.5 2t5 -4v-24q0 -5 -4 -6q-6 -1 -13 -2t-14 -1z" />
    <glyph glyph-name="eogonek" unicode="&#x119;" horiz-adv-x="319" 
d="M165 -6q-62 0 -92.5 39t-30.5 120v184q0 79 31 115t88 36q56 0 87 -37.5t31 -112.5v-94q0 -6 -6 -6h-190v-84q0 -61 20 -90.5t62 -29.5q36 0 52.5 22t16.5 65q-1 7 4 7h30q5 0 5 -6q1 -63 -26.5 -95.5t-81.5 -32.5zM83 277h155v60q0 56 -19.5 84t-57.5 28t-58 -28
t-20 -84v-60zM183 -193q-30 0 -44.5 16.5t-14.5 49.5v7q0 36 18.5 70.5t53.5 63.5l9 -7l1 -5q-21 -23 -34.5 -53.5t-13.5 -58.5v-7q0 -22 7.5 -32t22.5 -10q5 0 10.5 1t10.5 2t5 -4v-24q0 -5 -4 -6q-6 -1 -13 -2t-14 -1z" />
    <glyph glyph-name="Ecaron" unicode="&#x11a;" horiz-adv-x="330" 
d="M64 0q-5 0 -5 6v643q0 6 5 6h217q5 0 5 -6v-28q0 -6 -5 -6h-181v-261h167q5 0 5 -6v-26q0 -6 -5 -6h-167v-276h181q5 0 5 -6v-28q0 -6 -5 -6h-217zM169 735l-70 40q-3 2 -3 7v25q0 5 6 2l71 -39l71 39q6 3 6 -2v-25q0 -5 -3 -7l-70 -40q-4 -2 -8 0z" />
    <glyph glyph-name="ecaron" unicode="&#x11b;" horiz-adv-x="319" 
d="M165 -6q-62 0 -92.5 39t-30.5 120v184q0 79 31 115t88 36q56 0 87 -37.5t31 -112.5v-94q0 -6 -6 -6h-190v-84q0 -61 20 -90.5t62 -29.5q36 0 52.5 22t16.5 65q-1 7 4 7h30q5 0 5 -6q1 -63 -26.5 -95.5t-81.5 -32.5zM83 277h155v60q0 56 -19.5 84t-57.5 28t-58 -28
t-20 -84v-60zM156 562l-68 41q-3 2 -3 8v26q0 6 6 3l69 -42l68 42q6 2 6 -3v-26q0 -6 -2 -8l-68 -41q-4 -3 -8 0z" />
    <glyph glyph-name="Gbreve" unicode="&#x11e;" horiz-adv-x="403" 
d="M189 -6q-70 0 -105 47t-35 141v289q0 94 38 142t110 48q74 0 113 -52.5t32 -147.5q0 -5 -5 -5h-32q-5 0 -4 5q6 77 -22.5 118.5t-80.5 41.5q-53 0 -80.5 -37t-27.5 -115v-284q0 -78 25.5 -114.5t79.5 -36.5t81.5 47.5t27.5 148.5v54h-96q-5 0 -5 6v28q0 6 5 6h131
q5 0 5 -6v-184q0 -42 1 -71t4 -56q0 -7 -4 -7h-26q-5 0 -5 5q-3 20 -4 43.5t-1 52.5h-1q-12 -47 -39.5 -77t-79.5 -30zM196 732q-26 0 -44 9t-29 17q-3 3 -3 8v24q0 8 6 4q14 -11 30.5 -18.5t39.5 -7.5q24 0 40 7.5t30 18.5q2 2 4 1t2 -5v-24q0 -5 -3 -8q-11 -9 -29 -17.5
t-44 -8.5z" />
    <glyph glyph-name="gbreve" unicode="&#x11f;" horiz-adv-x="317" 
d="M158 -191q-69 0 -100 29.5t-31 91.5q0 43 19 74t56 50l34 -13q-34 -17 -51 -43t-17 -62q0 -47 21.5 -67.5t70.5 -20.5q50 0 71.5 22t21.5 70q0 42 -15 62.5t-50 24.5l-70 9q-34 4 -53 25.5t-19 53.5q0 22 9 38.5t23.5 28.5t29.5 21l28 -19q-25 -11 -38 -25.5t-13 -35.5
q0 -20 12 -33.5t37 -16.5l68 -9q47 -6 69 -35.5t22 -90.5q0 -66 -32 -97.5t-103 -31.5zM164 171q-60 0 -85.5 38t-25.5 120q0 83 25.5 121t85.5 38t84.5 -38t24.5 -121q0 -82 -24.5 -120t-84.5 -38zM164 210q40 0 54.5 28t14.5 91q0 64 -14.5 92t-54.5 28t-55 -28t-15 -92
q0 -63 15 -91t55 -28zM161 553q-24 0 -41.5 9.5t-28.5 17.5q-3 3 -3 8v24q0 4 2 5t4 -1q14 -12 30 -19t37 -7t37 7t29 19q3 2 4.5 1t1.5 -5v-24q0 -5 -3 -8q-11 -9 -28.5 -18t-40.5 -9z" />
    <glyph glyph-name="Gdotaccent" unicode="&#x120;" horiz-adv-x="403" 
d="M189 -6q-70 0 -105 47t-35 141v289q0 94 38 142t110 48q74 0 113 -52.5t32 -147.5q0 -5 -5 -5h-32q-5 0 -4 5q6 77 -22.5 118.5t-80.5 41.5q-53 0 -80.5 -37t-27.5 -115v-284q0 -78 25.5 -114.5t79.5 -36.5t81.5 47.5t27.5 148.5v54h-96q-5 0 -5 6v28q0 6 5 6h131
q5 0 5 -6v-184q0 -42 1 -71t4 -56q0 -7 -4 -7h-26q-5 0 -5 5q-3 20 -4 43.5t-1 52.5h-1q-12 -47 -39.5 -77t-79.5 -30zM197 746q-15 0 -23 8t-8 23v7q0 15 8 22.5t23 7.5t22.5 -7.5t7.5 -22.5v-7q0 -15 -7.5 -23t-22.5 -8z" />
    <glyph glyph-name="gdotaccent" unicode="&#x121;" horiz-adv-x="317" 
d="M158 -191q-69 0 -100 29.5t-31 91.5q0 43 19 74t56 50l34 -13q-34 -17 -51 -43t-17 -62q0 -47 21.5 -67.5t70.5 -20.5q50 0 71.5 22t21.5 70q0 42 -15 62.5t-50 24.5l-70 9q-34 4 -53 25.5t-19 53.5q0 22 9 38.5t23.5 28.5t29.5 21l28 -19q-25 -11 -38 -25.5t-13 -35.5
q0 -20 12 -33.5t37 -16.5l68 -9q47 -6 69 -35.5t22 -90.5q0 -66 -32 -97.5t-103 -31.5zM164 171q-60 0 -85.5 38t-25.5 120q0 83 25.5 121t85.5 38t84.5 -38t24.5 -121q0 -82 -24.5 -120t-84.5 -38zM164 210q40 0 54.5 28t14.5 91q0 64 -14.5 92t-54.5 28t-55 -28t-15 -92
q0 -63 15 -91t55 -28zM161 581q-15 0 -23 8t-8 23v7q0 15 8 22.5t23 7.5t22.5 -7.5t7.5 -22.5v-7q0 -15 -7.5 -23t-22.5 -8z" />
    <glyph glyph-name="uni0122" unicode="&#x122;" horiz-adv-x="403" 
d="M189 -6q-70 0 -105 47t-35 141v289q0 94 38 142t110 48q74 0 113 -52.5t32 -147.5q0 -5 -5 -5h-32q-5 0 -4 5q6 77 -22.5 118.5t-80.5 41.5q-53 0 -80.5 -37t-27.5 -115v-284q0 -78 25.5 -114.5t79.5 -36.5t81.5 47.5t27.5 148.5v54h-96q-5 0 -5 6v28q0 6 5 6h131
q5 0 5 -6v-184q0 -42 1 -71t4 -56q0 -7 -4 -7h-26q-5 0 -5 5q-3 20 -4 43.5t-1 52.5h-1q-12 -47 -39.5 -77t-79.5 -30zM176 -216q-4 0 -3 6l18 76q-9 1 -15 7.5t-6 18.5v11q0 13 7.5 19.5t19.5 6.5q14 0 20.5 -6.5t6.5 -20.5v-11q0 -9 -1 -16.5t-5 -16.5l-19 -70
q-2 -4 -5 -4h-18z" />
    <glyph glyph-name="uni0123" unicode="&#x123;" horiz-adv-x="317" 
d="M158 -191q-69 0 -100 29.5t-31 91.5q0 43 19 74t56 50l34 -13q-34 -17 -51 -43t-17 -62q0 -47 21.5 -67.5t70.5 -20.5q50 0 71.5 22t21.5 70q0 42 -15 62.5t-50 24.5l-70 9q-34 4 -53 25.5t-19 53.5q0 22 9 38.5t23.5 28.5t29.5 21l28 -19q-25 -11 -38 -25.5t-13 -35.5
q0 -20 12 -33.5t37 -16.5l68 -9q47 -6 69 -35.5t22 -90.5q0 -66 -32 -97.5t-103 -31.5zM164 171q-60 0 -85.5 38t-25.5 120q0 83 25.5 121t85.5 38t84.5 -38t24.5 -121q0 -82 -24.5 -120t-84.5 -38zM164 210q40 0 54.5 28t14.5 91q0 64 -14.5 92t-54.5 28t-55 -28t-15 -92
q0 -63 15 -91t55 -28zM159 571q-13 0 -20 6.5t-7 20.5v11q0 9 1.5 16.5t4.5 16.5l20 70q2 4 4 4h19q4 0 3 -6l-18 -76q9 -1 14.5 -7t5.5 -19v-11q0 -13 -7.5 -19.5t-19.5 -6.5z" />
    <glyph glyph-name="Hbar" unicode="&#x126;" horiz-adv-x="408" 
d="M13 533q-6 0 -6 6v26q0 6 6 6h383q5 0 5 -6v-26q0 -6 -5 -6h-47h-290h-46zM64 0q-5 0 -5 6v643q0 6 5 6h31q5 0 5 -6v-290h208v290q0 6 5 6h31q5 0 5 -6v-643q0 -6 -5 -6h-31q-5 0 -5 6v313h-208v-313q0 -6 -5 -6h-31z" />
    <glyph glyph-name="hbar" unicode="&#x127;" horiz-adv-x="345" 
d="M8 571q-6 0 -6 6v26q0 6 6 6h161q5 0 5 -6v-26q0 -6 -5 -6h-116h-45zM256 0q-5 0 -5 6v354q0 46 -13 67.5t-40 21.5t-54.5 -22t-55.5 -57l-2 38q30 37 60 58.5t65 21.5q40 0 60.5 -29.5t20.5 -94.5v-358q0 -6 -5 -6h-31zM57 0q-4 0 -4 6v671q0 6 5 6h31q5 0 5 -6v-671
q0 -6 -5 -6h-32z" />
    <glyph glyph-name="Imacron" unicode="&#x12a;" horiz-adv-x="158" 
d="M64 0q-5 0 -5 6v643q0 6 5 6h31q5 0 5 -6v-643q0 -6 -5 -6h-31zM13 737q-6 0 -6 6v27q0 6 6 6h134q5 0 5 -6v-27q0 -6 -5 -6h-134z" />
    <glyph glyph-name="imacron" unicode="&#x12b;" horiz-adv-x="147" 
d="M58 0q-5 0 -5 6v470q0 6 5 6h31q5 0 5 -6v-470q0 -6 -5 -6h-31zM13 577q-6 0 -6 6v28q0 5 6 5h121q6 0 6 -5v-28q0 -6 -6 -6h-121z" />
    <glyph glyph-name="Iogonek" unicode="&#x12e;" horiz-adv-x="158" 
d="M64 0q-5 0 -5 6v643q0 6 5 6h31q5 0 5 -6v-643q0 -6 -5 -6h-31zM74 -194q-30 0 -44.5 16.5t-14.5 49.5v7q0 36 18.5 70.5t53.5 63.5l9 -7l1 -5q-21 -23 -34.5 -53.5t-13.5 -58.5v-7q0 -22 7.5 -32t22.5 -10q5 0 10.5 1t10.5 2t5 -4v-24q0 -5 -4 -6q-6 -1 -13 -2t-14 -1z
" />
    <glyph glyph-name="iogonek" unicode="&#x12f;" horiz-adv-x="147" 
d="M58 0q-5 0 -5 6v470q0 6 5 6h31q5 0 5 -6v-470q0 -6 -5 -6h-31zM74 581q-15 0 -23 8t-8 23v7q0 15 8 22.5t23 7.5t22.5 -7.5t7.5 -22.5v-7q0 -15 -7.5 -23t-22.5 -8zM64 -194q-30 0 -44.5 16.5t-14.5 49.5v7q0 36 18.5 70.5t53.5 63.5l9 -7l1 -5q-21 -23 -34.5 -53.5
t-13.5 -58.5v-7q0 -22 7.5 -32t22.5 -10q5 0 10.5 1t10.5 2t5 -4v-24q0 -5 -4 -6q-6 -1 -13 -2t-14 -1z" />
    <glyph glyph-name="Idotaccent" unicode="&#x130;" horiz-adv-x="158" 
d="M64 0q-5 0 -5 6v643q0 6 5 6h31q5 0 5 -6v-643q0 -6 -5 -6h-31zM80 746q-15 0 -23 8t-8 23v7q0 15 8 22.5t23 7.5t22.5 -7.5t7.5 -22.5v-7q0 -15 -7.5 -23t-22.5 -8z" />
    <glyph glyph-name="dotlessi" unicode="&#x131;" horiz-adv-x="147" 
d="M58 0q-5 0 -5 6v470q0 6 5 6h31q5 0 5 -6v-470q0 -6 -5 -6h-31z" />
    <glyph glyph-name="IJ" unicode="&#x132;" horiz-adv-x="316" 
d="M64 0q-5 0 -5 6v643q0 6 5 6h31q5 0 5 -6v-643q0 -6 -5 -6h-31zM175 -138q-6 -3 -8 3l-9 29q-1 3 -0.5 5.5t3.5 3.5q19 7 31.5 24.5t18.5 50.5t6 90v581q0 6 5 6h31q5 0 5 -6v-581q0 -69 -9 -110.5t-27.5 -63.5t-46.5 -32z" />
    <glyph glyph-name="ij" unicode="&#x133;" horiz-adv-x="281" 
d="M58 0q-5 0 -5 6v470q0 6 5 6h31q5 0 5 -6v-470q0 -6 -5 -6h-31zM74 581q-15 0 -23 8t-8 23v7q0 15 8 22.5t23 7.5t22.5 -7.5t7.5 -22.5v-7q0 -15 -7.5 -23t-22.5 -8zM170 -185q-2 -1 -3.5 -1t-3.5 2l-19 26q-4 4 0 8q32 30 41 73t9 114v439q0 6 5 6h31q5 0 5 -6v-442
q0 -52 -4.5 -92t-18.5 -71t-42 -56zM215 581q-15 0 -23 8t-8 23v7q0 15 8 22.5t23 7.5t22.5 -7.5t7.5 -22.5v-7q0 -15 -7.5 -23t-22.5 -8z" />
    <glyph glyph-name="uni0136" unicode="&#x136;" horiz-adv-x="353" 
d="M64 0q-5 0 -5 6v643q0 6 5 6h31q5 0 5 -6v-250q0 -20 -0.5 -41t-0.5 -41.5t-1 -42.5h1q15 32 29.5 62.5t30.5 61.5l130 254q1 3 6 3h37q6 0 2 -8l-139 -261l153 -378q4 -8 -2 -8h-38q-4 0 -6 4l-132 335l-70 -132v-201q0 -6 -5 -6h-31zM166 -216q-4 0 -3 6l18 76
q-9 1 -15 7.5t-6 18.5v11q0 13 7.5 19.5t19.5 6.5q14 0 20.5 -6.5t6.5 -20.5v-11q0 -9 -1 -16.5t-5 -16.5l-19 -70q-2 -4 -5 -4h-18z" />
    <glyph glyph-name="uni0137" unicode="&#x137;" horiz-adv-x="304" 
d="M57 0q-4 0 -4 6v671q0 6 5 6h31q5 0 5 -6v-333v-37.5v-36.5t-1 -38h1q13 25 26 48.5t26 47.5l85 151q3 3 7 3h35q7 0 4 -7l-105 -177l118 -290q2 -8 -4 -8h-36q-3 0 -4 4l-100 251l-52 -88v-161q0 -6 -5 -6h-32zM142 -216q-4 0 -3 6l18 76q-9 1 -15 7.5t-6 18.5v11
q0 13 7.5 19.5t19.5 6.5q14 0 20.5 -6.5t6.5 -20.5v-11q0 -9 -1 -16.5t-5 -16.5l-19 -70q-2 -4 -5 -4h-18z" />
    <glyph glyph-name="kgreenlandic" unicode="&#x138;" horiz-adv-x="304" 
d="M57 0q-4 0 -4 6v470q0 6 5 6h31q5 0 5 -6v-132v-38v-38t-1 -39h1q13 26 26 50.5t26 48.5l85 151q3 3 7 3h35q7 0 4 -7l-105 -177l118 -290q2 -8 -4 -8h-36q-3 0 -4 4l-100 252l-52 -89v-161q0 -6 -5 -6h-32z" />
    <glyph glyph-name="Lacute" unicode="&#x139;" horiz-adv-x="297" 
d="M64 0q-5 0 -5 6v643q0 6 5 6h31q5 0 5 -6v-609h176q6 0 6 -6v-28q0 -6 -6 -6h-212zM45 723q-3 0 -4 1.5t1 4.5l55 105q4 5 8 5h32q4 0 5 -2.5t-2 -5.5l-61 -104q-1 -4 -8 -4h-26z" />
    <glyph glyph-name="lacute" unicode="&#x13a;" horiz-adv-x="147" 
d="M58 0q-5 0 -5 6v671q0 6 5 6h31q5 0 5 -6v-671q0 -6 -5 -6h-31zM39 751q-3 0 -4 1.5t1 4.5l55 105q4 5 8 5h32q4 0 5 -2.5t-2 -5.5l-61 -104q-1 -4 -8 -4h-26z" />
    <glyph glyph-name="uni013B" unicode="&#x13b;" horiz-adv-x="297" 
d="M64 0q-5 0 -5 6v643q0 6 5 6h31q5 0 5 -6v-609h176q6 0 6 -6v-28q0 -6 -6 -6h-212zM150 -216q-4 0 -3 6l18 76q-9 1 -15 7.5t-6 18.5v11q0 13 7.5 19.5t19.5 6.5q14 0 20.5 -6.5t6.5 -20.5v-11q0 -9 -1 -16.5t-5 -16.5l-19 -70q-2 -4 -5 -4h-18z" />
    <glyph glyph-name="uni013C" unicode="&#x13c;" horiz-adv-x="147" 
d="M58 0q-5 0 -5 6v671q0 6 5 6h31q5 0 5 -6v-671q0 -6 -5 -6h-31zM53 -216q-4 0 -3 6l18 76q-9 1 -15 7.5t-6 18.5v11q0 13 7.5 19.5t19.5 6.5q14 0 20.5 -6.5t6.5 -20.5v-11q0 -9 -1 -16.5t-5 -16.5l-19 -70q-2 -4 -5 -4h-18z" />
    <glyph glyph-name="Lcaron" unicode="&#x13d;" horiz-adv-x="297" 
d="M64 0q-5 0 -5 6v643q0 6 5 6h31q5 0 5 -6v-609h176q6 0 6 -6v-28q0 -6 -6 -6h-212zM192 527q-4 0 -3 6l18 73q-9 1 -15 7t-6 17v11q0 14 7.5 20t19.5 6q14 0 20.5 -6.5t6.5 -19.5v-11q0 -8 -1 -15.5t-5 -16.5l-19 -66q-1 -5 -4 -5h-19z" />
    <glyph glyph-name="lcaron" unicode="&#x13e;" horiz-adv-x="139" 
d="M58 0q-5 0 -5 6v671q0 6 5 6h31q5 0 5 -6v-671q0 -6 -5 -6h-31zM155 552q-4 0 -3 6l18 73q-9 1 -15 7t-6 17v11q0 14 7.5 20t19.5 6q14 0 20.5 -6.5t6.5 -19.5v-11q0 -8 -1 -15.5t-5 -16.5l-19 -66q-1 -5 -4 -5h-19z" />
    <glyph glyph-name="Lslash" unicode="&#x141;" horiz-adv-x="297" 
d="M4 274q-6 -4 -6 3v29q0 6 4 8l188 129q6 4 6 -3v-30q0 -5 -4 -7zM64 0q-5 0 -5 6v643q0 6 5 6h31q5 0 5 -6v-609h176q6 0 6 -6v-28q0 -6 -6 -6h-212z" />
    <glyph glyph-name="lslash" unicode="&#x142;" horiz-adv-x="147" 
d="M10 358q-1 -2 -3 -1.5t-2 3.5v32q0 5 3 7l128 94q6 4 6 -3v-32q0 -3 -4 -6l-85 -63zM58 0q-5 0 -5 6v671q0 6 5 6h31q5 0 5 -6v-671q0 -6 -5 -6h-31z" />
    <glyph glyph-name="Nacute" unicode="&#x143;" horiz-adv-x="410" 
d="M63 0q-4 0 -4 6v643q0 6 5 6h52q5 0 6 -4l124 -384q12 -33 23.5 -70t22.5 -74t21 -70h1q0 25 -0.5 52t-1 55t-0.5 55.5v52.5v381q0 6 5 6h30q5 0 5 -6v-643q0 -6 -5 -6h-52q-4 0 -6 4l-120 371q-19 58 -36.5 116t-33.5 111h-2q1 -35 1 -74.5t0.5 -79t0.5 -76.5v-366
q0 -6 -5 -6h-31zM170 723q-3 0 -4 1.5t1 4.5l55 105q4 5 8 5h32q4 0 5 -2.5t-2 -5.5l-61 -104q-1 -4 -8 -4h-26z" />
    <glyph glyph-name="nacute" unicode="&#x144;" horiz-adv-x="345" 
d="M256 0q-5 0 -5 6v354q0 46 -13 67.5t-40 21.5t-54.5 -22t-55.5 -57l-2 38q30 37 60 58.5t65 21.5q40 0 60.5 -29.5t20.5 -94.5v-358q0 -6 -5 -6h-31zM58 0q-5 0 -5 6v361q0 34 -0.5 61.5t-2.5 46.5q-1 7 4 7h27q5 0 6 -6q2 -19 3.5 -48t1.5 -44l2 -4v-374q0 -6 -5 -6h-31
zM137 559q-3 0 -4 2t1 5l64 119q2 5 7 5h31q4 0 5 -2t-1 -6l-69 -119q-3 -4 -9 -4h-25z" />
    <glyph glyph-name="uni0145" unicode="&#x145;" horiz-adv-x="410" 
d="M63 0q-4 0 -4 6v643q0 6 5 6h52q5 0 6 -4l124 -384q12 -33 23.5 -70t22.5 -74t21 -70h1q0 25 -0.5 52t-1 55t-0.5 55.5v52.5v381q0 6 5 6h30q5 0 5 -6v-643q0 -6 -5 -6h-52q-4 0 -6 4l-120 371q-19 58 -36.5 116t-33.5 111h-2q1 -35 1 -74.5t0.5 -79t0.5 -76.5v-366
q0 -6 -5 -6h-31zM182 -216q-4 0 -3 6l18 76q-9 1 -15 7.5t-6 18.5v11q0 13 7.5 19.5t19.5 6.5q14 0 20.5 -6.5t6.5 -20.5v-11q0 -9 -1 -16.5t-5 -16.5l-19 -70q-2 -4 -5 -4h-18z" />
    <glyph glyph-name="uni0146" unicode="&#x146;" horiz-adv-x="345" 
d="M256 0q-5 0 -5 6v354q0 46 -13 67.5t-40 21.5t-54.5 -22t-55.5 -57l-2 38q30 37 60 58.5t65 21.5q40 0 60.5 -29.5t20.5 -94.5v-358q0 -6 -5 -6h-31zM58 0q-5 0 -5 6v361q0 34 -0.5 61.5t-2.5 46.5q-1 7 4 7h27q5 0 6 -6q2 -19 3.5 -48t1.5 -44l2 -4v-374q0 -6 -5 -6h-31
zM153 -216q-4 0 -3 6l18 76q-9 1 -15 7.5t-6 18.5v11q0 13 7.5 19.5t19.5 6.5q14 0 20.5 -6.5t6.5 -20.5v-11q0 -9 -1 -16.5t-5 -16.5l-19 -70q-2 -4 -5 -4h-18z" />
    <glyph glyph-name="Ncaron" unicode="&#x147;" horiz-adv-x="410" 
d="M63 0q-4 0 -4 6v643q0 6 5 6h52q5 0 6 -4l124 -384q12 -33 23.5 -70t22.5 -74t21 -70h1q0 25 -0.5 52t-1 55t-0.5 55.5v52.5v381q0 6 5 6h30q5 0 5 -6v-643q0 -6 -5 -6h-52q-4 0 -6 4l-120 371q-19 58 -36.5 116t-33.5 111h-2q1 -35 1 -74.5t0.5 -79t0.5 -76.5v-366
q0 -6 -5 -6h-31zM201 735l-70 40q-3 2 -3 7v25q0 5 6 2l71 -39l71 39q6 3 6 -2v-25q0 -5 -3 -7l-70 -40q-4 -2 -8 0z" />
    <glyph glyph-name="ncaron" unicode="&#x148;" horiz-adv-x="345" 
d="M256 0q-5 0 -5 6v354q0 46 -13 67.5t-40 21.5t-54.5 -22t-55.5 -57l-2 38q30 37 60 58.5t65 21.5q40 0 60.5 -29.5t20.5 -94.5v-358q0 -6 -5 -6h-31zM58 0q-5 0 -5 6v361q0 34 -0.5 61.5t-2.5 46.5q-1 7 4 7h27q5 0 6 -6q2 -19 3.5 -48t1.5 -44l2 -4v-374q0 -6 -5 -6h-31
zM169 562l-68 41q-3 2 -3 8v26q0 6 6 3l69 -42l68 42q6 2 6 -3v-26q0 -6 -2 -8l-68 -41q-4 -3 -8 0z" />
    <glyph glyph-name="Eng" unicode="&#x14a;" horiz-adv-x="410" 
d="M280 -176l-19 25q-4 5 0 8q27 25 37.5 58.5t11.5 84.5h-15q-4 0 -6 4l-120 371q-19 58 -36.5 116t-33.5 111h-2q1 -35 1 -74.5t0.5 -79t0.5 -76.5v-366q0 -6 -5 -6h-31q-4 0 -4 6v643q0 6 5 6h52q5 0 6 -4l124 -384q12 -33 23.5 -70t22.5 -74t21 -70h1q0 25 -0.5 52
t-1 55t-0.5 55.5v52.5v381q0 6 5 6h30q5 0 5 -6v-634q-1 -44 -6.5 -79.5t-19 -63t-39.5 -49.5q-5 -3 -7 1z" />
    <glyph glyph-name="eng" unicode="&#x14b;" horiz-adv-x="345" 
d="M227 -177q-4 -3 -7 1l-18 25q-5 5 0 8q32 29 40.5 72.5t8.5 115.5v315q0 46 -13 67.5t-40 21.5q-26 0 -52 -20t-52 -52v-371q0 -6 -5 -6h-31q-5 0 -5 6v361q0 34 -0.5 61.5t-2.5 46.5q-1 7 4 7h27q5 0 6 -6q1 -10 2 -28t2 -33q28 33 57.5 53t62.5 20q40 0 60.5 -29.5
t20.5 -94.5v-323q0 -51 -4 -91.5t-18 -71t-43 -55.5z" />
    <glyph glyph-name="Omacron" unicode="&#x14c;" horiz-adv-x="396" 
d="M198 -6q-72 0 -110.5 45.5t-38.5 135.5v304q0 92 38.5 137t110.5 45q71 0 110 -45t39 -137v-304q0 -90 -39 -135.5t-110 -45.5zM198 34q52 0 80 35t28 109v298q0 75 -28 110t-80 35q-53 0 -80.5 -35t-27.5 -110v-298q0 -74 27.5 -109t80.5 -35zM130 737q-6 0 -6 6v27
q0 6 6 6h134q5 0 5 -6v-27q0 -6 -5 -6h-134z" />
    <glyph glyph-name="omacron" unicode="&#x14d;" horiz-adv-x="329" 
d="M165 -6q-62 0 -92.5 37.5t-30.5 112.5v193q0 76 30.5 113.5t92.5 37.5q61 0 91.5 -37.5t30.5 -113.5v-193q0 -75 -30.5 -112.5t-91.5 -37.5zM165 34q41 0 61 27t20 84v191q0 57 -20 85t-61 28q-42 0 -62 -28t-20 -85v-191q0 -57 20.5 -84t61.5 -27zM104 577q-6 0 -6 6v28
q0 5 6 5h121q6 0 6 -5v-28q0 -6 -6 -6h-121z" />
    <glyph glyph-name="Ohungarumlaut" unicode="&#x150;" horiz-adv-x="396" 
d="M198 -6q-72 0 -110.5 45.5t-38.5 135.5v304q0 92 38.5 137t110.5 45q71 0 110 -45t39 -137v-304q0 -90 -39 -135.5t-110 -45.5zM198 34q52 0 80 35t28 109v298q0 75 -28 110t-80 35q-53 0 -80.5 -35t-27.5 -110v-298q0 -74 27.5 -109t80.5 -35zM228 722q-7 0 -4 8l43 103
q3 6 7 6h29q3 0 4.5 -2t-0.5 -6l-48 -103q-3 -6 -8 -6h-23zM139 722q-7 0 -4 8l43 103q3 6 7 6h29q2 0 3.5 -2t-0.5 -6l-47 -103q-3 -6 -8 -6h-23z" />
    <glyph glyph-name="ohungarumlaut" unicode="&#x151;" horiz-adv-x="329" 
d="M165 -6q-62 0 -92.5 37.5t-30.5 112.5v193q0 76 30.5 113.5t92.5 37.5q61 0 91.5 -37.5t30.5 -113.5v-193q0 -75 -30.5 -112.5t-91.5 -37.5zM165 34q41 0 61 27t20 84v191q0 57 -20 85t-61 28q-42 0 -62 -28t-20 -85v-191q0 -57 20.5 -84t61.5 -27zM108 559q-8 0 -4 9
l49 116q2 6 7 6h28q3 0 4.5 -2t-0.5 -6l-54 -117q-2 -6 -8 -6h-22zM195 559q-7 0 -3 9l48 116q3 6 8 6h28q3 0 4.5 -2t-0.5 -6l-54 -117q-2 -6 -8 -6h-23z" />
    <glyph glyph-name="OE" unicode="&#x152;" horiz-adv-x="529" 
d="M198 -6q-72 0 -110.5 45.5t-38.5 135.5v304q0 92 38.5 137t110.5 45q19 0 33.5 -2t28.5 -4h221q4 0 4 -6v-28q0 -6 -4 -6h-182v-261h168q5 0 5 -6v-26q0 -6 -5 -6h-168v-276h182q4 0 4 -6v-28q0 -6 -4 -6h-221q-14 -2 -28.5 -4t-33.5 -2zM198 34q18 0 33 2t27 4v576
q-13 2 -27.5 3.5t-32.5 1.5q-53 0 -80.5 -35t-27.5 -110v-298q0 -74 27.5 -109t80.5 -35z" />
    <glyph glyph-name="oe" unicode="&#x153;" horiz-adv-x="518" 
d="M162 -6q-59 0 -89.5 37.5t-30.5 112.5v193q0 76 30.5 113.5t89.5 37.5q37 0 62 -16.5t38 -50.5q14 34 39 50.5t59 16.5q56 0 87 -37.5t31 -112.5v-94q0 -6 -6 -6h-190v-84q0 -61 20 -90.5t62 -29.5q36 0 53 22t16 65q-1 7 4 7h31q4 0 4 -6q1 -63 -26.5 -95.5t-81.5 -32.5
q-38 0 -63 17t-38 51q-14 -33 -38.5 -50.5t-62.5 -17.5zM162 34q40 0 59.5 27t19.5 84v191q0 58 -19.5 85.5t-59.5 27.5q-39 0 -59 -27.5t-20 -85.5v-191q0 -57 20 -84t59 -27zM282 277h155v60q0 56 -19.5 84t-57.5 28t-58 -28t-20 -84v-60z" />
    <glyph glyph-name="Racute" unicode="&#x154;" horiz-adv-x="364" 
d="M64 0q-5 0 -5 6v643q0 6 5 6h103q77 0 114 -42.5t37 -134.5q0 -73 -23.5 -117t-64.5 -57v-1l108 -295q2 -8 -5 -8h-34q-3 0 -5 4l-105 290h-89v-288q0 -6 -5 -6h-31zM100 332h72q55 0 80 37t25 106q0 75 -27.5 107.5t-82.5 32.5h-67v-283zM131 723q-3 0 -4 1.5t1 4.5
l55 105q4 5 8 5h32q4 0 5 -2.5t-2 -5.5l-61 -104q-1 -4 -8 -4h-26z" />
    <glyph glyph-name="racute" unicode="&#x155;" horiz-adv-x="232" 
d="M58 0q-5 0 -5 6v361q0 34 -0.5 61t-2.5 47q-1 7 4 7h28q4 0 5 -6q2 -22 3.5 -49t1.5 -41l2 -5v-375q0 -6 -5 -6h-31zM88 361l-3 43q12 18 28 37.5t35.5 33t42.5 13.5q11 0 17 -2q3 -1 4 -2.5t1 -5.5v-18.5t-1 -18.5q-1 -6 -6 -5q-4 2 -9 2.5t-12 0.5q-26 0 -51.5 -23
t-45.5 -55zM98 559q-3 0 -4 2t1 5l64 119q2 5 7 5h31q4 0 5 -2t-1 -6l-69 -119q-3 -4 -9 -4h-25z" />
    <glyph glyph-name="uni0156" unicode="&#x156;" horiz-adv-x="364" 
d="M64 0q-5 0 -5 6v643q0 6 5 6h103q77 0 114 -42.5t37 -134.5q0 -73 -23.5 -117t-64.5 -57v-1l108 -295q2 -8 -5 -8h-34q-3 0 -5 4l-105 290h-89v-288q0 -6 -5 -6h-31zM100 332h72q55 0 80 37t25 106q0 75 -27.5 107.5t-82.5 32.5h-67v-283zM165 -216q-4 0 -3 6l18 76
q-9 1 -15 7.5t-6 18.5v11q0 13 7.5 19.5t19.5 6.5q14 0 20.5 -6.5t6.5 -20.5v-11q0 -9 -1 -16.5t-5 -16.5l-19 -70q-2 -4 -5 -4h-18z" />
    <glyph glyph-name="uni0157" unicode="&#x157;" horiz-adv-x="232" 
d="M58 0q-5 0 -5 6v361q0 34 -0.5 61t-2.5 47q-1 7 4 7h28q4 0 5 -6q2 -22 3.5 -49t1.5 -41l2 -5v-375q0 -6 -5 -6h-31zM88 361l-3 43q12 18 28 37.5t35.5 33t42.5 13.5q11 0 17 -2q3 -1 4 -2.5t1 -5.5v-18.5t-1 -18.5q-1 -6 -6 -5q-4 2 -9 2.5t-12 0.5q-26 0 -51.5 -23
t-45.5 -55zM54 -216q-4 0 -3 6l18 76q-9 1 -15 7.5t-6 18.5v11q0 13 7.5 19.5t19.5 6.5q14 0 20.5 -6.5t6.5 -20.5v-11q0 -9 -1 -16.5t-5 -16.5l-19 -70q-2 -4 -5 -4h-18z" />
    <glyph glyph-name="Rcaron" unicode="&#x158;" horiz-adv-x="364" 
d="M64 0q-5 0 -5 6v643q0 6 5 6h103q77 0 114 -42.5t37 -134.5q0 -73 -23.5 -117t-64.5 -57v-1l108 -295q2 -8 -5 -8h-34q-3 0 -5 4l-105 290h-89v-288q0 -6 -5 -6h-31zM100 332h72q55 0 80 37t25 106q0 75 -27.5 107.5t-82.5 32.5h-67v-283zM162 735l-70 40q-3 2 -3 7v25
q0 5 6 2l71 -39l71 39q6 3 6 -2v-25q0 -5 -3 -7l-70 -40q-4 -2 -8 0z" />
    <glyph glyph-name="rcaron" unicode="&#x159;" horiz-adv-x="232" 
d="M58 0q-5 0 -5 6v361q0 34 -0.5 61t-2.5 47q-1 7 4 7h28q4 0 5 -6q2 -22 3.5 -49t1.5 -41l2 -5v-375q0 -6 -5 -6h-31zM88 361l-3 43q12 18 28 37.5t35.5 33t42.5 13.5q11 0 17 -2q3 -1 4 -2.5t1 -5.5v-18.5t-1 -18.5q-1 -6 -6 -5q-4 2 -9 2.5t-12 0.5q-26 0 -51.5 -23
t-45.5 -55zM130 562l-68 41q-3 2 -3 8v26q0 6 6 3l69 -42l68 42q6 2 6 -3v-26q0 -6 -2 -8l-68 -41q-4 -3 -8 0z" />
    <glyph glyph-name="Sacute" unicode="&#x15a;" horiz-adv-x="338" 
d="M165 -6q-50 0 -80 21.5t-42.5 61.5t-9.5 96q0 6 5 6h30q6 0 5 -6q-5 -71 18.5 -105t75.5 -34q48 0 71.5 27.5t23.5 86.5q0 53 -15 85.5t-53 60.5l-75 58q-43 32 -61.5 70.5t-18.5 96.5q0 67 34 104.5t93 37.5q69 0 102 -45.5t27 -128.5q0 -7 -5 -7h-32q-4 0 -4 7
q5 65 -18 99.5t-69 34.5q-41 0 -64 -26t-23 -75q0 -46 15 -77t49 -57l74 -57q32 -24 50.5 -48.5t26.5 -56t8 -74.5q0 -76 -33.5 -116t-104.5 -40zM135 723q-3 0 -4 1.5t1 4.5l55 105q4 5 8 5h32q4 0 5 -2.5t-2 -5.5l-61 -104q-1 -4 -8 -4h-26z" />
    <glyph glyph-name="sacute" unicode="&#x15b;" horiz-adv-x="283" 
d="M143 -6q-57 0 -83 36t-22 106q0 6 5 6h32q4 0 4 -5q-2 -55 13 -79.5t52 -24.5q67 0 67 81q0 32 -10 53.5t-34 40.5l-67 54q-32 25 -45.5 53t-13.5 68q0 50 27 77.5t75 27.5q53 0 78.5 -31t21.5 -90q0 -6 -5 -6h-31q-1 0 -3 1t-1 6q2 40 -13 60.5t-48 20.5q-61 0 -61 -66
q0 -30 10.5 -48.5t34.5 -39.5l67 -55q33 -26 45.5 -53t12.5 -72q0 -60 -27.5 -90.5t-80.5 -30.5zM107 559q-3 0 -4 2t1 5l64 119q2 5 7 5h31q4 0 5 -2t-1 -6l-69 -119q-3 -4 -9 -4h-25z" />
    <glyph glyph-name="Scedilla" unicode="&#x15e;" horiz-adv-x="338" 
d="M165 -6q-50 0 -80 21.5t-42.5 61.5t-9.5 96q0 6 5 6h30q6 0 5 -6q-5 -71 18.5 -105t75.5 -34q48 0 71.5 27.5t23.5 86.5q0 53 -15 85.5t-53 60.5l-75 58q-43 32 -61.5 70.5t-18.5 96.5q0 67 34 104.5t93 37.5q69 0 102 -45.5t27 -128.5q0 -7 -5 -7h-32q-4 0 -4 7
q5 65 -18 99.5t-69 34.5q-41 0 -64 -26t-23 -75q0 -46 15 -77t49 -57l74 -57q32 -24 50.5 -48.5t26.5 -56t8 -74.5q0 -76 -33.5 -116t-104.5 -40zM167 -193q-11 0 -19.5 1.5t-15.5 2.5q-5 2 -5 6v20q0 6 5 5t11 -2t15 -1q18 0 24 11.5t6 31.5v11q0 21 -8 30.5t-24 9.5h-14
q-4 0 -4 6v7.5t1 7.5l17 60q2 4 5 4h22q5 0 3 -6l-16 -53h5q20 0 33.5 -14t13.5 -48v-17q0 -36 -13 -54.5t-42 -18.5z" />
    <glyph glyph-name="scedilla" unicode="&#x15f;" horiz-adv-x="283" 
d="M143 -6q-57 0 -83 36t-22 106q0 6 5 6h32q4 0 4 -5q-2 -55 13 -79.5t52 -24.5q67 0 67 81q0 32 -10 53.5t-34 40.5l-67 54q-32 25 -45.5 53t-13.5 68q0 50 27 77.5t75 27.5q53 0 78.5 -31t21.5 -90q0 -6 -5 -6h-31q-1 0 -3 1t-1 6q2 40 -13 60.5t-48 20.5q-61 0 -61 -66
q0 -30 10.5 -48.5t34.5 -39.5l67 -55q33 -26 45.5 -53t12.5 -72q0 -60 -27.5 -90.5t-80.5 -30.5zM147 -193q-11 0 -19.5 1.5t-15.5 2.5q-5 2 -5 6v20q0 6 5 5t11 -2t15 -1q18 0 24 11.5t6 31.5v11q0 21 -8 30.5t-24 9.5h-14q-4 0 -4 6v7.5t1 7.5l17 60q2 4 5 4h22q5 0 3 -6
l-16 -53h5q20 0 33.5 -14t13.5 -48v-17q0 -36 -13 -54.5t-42 -18.5z" />
    <glyph glyph-name="Scaron" unicode="&#x160;" horiz-adv-x="338" 
d="M165 -6q-50 0 -80 21.5t-42.5 61.5t-9.5 96q0 6 5 6h30q6 0 5 -6q-5 -71 18.5 -105t75.5 -34q48 0 71.5 27.5t23.5 86.5q0 53 -15 85.5t-53 60.5l-75 58q-43 32 -61.5 70.5t-18.5 96.5q0 67 34 104.5t93 37.5q69 0 102 -45.5t27 -128.5q0 -7 -5 -7h-32q-4 0 -4 7
q5 65 -18 99.5t-69 34.5q-41 0 -64 -26t-23 -75q0 -46 15 -77t49 -57l74 -57q32 -24 50.5 -48.5t26.5 -56t8 -74.5q0 -76 -33.5 -116t-104.5 -40zM166 735l-70 40q-3 2 -3 7v25q0 5 6 2l71 -39l71 39q6 3 6 -2v-25q0 -5 -3 -7l-70 -40q-4 -2 -8 0z" />
    <glyph glyph-name="scaron" unicode="&#x161;" horiz-adv-x="283" 
d="M143 -6q-57 0 -83 36t-22 106q0 6 5 6h32q4 0 4 -5q-2 -55 13 -79.5t52 -24.5q67 0 67 81q0 32 -10 53.5t-34 40.5l-67 54q-32 25 -45.5 53t-13.5 68q0 50 27 77.5t75 27.5q53 0 78.5 -31t21.5 -90q0 -6 -5 -6h-31q-1 0 -3 1t-1 6q2 40 -13 60.5t-48 20.5q-61 0 -61 -66
q0 -30 10.5 -48.5t34.5 -39.5l67 -55q33 -26 45.5 -53t12.5 -72q0 -60 -27.5 -90.5t-80.5 -30.5zM139 562l-68 41q-3 2 -3 8v26q0 6 6 3l69 -42l68 42q6 2 6 -3v-26q0 -6 -2 -8l-68 -41q-4 -3 -8 0z" />
    <glyph glyph-name="uni0162" unicode="&#x162;" horiz-adv-x="322" 
d="M146 0q-5 0 -5 6v609h-115q-6 0 -6 6v28q0 6 6 6h271q5 0 5 -6v-28q0 -6 -5 -6h-115v-609q0 -6 -6 -6h-30zM162 -193q-11 0 -19.5 1.5t-15.5 2.5q-5 2 -5 6v20q0 6 5 5t11 -2t15 -1q18 0 24 11.5t6 31.5v11q0 21 -8 30.5t-24 9.5h-14q-4 0 -4 6v7.5t1 7.5l17 60q2 4 5 4
h22q5 0 3 -6l-16 -53h5q20 0 33.5 -14t13.5 -48v-17q0 -36 -13 -54.5t-42 -18.5z" />
    <glyph glyph-name="uni0163" unicode="&#x163;" horiz-adv-x="247" 
d="M158 -6q-45 0 -65 30t-20 99v320h-46q-5 0 -5 5v28q0 6 5 6h47l5 129q1 6 6 6h25q4 0 4 -6v-129h100q5 0 5 -6v-28q0 -5 -5 -5h-100v-319q0 -48 12 -69.5t39 -21.5q14 0 27 3.5t24 7.5q5 3 5 -4v-28q0 -6 -4 -8q-12 -4 -27.5 -7t-31.5 -3zM154 -193q-11 0 -19.5 1.5
t-15.5 2.5q-5 2 -5 6v20q0 6 5 5t11 -2t15 -1q18 0 24 11.5t6 31.5v11q0 21 -8 30.5t-24 9.5h-14q-4 0 -4 6v7.5t1 7.5l17 60q2 4 5 4h22q5 0 3 -6l-16 -53h5q20 0 33.5 -14t13.5 -48v-17q0 -36 -13 -54.5t-42 -18.5z" />
    <glyph glyph-name="Tcaron" unicode="&#x164;" horiz-adv-x="322" 
d="M146 0q-5 0 -5 6v609h-115q-6 0 -6 6v28q0 6 6 6h271q5 0 5 -6v-28q0 -6 -5 -6h-115v-609q0 -6 -6 -6h-30zM158 735l-70 40q-3 2 -3 7v25q0 5 6 2l71 -39l71 39q6 3 6 -2v-25q0 -5 -3 -7l-70 -40q-4 -2 -8 0z" />
    <glyph glyph-name="tcaron" unicode="&#x165;" horiz-adv-x="252" 
d="M158 -6q-45 0 -65 30t-20 99v320h-46q-5 0 -5 5v28q0 6 5 6h47l5 129q1 6 6 6h25q4 0 4 -6v-129h100q5 0 5 -6v-28q0 -5 -5 -5h-100v-319q0 -48 12 -69.5t39 -21.5q14 0 27 3.5t24 7.5q5 3 5 -4v-28q0 -6 -4 -8q-12 -4 -27.5 -7t-31.5 -3zM170 552q-4 0 -3 6l18 73
q-9 1 -15 7t-6 17v11q0 14 7.5 20t19.5 6q14 0 20.5 -6.5t6.5 -19.5v-11q0 -8 -1 -15.5t-5 -16.5l-19 -66q-1 -5 -4 -5h-19z" />
    <glyph glyph-name="Tbar" unicode="&#x166;" horiz-adv-x="322" 
d="M71 318q-5 0 -5 6v24q0 6 5 6h180q5 0 5 -6v-24q0 -6 -5 -6h-69h-41h-70zM146 0q-5 0 -5 6v609h-115q-6 0 -6 6v28q0 6 6 6h271q5 0 5 -6v-28q0 -6 -5 -6h-115v-609q0 -6 -6 -6h-30z" />
    <glyph glyph-name="tbar" unicode="&#x167;" horiz-adv-x="247" 
d="M34 281q-5 0 -5 5v27q0 6 5 6h39h41h90q5 0 5 -6v-27q0 -5 -5 -5h-170zM158 -6q-45 0 -65 30t-20 99v320h-46q-5 0 -5 5v28q0 6 5 6h47l5 129q1 6 6 6h25q4 0 4 -6v-129h100q5 0 5 -6v-28q0 -5 -5 -5h-100v-319q0 -48 12 -69.5t39 -21.5q14 0 27 3.5t24 7.5q5 3 5 -4v-28
q0 -6 -4 -8q-12 -4 -27.5 -7t-31.5 -3z" />
    <glyph glyph-name="Umacron" unicode="&#x16a;" horiz-adv-x="398" 
d="M199 -6q-75 0 -109.5 50.5t-34.5 152.5v452q0 6 5 6h31q5 0 5 -6v-451q0 -84 24.5 -124t78.5 -40t78.5 39.5t24.5 124.5v451q0 6 5 6h31q5 0 5 -6v-452q0 -102 -35 -152.5t-109 -50.5zM131 737q-6 0 -6 6v27q0 6 6 6h134q5 0 5 -6v-27q0 -6 -5 -6h-134z" />
    <glyph glyph-name="umacron" unicode="&#x16b;" horiz-adv-x="338" 
d="M132 -6q-41 0 -60 27t-19 92v363q0 6 5 6h31q5 0 5 -6v-361q0 -48 12 -64.5t37 -16.5q30 0 57 23.5t53 59.5l3 -39q-29 -36 -59 -60t-65 -24zM256 0q-4 0 -5 6q-2 23 -3.5 49.5t-1.5 41.5l-2 4v375q0 6 5 6h31q5 0 5 -6v-361q0 -34 1 -61t2 -47q0 -7 -5 -7h-27zM108 577
q-6 0 -6 6v28q0 5 6 5h121q6 0 6 -5v-28q0 -6 -6 -6h-121z" />
    <glyph glyph-name="Uring" unicode="&#x16e;" horiz-adv-x="398" 
d="M199 -6q-75 0 -109.5 50.5t-34.5 152.5v452q0 6 5 6h31q5 0 5 -6v-451q0 -84 24.5 -124t78.5 -40t78.5 39.5t24.5 124.5v451q0 6 5 6h31q5 0 5 -6v-452q0 -102 -35 -152.5t-109 -50.5zM199 697q-30 0 -47.5 20t-17.5 56t17.5 56t47.5 20q31 0 48 -20t17 -56t-17.5 -56
t-47.5 -20zM199 724q35 0 35 49t-35 49t-35 -49t35 -49z" />
    <glyph glyph-name="uring" unicode="&#x16f;" horiz-adv-x="338" 
d="M132 -6q-41 0 -60 27t-19 92v363q0 6 5 6h31q5 0 5 -6v-361q0 -48 12 -64.5t37 -16.5q30 0 57 23.5t53 59.5l3 -39q-29 -36 -59 -60t-65 -24zM256 0q-4 0 -5 6q-2 23 -3.5 49.5t-1.5 41.5l-2 4v375q0 6 5 6h31q5 0 5 -6v-361q0 -34 1 -61t2 -47q0 -7 -5 -7h-27zM169 548
q-30 0 -47.5 20t-17.5 56t17.5 56t47.5 20q31 0 48 -20t17 -56t-17.5 -56t-47.5 -20zM169 575q35 0 35 49t-35 49t-35 -49t35 -49z" />
    <glyph glyph-name="Uhungarumlaut" unicode="&#x170;" horiz-adv-x="398" 
d="M199 -6q-75 0 -109.5 50.5t-34.5 152.5v452q0 6 5 6h31q5 0 5 -6v-451q0 -84 24.5 -124t78.5 -40t78.5 39.5t24.5 124.5v451q0 6 5 6h31q5 0 5 -6v-452q0 -102 -35 -152.5t-109 -50.5zM229 722q-7 0 -4 8l43 103q3 6 7 6h29q3 0 4.5 -2t-0.5 -6l-48 -103q-3 -6 -8 -6h-23
zM140 722q-7 0 -4 8l43 103q3 6 7 6h29q2 0 3.5 -2t-0.5 -6l-47 -103q-3 -6 -8 -6h-23z" />
    <glyph glyph-name="uhungarumlaut" unicode="&#x171;" horiz-adv-x="338" 
d="M132 -6q-41 0 -60 27t-19 92v363q0 6 5 6h31q5 0 5 -6v-361q0 -48 12 -64.5t37 -16.5q30 0 57 23.5t53 59.5l3 -39q-29 -36 -59 -60t-65 -24zM256 0q-4 0 -5 6q-2 23 -3.5 49.5t-1.5 41.5l-2 4v375q0 6 5 6h31q5 0 5 -6v-361q0 -34 1 -61t2 -47q0 -7 -5 -7h-27zM112 559
q-8 0 -4 9l49 116q2 6 7 6h28q3 0 4.5 -2t-0.5 -6l-54 -117q-2 -6 -8 -6h-22zM199 559q-7 0 -3 9l48 116q3 6 8 6h28q3 0 4.5 -2t-0.5 -6l-54 -117q-2 -6 -8 -6h-23z" />
    <glyph glyph-name="Uogonek" unicode="&#x172;" horiz-adv-x="398" 
d="M199 -6q-75 0 -109.5 50.5t-34.5 152.5v452q0 6 5 6h31q5 0 5 -6v-451q0 -84 24.5 -124t78.5 -40t78.5 39.5t24.5 124.5v451q0 6 5 6h31q5 0 5 -6v-452q0 -102 -35 -152.5t-109 -50.5zM225 -194q-30 0 -44.5 16.5t-14.5 49.5v7q0 36 18.5 70.5t53.5 63.5l9 -7l1 -5
q-21 -23 -34.5 -53.5t-13.5 -58.5v-7q0 -22 7.5 -32t22.5 -10q5 0 10.5 1t10.5 2t5 -4v-24q0 -5 -4 -6q-6 -1 -13 -2t-14 -1z" />
    <glyph glyph-name="uogonek" unicode="&#x173;" horiz-adv-x="338" 
d="M132 -6q-41 0 -60 27t-19 92v363q0 6 5 6h31q5 0 5 -6v-361q0 -48 12 -64.5t37 -16.5q30 0 57 23.5t53 59.5l3 -39q-29 -36 -59 -60t-65 -24zM256 0q-4 0 -5 6q-2 23 -3.5 49.5t-1.5 41.5l-2 4v375q0 6 5 6h31q5 0 5 -6v-361q0 -34 1 -61t2 -47q0 -7 -5 -7h-27zM260 -194
q-30 0 -44.5 16.5t-14.5 49.5v7q0 36 18.5 70.5t53.5 63.5l9 -7l1 -5q-21 -23 -34.5 -53.5t-13.5 -58.5v-7q0 -22 7.5 -32t22.5 -10q5 0 10.5 1t10.5 2t5 -4v-24q0 -5 -4 -6q-6 -1 -13 -2t-14 -1z" />
    <glyph glyph-name="Wcircumflex" unicode="&#x174;" horiz-adv-x="513" 
d="M135 0q-4 0 -5 5l-114 643q-1 7 3 7h32q5 0 6 -5l79 -456q4 -23 7.5 -48.5t7 -50t6.5 -46.5h1q6 32 11 64t11 64l60 331l-22 130q-1 7 5 7h31q5 0 6 -6l76 -459q5 -33 10.5 -65.5t9.5 -65.5h1q3 23 6.5 47t7 49.5t7.5 51.5l77 453q1 5 5 5h32q6 0 5 -7l-113 -642
q-1 -6 -6 -6h-42q-5 0 -6 6l-49 298q-6 32 -10.5 64t-9.5 64h-1q-5 -32 -11 -63.5t-11 -62.5l-56 -300q-1 -4 -2 -5t-3 -1h-42zM185 734q-6 -3 -6 2v25q0 6 3 8l70 40q4 2 8 0l70 -40q3 -2 3 -8v-25q0 -4 -6 -2l-71 39z" />
    <glyph glyph-name="wcircumflex" unicode="&#x175;" horiz-adv-x="444" 
d="M122 0q-6 0 -7 7l-92 468q-1 7 3 7h32q5 0 6 -6l55 -291q7 -35 13 -70.5t11 -69.5h2q6 34 12 69l12 70l35 190l-17 94q-1 8 4 8h30q5 0 6 -6l50 -285q7 -35 12 -70.5t10 -69.5h2q6 35 12 71t12 70l54 289q2 7 6 7h31q6 0 5 -8l-92 -468q-1 -6 -7 -6h-42q-6 0 -7 5
l-25 142q-7 37 -13 76.5t-12 84.5h-2q-6 -45 -12.5 -84.5t-13.5 -77.5l-24 -140q-1 -6 -7 -6h-42zM154 563q-6 -3 -6 3v26q0 6 3 8l68 41q4 3 8 0l68 -41q2 -2 2 -8v-26q0 -5 -6 -3l-68 42z" />
    <glyph glyph-name="Ycircumflex" unicode="&#x176;" horiz-adv-x="330" 
d="M149 0q-4 0 -4 6v218l-133 423q-2 8 3 8h36q4 0 5 -5l77 -260q8 -28 16.5 -56t15.5 -56h1q8 28 16.5 56t15.5 56l77 261q1 4 5 4h34q6 0 4 -8l-132 -422v-219q0 -6 -4 -6h-33zM94 734q-6 -3 -6 2v25q0 6 3 8l70 40q4 2 8 0l70 -40q3 -2 3 -8v-25q0 -4 -6 -2l-71 39z" />
    <glyph glyph-name="ycircumflex" unicode="&#x177;" horiz-adv-x="305" 
d="M93 -185q-6 0 -4 8l44 181l-113 471q-2 7 3 7h34q5 0 6 -6l60 -269q8 -33 15 -68t14 -68h1q7 33 14.5 68t14.5 68l60 269q1 6 6 6h32q3 0 4.5 -2t-0.5 -7l-154 -652q-1 -6 -7 -6h-30zM84 563q-6 -3 -6 3v26q0 6 3 8l68 41q4 3 8 0l68 -41q2 -2 2 -8v-26q0 -5 -6 -3
l-68 42z" />
    <glyph glyph-name="Ydieresis" unicode="&#x178;" horiz-adv-x="330" 
d="M149 0q-4 0 -4 6v218l-133 423q-2 8 3 8h36q4 0 5 -5l77 -260q8 -28 16.5 -56t15.5 -56h1q8 28 16.5 56t15.5 56l77 261q1 4 5 4h34q6 0 4 -8l-132 -422v-219q0 -6 -4 -6h-33zM118 741q-14 0 -21.5 7.5t-7.5 21.5v7q0 14 7.5 21.5t21.5 7.5t21.5 -7.5t7.5 -21.5v-7
q0 -14 -7.5 -21.5t-21.5 -7.5zM212 741q-13 0 -20.5 7.5t-7.5 21.5v7q0 14 7.5 21.5t20.5 7.5q15 0 22 -7.5t7 -21.5v-7q0 -14 -7 -21.5t-22 -7.5z" />
    <glyph glyph-name="Zacute" unicode="&#x179;" horiz-adv-x="317" 
d="M15 0q-5 0 -5 6v2q0 4 2 9l198 499q10 25 19.5 49t19.5 49v2q-17 -1 -36 -1h-37h-141q-6 0 -6 6v28q0 6 6 6h264q5 0 5 -6v-2q0 -2 -0.5 -4.5t-1.5 -4.5l-199 -501q-9 -24 -19 -48l-20 -48v-2q20 1 36.5 1h33.5h151q5 0 5 -6v-28q0 -6 -5 -6h-270zM133 723q-3 0 -4 1.5
t1 4.5l55 105q4 5 8 5h32q4 0 5 -2.5t-2 -5.5l-61 -104q-1 -4 -8 -4h-26z" />
    <glyph glyph-name="zacute" unicode="&#x17a;" horiz-adv-x="286" 
d="M26 0q-5 0 -5 6v2q0 7 2 11l153 341q9 21 17.5 41t17.5 41v1h-30h-31h-110q-5 0 -5 5v28q0 6 5 6h220q5 0 5 -5v-2q0 -6 -2 -10l-152 -342q-10 -20 -18.5 -40.5t-17.5 -41.5v-1h27.5h27.5h122q5 0 5 -6v-28q0 -6 -5 -6h-226zM112 559q-3 0 -4 2t1 5l64 119q2 5 7 5h31
q4 0 5 -2t-1 -6l-69 -119q-3 -4 -9 -4h-25z" />
    <glyph glyph-name="Zdotaccent" unicode="&#x17b;" horiz-adv-x="317" 
d="M15 0q-5 0 -5 6v2q0 4 2 9l198 499q10 25 19.5 49t19.5 49v2q-17 -1 -36 -1h-37h-141q-6 0 -6 6v28q0 6 6 6h264q5 0 5 -6v-2q0 -2 -0.5 -4.5t-1.5 -4.5l-199 -501q-9 -24 -19 -48l-20 -48v-2q20 1 36.5 1h33.5h151q5 0 5 -6v-28q0 -6 -5 -6h-270zM168 746q-15 0 -23 8
t-8 23v7q0 15 8 22.5t23 7.5t22.5 -7.5t7.5 -22.5v-7q0 -15 -7.5 -23t-22.5 -8z" />
    <glyph glyph-name="zdotaccent" unicode="&#x17c;" horiz-adv-x="286" 
d="M26 0q-5 0 -5 6v2q0 7 2 11l153 341q9 21 17.5 41t17.5 41v1h-30h-31h-110q-5 0 -5 5v28q0 6 5 6h220q5 0 5 -5v-2q0 -6 -2 -10l-152 -342q-10 -20 -18.5 -40.5t-17.5 -41.5v-1h27.5h27.5h122q5 0 5 -6v-28q0 -6 -5 -6h-226zM147 581q-15 0 -23 8t-8 23v7q0 15 8 22.5
t23 7.5t22.5 -7.5t7.5 -22.5v-7q0 -15 -7.5 -23t-22.5 -8z" />
    <glyph glyph-name="Zcaron" unicode="&#x17d;" horiz-adv-x="317" 
d="M15 0q-5 0 -5 6v2q0 4 2 9l198 499q10 25 19.5 49t19.5 49v2q-17 -1 -36 -1h-37h-141q-6 0 -6 6v28q0 6 6 6h264q5 0 5 -6v-2q0 -2 -0.5 -4.5t-1.5 -4.5l-199 -501q-9 -24 -19 -48l-20 -48v-2q20 1 36.5 1h33.5h151q5 0 5 -6v-28q0 -6 -5 -6h-270zM164 735l-70 40
q-3 2 -3 7v25q0 5 6 2l71 -39l71 39q6 3 6 -2v-25q0 -5 -3 -7l-70 -40q-4 -2 -8 0z" />
    <glyph glyph-name="zcaron" unicode="&#x17e;" horiz-adv-x="286" 
d="M26 0q-5 0 -5 6v2q0 7 2 11l153 341q9 21 17.5 41t17.5 41v1h-30h-31h-110q-5 0 -5 5v28q0 6 5 6h220q5 0 5 -5v-2q0 -6 -2 -10l-152 -342q-10 -20 -18.5 -40.5t-17.5 -41.5v-1h27.5h27.5h122q5 0 5 -6v-28q0 -6 -5 -6h-226zM144 562l-68 41q-3 2 -3 8v26q0 6 6 3l69 -42
l68 42q6 2 6 -3v-26q0 -6 -2 -8l-68 -41q-4 -3 -8 0z" />
    <glyph glyph-name="florin" unicode="&#x192;" horiz-adv-x="420" 
d="M166 -185q-2 0 -4 2t-2 4v557h-50q-3 0 -4.5 1.5t-1.5 4.5v27q0 3 1.5 4.5t4.5 1.5h50v106q0 78 24 108t67 30q19 0 34.5 -3t26.5 -8q5 -1 5 -7v-29q0 -6 -6 -5q-12 6 -25.5 9.5t-26.5 3.5q-30 0 -44 -21.5t-14 -80.5v-103h93q3 0 4.5 -1.5t1.5 -4.5v-27q0 -3 -1.5 -4.5
t-4.5 -1.5h-93v-557q0 -2 -1.5 -4t-4.5 -2h-29z" />
    <glyph glyph-name="uni0218" unicode="&#x218;" horiz-adv-x="338" 
d="M165 -6q-50 0 -80 21.5t-42.5 61.5t-9.5 96q0 6 5 6h30q6 0 5 -6q-5 -71 18.5 -105t75.5 -34q48 0 71.5 27.5t23.5 86.5q0 53 -15 85.5t-53 60.5l-75 58q-43 32 -61.5 70.5t-18.5 96.5q0 67 34 104.5t93 37.5q69 0 102 -45.5t27 -128.5q0 -7 -5 -7h-32q-4 0 -4 7
q5 65 -18 99.5t-69 34.5q-41 0 -64 -26t-23 -75q0 -46 15 -77t49 -57l74 -57q32 -24 50.5 -48.5t26.5 -56t8 -74.5q0 -76 -33.5 -116t-104.5 -40zM144 -216q-4 0 -3 6l18 76q-9 1 -15 7.5t-6 18.5v11q0 13 7.5 19.5t19.5 6.5q14 0 20.5 -6.5t6.5 -20.5v-11q0 -9 -1 -16.5
t-5 -16.5l-19 -70q-2 -4 -5 -4h-18z" />
    <glyph glyph-name="uni0219" unicode="&#x219;" horiz-adv-x="283" 
d="M143 -6q-57 0 -83 36t-22 106q0 6 5 6h32q4 0 4 -5q-2 -55 13 -79.5t52 -24.5q67 0 67 81q0 32 -10 53.5t-34 40.5l-67 54q-32 25 -45.5 53t-13.5 68q0 50 27 77.5t75 27.5q53 0 78.5 -31t21.5 -90q0 -6 -5 -6h-31q-1 0 -3 1t-1 6q2 40 -13 60.5t-48 20.5q-61 0 -61 -66
q0 -30 10.5 -48.5t34.5 -39.5l67 -55q33 -26 45.5 -53t12.5 -72q0 -60 -27.5 -90.5t-80.5 -30.5zM126 -216q-4 0 -3 6l18 76q-9 1 -15 7.5t-6 18.5v11q0 13 7.5 19.5t19.5 6.5q14 0 20.5 -6.5t6.5 -20.5v-11q0 -9 -1 -16.5t-5 -16.5l-19 -70q-2 -4 -5 -4h-18z" />
    <glyph glyph-name="uni021A" unicode="&#x21a;" horiz-adv-x="322" 
d="M146 0q-5 0 -5 6v609h-115q-6 0 -6 6v28q0 6 6 6h271q5 0 5 -6v-28q0 -6 -5 -6h-115v-609q0 -6 -6 -6h-30zM139 -216q-4 0 -3 6l18 76q-9 1 -15 7.5t-6 18.5v11q0 13 7.5 19.5t19.5 6.5q14 0 20.5 -6.5t6.5 -20.5v-11q0 -9 -1 -16.5t-5 -16.5l-19 -70q-2 -4 -5 -4h-18z
" />
    <glyph glyph-name="uni021B" unicode="&#x21b;" horiz-adv-x="247" 
d="M158 -6q-45 0 -65 30t-20 99v320h-46q-5 0 -5 5v28q0 6 5 6h47l5 129q1 6 6 6h25q4 0 4 -6v-129h100q5 0 5 -6v-28q0 -5 -5 -5h-100v-319q0 -48 12 -69.5t39 -21.5q14 0 27 3.5t24 7.5q5 3 5 -4v-28q0 -6 -4 -8q-12 -4 -27.5 -7t-31.5 -3zM134 -216q-4 0 -3 6l18 76
q-9 1 -15 7.5t-6 18.5v11q0 13 7.5 19.5t19.5 6.5q14 0 20.5 -6.5t6.5 -20.5v-11q0 -9 -1 -16.5t-5 -16.5l-19 -70q-2 -4 -5 -4h-18z" />
    <glyph glyph-name="uni0237" unicode="&#x237;" horiz-adv-x="135" 
d="M23 -185q-2 -1 -3.5 -1t-3.5 2l-19 26q-4 4 0 8q32 30 41 73t9 114v439q0 6 5 6h31q5 0 5 -6v-442q0 -52 -4.5 -92t-18.5 -71t-42 -56z" />
    <glyph glyph-name="uni02BC" unicode="&#x2bc;" horiz-adv-x="115" 
d="M37 544q-4 0 -3 6l18 76q-9 1 -15 7.5t-6 18.5v10q0 14 7.5 20.5t19.5 6.5q14 0 20.5 -6.5t6.5 -20.5v-11q0 -8 -1 -16t-5 -17l-19 -69q-2 -5 -5 -5h-18z" />
    <glyph glyph-name="circumflex" unicode="&#x2c6;" horiz-adv-x="209" 
d="M36 563q-6 -3 -6 3v26q0 6 3 8l68 41q4 3 8 0l68 -41q2 -2 2 -8v-26q0 -5 -6 -3l-68 42z" />
    <glyph glyph-name="caron" unicode="&#x2c7;" horiz-adv-x="209" 
d="M101 562l-68 41q-3 2 -3 8v26q0 6 6 3l69 -42l68 42q6 2 6 -3v-26q0 -6 -2 -8l-68 -41q-4 -3 -8 0z" />
    <glyph glyph-name="breve" unicode="&#x2d8;" horiz-adv-x="205" 
d="M103 553q-24 0 -41.5 9.5t-28.5 17.5q-3 3 -3 8v24q0 4 2 5t4 -1q14 -12 30 -19t37 -7t37 7t29 19q3 2 4.5 1t1.5 -5v-24q0 -5 -3 -8q-11 -9 -28.5 -18t-40.5 -9z" />
    <glyph glyph-name="dotaccent" unicode="&#x2d9;" horiz-adv-x="121" 
d="M61 581q-15 0 -23 8t-8 23v7q0 15 8 22.5t23 7.5t22.5 -7.5t7.5 -22.5v-7q0 -15 -7.5 -23t-22.5 -8z" />
    <glyph glyph-name="ring" unicode="&#x2da;" horiz-adv-x="190" 
d="M95 548q-30 0 -47.5 20t-17.5 56t17.5 56t47.5 20q31 0 48 -20t17 -56t-17.5 -56t-47.5 -20zM95 575q35 0 35 49t-35 49t-35 -49t35 -49z" />
    <glyph glyph-name="ogonek" unicode="&#x2db;" horiz-adv-x="150" 
d="M89 -194q-30 0 -44.5 16.5t-14.5 49.5v7q0 36 18.5 70.5t53.5 63.5l9 -7l1 -5q-21 -23 -34.5 -53.5t-13.5 -58.5v-7q0 -22 7.5 -32t22.5 -10q5 0 10.5 1t10.5 2t5 -4v-24q0 -5 -4 -6q-6 -1 -13 -2t-14 -1z" />
    <glyph glyph-name="tilde" unicode="&#x2dc;" horiz-adv-x="204" 
d="M129 575q-12 0 -22 4t-18 7.5t-17 3.5q-10 0 -19 -5t-17 -10q-6 -3 -6 4v24q0 5 3 8q6 6 17 11t25 5q13 0 22 -3.5t17 -7.5t17 -4q11 0 19.5 3.5t16.5 8.5q7 3 7 -4v-23q0 -5 -3 -8q-7 -7 -18 -10.5t-24 -3.5z" />
    <glyph glyph-name="hungarumlaut" unicode="&#x2dd;" horiz-adv-x="238" 
d="M35 559q-8 0 -4 9l49 116q2 6 7 6h28q3 0 4.5 -2t-0.5 -6l-54 -117q-2 -6 -8 -6h-22zM122 559q-7 0 -3 9l48 116q3 6 8 6h28q3 0 4.5 -2t-0.5 -6l-54 -117q-2 -6 -8 -6h-23z" />
    <glyph glyph-name="gravecomb" unicode="&#x300;" 
d="M109 559q-5 0 -8 4l-69 119q-3 4 -1.5 6t4.5 2h31q5 0 7 -5l64 -119q2 -3 1 -5t-4 -2h-25z" />
    <glyph glyph-name="acutecomb" unicode="&#x301;" 
d="M34 559q-3 0 -4 2t1 5l64 119q2 5 7 5h31q4 0 5 -2t-1 -6l-69 -119q-3 -4 -9 -4h-25z" />
    <glyph glyph-name="uni0302" unicode="&#x302;" 
d="M36 563q-6 -3 -6 3v26q0 6 3 8l68 41q4 3 8 0l68 -41q2 -2 2 -8v-26q0 -5 -6 -3l-68 42z" />
    <glyph glyph-name="tildecomb" unicode="&#x303;" 
d="M129 575q-12 0 -22 4t-18 7.5t-17 3.5q-10 0 -19 -5t-17 -10q-6 -3 -6 4v24q0 5 3 8q6 6 17 11t25 5q13 0 22 -3.5t17 -7.5t17 -4q11 0 19.5 3.5t16.5 8.5q7 3 7 -4v-23q0 -5 -3 -8q-7 -7 -18 -10.5t-24 -3.5z" />
    <glyph glyph-name="uni0304" unicode="&#x304;" 
d="M36 577q-6 0 -6 6v28q0 5 6 5h121q6 0 6 -5v-28q0 -6 -6 -6h-121z" />
    <glyph glyph-name="uni0306" unicode="&#x306;" 
d="M103 553q-24 0 -41.5 9.5t-28.5 17.5q-3 3 -3 8v24q0 4 2 5t4 -1q14 -12 30 -19t37 -7t37 7t29 19q3 2 4.5 1t1.5 -5v-24q0 -5 -3 -8q-11 -9 -28.5 -18t-40.5 -9z" />
    <glyph glyph-name="uni0307" unicode="&#x307;" 
d="M61 581q-15 0 -23 8t-8 23v7q0 15 8 22.5t23 7.5t22.5 -7.5t7.5 -22.5v-7q0 -15 -7.5 -23t-22.5 -8z" />
    <glyph glyph-name="uni0308" unicode="&#x308;" 
d="M59 583q-14 0 -21.5 8t-7.5 21v8q0 13 7.5 20.5t21.5 7.5t21.5 -7.5t7.5 -20.5v-8q0 -13 -7.5 -21t-21.5 -8zM153 583q-13 0 -20.5 8t-7.5 21v8q0 13 7.5 20.5t20.5 7.5q15 0 22 -7.5t7 -20.5v-8q0 -13 -7 -21t-22 -8z" />
    <glyph glyph-name="uni030A" unicode="&#x30a;" 
d="M95 548q-30 0 -47.5 20t-17.5 56t17.5 56t47.5 20q31 0 48 -20t17 -56t-17.5 -56t-47.5 -20zM95 575q35 0 35 49t-35 49t-35 -49t35 -49z" />
    <glyph glyph-name="uni030B" unicode="&#x30b;" 
d="M35 559q-8 0 -4 9l49 116q2 6 7 6h28q3 0 4.5 -2t-0.5 -6l-54 -117q-2 -6 -8 -6h-22zM122 559q-7 0 -3 9l48 116q3 6 8 6h28q3 0 4.5 -2t-0.5 -6l-54 -117q-2 -6 -8 -6h-23z" />
    <glyph glyph-name="uni030C" unicode="&#x30c;" 
d="M101 562l-68 41q-3 2 -3 8v26q0 6 6 3l69 -42l68 42q6 2 6 -3v-26q0 -6 -2 -8l-68 -41q-4 -3 -8 0z" />
    <glyph glyph-name="uni0312" unicode="&#x312;" 
d="M57 571q-13 0 -20 6.5t-7 20.5v11q0 9 1.5 16.5t4.5 16.5l20 70q2 4 4 4h19q4 0 3 -6l-18 -76q9 -1 14.5 -7t5.5 -19v-11q0 -13 -7.5 -19.5t-19.5 -6.5z" />
    <glyph glyph-name="uni0313" unicode="&#x313;" 
d="M37 555q-4 0 -3 6l18 76q-9 1 -15 7t-6 19v11q0 13 7.5 19.5t19.5 6.5q14 0 20.5 -6.5t6.5 -19.5v-12q0 -9 -1 -16.5t-5 -16.5l-19 -70q-2 -4 -5 -4h-18z" />
    <glyph glyph-name="uni0324" unicode="&#x324;" 
d="M59 -125q-14 0 -21.5 8t-7.5 21v8q0 13 7.5 20.5t21.5 7.5t21.5 -7.5t7.5 -20.5v-8q0 -13 -7.5 -21t-21.5 -8zM153 -125q-13 0 -20.5 8t-7.5 21v8q0 13 7.5 20.5t20.5 7.5q15 0 22 -7.5t7 -20.5v-8q0 -13 -7 -21t-22 -8z" />
    <glyph glyph-name="uni0325" unicode="&#x325;" 
d="M95 -215q-30 0 -47.5 20t-17.5 56t17.5 56t47.5 20q31 0 48 -20t17 -56t-17.5 -56t-47.5 -20zM95 -188q35 0 35 49t-35 49t-35 -49t35 -49z" />
    <glyph glyph-name="uni0326" unicode="&#x326;" 
d="M37 -216q-4 0 -3 6l18 76q-9 1 -15 7.5t-6 18.5v11q0 13 7.5 19.5t19.5 6.5q14 0 20.5 -6.5t6.5 -20.5v-11q0 -9 -1 -16.5t-5 -16.5l-19 -70q-2 -4 -5 -4h-18z" />
    <glyph glyph-name="uni0327" unicode="&#x327;" 
d="M70 -191q-11 0 -19.5 1.5t-15.5 2.5q-5 2 -5 6v20q0 6 5 5t11 -2t15 -1q18 0 24 11.5t6 31.5v11q0 21 -8 30.5t-24 9.5h-14q-4 0 -4 6v7.5t1 7.5l17 60q2 4 5 4h22q5 0 3 -6l-16 -53h5q20 0 33.5 -14t13.5 -48v-17q0 -36 -13 -54.5t-42 -18.5z" />
    <glyph glyph-name="uni0328" unicode="&#x328;" 
d="M89 -194q-30 0 -44.5 16.5t-14.5 49.5v7q0 36 18.5 70.5t53.5 63.5l9 -7l1 -5q-21 -23 -34.5 -53.5t-13.5 -58.5v-7q0 -22 7.5 -32t22.5 -10q5 0 10.5 1t10.5 2t5 -4v-24q0 -5 -4 -6q-6 -1 -13 -2t-14 -1z" />
    <glyph glyph-name="uni0330" unicode="&#x330;" 
d="M129 -152q-12 0 -22 4t-18 7.5t-17 3.5q-10 0 -19 -5t-17 -10q-6 -3 -6 4v24q0 5 3 8q6 6 17 11t25 5q13 0 22 -3.5t17 -7.5t17 -4q11 0 19.5 3.5t16.5 8.5q7 3 7 -4v-23q0 -5 -3 -8q-7 -7 -18 -10.5t-24 -3.5z" />
    <glyph glyph-name="uni0331" unicode="&#x331;" 
d="M36 -150q-6 0 -6 6v28q0 5 6 5h121q6 0 6 -5v-28q0 -6 -6 -6h-121z" />
    <glyph glyph-name="uni0335" unicode="&#x335;" 
d="M27 248q-5 0 -5 6v23q0 6 5 6h192q6 0 6 -6v-23q0 -6 -6 -6h-192z" />
    <glyph glyph-name="uni0336" unicode="&#x336;" 
d="M27 248q-5 0 -5 6v23q0 6 5 6h425q6 0 6 -6v-23q0 -6 -6 -6h-425z" />
    <glyph glyph-name="tonos" unicode="&#x384;" horiz-adv-x="131" 
d="M34 546q-5 0 -4 7l29 136q1 6 7 6h30q7 0 4 -7l-35 -137q-2 -5 -6 -5h-25z" />
    <glyph glyph-name="dieresistonos" unicode="&#x385;" horiz-adv-x="212" 
d="M93 681q-6 0 -4 7l23 119q1 6 6 6h32q3 0 4 -2t0 -5l-31 -120q-1 -5 -6 -5h-24zM59 584q-14 0 -21.5 8t-7.5 21v8q0 13 7.5 20.5t21.5 7.5t21.5 -7.5t7.5 -20.5v-8q0 -13 -7.5 -21t-21.5 -8zM153 584q-13 0 -20.5 8t-7.5 21v8q0 13 7.5 20.5t20.5 7.5q15 0 22 -7.5
t7 -20.5v-8q0 -13 -7 -21t-22 -8z" />
    <glyph glyph-name="Alphatonos" unicode="&#x386;" horiz-adv-x="339" 
d="M11 0q-6 0 -5 7l138 643q1 5 6 5h43q5 0 6 -5l138 -643q1 -7 -4 -7h-33q-5 0 -6 5l-95 464q-7 35 -13.5 69t-13.5 69h-1q-6 -35 -12.5 -69.5t-14.5 -70.5l-95 -462q-1 -5 -6 -5h-32zM76 176l9 40h172l9 -40h-190zM26 516q-5 0 -4 7l22 127q1 5 7 5h30q6 0 4 -7l-28 -127
q-2 -5 -7 -5h-24z" />
    <glyph glyph-name="anoteleia" unicode="&#x387;" horiz-adv-x="148" 
d="M74 382q-14 0 -22.5 8t-8.5 23v7q0 15 8.5 23t22.5 8q15 0 23 -8t8 -23v-7q0 -15 -8 -23t-23 -8z" />
    <glyph glyph-name="Epsilontonos" unicode="&#x388;" horiz-adv-x="376" 
d="M110 0q-5 0 -5 6v643q0 6 5 6h217q5 0 5 -6v-28q0 -6 -5 -6h-181v-261h167q5 0 5 -6v-26q0 -6 -5 -6h-167v-276h181q5 0 5 -6v-28q0 -6 -5 -6h-217zM4 516q-5 0 -4 7l22 127q1 5 7 5h30q6 0 4 -7l-28 -127q-2 -5 -7 -5h-24z" />
    <glyph glyph-name="Etatonos" unicode="&#x389;" horiz-adv-x="454" 
d="M110 0q-5 0 -5 6v643q0 6 5 6h31q5 0 5 -6v-290h208v290q0 6 5 6h31q5 0 5 -6v-643q0 -6 -5 -6h-31q-5 0 -5 6v313h-208v-313q0 -6 -5 -6h-31zM4 516q-5 0 -4 7l22 127q1 5 7 5h30q6 0 4 -7l-28 -127q-2 -5 -7 -5h-24z" />
    <glyph glyph-name="Iotatonos" unicode="&#x38a;" horiz-adv-x="204" 
d="M110 0q-5 0 -5 6v643q0 6 5 6h31q5 0 5 -6v-643q0 -6 -5 -6h-31zM4 516q-5 0 -4 7l22 127q1 5 7 5h30q6 0 4 -7l-28 -127q-2 -5 -7 -5h-24z" />
    <glyph glyph-name="Omicrontonos" unicode="&#x38c;" horiz-adv-x="425" 
d="M228 -6q-72 0 -110.5 45.5t-38.5 135.5v304q0 92 38.5 137t110.5 45q71 0 110 -45t39 -137v-304q0 -90 -39 -135.5t-110 -45.5zM228 34q52 0 80 35t28 109v298q0 75 -28 110t-80 35q-53 0 -80.5 -35t-27.5 -110v-298q0 -74 27.5 -109t80.5 -35zM4 516q-5 0 -4 7l22 127
q1 5 7 5h30q6 0 4 -7l-28 -127q-2 -5 -7 -5h-24z" />
    <glyph glyph-name="Upsilontonos" unicode="&#x38e;" horiz-adv-x="412" 
d="M230 0q-4 0 -4 6v218l-133 423q-2 8 3 8h36q4 0 5 -5l77 -260q8 -28 16.5 -56t15.5 -56h1q8 28 16.5 56t15.5 56l77 261q1 4 5 4h34q6 0 4 -8l-132 -422v-219q0 -6 -4 -6h-33zM4 516q-5 0 -4 7l22 127q1 5 7 5h30q6 0 4 -7l-28 -127q-2 -5 -7 -5h-24z" />
    <glyph glyph-name="Omegatonos" unicode="&#x38f;" horiz-adv-x="426" 
d="M79 0q-5 0 -5 6v30q0 6 5 6h56v1q-14 10 -26.5 28t-20.5 45t-8 66v297q0 92 38.5 137t110.5 45q71 0 110 -45t39 -137v-297q0 -39 -8.5 -66t-21 -45t-25.5 -28v-1h56q5 0 5 -6v-30q0 -6 -5 -6h-121q-6 0 -6 6v28q0 6 5 6q37 0 58.5 36.5t21.5 96.5v303q0 75 -28 110
t-80 35q-53 0 -80.5 -35t-27.5 -110v-303q0 -60 21.5 -96.5t58.5 -36.5q4 0 4 -6v-28q0 -6 -5 -6h-121zM4 516q-5 0 -4 7l22 127q1 5 7 5h30q6 0 4 -7l-28 -127q-2 -5 -7 -5h-24z" />
    <glyph glyph-name="iotadieresistonos" unicode="&#x390;" horiz-adv-x="192" 
d="M128 -6q-26 0 -43 11t-24.5 33.5t-7.5 59.5v378q0 6 4 6h32q5 0 5 -6v-378q0 -37 10.5 -51t30.5 -14q11 0 20.5 1.5t17.5 4.5q5 2 5 -4v-28q0 -4 -4 -6q-9 -2 -21 -4.5t-25 -2.5zM60 681q-6 0 -4 7l23 119q1 6 6 6h32q3 0 4 -2t0 -5l-31 -120q-1 -5 -6 -5h-24zM26 584
q-14 0 -21.5 8t-7.5 21v8q0 13 7.5 20.5t21.5 7.5t21.5 -7.5t7.5 -20.5v-8q0 -13 -7.5 -21t-21.5 -8zM120 584q-13 0 -20.5 8t-7.5 21v8q0 13 7.5 20.5t20.5 7.5q15 0 22 -7.5t7 -20.5v-8q0 -13 -7 -21t-22 -8z" />
    <glyph glyph-name="Alpha" unicode="&#x391;" horiz-adv-x="334" 
d="M6 0q-6 0 -5 7l138 643q1 5 6 5h43q5 0 6 -5l138 -643q1 -7 -4 -7h-33q-5 0 -6 5l-95 464q-7 35 -13.5 69t-13.5 69h-1q-6 -35 -12.5 -69.5t-14.5 -70.5l-95 -462q-1 -5 -6 -5h-32zM71 176l9 40h172l9 -40h-190z" />
    <glyph glyph-name="Beta" unicode="&#x392;" horiz-adv-x="359" 
d="M65 0q-6 0 -6 6v643q0 6 6 6h93q76 0 111.5 -39.5t35.5 -120.5q0 -55 -19 -94.5t-55 -56.5v-2q45 -13 68.5 -54t23.5 -105q0 -91 -38.5 -137t-116.5 -46h-103zM100 40h66q60 0 88 34.5t28 111.5q0 66 -27.5 99.5t-81.5 33.5h-73v-279zM100 358h69q45 0 70 35.5t25 96.5
q0 66 -25 95.5t-78 29.5h-61v-257z" />
    <glyph glyph-name="Gamma" unicode="&#x393;" horiz-adv-x="291" 
d="M64 0q-5 0 -5 6v643q0 6 4 6h205q4 0 4 -6v-28q0 -6 -4 -6h-168v-609q0 -6 -5 -6h-31z" />
    <glyph glyph-name="uni0394" unicode="&#x394;" horiz-adv-x="342" 
d="M15 0q-5 0 -5 6v19v4t1 4l132 617q1 5 7 5h43q5 0 6 -5l131 -614q1 -2 1.5 -5t0.5 -5v-20q0 -6 -6 -6h-311zM55 40h232l-89 429q-7 35 -14 69t-12 69h-2q-6 -35 -12.5 -69.5t-13.5 -70.5z" />
    <glyph glyph-name="Epsilon" unicode="&#x395;" horiz-adv-x="330" 
d="M64 0q-5 0 -5 6v643q0 6 5 6h217q5 0 5 -6v-28q0 -6 -5 -6h-181v-261h167q5 0 5 -6v-26q0 -6 -5 -6h-167v-276h181q5 0 5 -6v-28q0 -6 -5 -6h-217z" />
    <glyph glyph-name="Zeta" unicode="&#x396;" horiz-adv-x="317" 
d="M15 0q-5 0 -5 6v2q0 4 2 9l198 499q10 25 19.5 49t19.5 49v2q-17 -1 -36 -1h-37h-141q-6 0 -6 6v28q0 6 6 6h264q5 0 5 -6v-2q0 -2 -0.5 -4.5t-1.5 -4.5l-199 -501q-9 -24 -19 -48l-20 -48v-2q20 1 36.5 1h33.5h151q5 0 5 -6v-28q0 -6 -5 -6h-270z" />
    <glyph glyph-name="Eta" unicode="&#x397;" horiz-adv-x="408" 
d="M64 0q-5 0 -5 6v643q0 6 5 6h31q5 0 5 -6v-290h208v290q0 6 5 6h31q5 0 5 -6v-643q0 -6 -5 -6h-31q-5 0 -5 6v313h-208v-313q0 -6 -5 -6h-31z" />
    <glyph glyph-name="Theta" unicode="&#x398;" horiz-adv-x="396" 
d="M134 316q-5 0 -5 5v27q0 6 5 6h128q5 0 5 -6v-26q0 -6 -5 -6h-128zM198 -6q-72 0 -110.5 45.5t-38.5 135.5v304q0 92 38.5 137t110.5 45q71 0 110 -45t39 -137v-304q0 -90 -39 -135.5t-110 -45.5zM198 34q52 0 80 35t28 109v298q0 75 -28 110t-80 35q-53 0 -80.5 -35
t-27.5 -110v-298q0 -74 27.5 -109t80.5 -35z" />
    <glyph glyph-name="Iota" unicode="&#x399;" horiz-adv-x="158" 
d="M64 0q-5 0 -5 6v643q0 6 5 6h31q5 0 5 -6v-643q0 -6 -5 -6h-31z" />
    <glyph glyph-name="Kappa" unicode="&#x39a;" horiz-adv-x="349" 
d="M307 0q-4 0 -6 3l-171 326q-2 5 0 10l160 313q2 3 6 3h34q2 0 3.5 -2t-0.5 -6l-161 -310l176 -329q3 -8 -4 -8h-37zM64 0q-5 0 -5 6v643q0 6 5 6h31q5 0 5 -6v-643q0 -6 -5 -6h-31z" />
    <glyph glyph-name="Lambda" unicode="&#x39b;" horiz-adv-x="328" 
d="M5 0q-5 0 -4 7l134 643q1 5 7 5h43q5 0 6 -5l135 -643q1 -7 -4 -7h-33q-4 0 -5 5l-94 462q-7 36 -13.5 70.5t-12.5 69.5h-2q-6 -35 -12 -69t-13 -69l-93 -464q-1 -5 -5 -5h-34z" />
    <glyph glyph-name="Mu" unicode="&#x39c;" horiz-adv-x="482" 
d="M56 0q-5 0 -5 6l9 643q0 6 6 6h49q5 0 6 -5l120 -435l120 435q1 5 7 5h48q5 0 5 -6l9 -643q0 -6 -5 -6h-30q-6 0 -6 6l-5 462q-1 29 -0.5 62.5t0.5 64.5h-1q-7 -30 -16 -60.5t-17 -59.5l-102 -360q-1 -5 -6 -5h-3q-5 0 -6 5l-103 363q-8 29 -16 58.5t-15 58.5h-2
q1 -30 1 -62v-61l-6 -466q0 -6 -5 -6h-31z" />
    <glyph glyph-name="Nu" unicode="&#x39d;" horiz-adv-x="410" 
d="M63 0q-4 0 -4 6v643q0 6 5 6h52q5 0 6 -4l124 -384q12 -33 23.5 -70t22.5 -74t21 -70h1q0 25 -0.5 52t-1 55t-0.5 55.5v52.5v381q0 6 5 6h30q5 0 5 -6v-643q0 -6 -5 -6h-52q-4 0 -6 4l-120 371q-19 58 -36.5 116t-33.5 111h-2q1 -35 1 -74.5t0.5 -79t0.5 -76.5v-366
q0 -6 -5 -6h-31z" />
    <glyph glyph-name="Xi" unicode="&#x39e;" horiz-adv-x="338" 
d="M43 612q-5 0 -5 6v31q0 6 5 6h252q5 0 5 -6v-31q0 -6 -5 -6h-252zM43 0q-5 0 -5 6v31q0 6 5 6h252q5 0 5 -6v-31q0 -6 -5 -6h-252zM86 314q-6 0 -6 6v30q0 6 6 6h164q5 0 5 -6v-30q0 -6 -5 -6h-164z" />
    <glyph glyph-name="Omicron" unicode="&#x39f;" horiz-adv-x="396" 
d="M198 -6q-72 0 -110.5 45.5t-38.5 135.5v304q0 92 38.5 137t110.5 45q71 0 110 -45t39 -137v-304q0 -90 -39 -135.5t-110 -45.5zM198 34q52 0 80 35t28 109v298q0 75 -28 110t-80 35q-53 0 -80.5 -35t-27.5 -110v-298q0 -74 27.5 -109t80.5 -35z" />
    <glyph glyph-name="Pi" unicode="&#x3a0;" horiz-adv-x="407" 
d="M64 0q-5 0 -5 6v643q0 6 4 6h281q4 0 4 -6v-643q0 -6 -5 -6h-31q-5 0 -5 6v609h-207v-609q0 -6 -5 -6h-31z" />
    <glyph glyph-name="Rho" unicode="&#x3a1;" horiz-adv-x="337" 
d="M64 0q-5 0 -5 6v643q0 6 5 6h85q80 0 120 -46.5t40 -149.5q0 -95 -37 -144.5t-119 -49.5h-53v-259q0 -6 -5 -6h-31zM100 305h49q66 0 92.5 38.5t26.5 114.5q0 84 -29.5 121t-86.5 37h-52v-311z" />
    <glyph glyph-name="Sigma" unicode="&#x3a3;" horiz-adv-x="292" 
d="M24 0q-5 0 -5 6v23q0 5 2 9l135 291l-135 288q-2 4 -2 9v23q0 6 5 6h249q5 0 5 -6v-28q0 -6 -5 -6h-120q-20 0 -43 0.5t-44 1.5v-2q11 -22 22 -45l22 -46l83 -180q2 -4 2 -8v-15q0 -3 -2 -7l-91 -195q-9 -20 -18 -39.5t-20 -39.5v-2q21 1 45 1.5t44 0.5h120q5 0 5 -6v-28
q0 -6 -5 -6h-249z" />
    <glyph glyph-name="Tau" unicode="&#x3a4;" horiz-adv-x="322" 
d="M146 0q-5 0 -5 6v609h-115q-6 0 -6 6v28q0 6 6 6h271q5 0 5 -6v-28q0 -6 -5 -6h-115v-609q0 -6 -6 -6h-30z" />
    <glyph glyph-name="Upsilon" unicode="&#x3a5;" horiz-adv-x="330" 
d="M149 0q-4 0 -4 6v218l-133 423q-2 8 3 8h36q4 0 5 -5l77 -260q8 -28 16.5 -56t15.5 -56h1q8 28 16.5 56t15.5 56l77 261q1 4 5 4h34q6 0 4 -8l-132 -422v-219q0 -6 -4 -6h-33z" />
    <glyph glyph-name="Phi" unicode="&#x3a6;" horiz-adv-x="500" 
d="M235 65q-60 0 -102 20.5t-63 68.5t-21 130v115q0 82 21 130t63 68.5t102 20.5h27q61 0 103 -20.5t64 -68t22 -130.5v-115q0 -83 -22 -131t-64 -68t-103 -20h-27zM235 103h28q50 0 82 16t48.5 56t16.5 110v112q0 71 -16.5 110.5t-48.5 55.5t-82 16h-28q-48 0 -80.5 -16
t-48.5 -55.5t-16 -110.5v-112q0 -70 16 -110t48.5 -56t80.5 -16zM234 -13q-5 0 -5 7v73l1 10v525l-1 8v79q0 6 5 6h31q5 0 5 -6v-79l-1 -9v-524l1 -10v-73q0 -7 -5 -7h-31z" />
    <glyph glyph-name="Chi" unicode="&#x3a7;" horiz-adv-x="331" 
d="M8 0q-5 0 -3 8l135 329l-127 310q-3 8 3 8h37q4 0 6 -3l69 -178q10 -25 19.5 -51t18.5 -51h1q9 26 19 51.5t20 51.5l69 176q1 4 5 4h36q6 0 3 -8l-126 -311l133 -329q4 -7 -3 -7h-37q-3 0 -5 4l-73 184q-11 29 -21.5 57t-20.5 56h-1q-9 -28 -20 -56t-21 -55l-73 -185
q-2 -5 -6 -5h-37z" />
    <glyph glyph-name="Psi" unicode="&#x3a8;" horiz-adv-x="473" 
d="M171 183q-47 0 -75 16.5t-40 50t-12 83.5v316q0 6 5 6h31q5 0 5 -6v-321q0 -54 18.5 -80t68.5 -26h130q50 0 68 26t18 80v321q0 6 5 6h31q5 0 5 -6v-316q0 -50 -12 -83.5t-39.5 -50t-75.5 -16.5h-131zM221 0q-6 0 -6 6l1 643q0 6 5 6h31q5 0 5 -6l-1 -643q0 -6 -5 -6h-30
z" />
    <glyph glyph-name="uni03A9" unicode="&#x3a9;" horiz-adv-x="396" 
d="M48 0q-5 0 -5 6v30q0 6 5 6h56v1q-14 10 -26.5 28t-20.5 45t-8 66v297q0 92 38.5 137t110.5 45q71 0 110 -45t39 -137v-297q0 -39 -8.5 -66t-21 -45t-25.5 -28v-1h56q5 0 5 -6v-30q0 -6 -5 -6h-121q-6 0 -6 6v28q0 6 5 6q37 0 58.5 36.5t21.5 96.5v303q0 75 -28 110
t-80 35q-53 0 -80.5 -35t-27.5 -110v-303q0 -60 21.5 -96.5t58.5 -36.5q4 0 4 -6v-28q0 -6 -5 -6h-121z" />
    <glyph glyph-name="Iotadieresis" unicode="&#x3aa;" horiz-adv-x="158" 
d="M64 0q-5 0 -5 6v643q0 6 5 6h31q5 0 5 -6v-643q0 -6 -5 -6h-31zM33 741q-14 0 -21.5 7.5t-7.5 21.5v7q0 14 7.5 21.5t21.5 7.5t21.5 -7.5t7.5 -21.5v-7q0 -14 -7.5 -21.5t-21.5 -7.5zM127 741q-13 0 -20.5 7.5t-7.5 21.5v7q0 14 7.5 21.5t20.5 7.5q15 0 22 -7.5t7 -21.5
v-7q0 -14 -7 -21.5t-22 -7.5z" />
    <glyph glyph-name="Upsilondieresis" unicode="&#x3ab;" horiz-adv-x="330" 
d="M149 0q-4 0 -4 6v218l-133 423q-2 8 3 8h36q4 0 5 -5l77 -260q8 -28 16.5 -56t15.5 -56h1q8 28 16.5 56t15.5 56l77 261q1 4 5 4h34q6 0 4 -8l-132 -422v-219q0 -6 -4 -6h-33zM118 741q-14 0 -21.5 7.5t-7.5 21.5v7q0 14 7.5 21.5t21.5 7.5t21.5 -7.5t7.5 -21.5v-7
q0 -14 -7.5 -21.5t-21.5 -7.5zM212 741q-13 0 -20.5 7.5t-7.5 21.5v7q0 14 7.5 21.5t20.5 7.5q15 0 22 -7.5t7 -21.5v-7q0 -14 -7 -21.5t-22 -7.5z" />
    <glyph glyph-name="alphatonos" unicode="&#x3ac;" horiz-adv-x="332" 
d="M125 -6q-42 0 -62.5 27t-20.5 93v232q0 51 12.5 82t35.5 45.5t55 14.5q30 0 57 -13t46 -26l-3 -38q-24 18 -47 28t-45 10q-19 0 -35 -9.5t-25.5 -32.5t-9.5 -63v-226q0 -48 14 -66t40 -18q29 0 56 23.5t53 59.5l3 -39q-29 -36 -59 -60t-65 -24zM292 -6q-52 0 -52 72v24
l-2 4v330l3 15v37q0 6 5 6h28q5 0 5 -6v-399q0 -23 5 -33.5t18 -10.5q6 0 11.5 1t10.5 3q4 1 4 -5v-26q0 -5 -5 -7q-15 -5 -31 -5zM146 546q-5 0 -4 7l29 136q1 6 7 6h30q7 0 4 -7l-35 -137q-2 -5 -6 -5h-25z" />
    <glyph glyph-name="epsilontonos" unicode="&#x3ad;" horiz-adv-x="292" 
d="M149 -6q-60 0 -88 36.5t-28 105.5q0 47 19 75.5t46 37.5v1q-27 13 -42.5 42t-15.5 78q0 57 28 87.5t81 30.5q54 0 82 -32t24 -86q0 -7 -5 -7h-30q-5 0 -4 6q2 80 -66 80q-35 0 -52 -21t-17 -63q0 -45 18 -72t54 -27h35q5 0 5 -6v-26q0 -6 -5 -6h-36q-40 0 -59 -23
t-19 -70q0 -51 17.5 -76t57.5 -25q37 0 54.5 21t15.5 65q-1 5 5 5h29q5 0 6 -6q3 -60 -23.5 -92.5t-86.5 -32.5zM129 546q-5 0 -4 7l29 136q1 6 7 6h30q7 0 4 -7l-35 -137q-2 -5 -6 -5h-25z" />
    <glyph glyph-name="etatonos" unicode="&#x3ae;" horiz-adv-x="352" 
d="M264 -185q-5 0 -5 6v539q0 46 -13 67.5t-40 21.5q-29 0 -56 -22t-54 -57l-3 38q30 37 60.5 58.5t65.5 21.5q39 0 60 -29.5t21 -94.5v-543q0 -6 -5 -6h-31zM65 0q-6 0 -6 6v400q0 23 -4.5 33t-17.5 10q-6 0 -11.5 -1t-10.5 -3q-4 -1 -4 4v28q0 4 4 6q8 3 16.5 4t16.5 1
q26 0 38.5 -18.5t12.5 -52.5v-19l1 -13v-379q0 -6 -5 -6h-30zM159 546q-5 0 -4 7l29 136q1 6 7 6h30q7 0 4 -7l-35 -137q-2 -5 -6 -5h-25z" />
    <glyph glyph-name="iotatonos" unicode="&#x3af;" horiz-adv-x="192" 
d="M128 -6q-26 0 -43 11t-24.5 33.5t-7.5 59.5v378q0 6 4 6h32q5 0 5 -6v-378q0 -37 10.5 -51t30.5 -14q11 0 20.5 1.5t17.5 4.5q5 2 5 -4v-28q0 -4 -4 -6q-9 -2 -21 -4.5t-25 -2.5zM57 546q-5 0 -4 7l29 136q1 6 7 6h30q7 0 4 -7l-35 -137q-2 -5 -6 -5h-25z" />
    <glyph glyph-name="upsilondieresistonos" unicode="&#x3b0;" horiz-adv-x="340" 
d="M175 -6q-58 0 -87 36t-29 116v259q0 23 -4.5 33.5t-17.5 10.5q-6 0 -11.5 -1t-10.5 -3q-4 -1 -4 4v28q0 5 4 6q8 2 17 3.5t17 1.5q28 0 39.5 -18t11.5 -56v-269q0 -59 19 -85t56 -26t55.5 27.5t18.5 89.5v131q0 58 -4 106t-11 88q-1 6 5 6h32q5 0 6 -5q5 -39 9 -89
t4 -107v-125q0 -86 -28 -124t-87 -38zM147 681q-6 0 -4 7l23 119q1 6 6 6h32q3 0 4 -2t0 -5l-31 -120q-1 -5 -6 -5h-24zM113 584q-14 0 -21.5 8t-7.5 21v8q0 13 7.5 20.5t21.5 7.5t21.5 -7.5t7.5 -20.5v-8q0 -13 -7.5 -21t-21.5 -8zM207 584q-13 0 -20.5 8t-7.5 21v8
q0 13 7.5 20.5t20.5 7.5q15 0 22 -7.5t7 -20.5v-8q0 -13 -7 -21t-22 -8z" />
    <glyph glyph-name="alpha" unicode="&#x3b1;" horiz-adv-x="332" 
d="M125 -6q-42 0 -62.5 27t-20.5 93v232q0 51 12.5 82t35.5 45.5t55 14.5q30 0 57 -13t46 -26l-3 -38q-24 18 -47 28t-45 10q-19 0 -35 -9.5t-25.5 -32.5t-9.5 -63v-226q0 -48 14 -66t40 -18q29 0 56 23.5t53 59.5l3 -39q-29 -36 -59 -60t-65 -24zM292 -6q-52 0 -52 72v24
l-2 4v330l3 15v37q0 6 5 6h28q5 0 5 -6v-399q0 -23 5 -33.5t18 -10.5q6 0 11.5 1t10.5 3q4 1 4 -5v-26q0 -5 -5 -7q-15 -5 -31 -5z" />
    <glyph glyph-name="beta" unicode="&#x3b2;" horiz-adv-x="329" 
d="M58 -185q-5 0 -5 6v728q0 72 30 106t83 34q52 0 79.5 -31t27.5 -108v-49q0 -49 -14 -78t-38 -40v-2q32 -6 51 -35.5t19 -85.5v-124q0 -71 -27.5 -106.5t-77.5 -35.5q-27 0 -52.5 9.5t-49.5 22.5v40q23 -13 47.5 -22.5t48.5 -9.5q33 0 51.5 26.5t18.5 79.5v118
q0 45 -16 72.5t-54 27.5h-38q-5 0 -5 4v29q0 5 5 5h28q30 0 46 25.5t16 78.5v51q0 58 -18 78t-49 20q-34 0 -52.5 -22.5t-18.5 -74.5v-731q0 -6 -5 -6h-31z" />
    <glyph glyph-name="gamma" unicode="&#x3b3;" horiz-adv-x="303" 
d="M134 -185q-5 0 -5 6v158q-5 51 -14.5 117t-22 140t-28.5 147q-7 34 -16 50t-24 16q-10 0 -22 -4q-2 -1 -3.5 1t-1.5 4v27q0 6 4 7q8 2 16 3t16 1q19 0 31.5 -8.5t22 -31.5t17.5 -66q11 -56 18 -95.5t13 -77.5q3 -26 6 -51.5t6 -50.5t5 -51h1q4 20 7 39t7 37.5t8 37.5
l8 38l61 269q1 5 5 5h33q6 0 5 -6l-117 -480v-175q0 -6 -5 -6h-31z" />
    <glyph glyph-name="delta" unicode="&#x3b4;" horiz-adv-x="329" 
d="M165 -6q-61 0 -92 37.5t-31 115.5v121q0 38 7.5 67t24 51t43.5 39.5t66 32.5l21 -27q-48 -20 -74.5 -41t-36.5 -50.5t-10 -77.5v-114q0 -59 20 -86.5t62 -27.5q41 0 61 27.5t20 86.5v122q0 37 -5 63t-18 51.5t-40 61.5l-86 120q-11 15 -17.5 31.5t-6.5 34.5q0 26 15.5 40
t44.5 14h137q5 0 5 -7v-25q0 -6 -5 -6h-126q-25 0 -25 -22q0 -12 4 -21.5t10 -18.5l84 -119q29 -41 44 -70t20.5 -57.5t5.5 -68.5v-124q0 -78 -30.5 -115.5t-91.5 -37.5z" />
    <glyph glyph-name="epsilon" unicode="&#x3b5;" horiz-adv-x="292" 
d="M149 -6q-60 0 -88 36.5t-28 105.5q0 47 19 75.5t46 37.5v1q-27 13 -42.5 42t-15.5 78q0 57 28 87.5t81 30.5q54 0 82 -32t24 -86q0 -7 -5 -7h-30q-5 0 -4 6q2 80 -66 80q-35 0 -52 -21t-17 -63q0 -45 18 -72t54 -27h35q5 0 5 -6v-26q0 -6 -5 -6h-36q-40 0 -59 -23
t-19 -70q0 -51 17.5 -76t57.5 -25q37 0 54.5 21t15.5 65q-1 5 5 5h29q5 0 6 -6q3 -60 -23.5 -92.5t-86.5 -32.5z" />
    <glyph glyph-name="zeta" unicode="&#x3b6;" horiz-adv-x="267" 
d="M217 -130q-5 0 -5 6v75q0 33 -9 41t-36 8h-12q-61 0 -92.5 43.5t-31.5 134.5q0 60 14 115.5t37.5 108t49.5 104.5l70 140h-161q-5 0 -5 5v26q0 6 5 6h201q5 0 5 -6v-21v-3.5t-1 -3.5l-76 -153q-27 -53 -49.5 -104t-35.5 -103.5t-13 -110.5q0 -74 23.5 -106.5t77.5 -32.5
q30 0 47 -5.5t24.5 -22t7.5 -50.5v-85q0 -6 -5 -6h-30z" />
    <glyph glyph-name="eta" unicode="&#x3b7;" horiz-adv-x="352" 
d="M264 -185q-5 0 -5 6v539q0 46 -13 67.5t-40 21.5q-29 0 -56 -22t-54 -57l-3 38q30 37 60.5 58.5t65.5 21.5q39 0 60 -29.5t21 -94.5v-543q0 -6 -5 -6h-31zM65 0q-6 0 -6 6v400q0 23 -4.5 33t-17.5 10q-6 0 -11.5 -1t-10.5 -3q-4 -1 -4 4v28q0 4 4 6q8 3 16.5 4t16.5 1
q26 0 38.5 -18.5t12.5 -52.5v-19l1 -13v-379q0 -6 -5 -6h-30z" />
    <glyph glyph-name="theta" unicode="&#x3b8;" horiz-adv-x="350" 
d="M175 689q61 0 91.5 -38t30.5 -114v-391q0 -76 -30.5 -114t-91.5 -38q-60 0 -91 38t-31 114v391q0 76 31 114t91 38zM175 649q-42 0 -61.5 -28t-19.5 -86v-158h162v158q0 58 -19.5 86t-61.5 28zM175 34q42 0 61.5 28t19.5 85v193h-162v-193q0 -57 19.5 -85t61.5 -28z" />
    <glyph glyph-name="iota" unicode="&#x3b9;" horiz-adv-x="192" 
d="M128 -6q-26 0 -43 11t-24.5 33.5t-7.5 59.5v378q0 6 4 6h32q5 0 5 -6v-378q0 -37 10.5 -51t30.5 -14q11 0 20.5 1.5t17.5 4.5q5 2 5 -4v-28q0 -4 -4 -6q-9 -2 -21 -4.5t-25 -2.5z" />
    <glyph glyph-name="kappa" unicode="&#x3ba;" horiz-adv-x="291" 
d="M253 0q-3 0 -5 3l-137 246q-3 5 0 11l125 219q3 3 6 3h35q3 0 4 -1.5t-1 -5.5l-128 -218l141 -249q3 -8 -4 -8h-36zM58 0q-5 0 -5 6v470q0 6 5 6h31q5 0 5 -6v-470q0 -6 -5 -6h-31z" />
    <glyph glyph-name="lambda" unicode="&#x3bb;" horiz-adv-x="296" 
d="M270 -6q-20 0 -33.5 9.5t-20.5 27.5t-12 44l-39 216q-6 34 -10.5 64.5t-9.5 64.5h-1l-13 -65t-14 -64l-67 -286q-1 -5 -5 -5h-33q-6 0 -4 7l111 456q1 5 5 5h6l-23 133q-4 24 -12.5 36.5t-25.5 12.5q-7 0 -13.5 -1t-11.5 -3q-5 -1 -5 4v27q0 5 4 6q15 6 34 6
q21 0 34.5 -9t22.5 -25t13 -39l96 -532q5 -25 12.5 -38t23.5 -13q10 0 22 4q5 2 5 -4v-26q0 -5 -4 -7q-7 -4 -15.5 -5t-16.5 -1z" />
    <glyph glyph-name="uni03BC" unicode="&#x3bc;" horiz-adv-x="339" 
d="M58 -185q-5 0 -5 6v655q0 6 5 6h31q5 0 5 -6v-350q0 -42 14.5 -67t40.5 -25t49 19.5t47 50.5v372q0 6 5 6h30q6 0 6 -6v-399q0 -23 4.5 -33.5t18.5 -10.5q6 0 11 1t10 3q4 1 4 -5v-27q0 -4 -4 -6q-7 -3 -15.5 -4t-16.5 -1q-22 0 -35 13.5t-15 53.5v2q-24 -30 -47 -49.5
t-53 -19.5q-20 0 -34 11.5t-21 26.5v-211q0 -6 -5 -6h-30z" />
    <glyph glyph-name="nu" unicode="&#x3bd;" horiz-adv-x="303" 
d="M132 0q-3 0 -5 5l-105 470q-2 7 4 7h34q5 0 6 -5l64 -311q7 -31 12.5 -61.5t10.5 -61.5h1q8 32 15.5 62.5t16.5 62.5l32 123q11 40 17 75t6 75v36q0 5 5 5h32q5 0 5 -6v-36q0 -46 -8 -86t-20 -82l-75 -267q-1 -5 -6 -5h-42z" />
    <glyph glyph-name="xi" unicode="&#x3be;" horiz-adv-x="260" 
d="M224 -130q-6 0 -6 6v76q0 31 -8 39.5t-35 8.5h-9q-67 0 -99 37.5t-32 111.5v79q0 58 19 92.5t53 44.5v2q-27 14 -40 43.5t-13 79.5v23q0 52 17 84t51 46v2q-11 -1 -22.5 -1h-22.5h-41q-5 0 -5 6v27q0 6 5 6h204q6 0 6 -6v-27q0 -6 -6 -6h-34q-56 0 -83.5 -33.5
t-27.5 -96.5v-25q0 -53 16 -79.5t46 -26.5h44q6 0 6 -6v-24q0 -6 -6 -6h-48q-37 0 -57 -31t-20 -83v-77q0 -62 24.5 -89.5t79.5 -27.5q32 0 48.5 -6t23 -22.5t6.5 -47.5v-87q0 -6 -5 -6h-29z" />
    <glyph glyph-name="omicron" unicode="&#x3bf;" horiz-adv-x="329" 
d="M165 -6q-62 0 -92.5 37.5t-30.5 112.5v193q0 76 30.5 113.5t92.5 37.5q61 0 91.5 -37.5t30.5 -113.5v-193q0 -75 -30.5 -112.5t-91.5 -37.5zM165 34q41 0 61 27t20 84v191q0 57 -20 85t-61 28q-42 0 -62 -28t-20 -85v-191q0 -57 20.5 -84t61.5 -27z" />
    <glyph glyph-name="pi" unicode="&#x3c0;" horiz-adv-x="353" 
d="M303 -6q-28 0 -44.5 21t-16.5 77v351h-137v-437q0 -6 -6 -6h-30q-5 0 -5 6v437h-46q-5 0 -5 6v27q0 6 5 6h317q5 0 5 -6v-27q0 -6 -5 -6h-52v-352q0 -31 7 -44.5t23 -13.5q7 0 13.5 0.5t11.5 2.5q6 3 6 -3v-27q0 -5 -3 -6q-6 -2 -16 -4t-22 -2z" />
    <glyph glyph-name="rho" unicode="&#x3c1;" horiz-adv-x="329" 
d="M58 -185q-5 0 -5 6v522q0 71 30 108t87 37q58 0 87.5 -37t29.5 -108v-197q0 -74 -26 -113t-73 -39q-26 0 -51.5 9t-52.5 23v40q22 -12 46 -22t48 -10q33 0 50.5 28t17.5 81v199q0 53 -18.5 80t-57.5 27q-38 0 -57 -27t-19 -80v-521q0 -6 -5 -6h-31z" />
    <glyph glyph-name="uni03C2" unicode="&#x3c2;" horiz-adv-x="316" 
d="M227 -130q-5 0 -5 6v76q0 30 -8 39t-37 9h-12q-61 0 -92 35.5t-31 121.5v180q0 77 30.5 114t91.5 37q38 0 64 -16.5t38.5 -48t9.5 -74.5q0 -8 -6 -8h-29q-2 0 -3.5 1.5t-0.5 4.5q2 47 -16.5 74.5t-56.5 27.5q-41 0 -61 -27t-20 -87v-179q0 -65 22 -91t70 -26
q37 0 55 -6.5t24.5 -22.5t6.5 -47v-87q0 -6 -5 -6h-29z" />
    <glyph glyph-name="sigma" unicode="&#x3c3;" horiz-adv-x="340" 
d="M165 -6q-62 0 -92.5 37.5t-30.5 112.5v184q0 71 30 112.5t90 41.5h164q5 0 5 -5v-28q0 -5 -5 -5l-86 1v-1q19 -15 33 -41.5t14 -76.5v-182q0 -75 -30.5 -112.5t-91.5 -37.5zM165 34q41 0 61 27t20 84v184q0 36 -8 58.5t-21 36t-26 21.5h-28q-39 0 -59.5 -29.5
t-20.5 -85.5v-185q0 -57 20.5 -84t61.5 -27z" />
    <glyph glyph-name="tau" unicode="&#x3c4;" horiz-adv-x="296" 
d="M194 -6q-27 0 -44 11t-25 33.5t-8 59.5v345h-97q-5 0 -5 6v27q0 6 5 6h256q5 0 5 -6v-27q0 -6 -5 -6h-118v-345q0 -37 11 -51t34 -14q11 0 22 2t20 5q4 2 4 -5v-28q0 -4 -4 -6q-8 -2 -21.5 -4.5t-29.5 -2.5z" />
    <glyph glyph-name="upsilon" unicode="&#x3c5;" horiz-adv-x="340" 
d="M175 -6q-58 0 -87 36t-29 116v259q0 23 -4.5 33.5t-17.5 10.5q-6 0 -11.5 -1t-10.5 -3q-4 -1 -4 4v28q0 5 4 6q8 2 17 3.5t17 1.5q28 0 39.5 -18t11.5 -56v-269q0 -59 19 -85t56 -26t55.5 27.5t18.5 89.5v131q0 58 -4 106t-11 88q-1 6 5 6h32q5 0 6 -5q5 -39 9 -89
t4 -107v-125q0 -86 -28 -124t-87 -38z" />
    <glyph glyph-name="phi" unicode="&#x3c6;" horiz-adv-x="472" 
d="M220 -185q-5 0 -5 6v179h-29q-65 0 -99 37t-34 119v320q0 6 5 6h31q5 0 5 -6v-318q0 -62 22.5 -90.5t67.5 -28.5h31v430q0 6 5 8q20 4 44 7.5t48 3.5q57 0 82 -32t25 -104v-196q0 -82 -34 -119t-99 -37h-30v-179q0 -6 -5 -6h-31zM256 39h31q45 0 68 28.5t23 90.5v196
q0 57 -17.5 76.5t-48.5 19.5q-17 0 -31 -2t-25 -5v-404z" />
    <glyph glyph-name="chi" unicode="&#x3c7;" horiz-adv-x="290" 
d="M261 -191q-27 0 -39 19.5t-22 58.5l-30 126q-6 28 -12 54.5t-12 54.5h-2q-7 -28 -15 -55t-17 -55l-58 -192q-1 -5 -5 -5h-34q-6 0 -4 8l109 337l-61 239q-7 26 -13 38t-19 12q-5 0 -11 -1t-12 -3q-4 -1 -4 5v27q0 5 3 6q8 3 16.5 4t16.5 1q28 0 40 -19t20 -59l28 -112
q6 -25 12 -50.5t12 -51.5h1q7 26 14 51.5t15 50.5l52 180q1 4 6 4h34q6 0 4 -7l-101 -314l64 -263q7 -26 14 -38t19 -12q6 0 12 1t11 3q4 1 4 -5v-26q0 -4 -3 -6q-7 -4 -15.5 -5t-17.5 -1z" />
    <glyph glyph-name="psi" unicode="&#x3c8;" horiz-adv-x="476" 
d="M220 -185q-5 0 -5 6v179h-29q-65 0 -99 37t-34 119v320q0 6 5 6h31q5 0 5 -6v-318q0 -62 22.5 -90.5t67.5 -28.5h31v595q0 6 5 6h31q5 0 5 -6v-595h36q45 0 67.5 28.5t22.5 90.5v211q0 42 -8.5 59.5t-30.5 19.5q-4 1 -4 6v28q0 6 5 6q46 0 62.5 -28.5t16.5 -91.5v-212
q0 -82 -34 -119t-99 -37h-34v-179q0 -6 -5 -6h-31z" />
    <glyph glyph-name="omega" unicode="&#x3c9;" horiz-adv-x="479" 
d="M148 -6q-45 0 -71.5 35.5t-26.5 112.5v226q0 63 17 91.5t63 28.5q4 0 4 -6v-28q0 -5 -4 -6q-22 -2 -30.5 -19.5t-8.5 -59.5v-227q0 -61 16 -83.5t46 -22.5q31 0 48.5 31t17.5 85v187q0 6 5 6h30q5 0 5 -6v-187q0 -54 17.5 -85t48.5 -31t47 22.5t16 83.5v227
q0 42 -8.5 59.5t-31.5 19.5q-4 1 -4 6v28q0 6 5 6q46 0 63 -28.5t17 -91.5v-226q0 -77 -26.5 -112.5t-72.5 -35.5q-35 0 -59.5 25t-31.5 72h-1q-6 -47 -30 -72t-60 -25z" />
    <glyph glyph-name="iotadieresis" unicode="&#x3ca;" horiz-adv-x="192" 
d="M128 -6q-26 0 -43 11t-24.5 33.5t-7.5 59.5v378q0 6 4 6h32q5 0 5 -6v-378q0 -37 10.5 -51t30.5 -14q11 0 20.5 1.5t17.5 4.5q5 2 5 -4v-28q0 -4 -4 -6q-9 -2 -21 -4.5t-25 -2.5zM26 583q-14 0 -21.5 8t-7.5 21v8q0 13 7.5 20.5t21.5 7.5t21.5 -7.5t7.5 -20.5v-8
q0 -13 -7.5 -21t-21.5 -8zM120 583q-13 0 -20.5 8t-7.5 21v8q0 13 7.5 20.5t20.5 7.5q15 0 22 -7.5t7 -20.5v-8q0 -13 -7 -21t-22 -8z" />
    <glyph glyph-name="upsilondieresis" unicode="&#x3cb;" horiz-adv-x="340" 
d="M175 -6q-58 0 -87 36t-29 116v259q0 23 -4.5 33.5t-17.5 10.5q-6 0 -11.5 -1t-10.5 -3q-4 -1 -4 4v28q0 5 4 6q8 2 17 3.5t17 1.5q28 0 39.5 -18t11.5 -56v-269q0 -59 19 -85t56 -26t55.5 27.5t18.5 89.5v131q0 58 -4 106t-11 88q-1 6 5 6h32q5 0 6 -5q5 -39 9 -89
t4 -107v-125q0 -86 -28 -124t-87 -38zM113 583q-14 0 -21.5 8t-7.5 21v8q0 13 7.5 20.5t21.5 7.5t21.5 -7.5t7.5 -20.5v-8q0 -13 -7.5 -21t-21.5 -8zM207 583q-13 0 -20.5 8t-7.5 21v8q0 13 7.5 20.5t20.5 7.5q15 0 22 -7.5t7 -20.5v-8q0 -13 -7 -21t-22 -8z" />
    <glyph glyph-name="omicrontonos" unicode="&#x3cc;" horiz-adv-x="329" 
d="M165 -6q-62 0 -92.5 37.5t-30.5 112.5v193q0 76 30.5 113.5t92.5 37.5q61 0 91.5 -37.5t30.5 -113.5v-193q0 -75 -30.5 -112.5t-91.5 -37.5zM165 34q41 0 61 27t20 84v191q0 57 -20 85t-61 28q-42 0 -62 -28t-20 -85v-191q0 -57 20.5 -84t61.5 -27zM148 546q-5 0 -4 7
l29 136q1 6 7 6h30q7 0 4 -7l-35 -137q-2 -5 -6 -5h-25z" />
    <glyph glyph-name="upsilontonos" unicode="&#x3cd;" horiz-adv-x="340" 
d="M175 -6q-58 0 -87 36t-29 116v259q0 23 -4.5 33.5t-17.5 10.5q-6 0 -11.5 -1t-10.5 -3q-4 -1 -4 4v28q0 5 4 6q8 2 17 3.5t17 1.5q28 0 39.5 -18t11.5 -56v-269q0 -59 19 -85t56 -26t55.5 27.5t18.5 89.5v131q0 58 -4 106t-11 88q-1 6 5 6h32q5 0 6 -5q5 -39 9 -89
t4 -107v-125q0 -86 -28 -124t-87 -38zM144 546q-5 0 -4 7l29 136q1 6 7 6h30q7 0 4 -7l-35 -137q-2 -5 -6 -5h-25z" />
    <glyph glyph-name="omegatonos" unicode="&#x3ce;" horiz-adv-x="479" 
d="M148 -6q-45 0 -71.5 35.5t-26.5 112.5v226q0 63 17 91.5t63 28.5q4 0 4 -6v-28q0 -5 -4 -6q-22 -2 -30.5 -19.5t-8.5 -59.5v-227q0 -61 16 -83.5t46 -22.5q31 0 48.5 31t17.5 85v187q0 6 5 6h30q5 0 5 -6v-187q0 -54 17.5 -85t48.5 -31t47 22.5t16 83.5v227
q0 42 -8.5 59.5t-31.5 19.5q-4 1 -4 6v28q0 6 5 6q46 0 63 -28.5t17 -91.5v-226q0 -77 -26.5 -112.5t-72.5 -35.5q-35 0 -59.5 25t-31.5 72h-1q-6 -47 -30 -72t-60 -25zM223 546q-5 0 -4 7l29 136q1 6 7 6h30q7 0 4 -7l-35 -137q-2 -5 -6 -5h-25z" />
    <glyph glyph-name="uni0400" unicode="&#x400;" horiz-adv-x="330" 
d="M64 0q-5 0 -5 6v643q0 6 5 6h217q5 0 5 -6v-28q0 -6 -5 -6h-181v-261h167q5 0 5 -6v-26q0 -6 -5 -6h-167v-276h181q5 0 5 -6v-28q0 -6 -5 -6h-217zM180 723q-6 0 -7 4l-61 104q-3 3 -1.5 5.5t3.5 2.5h33q3 0 4.5 -1.5l3.5 -3.5l55 -105q2 -3 1 -4.5t-4 -1.5h-27z" />
    <glyph glyph-name="uni0401" unicode="&#x401;" horiz-adv-x="330" 
d="M64 0q-5 0 -5 6v643q0 6 5 6h217q5 0 5 -6v-28q0 -6 -5 -6h-181v-261h167q5 0 5 -6v-26q0 -6 -5 -6h-167v-276h181q5 0 5 -6v-28q0 -6 -5 -6h-217zM126 741q-14 0 -21.5 7.5t-7.5 21.5v7q0 14 7.5 21.5t21.5 7.5t21.5 -7.5t7.5 -21.5v-7q0 -14 -7.5 -21.5t-21.5 -7.5z
M220 741q-13 0 -20.5 7.5t-7.5 21.5v7q0 14 7.5 21.5t20.5 7.5q15 0 22 -7.5t7 -21.5v-7q0 -14 -7 -21.5t-22 -7.5z" />
    <glyph glyph-name="uni0402" unicode="&#x402;" horiz-adv-x="443" 
d="M307 -5q-7 -2 -9 3l-8 28q-2 8 4 10q21 7 32.5 25t17 49t5.5 78v120q0 44 -14.5 65.5t-44.5 21.5q-28 0 -53.5 -16.5t-54.5 -44.5v-328q0 -6 -6 -6h-30q-5 0 -5 6v609h-115q-6 0 -6 6v28q0 6 6 6h271q5 0 5 -6v-28q0 -6 -5 -6h-115v-242q27 26 56.5 43.5t63.5 17.5
q45 0 66.5 -30.5t21.5 -91.5v-122q0 -62 -8.5 -102.5t-26.5 -62t-48 -30.5z" />
    <glyph glyph-name="uni0403" unicode="&#x403;" horiz-adv-x="291" 
d="M64 0q-5 0 -5 6v643q0 6 4 6h205q4 0 4 -6v-28q0 -6 -4 -6h-168v-609q0 -6 -5 -6h-31zM137 723q-3 0 -4 1.5t1 4.5l55 105q4 5 8 5h32q4 0 5 -2.5t-2 -5.5l-61 -104q-1 -4 -8 -4h-26z" />
    <glyph glyph-name="uni0404" unicode="&#x404;" horiz-adv-x="372" 
d="M188 -6q-47 0 -78 16.5t-46 55.5t-15 106v312q0 99 35 138t104 39q42 0 73.5 -17t48 -52.5t13.5 -91.5q0 -6 -5 -6h-32q-4 0 -4 7q2 45 -10 71t-33.5 37.5t-50.5 11.5q-49 0 -73.5 -28t-24.5 -106v-132h157q5 0 5 -6v-28q0 -6 -5 -6h-157v-146q0 -75 24 -105t74 -30
q48 0 73 26.5t23 93.5q0 7 5 7h31q5 0 5 -6q1 -57 -14 -93t-46 -52t-77 -16z" />
    <glyph glyph-name="uni0405" unicode="&#x405;" horiz-adv-x="338" 
d="M165 -6q-50 0 -80 21.5t-42.5 61.5t-9.5 96q0 6 5 6h30q6 0 5 -6q-5 -71 18.5 -105t75.5 -34q48 0 71.5 27.5t23.5 86.5q0 53 -15 85.5t-53 60.5l-75 58q-43 32 -61.5 70.5t-18.5 96.5q0 67 34 104.5t93 37.5q69 0 102 -45.5t27 -128.5q0 -7 -5 -7h-32q-4 0 -4 7
q5 65 -18 99.5t-69 34.5q-41 0 -64 -26t-23 -75q0 -46 15 -77t49 -57l74 -57q32 -24 50.5 -48.5t26.5 -56t8 -74.5q0 -76 -33.5 -116t-104.5 -40z" />
    <glyph glyph-name="uni0406" unicode="&#x406;" horiz-adv-x="158" 
d="M64 0q-5 0 -5 6v643q0 6 5 6h31q5 0 5 -6v-643q0 -6 -5 -6h-31z" />
    <glyph glyph-name="uni0407" unicode="&#x407;" horiz-adv-x="158" 
d="M64 0q-5 0 -5 6v643q0 6 5 6h31q5 0 5 -6v-643q0 -6 -5 -6h-31zM33 741q-14 0 -21.5 7.5t-7.5 21.5v7q0 14 7.5 21.5t21.5 7.5t21.5 -7.5t7.5 -21.5v-7q0 -14 -7.5 -21.5t-21.5 -7.5zM127 741q-13 0 -20.5 7.5t-7.5 21.5v7q0 14 7.5 21.5t20.5 7.5q15 0 22 -7.5t7 -21.5
v-7q0 -14 -7 -21.5t-22 -7.5z" />
    <glyph glyph-name="uni0408" unicode="&#x408;" horiz-adv-x="158" 
d="M17 -138q-6 -3 -8 3l-9 29q-1 3 -0.5 5.5t3.5 3.5q19 7 31.5 24.5t18.5 50.5t6 90v581q0 6 5 6h31q5 0 5 -6v-581q0 -69 -9 -110.5t-27.5 -63.5t-46.5 -32z" />
    <glyph glyph-name="uni0409" unicode="&#x409;" horiz-adv-x="518" 
d="M5 0q-5 0 -4 7l134 643q1 5 7 5h43q5 0 6 -5l55 -258h53q97 0 144 -47.5t47 -147.5t-36.5 -148t-108.5 -49h-55q-5 0 -6 5l-100 489q-5 29 -10.5 57.5t-9.5 55.5h-2q-4 -29 -9 -55.5t-10 -55.5l-99 -491q-1 -5 -5 -5h-34zM319 40h23q54 0 81 37.5t26 119.5q0 81 -36 118
t-114 37h-46z" />
    <glyph glyph-name="uni040A" unicode="&#x40a;" horiz-adv-x="594" 
d="M64 0q-5 0 -5 6v643q0 6 5 6h31q5 0 5 -6v-269h208v269q0 6 5 6h31q5 0 5 -6v-269h43q90 0 132.5 -45.5t42.5 -136.5q0 -99 -40 -148.5t-129 -49.5h-85q-5 0 -5 6v334h-208v-334q0 -6 -5 -6h-31zM349 40h48q70 0 99.5 38t29.5 120q0 72 -31.5 107t-101.5 35h-44v-300z
" />
    <glyph glyph-name="uni040B" unicode="&#x40b;" horiz-adv-x="443" 
d="M146 0q-5 0 -5 6v609h-115q-6 0 -6 6v28q0 6 6 6h281q5 0 5 -6v-28q0 -6 -5 -6h-125v-242q27 26 56.5 43.5t63.5 17.5q45 0 66.5 -30.5t21.5 -91.5v-306q0 -6 -5 -6h-31q-5 0 -5 6v302q0 44 -14.5 65.5t-44.5 21.5q-28 0 -53.5 -16.5t-54.5 -44.5v-328q0 -6 -6 -6h-30z
" />
    <glyph glyph-name="uni040C" unicode="&#x40c;" horiz-adv-x="357" 
d="M64 0q-5 0 -5 6v643q0 6 5 6h31q5 0 5 -6v-292h64l128 294q1 3 2.5 3.5t2.5 0.5h33q3 0 4 -2t-1 -6l-134 -306l149 -333q3 -8 -4 -8h-34q-2 0 -3 0.5t-3 3.5l-139 313h-65v-311q0 -6 -5 -6h-31zM147 723q-3 0 -4 1.5t1 4.5l55 105q4 5 8 5h32q4 0 5 -2.5t-2 -5.5
l-61 -104q-1 -4 -8 -4h-26z" />
    <glyph glyph-name="uni040D" unicode="&#x40d;" horiz-adv-x="407" 
d="M64 0q-5 0 -5 6v643q0 6 5 6h31q5 0 5 -6v-317q0 -29 -0.5 -64t-2 -72t-2 -71.5t-1.5 -64.5h2q13 41 28 86.5t30.5 93t31.5 91.5l111 320q2 4 6 4h40q5 0 5 -6v-643q0 -6 -5 -6h-31q-5 0 -5 6l2 304q0 32 0.5 68.5t1.5 74.5t2 74t2 68h-2q-14 -43 -30 -91t-32.5 -97
t-33.5 -97l-107 -306q-1 -4 -6 -4h-40zM211 723q-6 0 -7 4l-61 104q-3 3 -1.5 5.5t3.5 2.5h33q3 0 4.5 -1.5l3.5 -3.5l55 -105q2 -3 1 -4.5t-4 -1.5h-27z" />
    <glyph glyph-name="uni040E" unicode="&#x40e;" horiz-adv-x="333" 
d="M85 0q-3 0 -4.5 1.5t-0.5 5.5l67 218l-132 422q-2 8 4 8h36q5 0 6 -4l76 -259q8 -28 16 -56.5t16 -56.5h1q8 28 16 57t16 57l75 258q1 4 5 4h35q7 0 5 -8l-199 -643q-1 -4 -5 -4h-33zM168 732q-26 0 -44 9t-29 17q-3 3 -3 8v24q0 8 6 4q14 -11 30.5 -18.5t39.5 -7.5
q24 0 40 7.5t30 18.5q2 2 4 1t2 -5v-24q0 -5 -3 -8q-11 -9 -29 -17.5t-44 -8.5z" />
    <glyph glyph-name="uni040F" unicode="&#x40f;" horiz-adv-x="401" 
d="M186 -147q-6 0 -6 5v142h-117q-4 0 -4 6v643q0 6 5 6h31q5 0 5 -6v-609h202v609q0 6 5 6h31q5 0 5 -6v-643q0 -6 -5 -6h-117v-142q0 -5 -5 -5h-30z" />
    <glyph glyph-name="uni0410" unicode="&#x410;" horiz-adv-x="334" 
d="M6 0q-6 0 -5 7l138 643q1 5 6 5h43q5 0 6 -5l138 -643q1 -7 -4 -7h-33q-5 0 -6 5l-95 464q-7 35 -13.5 69t-13.5 69h-1q-6 -35 -12.5 -69.5t-14.5 -70.5l-95 -462q-1 -5 -6 -5h-32zM71 176l9 40h172l9 -40h-190z" />
    <glyph glyph-name="uni0411" unicode="&#x411;" horiz-adv-x="353" 
d="M64 0q-5 0 -5 7v642q0 6 5 6h208q5 0 5 -6v-28q0 -6 -6 -6h-171v-229h53q87 0 126.5 -45.5t39.5 -140.5q0 -68 -16.5 -112.5t-51.5 -66t-93 -21.5h-94zM100 40h57q67 0 94 38.5t27 121.5q0 76 -28.5 111.5t-96.5 35.5h-53v-307z" />
    <glyph glyph-name="uni0412" unicode="&#x412;" horiz-adv-x="359" 
d="M65 0q-6 0 -6 6v643q0 6 6 6h93q76 0 111.5 -39.5t35.5 -120.5q0 -55 -19 -94.5t-55 -56.5v-2q45 -13 68.5 -54t23.5 -105q0 -91 -38.5 -137t-116.5 -46h-103zM100 40h66q60 0 88 34.5t28 111.5q0 66 -27.5 99.5t-81.5 33.5h-73v-279zM100 358h69q45 0 70 35.5t25 96.5
q0 66 -25 95.5t-78 29.5h-61v-257z" />
    <glyph glyph-name="uni0413" unicode="&#x413;" horiz-adv-x="291" 
d="M64 0q-5 0 -5 6v643q0 6 4 6h205q4 0 4 -6v-28q0 -6 -4 -6h-168v-609q0 -6 -5 -6h-31z" />
    <glyph glyph-name="uni0414" unicode="&#x414;" horiz-adv-x="390" 
d="M81 16h-42l129 633q1 6 6 6h44q5 0 6 -5l128 -634h-43l-88 452q-6 35 -12.5 69.5t-11.5 69.5h-2l-12 -70t-13 -70zM18 -147q-6 0 -6 5v176q0 6 6 6h355q5 0 5 -6v-176q0 -5 -6 -5h-30q-5 0 -5 5v142h-284v-142q0 -5 -5 -5h-30z" />
    <glyph glyph-name="uni0415" unicode="&#x415;" horiz-adv-x="330" 
d="M64 0q-5 0 -5 6v643q0 6 5 6h217q5 0 5 -6v-28q0 -6 -5 -6h-181v-261h167q5 0 5 -6v-26q0 -6 -5 -6h-167v-276h181q5 0 5 -6v-28q0 -6 -5 -6h-217z" />
    <glyph glyph-name="uni0416" unicode="&#x416;" horiz-adv-x="510" 
d="M19 0q-5 0 -3 8l112 331l-99 308q-2 8 3 8h36q6 0 7 -4l88 -295h72v293q0 6 5 6h30q5 0 5 -6v-293h72l89 295q1 4 6 4h36q5 0 3 -8l-99 -308l112 -331q2 -8 -3 -8h-37q-2 0 -3.5 1t-2.5 3l-100 313h-73v-311q0 -6 -5 -6h-30q-5 0 -5 6v311h-73l-100 -313q-1 -2 -2 -3
t-4 -1h-37z" />
    <glyph glyph-name="uni0417" unicode="&#x417;" horiz-adv-x="346" 
d="M166 -6q-47 0 -77.5 19t-44 56.5t-10.5 93.5q0 4 1.5 5t3.5 1h32q4 0 4 -6q-3 -66 19.5 -97.5t72.5 -31.5q54 0 78 34t24 110q0 71 -26.5 103.5t-83.5 32.5h-47q-5 0 -5 6v28q0 6 5 6h43q50 0 75.5 37.5t25.5 108.5q0 63 -22 92t-68 29q-48 0 -69 -30.5t-18 -98.5
q0 -6 -4 -6h-32q-3 0 -4 1.5t-1 4.5q-4 85 28.5 127t101.5 42q64 0 96.5 -40t32.5 -117q0 -63 -20 -106t-58 -60v-1q47 -12 69 -51t22 -107q0 -95 -35 -140t-109 -45z" />
    <glyph glyph-name="uni0418" unicode="&#x418;" horiz-adv-x="407" 
d="M64 0q-5 0 -5 6v643q0 6 5 6h31q5 0 5 -6v-317q0 -29 -0.5 -64t-2 -72t-2 -71.5t-1.5 -64.5h2q13 41 28 86.5t30.5 93t31.5 91.5l111 320q2 4 6 4h40q5 0 5 -6v-643q0 -6 -5 -6h-31q-5 0 -5 6l2 304q0 32 0.5 68.5t1.5 74.5t2 74t2 68h-2q-14 -43 -30 -91t-32.5 -97
t-33.5 -97l-107 -306q-1 -4 -6 -4h-40z" />
    <glyph glyph-name="uni0419" unicode="&#x419;" horiz-adv-x="407" 
d="M64 0q-5 0 -5 6v643q0 6 5 6h31q5 0 5 -6v-317q0 -29 -0.5 -64t-2 -72t-2 -71.5t-1.5 -64.5h2q13 41 28 86.5t30.5 93t31.5 91.5l111 320q2 4 6 4h40q5 0 5 -6v-643q0 -6 -5 -6h-31q-5 0 -5 6l2 304q0 32 0.5 68.5t1.5 74.5t2 74t2 68h-2q-14 -43 -30 -91t-32.5 -97
t-33.5 -97l-107 -306q-1 -4 -6 -4h-40zM203 732q-26 0 -44 9t-29 17q-3 3 -3 8v24q0 8 6 4q14 -11 30.5 -18.5t39.5 -7.5q24 0 40 7.5t30 18.5q2 2 4 1t2 -5v-24q0 -5 -3 -8q-11 -9 -29 -17.5t-44 -8.5z" />
    <glyph glyph-name="uni041A" unicode="&#x41a;" horiz-adv-x="357" 
d="M64 0q-5 0 -5 6v643q0 6 5 6h31q5 0 5 -6v-292h64l128 294q1 3 2.5 3.5t2.5 0.5h33q3 0 4 -2t-1 -6l-134 -306l149 -333q3 -8 -4 -8h-34q-2 0 -3 0.5t-3 3.5l-139 313h-65v-311q0 -6 -5 -6h-31z" />
    <glyph glyph-name="uni041B" unicode="&#x41b;" horiz-adv-x="328" 
d="M5 0q-5 0 -4 7l134 643q1 5 7 5h43q5 0 6 -5l135 -643q1 -7 -4 -7h-33q-4 0 -5 5l-94 462q-7 36 -13.5 70.5t-12.5 69.5h-2q-6 -35 -12 -69t-13 -69l-93 -464q-1 -5 -5 -5h-34z" />
    <glyph glyph-name="uni041C" unicode="&#x41c;" horiz-adv-x="482" 
d="M56 0q-5 0 -5 6l9 643q0 6 6 6h49q5 0 6 -5l120 -435l120 435q1 5 7 5h48q5 0 5 -6l9 -643q0 -6 -5 -6h-30q-6 0 -6 6l-5 462q-1 29 -0.5 62.5t0.5 64.5h-1q-7 -30 -16 -60.5t-17 -59.5l-102 -360q-1 -5 -6 -5h-3q-5 0 -6 5l-103 363q-8 29 -16 58.5t-15 58.5h-2
q1 -30 1 -62v-61l-6 -466q0 -6 -5 -6h-31z" />
    <glyph glyph-name="uni041D" unicode="&#x41d;" horiz-adv-x="408" 
d="M64 0q-5 0 -5 6v643q0 6 5 6h31q5 0 5 -6v-290h208v290q0 6 5 6h31q5 0 5 -6v-643q0 -6 -5 -6h-31q-5 0 -5 6v313h-208v-313q0 -6 -5 -6h-31z" />
    <glyph glyph-name="uni041E" unicode="&#x41e;" horiz-adv-x="396" 
d="M198 -6q-72 0 -110.5 45.5t-38.5 135.5v304q0 92 38.5 137t110.5 45q71 0 110 -45t39 -137v-304q0 -90 -39 -135.5t-110 -45.5zM198 34q52 0 80 35t28 109v298q0 75 -28 110t-80 35q-53 0 -80.5 -35t-27.5 -110v-298q0 -74 27.5 -109t80.5 -35z" />
    <glyph glyph-name="uni041F" unicode="&#x41f;" horiz-adv-x="407" 
d="M64 0q-5 0 -5 6v643q0 6 4 6h281q4 0 4 -6v-643q0 -6 -5 -6h-31q-5 0 -5 6v609h-207v-609q0 -6 -5 -6h-31z" />
    <glyph glyph-name="uni0420" unicode="&#x420;" horiz-adv-x="337" 
d="M64 0q-5 0 -5 6v643q0 6 5 6h85q80 0 120 -46.5t40 -149.5q0 -95 -37 -144.5t-119 -49.5h-53v-259q0 -6 -5 -6h-31zM100 305h49q66 0 92.5 38.5t26.5 114.5q0 84 -29.5 121t-86.5 37h-52v-311z" />
    <glyph glyph-name="uni0421" unicode="&#x421;" horiz-adv-x="391" 
d="M198 -6q-73 0 -111 48t-38 143v285q0 95 38 143t111 48q52 0 86 -25t48.5 -71.5t8.5 -113.5q-1 -5 -5 -5h-31q-6 0 -5 6q5 85 -19.5 127t-82.5 42q-53 0 -80.5 -37.5t-27.5 -116.5v-279q0 -78 27.5 -116t80.5 -38q59 0 83.5 43.5t20.5 125.5q-1 6 5 6h29q6 0 6 -6
q5 -102 -31 -155.5t-113 -53.5z" />
    <glyph glyph-name="uni0422" unicode="&#x422;" horiz-adv-x="322" 
d="M146 0q-5 0 -5 6v609h-115q-6 0 -6 6v28q0 6 6 6h271q5 0 5 -6v-28q0 -6 -5 -6h-115v-609q0 -6 -6 -6h-30z" />
    <glyph glyph-name="uni0423" unicode="&#x423;" horiz-adv-x="333" 
d="M85 0q-3 0 -4.5 1.5t-0.5 5.5l67 218l-132 422q-2 8 4 8h36q5 0 6 -4l76 -259q8 -28 16 -56.5t16 -56.5h1q8 28 16 57t16 57l75 258q1 4 5 4h35q7 0 5 -8l-199 -643q-1 -4 -5 -4h-33z" />
    <glyph glyph-name="uni0424" unicode="&#x424;" horiz-adv-x="506" 
d="M238 -6q-59 0 -101.5 20.5t-65 69t-22.5 132.5v226q0 81 22.5 129t65 69t101.5 21h27q60 0 103 -20.5t66 -68.5t23 -130v-226q0 -85 -23 -133.5t-66 -68.5t-103 -20h-27zM239 33h27q50 0 83 15.5t50 55.5t17 113v224q0 70 -17 109.5t-50 55.5t-83 16h-27q-49 0 -82 -16
t-50 -55.5t-17 -109.5v-224q0 -73 17 -113t50 -55.5t82 -15.5zM237 -85q-5 0 -5 6v87l1 5v629l-1 5v87q0 6 5 6h32q4 0 4 -6v-87l-1 -5v-628l1 -6v-87q0 -6 -4 -6h-32z" />
    <glyph glyph-name="uni0425" unicode="&#x425;" horiz-adv-x="331" 
d="M8 0q-5 0 -3 8l135 329l-127 310q-3 8 3 8h37q4 0 6 -3l69 -178q10 -25 19.5 -51t18.5 -51h1q9 26 19 51.5t20 51.5l69 176q1 4 5 4h36q6 0 3 -8l-126 -311l133 -329q4 -7 -3 -7h-37q-3 0 -5 4l-73 184q-11 29 -21.5 57t-20.5 56h-1q-9 -28 -20 -56t-21 -55l-73 -185
q-2 -5 -6 -5h-37z" />
    <glyph glyph-name="uni0426" unicode="&#x426;" horiz-adv-x="403" 
d="M351 -147q-5 0 -5 5v142h-282q-5 0 -5 6v643q0 6 5 6h31q5 0 5 -6v-609h200v609q0 6 5 6h31q5 0 5 -6v-609h41q5 0 5 -6v-176q0 -5 -5 -5h-31z" />
    <glyph glyph-name="uni0427" unicode="&#x427;" horiz-adv-x="388" 
d="M162 230q-52 0 -80.5 33t-28.5 110v276q0 6 5 6h31q5 0 5 -6v-271q0 -60 19 -84t56 -24q33 0 64.5 17.5t60.5 46.5v-43q-29 -26 -62 -43.5t-70 -17.5zM294 0q-5 0 -5 6v643q0 6 5 6h31q5 0 5 -6v-643q0 -6 -5 -6h-31z" />
    <glyph glyph-name="uni0428" unicode="&#x428;" horiz-adv-x="548" 
d="M64 0q-5 0 -5 6v643q0 6 5 6h31q5 0 5 -6v-609h154v609q0 6 5 6h31q5 0 5 -6v-609h154v609q0 6 5 6h31q5 0 5 -6v-643q0 -6 -5 -6h-421z" />
    <glyph glyph-name="uni0429" unicode="&#x429;" horiz-adv-x="552" 
d="M500 -147q-5 0 -5 5v142h-431q-5 0 -5 6v643q0 6 5 6h31q5 0 5 -6v-609h154v609q0 6 5 6h31q5 0 5 -6v-609h154v609q0 6 5 6h31q5 0 5 -6v-609h40q3 0 4.5 -1.5t1.5 -4.5v-176q0 -5 -6 -5h-30z" />
    <glyph glyph-name="uni042A" unicode="&#x42a;" horiz-adv-x="405" 
d="M122 0q-5 0 -5 6v609h-91q-6 0 -6 6v28q0 6 6 6h126q6 0 6 -6v-257h43q91 0 133.5 -46t42.5 -141q0 -105 -40 -155t-131 -50h-84zM158 40h47q71 0 101 39t30 126q0 76 -32 111.5t-103 35.5h-43v-312z" />
    <glyph glyph-name="uni042B" unicode="&#x42b;" horiz-adv-x="505" 
d="M64 0q-5 0 -5 6v643q0 6 5 6h31q5 0 5 -6v-257h43q91 0 133.5 -46t42.5 -141q0 -105 -40 -155t-130 -50h-85zM100 40h48q70 0 100.5 39t29.5 126q0 76 -32 111.5t-103 35.5h-43v-312zM411 0q-5 0 -5 6v643q0 6 5 6h31q5 0 5 -6v-643q0 -6 -5 -6h-31z" />
    <glyph glyph-name="uni042C" unicode="&#x42c;" horiz-adv-x="347" 
d="M64 0q-5 0 -5 6v643q0 6 5 6h31q5 0 5 -6v-257h43q91 0 133.5 -46t42.5 -141q0 -105 -40 -155t-130 -50h-85zM100 40h48q70 0 100.5 39t29.5 126q0 76 -32 111.5t-103 35.5h-43v-312z" />
    <glyph glyph-name="uni042D" unicode="&#x42d;" horiz-adv-x="372" 
d="M185 -6q-47 0 -77.5 16t-45.5 52t-14 93q0 6 4 6h31q5 0 5 -7q-1 -67 23.5 -93.5t73.5 -26.5t73 30t24 105v146h-158q-4 0 -4 6v28q0 6 4 6h158v132q0 78 -24.5 106t-73.5 28q-28 0 -50 -11.5t-34 -37.5t-10 -71q0 -7 -5 -7h-32q-4 0 -4 6q-4 56 12.5 91.5t48.5 52.5
t74 17q70 0 104.5 -39t34.5 -138v-312q0 -67 -15 -106t-46 -55.5t-77 -16.5z" />
    <glyph glyph-name="uni042E" unicode="&#x42e;" horiz-adv-x="533" 
d="M343 -6q-68 0 -105 46t-37 143v288q0 98 37 144t105 46t104.5 -46t36.5 -144v-288q0 -98 -36.5 -143.5t-104.5 -45.5zM63 0q-4 0 -4 6v643q0 6 4 6h32q5 0 5 -6v-290h118v-40h-118v-313q0 -6 -5 -6h-32zM343 34q48 0 74 35t26 117v283q0 81 -26 116.5t-74 35.5
q-49 0 -75 -35.5t-26 -116.5v-283q0 -81 26 -116.5t75 -35.5z" />
    <glyph glyph-name="uni042F" unicode="&#x42f;" horiz-adv-x="368" 
d="M26 0q-5 0 -2 8l75 206q8 22 16.5 44.5t16.5 43.5v2q-42 18 -63.5 58t-21.5 109q0 63 18 104t53.5 60.5t89.5 19.5h96q5 0 5 -6v-643q0 -6 -5 -6h-31q-5 0 -5 6v288h-97l-105 -290q-1 -2 -2 -3t-4 -1h-34zM193 330h75v285h-63q-60 0 -88.5 -34.5t-28.5 -109.5
q0 -71 26 -106t79 -35z" />
    <glyph glyph-name="uni0430" unicode="&#x430;" horiz-adv-x="307" 
d="M225 0q-5 0 -5 6q-2 23 -3.5 49t-1.5 42l-2 3v260q0 50 -13 69.5t-47 19.5q-35 0 -50 -21t-11 -63q0 -6 -6 -6h-27q-7 0 -7 8q-5 57 21.5 89t79.5 32q55 1 78 -28t23 -99v-246q0 -34 1 -61.5t2 -46.5q0 -7 -4 -7h-28zM114 -6q-38 0 -58 33t-20 90q0 65 28.5 105.5
t91.5 47.5l62 8v-35l-58 -8q-44 -5 -63.5 -35t-19.5 -81q0 -39 12.5 -62t35.5 -23q20 0 41 15.5t54 60.5l1 -41q-33 -43 -56 -59t-51 -16z" />
    <glyph glyph-name="uni0431" unicode="&#x431;" horiz-adv-x="330" 
d="M166 -6q-60 0 -90 37t-30 115v304q0 64 13.5 101.5t43.5 61.5q20 16 43.5 26t47.5 23t47 36q3 2 4.5 1t2.5 -4l9 -28q2 -7 -2 -10q-16 -17 -38 -29t-44.5 -22t-42.5 -25q-25 -19 -34 -48t-9 -80v-306q0 -56 19 -84.5t60 -28.5t60.5 28.5t19.5 84.5v178q0 46 -12.5 66.5
t-38.5 20.5q-30 0 -58.5 -24t-54.5 -58l-3 39q29 36 60 59.5t68 23.5q40 0 60 -29t20 -93v-184q-1 -76 -31 -114t-90 -38z" />
    <glyph glyph-name="uni0432" unicode="&#x432;" horiz-adv-x="331" 
d="M166 -6q-64 0 -92.5 37t-28.5 113v403q0 74 30 108t87 34q54 0 81.5 -31t27.5 -107q0 -65 -17 -104t-49 -58v-1q40 -2 61.5 -31t21.5 -88v-122q0 -75 -30.5 -114t-91.5 -39zM166 34q42 0 61.5 28.5t19.5 85.5v121q0 50 -17 70t-49 20q-20 0 -46 -9t-49 -20v-184
q0 -57 18 -84.5t62 -27.5zM86 369l64 24q39 14 59.5 49.5t20.5 102.5q0 60 -18 82t-52 22q-36 0 -55 -22.5t-19 -75.5v-182z" />
    <glyph glyph-name="uni0433" unicode="&#x433;" horiz-adv-x="291" 
d="M143 -6q-55 0 -82 28t-27 86q0 44 14.5 75t46.5 57l67 51q27 21 37 41t10 51q0 66 -63 66q-34 0 -50 -21t-15 -61q0 -7 -5 -7h-28q-6 0 -6 7q-4 57 24 89t82 32q50 0 76 -26t26 -78q0 -42 -14 -70.5t-48 -54.5l-65 -51q-25 -19 -36.5 -42t-11.5 -57q0 -39 17 -57.5
t52 -18.5q38 0 54.5 22.5t15.5 68.5q0 6 5 6h30q4 0 5 -6q3 -65 -26 -97.5t-85 -32.5z" />
    <glyph glyph-name="uni0434" unicode="&#x434;" horiz-adv-x="333" 
d="M160 -191q-59 0 -85 34t-22 88q1 5 3 5.5t4 0.5h28q5 0 5 -6q-2 -40 14 -61t54 -21q41 0 59.5 26t18.5 85v62v36.5v34.5v1q-27 -30 -55.5 -49.5t-59.5 -19.5q-40 0 -61 29t-21 92v188q0 83 30.5 118.5t83.5 35.5q32 0 61.5 -7t62.5 -13v-506q0 -74 -28 -113.5t-92 -39.5z
M136 65q27 0 53 20.5t50 50.5v299q-18 4 -38.5 9t-40.5 5q-37 0 -57 -27t-20 -88v-184q0 -43 13 -64t40 -21z" />
    <glyph glyph-name="uni0435" unicode="&#x435;" horiz-adv-x="319" 
d="M165 -6q-62 0 -92.5 39t-30.5 120v184q0 79 31 115t88 36q56 0 87 -37.5t31 -112.5v-94q0 -6 -6 -6h-190v-84q0 -61 20 -90.5t62 -29.5q36 0 52.5 22t16.5 65q-1 7 4 7h30q5 0 5 -6q1 -63 -26.5 -95.5t-81.5 -32.5zM83 277h155v60q0 56 -19.5 84t-57.5 28t-58 -28
t-20 -84v-60z" />
    <glyph glyph-name="uni0436" unicode="&#x436;" horiz-adv-x="421" 
d="M13 0q-3 0 -4 2.5t0 5.5l90 255l-76 212q-3 7 3 7h35q5 0 6 -3l68 -202h55v400q0 6 5 6h31q5 0 5 -6v-400h56l68 202q1 3 6 3h33q7 0 4 -7l-76 -212l89 -255q2 -3 1 -5.5t-4 -2.5h-34q-5 0 -6 4l-81 236h-56v-234q0 -6 -5 -6h-31q-5 0 -5 6v234h-56l-82 -236q-1 -4 -6 -4
h-33z" />
    <glyph glyph-name="uni0437" unicode="&#x437;" horiz-adv-x="289" 
d="M135 -191q-60 0 -85 36t-22 100q0 7 4 7h32q4 0 4 -6q-2 -50 13.5 -74t53.5 -24q40 0 59 27.5t19 90.5v78q0 54 -22 80t-72 26h-36q-2 0 -3 1.5t-1 3.5v28q0 4 1 5t3 1h34q41 0 63 30t22 85v55q0 47 -15.5 69t-49.5 22q-36 0 -51.5 -21.5t-14.5 -61.5q0 -2 -1 -3.5
t-3 -1.5h-31q-5 0 -5 6q-2 53 24 86.5t82 33.5q52 0 79 -31t27 -92v-63q0 -48 -17 -81t-48 -46v-1q36 -10 56 -42.5t20 -84.5v-79q0 -76 -29 -117.5t-90 -41.5z" />
    <glyph glyph-name="uni0438" unicode="&#x438;" horiz-adv-x="338" 
d="M132 -6q-41 0 -60 27t-19 92v363q0 6 5 6h31q5 0 5 -6v-361q0 -48 12 -64.5t37 -16.5q30 0 57 23.5t53 59.5l3 -39q-29 -36 -59 -60t-65 -24zM256 0q-4 0 -5 6q-2 23 -3.5 49.5t-1.5 41.5l-2 4v375q0 6 5 6h31q5 0 5 -6v-361q0 -34 1 -61t2 -47q0 -7 -5 -7h-27z" />
    <glyph glyph-name="uni0439" unicode="&#x439;" horiz-adv-x="338" 
d="M132 -6q-41 0 -60 27t-19 92v363q0 6 5 6h31q5 0 5 -6v-361q0 -48 12 -64.5t37 -16.5q30 0 57 23.5t53 59.5l3 -39q-29 -36 -59 -60t-65 -24zM256 0q-4 0 -5 6q-2 23 -3.5 49.5t-1.5 41.5l-2 4v375q0 6 5 6h31q5 0 5 -6v-361q0 -34 1 -61t2 -47q0 -7 -5 -7h-27zM169 553
q-24 0 -41.5 9.5t-28.5 17.5q-3 3 -3 8v24q0 4 2 5t4 -1q14 -12 30 -19t37 -7t37 7t29 19q3 2 4.5 1t1.5 -5v-24q0 -5 -3 -8q-11 -9 -28.5 -18t-40.5 -9z" />
    <glyph glyph-name="uni043A" unicode="&#x43a;" horiz-adv-x="295" 
d="M291 8q3 -8 -4 -8h-33q-4 0 -7 5l-97 235h-56v-234q0 -6 -5 -6h-31q-5 0 -5 6v671q0 6 5 6h31q5 0 5 -6v-399h56l85 201q1 3 6 3h34q3 0 3.5 -2t-0.5 -5l-93 -212z" />
    <glyph glyph-name="uni043B" unicode="&#x43b;" horiz-adv-x="277" 
d="M11 0q-6 0 -4 8l104 466q2 8 8 8h38q6 0 8 -8l105 -467q1 -7 -4 -7h-31q-5 0 -6 5l-70 319q-5 27 -10.5 56.5t-9.5 57.5h-1q-4 -28 -9.5 -57t-11.5 -57l-69 -319q-1 -5 -5 -5h-32z" />
    <glyph glyph-name="uni043C" unicode="&#x43c;" horiz-adv-x="394" 
d="M55 0q-5 0 -5 6l5 470q0 6 5 6h40q5 0 6 -5l91 -305l91 305q1 5 6 5h40q5 0 5 -6l5 -470q0 -6 -5 -6h-29q-5 0 -5 6l-2 275q0 15 0.5 42t2 55.5t2.5 48.5h-2q-8 -29 -15.5 -56.5t-14.5 -49.5l-72 -233q-1 -3 -2.5 -3.5t-4.5 -0.5q-2 0 -3.5 0.5t-3.5 3.5l-72 233
q-7 22 -14.5 49.5t-15.5 56.5h-1q1 -20 2 -48.5t1.5 -55.5t0.5 -42l-2 -275q0 -6 -5 -6h-29z" />
    <glyph glyph-name="uni043D" unicode="&#x43d;" horiz-adv-x="336" 
d="M247 0q-5 0 -5 6v470q0 6 5 6h31q5 0 5 -6v-470q0 -6 -5 -6h-31zM58 0q-5 0 -5 6v470q0 6 5 6h31q5 0 5 -6v-470q0 -6 -5 -6h-31zM89 231v39h162v-39h-162z" />
    <glyph glyph-name="uni043E" unicode="&#x43e;" horiz-adv-x="329" 
d="M165 -6q-62 0 -92.5 37.5t-30.5 112.5v193q0 76 30.5 113.5t92.5 37.5q61 0 91.5 -37.5t30.5 -113.5v-193q0 -75 -30.5 -112.5t-91.5 -37.5zM165 34q41 0 61 27t20 84v191q0 57 -20 85t-61 28q-42 0 -62 -28t-20 -85v-191q0 -57 20.5 -84t61.5 -27z" />
    <glyph glyph-name="uni043F" unicode="&#x43f;" horiz-adv-x="345" 
d="M256 0q-5 0 -5 6v354q0 46 -13 67.5t-40 21.5t-54.5 -22t-55.5 -57l-2 38q30 37 60 58.5t65 21.5q40 0 60.5 -29.5t20.5 -94.5v-358q0 -6 -5 -6h-31zM58 0q-5 0 -5 6v361q0 34 -0.5 61.5t-2.5 46.5q-1 7 4 7h27q5 0 6 -6q2 -19 3.5 -48t1.5 -44l2 -4v-374q0 -6 -5 -6h-31
z" />
    <glyph glyph-name="uni0440" unicode="&#x440;" horiz-adv-x="333" 
d="M190 -6q-27 0 -53.5 9.5t-50.5 22.5v40q22 -12 46.5 -22t49.5 -10q32 0 49 27.5t17 83.5v218q0 45 -12.5 65.5t-38.5 20.5q-31 0 -59.5 -25.5t-54.5 -60.5l-3 40q30 38 60.5 61.5t68.5 23.5q40 0 60 -28t20 -92v-224q0 -75 -25.5 -112.5t-73.5 -37.5zM58 -185q-5 0 -5 6
v550q0 31 -0.5 57.5t-2.5 47.5q-1 6 4 6h27q5 0 6 -6q2 -17 3 -37.5t1 -35.5l3 -15v-567q0 -6 -5 -6h-31z" />
    <glyph glyph-name="uni0441" unicode="&#x441;" horiz-adv-x="317" 
d="M165 -6q-62 0 -92.5 37t-30.5 115v191q0 77 30.5 114t91.5 37q38 0 64 -16.5t38.5 -48t9.5 -74.5q0 -8 -6 -8h-29q-2 0 -3.5 1.5t-0.5 4.5q2 47 -16.5 74.5t-56.5 27.5q-41 0 -61 -27t-20 -87v-188q0 -59 20 -86t62 -27q38 0 55.5 26t15.5 79q0 7 5 7h29q6 0 6 -6
q1 -72 -26 -109t-85 -37z" />
    <glyph glyph-name="uni0442" unicode="&#x442;" horiz-adv-x="515" 
d="M58 0q-5 0 -5 6v361q0 34 -0.5 61.5t-2.5 46.5q-1 7 4 7h28q4 0 5 -6q2 -16 2.5 -31.5t1.5 -29.5q30 37 56.5 55t56.5 18q29 0 47.5 -18.5t23.5 -54.5q30 37 56.5 55t56.5 18q36 0 55 -27t19 -78v-377q0 -6 -5 -6h-31q-5 0 -5 6v370q0 35 -11.5 54t-35.5 19
q-22 0 -44.5 -17t-51.5 -55v-371q0 -6 -5 -6h-31q-5 0 -5 6v370q0 35 -11.5 54t-35.5 19q-21 0 -44 -17t-52 -55v-371q0 -6 -5 -6h-31z" />
    <glyph glyph-name="uni0443" unicode="&#x443;" horiz-adv-x="305" 
d="M93 -185q-6 0 -4 8l44 181l-113 471q-2 7 3 7h34q5 0 6 -6l60 -269q8 -33 15 -68t14 -68h1q7 33 14.5 68t14.5 68l60 269q1 6 6 6h32q3 0 4.5 -2t-0.5 -7l-154 -652q-1 -6 -7 -6h-30z" />
    <glyph glyph-name="uni0444" unicode="&#x444;" horiz-adv-x="427" 
d="M176 -6q-65 0 -99.5 36t-34.5 118v187q0 82 34.5 117.5t99.5 35.5h75q65 0 99 -35.5t34 -117.5v-187q0 -82 -34 -118t-99 -36h-75zM174 33h79q45 0 67.5 27t22.5 89v185q0 62 -22.5 88.5t-67.5 26.5h-79q-46 0 -68.5 -26.5t-22.5 -88.5v-185q0 -62 22.5 -89t68.5 -27z
M198 -185q-5 0 -5 6v185l1 9v448l-1 13v201q0 6 5 6h31q5 0 5 -6v-201l-1 -12v-448l1 -11v-184q0 -6 -5 -6h-31z" />
    <glyph glyph-name="uni0445" unicode="&#x445;" horiz-adv-x="297" 
d="M18 0q-3 0 -4 2.5t0 5.5l109 243l-99 224q-2 3 -1 5t4 2h33q5 0 7 -4l47 -112q9 -19 17.5 -41t16.5 -42h1q9 20 17.5 42t16.5 41l46 113q2 3 7 3h33q3 0 4 -2t-1 -5l-100 -222l110 -245q1 -3 0.5 -5.5t-3.5 -2.5h-35q-4 0 -6 4l-55 131q-8 21 -17 43t-18 42h-1
q-8 -20 -16.5 -42.5t-17.5 -42.5l-56 -131q-2 -4 -7 -4h-32z" />
    <glyph glyph-name="uni0446" unicode="&#x446;" horiz-adv-x="340" 
d="M287 -134q-5 0 -5 6v128h-29l27 40h35q6 0 6 -6v-162q0 -6 -5 -6h-29zM132 -6q-41 0 -60 27t-19 92v363q0 6 5 6h31q5 0 5 -6v-361q0 -48 12 -64.5t37 -16.5q30 0 57 23.5t53 59.5l3 -39q-29 -36 -59 -60t-65 -24zM256 0q-4 0 -5 6q-2 23 -3.5 49.5t-1.5 41.5l-2 4v375
q0 6 5 6h31q5 0 5 -6v-361q0 -34 1 -61t2 -47q0 -7 -5 -7h-27z" />
    <glyph glyph-name="uni0447" unicode="&#x447;" horiz-adv-x="322" 
d="M234 0q-6 0 -6 6v208q-24 -28 -50.5 -46.5t-59.5 -18.5q-40 0 -58.5 27t-18.5 86v214q0 6 5 6h31q5 0 5 -6v-209q0 -43 11.5 -60.5t38.5 -17.5t50.5 19t45.5 47v221q0 6 6 6h30q5 0 5 -6v-470q0 -6 -5 -6h-30z" />
    <glyph glyph-name="uni0448" unicode="&#x448;" horiz-adv-x="507" 
d="M128 -6q-38 0 -56.5 27.5t-18.5 78.5v376q0 6 5 6h31q5 0 5 -6v-370q0 -34 11 -53t36 -19q20 0 41.5 16t50.5 54v372q0 6 5 6h31q5 0 5 -6v-370q0 -34 11.5 -53t36.5 -19q18 0 40 16t52 54v372q0 6 5 6h31q5 0 5 -6v-361q0 -34 1 -61t2 -47q0 -7 -5 -7h-27q-4 0 -5 6
q-1 15 -2 31t-2 30q-30 -37 -55.5 -55t-53.5 -18q-31 0 -48.5 18.5t-23.5 54.5q-29 -37 -54 -55t-54 -18z" />
    <glyph glyph-name="uni0449" unicode="&#x449;" horiz-adv-x="513" 
d="M460 -134q-5 0 -5 6v128h-29l27 40h35q6 0 6 -6v-162q0 -6 -5 -6h-29zM128 -6q-38 0 -56.5 27.5t-18.5 78.5v376q0 6 5 6h31q5 0 5 -6v-370q0 -34 11 -53t36 -19q20 0 41.5 16t50.5 54v372q0 6 5 6h31q5 0 5 -6v-370q0 -34 11.5 -53t36.5 -19q18 0 40 16t52 54v372
q0 6 5 6h31q5 0 5 -6v-361q0 -34 1 -61t2 -47q0 -7 -5 -7h-27q-4 0 -5 6q-1 15 -2 31t-2 30q-30 -37 -55.5 -55t-53.5 -18q-31 0 -48.5 18.5t-23.5 54.5q-29 -37 -54 -55t-54 -18z" />
    <glyph glyph-name="uni044A" unicode="&#x44a;" horiz-adv-x="346" 
d="M3 443q-6 0 -6 5v28q0 6 6 6h85v-39h-85zM193 -6q-57 0 -85 34.5t-28 106.5v341q0 6 5 6h31q5 0 5 -6v-342q0 -51 17 -75.5t55 -24.5t55 24.5t17 75.5v86q0 47 -14.5 65t-37.5 18q-26 0 -50.5 -21t-46.5 -48v42q24 26 50.5 46.5t58.5 20.5q37 0 59 -28t22 -95v-85
q0 -72 -27.5 -106.5t-85.5 -34.5z" />
    <glyph glyph-name="uni044B" unicode="&#x44b;" horiz-adv-x="457" 
d="M166 -6q-58 0 -85.5 34.5t-27.5 106.5v341q0 6 5 6h31q5 0 5 -6v-342q0 -51 17 -75.5t55 -24.5t55 24.5t17 75.5v86q0 47 -14.5 65t-38.5 18q-26 0 -50 -21t-46 -48v42q23 26 49.5 46.5t59.5 20.5q36 0 58.5 -28t22.5 -95v-85q0 -72 -27.5 -106.5t-85.5 -34.5zM369 0
q-5 0 -5 6v470q0 6 5 6h31q5 0 5 -6v-470q0 -6 -5 -6h-31z" />
    <glyph glyph-name="uni044C" unicode="&#x44c;" horiz-adv-x="318" 
d="M166 -6q-58 0 -85.5 34.5t-27.5 106.5v341q0 6 5 6h31q5 0 5 -6v-342q0 -51 17 -75.5t55 -24.5t55 24.5t17 75.5v86q0 47 -14.5 65t-38.5 18q-26 0 -50 -21t-46 -48v42q23 26 49.5 46.5t59.5 20.5q36 0 58.5 -28t22.5 -95v-85q0 -72 -27.5 -106.5t-85.5 -34.5z" />
    <glyph glyph-name="uni044D" unicode="&#x44d;" horiz-adv-x="312" 
d="M152 -6q-57 0 -85 33t-27 90q0 7 5 7h30q5 0 5 -7q-1 -40 17 -61.5t54 -21.5q40 0 59 25.5t19 82.5v88h-125q-3 0 -3 6v27q0 6 3 6h125v71q0 57 -17.5 83t-58.5 26q-37 0 -54.5 -20.5t-17.5 -61.5q0 -8 -4 -8h-30q-3 0 -4 1.5t-1 6.5q-2 59 26 90t86 31q39 0 64.5 -15
t38.5 -47t13 -84v-201q0 -77 -29.5 -112t-88.5 -35z" />
    <glyph glyph-name="uni044E" unicode="&#x44e;" horiz-adv-x="448" 
d="M53 399v278q0 6 5 6h31q5 0 5 -6v-278h-41zM286 -6q-58 0 -88.5 37.5t-30.5 112.5v194q0 75 30.5 112.5t88.5 37.5q59 0 89.5 -37.5t30.5 -112.5v-194q0 -75 -30.5 -112.5t-89.5 -37.5zM58 0q-5 0 -5 6v470q0 6 5 6h31q5 0 5 -6v-206h93v-39h-93v-225q0 -6 -5 -6h-31z
M286 34q41 0 60 27.5t19 82.5v194q0 55 -19 83t-60 28q-40 0 -59 -28t-19 -83v-194q0 -55 19 -82.5t59 -27.5z" />
    <glyph glyph-name="uni044F" unicode="&#x44f;" horiz-adv-x="316" 
d="M32 0q-6 0 -3 7l49 124q7 17 14 34.5t14 33.5v1q-31 15 -48 46.5t-17 85.5q0 76 33.5 113t100.5 37h83q5 0 5 -6v-470q0 -6 -5 -6h-31q-5 0 -5 6v184h-78l-72 -186q-2 -4 -6 -4h-34zM157 229h65v214h-48q-48 0 -70 -27t-22 -83q0 -53 19 -78.5t56 -25.5z" />
    <glyph glyph-name="uni0450" unicode="&#x450;" horiz-adv-x="319" 
d="M165 -6q-62 0 -92.5 39t-30.5 120v184q0 79 31 115t88 36q56 0 87 -37.5t31 -112.5v-94q0 -6 -6 -6h-190v-84q0 -61 20 -90.5t62 -29.5q36 0 52.5 22t16.5 65q-1 7 4 7h30q5 0 5 -6q1 -63 -26.5 -95.5t-81.5 -32.5zM83 277h155v60q0 56 -19.5 84t-57.5 28t-58 -28
t-20 -84v-60zM165 559q-5 0 -8 4l-69 119q-3 4 -1.5 6t4.5 2h31q5 0 7 -5l64 -119q2 -3 1 -5t-4 -2h-25z" />
    <glyph glyph-name="uni0451" unicode="&#x451;" horiz-adv-x="319" 
d="M165 -6q-62 0 -92.5 39t-30.5 120v184q0 79 31 115t88 36q56 0 87 -37.5t31 -112.5v-94q0 -6 -6 -6h-190v-84q0 -61 20 -90.5t62 -29.5q36 0 52.5 22t16.5 65q-1 7 4 7h30q5 0 5 -6q1 -63 -26.5 -95.5t-81.5 -32.5zM83 277h155v60q0 56 -19.5 84t-57.5 28t-58 -28
t-20 -84v-60zM113 583q-14 0 -21.5 8t-7.5 21v8q0 13 7.5 20.5t21.5 7.5t21.5 -7.5t7.5 -20.5v-8q0 -13 -7.5 -21t-21.5 -8zM207 583q-13 0 -20.5 8t-7.5 21v8q0 13 7.5 20.5t20.5 7.5q15 0 22 -7.5t7 -20.5v-8q0 -13 -7 -21t-22 -8z" />
    <glyph glyph-name="uni0452" unicode="&#x452;" horiz-adv-x="339" 
d="M227 -177q-4 -3 -7 1l-18 25q-5 5 0 8q32 29 40.5 72.5t8.5 115.5v315q0 46 -13 67.5t-40 21.5q-26 0 -52 -20t-52 -52v-371q0 -6 -5 -6h-32q-4 0 -4 6v565h-45q-6 0 -6 6v26q0 6 6 6h45v68q0 6 5 6h31q5 0 5 -6v-68h75q5 0 5 -6v-26q0 -6 -5 -6h-75v-153q28 32 56.5 51
t60.5 19q40 0 60.5 -29.5t20.5 -94.5v-323q0 -51 -4 -91.5t-18 -71t-43 -55.5z" />
    <glyph glyph-name="uni0453" unicode="&#x453;" horiz-adv-x="291" 
d="M143 -6q-55 0 -82 28t-27 86q0 44 14.5 75t46.5 57l67 51q27 21 37 41t10 51q0 66 -63 66q-34 0 -50 -21t-15 -61q0 -7 -5 -7h-28q-6 0 -6 7q-4 57 24 89t82 32q50 0 76 -26t26 -78q0 -42 -14 -70.5t-48 -54.5l-65 -51q-25 -19 -36.5 -42t-11.5 -57q0 -39 17 -57.5
t52 -18.5q38 0 54.5 22.5t15.5 68.5q0 6 5 6h30q4 0 5 -6q3 -65 -26 -97.5t-85 -32.5zM112 559q-3 0 -4 2t1 5l64 119q2 5 7 5h31q4 0 5 -2t-1 -6l-69 -119q-3 -4 -9 -4h-25z" />
    <glyph glyph-name="uni0454" unicode="&#x454;" horiz-adv-x="312" 
d="M159 -6q-57 0 -87 35t-30 112v201q0 77 29.5 111.5t86.5 34.5q58 0 86 -31t26 -90q0 -5 -1 -6.5t-4 -1.5h-31q-4 0 -4 8q1 41 -16.5 61.5t-55.5 20.5q-39 0 -57 -25t-18 -84v-71h124q4 0 4 -6v-27q0 -6 -4 -6h-124v-88q0 -57 19 -82.5t58 -25.5q36 0 54 21.5t18 61.5
q0 7 4 7h31q4 0 4 -7q1 -57 -27 -90t-85 -33z" />
    <glyph glyph-name="uni0455" unicode="&#x455;" horiz-adv-x="283" 
d="M143 -6q-57 0 -83 36t-22 106q0 6 5 6h32q4 0 4 -5q-2 -55 13 -79.5t52 -24.5q67 0 67 81q0 32 -10 53.5t-34 40.5l-67 54q-32 25 -45.5 53t-13.5 68q0 50 27 77.5t75 27.5q53 0 78.5 -31t21.5 -90q0 -6 -5 -6h-31q-1 0 -3 1t-1 6q2 40 -13 60.5t-48 20.5q-61 0 -61 -66
q0 -30 10.5 -48.5t34.5 -39.5l67 -55q33 -26 45.5 -53t12.5 -72q0 -60 -27.5 -90.5t-80.5 -30.5z" />
    <glyph glyph-name="uni0456" unicode="&#x456;" horiz-adv-x="147" 
d="M58 0q-5 0 -5 6v470q0 6 5 6h31q5 0 5 -6v-470q0 -6 -5 -6h-31zM74 581q-15 0 -23 8t-8 23v7q0 15 8 22.5t23 7.5t22.5 -7.5t7.5 -22.5v-7q0 -15 -7.5 -23t-22.5 -8z" />
    <glyph glyph-name="uni0457" unicode="&#x457;" horiz-adv-x="147" 
d="M58 0q-5 0 -5 6v470q0 6 5 6h31q5 0 5 -6v-470q0 -6 -5 -6h-31zM27 583q-14 0 -21.5 8t-7.5 21v8q0 13 7.5 20.5t21.5 7.5t21.5 -7.5t7.5 -20.5v-8q0 -13 -7.5 -21t-21.5 -8zM121 583q-13 0 -20.5 8t-7.5 21v8q0 13 7.5 20.5t20.5 7.5q15 0 22 -7.5t7 -20.5v-8
q0 -13 -7 -21t-22 -8z" />
    <glyph glyph-name="uni0458" unicode="&#x458;" horiz-adv-x="135" 
d="M23 -185q-2 -1 -3.5 -1t-3.5 2l-19 26q-4 4 0 8q32 30 41 73t9 114v439q0 6 5 6h31q5 0 5 -6v-442q0 -52 -4.5 -92t-18.5 -71t-42 -56zM68 581q-15 0 -23 8t-8 23v7q0 15 8 22.5t23 7.5t22.5 -7.5t7.5 -22.5v-7q0 -15 -7.5 -23t-22.5 -8z" />
    <glyph glyph-name="uni0459" unicode="&#x459;" horiz-adv-x="452" 
d="M309 -6q-33 0 -54 12.5t-34 43.5t-24 87l-40 191q-4 27 -9 54.5t-9 55.5h-1q-4 -26 -8.5 -53.5t-10.5 -56.5l-69 -323q-1 -5 -5 -5h-34q-6 0 -4 8l104 465q2 9 8 9h39q6 0 8 -8l45 -204q36 42 64.5 60.5t56.5 18.5q40 0 60 -31t20 -92v-89q0 -70 -26 -106.5t-77 -36.5z
M309 34q30 0 46 26.5t16 75.5v90q0 83 -52 83q-40 0 -102 -75l21 -98q10 -40 18.5 -62.5t21.5 -31t31 -8.5z" />
    <glyph glyph-name="uni045A" unicode="&#x45a;" horiz-adv-x="511" 
d="M58 0q-5 0 -5 6v470q0 6 5 6h31q5 0 5 -6v-206h157v-39h-157v-225q0 -6 -5 -6h-31zM358 -6q-57 0 -84.5 34.5t-27.5 106.5v341q0 6 5 6h31q5 0 5 -6v-342q0 -51 17 -75.5t54 -24.5q39 0 56 24.5t17 75.5v86q0 47 -14.5 65t-38.5 18q-26 0 -50 -21t-46 -48v42
q23 26 49.5 46.5t59.5 20.5q36 0 58.5 -28t22.5 -95v-85q0 -72 -27.5 -106.5t-86.5 -34.5z" />
    <glyph glyph-name="uni045B" unicode="&#x45b;" horiz-adv-x="345" 
d="M8 571q-6 0 -6 6v26q0 6 6 6h161q5 0 5 -6v-26q0 -6 -5 -6h-116h-45zM256 0q-5 0 -5 6v354q0 46 -13 67.5t-40 21.5t-54.5 -22t-55.5 -57l-2 38q30 37 60 58.5t65 21.5q40 0 60.5 -29.5t20.5 -94.5v-358q0 -6 -5 -6h-31zM57 0q-4 0 -4 6v671q0 6 5 6h31q5 0 5 -6v-671
q0 -6 -5 -6h-32z" />
    <glyph glyph-name="uni045C" unicode="&#x45c;" horiz-adv-x="295" 
d="M291 8q3 -8 -4 -8h-33q-4 0 -7 5l-97 235h-56v-234q0 -6 -5 -6h-31q-5 0 -5 6v671q0 6 5 6h31q5 0 5 -6v-399h56l85 201q1 3 6 3h34q3 0 3.5 -2t-0.5 -5l-93 -212zM142 559q-3 0 -4 2t1 5l64 119q2 5 7 5h31q4 0 5 -2t-1 -6l-69 -119q-3 -4 -9 -4h-25z" />
    <glyph glyph-name="uni045D" unicode="&#x45d;" horiz-adv-x="338" 
d="M132 -6q-41 0 -60 27t-19 92v363q0 6 5 6h31q5 0 5 -6v-361q0 -48 12 -64.5t37 -16.5q30 0 57 23.5t53 59.5l3 -39q-29 -36 -59 -60t-65 -24zM256 0q-4 0 -5 6q-2 23 -3.5 49.5t-1.5 41.5l-2 4v375q0 6 5 6h31q5 0 5 -6v-361q0 -34 1 -61t2 -47q0 -7 -5 -7h-27zM175 559
q-5 0 -8 4l-69 119q-3 4 -1.5 6t4.5 2h31q5 0 7 -5l64 -119q2 -3 1 -5t-4 -2h-25z" />
    <glyph glyph-name="uni045E" unicode="&#x45e;" horiz-adv-x="305" 
d="M93 -185q-6 0 -4 8l44 181l-113 471q-2 7 3 7h34q5 0 6 -6l60 -269q8 -33 15 -68t14 -68h1q7 33 14.5 68t14.5 68l60 269q1 6 6 6h32q3 0 4.5 -2t-0.5 -7l-154 -652q-1 -6 -7 -6h-30zM153 553q-24 0 -41.5 9.5t-28.5 17.5q-3 3 -3 8v24q0 4 2 5t4 -1q14 -12 30 -19t37 -7
t37 7t29 19q3 2 4.5 1t1.5 -5v-24q0 -5 -3 -8q-11 -9 -28.5 -18t-40.5 -9z" />
    <glyph glyph-name="uni045F" unicode="&#x45f;" horiz-adv-x="338" 
d="M132 -134q-5 0 -5 6v144h39v-144q0 -6 -5 -6h-29zM132 -6q-41 0 -60 27t-19 92v363q0 6 5 6h31q5 0 5 -6v-361q0 -48 12 -64.5t37 -16.5q30 0 57 23.5t53 59.5l3 -39q-29 -36 -59 -60t-65 -24zM256 0q-4 0 -5 6q-2 23 -3.5 49.5t-1.5 41.5l-2 4v375q0 6 5 6h31q5 0 5 -6
v-361q0 -34 1 -61t2 -47q0 -7 -5 -7h-27z" />
    <glyph glyph-name="uni0490" unicode="&#x490;" horiz-adv-x="291" 
d="M64 0q-5 0 -5 6v643q0 6 5 6h204q4 0 4 -6v-28q0 -6 -5 -6h-167v-609q0 -6 -5 -6h-31zM231 622v182q0 3 1.5 4.5t3.5 1.5h31q3 0 4 -1.5t1 -4.5v-182h-41z" />
    <glyph glyph-name="uni0491" unicode="&#x491;" horiz-adv-x="251" 
d="M51 -9q-10 0 -19 1.5t-20 7.5q-3 1 -3 6v29q0 3 1.5 4t4.5 -1q14 -7 27 -7q14 0 20 16.5t9 65.5l19 219q7 82 24 120t62 38q17 0 27 6t15 19q4 9 5 22t1 29q0 5 4 5h29q4 0 4 -6q0 -28 -3 -49.5t-10 -34.5q-8 -15 -21.5 -22.5t-38.5 -8.5q-28 0 -40 -26t-17 -91l-19 -220
q-6 -68 -18.5 -95t-42.5 -27z" />
    <glyph glyph-name="uni04C0" unicode="&#x4c0;" horiz-adv-x="158" 
d="M64 0q-5 0 -5 6v643q0 6 5 6h31q5 0 5 -6v-643q0 -6 -5 -6h-31z" />
    <glyph glyph-name="uni04CF" unicode="&#x4cf;" horiz-adv-x="147" 
d="M58 0q-5 0 -5 6v671q0 6 5 6h31q5 0 5 -6v-671q0 -6 -5 -6h-31z" />
    <glyph glyph-name="uni04E2" unicode="&#x4e2;" horiz-adv-x="407" 
d="M64 0q-5 0 -5 6v643q0 6 5 6h31q5 0 5 -6v-317q0 -29 -0.5 -64t-2 -72t-2 -71.5t-1.5 -64.5h2q13 41 28 86.5t30.5 93t31.5 91.5l111 320q2 4 6 4h40q5 0 5 -6v-643q0 -6 -5 -6h-31q-5 0 -5 6l2 304q0 32 0.5 68.5t1.5 74.5t2 74t2 68h-2q-14 -43 -30 -91t-32.5 -97
t-33.5 -97l-107 -306q-1 -4 -6 -4h-40zM136 737q-6 0 -6 6v27q0 6 6 6h134q5 0 5 -6v-27q0 -6 -5 -6h-134z" />
    <glyph glyph-name="uni04E3" unicode="&#x4e3;" horiz-adv-x="338" 
d="M132 -6q-41 0 -60 27t-19 92v363q0 6 5 6h31q5 0 5 -6v-361q0 -48 12 -64.5t37 -16.5q30 0 57 23.5t53 59.5l3 -39q-29 -36 -59 -60t-65 -24zM256 0q-4 0 -5 6q-2 23 -3.5 49.5t-1.5 41.5l-2 4v375q0 6 5 6h31q5 0 5 -6v-361q0 -34 1 -61t2 -47q0 -7 -5 -7h-27zM108 577
q-6 0 -6 6v28q0 5 6 5h121q6 0 6 -5v-28q0 -6 -6 -6h-121z" />
    <glyph glyph-name="uni04EE" unicode="&#x4ee;" horiz-adv-x="333" 
d="M85 0q-3 0 -4.5 1.5t-0.5 5.5l67 218l-132 422q-2 8 4 8h36q5 0 6 -4l76 -259q8 -28 16 -56.5t16 -56.5h1q8 28 16 57t16 57l75 258q1 4 5 4h35q7 0 5 -8l-199 -643q-1 -4 -5 -4h-33zM101 737q-6 0 -6 6v27q0 6 6 6h134q5 0 5 -6v-27q0 -6 -5 -6h-134z" />
    <glyph glyph-name="uni04EF" unicode="&#x4ef;" horiz-adv-x="305" 
d="M93 -185q-6 0 -4 8l44 181l-113 471q-2 7 3 7h34q5 0 6 -6l60 -269q8 -33 15 -68t14 -68h1q7 33 14.5 68t14.5 68l60 269q1 6 6 6h32q3 0 4.5 -2t-0.5 -7l-154 -652q-1 -6 -7 -6h-30zM92 577q-6 0 -6 6v28q0 5 6 5h121q6 0 6 -5v-28q0 -6 -6 -6h-121z" />
    <glyph glyph-name="Wgrave" unicode="&#x1e80;" horiz-adv-x="513" 
d="M135 0q-4 0 -5 5l-114 643q-1 7 3 7h32q5 0 6 -5l79 -456q4 -23 7.5 -48.5t7 -50t6.5 -46.5h1q6 32 11 64t11 64l60 331l-22 130q-1 7 5 7h31q5 0 6 -6l76 -459q5 -33 10.5 -65.5t9.5 -65.5h1q3 23 6.5 47t7 49.5t7.5 51.5l77 453q1 5 5 5h32q6 0 5 -7l-113 -642
q-1 -6 -6 -6h-42q-5 0 -6 6l-49 298q-6 32 -10.5 64t-9.5 64h-1q-5 -32 -11 -63.5t-11 -62.5l-56 -300q-1 -4 -2 -5t-3 -1h-42zM264 723q-6 0 -7 4l-61 104q-3 3 -1.5 5.5t3.5 2.5h33q3 0 4.5 -1.5l3.5 -3.5l55 -105q2 -3 1 -4.5t-4 -1.5h-27z" />
    <glyph glyph-name="wgrave" unicode="&#x1e81;" horiz-adv-x="444" 
d="M122 0q-6 0 -7 7l-92 468q-1 7 3 7h32q5 0 6 -6l55 -291q7 -35 13 -70.5t11 -69.5h2q6 34 12 69l12 70l35 190l-17 94q-1 8 4 8h30q5 0 6 -6l50 -285q7 -35 12 -70.5t10 -69.5h2q6 35 12 71t12 70l54 289q2 7 6 7h31q6 0 5 -8l-92 -468q-1 -6 -7 -6h-42q-6 0 -7 5
l-25 142q-7 37 -13 76.5t-12 84.5h-2q-6 -45 -12.5 -84.5t-13.5 -77.5l-24 -140q-1 -6 -7 -6h-42zM228 559q-5 0 -8 4l-69 119q-3 4 -1.5 6t4.5 2h31q5 0 7 -5l64 -119q2 -3 1 -5t-4 -2h-25z" />
    <glyph glyph-name="Wacute" unicode="&#x1e82;" horiz-adv-x="513" 
d="M135 0q-4 0 -5 5l-114 643q-1 7 3 7h32q5 0 6 -5l79 -456q4 -23 7.5 -48.5t7 -50t6.5 -46.5h1q6 32 11 64t11 64l60 331l-22 130q-1 7 5 7h31q5 0 6 -6l76 -459q5 -33 10.5 -65.5t9.5 -65.5h1q3 23 6.5 47t7 49.5t7.5 51.5l77 453q1 5 5 5h32q6 0 5 -7l-113 -642
q-1 -6 -6 -6h-42q-5 0 -6 6l-49 298q-6 32 -10.5 64t-9.5 64h-1q-5 -32 -11 -63.5t-11 -62.5l-56 -300q-1 -4 -2 -5t-3 -1h-42zM222 723q-3 0 -4 1.5t1 4.5l55 105q4 5 8 5h32q4 0 5 -2.5t-2 -5.5l-61 -104q-1 -4 -8 -4h-26z" />
    <glyph glyph-name="wacute" unicode="&#x1e83;" horiz-adv-x="444" 
d="M122 0q-6 0 -7 7l-92 468q-1 7 3 7h32q5 0 6 -6l55 -291q7 -35 13 -70.5t11 -69.5h2q6 34 12 69l12 70l35 190l-17 94q-1 8 4 8h30q5 0 6 -6l50 -285q7 -35 12 -70.5t10 -69.5h2q6 35 12 71t12 70l54 289q2 7 6 7h31q6 0 5 -8l-92 -468q-1 -6 -7 -6h-42q-6 0 -7 5
l-25 142q-7 37 -13 76.5t-12 84.5h-2q-6 -45 -12.5 -84.5t-13.5 -77.5l-24 -140q-1 -6 -7 -6h-42zM187 559q-3 0 -4 2t1 5l64 119q2 5 7 5h31q4 0 5 -2t-1 -6l-69 -119q-3 -4 -9 -4h-25z" />
    <glyph glyph-name="Wdieresis" unicode="&#x1e84;" horiz-adv-x="513" 
d="M135 0q-4 0 -5 5l-114 643q-1 7 3 7h32q5 0 6 -5l79 -456q4 -23 7.5 -48.5t7 -50t6.5 -46.5h1q6 32 11 64t11 64l60 331l-22 130q-1 7 5 7h31q5 0 6 -6l76 -459q5 -33 10.5 -65.5t9.5 -65.5h1q3 23 6.5 47t7 49.5t7.5 51.5l77 453q1 5 5 5h32q6 0 5 -7l-113 -642
q-1 -6 -6 -6h-42q-5 0 -6 6l-49 298q-6 32 -10.5 64t-9.5 64h-1q-5 -32 -11 -63.5t-11 -62.5l-56 -300q-1 -4 -2 -5t-3 -1h-42zM210 741q-14 0 -21.5 7.5t-7.5 21.5v7q0 14 7.5 21.5t21.5 7.5t21.5 -7.5t7.5 -21.5v-7q0 -14 -7.5 -21.5t-21.5 -7.5zM304 741q-13 0 -20.5 7.5
t-7.5 21.5v7q0 14 7.5 21.5t20.5 7.5q15 0 22 -7.5t7 -21.5v-7q0 -14 -7 -21.5t-22 -7.5z" />
    <glyph glyph-name="wdieresis" unicode="&#x1e85;" horiz-adv-x="444" 
d="M122 0q-6 0 -7 7l-92 468q-1 7 3 7h32q5 0 6 -6l55 -291q7 -35 13 -70.5t11 -69.5h2q6 34 12 69l12 70l35 190l-17 94q-1 8 4 8h30q5 0 6 -6l50 -285q7 -35 12 -70.5t10 -69.5h2q6 35 12 71t12 70l54 289q2 7 6 7h31q6 0 5 -8l-92 -468q-1 -6 -7 -6h-42q-6 0 -7 5
l-25 142q-7 37 -13 76.5t-12 84.5h-2q-6 -45 -12.5 -84.5t-13.5 -77.5l-24 -140q-1 -6 -7 -6h-42zM175 583q-14 0 -21.5 8t-7.5 21v8q0 13 7.5 20.5t21.5 7.5t21.5 -7.5t7.5 -20.5v-8q0 -13 -7.5 -21t-21.5 -8zM269 583q-13 0 -20.5 8t-7.5 21v8q0 13 7.5 20.5t20.5 7.5
q15 0 22 -7.5t7 -20.5v-8q0 -13 -7 -21t-22 -8z" />
    <glyph glyph-name="uni1E9E" unicode="&#x1e9e;" horiz-adv-x="400" 
d="M254 -6q-52 0 -79 34t-25 97q1 6 6 6h30q5 0 5 -6q-1 -45 15 -68t48 -23q39 0 57 38.5t18 118.5q0 82 -25.5 118.5t-81.5 36.5h-22q-5 0 -5 5v17q0 3 0.5 5t1.5 4l83 238h-180v-609q0 -6 -4 -6h-33q-4 0 -4 6v643q0 6 4 6h267q4 0 5 -4.5t-1 -9.5l-93 -259
q66 -2 97.5 -47t31.5 -144q0 -97 -28.5 -147t-87.5 -50z" />
    <glyph glyph-name="Ygrave" unicode="&#x1ef2;" horiz-adv-x="330" 
d="M149 0q-4 0 -4 6v218l-133 423q-2 8 3 8h36q4 0 5 -5l77 -260q8 -28 16.5 -56t15.5 -56h1q8 28 16.5 56t15.5 56l77 261q1 4 5 4h34q6 0 4 -8l-132 -422v-219q0 -6 -4 -6h-33zM173 723q-6 0 -7 4l-61 104q-3 3 -1.5 5.5t3.5 2.5h33q3 0 4.5 -1.5l3.5 -3.5l55 -105
q2 -3 1 -4.5t-4 -1.5h-27z" />
    <glyph glyph-name="ygrave" unicode="&#x1ef3;" horiz-adv-x="305" 
d="M93 -185q-6 0 -4 8l44 181l-113 471q-2 7 3 7h34q5 0 6 -6l60 -269q8 -33 15 -68t14 -68h1q7 33 14.5 68t14.5 68l60 269q1 6 6 6h32q3 0 4.5 -2t-0.5 -7l-154 -652q-1 -6 -7 -6h-30zM158 559q-5 0 -8 4l-69 119q-3 4 -1.5 6t4.5 2h31q5 0 7 -5l64 -119q2 -3 1 -5t-4 -2
h-25z" />
    <glyph glyph-name="uni2007" unicode="&#x2007;" horiz-adv-x="306" 
 />
    <glyph glyph-name="uni2008" unicode="&#x2008;" horiz-adv-x="131" 
 />
    <glyph glyph-name="uni200B" unicode="&#x200b;" horiz-adv-x="2" 
 />
    <glyph glyph-name="endash" unicode="&#x2013;" horiz-adv-x="440" 
d="M49 248q-5 0 -5 6v23q0 6 5 6h342q6 0 6 -6v-23q0 -6 -6 -6h-342z" />
    <glyph glyph-name="emdash" unicode="&#x2014;" horiz-adv-x="523" 
d="M49 248q-5 0 -5 6v23q0 6 5 6h425q6 0 6 -6v-23q0 -6 -6 -6h-425z" />
    <glyph glyph-name="quoteleft" unicode="&#x2018;" horiz-adv-x="135" 
d="M112 655q5 0 4 -7l-44 -218q-1 -6 -6 -6h-36q-3 0 -4.5 2t-0.5 6l56 218q1 5 6 5h25z" />
    <glyph glyph-name="quoteright" unicode="&#x2019;" horiz-adv-x="150" 
d="M28 424q-5 0 -4 7l44 218q1 6 6 6h36q3 0 4.5 -2t0.5 -6l-56 -218q-1 -5 -5 -5h-26z" />
    <glyph glyph-name="quotesinglbase" unicode="&#x201a;" horiz-adv-x="150" 
d="M28 -138q-5 0 -4 7l44 218q1 6 6 6h36q3 0 4.5 -2t0.5 -6l-56 -218q-1 -5 -5 -5h-26z" />
    <glyph glyph-name="quotedblleft" unicode="&#x201c;" horiz-adv-x="247" 
d="M224 655q5 0 4 -7l-44 -218q-1 -6 -6 -6h-36q-3 0 -4.5 2t-0.5 6l56 218q1 5 5 5h26zM112 655q5 0 4 -7l-44 -218q-1 -6 -6 -6h-36q-3 0 -4.5 2t-0.5 6l56 218q1 5 6 5h25z" />
    <glyph glyph-name="quotedblright" unicode="&#x201d;" horiz-adv-x="263" 
d="M28 424q-5 0 -4 7l44 218q1 6 6 6h36q3 0 4.5 -2t0.5 -6l-56 -218q-1 -5 -5 -5h-26zM140 424q-5 0 -4 7l44 218q1 6 6 6h36q3 0 4.5 -2t0.5 -6l-56 -218q-1 -5 -5 -5h-26z" />
    <glyph glyph-name="quotedblbase" unicode="&#x201e;" horiz-adv-x="263" 
d="M28 -138q-5 0 -4 7l44 218q1 6 6 6h36q3 0 4.5 -2t0.5 -6l-56 -218q-1 -5 -5 -5h-26zM140 -138q-5 0 -4 7l44 218q1 6 6 6h36q3 0 4.5 -2t0.5 -6l-56 -218q-1 -5 -5 -5h-26z" />
    <glyph glyph-name="dagger" unicode="&#x2020;" horiz-adv-x="303" 
d="M137 0q-6 0 -6 6v432h-105q-6 0 -6 6v27q0 6 6 6h105v172q0 6 6 6h29q6 0 6 -6v-172h105q6 0 6 -6v-27q0 -6 -6 -6h-105v-432q0 -6 -6 -6h-29z" />
    <glyph glyph-name="daggerdbl" unicode="&#x2021;" horiz-adv-x="303" 
d="M137 0q-6 0 -6 6v169h-105q-6 0 -6 6v27q0 6 6 6h105v227h-105q-6 0 -6 6v27q0 6 6 6h105v169q0 6 6 6h29q6 0 6 -6v-169h105q6 0 6 -6v-27q0 -6 -6 -6h-105v-227h105q6 0 6 -6v-27q0 -6 -6 -6h-105v-169q0 -6 -6 -6h-29z" />
    <glyph glyph-name="bullet" unicode="&#x2022;" horiz-adv-x="185" 
d="M93 210q-20 0 -32 11t-12 33v31q0 22 12 33t32 11t32 -11t12 -33v-31q0 -22 -12 -33t-32 -11z" />
    <glyph glyph-name="ellipsis" unicode="&#x2026;" horiz-adv-x="413" 
d="M339 -6q-15 0 -23 8t-8 23v7q0 15 8 23t23 8t23 -8t8 -23v-7q0 -15 -8 -23t-23 -8zM74 -6q-14 0 -22.5 8t-8.5 23v7q0 15 8.5 23t22.5 8q15 0 23 -8t8 -23v-7q0 -15 -8 -23t-23 -8zM206 -6q-14 0 -22.5 8t-8.5 23v7q0 15 8.5 23t22.5 8q16 0 24 -8t8 -23v-7q0 -15 -8 -23
t-24 -8z" />
    <glyph glyph-name="perthousand" unicode="&#x2030;" horiz-adv-x="811" 
d="M666 -6q-47 0 -71.5 29.5t-24.5 78.5v121q0 49 24.5 78.5t71.5 29.5q48 0 72.5 -29.5t24.5 -78.5v-121q0 -49 -24.5 -78.5t-72.5 -29.5zM666 27q33 0 47.5 19t14.5 56v122q0 37 -14.5 56t-47.5 19q-31 0 -46 -19t-15 -56v-122q0 -37 15 -56t46 -19zM158 0q-6 0 -4 7
l117 329l108 316q1 4 6 4h29q8 0 4 -7l-112 -316l-113 -329q-1 -4 -6 -4h-29zM145 324q-48 0 -72.5 29t-24.5 78v121q0 49 24.5 79t72.5 30q47 0 71.5 -30t24.5 -79v-121q0 -49 -24.5 -78t-71.5 -29zM145 356q62 0 62 75v122q0 37 -15 56t-47 19t-47 -19t-15 -56v-122
q0 -75 62 -75zM429 -6q-47 0 -72 29.5t-25 78.5v121q0 49 25 78.5t72 29.5t71.5 -29.5t24.5 -78.5v-121q0 -49 -24.5 -78.5t-71.5 -29.5zM429 27q32 0 46.5 19t14.5 56v122q0 37 -14.5 56t-46.5 19q-33 0 -47.5 -19t-14.5 -56v-122q0 -37 14.5 -56t47.5 -19z" />
    <glyph glyph-name="guilsinglleft" unicode="&#x2039;" horiz-adv-x="206" 
d="M127 93q-3 0 -5 4l-78 162q-1 3 0 8l79 161q2 4 5 4h31q3 0 4 -1.5t-1 -5.5l-77 -163l77 -161q2 -8 -4 -8h-31z" />
    <glyph glyph-name="guilsinglright" unicode="&#x203a;" horiz-adv-x="206" 
d="M47 93q-6 0 -4 8l77 161l-77 163q-1 4 0 5.5t3 1.5h31q3 0 5 -4l79 -161q1 -5 0 -8l-78 -162q-2 -4 -5 -4h-31z" />
    <glyph glyph-name="fraction" unicode="&#x2044;" horiz-adv-x="88" 
d="M-74 -24q-6 0 -4 8l107 357l101 333q1 5 6 5h26q7 0 5 -6l-106 -344l-102 -348q-2 -5 -7 -5h-26z" />
    <glyph glyph-name="uni2070" unicode="&#x2070;" horiz-adv-x="235" 
d="M118 352q-43 0 -66.5 29.5t-23.5 94.5v175q0 65 23.5 94.5t66.5 29.5q42 0 65.5 -29.5t23.5 -94.5v-175q0 -65 -23.5 -94.5t-65.5 -29.5zM118 388q27 0 40 19t13 67v179q0 49 -13 67.5t-40 18.5t-41 -18.5t-14 -67.5v-179q0 -48 14 -67t41 -19z" />
    <glyph glyph-name="uni2074" unicode="&#x2074;" horiz-adv-x="235" 
d="M155 357q-6 0 -6 6v80h-127q-6 0 -6 6v4q0 3 0.5 5.5t1.5 5.5l102 297q3 7 6 7h26q3 0 4 -2t0 -6l-96 -282h90l1 144q0 6 6 6h20q5 0 5 -6v-144h32q4 0 4 -6v-23q0 -6 -4 -6h-32v-80q0 -6 -6 -6h-21z" />
    <glyph glyph-name="uni2075" unicode="&#x2075;" horiz-adv-x="235" 
d="M113 352q-28 0 -46 12.5t-26.5 37t-8.5 62.5q0 6 6 6h22q6 0 6 -6q0 -38 11 -57t37 -19t40 22.5t14 66.5v11q0 42 -11.5 67t-41.5 25q-16 0 -33 -5.5t-33 -14.5q-9 -4 -9 5l12 197q0 6 6 6h125q6 0 6 -6v-24q0 -6 -6 -6h-99l-8 -127q12 5 24 8t25 3q43 0 60.5 -35
t17.5 -97t-23 -97t-67 -35z" />
    <glyph glyph-name="uni2076" unicode="&#x2076;" horiz-adv-x="235" 
d="M118 352q-45 0 -67 30t-22 90v184q0 61 23.5 90t66.5 29q40 0 59.5 -23t19.5 -68q0 -6 -6 -6h-22q-6 0 -6 6q1 55 -45 55q-27 0 -41 -18t-14 -63v-71q19 13 36 20t35 7q38 0 55 -29.5t17 -93.5q0 -67 -22 -103t-67 -36zM118 388q29 0 41.5 24t12.5 73v10q0 44 -10.5 64
t-34.5 20q-17 0 -32.5 -7.5t-30.5 -18.5v-81q0 -41 13 -62.5t41 -21.5z" />
    <glyph glyph-name="uni2077" unicode="&#x2077;" horiz-adv-x="235" 
d="M68 357q-6 0 -4 8l98 367h-102v-63q0 -6 -6 -6h-21q-6 0 -6 6v93q0 6 6 6h170q6 0 6 -6v-3q0 -2 -0.5 -4t-1.5 -5l-107 -386q-2 -7 -8 -7h-24z" />
    <glyph glyph-name="uni2078" unicode="&#x2078;" horiz-adv-x="235" 
d="M117 352q-45 0 -68 29.5t-23 83.5q0 42 13 71t37 41q-20 12 -30 34.5t-10 55.5q0 52 21 80t60 28q40 0 60.5 -28t20.5 -80q0 -33 -10 -55.5t-30 -34.5q25 -12 38 -41t13 -71q0 -54 -23 -83.5t-69 -29.5zM117 388q29 0 42.5 19t13.5 56v7q0 42 -13.5 65.5t-42.5 23.5
q-28 0 -42.5 -23.5t-14.5 -65.5v-7q0 -37 14.5 -56t42.5 -19zM117 593q24 0 35.5 18t11.5 51v7q0 35 -11 52.5t-36 17.5t-36 -17.5t-11 -52.5v-7q0 -33 12 -51t35 -18z" />
    <glyph glyph-name="uni2079" unicode="&#x2079;" horiz-adv-x="235" 
d="M117 352q-40 0 -60 24t-20 71q0 6 6 6h22q6 0 6 -6q-1 -31 11 -45t35 -14q27 0 40 18.5t13 63.5v68q-17 -14 -33.5 -21t-35.5 -7q-38 0 -55.5 30t-17.5 96q0 68 22 103.5t67 35.5q46 0 67.5 -28.5t21.5 -89.5v-186q0 -61 -23.5 -90t-65.5 -29zM109 546q16 0 31.5 7
t29.5 19v84q0 42 -11.5 62.5t-41.5 20.5q-28 0 -40.5 -24t-12.5 -73v-10q0 -46 11 -66t34 -20z" />
    <glyph glyph-name="uni2080" unicode="&#x2080;" horiz-adv-x="235" 
d="M118 -113q-43 0 -66.5 29.5t-23.5 94.5v175q0 65 23.5 94.5t66.5 29.5q42 0 65.5 -29.5t23.5 -94.5v-175q0 -65 -23.5 -94.5t-65.5 -29.5zM118 -77q27 0 40 19t13 67v179q0 49 -13 67.5t-40 18.5t-41 -18.5t-14 -67.5v-179q0 -48 14 -67t41 -19z" />
    <glyph glyph-name="uni2081" unicode="&#x2081;" horiz-adv-x="235" 
d="M43 -108q-6 0 -6 6v23q0 6 6 6h59v333l-58 -24q-6 -2 -6 4v24q0 6 5 9l79 31q2 1 4 1h3h3q6 0 6 -6v-372h53q6 0 6 -6v-23q0 -6 -6 -6h-148z" />
    <glyph glyph-name="uni2082" unicode="&#x2082;" horiz-adv-x="235" 
d="M40 -108q-6 0 -6 6v26q0 51 13 83.5t32 54.5t38.5 41t32.5 42t13 58v8q0 32 -10 47.5t-33 15.5q-27 0 -38 -19t-10 -58q0 -6 -6 -6h-22q-6 0 -6 6q-3 53 18.5 83t64.5 30q41 0 59.5 -25t18.5 -76q0 -45 -13 -72.5t-31.5 -47t-37.5 -39t-32 -48t-13 -75.5h121q3 0 4.5 -1
t1.5 -5v-23q0 -6 -6 -6h-153z" />
    <glyph glyph-name="uni2083" unicode="&#x2083;" horiz-adv-x="235" 
d="M115 -113q-30 0 -48.5 12.5t-27 37.5t-8.5 62q0 6 6 6h22q6 0 6 -6q0 -39 11 -57.5t39 -18.5q26 0 39.5 20.5t13.5 55.5v12q0 37 -12.5 55.5t-40.5 18.5h-26q-6 0 -6 6v24q0 6 6 6h24q23 0 36.5 20t13.5 56v11q0 32 -11 49t-36 17q-29 0 -39.5 -20t-9.5 -57q0 -6 -6 -6
h-22q-6 0 -6 6q-2 55 18.5 84t65.5 29q41 0 61.5 -26t20.5 -78q0 -39 -12 -63.5t-30 -36.5v-1q24 -10 35.5 -34.5t11.5 -65.5q0 -58 -23 -88t-66 -30z" />
    <glyph glyph-name="uni2084" unicode="&#x2084;" horiz-adv-x="235" 
d="M155 -108q-6 0 -6 6v80h-127q-6 0 -6 6v4q0 3 0.5 5.5t1.5 5.5l102 297q3 7 6 7h26q3 0 4 -2t0 -6l-96 -282h90l1 144q0 6 6 6h20q5 0 5 -6v-144h32q4 0 4 -6v-23q0 -6 -4 -6h-32v-80q0 -6 -6 -6h-21z" />
    <glyph glyph-name="uni2085" unicode="&#x2085;" horiz-adv-x="235" 
d="M113 -113q-28 0 -46 12.5t-26.5 37t-8.5 62.5q0 6 6 6h22q6 0 6 -6q0 -38 11 -57t37 -19t40 22.5t14 66.5v11q0 42 -11.5 67t-41.5 25q-16 0 -33 -5.5t-33 -14.5q-9 -4 -9 5l12 197q0 6 6 6h125q6 0 6 -6v-24q0 -6 -6 -6h-99l-8 -127q12 5 24 8t25 3q43 0 60.5 -35
t17.5 -97t-23 -97t-67 -35z" />
    <glyph glyph-name="uni2086" unicode="&#x2086;" horiz-adv-x="235" 
d="M118 -113q-45 0 -67 30t-22 90v184q0 61 23.5 90t66.5 29q40 0 59.5 -23t19.5 -68q0 -6 -6 -6h-22q-6 0 -6 6q1 55 -45 55q-27 0 -41 -18t-14 -63v-71q19 13 36 20t35 7q38 0 55 -29.5t17 -93.5q0 -67 -22 -103t-67 -36zM118 -77q29 0 41.5 24t12.5 73v10q0 44 -10.5 64
t-34.5 20q-17 0 -32.5 -7.5t-30.5 -18.5v-81q0 -41 13 -62.5t41 -21.5z" />
    <glyph glyph-name="uni2087" unicode="&#x2087;" horiz-adv-x="235" 
d="M68 -108q-6 0 -4 8l98 367h-102v-63q0 -6 -6 -6h-21q-6 0 -6 6v93q0 6 6 6h170q6 0 6 -6v-3q0 -2 -0.5 -4t-1.5 -5l-107 -386q-2 -7 -8 -7h-24z" />
    <glyph glyph-name="uni2088" unicode="&#x2088;" horiz-adv-x="235" 
d="M117 -114q-45 0 -68 29.5t-23 83.5q0 42 13 71t37 41q-20 12 -30 34.5t-10 55.5q0 52 21 80t60 28q40 0 60.5 -28t20.5 -80q0 -33 -10 -55.5t-30 -34.5q25 -12 38 -41t13 -71q0 -54 -23 -83.5t-69 -29.5zM117 -78q29 0 42.5 19t13.5 56v7q0 42 -13.5 65.5t-42.5 23.5
q-28 0 -42.5 -23.5t-14.5 -65.5v-7q0 -37 14.5 -56t42.5 -19zM117 127q24 0 35.5 18t11.5 51v7q0 35 -11 52.5t-36 17.5t-36 -17.5t-11 -52.5v-7q0 -33 12 -51t35 -18z" />
    <glyph glyph-name="uni2089" unicode="&#x2089;" horiz-adv-x="235" 
d="M117 -113q-40 0 -60 24t-20 71q0 6 6 6h22q6 0 6 -6q-1 -31 11 -45t35 -14q27 0 40 18.5t13 63.5v68q-17 -14 -33.5 -21t-35.5 -7q-38 0 -55.5 30t-17.5 96q0 68 22 103.5t67 35.5q46 0 67.5 -28.5t21.5 -89.5v-186q0 -61 -23.5 -90t-65.5 -29zM109 81q16 0 31.5 7
t29.5 19v84q0 42 -11.5 62.5t-41.5 20.5q-28 0 -40.5 -24t-12.5 -73v-10q0 -46 11 -66t34 -20z" />
    <glyph glyph-name="Euro" unicode="&#x20ac;" horiz-adv-x="420" 
d="M237 -6q-64 0 -99.5 46.5t-35.5 147.5v279q0 102 35.5 148t99.5 46q71 0 102.5 -48.5t28.5 -147.5q0 -6 -7 -6h-28q-6 0 -6 6q3 77 -17.5 116.5t-72.5 39.5q-44 0 -69 -35.5t-25 -121.5v-273q0 -86 25 -121.5t69 -35.5q52 0 72.5 39.5t17.5 116.5q0 6 6 6h28q7 0 7 -6
q3 -98 -28.5 -147t-102.5 -49zM57 226q-5 0 -4 6l4 24q1 5 6 5h187q6 0 5 -7l-4 -23q-2 -5 -6 -5h-188zM61 364q-5 0 -4 6l4 24q1 5 6 5h197q7 0 5 -7l-4 -23q-1 -5 -6 -5h-198z" />
    <glyph glyph-name="uni2116" unicode="&#x2116;" horiz-adv-x="598" 
d="M63 0q-4 0 -4 6v643q0 6 4 6h54q5 0 5 -4l77 -270q26 -84 42 -140t26 -92t15.5 -58l9.5 -38h1q0 34 -1 71t-1.5 77.5t-1 85t-0.5 93.5v269q0 6 4 6h32q4 0 4 -6v-643q0 -6 -4 -6h-54q-1 0 -2 1t-2 3l-80 277q-22 74 -37 126.5t-25.5 89.5t-16.5 62t-11 43h-2
q1 -19 1.5 -45t1 -62.5t1 -89t0.5 -125.5v-274q0 -6 -4 -6h-32zM476 329q-38 0 -59 23.5t-21 71.5v142q0 47 21 71t59 24t59 -24t21 -71v-142q0 -48 -21 -71.5t-59 -23.5zM406 225q-5 0 -5 6v23q0 6 5 6h140q5 0 5 -6v-23q0 -6 -5 -6h-140zM476 362q24 0 35.5 14t11.5 46
v146q0 33 -11.5 47t-35.5 14q-23 0 -35 -14t-12 -47v-146q0 -32 12 -46t35 -14z" />
    <glyph glyph-name="trademark" unicode="&#x2122;" horiz-adv-x="498" 
d="M262 350q-5 0 -5 5l4 324q0 5 4 5h30q5 0 6 -5l61 -202l60 201q2 6 5 6h30q5 0 5 -5l3 -324q0 -5 -4 -5h-25q-4 0 -4 5l-1 255l-66 -209q-1 -2 -2.5 -2t-3.5 2l-67 209l-1 -255q0 -5 -5 -5h-24zM110 350q-5 0 -5 6v294h-68q-4 0 -4 6v21q0 6 5 6h169q5 0 5 -6v-21
q0 -6 -4 -6h-68v-294q0 -6 -4 -6h-26z" />
    <glyph glyph-name="estimated" unicode="&#x212e;" horiz-adv-x="965" 
d="M482 -6q-82 0 -151.5 25.5t-121.5 72t-80.5 109.5t-28.5 138t30 139t82.5 111.5t121.5 74t148 26.5q75 0 144 -25t123 -71.5t85 -110.5t31 -142q0 -10 -9 -10h-616v-207q20 -30 60.5 -50.5t89.5 -31t93 -10.5q65 0 130 26t113 62q7 5 12 5h33q6 0 7.5 -3.5t-3.5 -8.5
q-54 -54 -126 -86.5t-167 -32.5zM240 370h485v185q-40 44 -99.5 70.5t-142.5 26.5t-144.5 -26t-98.5 -70v-186z" />
    <glyph glyph-name="uni2153" unicode="&#x2153;" horiz-adv-x="562" 
d="M43 244q-6 0 -6 6v23q0 6 6 6h59v333l-58 -24q-6 -2 -6 4v24q0 6 5 9l79 31q2 1 4 1h3h3q6 0 6 -6v-372h53q6 0 6 -6v-23q0 -6 -6 -6h-148zM164 -24q-6 0 -4 8l107 357l101 333q1 5 6 5h26q7 0 5 -6l-106 -344l-102 -348q-2 -5 -7 -5h-26zM442 -5q-30 0 -48.5 12.5
t-27 37.5t-8.5 62q0 6 6 6h22q6 0 6 -6q0 -39 11 -57.5t39 -18.5q26 0 39.5 20.5t13.5 55.5v12q0 37 -12.5 55.5t-40.5 18.5h-26q-6 0 -6 6v24q0 6 6 6h24q23 0 36.5 20t13.5 56v11q0 32 -11 49t-36 17q-29 0 -39.5 -20t-9.5 -57q0 -6 -6 -6h-22q-6 0 -6 6q-2 55 18.5 84
t65.5 29q41 0 61.5 -26t20.5 -78q0 -39 -12 -63.5t-30 -36.5v-1q24 -10 35.5 -34.5t11.5 -65.5q0 -58 -23 -88t-66 -30z" />
    <glyph glyph-name="uni2154" unicode="&#x2154;" horiz-adv-x="562" 
d="M40 244q-6 0 -6 6v26q0 51 13 83.5t32 54.5t38.5 41t32.5 42t13 58v8q0 32 -10 47.5t-33 15.5q-27 0 -38 -19t-10 -58q0 -6 -6 -6h-22q-6 0 -6 6q-3 53 18.5 83t64.5 30q41 0 59.5 -25t18.5 -76q0 -45 -13 -72.5t-31.5 -47t-37.5 -39t-32 -48t-13 -75.5h121q3 0 4.5 -1
t1.5 -5v-23q0 -6 -6 -6h-153zM164 -24q-6 0 -4 8l107 357l101 333q1 5 6 5h26q7 0 5 -6l-106 -344l-102 -348q-2 -5 -7 -5h-26zM442 -5q-30 0 -48.5 12.5t-27 37.5t-8.5 62q0 6 6 6h22q6 0 6 -6q0 -39 11 -57.5t39 -18.5q26 0 39.5 20.5t13.5 55.5v12q0 37 -12.5 55.5
t-40.5 18.5h-26q-6 0 -6 6v24q0 6 6 6h24q23 0 36.5 20t13.5 56v11q0 32 -11 49t-36 17q-29 0 -39.5 -20t-9.5 -57q0 -6 -6 -6h-22q-6 0 -6 6q-2 55 18.5 84t65.5 29q41 0 61.5 -26t20.5 -78q0 -39 -12 -63.5t-30 -36.5v-1q24 -10 35.5 -34.5t11.5 -65.5q0 -58 -23 -88
t-66 -30z" />
    <glyph glyph-name="arrowleft" unicode="&#x2190;" horiz-adv-x="817" 
d="M741 315q0 -5 -6 -5h-587l157 -158q5 -4 1 -8l-22 -19q-3 -3 -7 0l-195 200q-3 4 0 8l195 200q4 4 7 0l22 -19q4 -3 -1 -7l-157 -158h587q6 0 6 -5v-29z" />
    <glyph glyph-name="arrowup" unicode="&#x2191;" horiz-adv-x="817" 
d="M394 0q-5 0 -5 6v588l-158 -158q-4 -4 -7 -1l-19 22q-4 4 0 7l200 195q4 3 7 0l200 -195q4 -3 0 -7l-18 -22q-3 -3 -8 1l-158 158v-588q0 -6 -5 -6h-29z" />
    <glyph glyph-name="arrowright" unicode="&#x2192;" horiz-adv-x="817" 
d="M76 344q0 5 6 5h588l-157 158q-4 5 -1 8l21 19q4 3 7 0l195 -201q3 -4 0 -7l-195 -200q-3 -4 -7 0l-21 19q-3 3 1 7l157 158h-588q-6 0 -6 5v29z" />
    <glyph glyph-name="arrowdown" unicode="&#x2193;" horiz-adv-x="817" 
d="M394 655h29q5 0 5 -6v-588l158 158q5 4 8 1l18 -22q4 -4 0 -7l-200 -195q-3 -3 -7 0l-200 195q-4 3 0 7l19 22q3 3 7 -1l158 -158v588q0 6 5 6z" />
    <glyph glyph-name="arrowboth" unicode="&#x2194;" horiz-adv-x="1132" 
d="M345 403q0 5 6 5h588l-157 158q-4 5 -1 8l21 19q4 3 7 0l195 -201q3 -4 0 -7l-195 -200q-3 -4 -7 0l-21 19q-3 3 1 7l157 158h-588q-6 0 -6 5v29zM786 403v-29q0 -5 -6 -5h-588l158 -158q4 -4 1 -7l-22 -19q-3 -4 -7 0l-195 200q-3 3 0 7l195 201q4 3 7 0l22 -19
q3 -3 -1 -8l-158 -158h588q6 0 6 -5z" />
    <glyph glyph-name="arrowupdown" unicode="&#x2195;" horiz-adv-x="817" 
d="M394 169q-5 0 -5 6v588l-158 -158q-4 -4 -8 -1l-19 22q-3 4 0 7l200 195q4 3 8 0l200 -195q4 -3 0 -7l-19 -22q-3 -3 -7 1l-158 158v-588q0 -6 -5 -6h-29zM394 609h29q5 0 5 -6v-587l158 157q5 5 8 1l18 -22q4 -3 0 -7l-200 -195q-3 -3 -7 0l-200 195q-4 4 0 7l19 22
q3 4 7 -1l158 -157v587q0 6 5 6z" />
    <glyph glyph-name="uni2196" unicode="&#x2196;" horiz-adv-x="817" 
d="M635 87q-3 -3 -7 1l-416 416v-224q0 -6 -5 -6l-29 2q-5 0 -5 5l3 280q1 5 6 6l279 3q6 1 5 -5l2 -29q0 -5 -6 -5h-222l415 -415q4 -5 1 -8z" />
    <glyph glyph-name="uni2197" unicode="&#x2197;" horiz-adv-x="817" 
d="M162 108q-3 4 1 8l416 416h-224q-6 0 -6 5l2 29q0 5 5 5l280 -4q5 -1 5 -6l4 -279q0 -6 -5 -5l-29 -2q-5 0 -5 6v223l-415 -416q-5 -4 -8 0z" />
    <glyph glyph-name="uni2198" unicode="&#x2198;" horiz-adv-x="817" 
d="M183 572q3 4 7 -1l416 -415v223q0 6 5 6l29 -2q5 0 5 -5l-4 -280q-1 -5 -5 -5l-280 -4q-5 0 -5 5l-2 29q0 5 6 5h223l-415 416q-4 4 -1 8z" />
    <glyph glyph-name="uni2199" unicode="&#x2199;" horiz-adv-x="817" 
d="M654 556q4 -4 -1 -8l-415 -416h223q6 0 6 -5l-2 -29q0 -5 -5 -5l-280 4q-5 1 -5 5l-4 280q0 6 5 5l29 2q5 0 5 -6v-223l416 416q4 4 8 0z" />
    </font>
</defs>
</svg>
