<?xml version="1.0" standalone="no"?>
<!DOCTYPE svg PUBLIC "-//W3C//DTD SVG 1.1//EN" "http://www.w3.org/Graphics/SVG/1.1/DTD/svg11.dtd" >
<svg xmlns="http://www.w3.org/2000/svg" xmlns:xlink="http://www.w3.org/1999/xlink" version="1.1">
<metadata>
Created by FontForge 20201107 at Thu Nov 12 20:55:45 2020
 By 
Copyright 2016 Production Systems SAS - Design Yoann Minet. Original art direction with Emmanuel Labard - All rights reserved - End-User License Agreement:  http://www.productiontype.com/license |DCNT
</metadata>
<defs>
<font id="Stratos-Light" horiz-adv-x="1126" >
  <font-face 
    font-family="Stratos Light"
    font-weight="300"
    font-stretch="normal"
    units-per-em="2048"
    panose-1="2 0 0 0 0 0 0 0 0 0"
    ascent="1516"
    descent="-532"
    x-height="1024"
    cap-height="1536"
    bbox="-483 -752 2544 2396"
    underline-thickness="88"
    underline-position="-384"
    unicode-range="U+0020-FB02"
  />
<missing-glyph horiz-adv-x="1044" 
d="M20 0v1536h1004v-1536h-1004zM184 1427l338 -559l338 559h-676zM125 209l338 559l-338 557v-1116zM922 209v1116l-338 -557zM184 113h676l-338 555z" />
    <glyph glyph-name="fi" unicode="fi" horiz-adv-x="1179" 
d="M365 1188v-164h647v-1024h-123v915h-524v-915h-123v915h-201v109h201v170q0 179 85.5 270.5t237.5 91.5q95 0 156 -20v-115q-55 23 -146 23q-210 0 -210 -256zM950 1286q-43 0 -71.5 28.5t-28.5 71.5t28.5 72t71.5 29q44 0 72.5 -29t28.5 -72t-28.5 -71.5t-72.5 -28.5z
" />
    <glyph glyph-name="fl" unicode="fl" horiz-adv-x="1179" 
d="M365 1188v-164h327v-109h-327v-915h-123v915h-201v109h201v170q0 178 91 270t249 92q90 0 155 -24v-115q-58 27 -145 27q-227 0 -227 -256zM1012 0h-123v1536h123v-1536z" />
    <glyph glyph-name="f_b" unicode="fb" horiz-adv-x="1980" 
d="M365 1188v-164h352v-109h-352v-915h-123v915h-201v109h201v170q0 178 91 270t249 92q90 0 155 -24v-115q-58 27 -145 27q-227 0 -227 -256zM1896 512q0 -233 -139 -382.5t-350 -149.5q-127 0 -230 62.5t-165 172.5v-215h-123v1536h123v-727q62 110 165 172.5t230 62.5
q211 0 350 -149.5t139 -382.5zM1393 932q-165 0 -273 -116.5t-108 -303.5t108 -303.5t273 -116.5t273 116.5t108 303.5t-108 303.5t-273 116.5z" />
    <glyph glyph-name="f_f_b" unicode="ffb" horiz-adv-x="2627" 
d="M889 0v915h-524v-915h-123v915h-201v109h201v170q0 178 91 270t249 92q90 0 155 -24v-115q-58 27 -145 27q-227 0 -227 -256v-164h524v170q0 178 91 270t249 92q90 0 155 -24v-115q-58 27 -145 27q-227 0 -227 -256v-164h352v-109h-352v-915h-123zM2544 512
q0 -233 -139.5 -382.5t-350.5 -149.5q-127 0 -230 62.5t-165 172.5v-215h-123v1536h123v-727q62 110 165 172.5t230 62.5q211 0 350.5 -149.5t139.5 -382.5zM2040 932q-165 0 -273 -116.5t-108 -303.5t108 -303.5t273 -116.5t273 116.5t108 303.5t-108 303.5t-273 116.5z
" />
    <glyph glyph-name="f_f" unicode="ff" horiz-adv-x="1425" 
d="M889 0v915h-524v-915h-123v915h-201v109h201v170q0 178 91 270t249 92q90 0 155 -24v-115q-58 27 -145 27q-227 0 -227 -256v-164h524v170q0 178 91 270t249 92q90 0 155 -24v-115q-58 27 -145 27q-227 0 -227 -256v-164h352v-109h-352v-915h-123z" />
    <glyph glyph-name="f_h" unicode="fh" horiz-adv-x="1918" 
d="M365 1188v-164h352v-109h-352v-915h-123v915h-201v109h201v170q0 178 91 270t249 92q90 0 155 -24v-115q-58 27 -145 27q-227 0 -227 -256zM1012 549v-549h-123v1536h123v-713q46 110 136 165.5t210 55.5q183 0 293 -116.5t110 -352.5v-575h-123v549q0 193 -82 290
t-231 97t-231 -97t-82 -290z" />
    <glyph glyph-name="f_f_h" unicode="ffh" horiz-adv-x="2566" 
d="M889 0v915h-524v-915h-123v915h-201v109h201v170q0 178 91 270t249 92q90 0 155 -24v-115q-58 27 -145 27q-227 0 -227 -256v-164h524v170q0 178 91 270t249 92q90 0 155 -24v-115q-58 27 -145 27q-227 0 -227 -256v-164h352v-109h-352v-915h-123zM1659 549v-549h-123
v1536h123v-713q46 110 136 165.5t210 55.5q183 0 293 -116.5t110 -352.5v-575h-122v549q0 193 -82.5 290t-231.5 97t-231 -97t-82 -290z" />
    <glyph glyph-name="f_f_i" unicode="ffi" horiz-adv-x="1826" 
d="M889 0v915h-524v-915h-123v915h-201v109h201v170q0 178 91 270t249 92q90 0 155 -24v-115q-58 27 -145 27q-227 0 -227 -256v-164h524v170q0 179 85.5 270.5t237.5 91.5q95 0 156 -20v-115q-55 23 -145 23q-211 0 -211 -256v-164h647v-1024h-123v915h-524v-915h-123z
M1597 1286q-43 0 -71.5 28.5t-28.5 71.5t28.5 72t71.5 29q44 0 72.5 -29t28.5 -72t-28.5 -71.5t-72.5 -28.5z" />
    <glyph glyph-name="f_j" unicode="fj" horiz-adv-x="1179" 
d="M365 1188v-164h647v-1266q0 -270 -256 -270q-62 0 -92 10v111q33 -8 77 -8q72 0 110 35t38 126v1153h-524v-915h-123v915h-201v109h201v170q0 178 91 270t249 92q90 0 155 -24v-115q-58 27 -145 27q-227 0 -227 -256zM950 1286q-43 0 -71.5 28.5t-28.5 71.5t28.5 72
t71.5 29q44 0 72.5 -29t28.5 -72t-28.5 -71.5t-72.5 -28.5z" />
    <glyph glyph-name="f_f_j" unicode="ffj" horiz-adv-x="1826" 
d="M1012 1188v-164h647v-1266q0 -270 -256 -270q-62 0 -92 10v111q33 -8 78 -8q72 0 109.5 35t37.5 126v1153h-524v-915h-123v915h-524v-915h-123v915h-201v109h201v170q0 178 91 270t249 92q90 0 155 -24v-115q-58 27 -145 27q-227 0 -227 -256v-164h524v170
q0 179 85.5 270.5t237.5 91.5q95 0 156 -20v-115q-55 23 -145 23q-211 0 -211 -256zM1597 1286q-43 0 -71.5 28.5t-28.5 71.5t28.5 72t71.5 29q44 0 72.5 -29t28.5 -72t-28.5 -71.5t-72.5 -28.5z" />
    <glyph glyph-name="f_k" unicode="fk" horiz-adv-x="1796" 
d="M365 1188v-164h352v-109h-352v-915h-123v915h-201v109h201v170q0 178 91 270t249 92q90 0 155 -24v-115q-58 27 -145 27q-227 0 -227 -256zM1608 0l-422 512l-174 -176v-336h-123v1536h123v-1059l540 547h164l-428 -434l484 -590h-164z" />
    <glyph glyph-name="f_f_k" unicode="ffk" horiz-adv-x="2443" 
d="M889 0v915h-524v-915h-123v915h-201v109h201v170q0 178 91 270t249 92q90 0 155 -24v-115q-58 27 -145 27q-227 0 -227 -256v-164h524v170q0 178 91 270t249 92q90 0 155 -24v-115q-58 27 -145 27q-227 0 -227 -256v-164h352v-109h-352v-915h-123zM2255 0l-422 512
l-174 -176v-336h-123v1536h123v-1059l541 547h163l-428 -434l484 -590h-164z" />
    <glyph glyph-name="f_f_l" unicode="ffl" horiz-adv-x="1826" 
d="M889 0v915h-524v-915h-123v915h-201v109h201v170q0 178 91 270t249 92q90 0 155 -24v-115q-58 27 -145 27q-227 0 -227 -256v-164h524v170q0 178 91 270t249 92q90 0 155 -24v-115q-58 27 -145 27q-227 0 -227 -256v-164h327v-109h-327v-915h-123zM1659 0h-123v1536h123
v-1536z" />
    <glyph glyph-name="f_t" unicode="ft" horiz-adv-x="1470" 
d="M365 1188v-164h524v287h123v-287h352v-109h-352v-565q0 -132 54 -195t163 -63q72 0 135 23v-113q-77 -22 -154 -22q-74 0 -130 17.5t-100.5 58t-67.5 113t-23 175.5v571h-524v-915h-123v915h-201v109h201v170q0 178 91 270t249 92q90 0 155 -24v-115q-58 27 -145 27
q-227 0 -227 -256z" />
    <glyph glyph-name="f_f_t" unicode="fft" horiz-adv-x="2117" 
d="M1012 1188v-164h524v287h123v-287h352v-109h-352v-565q0 -132 54 -195t163 -63q72 0 135 23v-113q-77 -22 -153 -22q-74 0 -130 17.5t-100.5 58t-68 113t-23.5 175.5v571h-524v-915h-123v915h-524v-915h-123v915h-201v109h201v170q0 178 91 270t249 92q90 0 155 -24v-115
q-58 27 -145 27q-227 0 -227 -256v-164h524v170q0 178 91 270t249 92q90 0 155 -24v-115q-58 27 -145 27q-227 0 -227 -256z" />
    <glyph glyph-name=".notdef" horiz-adv-x="1044" 
d="M20 0v1536h1004v-1536h-1004zM184 1427l338 -559l338 559h-676zM125 209l338 559l-338 557v-1116zM922 209v1116l-338 -557zM184 113h676l-338 555z" />
    <glyph glyph-name=".null" horiz-adv-x="0" 
 />
    <glyph glyph-name="nonmarkingreturn" horiz-adv-x="682" 
 />
    <glyph glyph-name="space" unicode=" " horiz-adv-x="471" 
 />
    <glyph glyph-name="space" unicode="&#xa0;" horiz-adv-x="471" 
 />
    <glyph glyph-name="exclam" unicode="!" horiz-adv-x="466" 
d="M289 512h-111l-12 1024h135zM231 -20q-39 0 -67.5 28.5t-28.5 67.5q0 40 28 68t68 28q42 0 70.5 -28t28.5 -68q0 -39 -28.5 -67.5t-70.5 -28.5z" />
    <glyph glyph-name="quotedbl" unicode="&#x22;" horiz-adv-x="720" 
d="M158 1024l-15 512h119l-14 -512h-90zM473 1024l-14 512h119l-15 -512h-90z" />
    <glyph glyph-name="numbersign" unicode="#" 
d="M547 0l112 446h-352l-112 -446h-101l113 446h-207v89h229l117 464h-225v88h248l112 449h101l-113 -449h352l113 449h100l-112 -449h204v-88h-227l-117 -464h224v-89h-246l-113 -446h-100zM330 535h352l117 464h-353z" />
    <glyph glyph-name="dollar" unicode="$" 
d="M967 371q0 -177 -100.5 -277.5t-260.5 -111.5v-238h-82v238q-160 12 -262 119.5t-102 287.5v98h123v-84q0 -135 65 -216t176 -93v647l-59 39q-62 39 -107.5 77.5t-86 89t-62 114.5t-21.5 139q0 165 93 254.5t243 99.5v238h82v-238q152 -14 243 -120.5t91 -294.5v-78h-123
v72q0 280 -211 309v-606l94 -62q60 -39 103.5 -76t83 -86t60 -109.5t20.5 -131.5zM311 1200q0 -70 31 -129t73 -97t109 -83v551q-98 -9 -155.5 -72.5t-57.5 -169.5zM618 680l-12 8v-594q111 12 174.5 80t63.5 180q0 106 -59 181.5t-167 144.5z" />
    <glyph glyph-name="percent" unicode="%" horiz-adv-x="1650" 
d="M367 727q-137 0 -220.5 103.5t-83.5 306.5t83.5 307t220.5 104t220 -104t83 -307t-83 -306.5t-220 -103.5zM250 0l1065 1536h86l-1065 -1536h-86zM367 819q93 0 146.5 79t53.5 239q0 159 -53.5 240t-146.5 81t-147 -81t-54 -240q0 -160 54 -239t147 -79zM1284 -12
q-137 0 -220 103t-83 306t83 307.5t220 104.5t220 -104.5t83 -307.5t-83 -306t-220 -103zM1284 80q93 0 147 78.5t54 238.5q0 159 -54 240.5t-147 81.5t-147 -81.5t-54 -240.5q0 -160 54 -238.5t147 -78.5z" />
    <glyph glyph-name="ampersand" unicode="&#x26;" horiz-adv-x="1187" 
d="M862 0v197q-85 -217 -340 -217q-191 0 -299 106.5t-108 308.5v58q0 135 70.5 224t193.5 126q-104 38 -163.5 120.5t-59.5 206.5v46q0 185 104.5 282.5t282.5 97.5q177 0 282 -98t105 -282v-80h-123v71q0 138 -68.5 207.5t-195.5 69.5q-126 0 -195 -69.5t-69 -207.5v-37
q0 -142 77.5 -208t212.5 -66h586v-113h-184v-743h-109zM543 90q305 0 305 348v305h-291q-149 0 -234 -71.5t-85 -225.5v-45q0 -311 305 -311z" />
    <glyph glyph-name="quotesingle" unicode="'" horiz-adv-x="405" 
d="M158 1024l-15 512h119l-14 -512h-90z" />
    <glyph glyph-name="parenleft" unicode="(" horiz-adv-x="696" 
d="M221 584q0 539 332 952h109q-324 -404 -324 -952q0 -549 324 -953h-109q-332 413 -332 953z" />
    <glyph glyph-name="parenright" unicode=")" horiz-adv-x="696" 
d="M475 584q0 -540 -332 -953h-108q323 403 323 953q0 549 -323 952h108q332 -413 332 -952z" />
    <glyph glyph-name="asterisk" unicode="*" horiz-adv-x="796" 
d="M532 934l-137 221l-135 -221l-94 67l164 199l-252 62l37 110l237 -102l-16 266h117l-15 -266l244 102l37 -110l-258 -62l166 -196z" />
    <glyph glyph-name="plus" unicode="+" 
d="M973 578h-363v-381h-94v381h-362v86h362v380h94v-380h363v-86z" />
    <glyph glyph-name="comma" unicode="," horiz-adv-x="366" 
d="M289 63q0 -108 -117 -290h-78q78 144 94 207h-4q-44 0 -73 29t-29 71q0 43 29 71.5t73 28.5q46 0 75.5 -31.5t29.5 -85.5z" />
    <glyph glyph-name="hyphen" unicode="-" horiz-adv-x="716" 
d="M590 506h-463v115h463v-115z" />
    <glyph glyph-name="hyphen" unicode="&#xad;" horiz-adv-x="716" 
d="M590 506h-463v115h463v-115z" />
    <glyph glyph-name="period" unicode="." horiz-adv-x="366" 
d="M182 -20q-42 0 -71 29t-29 71q0 43 28.5 71.5t71.5 28.5q45 0 74 -28.5t29 -71.5q0 -42 -29 -71t-74 -29z" />
    <glyph glyph-name="slash" unicode="/" horiz-adv-x="737" 
d="M160 0h-94l512 1536h94z" />
    <glyph glyph-name="zero" unicode="0" 
d="M563 -20q-198 0 -307 123t-109 364v602q0 241 109 364t307 123t307 -123t109 -364v-602q0 -241 -109 -364t-307 -123zM563 92q141 0 217 92.5t76 282.5v602q0 375 -293 375q-141 0 -217 -92.5t-76 -282.5v-602q0 -375 293 -375z" />
    <glyph glyph-name="one" unicode="1" 
d="M545 1380v156h123v-1536h-123v1124h-305v105h149q84 0 120 35t36 116z" />
    <glyph glyph-name="two" unicode="2" 
d="M946 1151q0 -89 -34.5 -172.5t-90.5 -151.5t-124 -134t-137 -131.5t-127 -132t-97.5 -148.5t-44.5 -168h676v-113h-807v70q0 104 36.5 200t95 171t129.5 145.5t141.5 136t129 130.5t95 141.5t36.5 156.5q0 147 -73.5 220t-188.5 73q-266 0 -266 -326v-110h-123v118
q0 214 108 322t281 108q167 0 276 -106.5t109 -298.5z" />
    <glyph glyph-name="three" unicode="3" 
d="M999 381q0 -188 -118 -294.5t-299 -106.5q-184 0 -305 109.5t-121 303.5v66h123v-51q0 -153 81.5 -234.5t221.5 -81.5q138 0 216.5 77.5t78.5 225.5v33q0 154 -77.5 230.5t-215.5 76.5h-99v119h99q118 0 185 72.5t67 208.5v41q0 131 -70.5 199.5t-183.5 68.5
q-116 0 -189.5 -65.5t-73.5 -190.5v-45h-122v57q0 167 109 261.5t276 94.5q163 0 269.5 -96.5t106.5 -271.5v-58q0 -119 -55 -202t-151 -121q116 -39 181.5 -131.5t65.5 -229.5v-65z" />
    <glyph glyph-name="four" unicode="4" 
d="M102 471l496 1065h193v-1065h221v-113h-221v-358h-123v358h-566v113zM209 471h459v989z" />
    <glyph glyph-name="five" unicode="5" 
d="M565 936q-116 0 -184 -64.5t-74 -164.5h-119v829h742v-113h-623v-540q39 75 113 118t172 43q180 0 273 -111.5t93 -326.5v-180q0 -213 -111 -329.5t-282 -116.5q-173 0 -285 113t-112 317v49h123v-33q0 -162 72.5 -248t201.5 -86q125 0 198 84.5t73 249.5v168
q0 342 -271 342z" />
    <glyph glyph-name="six" unicode="6" 
d="M979 440q0 -223 -112.5 -341.5t-303.5 -118.5t-303.5 123.5t-112.5 355.5v618q0 232 112.5 355.5t303.5 123.5q187 0 297.5 -117t110.5 -337v-23h-123v15q0 176 -74 263t-211 87q-139 0 -216 -93t-77 -282v-330q49 102 133 150.5t187 48.5q176 0 282.5 -118t106.5 -339
v-41zM270 473v-29q0 -177 76.5 -264.5t216.5 -87.5t216.5 88t76.5 264v29q0 181 -72.5 266.5t-220.5 85.5q-140 0 -216.5 -87.5t-76.5 -264.5z" />
    <glyph glyph-name="seven" unicode="7" 
d="M565 88v-88h-123v70q0 118 6.5 222t22.5 199.5t33 173t48 163t56 147t70 148.5t76.5 144.5t87.5 155.5h-662v113h766v-152q-63 -112 -98 -175.5t-82.5 -159t-72 -163.5t-53.5 -163.5t-42.5 -186t-23 -204.5t-9.5 -244z" />
    <glyph glyph-name="eight" unicode="8" 
d="M1004 393q0 -194 -125 -303.5t-316 -109.5t-315.5 109.5t-124.5 303.5v66q0 140 70 234.5t192 135.5q-97 40 -153 120t-56 194v57q0 168 109.5 262t277.5 94t277.5 -94t109.5 -262v-57q0 -114 -56 -194t-153 -120q122 -41 192.5 -135.5t70.5 -234.5v-66zM299 1188v-37
q0 -128 71.5 -197t192.5 -69q123 0 193.5 68.5t70.5 197.5v37q0 126 -73 191t-191 65q-116 0 -190 -65.5t-74 -190.5zM246 453v-45q0 -153 85.5 -234.5t231.5 -81.5q149 0 233.5 81t84.5 235v45q0 159 -83.5 238t-234.5 79q-148 0 -232.5 -79.5t-84.5 -237.5z" />
    <glyph glyph-name="nine" unicode="9" 
d="M979 459q0 -232 -112.5 -355.5t-303.5 -123.5q-187 0 -297 117t-110 337v23h123v-15q0 -176 73.5 -263t210.5 -87q139 0 216 93t77 282v330q-49 -102 -132.5 -150.5t-186.5 -48.5q-176 0 -283 118t-107 339v41q0 223 112.5 341.5t303.5 118.5t303.5 -123.5t112.5 -355.5
v-618zM856 1063v29q0 177 -76.5 264.5t-216.5 87.5t-216.5 -88t-76.5 -264v-29q0 -181 72.5 -266.5t220.5 -85.5q140 0 216.5 87.5t76.5 264.5z" />
    <glyph glyph-name="colon" unicode=":" horiz-adv-x="366" 
d="M182 844q-42 0 -71 29t-29 71q0 43 28.5 71.5t71.5 28.5q45 0 74 -28.5t29 -71.5q0 -42 -29 -71t-74 -29zM182 -20q-42 0 -71 29t-29 71q0 43 28.5 71.5t71.5 28.5q45 0 74 -28.5t29 -71.5q0 -42 -29 -71t-74 -29z" />
    <glyph glyph-name="semicolon" unicode=";" horiz-adv-x="366" 
d="M182 844q-42 0 -71 29t-29 71q0 43 28.5 71.5t71.5 28.5q45 0 74 -28.5t29 -71.5q0 -42 -29 -71t-74 -29zM289 63q0 -108 -117 -290h-78q78 144 94 207h-4q-44 0 -73 29t-29 71q0 43 29 71.5t73 28.5q46 0 75.5 -31.5t29.5 -85.5z" />
    <glyph glyph-name="less" unicode="&#x3c;" 
d="M973 272v-100l-819 399v99l819 399v-100l-713 -348z" />
    <glyph glyph-name="equal" unicode="=" 
d="M154 782v86h819v-86h-819zM154 373v88h819v-88h-819z" />
    <glyph glyph-name="greater" unicode="&#x3e;" 
d="M973 571l-819 -399v100l712 349l-712 348v100l819 -399v-99z" />
    <glyph glyph-name="question" unicode="?" horiz-adv-x="1017" 
d="M942 1174q0 -66 -20 -122t-52.5 -95t-72 -74.5t-79 -69.5t-72 -71t-53.5 -88t-22 -111v-31h-112v43q0 66 20 121.5t51.5 95.5t70 76.5t77 70t70 69t51.5 82.5t20 101q0 130 -80 201.5t-223 71.5q-138 0 -226.5 -82t-88.5 -250v-39h-125v55q0 105 35 188t96 134.5
t139.5 78.5t169.5 27q200 0 313 -101t113 -281zM514 -20q-39 0 -67.5 28.5t-28.5 67.5q0 40 28 68t68 28q42 0 70 -28t28 -68q0 -39 -28 -67.5t-70 -28.5z" />
    <glyph glyph-name="at" unicode="@" horiz-adv-x="1763" 
d="M1239 -238q-172 -90 -369 -90q-173 0 -320.5 61t-250 166.5t-160 251t-57.5 310.5q0 166 57.5 311t160 250.5t250 166t320.5 60.5q176 0 329 -62t257.5 -167t164.5 -246t60 -297q0 -246 -88.5 -371.5t-226.5 -125.5q-92 0 -149 48t-78 136q-53 -91 -145 -137.5
t-197 -46.5q-140 0 -232 66.5t-92 189.5q0 64 22.5 110t60 72t86.5 43t103.5 25t108.5 14t103 14.5t86.5 23t60 43t22.5 70.5q0 94 -71 145.5t-183 51.5q-117 0 -189.5 -60t-72.5 -170h-110q0 84 30.5 148t83.5 101t117.5 55t138.5 18q73 0 136.5 -17t116 -51.5t82.5 -94.5
t30 -138v-379q0 -106 36 -160.5t103 -54.5q107 0 171.5 110.5t64.5 321.5q0 142 -54 271t-149.5 225.5t-235 153.5t-301.5 57q-211 0 -375 -95t-252.5 -259.5t-88.5 -368.5t88.5 -368.5t252.5 -259.5t375 -95q185 0 338 84zM584 242q0 -81 60 -122.5t165 -41.5q83 0 154 33
t117 103.5t46 164.5v113q-42 -29 -116.5 -45t-144.5 -23.5t-135.5 -22t-105.5 -53.5t-40 -106z" />
    <glyph glyph-name="A" unicode="A" horiz-adv-x="1044" 
d="M33 0l395 1536h188l396 -1536h-125l-109 434h-512l-108 -434h-125zM295 547h455l-228 907z" />
    <glyph glyph-name="B" unicode="B" 
d="M168 0v1536h387q194 0 309 -97t115 -276v-20q0 -128 -62.5 -210.5t-171.5 -119.5q128 -35 201.5 -127.5t73.5 -236.5v-41q0 -194 -115.5 -301t-308.5 -107h-428zM535 1423h-244v-567h256q145 0 227 68t82 211v20q0 133 -82.5 200.5t-238.5 67.5zM575 743h-284v-630h284
q157 0 239.5 76.5t82.5 232.5v20q0 301 -322 301z" />
    <glyph glyph-name="B" unicode="&#xe000;" 
d="M168 0v1536h387q194 0 309 -97t115 -276v-20q0 -128 -62.5 -210.5t-171.5 -119.5q128 -35 201.5 -127.5t73.5 -236.5v-41q0 -194 -115.5 -301t-308.5 -107h-428zM535 1423h-244v-567h256q145 0 227 68t82 211v20q0 133 -82.5 200.5t-238.5 67.5zM575 743h-284v-630h284
q157 0 239.5 76.5t82.5 232.5v20q0 301 -322 301z" />
    <glyph glyph-name="C" unicode="C" horiz-adv-x="1167" 
d="M897 569h123v-82q0 -251 -114 -379t-322 -128t-322.5 128t-114.5 379v562q0 251 114.5 379t322.5 128t322 -128t114 -379v-64h-123v64q0 395 -313 395q-151 0 -232.5 -97t-81.5 -298v-562q0 -395 314 -395q151 0 232 96.5t81 298.5v82z" />
    <glyph glyph-name="D" unicode="D" horiz-adv-x="1167" 
d="M559 1536q222 0 341.5 -126t119.5 -386v-512q0 -260 -119.5 -386t-341.5 -126h-391v1536h391zM559 113q164 0 251 95t87 304v512q0 210 -86 304.5t-252 94.5h-268v-1310h268z" />
    <glyph glyph-name="E" unicode="E" horiz-adv-x="929" 
d="M168 0v1536h655v-113h-532v-573h491v-111h-491v-626h532v-113h-655z" />
    <glyph glyph-name="E" unicode="&#xe001;" horiz-adv-x="929" 
d="M168 0v1536h655v-113h-532v-573h491v-111h-491v-626h532v-113h-655z" />
    <glyph glyph-name="F" unicode="F" horiz-adv-x="888" 
d="M168 0v1536h655v-113h-532v-614h471v-111h-471v-698h-123z" />
    <glyph glyph-name="G" unicode="G" horiz-adv-x="1177" 
d="M553 809h467v-809h-109v221q-42 -120 -131 -180.5t-217 -60.5q-197 0 -306.5 128.5t-109.5 378.5v562q0 251 114.5 379t322.5 128t322 -128t114 -379v-64h-123v64q0 395 -313 395q-151 0 -232.5 -97t-81.5 -298v-562q0 -395 314 -395q150 0 231.5 96t81.5 291v217h-344
v113z" />
    <glyph glyph-name="H" unicode="H" horiz-adv-x="1208" 
d="M918 0v739h-627v-739h-123v1536h123v-686h627v686h122v-1536h-122z" />
    <glyph glyph-name="I" unicode="I" horiz-adv-x="458" 
d="M291 0h-123v1536h123v-1536z" />
    <glyph glyph-name="J" unicode="J" horiz-adv-x="1019" 
d="M750 1536h122v-1139q0 -203 -108.5 -310t-286.5 -107t-286.5 107t-108.5 310v123h123v-114q0 -157 74 -235.5t198 -78.5q127 0 200 78.5t73 235.5v1130z" />
    <glyph glyph-name="K" unicode="K" horiz-adv-x="1062" 
d="M893 0l-444 739l-158 -229v-510h-123v1536h123v-840l579 840h138l-467 -690l499 -846h-147z" />
    <glyph glyph-name="L" unicode="L" horiz-adv-x="888" 
d="M831 113v-113h-663v1536h123v-1423h540z" />
    <glyph glyph-name="M" unicode="M" horiz-adv-x="1499" 
d="M1208 0v1460l-391 -1460h-153l-381 1464v-1464h-115v1536h213l364 -1395l369 1395h217v-1536h-123z" />
    <glyph glyph-name="N" unicode="N" horiz-adv-x="1208" 
d="M1040 1536v-1536h-204l-553 1470v-1470h-115v1536h209l549 -1460v1460h114z" />
    <glyph glyph-name="O" unicode="O" horiz-adv-x="1167" 
d="M584 -20q-208 0 -322.5 128t-114.5 379v562q0 251 114.5 379t322.5 128t322 -128t114 -379v-562q0 -251 -114 -379t-322 -128zM584 92q151 0 232 96.5t81 298.5v562q0 395 -313 395q-151 0 -232.5 -97t-81.5 -298v-562q0 -395 314 -395z" />
    <glyph glyph-name="P" unicode="P" horiz-adv-x="1085" 
d="M168 0v1536h436q184 0 296 -101.5t112 -287.5v-127q0 -194 -112.5 -302t-295.5 -108h-313v-610h-123zM584 1423h-293v-700h293q145 0 225 77t80 240v86q0 297 -305 297z" />
    <glyph glyph-name="Q" unicode="Q" horiz-adv-x="1167" 
d="M918 0l-87 106q-76 -126 -268 -126q-194 0 -305 129t-111 378v562q0 251 114.5 379t322.5 128t322 -128t114 -379v-562q0 -223 -102 -325l124 -162h-124zM270 487q0 -395 314 -395q125 0 200 66l-301 374h127l238 -292q49 91 49 247v562q0 395 -313 395
q-151 0 -232.5 -97t-81.5 -298v-562z" />
    <glyph glyph-name="R" unicode="R" 
d="M168 0v1536h424q188 0 304 -96.5t116 -270.5v-61q0 -172 -104 -268.5t-273 -112.5l414 -727h-146l-399 725h-213v-725h-123zM571 1423h-280v-594h280q318 0 318 299v21q0 274 -318 274z" />
    <glyph glyph-name="S" unicode="S" horiz-adv-x="993" 
d="M135 1200q0 181 101 268.5t264 87.5q167 0 268.5 -104.5t101.5 -304.5v-78h-122v72q0 153 -64.5 228t-183.5 75q-110 0 -176 -64t-66 -180q0 -56 17.5 -104.5t53 -88.5t72.5 -70t91 -65l137 -94q61 -40 104 -77t83 -86.5t60.5 -110.5t20.5 -133q0 -188 -111.5 -289.5
t-283.5 -101.5q-170 0 -283 109t-113 300v98h123v-84q0 -144 74.5 -227.5t198.5 -83.5q125 0 198.5 70t73.5 192q0 108 -58.5 183.5t-166.5 146.5l-137 92q-62 40 -107.5 78.5t-86.5 90t-62 116t-21 139.5z" />
    <glyph glyph-name="S" unicode="&#xe002;" horiz-adv-x="993" 
d="M135 1200q0 181 101 268.5t264 87.5q167 0 268.5 -104.5t101.5 -304.5v-78h-122v72q0 153 -64.5 228t-183.5 75q-110 0 -176 -64t-66 -180q0 -56 17.5 -104.5t53 -88.5t72.5 -70t91 -65l137 -94q61 -40 104 -77t83 -86.5t60.5 -110.5t20.5 -133q0 -188 -111.5 -289.5
t-283.5 -101.5q-170 0 -283 109t-113 300v98h123v-84q0 -144 74.5 -227.5t198.5 -83.5q125 0 198.5 70t73.5 192q0 108 -58.5 183.5t-166.5 146.5l-137 92q-62 40 -107.5 78.5t-86.5 90t-62 116t-21 139.5z" />
    <glyph glyph-name="T" unicode="T" horiz-adv-x="888" 
d="M20 1423v113h848v-113h-362v-1423h-123v1423h-363z" />
    <glyph glyph-name="U" unicode="U" horiz-adv-x="1167" 
d="M158 1536h123v-1079q0 -365 303 -365t303 365v1079h123v-1079q0 -242 -110.5 -359.5t-315.5 -117.5t-315.5 117.5t-110.5 359.5v1079z" />
    <glyph glyph-name="V" unicode="V" horiz-adv-x="1044" 
d="M1012 1536l-396 -1536h-188l-395 1536h125l364 -1454l365 1454h125z" />
    <glyph glyph-name="W" unicode="W" horiz-adv-x="1536" 
d="M1516 1536l-283 -1536h-182l-283 1442l-283 -1442h-182l-283 1536h125l252 -1432l277 1432h188l277 -1432l252 1432h125z" />
    <glyph glyph-name="X" unicode="X" horiz-adv-x="1003" 
d="M838 0l-336 690l-336 -690h-135l397 793l-373 743h135l312 -645l311 645h135l-373 -743l398 -793h-135z" />
    <glyph glyph-name="Y" unicode="Y" horiz-adv-x="983" 
d="M977 1536l-424 -907v-629h-123v629l-424 907h125l361 -791l360 791h125z" />
    <glyph glyph-name="Z" unicode="Z" horiz-adv-x="901" 
d="M836 113v-113h-750v152l619 1271h-609v113h719v-152l-616 -1271h637z" />
    <glyph glyph-name="bracketleft" unicode="[" horiz-adv-x="696" 
d="M254 -369v1905h412v-96h-297v-1712h297v-97h-412z" />
    <glyph glyph-name="backslash" unicode="\" horiz-adv-x="737" 
d="M578 0l-512 1536h94l512 -1536h-94z" />
    <glyph glyph-name="bracketright" unicode="]" horiz-adv-x="696" 
d="M31 1440v96h411v-1905h-411v97h297v1712h-297z" />
    <glyph glyph-name="asciicircum" unicode="^" 
d="M911 717l-348 713l-348 -713h-100l399 819h98l400 -819h-101z" />
    <glyph glyph-name="underscore" unicode="_" horiz-adv-x="1024" 
d="M922 -340h-820v88h820v-88z" />
    <glyph glyph-name="grave" unicode="`" horiz-adv-x="1024" 
d="M463 1229l-197 307h150l147 -307h-100z" />
    <glyph glyph-name="a" unicode="a" 
d="M852 0v209q-52 -115 -154.5 -172t-228.5 -57q-157 0 -257.5 72t-100.5 210q0 72 25.5 124.5t68 82t98 49t116.5 28.5t122.5 16t117 16.5t98 25.5t68 47.5t25.5 77.5q0 104 -79.5 159.5t-207.5 55.5q-134 0 -215.5 -66t-81.5 -190h-125q0 93 35 164t95.5 111.5t133.5 60.5
t158 20q83 0 154.5 -18t130 -54.5t92 -99.5t33.5 -147v-725h-121zM236 268q0 -91 68 -137.5t185 -46.5q95 0 176 37.5t134 116t53 184.5v127q-47 -34 -131 -52t-163.5 -27t-154.5 -25.5t-121 -59.5t-46 -117z" />
    <glyph glyph-name="b" unicode="b" horiz-adv-x="1259" 
d="M1176 512q0 -233 -139.5 -382.5t-350.5 -149.5q-126 0 -229.5 63t-165.5 174v-217h-123v1536h123v-729q62 111 165.5 174t229.5 63q211 0 350.5 -149.5t139.5 -382.5zM672 932q-165 0 -273 -116.5t-108 -303.5t108 -303.5t273 -116.5t273 116.5t108 303.5t-108 303.5
t-273 116.5z" />
    <glyph glyph-name="b" unicode="&#xe003;" horiz-adv-x="1259" 
d="M1176 512q0 -233 -139.5 -382.5t-350.5 -149.5q-126 0 -229.5 63t-165.5 174v-217h-123v1536h123v-729q62 111 165.5 174t229.5 63q211 0 350.5 -149.5t139.5 -382.5zM672 932q-165 0 -273 -116.5t-108 -303.5t108 -303.5t273 -116.5t273 116.5t108 303.5t-108 303.5
t-273 116.5z" />
    <glyph glyph-name="c" unicode="c" horiz-adv-x="1171" 
d="M954 616q-20 145 -123 230.5t-245 85.5q-165 0 -272 -116.5t-107 -303.5t107 -303.5t272 -116.5q148 0 251.5 91.5t120.5 246.5h127q-15 -199 -155.5 -324.5t-343.5 -125.5q-217 0 -359.5 149.5t-142.5 382.5t142.5 382.5t359.5 149.5q196 0 334.5 -118.5t160.5 -309.5
h-127z" />
    <glyph glyph-name="d" unicode="d" horiz-adv-x="1259" 
d="M969 0v217q-62 -111 -166 -174t-230 -63q-211 0 -350 149.5t-139 382.5t139 382.5t350 149.5q126 0 230 -63t166 -174v729h123v-1536h-123zM588 932q-165 0 -273 -116.5t-108 -303.5t108 -303.5t273 -116.5t273 116.5t108 303.5t-108 303.5t-273 116.5z" />
    <glyph glyph-name="e" unicode="e" horiz-adv-x="1159" 
d="M1075 512q0 -29 -2 -43h-868q12 -174 115.5 -277.5t263.5 -103.5q117 0 204 58.5t127 160.5h132q-47 -153 -172 -240t-295 -87q-215 0 -355.5 149.5t-140.5 382.5t140.5 382.5t355.5 149.5t355 -149t140 -383zM580 936q-157 0 -259.5 -102t-115.5 -275h749
q-12 172 -114 274.5t-260 102.5z" />
    <glyph glyph-name="f" unicode="f" horiz-adv-x="778" 
d="M365 1188v-164h352v-109h-352v-915h-123v915h-201v109h201v170q0 178 91 270t249 92q90 0 155 -24v-115q-58 27 -145 27q-227 0 -227 -256z" />
    <glyph glyph-name="g" unicode="g" horiz-adv-x="1259" 
d="M1092 -25q0 -151 -65 -267.5t-175.5 -178t-247.5 -61.5q-193 0 -327 117.5t-160 308.5h125q25 -143 121.5 -227.5t240.5 -84.5q169 0 267 108.5t98 284.5v242q-62 -111 -166 -174t-230 -63q-211 0 -350 149.5t-139 382.5t139 382.5t350 149.5q126 0 230 -63t166 -174v217
h123v-1049zM588 92q165 0 273 116.5t108 303.5t-108 303.5t-273 116.5t-273 -116.5t-108 -303.5t108 -303.5t273 -116.5z" />
    <glyph glyph-name="h" unicode="h" horiz-adv-x="1198" 
d="M291 549v-549h-123v1536h123v-713q46 110 136 165.5t210 55.5q183 0 293 -116.5t110 -352.5v-575h-122v549q0 193 -82.5 290t-231.5 97t-231 -97t-82 -290z" />
    <glyph glyph-name="i" unicode="i" horiz-adv-x="458" 
d="M229 1286q-43 0 -71.5 28.5t-28.5 71.5t28.5 72t71.5 29q44 0 72.5 -29t28.5 -72t-28.5 -71.5t-72.5 -28.5zM291 0h-123v1024h123v-1024z" />
    <glyph glyph-name="j" unicode="j" horiz-adv-x="458" 
d="M229 1286q-43 0 -71.5 28.5t-28.5 71.5t28.5 72t71.5 29q44 0 72.5 -29t28.5 -72t-28.5 -71.5t-72.5 -28.5zM168 -238v1262h123v-1266q0 -270 -256 -270q-62 0 -92 10v111q33 -8 77 -8q72 0 110 35t38 126z" />
    <glyph glyph-name="k" unicode="k" horiz-adv-x="1075" 
d="M887 0l-422 512l-174 -176v-336h-123v1536h123v-1059l540 547h164l-428 -434l484 -590h-164z" />
    <glyph glyph-name="l" unicode="l" horiz-adv-x="458" 
d="M291 0h-123v1536h123v-1536z" />
    <glyph glyph-name="m" unicode="m" horiz-adv-x="1792" 
d="M291 594v-594h-123v1024h123v-170q43 95 123 142.5t184 47.5q121 0 209.5 -58.5t128.5 -176.5q39 117 128.5 176t211.5 59q161 0 259.5 -105.5t98.5 -317.5v-621h-123v594q0 171 -69.5 256.5t-198.5 85.5q-134 0 -207 -85.5t-73 -256.5v-594h-123v594q0 171 -71.5 256.5
t-203.5 85.5t-203 -85.5t-71 -256.5z" />
    <glyph glyph-name="n" unicode="n" horiz-adv-x="1198" 
d="M291 549v-549h-123v1024h123v-201q46 110 136 165.5t210 55.5q183 0 293 -116.5t110 -352.5v-575h-122v549q0 193 -82.5 290t-231.5 97t-231 -97t-82 -290z" />
    <glyph glyph-name="o" unicode="o" horiz-adv-x="1187" 
d="M594 -20q-220 0 -365 149.5t-145 382.5t145 382.5t365 149.5t365 -149.5t145 -382.5t-145 -382.5t-365 -149.5zM594 92q168 0 277.5 116.5t109.5 303.5t-109.5 303.5t-277.5 116.5t-277.5 -116.5t-109.5 -303.5t109.5 -303.5t277.5 -116.5z" />
    <glyph glyph-name="p" unicode="p" horiz-adv-x="1259" 
d="M686 -20q-126 0 -229.5 63t-165.5 174v-729h-123v1536h123v-217q62 111 165.5 174t229.5 63q211 0 350.5 -149.5t139.5 -382.5t-139.5 -382.5t-350.5 -149.5zM672 92q165 0 273 116.5t108 303.5t-108 303.5t-273 116.5t-273 -116.5t-108 -303.5t108 -303.5t273 -116.5z
" />
    <glyph glyph-name="q" unicode="q" horiz-adv-x="1259" 
d="M1092 1024v-1536h-123v729q-62 -111 -166 -174t-230 -63q-211 0 -350 149.5t-139 382.5t139 382.5t350 149.5q126 0 230 -63t166 -174v217h123zM588 92q165 0 273 116.5t108 303.5t-108 303.5t-273 116.5t-273 -116.5t-108 -303.5t108 -303.5t273 -116.5z" />
    <glyph glyph-name="r" unicode="r" horiz-adv-x="825" 
d="M291 496v-496h-123v1024h123v-227q51 123 148.5 185t228.5 62q52 0 92 -12v-131q-52 19 -115 19q-170 0 -262 -106t-92 -318z" />
    <glyph glyph-name="s" unicode="s" horiz-adv-x="1032" 
d="M926 276q0 -140 -108.5 -218t-285.5 -78q-189 0 -307.5 88t-118.5 245h127q0 -113 83 -174t216 -61q128 0 198.5 49.5t70.5 144.5q0 62 -37 102t-96 59.5t-130.5 33t-143 31t-130.5 44.5t-96 82.5t-37 137.5q0 130 104.5 206t266.5 76q172 0 285.5 -88.5t113.5 -222.5
h-127q0 91 -77 151t-195 60q-114 0 -181 -47t-67 -131q0 -59 37 -96.5t96.5 -56t131 -32t143 -32t131 -47t96.5 -85.5t37 -141z" />
    <glyph glyph-name="s" unicode="&#xe004;" horiz-adv-x="1032" 
d="M926 276q0 -140 -108.5 -218t-285.5 -78q-189 0 -307.5 88t-118.5 245h127q0 -113 83 -174t216 -61q128 0 198.5 49.5t70.5 144.5q0 62 -37 102t-96 59.5t-130.5 33t-143 31t-130.5 44.5t-96 82.5t-37 137.5q0 130 104.5 206t266.5 76q172 0 285.5 -88.5t113.5 -222.5
h-127q0 91 -77 151t-195 60q-114 0 -181 -47t-67 -131q0 -59 37 -96.5t96.5 -56t131 -32t143 -32t131 -47t96.5 -85.5t37 -141z" />
    <glyph glyph-name="t" unicode="t" horiz-adv-x="798" 
d="M340 350q0 -132 53.5 -195t163.5 -63q72 0 135 23v-113q-77 -22 -153 -22q-73 0 -129 17.5t-101 58t-68.5 113t-23.5 175.5v571h-176v109h176v295h123v-295h352v-109h-352v-565z" />
    <glyph glyph-name="u" unicode="u" horiz-adv-x="1187" 
d="M897 0v205q-46 -113 -134.5 -169t-205.5 -56q-180 0 -289.5 120t-109.5 361v563h123v-537q0 -199 80.5 -299t226.5 -100q148 0 228.5 99.5t80.5 299.5v537h123v-1024h-123z" />
    <glyph glyph-name="v" unicode="v" horiz-adv-x="1024" 
d="M1004 1024l-410 -1024h-164l-410 1024h130l362 -934l362 934h130z" />
    <glyph glyph-name="w" unicode="w" horiz-adv-x="1566" 
d="M1536 1024l-315 -1024h-152l-287 922l-286 -922h-150l-315 1024h121l270 -922l287 922h149l287 -922l270 922h121z" />
    <glyph glyph-name="x" unicode="x" horiz-adv-x="1064" 
d="M895 0l-369 440l-354 -440h-147l430 528l-408 496h146l344 -412l335 412h146l-410 -498l432 -526h-145z" />
    <glyph glyph-name="y" unicode="y" horiz-adv-x="1026" 
d="M571 -133q-29 -77 -52 -128.5t-57.5 -105t-73 -84t-93.5 -50t-123 -19.5q-83 0 -145 20v111q61 -23 133 -23q59 0 103 16.5t78.5 55.5t60.5 88.5t57 128.5l-443 1147h125l377 -987l367 987h125z" />
    <glyph glyph-name="y" unicode="&#xe006;" horiz-adv-x="1026" 
d="M571 -133q-29 -77 -52 -128.5t-57.5 -105t-73 -84t-93.5 -50t-123 -19.5q-83 0 -145 20v111q61 -23 133 -23q59 0 103 16.5t78.5 55.5t60.5 88.5t57 128.5l-443 1147h125l377 -987l367 987h125z" />
    <glyph glyph-name="z" unicode="z" horiz-adv-x="962" 
d="M887 109v-109h-791v147l639 768h-629v109h740v-147l-641 -768h682z" />
    <glyph glyph-name="braceleft" unicode="{" horiz-adv-x="696" 
d="M176 526h-102v115h102q20 0 41.5 7t44 22.5t37 48t14.5 76.5v430q0 148 76.5 229.5t206.5 81.5h70v-96h-54q-85 0 -134.5 -57t-49.5 -166v-435q0 -126 -113 -198q113 -72 113 -199v-434q0 -109 49.5 -166t134.5 -57h54v-97h-70q-130 0 -206.5 82t-76.5 230v430
q0 44 -14.5 76t-37 47.5t-44 22.5t-41.5 7z" />
    <glyph glyph-name="bar" unicode="|" horiz-adv-x="507" 
d="M299 -512h-90v2048h90v-2048z" />
    <glyph glyph-name="braceright" unicode="}" horiz-adv-x="696" 
d="M520 641h103v-115h-103q-20 0 -41.5 -7t-44 -22.5t-37 -47.5t-14.5 -76v-430q0 -148 -76.5 -230t-206.5 -82h-69v97h53q85 0 134.5 57t49.5 166v434q0 127 113 199q-113 72 -113 198v435q0 109 -49.5 166t-134.5 57h-53v96h69q130 0 206.5 -81.5t76.5 -229.5v-430
q0 -44 14.5 -76.5t37 -48t44 -22.5t41.5 -7z" />
    <glyph glyph-name="asciitilde" unicode="~" 
d="M373 682q-54 0 -88.5 -37.5t-34.5 -109.5v-64h-96v76q0 111 56.5 172t145.5 61q56 0 105.5 -22.5t85 -55t69 -64.5t70.5 -54.5t74 -22.5q52 0 84.5 37t32.5 109v63h96v-76q0 -112 -56.5 -172.5t-146.5 -60.5q-48 0 -91.5 23t-77.5 55.5t-67.5 64.5t-75 55t-85.5 23z" />
    <glyph glyph-name="exclamdown" unicode="&#xa1;" horiz-adv-x="466" 
d="M233 1044q40 0 68.5 -28t28.5 -68t-28.5 -68t-68.5 -28q-41 0 -69.5 28t-28.5 68t28.5 68t69.5 28zM176 512h113l10 -1024h-133z" />
    <glyph glyph-name="cent" unicode="&#xa2;" 
d="M1069 686q-22 -189 -149.5 -311.5t-311.5 -136.5v-238h-82v238q-203 12 -337 160t-134 370t134 370t337 160v238h82v-238q179 -14 304 -129.5t153 -296.5h-125q-22 132 -112 216t-220 98v-836q135 14 228 105.5t108 230.5h125zM178 768q0 -176 96.5 -291t251.5 -127v836
q-155 -12 -251.5 -127t-96.5 -291z" />
    <glyph glyph-name="sterling" unicode="&#xa3;" 
d="M975 113v-113h-848v70q141 153 201.5 272.5t60.5 269.5q0 51 -16 101h-223v80h186q-16 28 -54.5 84.5t-60.5 93t-41.5 97.5t-19.5 124q0 173 110 268.5t279 95.5q85 0 156.5 -24t127 -72t86.5 -127t31 -182v-66h-123v58q0 301 -278 301q-118 0 -192 -62.5t-74 -189.5
q0 -56 20 -112.5t45 -95.5t59.5 -94.5t53.5 -96.5h401v-80h-373q13 -50 13 -99q0 -255 -211 -501h684z" />
    <glyph glyph-name="currency" unicode="&#xa4;" 
d="M895 354l-66 -65l-116 117q-67 -44 -148 -44q-85 0 -153 46l-107 -109l-63 63l108 109q-45 64 -45 147q0 86 45 150l-119 119l66 65l119 -118q64 40 149 40t146 -43l110 111l64 -63l-109 -109q47 -62 47 -152q0 -83 -45 -147zM565 442q73 0 122.5 50t49.5 126
t-49.5 126.5t-122.5 50.5q-75 0 -124.5 -50.5t-49.5 -126.5t49.5 -126t124.5 -50z" />
    <glyph glyph-name="yen" unicode="&#xa5;" 
d="M922 530h-297v-530h-123v530h-293v80h293v328h-293v80h244l-371 518h125l356 -506l357 506h124l-370 -518h248v-80h-297v-328h297v-80z" />
    <glyph glyph-name="brokenbar" unicode="&#xa6;" horiz-adv-x="507" 
d="M299 717h-90v819h90v-819zM299 -512h-90v819h90v-819z" />
    <glyph glyph-name="section" unicode="&#xa7;" horiz-adv-x="1019" 
d="M872 -207q0 -85 -28 -148.5t-78.5 -101.5t-115 -56.5t-142.5 -18.5q-167 0 -269 95t-102 277v60h123v-54q0 -135 64.5 -200.5t183.5 -65.5q110 0 176 55t66 154q0 94 -64 161t-178 124l-139 78q-57 31 -98.5 63t-76.5 74.5t-53 97t-18 119.5q0 138 80.5 229t218.5 121
q-136 79 -209.5 165.5t-73.5 209.5q0 84 28 147.5t78.5 102t115.5 57t143 18.5q167 0 268.5 -95t101.5 -279v-58h-122v54q0 135 -64.5 200.5t-183.5 65.5q-110 0 -176 -55t-66 -154q0 -95 64.5 -162.5t177.5 -124.5l139 -76q118 -63 182 -146.5t64 -209.5
q0 -140 -80.5 -227.5t-214.5 -120.5q132 -70 205 -161t73 -214zM504 258q115 0 188.5 70t73.5 182q0 115 -73.5 185.5t-188.5 70.5q-111 0 -184.5 -71t-73.5 -185q0 -111 74 -181.5t184 -70.5z" />
    <glyph glyph-name="dieresis" unicode="&#xa8;" horiz-adv-x="1024" 
d="M307 1290q-38 0 -65 27t-27 65t27 65.5t65 27.5q39 0 65.5 -27t26.5 -66t-26.5 -65.5t-65.5 -26.5zM717 1290q-38 0 -65 27t-27 65t27 65.5t65 27.5q39 0 65.5 -27t26.5 -66t-26.5 -65.5t-65.5 -26.5z" />
    <glyph glyph-name="copyright" unicode="&#xa9;" horiz-adv-x="1699" 
d="M850 -20q-165 0 -311 63t-248 169.5t-160.5 251t-58.5 304.5q0 162 58.5 307t160.5 251t247.5 168t311.5 62t311.5 -62t247.5 -168t160.5 -251t58.5 -307q0 -160 -58.5 -304.5t-160.5 -251t-248 -169.5t-311 -63zM850 1491q-151 0 -283 -57.5t-224.5 -155t-146 -230.5
t-53.5 -280q0 -198 90.5 -363.5t253 -262.5t363.5 -97q151 0 283 57t224.5 154.5t145.5 230.5t53 281q0 147 -53 280t-145.5 230.5t-224.5 155t-283 57.5zM1151 852q-19 113 -103 182.5t-198 69.5q-134 0 -221.5 -94t-87.5 -244q0 -148 88 -241t221 -93q121 0 206 73.5
t97 194.5h104q-13 -160 -128.5 -261t-278.5 -101q-176 0 -293 120.5t-117 307.5q0 189 117 310.5t293 121.5q158 0 271.5 -96t133.5 -250h-104z" />
    <glyph glyph-name="ordfeminine" unicode="&#xaa;" horiz-adv-x="776" 
d="M559 561v135q-32 -73 -98.5 -110t-147.5 -37q-98 0 -162.5 47.5t-64.5 136.5q0 59 26 98t67.5 56.5t92 27t100.5 15t91.5 14.5t67.5 31t26 59q0 61 -48 95t-124 34q-80 0 -129 -40.5t-49 -114.5h-101q0 61 23.5 107.5t64 73t89 39.5t104.5 13t103.5 -11.5t87 -36t62 -66
t22.5 -97.5v-469h-103zM190 739q0 -54 42 -83t110 -29q90 0 153.5 55t63.5 152v79q-28 -21 -78.5 -33t-98 -17.5t-92.5 -15.5t-72.5 -36.5t-27.5 -71.5zM674 227h-572v95h572v-95z" />
    <glyph glyph-name="guillemotleft" unicode="&#xab;" horiz-adv-x="1187" 
d="M553 121l-451 336v131l451 336v-117l-393 -285l393 -284v-117zM1085 121l-450 336v131l450 336v-117l-393 -285l393 -284v-117z" />
    <glyph glyph-name="logicalnot" unicode="&#xac;" 
d="M973 197h-94v381h-725v86h819v-467z" />
    <glyph glyph-name="registered" unicode="&#xae;" horiz-adv-x="1019" 
d="M510 610q-132 0 -240 64.5t-167.5 172.5t-59.5 236q0 130 60 238t167.5 171.5t239.5 63.5t239.5 -63.5t167.5 -171.5t60 -238q0 -128 -59.5 -236t-167.5 -172.5t-240 -64.5zM510 1501q-173 0 -289.5 -121.5t-116.5 -296.5t116.5 -296t289.5 -121t289 121t116 296
q0 174 -116 296t-289 122zM340 838v491h197q168 0 168 -143q0 -61 -42 -98.5t-106 -43.5l160 -206h-90l-156 206h-57v-206h-74zM535 1264h-121v-156h121q44 0 70 20.5t26 57.5q0 78 -96 78z" />
    <glyph glyph-name="macron" unicode="&#xaf;" horiz-adv-x="1024" 
d="M791 1372v-88h-549v88h549z" />
    <glyph glyph-name="degree" unicode="&#xb0;" horiz-adv-x="735" 
d="M369 1024q-112 0 -186 73t-74 183t74 183t186 73q110 0 184 -73t74 -183t-74 -183t-184 -73zM369 1104q74 0 123 50t49 126t-49 126t-123 50q-75 0 -124.5 -50t-49.5 -126t49.5 -126t124.5 -50z" />
    <glyph glyph-name="plusminus" unicode="&#xb1;" 
d="M973 578h-363v-381h-94v381h-362v86h362v380h94v-380h363v-86zM154 0v88h819v-88h-819z" />
    <glyph glyph-name="twosuperior" unicode="&#xb2;" horiz-adv-x="647" 
d="M592 1108q0 -48 -21.5 -89.5t-56 -72t-76.5 -58.5t-85.5 -55.5t-80 -56.5t-62 -67.5t-30.5 -83.5h424v-88h-549v45q0 60 24 111t62.5 87.5t85 68.5t93.5 60.5t85.5 57t62.5 64t24 75.5q0 69 -45.5 110t-116.5 41q-76 0 -123 -43t-47 -127v-20h-99v29q0 116 76 183t193 67
q112 0 187 -63.5t75 -174.5z" />
    <glyph glyph-name="threesuperior" unicode="&#xb3;" horiz-adv-x="706" 
d="M647 758q0 -108 -79 -171t-208 -63q-133 0 -217 67.5t-84 176.5h103q0 -71 53.5 -114.5t140.5 -43.5t139 42.5t52 109.5q0 69 -51.5 109t-143.5 40h-59v84h59q77 0 121.5 35.5t44.5 93.5q0 60 -46.5 96.5t-125.5 36.5q-78 0 -124 -39.5t-46 -105.5h-98q0 107 73.5 170.5
t196.5 63.5q122 0 197.5 -60t75.5 -156q0 -122 -125 -174q71 -27 111 -78.5t40 -119.5z" />
    <glyph glyph-name="acute" unicode="&#xb4;" horiz-adv-x="1024" 
d="M575 1229h-100l148 307h149z" />
    <glyph glyph-name="paragraph" unicode="&#xb6;" horiz-adv-x="1310" 
d="M143 1147q0 185 115.5 287t300.5 102h182v-2048h-98v1147h-84q-184 0 -300 108t-116 301v103zM1130 -512h-98v2048h98v-2048z" />
    <glyph glyph-name="periodcentered" unicode="&#xb7;" horiz-adv-x="399" 
d="M199 432q-43 0 -72 28.5t-29 71.5t29 72t72 29q45 0 73.5 -29t28.5 -72t-28.5 -71.5t-73.5 -28.5z" />
    <glyph glyph-name="cedilla" unicode="&#xb8;" horiz-adv-x="1024" 
d="M729 -319q0 -82 -59 -137.5t-158 -55.5q-95 0 -156 49t-61 119h82q6 -48 42.5 -72t92.5 -24q62 0 98.5 34t36.5 87t-35 86.5t-92 33.5q-81 0 -123 -57h-90l174 256h86l-94 -133q27 6 55 6q89 0 145 -56.5t56 -135.5z" />
    <glyph glyph-name="onesuperior" unicode="&#xb9;" horiz-adv-x="374" 
d="M168 1292v41h104v-796h-106v579h-141v84h55q47 0 67.5 21.5t20.5 70.5z" />
    <glyph glyph-name="ordmasculine" unicode="&#xba;" horiz-adv-x="776" 
d="M389 549q-144 0 -241 97.5t-97 248.5q0 152 97 249t241 97t240 -97t96 -249q0 -151 -96 -248.5t-240 -97.5zM389 643q101 0 167.5 70t66.5 182q0 114 -66.5 184t-167.5 70q-103 0 -169 -70t-66 -184q0 -113 66.5 -182.5t168.5 -69.5zM674 227h-572v95h572v-95z" />
    <glyph glyph-name="guillemotright" unicode="&#xbb;" horiz-adv-x="1187" 
d="M635 924l450 -336v-131l-450 -336v117l393 284l-393 285v117zM102 924l451 -336v-131l-451 -336v117l394 284l-394 285v117z" />
    <glyph glyph-name="onequarter" unicode="&#xbc;" horiz-adv-x="1650" 
d="M332 1495v41h104v-797h-106v580h-142v84h56q47 0 67.5 21.5t20.5 70.5zM250 0l1065 1536h86l-1065 -1536h-86zM909 276l332 521h162v-518h168v-86h-168v-193h-100v193h-394v83zM1006 279h297v466z" />
    <glyph glyph-name="onehalf" unicode="&#xbd;" horiz-adv-x="1650" 
d="M332 1495v41h104v-797h-106v580h-142v84h56q47 0 67.5 21.5t20.5 70.5zM250 0l1065 1536h86l-1065 -1536h-86zM1509 571q0 -48 -21.5 -89.5t-56 -72t-76.5 -58.5t-85 -55.5t-79.5 -56.5t-62 -67.5t-30.5 -83.5h424v-88h-549v45q0 60 24 111t62.5 87.5t85 68.5t93 60.5
t85 57t62.5 64t24 75.5q0 69 -46 110.5t-116 41.5q-76 0 -123 -43t-47 -127v-21h-98v29q0 117 76 183.5t192 66.5q112 0 187 -63.5t75 -174.5z" />
    <glyph glyph-name="threequarters" unicode="&#xbe;" horiz-adv-x="1650" 
d="M647 961q0 -108 -79 -171t-208 -63q-133 0 -217 67.5t-84 176.5h103q0 -71 53.5 -114.5t140.5 -43.5t139 42.5t52 109.5q0 69 -51.5 109t-143.5 40h-59v84h59q77 0 121.5 35.5t44.5 93.5q0 60 -46.5 96.5t-125.5 36.5q-78 0 -124 -39.5t-46 -105.5h-98q0 107 73.5 170
t196.5 63t198 -59.5t75 -155.5q0 -122 -125 -174q71 -27 111 -78.5t40 -119.5zM250 0l1065 1536h86l-1065 -1536h-86zM909 276l332 521h162v-518h168v-86h-168v-193h-100v193h-394v83zM1006 279h297v466z" />
    <glyph glyph-name="questiondown" unicode="&#xbf;" horiz-adv-x="1017" 
d="M504 1044q39 0 67.5 -28.5t28.5 -67.5q0 -40 -28 -68t-68 -28q-42 0 -70 28t-28 68q0 39 28 67.5t70 28.5zM76 -150q0 66 20 122t52.5 95t71.5 74.5t78.5 69.5t72 71t53.5 88t22 111v31h113v-43q0 -66 -20 -121.5t-51.5 -95.5t-70 -76.5t-77 -70t-70 -69t-51.5 -82.5
t-20 -101q0 -130 80 -201.5t223 -71.5q138 0 226.5 82t88.5 250v39h125v-55q0 -105 -35 -188t-96 -134.5t-139.5 -78.5t-169.5 -27q-200 0 -313 101t-113 281z" />
    <glyph glyph-name="Agrave" unicode="&#xc0;" horiz-adv-x="1044" 
d="M471 1679l-197 308h150l147 -308h-100zM33 0l395 1536h188l396 -1536h-125l-109 434h-512l-108 -434h-125zM295 547h455l-228 907z" />
    <glyph glyph-name="Aacute" unicode="&#xc1;" horiz-adv-x="1044" 
d="M586 1679h-101l148 308h149zM33 0l395 1536h188l396 -1536h-125l-109 434h-512l-108 -434h-125zM295 547h455l-228 907z" />
    <glyph glyph-name="Acircumflex" unicode="&#xc2;" horiz-adv-x="1044" 
d="M322 1679h-101l225 308h148l225 -308h-100l-199 224zM33 0l395 1536h188l396 -1536h-125l-109 434h-512l-108 -434h-125zM295 547h455l-228 907z" />
    <glyph glyph-name="Atilde" unicode="&#xc3;" horiz-adv-x="1044" 
d="M211 1692v102q0 180 149 180q40 0 76.5 -20t64 -48t53.5 -56t55 -48t57 -20q77 0 77 100v80h91v-102q0 -181 -150 -181q-40 0 -76.5 20t-64 48.5t-53 56.5t-54.5 48t-57 20q-78 0 -78 -100v-80h-90zM33 0l395 1536h188l396 -1536h-125l-109 434h-512l-108 -434h-125z
M295 547h455l-228 907z" />
    <glyph glyph-name="Adieresis" unicode="&#xc4;" horiz-adv-x="1044" 
d="M317 1741q-38 0 -65 27t-27 65t27 65t65 27q39 0 66 -26.5t27 -65.5t-27 -65.5t-66 -26.5zM727 1741q-38 0 -65 27t-27 65t27 65t65 27q39 0 65.5 -26.5t26.5 -65.5t-26.5 -65.5t-65.5 -26.5zM33 0l395 1536h188l396 -1536h-125l-109 434h-512l-108 -434h-125zM295 547
h455l-228 907z" />
    <glyph glyph-name="Aring" unicode="&#xc5;" horiz-adv-x="1044" 
d="M522 1618q-90 0 -147.5 55.5t-57.5 138.5q0 81 58 138t147 57q90 0 148.5 -57t58.5 -138q0 -83 -58 -138.5t-149 -55.5zM522 1690q56 0 90.5 34.5t34.5 87.5t-34.5 88t-90.5 35q-52 0 -87.5 -35.5t-35.5 -87.5t35 -87t88 -35zM33 0l395 1536h188l396 -1536h-125l-109 434
h-512l-108 -434h-125zM295 547h455l-228 907z" />
    <glyph glyph-name="AE" unicode="&#xc6;" horiz-adv-x="1597" 
d="M1491 113v-113h-655v434h-486l-207 -434h-131l740 1536h739v-113h-533v-573h492v-111h-492v-626h533zM403 547h433v911z" />
    <glyph glyph-name="Ccedilla" unicode="&#xc7;" horiz-adv-x="1167" 
d="M801 -319q0 -82 -59 -137.5t-158 -55.5q-95 0 -156 49t-61 119h82q6 -48 42.5 -72t92.5 -24q62 0 98.5 34t36.5 87t-35 86.5t-92 33.5q-81 0 -123 -57h-90l162 238q-188 12 -291 140t-103 365v562q0 251 114.5 379t322.5 128t322 -128t114 -379v-64h-123v64
q0 395 -313 395q-151 0 -232.5 -97t-81.5 -298v-562q0 -395 314 -395q151 0 232 96.5t81 298.5v82h123v-82q0 -238 -103 -365.5t-292 -139.5l-80 -115q27 6 55 6q89 0 145 -56.5t56 -135.5z" />
    <glyph glyph-name="Egrave" unicode="&#xc8;" horiz-adv-x="929" 
d="M455 1679l-197 308h150l147 -308h-100zM168 0v1536h655v-113h-532v-573h491v-111h-491v-626h532v-113h-655z" />
    <glyph glyph-name="Eacute" unicode="&#xc9;" horiz-adv-x="929" 
d="M569 1679h-100l147 308h150zM168 0v1536h655v-113h-532v-573h491v-111h-491v-626h532v-113h-655z" />
    <glyph glyph-name="Ecircumflex" unicode="&#xca;" horiz-adv-x="929" 
d="M305 1679h-100l225 308h148l225 -308h-101l-198 224zM168 0v1536h655v-113h-532v-573h491v-111h-491v-626h532v-113h-655z" />
    <glyph glyph-name="Edieresis" unicode="&#xcb;" horiz-adv-x="929" 
d="M301 1741q-38 0 -65 27t-27 65t27 65t65 27q39 0 65.5 -26.5t26.5 -65.5t-26.5 -65.5t-65.5 -26.5zM711 1741q-38 0 -65.5 27t-27.5 65t27.5 65t65.5 27q39 0 65.5 -26.5t26.5 -65.5t-26.5 -65.5t-65.5 -26.5zM168 0v1536h655v-113h-532v-573h491v-111h-491v-626h532
v-113h-655z" />
    <glyph glyph-name="Igrave" unicode="&#xcc;" horiz-adv-x="458" 
d="M178 1679l-196 308h149l148 -308h-101zM291 0h-123v1536h123v-1536z" />
    <glyph glyph-name="Iacute" unicode="&#xcd;" horiz-adv-x="458" 
d="M293 1679h-100l147 308h149zM291 0h-123v1536h123v-1536z" />
    <glyph glyph-name="Icircumflex" unicode="&#xce;" horiz-adv-x="458" 
d="M29 1679h-101l226 308h147l225 -308h-100l-199 224zM291 0h-123v1536h123v-1536z" />
    <glyph glyph-name="Idieresis" unicode="&#xcf;" horiz-adv-x="458" 
d="M25 1741q-38 0 -65.5 27t-27.5 65t27.5 65t65.5 27q39 0 65.5 -26.5t26.5 -65.5t-26.5 -65.5t-65.5 -26.5zM434 1741q-38 0 -65 27t-27 65t27 65t65 27q39 0 65.5 -26.5t26.5 -65.5t-26.5 -65.5t-65.5 -26.5zM291 0h-123v1536h123v-1536z" />
    <glyph glyph-name="Eth" unicode="&#xd0;" horiz-adv-x="1167" 
d="M1020 512q0 -260 -119.5 -386t-341.5 -126h-391v752h-168v86h168v698h391q222 0 341.5 -126t119.5 -386v-512zM291 113h268q164 0 251 95t87 304v512q0 210 -86 304.5t-252 94.5h-268v-585h291v-86h-291v-639z" />
    <glyph glyph-name="Ntilde" unicode="&#xd1;" horiz-adv-x="1208" 
d="M293 1692v102q0 180 149 180q40 0 76.5 -20t64 -48t53.5 -56t55 -48t57 -20q77 0 77 100v80h90v-102q0 -181 -149 -181q-40 0 -76.5 20t-64 48.5t-53 56.5t-54.5 48t-57 20q-78 0 -78 -100v-80h-90zM1040 1536v-1536h-204l-553 1470v-1470h-115v1536h209l549 -1460v1460
h114z" />
    <glyph glyph-name="Ograve" unicode="&#xd2;" horiz-adv-x="1167" 
d="M532 1679l-196 308h149l148 -308h-101zM584 -20q-208 0 -322.5 128t-114.5 379v562q0 251 114.5 379t322.5 128t322 -128t114 -379v-562q0 -251 -114 -379t-322 -128zM584 92q151 0 232 96.5t81 298.5v562q0 395 -313 395q-151 0 -232.5 -97t-81.5 -298v-562
q0 -395 314 -395z" />
    <glyph glyph-name="Oacute" unicode="&#xd3;" horiz-adv-x="1167" 
d="M647 1679h-100l147 308h150zM584 -20q-208 0 -322.5 128t-114.5 379v562q0 251 114.5 379t322.5 128t322 -128t114 -379v-562q0 -251 -114 -379t-322 -128zM584 92q151 0 232 96.5t81 298.5v562q0 395 -313 395q-151 0 -232.5 -97t-81.5 -298v-562q0 -395 314 -395z" />
    <glyph glyph-name="Ocircumflex" unicode="&#xd4;" horiz-adv-x="1167" 
d="M383 1679h-100l225 308h147l226 -308h-101l-198 224zM584 -20q-208 0 -322.5 128t-114.5 379v562q0 251 114.5 379t322.5 128t322 -128t114 -379v-562q0 -251 -114 -379t-322 -128zM584 92q151 0 232 96.5t81 298.5v562q0 395 -313 395q-151 0 -232.5 -97t-81.5 -298
v-562q0 -395 314 -395z" />
    <glyph glyph-name="Otilde" unicode="&#xd5;" horiz-adv-x="1167" 
d="M272 1692v102q0 180 150 180q40 0 76 -20t63.5 -48t53.5 -56t55 -48t57 -20q78 0 78 100v80h90v-102q0 -181 -150 -181q-40 0 -76.5 20t-64 48.5t-53 56.5t-54.5 48t-57 20q-78 0 -78 -100v-80h-90zM584 -20q-208 0 -322.5 128t-114.5 379v562q0 251 114.5 379t322.5 128
t322 -128t114 -379v-562q0 -251 -114 -379t-322 -128zM584 92q151 0 232 96.5t81 298.5v562q0 395 -313 395q-151 0 -232.5 -97t-81.5 -298v-562q0 -395 314 -395z" />
    <glyph glyph-name="Odieresis" unicode="&#xd6;" horiz-adv-x="1167" 
d="M379 1741q-38 0 -65 27t-27 65t27 65t65 27q39 0 65.5 -26.5t26.5 -65.5t-26.5 -65.5t-65.5 -26.5zM788 1741q-38 0 -65 27t-27 65t27 65t65 27q40 0 66.5 -26.5t26.5 -65.5t-26.5 -65.5t-66.5 -26.5zM584 -20q-208 0 -322.5 128t-114.5 379v562q0 251 114.5 379
t322.5 128t322 -128t114 -379v-562q0 -251 -114 -379t-322 -128zM584 92q151 0 232 96.5t81 298.5v562q0 395 -313 395q-151 0 -232.5 -97t-81.5 -298v-562q0 -395 314 -395z" />
    <glyph glyph-name="multiply" unicode="&#xd7;" 
d="M895 354l-66 -65l-266 268l-258 -258l-63 63l258 259l-269 266l66 65l268 -266l256 256l64 -63l-256 -256z" />
    <glyph glyph-name="Oslash" unicode="&#xd8;" horiz-adv-x="1167" 
d="M1020 487q0 -249 -113.5 -378t-310.5 -129q-215 0 -307 131l-60 -111h-106l100 188q-76 101 -76 299v562q0 249 113.5 378t310.5 129q216 0 308 -131l59 111h106l-100 -188q76 -101 76 -299v-562zM270 487q0 -99 21 -172l538 1016q-77 113 -245 113q-151 0 -232.5 -97
t-81.5 -298v-562zM897 1049q0 102 -20 172l-539 -1016q77 -113 246 -113q151 0 232 96.5t81 298.5v562z" />
    <glyph glyph-name="Ugrave" unicode="&#xd9;" horiz-adv-x="1167" 
d="M532 1679l-196 308h149l148 -308h-101zM158 1536h123v-1079q0 -365 303 -365t303 365v1079h123v-1079q0 -242 -110.5 -359.5t-315.5 -117.5t-315.5 117.5t-110.5 359.5v1079z" />
    <glyph glyph-name="Uacute" unicode="&#xda;" horiz-adv-x="1167" 
d="M647 1679h-100l147 308h150zM158 1536h123v-1079q0 -365 303 -365t303 365v1079h123v-1079q0 -242 -110.5 -359.5t-315.5 -117.5t-315.5 117.5t-110.5 359.5v1079z" />
    <glyph glyph-name="Ucircumflex" unicode="&#xdb;" horiz-adv-x="1167" 
d="M383 1679h-100l225 308h147l226 -308h-101l-198 224zM158 1536h123v-1079q0 -365 303 -365t303 365v1079h123v-1079q0 -242 -110.5 -359.5t-315.5 -117.5t-315.5 117.5t-110.5 359.5v1079z" />
    <glyph glyph-name="Udieresis" unicode="&#xdc;" horiz-adv-x="1167" 
d="M379 1741q-38 0 -65 27t-27 65t27 65t65 27q39 0 65.5 -26.5t26.5 -65.5t-26.5 -65.5t-65.5 -26.5zM788 1741q-38 0 -65 27t-27 65t27 65t65 27q40 0 66.5 -26.5t26.5 -65.5t-26.5 -65.5t-66.5 -26.5zM158 1536h123v-1079q0 -365 303 -365t303 365v1079h123v-1079
q0 -242 -110.5 -359.5t-315.5 -117.5t-315.5 117.5t-110.5 359.5v1079z" />
    <glyph glyph-name="Yacute" unicode="&#xdd;" horiz-adv-x="983" 
d="M555 1679h-100l147 308h150zM977 1536l-424 -907v-629h-123v629l-424 907h125l361 -791l360 791h125z" />
    <glyph glyph-name="Thorn" unicode="&#xde;" horiz-adv-x="1085" 
d="M580 397h-289v-397h-123v1536h123v-238h289q184 0 295.5 -101.5t111.5 -287.5v-102q0 -194 -112 -302t-295 -108zM559 1186h-268v-676h268q145 0 225 77t80 240v62q0 297 -305 297z" />
    <glyph glyph-name="germandbls" unicode="&#xdf;" horiz-adv-x="1257" 
d="M365 1194v-1194h-123v915h-201v109h201v174q0 174 100 266t262 92q159 0 262 -88.5t103 -232.5q0 -78 -37 -139t-103 -99q156 -50 250.5 -179.5t94.5 -305.5q0 -224 -146 -368t-369 -144h-71v109h71q169 0 280.5 112t111.5 291t-111.5 291t-280.5 112h-71v109h30
q101 0 164.5 56.5t63.5 150.5q0 98 -67 156.5t-173 58.5q-111 0 -176 -62t-65 -190z" />
    <glyph glyph-name="agrave" unicode="&#xe0;" 
d="M514 1229l-197 307h150l147 -307h-100zM852 0v209q-52 -115 -154.5 -172t-228.5 -57q-157 0 -257.5 72t-100.5 210q0 72 25.5 124.5t68 82t98 49t116.5 28.5t122.5 16t117 16.5t98 25.5t68 47.5t25.5 77.5q0 104 -79.5 159.5t-207.5 55.5q-134 0 -215.5 -66t-81.5 -190
h-125q0 93 35 164t95.5 111.5t133.5 60.5t158 20q83 0 154.5 -18t130 -54.5t92 -99.5t33.5 -147v-725h-121zM236 268q0 -91 68 -137.5t185 -46.5q95 0 176 37.5t134 116t53 184.5v127q-47 -34 -131 -52t-163.5 -27t-154.5 -25.5t-121 -59.5t-46 -117z" />
    <glyph glyph-name="aacute" unicode="&#xe1;" 
d="M627 1229h-101l148 307h149zM852 0v209q-52 -115 -154.5 -172t-228.5 -57q-157 0 -257.5 72t-100.5 210q0 72 25.5 124.5t68 82t98 49t116.5 28.5t122.5 16t117 16.5t98 25.5t68 47.5t25.5 77.5q0 104 -79.5 159.5t-207.5 55.5q-134 0 -215.5 -66t-81.5 -190h-125
q0 93 35 164t95.5 111.5t133.5 60.5t158 20q83 0 154.5 -18t130 -54.5t92 -99.5t33.5 -147v-725h-121zM236 268q0 -91 68 -137.5t185 -46.5q95 0 176 37.5t134 116t53 184.5v127q-47 -34 -131 -52t-163.5 -27t-154.5 -25.5t-121 -59.5t-46 -117z" />
    <glyph glyph-name="acircumflex" unicode="&#xe2;" 
d="M365 1229h-101l225 307h148l225 -307h-100l-199 223zM852 0v209q-52 -115 -154.5 -172t-228.5 -57q-157 0 -257.5 72t-100.5 210q0 72 25.5 124.5t68 82t98 49t116.5 28.5t122.5 16t117 16.5t98 25.5t68 47.5t25.5 77.5q0 104 -79.5 159.5t-207.5 55.5q-134 0 -215.5 -66
t-81.5 -190h-125q0 93 35 164t95.5 111.5t133.5 60.5t158 20q83 0 154.5 -18t130 -54.5t92 -99.5t33.5 -147v-725h-121zM236 268q0 -91 68 -137.5t185 -46.5q95 0 176 37.5t134 116t53 184.5v127q-47 -34 -131 -52t-163.5 -27t-154.5 -25.5t-121 -59.5t-46 -117z" />
    <glyph glyph-name="atilde" unicode="&#xe3;" 
d="M252 1241v102q0 181 149 181q40 0 76.5 -20t64 -48t53.5 -56.5t55 -48.5t57 -20q77 0 77 101v79h90v-102q0 -180 -149 -180q-40 0 -76.5 20t-64 48t-53 56t-54.5 48t-57 20q-78 0 -78 -100v-80h-90zM852 0v209q-52 -115 -154.5 -172t-228.5 -57q-157 0 -257.5 72
t-100.5 210q0 72 25.5 124.5t68 82t98 49t116.5 28.5t122.5 16t117 16.5t98 25.5t68 47.5t25.5 77.5q0 104 -79.5 159.5t-207.5 55.5q-134 0 -215.5 -66t-81.5 -190h-125q0 93 35 164t95.5 111.5t133.5 60.5t158 20q83 0 154.5 -18t130 -54.5t92 -99.5t33.5 -147v-725h-121z
M236 268q0 -91 68 -137.5t185 -46.5q95 0 176 37.5t134 116t53 184.5v127q-47 -34 -131 -52t-163.5 -27t-154.5 -25.5t-121 -59.5t-46 -117z" />
    <glyph glyph-name="adieresis" unicode="&#xe4;" 
d="M358 1290q-38 0 -65 27t-27 65t27 65.5t65 27.5q39 0 66 -27t27 -66q0 -38 -26.5 -65t-66.5 -27zM768 1290q-38 0 -65 27t-27 65t27 65.5t65 27.5q39 0 65.5 -27t26.5 -66t-26.5 -65.5t-65.5 -26.5zM852 0v209q-52 -115 -154.5 -172t-228.5 -57q-157 0 -257.5 72
t-100.5 210q0 72 25.5 124.5t68 82t98 49t116.5 28.5t122.5 16t117 16.5t98 25.5t68 47.5t25.5 77.5q0 104 -79.5 159.5t-207.5 55.5q-134 0 -215.5 -66t-81.5 -190h-125q0 93 35 164t95.5 111.5t133.5 60.5t158 20q83 0 154.5 -18t130 -54.5t92 -99.5t33.5 -147v-725h-121z
M236 268q0 -91 68 -137.5t185 -46.5q95 0 176 37.5t134 116t53 184.5v127q-47 -34 -131 -52t-163.5 -27t-154.5 -25.5t-121 -59.5t-46 -117z" />
    <glyph glyph-name="aring" unicode="&#xe5;" 
d="M563 1167q-90 0 -147.5 56t-57.5 139q0 81 58 137.5t147 56.5q91 0 149 -56.5t58 -137.5q0 -83 -58 -139t-149 -56zM563 1239q56 0 90.5 35t34.5 88t-34.5 88t-90.5 35q-53 0 -88 -35.5t-35 -87.5t35 -87.5t88 -35.5zM852 0v209q-52 -115 -154.5 -172t-228.5 -57
q-157 0 -257.5 72t-100.5 210q0 72 25.5 124.5t68 82t98 49t116.5 28.5t122.5 16t117 16.5t98 25.5t68 47.5t25.5 77.5q0 104 -79.5 159.5t-207.5 55.5q-134 0 -215.5 -66t-81.5 -190h-125q0 93 35 164t95.5 111.5t133.5 60.5t158 20q83 0 154.5 -18t130 -54.5t92 -99.5
t33.5 -147v-725h-121zM236 268q0 -91 68 -137.5t185 -46.5q95 0 176 37.5t134 116t53 184.5v127q-47 -34 -131 -52t-163.5 -27t-154.5 -25.5t-121 -59.5t-46 -117z" />
    <glyph glyph-name="ae" unicode="&#xe6;" horiz-adv-x="1929" 
d="M1845 512q0 -29 -2 -43h-868q12 -174 115.5 -277.5t263.5 -103.5q117 0 204.5 58.5t127.5 160.5h131q-47 -153 -172 -240t-295 -87q-149 0 -265.5 75t-177.5 205q-45 -139 -161.5 -209.5t-264.5 -70.5q-162 0 -266 72t-104 210q0 72 25.5 124.5t68 82t98 49t116.5 28.5
t122.5 16t117 16.5t98 25.5t68 47.5t25.5 77.5q0 104 -79.5 159.5t-207.5 55.5q-134 0 -215.5 -66t-81.5 -190h-125q0 75 23 136t61.5 101t92 67.5t112.5 39.5t125 12q91 0 167 -21t136 -71t84 -125q67 102 173 159.5t235 57.5q215 0 355 -149t140 -383zM1350 936
q-157 0 -259.5 -102t-115.5 -275h749q-12 172 -114 274.5t-260 102.5zM236 268q0 -91 68 -137.5t185 -46.5q95 0 176 37.5t134 116t53 184.5v127q-47 -34 -131 -52t-163.5 -27t-154.5 -25.5t-121 -59.5t-46 -117z" />
    <glyph glyph-name="ccedilla" unicode="&#xe7;" horiz-adv-x="1171" 
d="M803 -319q0 -82 -59 -137.5t-158 -55.5q-95 0 -156 49t-61 119h82q6 -48 42.5 -72t92.5 -24q62 0 98.5 34t36.5 87t-35 86.5t-92 33.5q-81 0 -123 -57h-90l162 238q-200 15 -329.5 162t-129.5 368q0 233 142.5 382.5t359.5 149.5q196 0 334.5 -118.5t160.5 -309.5h-127
q-20 145 -123 230.5t-245 85.5q-165 0 -272 -116.5t-107 -303.5t107 -303.5t272 -116.5q148 0 251.5 91.5t120.5 246.5h127q-13 -189 -141 -312.5t-317 -135.5l-80 -115q27 6 55 6q89 0 145 -56.5t56 -135.5z" />
    <glyph glyph-name="egrave" unicode="&#xe8;" horiz-adv-x="1159" 
d="M530 1229l-196 307h149l148 -307h-101zM1075 512q0 -29 -2 -43h-868q12 -174 115.5 -277.5t263.5 -103.5q117 0 204 58.5t127 160.5h132q-47 -153 -172 -240t-295 -87q-215 0 -355.5 149.5t-140.5 382.5t140.5 382.5t355.5 149.5t355 -149t140 -383zM580 936
q-157 0 -259.5 -102t-115.5 -275h749q-12 172 -114 274.5t-260 102.5z" />
    <glyph glyph-name="eacute" unicode="&#xe9;" horiz-adv-x="1159" 
d="M643 1229h-100l147 307h150zM1075 512q0 -29 -2 -43h-868q12 -174 115.5 -277.5t263.5 -103.5q117 0 204 58.5t127 160.5h132q-47 -153 -172 -240t-295 -87q-215 0 -355.5 149.5t-140.5 382.5t140.5 382.5t355.5 149.5t355 -149t140 -383zM580 936q-157 0 -259.5 -102
t-115.5 -275h749q-12 172 -114 274.5t-260 102.5z" />
    <glyph glyph-name="ecircumflex" unicode="&#xea;" horiz-adv-x="1159" 
d="M381 1229h-100l225 307h147l226 -307h-101l-198 223zM1075 512q0 -29 -2 -43h-868q12 -174 115.5 -277.5t263.5 -103.5q117 0 204 58.5t127 160.5h132q-47 -153 -172 -240t-295 -87q-215 0 -355.5 149.5t-140.5 382.5t140.5 382.5t355.5 149.5t355 -149t140 -383z
M580 936q-157 0 -259.5 -102t-115.5 -275h749q-12 172 -114 274.5t-260 102.5z" />
    <glyph glyph-name="edieresis" unicode="&#xeb;" horiz-adv-x="1159" 
d="M375 1290q-38 0 -65 27t-27 65t27 65.5t65 27.5q39 0 65.5 -27t26.5 -66t-26.5 -65.5t-65.5 -26.5zM784 1290q-38 0 -65 27t-27 65t27 65.5t65 27.5q39 0 66 -27t27 -66q0 -38 -26.5 -65t-66.5 -27zM1075 512q0 -29 -2 -43h-868q12 -174 115.5 -277.5t263.5 -103.5
q117 0 204 58.5t127 160.5h132q-47 -153 -172 -240t-295 -87q-215 0 -355.5 149.5t-140.5 382.5t140.5 382.5t355.5 149.5t355 -149t140 -383zM580 936q-157 0 -259.5 -102t-115.5 -275h749q-12 172 -114 274.5t-260 102.5z" />
    <glyph glyph-name="igrave" unicode="&#xec;" horiz-adv-x="458" 
d="M180 1229l-196 307h149l148 -307h-101zM291 0h-123v1024h123v-1024z" />
    <glyph glyph-name="iacute" unicode="&#xed;" horiz-adv-x="458" 
d="M293 1229h-100l147 307h149zM291 0h-123v1024h123v-1024z" />
    <glyph glyph-name="icircumflex" unicode="&#xee;" horiz-adv-x="458" 
d="M31 1229h-101l226 307h147l225 -307h-100l-199 223zM291 0h-123v1024h123v-1024z" />
    <glyph glyph-name="idieresis" unicode="&#xef;" horiz-adv-x="458" 
d="M25 1290q-38 0 -65.5 27t-27.5 65t27.5 65.5t65.5 27.5q39 0 65.5 -27t26.5 -66t-26.5 -65.5t-65.5 -26.5zM434 1290q-38 0 -65 27t-27 65t27 65.5t65 27.5q39 0 65.5 -27t26.5 -66t-26.5 -65.5t-65.5 -26.5zM291 0h-123v1024h123v-1024z" />
    <glyph glyph-name="eth" unicode="&#xf0;" horiz-adv-x="1177" 
d="M1096 670q0 -149 -26.5 -266.5t-72 -196t-111 -130.5t-139.5 -74.5t-161 -22.5q-212 0 -351 138t-139 353q0 218 132.5 355t349.5 137q135 0 238 -69.5t151 -186.5q-6 361 -179 553l-253 -218h-132l324 275q-133 106 -324 106q-60 0 -114 -10v111q86 12 127 12
q231 0 401 -141l168 141h131l-237 -201q104 -113 160.5 -282t56.5 -383zM586 92q157 0 258.5 105t101.5 274t-101.5 274t-258.5 105q-160 0 -263.5 -105t-103.5 -274t103.5 -274t263.5 -105z" />
    <glyph glyph-name="ntilde" unicode="&#xf1;" horiz-adv-x="1198" 
d="M299 1241v102q0 181 150 181q40 0 76 -20t63.5 -48t53.5 -56.5t55 -48.5t57 -20q77 0 77 101v79h91v-102q0 -180 -150 -180q-40 0 -76.5 20t-64 48t-53 56t-54.5 48t-57 20q-78 0 -78 -100v-80h-90zM291 549v-549h-123v1024h123v-201q46 110 136 165.5t210 55.5
q183 0 293 -116.5t110 -352.5v-575h-122v549q0 193 -82.5 290t-231.5 97t-231 -97t-82 -290z" />
    <glyph glyph-name="ograve" unicode="&#xf2;" horiz-adv-x="1187" 
d="M545 1229l-197 307h150l147 -307h-100zM594 -20q-220 0 -365 149.5t-145 382.5t145 382.5t365 149.5t365 -149.5t145 -382.5t-145 -382.5t-365 -149.5zM594 92q168 0 277.5 116.5t109.5 303.5t-109.5 303.5t-277.5 116.5t-277.5 -116.5t-109.5 -303.5t109.5 -303.5
t277.5 -116.5z" />
    <glyph glyph-name="oacute" unicode="&#xf3;" horiz-adv-x="1187" 
d="M657 1229h-100l148 307h149zM594 -20q-220 0 -365 149.5t-145 382.5t145 382.5t365 149.5t365 -149.5t145 -382.5t-145 -382.5t-365 -149.5zM594 92q168 0 277.5 116.5t109.5 303.5t-109.5 303.5t-277.5 116.5t-277.5 -116.5t-109.5 -303.5t109.5 -303.5t277.5 -116.5z
" />
    <glyph glyph-name="ocircumflex" unicode="&#xf4;" horiz-adv-x="1187" 
d="M395 1229h-100l225 307h148l225 -307h-100l-199 223zM594 -20q-220 0 -365 149.5t-145 382.5t145 382.5t365 149.5t365 -149.5t145 -382.5t-145 -382.5t-365 -149.5zM594 92q168 0 277.5 116.5t109.5 303.5t-109.5 303.5t-277.5 116.5t-277.5 -116.5t-109.5 -303.5
t109.5 -303.5t277.5 -116.5z" />
    <glyph glyph-name="otilde" unicode="&#xf5;" horiz-adv-x="1187" 
d="M283 1241v102q0 181 149 181q40 0 76 -20t63.5 -48t53.5 -56.5t55 -48.5t57 -20q78 0 78 101v79h90v-102q0 -180 -149 -180q-40 0 -76.5 20t-64 48t-53 56t-54.5 48t-57 20q-78 0 -78 -100v-80h-90zM594 -20q-220 0 -365 149.5t-145 382.5t145 382.5t365 149.5
t365 -149.5t145 -382.5t-145 -382.5t-365 -149.5zM594 92q168 0 277.5 116.5t109.5 303.5t-109.5 303.5t-277.5 116.5t-277.5 -116.5t-109.5 -303.5t109.5 -303.5t277.5 -116.5z" />
    <glyph glyph-name="odieresis" unicode="&#xf6;" horiz-adv-x="1187" 
d="M389 1290q-38 0 -65 27t-27 65t27 65.5t65 27.5q39 0 65.5 -27t26.5 -66t-26.5 -65.5t-65.5 -26.5zM799 1290q-38 0 -65 27t-27 65t27 65.5t65 27.5q39 0 65.5 -27t26.5 -66t-26.5 -65.5t-65.5 -26.5zM594 -20q-220 0 -365 149.5t-145 382.5t145 382.5t365 149.5
t365 -149.5t145 -382.5t-145 -382.5t-365 -149.5zM594 92q168 0 277.5 116.5t109.5 303.5t-109.5 303.5t-277.5 116.5t-277.5 -116.5t-109.5 -303.5t109.5 -303.5t277.5 -116.5z" />
    <glyph glyph-name="divide" unicode="&#xf7;" 
d="M475 942q0 36 26 62t62 26q39 0 64.5 -25.5t25.5 -62.5t-25.5 -61.5t-64.5 -24.5q-36 0 -62 25t-26 61zM154 578v86h819v-86h-819zM475 295q0 36 26 62t62 26q39 0 64.5 -25.5t25.5 -62.5t-25.5 -61.5t-64.5 -24.5q-36 0 -62 25t-26 61z" />
    <glyph glyph-name="oslash" unicode="&#xf8;" horiz-adv-x="1187" 
d="M1104 512q0 -233 -145 -382.5t-365 -149.5q-180 0 -313 102l-72 -82h-125l129 147q-129 145 -129 365q0 233 145 382.5t365 149.5q180 0 313 -102l72 82h125l-129 -147q129 -145 129 -365zM207 512q0 -161 86 -274l536 616q-100 78 -235 78q-168 0 -277.5 -116.5
t-109.5 -303.5zM981 512q0 161 -86 274l-537 -616q100 -78 236 -78q168 0 277.5 116.5t109.5 303.5z" />
    <glyph glyph-name="ugrave" unicode="&#xf9;" horiz-adv-x="1187" 
d="M537 1229l-197 307h149l148 -307h-100zM897 0v205q-46 -113 -134.5 -169t-205.5 -56q-180 0 -289.5 120t-109.5 361v563h123v-537q0 -199 80.5 -299t226.5 -100q148 0 228.5 99.5t80.5 299.5v537h123v-1024h-123z" />
    <glyph glyph-name="uacute" unicode="&#xfa;" horiz-adv-x="1187" 
d="M649 1229h-100l147 307h150zM897 0v205q-46 -113 -134.5 -169t-205.5 -56q-180 0 -289.5 120t-109.5 361v563h123v-537q0 -199 80.5 -299t226.5 -100q148 0 228.5 99.5t80.5 299.5v537h123v-1024h-123z" />
    <glyph glyph-name="ucircumflex" unicode="&#xfb;" horiz-adv-x="1187" 
d="M387 1229h-100l225 307h147l226 -307h-101l-198 223zM897 0v205q-46 -113 -134.5 -169t-205.5 -56q-180 0 -289.5 120t-109.5 361v563h123v-537q0 -199 80.5 -299t226.5 -100q148 0 228.5 99.5t80.5 299.5v537h123v-1024h-123z" />
    <glyph glyph-name="udieresis" unicode="&#xfc;" horiz-adv-x="1187" 
d="M381 1290q-38 0 -65 27t-27 65t27 65.5t65 27.5q39 0 65.5 -27t26.5 -66t-26.5 -65.5t-65.5 -26.5zM791 1290q-38 0 -65.5 27t-27.5 65t27.5 65.5t65.5 27.5q39 0 65.5 -27t26.5 -66t-26.5 -65.5t-65.5 -26.5zM897 0v205q-46 -113 -134.5 -169t-205.5 -56
q-180 0 -289.5 120t-109.5 361v563h123v-537q0 -199 80.5 -299t226.5 -100q148 0 228.5 99.5t80.5 299.5v537h123v-1024h-123z" />
    <glyph glyph-name="yacute" unicode="&#xfd;" horiz-adv-x="1026" 
d="M586 1229h-101l148 307h149zM571 -133q-29 -77 -52 -128.5t-57.5 -105t-73 -84t-93.5 -50t-123 -19.5q-83 0 -145 20v111q61 -23 133 -23q59 0 103 16.5t78.5 55.5t60.5 88.5t57 128.5l-443 1147h125l377 -987l367 987h125z" />
    <glyph glyph-name="thorn" unicode="&#xfe;" horiz-adv-x="1259" 
d="M686 -20q-127 0 -230 62.5t-165 172.5v-727h-123v2048h123v-727q62 110 165 172.5t230 62.5q211 0 350.5 -149.5t139.5 -382.5t-139.5 -382.5t-350.5 -149.5zM672 92q165 0 273 116.5t108 303.5t-108 303.5t-273 116.5t-273 -116.5t-108 -303.5t108 -303.5t273 -116.5z
" />
    <glyph glyph-name="ydieresis" unicode="&#xff;" horiz-adv-x="1026" 
d="M317 1290q-38 0 -65 27t-27 65t27 65.5t65 27.5q39 0 66 -27t27 -66q0 -38 -27 -65t-66 -27zM727 1290q-38 0 -65 27t-27 65t27 65.5t65 27.5q39 0 65.5 -27t26.5 -66t-26.5 -65.5t-65.5 -26.5zM571 -133q-29 -77 -52 -128.5t-57.5 -105t-73 -84t-93.5 -50t-123 -19.5
q-83 0 -145 20v111q61 -23 133 -23q59 0 103 16.5t78.5 55.5t60.5 88.5t57 128.5l-443 1147h125l377 -987l367 987h125z" />
    <glyph glyph-name="Amacron" unicode="&#x100;" horiz-adv-x="1044" 
d="M801 1823v-88h-549v88h549zM33 0l395 1536h188l396 -1536h-125l-109 434h-512l-108 -434h-125zM295 547h455l-228 907z" />
    <glyph glyph-name="amacron" unicode="&#x101;" 
d="M842 1372v-88h-549v88h549zM852 0v209q-52 -115 -154.5 -172t-228.5 -57q-157 0 -257.5 72t-100.5 210q0 72 25.5 124.5t68 82t98 49t116.5 28.5t122.5 16t117 16.5t98 25.5t68 47.5t25.5 77.5q0 104 -79.5 159.5t-207.5 55.5q-134 0 -215.5 -66t-81.5 -190h-125
q0 93 35 164t95.5 111.5t133.5 60.5t158 20q83 0 154.5 -18t130 -54.5t92 -99.5t33.5 -147v-725h-121zM236 268q0 -91 68 -137.5t185 -46.5q95 0 176 37.5t134 116t53 184.5v127q-47 -34 -131 -52t-163.5 -27t-154.5 -25.5t-121 -59.5t-46 -117z" />
    <glyph glyph-name="Abreve" unicode="&#x102;" horiz-adv-x="1044" 
d="M711 1987h96q0 -143 -78 -225.5t-207 -82.5q-128 0 -205 82.5t-77 225.5h96q0 -107 53 -161t133 -54q85 0 137 53t52 162zM33 0l395 1536h188l396 -1536h-125l-109 434h-512l-108 -434h-125zM295 547h455l-228 907z" />
    <glyph glyph-name="abreve" unicode="&#x103;" 
d="M752 1536h96q0 -143 -78 -225t-207 -82q-128 0 -205 82t-77 225h96q0 -107 53 -161t133 -54q85 0 137 53t52 162zM852 0v209q-52 -115 -154.5 -172t-228.5 -57q-157 0 -257.5 72t-100.5 210q0 72 25.5 124.5t68 82t98 49t116.5 28.5t122.5 16t117 16.5t98 25.5t68 47.5
t25.5 77.5q0 104 -79.5 159.5t-207.5 55.5q-134 0 -215.5 -66t-81.5 -190h-125q0 93 35 164t95.5 111.5t133.5 60.5t158 20q83 0 154.5 -18t130 -54.5t92 -99.5t33.5 -147v-725h-121zM236 268q0 -91 68 -137.5t185 -46.5q95 0 176 37.5t134 116t53 184.5v127
q-47 -34 -131 -52t-163.5 -27t-154.5 -25.5t-121 -59.5t-46 -117z" />
    <glyph glyph-name="Aogonek" unicode="&#x104;" horiz-adv-x="1044" 
d="M692 -338q0 17 3 34t10.5 36t14 34.5t20.5 37.5t23 35.5t28.5 39t29.5 38t33 42t33 41.5l-109 434h-512l-108 -434h-125l395 1536h188l396 -1536h-41q-102 -123 -143.5 -199t-41.5 -129q0 -112 129 -112q56 0 92 26t42 78h94q0 -79 -64 -129.5t-166 -50.5
q-100 0 -160.5 46.5t-60.5 131.5zM295 547h455l-228 907z" />
    <glyph glyph-name="aogonek" unicode="&#x105;" 
d="M657 -330q0 37 12.5 73.5t43.5 82t52 71.5t70 83q5 6 9 10.5t8 9.5v209q-52 -115 -154.5 -172t-228.5 -57q-157 0 -257.5 72t-100.5 210q0 72 25.5 124.5t68 82t98 49t116.5 28.5t122.5 16t117 16.5t98 25.5t68 47.5t25.5 77.5q0 104 -79.5 159.5t-207.5 55.5
q-134 0 -215.5 -66t-81.5 -190h-125q0 93 35 164t95.5 111.5t133.5 60.5t158 20q83 0 154.5 -18t130 -54.5t92 -99.5t33.5 -147v-725h-39q-97 -114 -139.5 -188.5t-42.5 -130.5q0 -121 129 -121q119 0 131 104h96q0 -79 -63.5 -129.5t-165.5 -50.5q-101 0 -161.5 48
t-60.5 138zM236 268q0 -91 68 -137.5t185 -46.5q95 0 176 37.5t134 116t53 184.5v127q-47 -34 -131 -52t-163.5 -27t-154.5 -25.5t-121 -59.5t-46 -117z" />
    <glyph glyph-name="Cacute" unicode="&#x106;" horiz-adv-x="1167" 
d="M647 1679h-100l147 308h150zM897 569h123v-82q0 -251 -114 -379t-322 -128t-322.5 128t-114.5 379v562q0 251 114.5 379t322.5 128t322 -128t114 -379v-64h-123v64q0 395 -313 395q-151 0 -232.5 -97t-81.5 -298v-562q0 -395 314 -395q151 0 232 96.5t81 298.5v82z" />
    <glyph glyph-name="cacute" unicode="&#x107;" horiz-adv-x="1171" 
d="M649 1229h-100l147 307h150zM954 616q-20 145 -123 230.5t-245 85.5q-165 0 -272 -116.5t-107 -303.5t107 -303.5t272 -116.5q148 0 251.5 91.5t120.5 246.5h127q-15 -199 -155.5 -324.5t-343.5 -125.5q-217 0 -359.5 149.5t-142.5 382.5t142.5 382.5t359.5 149.5
q196 0 334.5 -118.5t160.5 -309.5h-127z" />
    <glyph glyph-name="Ccircumflex" unicode="&#x108;" horiz-adv-x="1167" 
d="M383 1679h-100l225 308h147l226 -308h-101l-198 224zM897 569h123v-82q0 -251 -114 -379t-322 -128t-322.5 128t-114.5 379v562q0 251 114.5 379t322.5 128t322 -128t114 -379v-64h-123v64q0 395 -313 395q-151 0 -232.5 -97t-81.5 -298v-562q0 -395 314 -395
q151 0 232 96.5t81 298.5v82z" />
    <glyph glyph-name="ccircumflex" unicode="&#x109;" horiz-adv-x="1171" 
d="M387 1229h-100l225 307h147l226 -307h-101l-198 223zM954 616q-20 145 -123 230.5t-245 85.5q-165 0 -272 -116.5t-107 -303.5t107 -303.5t272 -116.5q148 0 251.5 91.5t120.5 246.5h127q-15 -199 -155.5 -324.5t-343.5 -125.5q-217 0 -359.5 149.5t-142.5 382.5
t142.5 382.5t359.5 149.5q196 0 334.5 -118.5t160.5 -309.5h-127z" />
    <glyph glyph-name="Cdotaccent" unicode="&#x10a;" horiz-adv-x="1167" 
d="M584 1733q-43 0 -72 28.5t-29 71.5t29 71.5t72 28.5q44 0 72 -28.5t28 -71.5t-28 -71.5t-72 -28.5zM897 569h123v-82q0 -251 -114 -379t-322 -128t-322.5 128t-114.5 379v562q0 251 114.5 379t322.5 128t322 -128t114 -379v-64h-123v64q0 395 -313 395q-151 0 -232.5 -97
t-81.5 -298v-562q0 -395 314 -395q151 0 232 96.5t81 298.5v82z" />
    <glyph glyph-name="cdotaccent" unicode="&#x10b;" horiz-adv-x="1171" 
d="M586 1282q-43 0 -72 28.5t-29 71.5t29 72t72 29q44 0 72 -29t28 -72t-28 -71.5t-72 -28.5zM954 616q-20 145 -123 230.5t-245 85.5q-165 0 -272 -116.5t-107 -303.5t107 -303.5t272 -116.5q148 0 251.5 91.5t120.5 246.5h127q-15 -199 -155.5 -324.5t-343.5 -125.5
q-217 0 -359.5 149.5t-142.5 382.5t142.5 382.5t359.5 149.5q196 0 334.5 -118.5t160.5 -309.5h-127z" />
    <glyph glyph-name="Ccaron" unicode="&#x10c;" horiz-adv-x="1167" 
d="M881 1987l-226 -308h-147l-225 308h100l199 -224l198 224h101zM897 569h123v-82q0 -251 -114 -379t-322 -128t-322.5 128t-114.5 379v562q0 251 114.5 379t322.5 128t322 -128t114 -379v-64h-123v64q0 395 -313 395q-151 0 -232.5 -97t-81.5 -298v-562q0 -395 314 -395
q151 0 232 96.5t81 298.5v82z" />
    <glyph glyph-name="ccaron" unicode="&#x10d;" horiz-adv-x="1171" 
d="M885 1536l-226 -307h-147l-225 307h100l199 -223l198 223h101zM954 616q-20 145 -123 230.5t-245 85.5q-165 0 -272 -116.5t-107 -303.5t107 -303.5t272 -116.5q148 0 251.5 91.5t120.5 246.5h127q-15 -199 -155.5 -324.5t-343.5 -125.5q-217 0 -359.5 149.5
t-142.5 382.5t142.5 382.5t359.5 149.5q196 0 334.5 -118.5t160.5 -309.5h-127z" />
    <glyph glyph-name="Dcaron" unicode="&#x10e;" horiz-adv-x="1167" 
d="M864 1987l-225 -308h-147l-226 308h101l198 -224l199 224h100zM559 1536q222 0 341.5 -126t119.5 -386v-512q0 -260 -119.5 -386t-341.5 -126h-391v1536h391zM559 113q164 0 251 95t87 304v512q0 210 -86 304.5t-252 94.5h-268v-1310h268z" />
    <glyph glyph-name="dcaron" unicode="&#x10f;" horiz-adv-x="1259" 
d="M969 0v217q-62 -111 -166 -174t-230 -63q-211 0 -350 149.5t-139 382.5t139 382.5t350 149.5q126 0 230 -63t166 -174v729h123v-1536h-123zM1264 1536h125l-76 -379h-74zM588 932q-165 0 -273 -116.5t-108 -303.5t108 -303.5t273 -116.5t273 116.5t108 303.5t-108 303.5
t-273 116.5z" />
    <glyph glyph-name="Dcroat" unicode="&#x110;" horiz-adv-x="1167" 
d="M1020 512q0 -260 -119.5 -386t-341.5 -126h-391v752h-168v86h168v698h391q222 0 341.5 -126t119.5 -386v-512zM291 113h268q164 0 251 95t87 304v512q0 210 -86 304.5t-252 94.5h-268v-585h291v-86h-291v-639z" />
    <glyph glyph-name="dcroat" unicode="&#x111;" horiz-adv-x="1259" 
d="M969 0v215q-62 -110 -165.5 -172.5t-230.5 -62.5q-211 0 -350 149.5t-139 382.5t139 382.5t350 149.5q127 0 230.5 -62.5t165.5 -172.5v442h-383v78h383v207h123v-207h168v-78h-168v-1251h-123zM588 932q-165 0 -273 -116.5t-108 -303.5t108 -303.5t273 -116.5t273 116.5
t108 303.5t-108 303.5t-273 116.5z" />
    <glyph glyph-name="Emacron" unicode="&#x112;" horiz-adv-x="929" 
d="M784 1823v-88h-548v88h548zM168 0v1536h655v-113h-532v-573h491v-111h-491v-626h532v-113h-655z" />
    <glyph glyph-name="emacron" unicode="&#x113;" horiz-adv-x="1159" 
d="M858 1372v-88h-549v88h549zM1075 512q0 -29 -2 -43h-868q12 -174 115.5 -277.5t263.5 -103.5q117 0 204 58.5t127 160.5h132q-47 -153 -172 -240t-295 -87q-215 0 -355.5 149.5t-140.5 382.5t140.5 382.5t355.5 149.5t355 -149t140 -383zM580 936q-157 0 -259.5 -102
t-115.5 -275h749q-12 172 -114 274.5t-260 102.5z" />
    <glyph glyph-name="Ebreve" unicode="&#x114;" horiz-adv-x="929" 
d="M694 1987h97q0 -143 -78 -225.5t-207 -82.5q-128 0 -205.5 82.5t-77.5 225.5h96q0 -107 53.5 -161t133.5 -54q85 0 136.5 53t51.5 162zM168 0v1536h655v-113h-532v-573h491v-111h-491v-626h532v-113h-655z" />
    <glyph glyph-name="ebreve" unicode="&#x115;" horiz-adv-x="1159" 
d="M768 1536h96q0 -143 -77.5 -225t-206.5 -82q-128 0 -205.5 82t-77.5 225h96q0 -107 53.5 -161t133.5 -54q85 0 136.5 53t51.5 162zM1075 512q0 -29 -2 -43h-868q12 -174 115.5 -277.5t263.5 -103.5q117 0 204 58.5t127 160.5h132q-47 -153 -172 -240t-295 -87
q-215 0 -355.5 149.5t-140.5 382.5t140.5 382.5t355.5 149.5t355 -149t140 -383zM580 936q-157 0 -259.5 -102t-115.5 -275h749q-12 172 -114 274.5t-260 102.5z" />
    <glyph glyph-name="Edotaccent" unicode="&#x116;" horiz-adv-x="929" 
d="M506 1733q-43 0 -71.5 28.5t-28.5 71.5t28.5 71.5t71.5 28.5q44 0 72 -28.5t28 -71.5t-28 -71.5t-72 -28.5zM168 0v1536h655v-113h-532v-573h491v-111h-491v-626h532v-113h-655z" />
    <glyph glyph-name="edotaccent" unicode="&#x117;" horiz-adv-x="1159" 
d="M580 1282q-43 0 -72 28.5t-29 71.5t29 72t72 29q44 0 72 -29t28 -72t-28 -71.5t-72 -28.5zM1075 512q0 -29 -2 -43h-868q12 -174 115.5 -277.5t263.5 -103.5q117 0 204 58.5t127 160.5h132q-47 -153 -172 -240t-295 -87q-215 0 -355.5 149.5t-140.5 382.5t140.5 382.5
t355.5 149.5t355 -149t140 -383zM580 936q-157 0 -259.5 -102t-115.5 -275h749q-12 172 -114 274.5t-260 102.5z" />
    <glyph glyph-name="Eogonek" unicode="&#x118;" horiz-adv-x="929" 
d="M823 113v-113h-170q-102 -124 -144 -200t-42 -128q0 -112 129 -112q56 0 91.5 26t41.5 78h94q0 -79 -63.5 -129.5t-165.5 -50.5q-100 0 -160.5 46.5t-60.5 131.5q0 17 2.5 34t10.5 36.5t14 34t21 37.5t22.5 35.5t28 39.5t29 37.5t33.5 42t33 41.5h-399v1536h655v-113
h-532v-573h491v-111h-491v-626h532z" />
    <glyph glyph-name="eogonek" unicode="&#x119;" horiz-adv-x="1159" 
d="M1075 512q0 -29 -2 -43h-868q12 -174 115.5 -277.5t263.5 -103.5q117 0 204 58.5t127 160.5h132q-17 -62 -59 -134t-89.5 -135t-93 -125.5t-75.5 -124.5t-30 -112q0 -116 136 -116q56 0 91.5 26t41.5 78h84q-2 -74 -62 -125t-155 -51q-99 0 -158.5 47t-59.5 133
q0 36 11.5 75t26 69t47.5 76t54 73t68 84q-112 -65 -245 -65q-215 0 -355.5 149.5t-140.5 382.5t140.5 382.5t355.5 149.5t355 -149t140 -383zM580 936q-157 0 -259.5 -102t-115.5 -275h749q-12 172 -114 274.5t-260 102.5z" />
    <glyph glyph-name="Ecaron" unicode="&#x11a;" horiz-adv-x="929" 
d="M803 1987l-225 -308h-148l-225 308h100l199 -224l198 224h101zM168 0v1536h655v-113h-532v-573h491v-111h-491v-626h532v-113h-655z" />
    <glyph glyph-name="ecaron" unicode="&#x11b;" horiz-adv-x="1159" 
d="M879 1536l-226 -307h-147l-225 307h100l199 -223l198 223h101zM1075 512q0 -29 -2 -43h-868q12 -174 115.5 -277.5t263.5 -103.5q117 0 204 58.5t127 160.5h132q-47 -153 -172 -240t-295 -87q-215 0 -355.5 149.5t-140.5 382.5t140.5 382.5t355.5 149.5t355 -149
t140 -383zM580 936q-157 0 -259.5 -102t-115.5 -275h749q-12 172 -114 274.5t-260 102.5z" />
    <glyph glyph-name="Gcircumflex" unicode="&#x11c;" horiz-adv-x="1177" 
d="M383 1679h-100l225 308h147l226 -308h-101l-198 224zM553 809h467v-809h-109v221q-42 -120 -131 -180.5t-217 -60.5q-197 0 -306.5 128.5t-109.5 378.5v562q0 251 114.5 379t322.5 128t322 -128t114 -379v-64h-123v64q0 395 -313 395q-151 0 -232.5 -97t-81.5 -298v-562
q0 -395 314 -395q150 0 231.5 96t81.5 291v217h-344v113z" />
    <glyph glyph-name="gcircumflex" unicode="&#x11d;" horiz-adv-x="1259" 
d="M385 1229h-100l225 307h147l226 -307h-101l-198 223zM1092 -25q0 -151 -65 -267.5t-175.5 -178t-247.5 -61.5q-193 0 -327 117.5t-160 308.5h125q25 -143 121.5 -227.5t240.5 -84.5q169 0 267 108.5t98 284.5v242q-62 -111 -166 -174t-230 -63q-211 0 -350 149.5
t-139 382.5t139 382.5t350 149.5q126 0 230 -63t166 -174v217h123v-1049zM588 92q165 0 273 116.5t108 303.5t-108 303.5t-273 116.5t-273 -116.5t-108 -303.5t108 -303.5t273 -116.5z" />
    <glyph glyph-name="Gbreve" unicode="&#x11e;" horiz-adv-x="1177" 
d="M772 1987h96q0 -143 -77.5 -225.5t-206.5 -82.5q-128 0 -205.5 82.5t-77.5 225.5h96q0 -107 53.5 -161t133.5 -54q85 0 136.5 53t51.5 162zM553 809h467v-809h-109v221q-42 -120 -131 -180.5t-217 -60.5q-197 0 -306.5 128.5t-109.5 378.5v562q0 251 114.5 379t322.5 128
t322 -128t114 -379v-64h-123v64q0 395 -313 395q-151 0 -232.5 -97t-81.5 -298v-562q0 -395 314 -395q150 0 231.5 96t81.5 291v217h-344v113z" />
    <glyph glyph-name="gbreve" unicode="&#x11f;" horiz-adv-x="1259" 
d="M772 1536h96q0 -143 -77.5 -225t-206.5 -82q-128 0 -205.5 82t-77.5 225h96q0 -107 53.5 -161t133.5 -54q85 0 136.5 53t51.5 162zM1092 -25q0 -151 -65 -267.5t-175.5 -178t-247.5 -61.5q-193 0 -327 117.5t-160 308.5h125q25 -143 121.5 -227.5t240.5 -84.5
q169 0 267 108.5t98 284.5v242q-62 -111 -166 -174t-230 -63q-211 0 -350 149.5t-139 382.5t139 382.5t350 149.5q126 0 230 -63t166 -174v217h123v-1049zM588 92q165 0 273 116.5t108 303.5t-108 303.5t-273 116.5t-273 -116.5t-108 -303.5t108 -303.5t273 -116.5z" />
    <glyph glyph-name="Gdotaccent" unicode="&#x120;" horiz-adv-x="1177" 
d="M584 1733q-43 0 -72 28.5t-29 71.5t29 71.5t72 28.5q44 0 72 -28.5t28 -71.5t-28 -71.5t-72 -28.5zM553 809h467v-809h-109v221q-42 -120 -131 -180.5t-217 -60.5q-197 0 -306.5 128.5t-109.5 378.5v562q0 251 114.5 379t322.5 128t322 -128t114 -379v-64h-123v64
q0 395 -313 395q-151 0 -232.5 -97t-81.5 -298v-562q0 -395 314 -395q150 0 231.5 96t81.5 291v217h-344v113z" />
    <glyph glyph-name="gdotaccent" unicode="&#x121;" horiz-adv-x="1259" 
d="M584 1282q-43 0 -72 28.5t-29 71.5t29 72t72 29q44 0 72 -29t28 -72t-28 -71.5t-72 -28.5zM1092 -25q0 -151 -65 -267.5t-175.5 -178t-247.5 -61.5q-193 0 -327 117.5t-160 308.5h125q25 -143 121.5 -227.5t240.5 -84.5q169 0 267 108.5t98 284.5v242q-62 -111 -166 -174
t-230 -63q-211 0 -350 149.5t-139 382.5t139 382.5t350 149.5q126 0 230 -63t166 -174v217h123v-1049zM588 92q165 0 273 116.5t108 303.5t-108 303.5t-273 116.5t-273 -116.5t-108 -303.5t108 -303.5t273 -116.5z" />
    <glyph glyph-name="Gcommaaccent" unicode="&#x122;" horiz-adv-x="1177" 
d="M553 809h467v-809h-109v221q-42 -120 -131 -180.5t-217 -60.5q-197 0 -306.5 128.5t-109.5 378.5v562q0 251 114.5 379t322.5 128t322 -128t114 -379v-64h-123v64q0 395 -313 395q-151 0 -232.5 -97t-81.5 -298v-562q0 -395 314 -395q150 0 231.5 96t81.5 291v217h-344
v113zM518 -430h-84l62 307h141z" />
    <glyph glyph-name="gcommaaccent" unicode="&#x123;" horiz-adv-x="1259" 
d="M637 1597h84l-62 -307h-141zM1092 -25q0 -151 -65 -267.5t-175.5 -178t-247.5 -61.5q-193 0 -327 117.5t-160 308.5h125q25 -143 121.5 -227.5t240.5 -84.5q169 0 267 108.5t98 284.5v242q-62 -111 -166 -174t-230 -63q-211 0 -350 149.5t-139 382.5t139 382.5t350 149.5
q126 0 230 -63t166 -174v217h123v-1049zM588 92q165 0 273 116.5t108 303.5t-108 303.5t-273 116.5t-273 -116.5t-108 -303.5t108 -303.5t273 -116.5z" />
    <glyph glyph-name="Hcircumflex" unicode="&#x124;" horiz-adv-x="1208" 
d="M403 1679h-100l225 308h148l225 -308h-100l-199 224zM918 0v739h-627v-739h-123v1536h123v-686h627v686h122v-1536h-122z" />
    <glyph glyph-name="hcircumflex" unicode="&#x125;" horiz-adv-x="1198" 
d="M410 1679h-101l226 308h147l225 -308h-100l-199 224zM291 549v-549h-123v1536h123v-713q46 110 136 165.5t210 55.5q183 0 293 -116.5t110 -352.5v-575h-122v549q0 193 -82.5 290t-231.5 97t-231 -97t-82 -290z" />
    <glyph glyph-name="Hbar" unicode="&#x126;" horiz-adv-x="1208" 
d="M918 0v739h-627v-739h-123v1157h-168v86h168v293h123v-293h627v293h122v-293h168v-86h-168v-1157h-122zM291 850h627v307h-627v-307z" />
    <glyph glyph-name="hbar" unicode="&#x127;" horiz-adv-x="1198" 
d="M291 549v-549h-123v1251h-168v78h168v207h123v-207h338v-78h-338v-428q46 110 136 165.5t210 55.5q183 0 293 -116.5t110 -352.5v-575h-122v549q0 193 -82.5 290t-231.5 97t-231 -97t-82 -290z" />
    <glyph glyph-name="Itilde" unicode="&#x128;" horiz-adv-x="458" 
d="M-82 1692v102q0 180 150 180q40 0 76 -20t63.5 -48t53.5 -56t55 -48t57 -20q78 0 78 100v80h90v-102q0 -181 -150 -181q-40 0 -76.5 20t-64 48.5t-53 56.5t-54.5 48t-57 20q-78 0 -78 -100v-80h-90zM291 0h-123v1536h123v-1536z" />
    <glyph glyph-name="itilde" unicode="&#x129;" horiz-adv-x="458" 
d="M-82 1241v102q0 181 150 181q40 0 76 -20t63.5 -48t53.5 -56.5t55 -48.5t57 -20q78 0 78 101v79h90v-102q0 -180 -150 -180q-40 0 -76.5 20t-64 48t-53 56t-54.5 48t-57 20q-78 0 -78 -100v-80h-90zM291 0h-123v1024h123v-1024z" />
    <glyph glyph-name="Imacron" unicode="&#x12a;" horiz-adv-x="458" 
d="M508 1823v-88h-549v88h549zM291 0h-123v1536h123v-1536z" />
    <glyph glyph-name="imacron" unicode="&#x12b;" horiz-adv-x="458" 
d="M508 1372v-88h-549v88h549zM291 0h-123v1024h123v-1024z" />
    <glyph glyph-name="Ibreve" unicode="&#x12c;" horiz-adv-x="458" 
d="M418 1987h96q0 -143 -78 -225.5t-207 -82.5q-128 0 -205 82.5t-77 225.5h96q0 -107 53 -161t133 -54q85 0 137 53t52 162zM291 0h-123v1536h123v-1536z" />
    <glyph glyph-name="ibreve" unicode="&#x12d;" horiz-adv-x="458" 
d="M418 1536h96q0 -143 -78 -225t-207 -82q-128 0 -205 82t-77 225h96q0 -107 53 -161t133 -54q85 0 137 53t52 162zM291 0h-123v1024h123v-1024z" />
    <glyph glyph-name="Iogonek" unicode="&#x12e;" horiz-adv-x="458" 
d="M4 -338q0 79 49.5 159.5t139.5 178.5h-25v1536h123v-1536h-17q-98 -112 -137 -187.5t-39 -140.5q0 -112 129 -112q56 0 91.5 26t41.5 78h95q0 -79 -64 -129.5t-166 -50.5q-100 0 -160.5 46.5t-60.5 131.5z" />
    <glyph glyph-name="iogonek" unicode="&#x12f;" horiz-adv-x="458" 
d="M229 1286q-43 0 -71.5 28.5t-28.5 71.5t28.5 72t71.5 29q44 0 72.5 -29t28.5 -72t-28.5 -71.5t-72.5 -28.5zM-2 -338q0 17 3 34t10.5 36t14 34.5t20.5 37.5t23 35.5t28.5 39t29.5 38t33 42t33 41.5h-25v1024h123v-1024h-17q-100 -123 -141 -198.5t-41 -129.5
q0 -112 129 -112q56 0 91.5 26t41.5 78h95q0 -79 -64 -129.5t-166 -50.5q-100 0 -160.5 46.5t-60.5 131.5z" />
    <glyph glyph-name="Idotaccent" unicode="&#x130;" horiz-adv-x="458" 
d="M229 1733q-43 0 -71.5 28.5t-28.5 71.5t28.5 71.5t71.5 28.5q44 0 72.5 -28.5t28.5 -71.5t-28.5 -71.5t-72.5 -28.5zM291 0h-123v1536h123v-1536z" />
    <glyph glyph-name="dotlessi" unicode="&#x131;" horiz-adv-x="458" 
d="M291 0h-123v1024h123v-1024z" />
    <glyph glyph-name="IJ" unicode="&#x132;" horiz-adv-x="1478" 
d="M291 0h-123v1536h123v-1536zM1208 1536h123v-1139q0 -203 -108.5 -310t-286.5 -107t-286.5 107t-108.5 310v123h123v-114q0 -157 74 -235.5t198 -78.5q126 0 199 78.5t73 235.5v1130z" />
    <glyph glyph-name="ij" unicode="&#x133;" horiz-adv-x="917" 
d="M229 1286q-43 0 -71.5 28.5t-28.5 71.5t28.5 72t71.5 29q44 0 72.5 -29t28.5 -72t-28.5 -71.5t-72.5 -28.5zM688 1286q-43 0 -71.5 28.5t-28.5 71.5t28.5 72t71.5 29q44 0 72 -29t28 -72t-28 -71.5t-72 -28.5zM291 0h-123v1024h123v-1024zM627 -238v1262h123v-1266
q0 -270 -256 -270q-63 0 -93 10v111q33 -8 78 -8q72 0 110 35t38 126z" />
    <glyph glyph-name="Jcircumflex" unicode="&#x134;" horiz-adv-x="1019" 
d="M610 1679h-100l225 308h148l225 -308h-100l-199 224zM750 1536h122v-1139q0 -203 -108.5 -310t-286.5 -107t-286.5 107t-108.5 310v123h123v-114q0 -157 74 -235.5t198 -78.5q127 0 200 78.5t73 235.5v1130z" />
    <glyph glyph-name="jcircumflex" unicode="&#x135;" horiz-adv-x="458" 
d="M31 1229h-101l226 307h147l225 -307h-100l-199 223zM168 -238v1262h123v-1266q0 -270 -256 -270q-62 0 -92 10v111q33 -8 77 -8q72 0 110 35t38 126z" />
    <glyph glyph-name="Kcommaaccent" unicode="&#x136;" horiz-adv-x="1062" 
d="M893 0l-444 739l-158 -229v-510h-123v1536h123v-840l579 840h138l-467 -690l499 -846h-147zM487 -430h-84l62 307h141z" />
    <glyph glyph-name="kcommaaccent" unicode="&#x137;" horiz-adv-x="1075" 
d="M887 0l-422 512l-174 -176v-336h-123v1536h123v-1059l540 547h164l-428 -434l484 -590h-164zM504 -430h-84l61 307h142z" />
    <glyph glyph-name="Lacute" unicode="&#x139;" horiz-adv-x="888" 
d="M293 1679h-100l147 308h149zM831 113v-113h-663v1536h123v-1423h540z" />
    <glyph glyph-name="lacute" unicode="&#x13a;" horiz-adv-x="458" 
d="M289 1679h-101l148 308h149zM291 0h-123v1536h123v-1536z" />
    <glyph glyph-name="Lcommaaccent" unicode="&#x13b;" horiz-adv-x="888" 
d="M831 113v-113h-663v1536h123v-1423h540zM467 -430h-84l61 307h142z" />
    <glyph glyph-name="lcommaaccent" unicode="&#x13c;" horiz-adv-x="458" 
d="M291 0h-123v1536h123v-1536zM184 -430h-84l62 307h141z" />
    <glyph glyph-name="Lcaron" unicode="&#x13d;" horiz-adv-x="888" 
d="M831 113v-113h-663v1536h123v-1423h540zM498 1536h125l-76 -379h-74z" />
    <glyph glyph-name="lcaron" unicode="&#x13e;" horiz-adv-x="458" 
d="M291 0h-123v1536h123v-1536zM451 1536h124l-75 -379h-74z" />
    <glyph glyph-name="Ldot" unicode="&#x13f;" horiz-adv-x="888" 
d="M831 113v-113h-663v1536h123v-1423h540zM659 696q-43 0 -71.5 29t-28.5 72t28.5 71.5t71.5 28.5q44 0 72.5 -28.5t28.5 -71.5t-28.5 -72t-72.5 -29z" />
    <glyph glyph-name="ldot" unicode="&#x140;" horiz-adv-x="458" 
d="M291 0h-123v1536h123v-1536zM492 672q-43 0 -72 28.5t-29 71.5t29 71.5t72 28.5q44 0 72 -28.5t28 -71.5t-28 -71.5t-72 -28.5z" />
    <glyph glyph-name="Lslash" unicode="&#x141;" horiz-adv-x="888" 
d="M831 113v-113h-663v674l-168 -105v107l168 104v756h123v-680l303 188v-106l-303 -188v-637h540z" />
    <glyph glyph-name="lslash" unicode="&#x142;" horiz-adv-x="458" 
d="M459 936l-168 -121v-815h-123v727l-168 -121v109l168 121v700h123v-612l168 120v-108z" />
    <glyph glyph-name="Nacute" unicode="&#x143;" horiz-adv-x="1208" 
d="M668 1679h-101l148 308h149zM1040 1536v-1536h-204l-553 1470v-1470h-115v1536h209l549 -1460v1460h114z" />
    <glyph glyph-name="nacute" unicode="&#x144;" horiz-adv-x="1198" 
d="M674 1229h-101l148 307h149zM291 549v-549h-123v1024h123v-201q46 110 136 165.5t210 55.5q183 0 293 -116.5t110 -352.5v-575h-122v549q0 193 -82.5 290t-231.5 97t-231 -97t-82 -290z" />
    <glyph glyph-name="Ncommaaccent" unicode="&#x145;" horiz-adv-x="1208" 
d="M1040 1536v-1536h-204l-553 1470v-1470h-115v1536h209l549 -1460v1460h114zM559 -430h-84l62 307h141z" />
    <glyph glyph-name="ncommaaccent" unicode="&#x146;" horiz-adv-x="1198" 
d="M291 549v-549h-123v1024h123v-201q46 110 136 165.5t210 55.5q183 0 293 -116.5t110 -352.5v-575h-122v549q0 193 -82.5 290t-231.5 97t-231 -97t-82 -290zM565 -430h-84l62 307h141z" />
    <glyph glyph-name="Ncaron" unicode="&#x147;" horiz-adv-x="1208" 
d="M901 1987l-225 -308h-148l-225 308h100l199 -224l199 224h100zM1040 1536v-1536h-204l-553 1470v-1470h-115v1536h209l549 -1460v1460h114z" />
    <glyph glyph-name="ncaron" unicode="&#x148;" horiz-adv-x="1198" 
d="M909 1536l-225 -307h-147l-226 307h101l198 -223l199 223h100zM291 549v-549h-123v1024h123v-201q46 110 136 165.5t210 55.5q183 0 293 -116.5t110 -352.5v-575h-122v549q0 193 -82.5 290t-231.5 97t-231 -97t-82 -290z" />
    <glyph glyph-name="Eng" unicode="&#x14a;" horiz-adv-x="1208" 
d="M168 0v1536h209l549 -1454v1454h114v-1655q0 -109 -25.5 -187t-74 -122t-110.5 -64t-144 -20q-62 0 -92 10v111q33 -8 78 -8q57 0 100.5 13t79.5 44t55 88t19 139v115h-90l-553 1466v-1466h-115z" />
    <glyph glyph-name="eng" unicode="&#x14b;" horiz-adv-x="1198" 
d="M637 1044q183 0 293 -116.5t110 -352.5v-718q0 -369 -348 -369q-65 0 -98 10v111q36 -8 84 -8q116 0 178 57t62 203v688q0 193 -82.5 290t-231.5 97t-231 -97t-82 -290v-549h-123v1024h123v-201q46 110 136 165.5t210 55.5z" />
    <glyph glyph-name="Omacron" unicode="&#x14c;" horiz-adv-x="1167" 
d="M862 1823v-88h-549v88h549zM584 -20q-208 0 -322.5 128t-114.5 379v562q0 251 114.5 379t322.5 128t322 -128t114 -379v-562q0 -251 -114 -379t-322 -128zM584 92q151 0 232 96.5t81 298.5v562q0 395 -313 395q-151 0 -232.5 -97t-81.5 -298v-562q0 -395 314 -395z" />
    <glyph glyph-name="omacron" unicode="&#x14d;" horiz-adv-x="1187" 
d="M872 1372v-88h-548v88h548zM594 -20q-220 0 -365 149.5t-145 382.5t145 382.5t365 149.5t365 -149.5t145 -382.5t-145 -382.5t-365 -149.5zM594 92q168 0 277.5 116.5t109.5 303.5t-109.5 303.5t-277.5 116.5t-277.5 -116.5t-109.5 -303.5t109.5 -303.5t277.5 -116.5z
" />
    <glyph glyph-name="Obreve" unicode="&#x14e;" horiz-adv-x="1167" 
d="M772 1987h96q0 -143 -77.5 -225.5t-206.5 -82.5q-128 0 -205.5 82.5t-77.5 225.5h96q0 -107 53.5 -161t133.5 -54q85 0 136.5 53t51.5 162zM584 -20q-208 0 -322.5 128t-114.5 379v562q0 251 114.5 379t322.5 128t322 -128t114 -379v-562q0 -251 -114 -379t-322 -128z
M584 92q151 0 232 96.5t81 298.5v562q0 395 -313 395q-151 0 -232.5 -97t-81.5 -298v-562q0 -395 314 -395z" />
    <glyph glyph-name="obreve" unicode="&#x14f;" horiz-adv-x="1187" 
d="M782 1536h97q0 -143 -78 -225t-207 -82q-128 0 -205.5 82t-77.5 225h97q0 -107 53 -161t133 -54q85 0 136.5 53t51.5 162zM594 -20q-220 0 -365 149.5t-145 382.5t145 382.5t365 149.5t365 -149.5t145 -382.5t-145 -382.5t-365 -149.5zM594 92q168 0 277.5 116.5
t109.5 303.5t-109.5 303.5t-277.5 116.5t-277.5 -116.5t-109.5 -303.5t109.5 -303.5t277.5 -116.5z" />
    <glyph glyph-name="Ohungarumlaut" unicode="&#x150;" horiz-adv-x="1167" 
d="M455 1679h-84l61 308h141zM823 1679h-84l62 308h141zM584 -20q-208 0 -322.5 128t-114.5 379v562q0 251 114.5 379t322.5 128t322 -128t114 -379v-562q0 -251 -114 -379t-322 -128zM584 92q151 0 232 96.5t81 298.5v562q0 395 -313 395q-151 0 -232.5 -97t-81.5 -298
v-562q0 -395 314 -395z" />
    <glyph glyph-name="ohungarumlaut" unicode="&#x151;" horiz-adv-x="1187" 
d="M465 1229h-84l61 307h142zM834 1229h-84l61 307h141zM594 -20q-220 0 -365 149.5t-145 382.5t145 382.5t365 149.5t365 -149.5t145 -382.5t-145 -382.5t-365 -149.5zM594 92q168 0 277.5 116.5t109.5 303.5t-109.5 303.5t-277.5 116.5t-277.5 -116.5t-109.5 -303.5
t109.5 -303.5t277.5 -116.5z" />
    <glyph glyph-name="OE" unicode="&#x152;" horiz-adv-x="1638" 
d="M608 0q-213 0 -337 130.5t-124 389.5v496q0 259 124 389.5t337 130.5h924v-113h-533v-573h492v-111h-492v-626h533v-113h-924zM608 1423q-338 0 -338 -415v-480q0 -415 338 -415h269v1310h-269z" />
    <glyph glyph-name="oe" unicode="&#x153;" horiz-adv-x="2060" 
d="M1976 512q0 -29 -2 -43h-868q12 -174 115.5 -277.5t263.5 -103.5q117 0 204.5 58.5t127.5 160.5h131q-47 -153 -172 -240t-295 -87q-148 0 -264.5 74t-176.5 204q-62 -130 -179.5 -204t-266.5 -74q-220 0 -365 149.5t-145 382.5t145 382.5t365 149.5q149 0 266.5 -74
t179.5 -204q60 130 176.5 204t264.5 74q215 0 355 -149t140 -383zM1481 936q-157 0 -259.5 -102t-115.5 -275h749q-12 172 -114.5 274.5t-259.5 102.5zM594 92q168 0 277.5 116.5t109.5 303.5t-109.5 303.5t-277.5 116.5t-277.5 -116.5t-109.5 -303.5t109.5 -303.5
t277.5 -116.5z" />
    <glyph glyph-name="Racute" unicode="&#x154;" 
d="M602 1679h-100l147 308h150zM168 0v1536h424q188 0 304 -96.5t116 -270.5v-61q0 -172 -104 -268.5t-273 -112.5l414 -727h-146l-399 725h-213v-725h-123zM571 1423h-280v-594h280q318 0 318 299v21q0 274 -318 274z" />
    <glyph glyph-name="racute" unicode="&#x155;" horiz-adv-x="825" 
d="M518 1229h-100l147 307h150zM291 496v-496h-123v1024h123v-227q51 123 148.5 185t228.5 62q52 0 92 -12v-131q-52 19 -115 19q-170 0 -262 -106t-92 -318z" />
    <glyph glyph-name="Rcommaaccent" unicode="&#x156;" 
d="M168 0v1536h424q188 0 304 -96.5t116 -270.5v-61q0 -172 -104 -268.5t-273 -112.5l414 -727h-146l-399 725h-213v-725h-123zM571 1423h-280v-594h280q318 0 318 299v21q0 274 -318 274zM504 -430h-84l61 307h142z" />
    <glyph glyph-name="rcommaaccent" unicode="&#x157;" horiz-adv-x="825" 
d="M291 496v-496h-123v1024h123v-227q51 123 148.5 185t228.5 62q52 0 92 -12v-131q-52 19 -115 19q-170 0 -262 -106t-92 -318zM184 -430h-84l62 307h141z" />
    <glyph glyph-name="Rcaron" unicode="&#x158;" 
d="M836 1987l-226 -308h-147l-225 308h100l199 -224l198 224h101zM168 0v1536h424q188 0 304 -96.5t116 -270.5v-61q0 -172 -104 -268.5t-273 -112.5l414 -727h-146l-399 725h-213v-725h-123zM571 1423h-280v-594h280q318 0 318 299v21q0 274 -318 274z" />
    <glyph glyph-name="rcaron" unicode="&#x159;" horiz-adv-x="825" 
d="M754 1536l-226 -307h-147l-225 307h100l199 -223l198 223h101zM291 496v-496h-123v1024h123v-227q51 123 148.5 185t228.5 62q52 0 92 -12v-131q-52 19 -115 19q-170 0 -262 -106t-92 -318z" />
    <glyph glyph-name="Sacute" unicode="&#x15a;" horiz-adv-x="993" 
d="M563 1679h-100l147 308h150zM135 1200q0 181 101 268.5t264 87.5q167 0 268.5 -104.5t101.5 -304.5v-78h-122v72q0 153 -64.5 228t-183.5 75q-110 0 -176 -64t-66 -180q0 -56 17.5 -104.5t53 -88.5t72.5 -70t91 -65l137 -94q61 -40 104 -77t83 -86.5t60.5 -110.5
t20.5 -133q0 -188 -111.5 -289.5t-283.5 -101.5q-170 0 -283 109t-113 300v98h123v-84q0 -144 74.5 -227.5t198.5 -83.5q125 0 198.5 70t73.5 192q0 108 -58.5 183.5t-166.5 146.5l-137 92q-62 40 -107.5 78.5t-86.5 90t-62 116t-21 139.5z" />
    <glyph glyph-name="sacute" unicode="&#x15b;" horiz-adv-x="1032" 
d="M575 1229h-100l148 307h149zM926 276q0 -140 -108.5 -218t-285.5 -78q-189 0 -307.5 88t-118.5 245h127q0 -113 83 -174t216 -61q128 0 198.5 49.5t70.5 144.5q0 62 -37 102t-96 59.5t-130.5 33t-143 31t-130.5 44.5t-96 82.5t-37 137.5q0 130 104.5 206t266.5 76
q172 0 285.5 -88.5t113.5 -222.5h-127q0 91 -77 151t-195 60q-114 0 -181 -47t-67 -131q0 -59 37 -96.5t96.5 -56t131 -32t143 -32t131 -47t96.5 -85.5t37 -141z" />
    <glyph glyph-name="Scircumflex" unicode="&#x15c;" horiz-adv-x="993" 
d="M299 1679h-100l225 308h147l226 -308h-101l-198 224zM135 1200q0 181 101 268.5t264 87.5q167 0 268.5 -104.5t101.5 -304.5v-78h-122v72q0 153 -64.5 228t-183.5 75q-110 0 -176 -64t-66 -180q0 -56 17.5 -104.5t53 -88.5t72.5 -70t91 -65l137 -94q61 -40 104 -77
t83 -86.5t60.5 -110.5t20.5 -133q0 -188 -111.5 -289.5t-283.5 -101.5q-170 0 -283 109t-113 300v98h123v-84q0 -144 74.5 -227.5t198.5 -83.5q125 0 198.5 70t73.5 192q0 108 -58.5 183.5t-166.5 146.5l-137 92q-62 40 -107.5 78.5t-86.5 90t-62 116t-21 139.5z" />
    <glyph glyph-name="scircumflex" unicode="&#x15d;" horiz-adv-x="1032" 
d="M313 1229h-100l225 307h148l225 -307h-100l-199 223zM926 276q0 -140 -108.5 -218t-285.5 -78q-189 0 -307.5 88t-118.5 245h127q0 -113 83 -174t216 -61q128 0 198.5 49.5t70.5 144.5q0 62 -37 102t-96 59.5t-130.5 33t-143 31t-130.5 44.5t-96 82.5t-37 137.5
q0 130 104.5 206t266.5 76q172 0 285.5 -88.5t113.5 -222.5h-127q0 91 -77 151t-195 60q-114 0 -181 -47t-67 -131q0 -59 37 -96.5t96.5 -56t131 -32t143 -32t131 -47t96.5 -85.5t37 -141z" />
    <glyph glyph-name="Scedilla" unicode="&#x15e;" horiz-adv-x="993" 
d="M719 -319q0 -82 -59 -137.5t-158 -55.5q-95 0 -156 49t-61 119h82q6 -48 42.5 -72t92.5 -24q62 0 98.5 34t36.5 87t-35 86.5t-92 33.5q-81 0 -123 -57h-90l162 238q-154 14 -253.5 121.5t-99.5 285.5v98h123v-84q0 -144 74.5 -227.5t198.5 -83.5q125 0 198.5 70t73.5 192
q0 74 -32 137.5t-77.5 105.5t-115.5 87l-137 92q-62 40 -107.5 78.5t-86.5 90t-62 116t-21 139.5q0 181 101 268.5t264 87.5q167 0 268.5 -104.5t101.5 -304.5v-78h-122v72q0 153 -64.5 228t-183.5 75q-110 0 -176 -64t-66 -180q0 -56 17.5 -104.5t53 -88.5t72.5 -70t91 -65
l137 -94q61 -40 104 -77t83 -86.5t60.5 -110.5t20.5 -133q0 -177 -98 -276.5t-254 -112.5l-82 -115q27 6 55 6q89 0 145 -56.5t56 -135.5z" />
    <glyph glyph-name="scedilla" unicode="&#x15f;" horiz-adv-x="1032" 
d="M750 -319q0 -82 -59.5 -137.5t-158.5 -55.5q-95 0 -156 49t-61 119h82q6 -48 42.5 -72t92.5 -24q62 0 99 34t37 87t-35 86.5t-92 33.5q-81 0 -123 -57h-90l161 238q-171 9 -277 96t-106 235h127q0 -113 83 -174t216 -61q128 0 198.5 49.5t70.5 144.5q0 62 -37 102
t-96 59.5t-130.5 33t-143 31t-130.5 44.5t-96 82.5t-37 137.5q0 130 104.5 206t266.5 76q172 0 285.5 -88.5t113.5 -222.5h-127q0 91 -77 151t-195 60q-114 0 -181 -47t-67 -131q0 -46 23 -79t62 -52t89.5 -32.5t106 -24.5t111 -23t106 -33t89.5 -51t62 -79.5t23 -115.5
q0 -131 -96 -208t-257 -86l-79 -115q27 6 55 6q89 0 145 -56.5t56 -135.5z" />
    <glyph glyph-name="Scaron" unicode="&#x160;" horiz-adv-x="993" 
d="M797 1987l-226 -308h-147l-225 308h100l199 -224l198 224h101zM135 1200q0 181 101 268.5t264 87.5q167 0 268.5 -104.5t101.5 -304.5v-78h-122v72q0 153 -64.5 228t-183.5 75q-110 0 -176 -64t-66 -180q0 -56 17.5 -104.5t53 -88.5t72.5 -70t91 -65l137 -94
q61 -40 104 -77t83 -86.5t60.5 -110.5t20.5 -133q0 -188 -111.5 -289.5t-283.5 -101.5q-170 0 -283 109t-113 300v98h123v-84q0 -144 74.5 -227.5t198.5 -83.5q125 0 198.5 70t73.5 192q0 108 -58.5 183.5t-166.5 146.5l-137 92q-62 40 -107.5 78.5t-86.5 90t-62 116
t-21 139.5z" />
    <glyph glyph-name="scaron" unicode="&#x161;" horiz-adv-x="1032" 
d="M811 1536l-225 -307h-148l-225 307h100l199 -223l199 223h100zM926 276q0 -140 -108.5 -218t-285.5 -78q-189 0 -307.5 88t-118.5 245h127q0 -113 83 -174t216 -61q128 0 198.5 49.5t70.5 144.5q0 62 -37 102t-96 59.5t-130.5 33t-143 31t-130.5 44.5t-96 82.5t-37 137.5
q0 130 104.5 206t266.5 76q172 0 285.5 -88.5t113.5 -222.5h-127q0 91 -77 151t-195 60q-114 0 -181 -47t-67 -131q0 -59 37 -96.5t96.5 -56t131 -32t143 -32t131 -47t96.5 -85.5t37 -141z" />
    <glyph glyph-name="Tcommaaccent" unicode="&#x162;" horiz-adv-x="888" 
d="M20 1423v113h848v-113h-362v-1423h-123v1423h-363zM399 -430h-84l62 307h141z" />
    <glyph glyph-name="tcommaaccent" unicode="&#x163;" horiz-adv-x="798" 
d="M340 350q0 -132 53.5 -195t163.5 -63q72 0 135 23v-113q-77 -22 -153 -22q-73 0 -129 17.5t-101 58t-68.5 113t-23.5 175.5v571h-176v109h176v295h123v-295h352v-109h-352v-565zM414 -430h-84l61 307h141z" />
    <glyph glyph-name="Tcaron" unicode="&#x164;" horiz-adv-x="888" 
d="M741 1987l-225 -308h-147l-226 308h101l198 -224l199 224h100zM20 1423v113h848v-113h-362v-1423h-123v1423h-363z" />
    <glyph glyph-name="tcaron" unicode="&#x165;" horiz-adv-x="798" 
d="M561 1536h125l-76 -379h-73zM340 350q0 -132 53.5 -195t163.5 -63q72 0 135 23v-113q-77 -22 -153 -22q-73 0 -129 17.5t-101 58t-68.5 113t-23.5 175.5v571h-176v109h176v295h123v-295h352v-109h-352v-565z" />
    <glyph glyph-name="Tbar" unicode="&#x166;" horiz-adv-x="888" 
d="M20 1423v113h848v-113h-362v-399h266v-86h-266v-938h-123v938h-266v86h266v399h-363z" />
    <glyph glyph-name="tbar" unicode="&#x167;" horiz-adv-x="798" 
d="M692 2q-77 -22 -153 -22q-74 0 -130 17.5t-100.5 58t-68 113t-23.5 175.5v236h-131v77h131v258h-176v109h176v295h123v-295h352v-109h-352v-258h278v-77h-278v-230q0 -132 54 -195t163 -63q72 0 135 23v-113z" />
    <glyph glyph-name="Utilde" unicode="&#x168;" horiz-adv-x="1167" 
d="M272 1692v102q0 180 150 180q40 0 76 -20t63.5 -48t53.5 -56t55 -48t57 -20q78 0 78 100v80h90v-102q0 -181 -150 -181q-40 0 -76.5 20t-64 48.5t-53 56.5t-54.5 48t-57 20q-78 0 -78 -100v-80h-90zM158 1536h123v-1079q0 -365 303 -365t303 365v1079h123v-1079
q0 -242 -110.5 -359.5t-315.5 -117.5t-315.5 117.5t-110.5 359.5v1079z" />
    <glyph glyph-name="utilde" unicode="&#x169;" horiz-adv-x="1187" 
d="M274 1241v102q0 181 150 181q40 0 76 -20t63.5 -48t53.5 -56.5t55 -48.5t57 -20q78 0 78 101v79h90v-102q0 -180 -149 -180q-40 0 -77 20t-64.5 48t-53 56t-54.5 48t-57 20q-77 0 -77 -100v-80h-91zM897 0v205q-46 -113 -134.5 -169t-205.5 -56q-180 0 -289.5 120
t-109.5 361v563h123v-537q0 -199 80.5 -299t226.5 -100q148 0 228.5 99.5t80.5 299.5v537h123v-1024h-123z" />
    <glyph glyph-name="Umacron" unicode="&#x16a;" horiz-adv-x="1167" 
d="M862 1823v-88h-549v88h549zM158 1536h123v-1079q0 -365 303 -365t303 365v1079h123v-1079q0 -242 -110.5 -359.5t-315.5 -117.5t-315.5 117.5t-110.5 359.5v1079z" />
    <glyph glyph-name="umacron" unicode="&#x16b;" horiz-adv-x="1187" 
d="M864 1372v-88h-549v88h549zM897 0v205q-46 -113 -134.5 -169t-205.5 -56q-180 0 -289.5 120t-109.5 361v563h123v-537q0 -199 80.5 -299t226.5 -100q148 0 228.5 99.5t80.5 299.5v537h123v-1024h-123z" />
    <glyph glyph-name="Ubreve" unicode="&#x16c;" horiz-adv-x="1167" 
d="M772 1987h96q0 -143 -77.5 -225.5t-206.5 -82.5q-128 0 -205.5 82.5t-77.5 225.5h96q0 -107 53.5 -161t133.5 -54q85 0 136.5 53t51.5 162zM158 1536h123v-1079q0 -365 303 -365t303 365v1079h123v-1079q0 -242 -110.5 -359.5t-315.5 -117.5t-315.5 117.5t-110.5 359.5
v1079z" />
    <glyph glyph-name="ubreve" unicode="&#x16d;" horiz-adv-x="1187" 
d="M774 1536h96q0 -143 -77.5 -225t-206.5 -82q-128 0 -205.5 82t-77.5 225h96q0 -107 53.5 -161t133.5 -54q85 0 136.5 53t51.5 162zM897 0v205q-46 -113 -134.5 -169t-205.5 -56q-180 0 -289.5 120t-109.5 361v563h123v-537q0 -199 80.5 -299t226.5 -100q148 0 228.5 99.5
t80.5 299.5v537h123v-1024h-123z" />
    <glyph glyph-name="Uring" unicode="&#x16e;" horiz-adv-x="1167" 
d="M584 1618q-90 0 -147.5 55.5t-57.5 138.5q0 81 58 138t147 57q90 0 148.5 -57t58.5 -138q0 -83 -58 -138.5t-149 -55.5zM584 1690q56 0 90.5 34.5t34.5 87.5t-34.5 88t-90.5 35q-52 0 -87.5 -35.5t-35.5 -87.5t35 -87t88 -35zM158 1536h123v-1079q0 -365 303 -365
t303 365v1079h123v-1079q0 -242 -110.5 -359.5t-315.5 -117.5t-315.5 117.5t-110.5 359.5v1079z" />
    <glyph glyph-name="uring" unicode="&#x16f;" horiz-adv-x="1187" 
d="M586 1167q-90 0 -147.5 56t-57.5 139q0 81 58 137.5t147 56.5q91 0 149 -56.5t58 -137.5q0 -83 -58 -139t-149 -56zM586 1239q56 0 90.5 35t34.5 88t-34.5 88t-90.5 35q-52 0 -87.5 -35.5t-35.5 -87.5t35.5 -87.5t87.5 -35.5zM897 0v205q-46 -113 -134.5 -169t-205.5 -56
q-180 0 -289.5 120t-109.5 361v563h123v-537q0 -199 80.5 -299t226.5 -100q148 0 228.5 99.5t80.5 299.5v537h123v-1024h-123z" />
    <glyph glyph-name="Uhungarumlaut" unicode="&#x170;" horiz-adv-x="1167" 
d="M455 1679h-84l61 308h141zM823 1679h-84l62 308h141zM158 1536h123v-1079q0 -365 303 -365t303 365v1079h123v-1079q0 -242 -110.5 -359.5t-315.5 -117.5t-315.5 117.5t-110.5 359.5v1079z" />
    <glyph glyph-name="uhungarumlaut" unicode="&#x171;" horiz-adv-x="1187" 
d="M457 1229h-84l61 307h141zM825 1229h-84l62 307h141zM897 0v205q-46 -113 -134.5 -169t-205.5 -56q-180 0 -289.5 120t-109.5 361v563h123v-537q0 -199 80.5 -299t226.5 -100q148 0 228.5 99.5t80.5 299.5v537h123v-1024h-123z" />
    <glyph glyph-name="Uogonek" unicode="&#x172;" horiz-adv-x="1167" 
d="M809 -336q0 -79 -63.5 -129.5t-165.5 -50.5q-100 0 -161 46.5t-61 131.5q0 33 12 68t38.5 76.5t49.5 72t65 83.5q11 13 16 20q-184 12 -282.5 129.5t-98.5 345.5v1079h123v-1079q0 -365 303 -365t303 365v1079h123v-1079q0 -230 -100 -347t-287 -128
q-93 -115 -131.5 -187t-38.5 -123q0 -112 129 -112q56 0 91.5 26t41.5 78h94z" />
    <glyph glyph-name="uogonek" unicode="&#x173;" horiz-adv-x="1187" 
d="M702 -330q0 37 12.5 73.5t43.5 82t52 71.5t70 83q5 6 9 10.5t8 9.5v205q-46 -113 -134.5 -169t-205.5 -56q-180 0 -289.5 120t-109.5 361v563h123v-537q0 -199 80.5 -299t226.5 -100q148 0 228.5 99.5t80.5 299.5v537h123v-1024h-41q-97 -114 -139.5 -188.5t-42.5 -130.5
q0 -121 129 -121q56 0 91.5 26t41.5 78h94q0 -79 -63.5 -129.5t-165.5 -50.5q-100 0 -161 48t-61 138z" />
    <glyph glyph-name="Wcircumflex" unicode="&#x174;" horiz-adv-x="1536" 
d="M567 1679h-100l225 308h148l225 -308h-100l-199 224zM1516 1536l-283 -1536h-182l-283 1442l-283 -1442h-182l-283 1536h125l252 -1432l277 1432h188l277 -1432l252 1432h125z" />
    <glyph glyph-name="wcircumflex" unicode="&#x175;" horiz-adv-x="1566" 
d="M582 1229h-101l226 307h147l225 -307h-100l-199 223zM1536 1024l-315 -1024h-152l-287 922l-286 -922h-150l-315 1024h121l270 -922l287 922h149l287 -922l270 922h121z" />
    <glyph glyph-name="Ycircumflex" unicode="&#x176;" horiz-adv-x="983" 
d="M291 1679h-101l226 308h147l225 -308h-100l-199 224zM977 1536l-424 -907v-629h-123v629l-424 907h125l361 -791l360 791h125z" />
    <glyph glyph-name="ycircumflex" unicode="&#x177;" horiz-adv-x="1026" 
d="M324 1229h-101l226 307h147l225 -307h-100l-199 223zM571 -133q-29 -77 -52 -128.5t-57.5 -105t-73 -84t-93.5 -50t-123 -19.5q-83 0 -145 20v111q61 -23 133 -23q59 0 103 16.5t78.5 55.5t60.5 88.5t57 128.5l-443 1147h125l377 -987l367 987h125z" />
    <glyph glyph-name="Ydieresis" unicode="&#x178;" horiz-adv-x="983" 
d="M287 1741q-38 0 -65 27t-27 65t27 65t65 27q39 0 65.5 -26.5t26.5 -65.5t-26.5 -65.5t-65.5 -26.5zM696 1741q-38 0 -65 27t-27 65t27 65t65 27q39 0 65.5 -26.5t26.5 -65.5t-26.5 -65.5t-65.5 -26.5zM977 1536l-424 -907v-629h-123v629l-424 907h125l361 -791l360 791
h125z" />
    <glyph glyph-name="Zacute" unicode="&#x179;" horiz-adv-x="901" 
d="M520 1679h-100l147 308h150zM836 113v-113h-750v152l619 1271h-609v113h719v-152l-616 -1271h637z" />
    <glyph glyph-name="zacute" unicode="&#x17a;" horiz-adv-x="962" 
d="M532 1229h-100l148 307h149zM887 109v-109h-791v147l639 768h-629v109h740v-147l-641 -768h682z" />
    <glyph glyph-name="Zdotaccent" unicode="&#x17b;" horiz-adv-x="901" 
d="M457 1733q-43 0 -72 28.5t-29 71.5t29 71.5t72 28.5q44 0 72 -28.5t28 -71.5t-28 -71.5t-72 -28.5zM836 113v-113h-750v152l619 1271h-609v113h719v-152l-616 -1271h637z" />
    <glyph glyph-name="zdotaccent" unicode="&#x17c;" horiz-adv-x="962" 
d="M469 1282q-43 0 -71.5 28.5t-28.5 71.5t28.5 72t71.5 29q44 0 72 -29t28 -72t-28 -71.5t-72 -28.5zM887 109v-109h-791v147l639 768h-629v109h740v-147l-641 -768h682z" />
    <glyph glyph-name="Zcaron" unicode="&#x17d;" horiz-adv-x="901" 
d="M754 1987l-226 -308h-147l-225 308h100l199 -224l198 224h101zM836 113v-113h-750v152l619 1271h-609v113h719v-152l-616 -1271h637z" />
    <glyph glyph-name="zcaron" unicode="&#x17e;" horiz-adv-x="962" 
d="M768 1536l-225 -307h-148l-225 307h100l199 -223l199 223h100zM887 109v-109h-791v147l639 768h-629v109h740v-147l-641 -768h682z" />
    <glyph glyph-name="florin" unicode="&#x192;" 
d="M887 713h-348l-263 -1225h-122l260 1225h-240v80h256l86 401q39 191 135 276.5t258 85.5q81 0 140 -22v-115q-51 25 -154 25q-104 0 -167 -62t-89 -194l-84 -395h332v-80z" />
    <glyph glyph-name="Aringacute" unicode="&#x1fa;" horiz-adv-x="1044" 
d="M573 2089h-100l148 307h149zM522 1618q-90 0 -147.5 55.5t-57.5 138.5q0 81 58 138t147 57q90 0 148.5 -57t58.5 -138q0 -83 -58 -138.5t-149 -55.5zM522 1690q56 0 90.5 34.5t34.5 87.5t-34.5 88t-90.5 35q-52 0 -87.5 -35.5t-35.5 -87.5t35 -87t88 -35zM33 0l395 1536
h188l396 -1536h-125l-109 434h-512l-108 -434h-125zM295 547h455l-228 907z" />
    <glyph glyph-name="aringacute" unicode="&#x1fb;" 
d="M618 1679h-100l148 308h149zM563 1167q-90 0 -147.5 56t-57.5 139q0 81 58 137.5t147 56.5q91 0 149 -56.5t58 -137.5q0 -83 -58 -139t-149 -56zM563 1239q56 0 90.5 35t34.5 88t-34.5 88t-90.5 35q-53 0 -88 -35.5t-35 -87.5t35 -87.5t88 -35.5zM852 0v209
q-52 -115 -154.5 -172t-228.5 -57q-157 0 -257.5 72t-100.5 210q0 72 25.5 124.5t68 82t98 49t116.5 28.5t122.5 16t117 16.5t98 25.5t68 47.5t25.5 77.5q0 104 -79.5 159.5t-207.5 55.5q-134 0 -215.5 -66t-81.5 -190h-125q0 93 35 164t95.5 111.5t133.5 60.5t158 20
q83 0 154.5 -18t130 -54.5t92 -99.5t33.5 -147v-725h-121zM236 268q0 -91 68 -137.5t185 -46.5q95 0 176 37.5t134 116t53 184.5v127q-47 -34 -131 -52t-163.5 -27t-154.5 -25.5t-121 -59.5t-46 -117z" />
    <glyph glyph-name="AEacute" unicode="&#x1fc;" horiz-adv-x="1597" 
d="M958 1679h-100l148 308h149zM1491 113v-113h-655v434h-486l-207 -434h-131l740 1536h739v-113h-533v-573h492v-111h-492v-626h533zM403 547h433v911z" />
    <glyph glyph-name="aeacute" unicode="&#x1fd;" horiz-adv-x="1929" 
d="M987 1229h-100l147 307h150zM1845 512q0 -29 -2 -43h-868q12 -174 115.5 -277.5t263.5 -103.5q117 0 204.5 58.5t127.5 160.5h131q-47 -153 -172 -240t-295 -87q-149 0 -265.5 75t-177.5 205q-45 -139 -161.5 -209.5t-264.5 -70.5q-162 0 -266 72t-104 210
q0 72 25.5 124.5t68 82t98 49t116.5 28.5t122.5 16t117 16.5t98 25.5t68 47.5t25.5 77.5q0 104 -79.5 159.5t-207.5 55.5q-134 0 -215.5 -66t-81.5 -190h-125q0 75 23 136t61.5 101t92 67.5t112.5 39.5t125 12q91 0 167 -21t136 -71t84 -125q67 102 173 159.5t235 57.5
q215 0 355 -149t140 -383zM1350 936q-157 0 -259.5 -102t-115.5 -275h749q-12 172 -114 274.5t-260 102.5zM236 268q0 -91 68 -137.5t185 -46.5q95 0 176 37.5t134 116t53 184.5v127q-47 -34 -131 -52t-163.5 -27t-154.5 -25.5t-121 -59.5t-46 -117z" />
    <glyph glyph-name="Oslashacute" unicode="&#x1fe;" horiz-adv-x="1167" 
d="M647 1679h-100l147 308h150zM1020 487q0 -249 -113.5 -378t-310.5 -129q-215 0 -307 131l-60 -111h-106l100 188q-76 101 -76 299v562q0 249 113.5 378t310.5 129q216 0 308 -131l59 111h106l-100 -188q76 -101 76 -299v-562zM270 487q0 -99 21 -172l538 1016
q-77 113 -245 113q-151 0 -232.5 -97t-81.5 -298v-562zM897 1049q0 102 -20 172l-539 -1016q77 -113 246 -113q151 0 232 96.5t81 298.5v562z" />
    <glyph glyph-name="oslashacute" unicode="&#x1ff;" horiz-adv-x="1187" 
d="M657 1229h-100l148 307h149zM1104 512q0 -233 -145 -382.5t-365 -149.5q-180 0 -313 102l-72 -82h-125l129 147q-129 145 -129 365q0 233 145 382.5t365 149.5q180 0 313 -102l72 82h125l-129 -147q129 -145 129 -365zM207 512q0 -161 86 -274l536 616q-100 78 -235 78
q-168 0 -277.5 -116.5t-109.5 -303.5zM981 512q0 161 -86 274l-537 -616q100 -78 236 -78q168 0 277.5 116.5t109.5 303.5z" />
    <glyph glyph-name="Scommaaccent" unicode="&#x218;" horiz-adv-x="993" 
d="M135 1200q0 181 101 268.5t264 87.5q167 0 268.5 -104.5t101.5 -304.5v-78h-122v72q0 153 -64.5 228t-183.5 75q-110 0 -176 -64t-66 -180q0 -56 17.5 -104.5t53 -88.5t72.5 -70t91 -65l137 -94q61 -40 104 -77t83 -86.5t60.5 -110.5t20.5 -133q0 -188 -111.5 -289.5
t-283.5 -101.5q-170 0 -283 109t-113 300v98h123v-84q0 -144 74.5 -227.5t198.5 -83.5q125 0 198.5 70t73.5 192q0 108 -58.5 183.5t-166.5 146.5l-137 92q-62 40 -107.5 78.5t-86.5 90t-62 116t-21 139.5zM457 -430h-84l61 307h141z" />
    <glyph glyph-name="scommaaccent" unicode="&#x219;" horiz-adv-x="1032" 
d="M926 276q0 -140 -108.5 -218t-285.5 -78q-189 0 -307.5 88t-118.5 245h127q0 -113 83 -174t216 -61q128 0 198.5 49.5t70.5 144.5q0 62 -37 102t-96 59.5t-130.5 33t-143 31t-130.5 44.5t-96 82.5t-37 137.5q0 130 104.5 206t266.5 76q172 0 285.5 -88.5t113.5 -222.5
h-127q0 91 -77 151t-195 60q-114 0 -181 -47t-67 -131q0 -59 37 -96.5t96.5 -56t131 -32t143 -32t131 -47t96.5 -85.5t37 -141zM487 -430h-84l62 307h141z" />
    <glyph glyph-name="circumflex" unicode="&#x2c6;" horiz-adv-x="1024" 
d="M313 1229h-100l225 307h148l225 -307h-100l-199 223z" />
    <glyph glyph-name="caron" unicode="&#x2c7;" horiz-adv-x="1024" 
d="M811 1536l-225 -307h-148l-225 307h100l199 -223l199 223h100z" />
    <glyph glyph-name="breve" unicode="&#x2d8;" horiz-adv-x="1024" 
d="M700 1536h97q0 -143 -78 -225t-207 -82q-128 0 -205.5 82t-77.5 225h97q0 -107 53 -161t133 -54q85 0 136.5 53t51.5 162z" />
    <glyph glyph-name="dotaccent" unicode="&#x2d9;" horiz-adv-x="1024" 
d="M512 1282q-43 0 -71.5 28.5t-28.5 71.5t28.5 72t71.5 29q44 0 72 -29t28 -72t-28 -71.5t-72 -28.5z" />
    <glyph glyph-name="ring" unicode="&#x2da;" horiz-adv-x="1024" 
d="M512 1167q-90 0 -147.5 56t-57.5 139q0 81 58 137.5t147 56.5q91 0 149 -56.5t58 -137.5q0 -83 -58 -139t-149 -56zM512 1239q56 0 90.5 35t34.5 88t-34.5 88t-90.5 35q-52 0 -87.5 -35.5t-35.5 -87.5t35.5 -87.5t87.5 -35.5z" />
    <glyph glyph-name="ogonek" unicode="&#x2db;" horiz-adv-x="1024" 
d="M508 -516q-100 0 -160.5 46.5t-60.5 131.5q0 17 2.5 34t10.5 36.5t14 34t21 37.5t22.5 35.5t28 39.5t29 37.5t33.5 42t33 41.5h86q-102 -124 -144 -200t-42 -128q0 -112 129 -112q56 0 91.5 26t41.5 78h94q0 -79 -63.5 -129.5t-165.5 -50.5z" />
    <glyph glyph-name="tilde" unicode="&#x2dc;" horiz-adv-x="1024" 
d="M201 1241v102q0 181 149 181q40 0 76 -20t63.5 -48t53.5 -56.5t55 -48.5t57 -20q78 0 78 101v79h90v-102q0 -180 -149 -180q-40 0 -76.5 20t-64 48t-53 56t-54.5 48t-57 20q-78 0 -78 -100v-80h-90z" />
    <glyph glyph-name="hungarumlaut" unicode="&#x2dd;" horiz-adv-x="1024" 
d="M383 1229h-84l61 307h142zM752 1229h-84l61 307h141z" />
    <glyph glyph-name="Delta" unicode="&#x394;" horiz-adv-x="1044" 
d="M33 0l395 1536h188l396 -1536h-979zM186 113h672l-336 1341z" />
    <glyph glyph-name="Omega" unicode="&#x3a9;" horiz-adv-x="1167" 
d="M1020 0h-395v109q143 35 207.5 127t64.5 276v537q0 395 -313 395q-151 0 -232.5 -97t-81.5 -298v-537q0 -184 64.5 -276.5t208.5 -126.5v-109h-396v109h187q-187 102 -187 403v537q0 251 114.5 379t322.5 128t322 -128t114 -379v-537q0 -305 -180 -403h180v-109z" />
    <glyph glyph-name="mu" unicode="&#x3bc;" horiz-adv-x="1191" 
d="M285 -512h-123v1536h123v-537q0 -199 80.5 -299t226.5 -100q148 0 228.5 99.5t80.5 299.5v537h123v-1024h-123v205q-46 -113 -134.5 -169t-205.5 -56q-173 0 -276 106v-598z" />
    <glyph glyph-name="pi" unicode="&#x3c0;" horiz-adv-x="1320" 
d="M133 915v109h1106v-109h-205v-915h-123v915h-395l-201 -915h-122l200 915h-260z" />
    <glyph glyph-name="Wgrave" unicode="&#x1e80;" horiz-adv-x="1536" 
d="M717 1679l-197 308h150l147 -308h-100zM1516 1536l-283 -1536h-182l-283 1442l-283 -1442h-182l-283 1536h125l252 -1432l277 1432h188l277 -1432l252 1432h125z" />
    <glyph glyph-name="wgrave" unicode="&#x1e81;" horiz-adv-x="1566" 
d="M731 1229l-196 307h149l147 -307h-100zM1536 1024l-315 -1024h-152l-287 922l-286 -922h-150l-315 1024h121l270 -922l287 922h149l287 -922l270 922h121z" />
    <glyph glyph-name="Wacute" unicode="&#x1e82;" horiz-adv-x="1536" 
d="M831 1679h-100l148 308h149zM1516 1536l-283 -1536h-182l-283 1442l-283 -1442h-182l-283 1536h125l252 -1432l277 1432h188l277 -1432l252 1432h125z" />
    <glyph glyph-name="wacute" unicode="&#x1e83;" horiz-adv-x="1566" 
d="M844 1229h-101l148 307h149zM1536 1024l-315 -1024h-152l-287 922l-286 -922h-150l-315 1024h121l270 -922l287 922h149l287 -922l270 922h121z" />
    <glyph glyph-name="Wdieresis" unicode="&#x1e84;" horiz-adv-x="1536" 
d="M563 1741q-38 0 -65 27t-27 65t27 65t65 27q39 0 65.5 -26.5t26.5 -65.5t-26.5 -65.5t-65.5 -26.5zM973 1741q-38 0 -65 27t-27 65t27 65t65 27q39 0 65.5 -26.5t26.5 -65.5t-26.5 -65.5t-65.5 -26.5zM1516 1536l-283 -1536h-182l-283 1442l-283 -1442h-182l-283 1536
h125l252 -1432l277 1432h188l277 -1432l252 1432h125z" />
    <glyph glyph-name="wdieresis" unicode="&#x1e85;" horiz-adv-x="1566" 
d="M575 1290q-38 0 -65 27t-27 65t27 65.5t65 27.5q39 0 66 -27t27 -66q0 -38 -27 -65t-66 -27zM985 1290q-38 0 -65 27t-27 65t27 65.5t65 27.5q39 0 65.5 -27t26.5 -66t-26.5 -65.5t-65.5 -26.5zM1536 1024l-315 -1024h-152l-287 922l-286 -922h-150l-315 1024h121
l270 -922l287 922h149l287 -922l270 922h121z" />
    <glyph glyph-name="Ygrave" unicode="&#x1ef2;" horiz-adv-x="983" 
d="M440 1679l-196 308h149l148 -308h-101zM977 1536l-424 -907v-629h-123v629l-424 907h125l361 -791l360 791h125z" />
    <glyph glyph-name="ygrave" unicode="&#x1ef3;" horiz-adv-x="1026" 
d="M473 1229l-197 307h150l147 -307h-100zM571 -133q-29 -77 -52 -128.5t-57.5 -105t-73 -84t-93.5 -50t-123 -19.5q-83 0 -145 20v111q61 -23 133 -23q59 0 103 16.5t78.5 55.5t60.5 88.5t57 128.5l-443 1147h125l377 -987l367 987h125z" />
    <glyph glyph-name="endash" unicode="&#x2013;" horiz-adv-x="1024" 
d="M922 520h-820v86h820v-86z" />
    <glyph glyph-name="emdash" unicode="&#x2014;" horiz-adv-x="2048" 
d="M1946 520h-1844v86h1844v-86z" />
    <glyph glyph-name="quoteleft" unicode="&#x2018;" horiz-adv-x="350" 
d="M272 1233q0 -40 -29 -68t-69 -28q-45 0 -73.5 31t-28.5 83q0 105 114 285h78q-77 -139 -94 -207h4q40 0 69 -28t29 -68z" />
    <glyph glyph-name="quoteright" unicode="&#x2019;" horiz-adv-x="350" 
d="M279 1434q0 -104 -115 -285h-78q78 144 94 207h-4q-40 0 -69 29t-29 67q0 40 29 68t69 28q45 0 74 -31t29 -83z" />
    <glyph glyph-name="quotesinglbase" unicode="&#x201a;" horiz-adv-x="350" 
d="M279 57q0 -103 -115 -284h-78q78 144 94 207h-4q-40 0 -69 29t-29 67q0 40 29 68t69 28q45 0 74 -31.5t29 -83.5z" />
    <glyph glyph-name="quotedblleft" unicode="&#x201c;" horiz-adv-x="665" 
d="M272 1233q0 -40 -29 -68t-69 -28q-45 0 -73.5 31t-28.5 83q0 105 114 285h78q-77 -139 -94 -207h4q40 0 69 -28t29 -68zM588 1233q0 -39 -29.5 -67.5t-69.5 -28.5q-45 0 -73.5 31t-28.5 83q0 104 115 285h78q-79 -143 -95 -207h4q40 0 69.5 -28.5t29.5 -67.5z" />
    <glyph glyph-name="quotedblright" unicode="&#x201d;" horiz-adv-x="665" 
d="M279 1434q0 -104 -115 -285h-78q78 144 94 207h-4q-40 0 -69 29t-29 67q0 40 29 68t69 28q45 0 74 -31t29 -83zM594 1434q0 -104 -115 -285h-78q80 148 95 207h-4q-40 0 -69.5 29t-29.5 67q0 39 29.5 67.5t69.5 28.5q45 0 73.5 -31t28.5 -83z" />
    <glyph glyph-name="quotedblbase" unicode="&#x201e;" horiz-adv-x="665" 
d="M594 57q0 -103 -115 -284h-78q80 148 95 207h-4q-40 0 -69.5 29t-29.5 67q0 39 29.5 67.5t69.5 28.5q45 0 73.5 -31.5t28.5 -83.5zM279 57q0 -103 -115 -284h-78q78 144 94 207h-4q-40 0 -69 29t-29 67q0 40 29 68t69 28q45 0 74 -31.5t29 -83.5z" />
    <glyph glyph-name="dagger" unicode="&#x2020;" horiz-adv-x="675" 
d="M635 1024h-248v-1024h-98v1024h-248v86h248v426h98v-426h248v-86z" />
    <glyph glyph-name="daggerdbl" unicode="&#x2021;" horiz-adv-x="675" 
d="M635 426h-248v-426h-98v426h-248v86h248v512h-248v86h248v426h98v-426h248v-86h-248v-512h248v-86z" />
    <glyph glyph-name="bullet" unicode="&#x2022;" horiz-adv-x="655" 
d="M328 399q-94 0 -160 66t-66 158q0 94 66 159.5t160 65.5q93 0 159 -66t66 -159q0 -92 -66.5 -158t-158.5 -66z" />
    <glyph glyph-name="ellipsis" unicode="&#x2026;" horiz-adv-x="1005" 
d="M182 -20q-39 0 -67.5 28.5t-28.5 67.5q0 40 28 68t68 28q42 0 70.5 -28t28.5 -68q0 -39 -28.5 -67.5t-70.5 -28.5zM502 -20q-39 0 -67.5 28.5t-28.5 67.5q0 40 28 68t68 28q42 0 70 -28t28 -68q0 -39 -28 -67.5t-70 -28.5zM821 -20q-39 0 -67.5 28.5t-28.5 67.5
q0 40 28 68t68 28q42 0 70.5 -28t28.5 -68q0 -39 -28.5 -67.5t-70.5 -28.5z" />
    <glyph glyph-name="perthousand" unicode="&#x2030;" horiz-adv-x="2385" 
d="M367 727q-137 0 -220.5 103.5t-83.5 306.5t83.5 307t220.5 104t220 -104t83 -307t-83 -306.5t-220 -103.5zM250 0l1065 1536h86l-1065 -1536h-86zM367 819q93 0 146.5 79t53.5 239q0 159 -53.5 240t-146.5 81t-147 -81t-54 -240q0 -160 54 -239t147 -79zM1284 -12
q-137 0 -220 103t-83 306t83 307.5t220 104.5t220 -104.5t83 -307.5t-83 -306t-220 -103zM2019 -12q-137 0 -220 103t-83 306t83 307.5t220 104.5t220 -104.5t83 -307.5t-83 -306t-220 -103zM1284 80q93 0 147 78.5t54 238.5q0 159 -54 240.5t-147 81.5t-147 -81.5
t-54 -240.5q0 -160 54 -238.5t147 -78.5zM2019 80q93 0 147 78.5t54 238.5q0 159 -54 240.5t-147 81.5q-92 0 -146 -81.5t-54 -240.5q0 -160 53.5 -238.5t146.5 -78.5z" />
    <glyph glyph-name="guilsinglleft" unicode="&#x2039;" horiz-adv-x="655" 
d="M553 121l-451 336v131l451 336v-117l-393 -285l393 -284v-117z" />
    <glyph glyph-name="guilsinglright" unicode="&#x203a;" horiz-adv-x="655" 
d="M102 924l451 -336v-131l-451 -336v117l394 284l-394 285v117z" />
    <glyph glyph-name="fraction" unicode="&#x2044;" horiz-adv-x="184" 
d="M-483 0l1065 1536h86l-1065 -1536h-86z" />
    <glyph glyph-name="zerosuperior" unicode="&#x2070;" horiz-adv-x="733" 
d="M367 524q-137 0 -220.5 103.5t-83.5 306.5t83.5 307.5t220.5 104.5t220 -104.5t83 -307.5t-83 -306.5t-220 -103.5zM367 616q93 0 146.5 79t53.5 239q0 159 -53.5 240t-146.5 81t-147 -81t-54 -240q0 -160 54 -239t147 -79z" />
    <glyph glyph-name="foursuperior" unicode="&#x2074;" horiz-adv-x="706" 
d="M33 813l332 520h161v-518h168v-86h-168v-192h-100v192h-393v84zM129 815h297v467z" />
    <glyph glyph-name="fivesuperior" unicode="&#x2075;" horiz-adv-x="698" 
d="M358 1006q-69 0 -115.5 -33t-56.5 -78h-98v438h524v-86h-430v-260q29 45 82 70.5t117 25.5q118 0 195 -76.5t77 -199.5q0 -126 -80.5 -204.5t-210.5 -78.5q-129 0 -207.5 72t-78.5 188h100q0 -76 50.5 -124t135.5 -48q87 0 139 54.5t52 140.5q0 88 -53 143.5t-142 55.5z
" />
    <glyph glyph-name="sixsuperior" unicode="&#x2076;" horiz-adv-x="712" 
d="M657 786q0 -117 -80 -189.5t-198 -72.5q-140 0 -226.5 100.5t-86.5 313.5q0 203 89 305.5t224 102.5q116 0 192 -69t76 -177h-96q-2 71 -48.5 115.5t-123.5 44.5q-97 0 -154 -80t-57 -240q0 -43 2 -61q24 82 87.5 126t141.5 44q107 0 182.5 -71.5t75.5 -191.5zM379 610
q76 0 127 50t51 126q0 77 -51 128t-127 51q-74 0 -126 -51t-52 -128q0 -76 52 -126t126 -50z" />
    <glyph glyph-name="sevensuperior" unicode="&#x2077;" horiz-adv-x="567" 
d="M287 580v-43h-103v38q0 205 76.5 367.5t206.5 302.5h-455v88h541v-112q-84 -92 -138.5 -178t-91 -206t-36.5 -257z" />
    <glyph glyph-name="eightsuperior" unicode="&#x2078;" horiz-adv-x="706" 
d="M635 762q0 -108 -77 -173t-206 -65q-128 0 -204 65t-76 173q0 67 38 120t103 81q-52 27 -81.5 71.5t-29.5 100.5q0 95 68 153t182 58q116 0 184 -58t68 -153q0 -115 -110 -172q65 -28 103 -81t38 -120zM352 999q71 0 112.5 36t41.5 93q0 59 -42 96.5t-112 37.5
q-68 0 -109.5 -37.5t-41.5 -96.5q0 -57 41 -93t110 -36zM352 608q84 0 133.5 44t49.5 114t-49.5 114t-133.5 44q-82 0 -131 -44t-49 -114t49 -114t131 -44z" />
    <glyph glyph-name="ninesuperior" unicode="&#x2079;" horiz-adv-x="712" 
d="M647 932q0 -203 -89 -305.5t-224 -102.5q-116 0 -192 69t-76 177h98q0 -71 47 -115.5t123 -44.5q98 0 154.5 80t56.5 240q0 43 -2 61q-24 -84 -88 -128t-142 -44q-107 0 -182.5 72.5t-75.5 191.5q0 117 80.5 190t198.5 73q140 0 226.5 -100.5t86.5 -313.5zM334 1260
q-75 0 -126.5 -50.5t-51.5 -126.5q0 -77 51 -127.5t127 -50.5q75 0 126.5 50.5t51.5 127.5q0 76 -52 126.5t-126 50.5z" />
    <glyph glyph-name="parenleftsuperior" unicode="&#x207d;" horiz-adv-x="452" 
d="M133 915q0 349 215 621h86q-209 -265 -209 -621t209 -618h-86q-215 272 -215 618z" />
    <glyph glyph-name="parenrightsuperior" unicode="&#x207e;" horiz-adv-x="452" 
d="M319 915q0 -344 -213 -618h-88q209 262 209 618t-209 621h88q213 -274 213 -621z" />
    <glyph glyph-name="zeroinferior" unicode="&#x2080;" horiz-adv-x="733" 
d="M367 -524q-137 0 -220.5 103t-83.5 306t83.5 307.5t220.5 104.5t220 -104.5t83 -307.5t-83 -306t-220 -103zM367 -432q93 0 146.5 78.5t53.5 238.5q0 159 -54 240.5t-146 81.5q-93 0 -147 -81.5t-54 -240.5q0 -160 54 -238.5t147 -78.5z" />
    <glyph glyph-name="oneinferior" unicode="&#x2081;" horiz-adv-x="360" 
d="M168 244v41h104v-797h-106v580h-141v84h55q47 0 67.5 21.5t20.5 70.5z" />
    <glyph glyph-name="twoinferior" unicode="&#x2082;" horiz-adv-x="647" 
d="M592 59q0 -48 -21.5 -89.5t-56 -72t-76.5 -58.5t-85.5 -55.5t-80 -56.5t-62 -67.5t-30.5 -83.5h424v-88h-549v45q0 60 24 111t62.5 87.5t85 68.5t93.5 60.5t85.5 57t62.5 64t24 75.5q0 69 -46 110.5t-116 41.5q-76 0 -123 -43t-47 -127v-21h-99v29q0 116 76 183t193 67
q112 0 187 -63.5t75 -174.5z" />
    <glyph glyph-name="threeinferior" unicode="&#x2083;" horiz-adv-x="706" 
d="M647 -291q0 -108 -79 -170.5t-208 -62.5q-133 0 -217 67t-84 176h103q0 -71 53 -114t141 -43q87 0 139 42t52 109q0 69 -51.5 109.5t-143.5 40.5h-59v84h59q77 0 121.5 35.5t44.5 93.5q0 60 -46.5 96.5t-125.5 36.5q-78 0 -124 -40t-46 -106h-98q0 107 73.5 170.5
t196.5 63.5t198 -59.5t75 -155.5q0 -122 -125 -174q71 -26 111 -78.5t40 -120.5z" />
    <glyph glyph-name="fourinferior" unicode="&#x2084;" horiz-adv-x="706" 
d="M33 -236l332 521h161v-518h168v-86h-168v-193h-100v193h-393v83zM129 -233h297v466z" />
    <glyph glyph-name="fiveinferior" unicode="&#x2085;" horiz-adv-x="698" 
d="M358 -43q-69 0 -115.5 -33t-56.5 -78h-98v439h524v-86h-430v-260q29 45 82 70.5t117 25.5q118 0 195 -77t77 -200q0 -126 -80.5 -204t-210.5 -78q-129 0 -207.5 72t-78.5 188h100q0 -76 50.5 -124t135.5 -48q87 0 139 54t52 140q0 88 -53 143.5t-142 55.5z" />
    <glyph glyph-name="sixinferior" unicode="&#x2086;" horiz-adv-x="712" 
d="M657 -262q0 -117 -80 -189.5t-198 -72.5q-140 0 -226.5 100t-86.5 313q0 203 89 305.5t224 102.5q116 0 192 -69t76 -177h-96q-2 71 -48.5 115.5t-123.5 44.5q-97 0 -154 -80t-57 -240q0 -43 2 -61q24 82 87.5 126t141.5 44q108 0 183 -71t75 -191zM379 -438q76 0 127 50
t51 126q0 77 -51 127.5t-127 50.5q-75 0 -126.5 -50.5t-51.5 -127.5q0 -76 52 -126t126 -50z" />
    <glyph glyph-name="seveninferior" unicode="&#x2087;" horiz-adv-x="567" 
d="M287 -469v-43h-103v39q0 205 76.5 367.5t206.5 302.5h-455v88h541v-113q-84 -92 -138.5 -178t-91 -206t-36.5 -257z" />
    <glyph glyph-name="eightinferior" unicode="&#x2088;" horiz-adv-x="706" 
d="M635 -287q0 -107 -77 -172t-206 -65q-128 0 -204 64.5t-76 172.5q0 67 38 120t103 81q-52 27 -81.5 71.5t-29.5 100.5q0 95 68 153t182 58q116 0 184 -58t68 -153q0 -115 -110 -172q65 -28 103 -81t38 -120zM352 -49q71 0 112.5 36t41.5 93q0 59 -42 96t-112 37
q-68 0 -109.5 -37t-41.5 -96q0 -57 41 -93t110 -36zM352 -440q84 0 133.5 43.5t49.5 113.5t-49.5 114t-133.5 44q-82 0 -131 -44t-49 -114t49 -113.5t131 -43.5z" />
    <glyph glyph-name="nineinferior" unicode="&#x2089;" horiz-adv-x="712" 
d="M647 -117q0 -203 -89 -305t-224 -102q-116 0 -192 68.5t-76 176.5h98q0 -71 47 -115t123 -44q98 0 154.5 79.5t56.5 239.5q0 44 -2 62q-24 -84 -88 -128t-142 -44q-107 0 -182.5 72.5t-75.5 191.5q0 117 80.5 189.5t198.5 72.5q140 0 226.5 -100.5t86.5 -313.5zM334 211
q-76 0 -127 -50t-51 -126q0 -77 51 -127.5t127 -50.5q75 0 126.5 50.5t51.5 127.5q0 76 -52 126t-126 50z" />
    <glyph glyph-name="parenleftinferior" unicode="&#x208d;" horiz-adv-x="452" 
d="M133 -133q0 348 215 620h86q-209 -265 -209 -620q0 -357 209 -619h-86q-215 272 -215 619z" />
    <glyph glyph-name="parenrightinferior" unicode="&#x208e;" horiz-adv-x="452" 
d="M319 -133q0 -345 -213 -619h-88q209 262 209 619q0 355 -209 620h88q213 -274 213 -620z" />
    <glyph glyph-name="Euro" unicode="&#x20ac;" 
d="M1073 459q0 -232 -116 -355.5t-312 -123.5t-312 126.5t-116 364.5v59h-176v80h176v328h-176v80h176v47q0 238 116 364.5t312 126.5t312 -123.5t116 -355.5v-59h-123v51q0 189 -79.5 282t-225.5 93q-145 0 -225 -96t-80 -291v-39h397v-80h-397v-328h397v-80h-397v-51
q0 -195 80 -291t225 -96t225 93.5t80 281.5v63h123v-71z" />
    <glyph glyph-name="uni2117" unicode="&#x2117;" horiz-adv-x="1699" 
d="M850 -20q-165 0 -311 63t-248 169.5t-160.5 251t-58.5 304.5q0 162 58.5 307t160.5 251t247.5 168t311.5 62t311.5 -62t247.5 -168t160.5 -251t58.5 -307q0 -160 -58.5 -304.5t-160.5 -251t-248 -169.5t-311 -63zM850 1491q-151 0 -283 -57.5t-224.5 -155t-146 -230.5
t-53.5 -280q0 -198 90.5 -363.5t253 -262.5t363.5 -97q151 0 283 57t224.5 154.5t145.5 230.5t53 281q0 147 -53 280t-145.5 230.5t-224.5 155t-283 57.5zM618 358v820h275q128 0 204.5 -64t76.5 -205q0 -131 -78.5 -200.5t-202.5 -69.5h-170v-281h-105zM885 1083h-162v-350
h162q83 0 133.5 42t50.5 134q0 174 -184 174z" />
    <glyph glyph-name="trademark" unicode="&#x2122;" horiz-adv-x="1896" 
d="M1593 717v768l-241 -768h-125l-244 768v-768h-88v819h170l227 -733l224 733h174v-819h-97zM70 1448v88h620v-88h-256v-731h-96v731h-268z" />
    <glyph glyph-name="estimated" unicode="&#x212e;" horiz-adv-x="1699" 
d="M354 725v-510q80 -85 208.5 -135.5t287.5 -50.5q117 0 224.5 35.5t191 97t146.5 138.5t101 165h56q-86 -211 -281 -348t-438 -137q-229 0 -405.5 97.5t-274.5 277t-98 413.5q0 173 60.5 321t165.5 250t247.5 159.5t304.5 57.5q168 0 314.5 -62.5t247.5 -169t158.5 -251
t57.5 -305.5q0 -8 -1 -21.5t-1 -21.5h-1272zM354 774h1006v518q-75 93 -209 153t-301 60q-150 0 -285 -55t-211 -141v-535z" />
    <glyph glyph-name="arrowleft" unicode="&#x2190;" 
d="M592 252l-66 -66l-434 437l434 434l66 -66l-328 -327h770v-86h-766z" />
    <glyph glyph-name="arrowup" unicode="&#x2191;" 
d="M932 545l-328 327v-770h-86v766l-325 -323l-66 65l436 434l434 -434z" />
    <glyph glyph-name="arrowright" unicode="&#x2192;" 
d="M1034 623l-434 -437l-65 66l323 326h-766v86h770l-327 327l65 66z" />
    <glyph glyph-name="arrowdown" unicode="&#x2193;" 
d="M997 414l-434 -434l-436 434l66 65l325 -323v766h86v-770l328 327z" />
    <glyph glyph-name="partialdiff" unicode="&#x2202;" horiz-adv-x="1177" 
d="M1096 670q0 -149 -26.5 -266.5t-72 -196t-111 -130.5t-139.5 -74.5t-161 -22.5q-212 0 -351 138t-139 353q0 218 132.5 355t349.5 137q135 0 238 -69.5t151 -186.5q-6 347 -159.5 531.5t-404.5 184.5q-60 0 -114 -10v111q86 12 127 12q145 0 269.5 -58.5t215.5 -167
t143 -273.5t52 -367zM586 92q157 0 258.5 105t101.5 274t-101.5 274t-258.5 105q-160 0 -263.5 -105t-103.5 -274t103.5 -274t263.5 -105z" />
    <glyph glyph-name="product" unicode="&#x220f;" horiz-adv-x="1208" 
d="M168 -512v2048h872v-2048h-122v1935h-627v-1935h-123z" />
    <glyph glyph-name="summation" unicode="&#x2211;" horiz-adv-x="905" 
d="M825 -399v-113h-719v152l541 870l-541 874v152h719v-113h-594l514 -831v-160l-514 -831h594z" />
    <glyph glyph-name="minus" unicode="&#x2212;" 
d="M154 578v86h819v-86h-819z" />
    <glyph glyph-name="radical" unicode="&#x221a;" horiz-adv-x="1024" 
d="M1067 1536l-473 -1536h-164l-397 1024h129l346 -922l432 1434h127z" />
    <glyph glyph-name="infinity" unicode="&#x221e;" 
d="M1051 618q0 -110 -74 -183t-184 -73q-81 0 -141.5 40t-88.5 108q-28 -69 -87.5 -108.5t-139.5 -39.5q-112 0 -186 73t-74 183t74 183t186 73q80 0 139.5 -39t87.5 -108q28 69 88 108t142 39q110 0 184 -73t74 -183zM336 442q74 0 123 50t49 126t-49 126.5t-123 50.5
q-75 0 -124.5 -50.5t-49.5 -126.5t49.5 -126t124.5 -50zM793 442q74 0 123 50t49 126t-49 126.5t-123 50.5t-124.5 -50.5t-50.5 -126.5t50.5 -126t124.5 -50z" />
    <glyph glyph-name="integral" unicode="&#x222b;" horiz-adv-x="702" 
d="M84 -512q-62 0 -92 10v111q33 -8 78 -8q72 0 109.5 35t37.5 126v1432q0 178 84 270t231 92q91 0 156 -24v-115q-58 27 -145 27q-203 0 -203 -256v-1430q0 -270 -256 -270z" />
    <glyph glyph-name="approxequal" unicode="&#x2248;" 
d="M373 887q-54 0 -88.5 -38t-34.5 -110v-63h-96v76q0 111 56.5 172t145.5 61q56 0 105.5 -22.5t85 -55t69 -64.5t70.5 -54.5t74 -22.5q52 0 84.5 36.5t32.5 108.5v64h96v-76q0 -112 -56.5 -172.5t-146.5 -60.5q-48 0 -91.5 23t-77.5 55t-67.5 64.5t-75 55.5t-85.5 23z
M373 477q-54 0 -88.5 -37.5t-34.5 -109.5v-64h-96v76q0 111 56.5 172t145.5 61q56 0 105.5 -22.5t85 -55t69 -64.5t70.5 -54.5t74 -22.5q52 0 84.5 37t32.5 109v63h96v-76q0 -112 -56.5 -172.5t-146.5 -60.5q-48 0 -91.5 23t-77.5 55.5t-67.5 64.5t-75 55t-85.5 23z" />
    <glyph glyph-name="notequal" unicode="&#x2260;" 
d="M973 373h-555l-146 -176h-118l145 176h-145v88h219l264 321h-483v86h555l145 176h119l-146 -176h146v-86h-217l-264 -321h481v-88z" />
    <glyph glyph-name="lessequal" unicode="&#x2264;" 
d="M973 305v-100l-819 383v98l819 383v-100l-709 -332zM154 0v88h819v-88h-819z" />
    <glyph glyph-name="greaterequal" unicode="&#x2265;" 
d="M973 588l-819 -383v100l708 332l-708 332v100l819 -383v-98zM973 0h-819v88h819v-88z" />
    <glyph glyph-name="uni25B4" unicode="&#x25b4;" horiz-adv-x="1153" 
d="M119 348l456 744l457 -744h-913z" />
    <glyph glyph-name="uni25B5" unicode="&#x25b5;" horiz-adv-x="1153" 
d="M119 373l456 743l457 -743h-913zM252 449h647l-324 526z" />
    <glyph glyph-name="uni25B8" unicode="&#x25b8;" horiz-adv-x="1153" 
d="M289 133v914l743 -457z" />
    <glyph glyph-name="uni25B9" unicode="&#x25b9;" horiz-adv-x="1153" 
d="M289 158v913l743 -457zM367 291l526 323l-526 324v-647z" />
    <glyph glyph-name="uni25BE" unicode="&#x25be;" horiz-adv-x="1153" 
d="M119 1096h913l-457 -744z" />
    <glyph glyph-name="uni25BF" unicode="&#x25bf;" horiz-adv-x="1153" 
d="M119 1096h913l-457 -744zM252 1020l323 -526l324 526h-647z" />
    <glyph glyph-name="uni25C2" unicode="&#x25c2;" horiz-adv-x="1153" 
d="M864 133l-743 457l743 457v-914z" />
    <glyph glyph-name="uni25C3" unicode="&#x25c3;" horiz-adv-x="1153" 
d="M864 158l-743 456l743 457v-913zM786 291v647l-526 -324z" />
    <glyph glyph-name="lozenge" unicode="&#x25ca;" horiz-adv-x="1024" 
d="M463 0l-375 768l375 768h98l375 -768l-375 -768h-98zM512 106l324 662l-324 662l-324 -662z" />
    <glyph glyph-name="heart" unicode="&#x2665;" horiz-adv-x="1726" 
d="M889 0h-51q-25 77 -78 148.5t-115.5 128t-133 113.5t-135 115t-117.5 121.5t-84.5 145.5t-31.5 174q0 182 106.5 283.5t264.5 101.5q115 0 207 -60t141 -186q48 125 141.5 185.5t208.5 60.5q101 0 183.5 -42t135 -131.5t52.5 -211.5q0 -92 -31.5 -174t-84 -145.5
t-117.5 -121.5t-135 -115t-132.5 -113.5t-115.5 -128t-78 -148.5zM891 952h-55q-41 145 -124.5 218t-191.5 73q-121 0 -200.5 -79.5t-79.5 -227.5q0 -77 25.5 -144t69 -119.5t97.5 -100.5t115.5 -96t118 -95.5t110.5 -110t88 -129.5q34 67 88 129.5t110.5 110t118 95.5
t115 96t97 100.5t69 119.5t25.5 144q0 147 -80 227t-201 80q-109 0 -191 -73t-124 -218z" />
    <glyph glyph-name="uni2780" unicode="&#x2780;" horiz-adv-x="1699" 
d="M850 -20q-165 0 -311 63t-248 169.5t-160.5 251t-58.5 304.5q0 162 58.5 307t160.5 251t247.5 168t311.5 62t311.5 -62t247.5 -168t160.5 -251t58.5 -307q0 -160 -58.5 -304.5t-160.5 -251t-248 -169.5t-311 -63zM850 1491q-151 0 -283 -57.5t-224.5 -155t-146 -230.5
t-53.5 -280q0 -198 90.5 -363.5t253 -262.5t363.5 -97q151 0 283 57t224.5 154.5t145.5 230.5t53 281q0 147 -53 280t-145.5 230.5t-224.5 155t-283 57.5zM811 1124v41h104v-796h-106v579h-141v84h55q47 0 67.5 21.5t20.5 70.5z" />
    <glyph glyph-name="uni2781" unicode="&#x2781;" horiz-adv-x="1699" 
d="M850 -20q-165 0 -311 63t-248 169.5t-160.5 251t-58.5 304.5q0 162 58.5 307t160.5 251t247.5 168t311.5 62t311.5 -62t247.5 -168t160.5 -251t58.5 -307q0 -160 -58.5 -304.5t-160.5 -251t-248 -169.5t-311 -63zM850 1491q-151 0 -283 -57.5t-224.5 -155t-146 -230.5
t-53.5 -280q0 -198 90.5 -363.5t253 -262.5t363.5 -97q151 0 283 57t224.5 154.5t145.5 230.5t53 281q0 147 -53 280t-145.5 230.5t-224.5 155t-283 57.5zM1104 940q0 -48 -21.5 -89.5t-56 -72t-76.5 -58.5t-85.5 -55.5t-80 -56.5t-62 -67.5t-30.5 -83.5h424v-88h-549v45
q0 60 24 111t62.5 87.5t85 68.5t93.5 60.5t85.5 57t62.5 64t24 75.5q0 69 -46 110.5t-116 41.5q-76 0 -123 -43t-47 -127v-21h-99v29q0 116 76 183t193 67q112 0 187 -63.5t75 -174.5z" />
    <glyph glyph-name="uni2782" unicode="&#x2782;" horiz-adv-x="1699" 
d="M850 -20q-165 0 -311 63t-248 169.5t-160.5 251t-58.5 304.5q0 162 58.5 307t160.5 251t247.5 168t311.5 62t311.5 -62t247.5 -168t160.5 -251t58.5 -307q0 -160 -58.5 -304.5t-160.5 -251t-248 -169.5t-311 -63zM850 1491q-151 0 -283 -57.5t-224.5 -155t-146 -230.5
t-53.5 -280q0 -198 90.5 -363.5t253 -262.5t363.5 -97q151 0 283 57t224.5 154.5t145.5 230.5t53 281q0 147 -53 280t-145.5 230.5t-224.5 155t-283 57.5zM1135 590q0 -108 -79 -171t-208 -63q-133 0 -217 67.5t-84 176.5h102q0 -71 53.5 -114.5t141.5 -43.5
q87 0 138.5 42.5t51.5 109.5q0 69 -51 109t-143 40h-60v84h60q77 0 121.5 35.5t44.5 93.5q0 60 -46.5 97t-125.5 37q-78 0 -124 -40t-46 -106h-99q0 107 74 170.5t197 63.5q122 0 197 -59.5t75 -155.5q0 -123 -125 -175q71 -27 111.5 -78.5t40.5 -119.5z" />
    <glyph glyph-name="uni2783" unicode="&#x2783;" horiz-adv-x="1699" 
d="M850 -20q-165 0 -311 63t-248 169.5t-160.5 251t-58.5 304.5q0 162 58.5 307t160.5 251t247.5 168t311.5 62t311.5 -62t247.5 -168t160.5 -251t58.5 -307q0 -160 -58.5 -304.5t-160.5 -251t-248 -169.5t-311 -63zM850 1491q-151 0 -283 -57.5t-224.5 -155t-146 -230.5
t-53.5 -280q0 -198 90.5 -363.5t253 -262.5t363.5 -97q151 0 283 57t224.5 154.5t145.5 230.5t53 281q0 147 -53 280t-145.5 230.5t-224.5 155t-283 57.5zM483 645l332 520h162v-518h168v-86h-168v-192h-100v192h-394v84zM580 647h297v467z" />
    <glyph glyph-name="uni2784" unicode="&#x2784;" horiz-adv-x="1699" 
d="M850 -20q-165 0 -311 63t-248 169.5t-160.5 251t-58.5 304.5q0 162 58.5 307t160.5 251t247.5 168t311.5 62t311.5 -62t247.5 -168t160.5 -251t58.5 -307q0 -160 -58.5 -304.5t-160.5 -251t-248 -169.5t-311 -63zM850 1491q-151 0 -283 -57.5t-224.5 -155t-146 -230.5
t-53.5 -280q0 -198 90.5 -363.5t253 -262.5t363.5 -97q151 0 283 57t224.5 154.5t145.5 230.5t53 281q0 147 -53 280t-145.5 230.5t-224.5 155t-283 57.5zM842 838q-69 0 -115.5 -33t-56.5 -78h-99v438h525v-86h-430v-260q30 45 82 70.5t116 25.5q118 0 195.5 -76.5
t77.5 -199.5q0 -126 -80.5 -204.5t-210.5 -78.5q-129 0 -208 72t-79 188h100q0 -76 51 -124t136 -48q87 0 138.5 54.5t51.5 140.5q0 88 -52.5 143.5t-141.5 55.5z" />
    <glyph glyph-name="uni2785" unicode="&#x2785;" horiz-adv-x="1699" 
d="M850 -20q-165 0 -311 63t-248 169.5t-160.5 251t-58.5 304.5q0 162 58.5 307t160.5 251t247.5 168t311.5 62t311.5 -62t247.5 -168t160.5 -251t58.5 -307q0 -160 -58.5 -304.5t-160.5 -251t-248 -169.5t-311 -63zM850 1491q-151 0 -283 -57.5t-224.5 -155t-146 -230.5
t-53.5 -280q0 -198 90.5 -363.5t253 -262.5t363.5 -97q151 0 283 57t224.5 154.5t145.5 230.5t53 281q0 147 -53 280t-145.5 230.5t-224.5 155t-283 57.5zM1128 618q0 -117 -80 -189.5t-198 -72.5q-140 0 -226.5 100.5t-86.5 313.5q0 203 89 305.5t224 102.5q116 0 192 -69
t76 -177h-96q-2 71 -48.5 115.5t-123.5 44.5q-97 0 -154 -80t-57 -240q0 -43 2 -61q24 82 87.5 126t141.5 44q107 0 182.5 -71.5t75.5 -191.5zM850 442q76 0 127 50t51 126q0 77 -51 128t-127 51q-74 0 -126 -51t-52 -128q0 -76 52 -126t126 -50z" />
    <glyph glyph-name="uni2786" unicode="&#x2786;" horiz-adv-x="1699" 
d="M850 -20q-165 0 -311 63t-248 169.5t-160.5 251t-58.5 304.5q0 162 58.5 307t160.5 251t247.5 168t311.5 62t311.5 -62t247.5 -168t160.5 -251t58.5 -307q0 -160 -58.5 -304.5t-160.5 -251t-248 -169.5t-311 -63zM850 1491q-151 0 -283 -57.5t-224.5 -155t-146 -230.5
t-53.5 -280q0 -198 90.5 -363.5t253 -262.5t363.5 -97q151 0 283 57t224.5 154.5t145.5 230.5t53 281q0 147 -53 280t-145.5 230.5t-224.5 155t-283 57.5zM868 412v-43h-102v39q0 205 76.5 367t206.5 302h-455v88h541v-112q-129 -142 -198 -291.5t-69 -349.5z" />
    <glyph glyph-name="uni2787" unicode="&#x2787;" horiz-adv-x="1699" 
d="M850 -20q-165 0 -311 63t-248 169.5t-160.5 251t-58.5 304.5q0 162 58.5 307t160.5 251t247.5 168t311.5 62t311.5 -62t247.5 -168t160.5 -251t58.5 -307q0 -160 -58.5 -304.5t-160.5 -251t-248 -169.5t-311 -63zM850 1491q-151 0 -283 -57.5t-224.5 -155t-146 -230.5
t-53.5 -280q0 -198 90.5 -363.5t253 -262.5t363.5 -97q151 0 283 57t224.5 154.5t145.5 230.5t53 281q0 147 -53 280t-145.5 230.5t-224.5 155t-283 57.5zM1133 594q0 -108 -77 -173t-206 -65q-128 0 -204.5 65t-76.5 173q0 67 38.5 120t103.5 81q-52 27 -81.5 71.5
t-29.5 100.5q0 95 68 153t182 58q116 0 184 -58t68 -153q0 -56 -29.5 -100.5t-81.5 -71.5q65 -28 103.5 -81t38.5 -120zM850 831q71 0 112.5 36.5t41.5 93.5q0 59 -42 96t-112 37q-68 0 -110 -37t-42 -96q0 -57 41.5 -93.5t110.5 -36.5zM850 440q84 0 133 44t49 114t-49 114
t-133 44q-82 0 -131 -44t-49 -114t49 -114t131 -44z" />
    <glyph glyph-name="uni2788" unicode="&#x2788;" horiz-adv-x="1699" 
d="M850 -20q-165 0 -311 63t-248 169.5t-160.5 251t-58.5 304.5q0 162 58.5 307t160.5 251t247.5 168t311.5 62t311.5 -62t247.5 -168t160.5 -251t58.5 -307q0 -160 -58.5 -304.5t-160.5 -251t-248 -169.5t-311 -63zM850 1491q-151 0 -283 -57.5t-224.5 -155t-146 -230.5
t-53.5 -280q0 -198 90.5 -363.5t253 -262.5t363.5 -97q151 0 283 57t224.5 154.5t145.5 230.5t53 281q0 147 -53 280t-145.5 230.5t-224.5 155t-283 57.5zM1163 764q0 -203 -89 -305.5t-224 -102.5q-116 0 -192 69t-76 177h98q0 -71 47 -115.5t123 -44.5q98 0 154.5 80
t56.5 240q0 43 -2 61q-24 -84 -88 -128t-142 -44q-107 0 -182.5 72.5t-75.5 191.5q0 117 80.5 190t198.5 73q140 0 226.5 -100.5t86.5 -313.5zM850 1092q-75 0 -126.5 -50.5t-51.5 -126.5q0 -77 51 -127.5t127 -50.5q75 0 126.5 50.5t51.5 127.5q0 76 -52 126.5t-126 50.5z
" />
    <glyph glyph-name="uni2789" unicode="&#x2789;" horiz-adv-x="1699" 
d="M850 -20q-165 0 -311 63t-248 169.5t-160.5 251t-58.5 304.5q0 162 58.5 307t160.5 251t247.5 168t311.5 62t311.5 -62t247.5 -168t160.5 -251t58.5 -307q0 -160 -58.5 -304.5t-160.5 -251t-248 -169.5t-311 -63zM850 1491q-151 0 -283 -57.5t-224.5 -155t-146 -230.5
t-53.5 -280q0 -198 90.5 -363.5t253 -262.5t363.5 -97q151 0 283 57t224.5 154.5t145.5 230.5t53 281q0 147 -53 280t-145.5 230.5t-224.5 155t-283 57.5zM1075 358q-137 0 -220 103.5t-83 306.5t83 307.5t220 104.5t220 -104.5t83 -307.5t-83 -306.5t-220 -103.5zM475 1124
v41h105v-796h-107v579h-141v84h55q47 0 67.5 21.5t20.5 70.5zM1075 451q93 0 147 78.5t54 238.5q0 159 -54 240.5t-147 81.5t-147 -81.5t-54 -240.5q0 -160 54 -238.5t147 -78.5z" />
    <glyph glyph-name="uni278A" unicode="&#x278a;" horiz-adv-x="1699" 
d="M850 -20q-165 0 -311 63t-248 169.5t-160.5 251t-58.5 304.5q0 162 58.5 307t160.5 251t247.5 168t311.5 62t311.5 -62t247.5 -168t160.5 -251t58.5 -307q0 -160 -58.5 -304.5t-160.5 -251t-248 -169.5t-311 -63zM811 1124q0 -49 -20.5 -70.5t-67.5 -21.5h-55v-84h141
v-579h106v796h-104v-41z" />
    <glyph glyph-name="uni278B" unicode="&#x278b;" horiz-adv-x="1699" 
d="M850 -20q-165 0 -311 63t-248 169.5t-160.5 251t-58.5 304.5q0 162 58.5 307t160.5 251t247.5 168t311.5 62t311.5 -62t247.5 -168t160.5 -251t58.5 -307q0 -160 -58.5 -304.5t-160.5 -251t-248 -169.5t-311 -63zM1104 940q0 111 -75 174.5t-187 63.5q-117 0 -193 -67
t-76 -183v-29h99v21q0 84 47 127t123 43q70 0 116 -41.5t46 -110.5q0 -40 -24 -75.5t-62.5 -64t-85 -57t-93.5 -60.5t-85.5 -68.5t-62.5 -87.5t-24 -111v-45h549v88h-424q5 45 30.5 83.5t62 67.5t80 56.5t85.5 55.5t76.5 58.5t56 72t21.5 89.5z" />
    <glyph glyph-name="uni278C" unicode="&#x278c;" horiz-adv-x="1699" 
d="M850 -20q-165 0 -311 63t-248 169.5t-160.5 251t-58.5 304.5q0 162 58.5 307t160.5 251t247.5 168t311.5 62t311.5 -62t247.5 -168t160.5 -251t58.5 -307q0 -160 -58.5 -304.5t-160.5 -251t-248 -169.5t-311 -63zM848 356q129 0 208 63t79 171q0 70 -41.5 121.5
t-114.5 76.5q61 22 95 68.5t34 106.5q0 96 -75 155.5t-197 59.5q-123 0 -197 -63.5t-74 -170.5h99q0 66 46 106t124 40q79 0 125.5 -37t46.5 -97q0 -58 -44.5 -93.5t-121.5 -35.5h-60v-84h60q92 0 143 -40t51 -109q0 -67 -51.5 -109.5t-138.5 -42.5q-88 0 -141.5 43.5
t-53.5 114.5h-102q0 -109 84 -176.5t217 -67.5z" />
    <glyph glyph-name="uni278D" unicode="&#x278d;" horiz-adv-x="1699" 
d="M850 -20q-165 0 -311 63t-248 169.5t-160.5 251t-58.5 304.5q0 162 58.5 307t160.5 251t247.5 168t311.5 62t311.5 -62t247.5 -168t160.5 -251t58.5 -307q0 -160 -58.5 -304.5t-160.5 -251t-248 -169.5t-311 -63zM1145 561v86h-168v518h-162l-332 -520v-84h394v-192h100
v192h168zM580 647l297 455v-455h-297z" />
    <glyph glyph-name="uni278E" unicode="&#x278e;" horiz-adv-x="1699" 
d="M850 -20q-165 0 -311 63t-248 169.5t-160.5 251t-58.5 304.5q0 162 58.5 307t160.5 251t247.5 168t311.5 62t311.5 -62t247.5 -168t160.5 -251t58.5 -307q0 -160 -58.5 -304.5t-160.5 -251t-248 -169.5t-311 -63zM846 356q130 0 210.5 78.5t80.5 204.5q0 123 -77.5 199.5
t-195.5 76.5q-64 0 -116 -25.5t-82 -70.5v260h430v86h-525v-438h99q10 45 56.5 78t115.5 33q89 0 141.5 -55.5t52.5 -143.5q0 -86 -51.5 -140.5t-138.5 -54.5q-85 0 -136 48t-51 124h-100q0 -116 79 -188t208 -72z" />
    <glyph glyph-name="uni278F" unicode="&#x278f;" horiz-adv-x="1699" 
d="M850 -20q-165 0 -311 63t-248 169.5t-160.5 251t-58.5 304.5q0 162 58.5 307t160.5 251t247.5 168t311.5 62t311.5 -62t247.5 -168t160.5 -251t58.5 -307q0 -160 -58.5 -304.5t-160.5 -251t-248 -169.5t-311 -63zM850 356q118 0 198 72.5t80 189.5q0 120 -75.5 191.5
t-182.5 71.5q-80 0 -143 -45t-82 -129q-6 27 -6 69q0 157 57.5 236.5t153.5 79.5q77 0 123.5 -44.5t48.5 -115.5h96q0 108 -76 177t-192 69q-135 0 -224 -102.5t-89 -305.5q0 -213 86.5 -313.5t226.5 -100.5zM850 442q-74 0 -126 50t-52 126q0 77 52 128t126 51
q76 0 127 -51t51 -128q0 -76 -51 -126t-127 -50z" />
    <glyph glyph-name="uni2790" unicode="&#x2790;" horiz-adv-x="1699" 
d="M850 -20q-165 0 -311 63t-248 169.5t-160.5 251t-58.5 304.5q0 162 58.5 307t160.5 251t247.5 168t311.5 62t311.5 -62t247.5 -168t160.5 -251t58.5 -307q0 -160 -58.5 -304.5t-160.5 -251t-248 -169.5t-311 -63zM868 369v43q0 200 69 349.5t198 291.5v112h-541v-88h453
q-281 -306 -281 -669v-39h102z" />
    <glyph glyph-name="uni2791" unicode="&#x2791;" horiz-adv-x="1699" 
d="M850 -20q-165 0 -311 63t-248 169.5t-160.5 251t-58.5 304.5q0 162 58.5 307t160.5 251t247.5 168t311.5 62t311.5 -62t247.5 -168t160.5 -251t58.5 -307q0 -160 -58.5 -304.5t-160.5 -251t-248 -169.5t-311 -63zM850 356q129 0 206 65t77 173q0 68 -40.5 121t-109.5 80
q56 25 87.5 69.5t31.5 102.5q0 95 -68 153t-184 58q-114 0 -182 -58t-68 -153q0 -58 31 -102.5t86 -69.5q-68 -27 -108 -80t-40 -121q0 -108 76.5 -173t204.5 -65zM850 831q-69 0 -110.5 36.5t-41.5 93.5q0 59 42 96t110 37q70 0 112 -37t42 -96q0 -57 -41.5 -93.5
t-112.5 -36.5zM850 440q-82 0 -131 44t-49 114t49 114t131 44q84 0 133 -44t49 -114t-49 -114t-133 -44z" />
    <glyph glyph-name="uni2792" unicode="&#x2792;" horiz-adv-x="1699" 
d="M850 -20q-165 0 -311 63t-248 169.5t-160.5 251t-58.5 304.5q0 162 58.5 307t160.5 251t247.5 168t311.5 62t311.5 -62t247.5 -168t160.5 -251t58.5 -307q0 -160 -58.5 -304.5t-160.5 -251t-248 -169.5t-311 -63zM1061 758q-1 -159 -58 -237.5t-153 -78.5
q-76 0 -123 44.5t-47 115.5h-98q0 -108 76 -177t192 -69q135 0 224 102.5t89 305.5q0 213 -86.5 313.5t-226.5 100.5q-118 0 -198.5 -73t-80.5 -190q0 -119 75.5 -191.5t182.5 -72.5q79 0 143 46t83 130q6 -27 6 -69zM850 1092q74 0 126 -50.5t52 -126.5q0 -77 -51.5 -127.5
t-126.5 -50.5q-76 0 -127 50.5t-51 127.5q0 76 51.5 126.5t126.5 50.5z" />
    <glyph glyph-name="uni2793" unicode="&#x2793;" horiz-adv-x="1699" 
d="M850 -20q-165 0 -311 63t-248 169.5t-160.5 251t-58.5 304.5q0 162 58.5 307t160.5 251t247.5 168t311.5 62t311.5 -62t247.5 -168t160.5 -251t58.5 -307q0 -160 -58.5 -304.5t-160.5 -251t-248 -169.5t-311 -63zM1075 358q137 0 220 103.5t83 306.5t-83 307.5
t-220 104.5t-220 -104.5t-83 -307.5t83 -306.5t220 -103.5zM475 1124q0 -49 -20.5 -70.5t-67.5 -21.5h-55v-84h141v-579h107v796h-105v-41zM1075 451q-93 0 -147 78.5t-54 238.5q0 159 54 240.5t147 81.5t147 -81.5t54 -240.5q0 -160 -54 -238.5t-147 -78.5z" />
    <glyph glyph-name="uni27F7" unicode="&#x27f7;" horiz-adv-x="1781" 
d="M1686 623l-435 -437l-65 66l323 326h-1237l324 -326l-66 -66l-434 437l434 434l66 -66l-328 -327h1245l-327 327l65 66z" />
    <glyph glyph-name="dotlessj" unicode="&#xf6be;" horiz-adv-x="458" 
d="M168 -238v1262h123v-1266q0 -270 -256 -270q-62 0 -92 10v111q33 -8 77 -8q72 0 110 35t38 126z" />
    <glyph glyph-name="commaaccent" unicode="&#xf6c3;" horiz-adv-x="1024" 
d="M467 -430h-84l61 307h142z" />
    <glyph glyph-name="centinferior" unicode="&#xf6df;" horiz-adv-x="733" 
d="M698 -227q-12 -125 -94.5 -205.5t-206.5 -89.5v-156h-55v154q-134 9 -220.5 104.5t-86.5 241.5q0 145 87 241t220 105v151h55v-153q121 -9 202.5 -85.5t96.5 -195.5h-100q-13 79 -67.5 130.5t-131.5 60.5v-510q83 9 137.5 64.5t63.5 142.5h100zM133 -178
q0 -107 58 -177.5t151 -78.5v510q-92 -8 -150.5 -78.5t-58.5 -175.5z" />
    <glyph glyph-name="centsuperior" unicode="&#xf6e0;" horiz-adv-x="733" 
d="M698 821q-12 -125 -94.5 -205.5t-206.5 -89.5v-155h-55v153q-134 9 -220.5 104.5t-86.5 241.5q0 145 87 241.5t220 105.5v151h55v-154q121 -9 202.5 -85t96.5 -195h-100q-13 79 -67.5 130t-131.5 60v-510q83 9 137.5 64.5t63.5 142.5h100zM133 870q0 -107 58 -177.5
t151 -78.5v510q-92 -8 -150.5 -78.5t-58.5 -175.5z" />
    <glyph glyph-name="commainferior" unicode="&#xf6e1;" horiz-adv-x="237" 
d="M199 -467q0 -73 -82 -195h-60q51 84 66 138q-29 0 -50.5 21t-21.5 50t21.5 49.5t50.5 20.5q32 0 54 -24t22 -60z" />
    <glyph glyph-name="commasuperior" unicode="&#xf6e2;" horiz-adv-x="247" 
d="M199 582q0 -73 -82 -195h-60q51 84 66 137q-29 0 -50.5 21.5t-21.5 50.5t21.5 49.5t50.5 20.5q32 0 54 -24t22 -60z" />
    <glyph glyph-name="dollarinferior" unicode="&#xf6e3;" horiz-adv-x="671" 
d="M608 -301q0 -101 -66.5 -159.5t-176.5 -63.5v-154h-56v156q-111 9 -178.5 74t-67.5 174h99q0 -71 40 -115t107 -53v301q-43 13 -68.5 21.5t-60 27.5t-53.5 41t-33 57.5t-14 81.5q0 92 64 148t165 61v156h56v-158q102 -11 166.5 -76t64.5 -158h-98q0 58 -37 99.5t-96 52.5
v-276q40 -12 60 -19t54 -21t52.5 -30t38.5 -39.5t29 -56t9 -72.5zM176 90q0 -55 34 -85t99 -52v262q-61 -5 -97 -37.5t-36 -87.5zM510 -305q0 62 -37 93.5t-108 53.5v-286q70 5 107.5 40t37.5 99z" />
    <glyph glyph-name="dollarsuperior" unicode="&#xf6e4;" horiz-adv-x="671" 
d="M608 748q0 -101 -66.5 -160t-176.5 -64v-153h-56v155q-111 9 -178.5 74t-67.5 174h99q0 -71 40 -115t107 -53v301q-30 9 -49 15t-45.5 17t-43.5 22.5t-36 29t-30 37.5t-18 48t-7 61q0 92 64 148t165 61v155h56v-158q102 -11 166.5 -75.5t64.5 -157.5h-98q0 58 -37 99.5
t-96 52.5v-277q35 -10 51 -15.5t47.5 -17.5t47 -22.5t37.5 -29t33 -39t19 -49.5t8 -64zM176 1139q0 -55 34.5 -85.5t98.5 -52.5v263q-61 -5 -97 -37.5t-36 -87.5zM510 743q0 62 -37.5 94t-107.5 54v-287q70 5 107.5 40t37.5 99z" />
    <glyph glyph-name="periodinferior" unicode="&#xf6e7;" horiz-adv-x="237" 
d="M123 -524q-31 0 -52.5 21t-21.5 50q0 32 21.5 53t52.5 21q32 0 53 -21t21 -53q0 -30 -21 -50.5t-53 -20.5z" />
    <glyph glyph-name="periodsuperior" unicode="&#xf6e8;" horiz-adv-x="247" 
d="M123 524q-31 0 -52.5 21.5t-21.5 50.5q0 32 21.5 53t52.5 21q32 0 53 -21t21 -53q0 -30 -21 -51t-53 -21z" />
    <glyph glyph-name="thinspace" horiz-adv-x="256" 
 />
    <glyph glyph-name="fi.cap" horiz-adv-x="1347" 
d="M168 0v1536h655v-113h-532v-614h471v-111h-471v-698h-123zM1180 0h-123v1536h123v-1536z" />
    <glyph glyph-name="fl.cap" horiz-adv-x="1777" 
d="M168 0v1536h655v-113h-532v-614h471v-111h-471v-698h-123zM1720 113v-113h-663v1536h123v-1423h540z" />
    <glyph glyph-name="germandbls.cap" horiz-adv-x="1986" 
d="M135 1200q0 181 101 268.5t264 87.5q167 0 268.5 -104.5t101.5 -304.5v-78h-122v72q0 153 -64.5 228t-183.5 75q-110 0 -176 -64t-66 -180q0 -56 17.5 -104.5t53 -88.5t72.5 -70t91 -65l137 -94q61 -40 104 -77t83 -86.5t60.5 -110.5t20.5 -133q0 -188 -111.5 -289.5
t-283.5 -101.5q-170 0 -283 109t-113 300v98h123v-84q0 -144 74.5 -227.5t198.5 -83.5q125 0 198.5 70t73.5 192q0 108 -58.5 183.5t-166.5 146.5l-137 92q-62 40 -107.5 78.5t-86.5 90t-62 116t-21 139.5zM1128 1200q0 181 101 268.5t264 87.5q167 0 269 -104.5t102 -304.5
v-78h-123v72q0 153 -64.5 228t-183.5 75q-110 0 -176 -64t-66 -180q0 -56 17.5 -104.5t53 -88.5t72.5 -70t91 -65l137 -94q61 -40 104 -77t83 -86.5t60.5 -110.5t20.5 -133q0 -188 -111.5 -289.5t-283.5 -101.5q-170 0 -282.5 109t-112.5 300v98h123v-84q0 -144 74 -227.5
t198 -83.5q125 0 198.5 70t73.5 192q0 108 -58.5 183.5t-166.5 146.5l-137 92q-62 40 -107.5 78.5t-86.5 90t-62 116t-21 139.5z" />
    <glyph glyph-name="a.alt" horiz-adv-x="1259" 
d="M969 0v215q-62 -110 -165.5 -172.5t-230.5 -62.5q-211 0 -350 149.5t-139 382.5t139 382.5t350 149.5q127 0 230.5 -62.5t165.5 -172.5v215h123v-1024h-123zM588 932q-165 0 -273 -116.5t-108 -303.5t108 -303.5t273 -116.5t273 116.5t108 303.5t-108 303.5t-273 116.5z
" />
    <glyph glyph-name="g.alt" horiz-adv-x="1105" 
d="M1075 -223q0 -142 -118.5 -225.5t-374.5 -83.5h-52q-247 0 -363 77t-116 211q0 77 50 136.5t135 89.5q-65 25 -102.5 74.5t-37.5 113.5q0 74 50 126t139 71q-76 53 -119 131t-43 172q0 162 118.5 268t290.5 106q119 0 213 -51l9 13q15 22 31 30t46 8h254v-124h-241
q98 -106 98 -250q0 -163 -119 -269t-291 -106q-96 0 -172 33q-66 -5 -109.5 -40.5t-43.5 -88.5q0 -59 45.5 -93t132.5 -34h270q219 0 319.5 -78.5t100.5 -216.5zM532 399q126 0 208.5 76.5t82.5 194.5q0 119 -81 194.5t-210 75.5t-209.5 -75.5t-80.5 -194.5
q0 -118 82 -194.5t208 -76.5zM551 -428h27q109 0 185.5 15.5t117 44.5t58 64.5t17.5 82.5q0 85 -71.5 134.5t-222.5 49.5h-173q-164 0 -241.5 -49.5t-77.5 -134.5q0 -47 17.5 -82.5t59 -64.5t118 -44.5t186.5 -15.5z" />
    <glyph glyph-name="agrave.alt" horiz-adv-x="1259" 
d="M535 1229l-197 307h149l148 -307h-100zM969 0v215q-62 -110 -165.5 -172.5t-230.5 -62.5q-211 0 -350 149.5t-139 382.5t139 382.5t350 149.5q127 0 230.5 -62.5t165.5 -172.5v215h123v-1024h-123zM588 932q-165 0 -273 -116.5t-108 -303.5t108 -303.5t273 -116.5
t273 116.5t108 303.5t-108 303.5t-273 116.5z" />
    <glyph glyph-name="aacute.alt" horiz-adv-x="1259" 
d="M647 1229h-100l147 307h150zM969 0v215q-62 -110 -165.5 -172.5t-230.5 -62.5q-211 0 -350 149.5t-139 382.5t139 382.5t350 149.5q127 0 230.5 -62.5t165.5 -172.5v215h123v-1024h-123zM588 932q-165 0 -273 -116.5t-108 -303.5t108 -303.5t273 -116.5t273 116.5
t108 303.5t-108 303.5t-273 116.5z" />
    <glyph glyph-name="acircumflex.alt" horiz-adv-x="1259" 
d="M385 1229h-100l225 307h147l226 -307h-101l-198 223zM969 0v215q-62 -110 -165.5 -172.5t-230.5 -62.5q-211 0 -350 149.5t-139 382.5t139 382.5t350 149.5q127 0 230.5 -62.5t165.5 -172.5v215h123v-1024h-123zM588 932q-165 0 -273 -116.5t-108 -303.5t108 -303.5
t273 -116.5t273 116.5t108 303.5t-108 303.5t-273 116.5z" />
    <glyph glyph-name="atilde.alt" horiz-adv-x="1259" 
d="M272 1241v102q0 181 150 181q40 0 76 -20t63.5 -48t53.5 -56.5t55 -48.5t57 -20q78 0 78 101v79h90v-102q0 -180 -150 -180q-40 0 -76.5 20t-64 48t-53 56t-54.5 48t-57 20q-78 0 -78 -100v-80h-90zM969 0v215q-62 -110 -165.5 -172.5t-230.5 -62.5q-211 0 -350 149.5
t-139 382.5t139 382.5t350 149.5q127 0 230.5 -62.5t165.5 -172.5v215h123v-1024h-123zM588 932q-165 0 -273 -116.5t-108 -303.5t108 -303.5t273 -116.5t273 116.5t108 303.5t-108 303.5t-273 116.5z" />
    <glyph glyph-name="adieresis.alt" horiz-adv-x="1259" 
d="M379 1290q-38 0 -65 27t-27 65t27 65.5t65 27.5q39 0 65.5 -27t26.5 -66t-26.5 -65.5t-65.5 -26.5zM788 1290q-38 0 -65 27t-27 65t27 65.5t65 27.5q39 0 66 -27t27 -66q0 -38 -26.5 -65t-66.5 -27zM969 0v215q-62 -110 -165.5 -172.5t-230.5 -62.5q-211 0 -350 149.5
t-139 382.5t139 382.5t350 149.5q127 0 230.5 -62.5t165.5 -172.5v215h123v-1024h-123zM588 932q-165 0 -273 -116.5t-108 -303.5t108 -303.5t273 -116.5t273 116.5t108 303.5t-108 303.5t-273 116.5z" />
    <glyph glyph-name="amacron.alt" horiz-adv-x="1259" 
d="M862 1372v-88h-549v88h549zM969 0v215q-62 -110 -165.5 -172.5t-230.5 -62.5q-211 0 -350 149.5t-139 382.5t139 382.5t350 149.5q127 0 230.5 -62.5t165.5 -172.5v215h123v-1024h-123zM588 932q-165 0 -273 -116.5t-108 -303.5t108 -303.5t273 -116.5t273 116.5
t108 303.5t-108 303.5t-273 116.5z" />
    <glyph glyph-name="abreve.alt" horiz-adv-x="1259" 
d="M772 1536h96q0 -143 -77.5 -225t-206.5 -82q-128 0 -205.5 82t-77.5 225h96q0 -107 53.5 -161t133.5 -54q85 0 136.5 53t51.5 162zM969 0v215q-62 -110 -165.5 -172.5t-230.5 -62.5q-211 0 -350 149.5t-139 382.5t139 382.5t350 149.5q127 0 230.5 -62.5t165.5 -172.5
v215h123v-1024h-123zM588 932q-165 0 -273 -116.5t-108 -303.5t108 -303.5t273 -116.5t273 116.5t108 303.5t-108 303.5t-273 116.5z" />
    <glyph glyph-name="aring.alt" horiz-adv-x="1259" 
d="M584 1167q-90 0 -147.5 56t-57.5 139q0 81 58 137.5t147 56.5q91 0 149 -56.5t58 -137.5q0 -83 -58 -139t-149 -56zM584 1239q56 0 90.5 35t34.5 88t-34.5 88t-90.5 35q-52 0 -87.5 -35.5t-35.5 -87.5t35.5 -87.5t87.5 -35.5zM969 0v215q-62 -110 -165.5 -172.5
t-230.5 -62.5q-211 0 -350 149.5t-139 382.5t139 382.5t350 149.5q127 0 230.5 -62.5t165.5 -172.5v215h123v-1024h-123zM588 932q-165 0 -273 -116.5t-108 -303.5t108 -303.5t273 -116.5t273 116.5t108 303.5t-108 303.5t-273 116.5z" />
    <glyph glyph-name="aringacute.alt" horiz-adv-x="1259" 
d="M631 1679h-101l148 308h149zM584 1167q-90 0 -147.5 56t-57.5 139q0 81 58 137.5t147 56.5q91 0 149 -56.5t58 -137.5q0 -83 -58 -139t-149 -56zM584 1239q56 0 90.5 35t34.5 88t-34.5 88t-90.5 35q-52 0 -87.5 -35.5t-35.5 -87.5t35.5 -87.5t87.5 -35.5zM969 0v215
q-62 -110 -165.5 -172.5t-230.5 -62.5q-211 0 -350 149.5t-139 382.5t139 382.5t350 149.5q127 0 230.5 -62.5t165.5 -172.5v215h123v-1024h-123zM588 932q-165 0 -273 -116.5t-108 -303.5t108 -303.5t273 -116.5t273 116.5t108 303.5t-108 303.5t-273 116.5z" />
    <glyph glyph-name="aogonek.alt" horiz-adv-x="1259" 
d="M774 -330q0 37 12.5 73.5t43.5 82t52 71.5t70 83q5 6 9 10.5t8 9.5v215q-62 -110 -165.5 -172.5t-230.5 -62.5q-211 0 -350 149.5t-139 382.5t139 382.5t350 149.5q127 0 230.5 -62.5t165.5 -172.5v215h123v-1024h-41q-97 -114 -140 -189t-43 -130q0 -121 129 -121
q56 0 91.5 26t41.5 78h95q0 -79 -64 -129.5t-166 -50.5q-100 0 -160.5 48t-60.5 138zM588 932q-165 0 -273 -116.5t-108 -303.5t108 -303.5t273 -116.5t273 116.5t108 303.5t-108 303.5t-273 116.5z" />
    <glyph glyph-name="ae.alt" horiz-adv-x="2048" 
d="M1964 512q0 -29 -2 -43h-868q12 -174 115.5 -277.5t263.5 -103.5q117 0 204 58.5t127 160.5h131q-47 -153 -172 -240t-295 -87q-119 0 -216.5 55.5t-159.5 154.5v-190h-123v215q-62 -110 -165.5 -172.5t-230.5 -62.5q-211 0 -350 149.5t-139 382.5t139 382.5t350 149.5
q127 0 230.5 -62.5t165.5 -172.5v215h123v-190q62 99 159.5 154.5t216.5 55.5q215 0 355.5 -149.5t140.5 -382.5zM1468 936q-157 0 -259 -102t-115 -275h749q-12 172 -114.5 274.5t-260.5 102.5zM588 932q-165 0 -273 -116.5t-108 -303.5t108 -303.5t273 -116.5t273 116.5
t108 303.5t-108 303.5t-273 116.5z" />
    <glyph glyph-name="aeacute.alt" horiz-adv-x="2048" 
d="M1094 1229h-101l148 307h149zM1964 512q0 -29 -2 -43h-868q12 -174 115.5 -277.5t263.5 -103.5q117 0 204 58.5t127 160.5h131q-47 -153 -172 -240t-295 -87q-119 0 -216.5 55.5t-159.5 154.5v-190h-123v215q-62 -110 -165.5 -172.5t-230.5 -62.5q-211 0 -350 149.5
t-139 382.5t139 382.5t350 149.5q127 0 230.5 -62.5t165.5 -172.5v215h123v-190q62 99 159.5 154.5t216.5 55.5q215 0 355.5 -149.5t140.5 -382.5zM1468 936q-157 0 -259 -102t-115 -275h749q-12 172 -114.5 274.5t-260.5 102.5zM588 932q-165 0 -273 -116.5t-108 -303.5
t108 -303.5t273 -116.5t273 116.5t108 303.5t-108 303.5t-273 116.5z" />
    <glyph glyph-name="gcircumflex.alt" horiz-adv-x="1105" 
d="M334 1229h-101l226 307h147l225 -307h-100l-199 223zM1075 -223q0 -142 -118.5 -225.5t-374.5 -83.5h-52q-247 0 -363 77t-116 211q0 77 50 136.5t135 89.5q-65 25 -102.5 74.5t-37.5 113.5q0 74 50 126t139 71q-76 53 -119 131t-43 172q0 162 118.5 268t290.5 106
q119 0 213 -51l9 13q15 22 31 30t46 8h254v-124h-241q98 -106 98 -250q0 -163 -119 -269t-291 -106q-96 0 -172 33q-66 -5 -109.5 -40.5t-43.5 -88.5q0 -59 45.5 -93t132.5 -34h270q219 0 319.5 -78.5t100.5 -216.5zM532 399q126 0 208.5 76.5t82.5 194.5q0 119 -81 194.5
t-210 75.5t-209.5 -75.5t-80.5 -194.5q0 -118 82 -194.5t208 -76.5zM551 -428h27q109 0 185.5 15.5t117 44.5t58 64.5t17.5 82.5q0 85 -71.5 134.5t-222.5 49.5h-173q-164 0 -241.5 -49.5t-77.5 -134.5q0 -47 17.5 -82.5t59 -64.5t118 -44.5t186.5 -15.5z" />
    <glyph glyph-name="gbreve.alt" horiz-adv-x="1105" 
d="M721 1536h96q0 -143 -78 -225t-207 -82q-128 0 -205 82t-77 225h96q0 -107 53 -161t133 -54q85 0 137 53t52 162zM1075 -223q0 -142 -118.5 -225.5t-374.5 -83.5h-52q-247 0 -363 77t-116 211q0 77 50 136.5t135 89.5q-65 25 -102.5 74.5t-37.5 113.5q0 74 50 126t139 71
q-76 53 -119 131t-43 172q0 162 118.5 268t290.5 106q119 0 213 -51l9 13q15 22 31 30t46 8h254v-124h-241q98 -106 98 -250q0 -163 -119 -269t-291 -106q-96 0 -172 33q-66 -5 -109.5 -40.5t-43.5 -88.5q0 -59 45.5 -93t132.5 -34h270q219 0 319.5 -78.5t100.5 -216.5z
M532 399q126 0 208.5 76.5t82.5 194.5q0 119 -81 194.5t-210 75.5t-209.5 -75.5t-80.5 -194.5q0 -118 82 -194.5t208 -76.5zM551 -428h27q109 0 185.5 15.5t117 44.5t58 64.5t17.5 82.5q0 85 -71.5 134.5t-222.5 49.5h-173q-164 0 -241.5 -49.5t-77.5 -134.5
q0 -47 17.5 -82.5t59 -64.5t118 -44.5t186.5 -15.5z" />
    <glyph glyph-name="gdotaccent.alt" horiz-adv-x="1105" 
d="M532 1282q-43 0 -71.5 28.5t-28.5 71.5t28.5 72t71.5 29q44 0 72.5 -29t28.5 -72t-28.5 -71.5t-72.5 -28.5zM1075 -223q0 -142 -118.5 -225.5t-374.5 -83.5h-52q-247 0 -363 77t-116 211q0 77 50 136.5t135 89.5q-65 25 -102.5 74.5t-37.5 113.5q0 74 50 126t139 71
q-76 53 -119 131t-43 172q0 162 118.5 268t290.5 106q119 0 213 -51l9 13q15 22 31 30t46 8h254v-124h-241q98 -106 98 -250q0 -163 -119 -269t-291 -106q-96 0 -172 33q-66 -5 -109.5 -40.5t-43.5 -88.5q0 -59 45.5 -93t132.5 -34h270q219 0 319.5 -78.5t100.5 -216.5z
M532 399q126 0 208.5 76.5t82.5 194.5q0 119 -81 194.5t-210 75.5t-209.5 -75.5t-80.5 -194.5q0 -118 82 -194.5t208 -76.5zM551 -428h27q109 0 185.5 15.5t117 44.5t58 64.5t17.5 82.5q0 85 -71.5 134.5t-222.5 49.5h-173q-164 0 -241.5 -49.5t-77.5 -134.5
q0 -47 17.5 -82.5t59 -64.5t118 -44.5t186.5 -15.5z" />
    <glyph glyph-name="gcommaaccent.alt" horiz-adv-x="1105" 
d="M586 1597h84l-62 -307h-141zM1075 -223q0 -142 -118.5 -225.5t-374.5 -83.5h-52q-247 0 -363 77t-116 211q0 77 50 136.5t135 89.5q-65 25 -102.5 74.5t-37.5 113.5q0 74 50 126t139 71q-76 53 -119 131t-43 172q0 162 118.5 268t290.5 106q119 0 213 -51l9 13
q15 22 31 30t46 8h254v-124h-241q98 -106 98 -250q0 -163 -119 -269t-291 -106q-96 0 -172 33q-66 -5 -109.5 -40.5t-43.5 -88.5q0 -59 45.5 -93t132.5 -34h270q219 0 319.5 -78.5t100.5 -216.5zM532 399q126 0 208.5 76.5t82.5 194.5q0 119 -81 194.5t-210 75.5
t-209.5 -75.5t-80.5 -194.5q0 -118 82 -194.5t208 -76.5zM551 -428h27q109 0 185.5 15.5t117 44.5t58 64.5t17.5 82.5q0 85 -71.5 134.5t-222.5 49.5h-173q-164 0 -241.5 -49.5t-77.5 -134.5q0 -47 17.5 -82.5t59 -64.5t118 -44.5t186.5 -15.5z" />
    <glyph glyph-name="idotaccent" horiz-adv-x="458" 
d="M229 1282q-43 0 -71.5 28.5t-28.5 71.5t28.5 72t71.5 29q44 0 72.5 -29t28.5 -72t-28.5 -71.5t-72.5 -28.5zM291 0h-123v1024h123v-1024z" />
    <glyph glyph-name="a.superior" horiz-adv-x="733" 
d="M539 537v135q-32 -73 -98.5 -110.5t-147.5 -37.5q-98 0 -162.5 47.5t-64.5 137.5q0 59 26 98t67.5 56.5t92 27t100.5 15t91.5 14.5t67.5 31t26 59q0 61 -48 95t-124 34q-81 0 -131 -41t-50 -115h-98q0 81 41.5 135.5t102.5 76.5t137 22q118 0 196 -51.5t78 -159.5v-469
h-102zM168 715q0 -54 43 -83.5t111 -29.5q89 0 152 55t63 152v78q-29 -20 -79.5 -31.5t-98 -17t-92.5 -16t-72 -37t-27 -70.5z" />
    <glyph glyph-name="b.superior" horiz-adv-x="819" 
d="M770 870q0 -152 -89.5 -249t-225.5 -97q-81 0 -146 40t-104 110v-137h-103v999h105v-465q39 68 104 107t144 39q136 0 225.5 -96.5t89.5 -250.5zM436 1124q-101 0 -165 -70t-64 -184q0 -113 64 -182.5t165 -69.5q100 0 166 70t66 182q0 114 -66 184t-166 70z" />
    <glyph glyph-name="c.superior" horiz-adv-x="761" 
d="M602 934q-12 88 -73.5 139t-147.5 51q-100 0 -164.5 -70t-64.5 -184q0 -113 64 -182.5t165 -69.5q90 0 151.5 54t71.5 149h105q-9 -131 -101.5 -214t-226.5 -83q-142 0 -237 97.5t-95 248.5q0 152 95 249.5t237 97.5q131 0 222 -78t104 -205h-105z" />
    <glyph glyph-name="d.superior" horiz-adv-x="819" 
d="M614 537v135q-40 -70 -104.5 -109t-144.5 -39q-136 0 -226 97t-90 249q0 154 89.5 250.5t226.5 96.5q79 0 143 -38t104 -106v463h105v-999h-103zM383 1124q-100 0 -164.5 -70t-64.5 -184q0 -113 64.5 -182.5t164.5 -69.5q101 0 165 69.5t64 182.5q0 114 -64 184t-165 70z
" />
    <glyph glyph-name="e.superior" horiz-adv-x="753" 
d="M705 870q0 -12 -3 -30h-550q7 -105 69 -167.5t158 -62.5q71 0 124.5 35t78.5 96h104q-32 -102 -114 -159.5t-195 -57.5q-142 0 -235 97.5t-93 248.5q0 153 93 250t235 97t235 -97t93 -250zM377 1130q-94 0 -155 -60t-70 -165h450q-9 105 -70 165t-155 60z" />
    <glyph glyph-name="f.superior" horiz-adv-x="505" 
d="M254 1305v-101h203v-84h-203v-583h-104v583h-125v84h125v105q0 121 56 180t156 59q64 0 105 -16v-88q-36 16 -92 16q-121 0 -121 -155z" />
    <glyph glyph-name="g.superior" horiz-adv-x="819" 
d="M717 518q0 -147 -91.5 -237.5t-230.5 -90.5q-131 0 -218.5 76.5t-104.5 202.5h102q14 -87 72.5 -138.5t146.5 -51.5q103 0 161 65.5t58 173.5v150q-40 -68 -104 -106t-143 -38q-136 0 -226 97t-90 249t90 249.5t226 97.5q80 0 144.5 -39t104.5 -109v135h103v-686z
M383 616q100 0 164.5 70.5t64.5 183.5t-64.5 183.5t-164.5 70.5q-99 0 -164 -70.5t-65 -183.5t65 -183.5t164 -70.5z" />
    <glyph glyph-name="h.superior" horiz-adv-x="778" 
d="M207 895v-358h-105v999h105v-453q30 66 87 100t132 34q118 0 188 -74t70 -223v-383h-104v358q0 117 -49 175t-138 58q-186 0 -186 -233z" />
    <glyph glyph-name="i.superior" horiz-adv-x="307" 
d="M154 1360q-34 0 -56 22t-22 54q0 31 22 52t56 21q33 0 54 -21t21 -52q0 -33 -21 -54.5t-54 -21.5zM207 537h-105v667h105v-667z" />
    <glyph glyph-name="j.superior" horiz-adv-x="307" 
d="M154 1360q-34 0 -56 22t-22 54q0 31 22 52t56 21q33 0 54 -21t21 -52q0 -33 -21 -54.5t-54 -21.5zM102 391v813h105v-817q0 -186 -178 -186q-14 0 -70 8v86q16 -4 51 -4q45 0 68.5 22.5t23.5 77.5z" />
    <glyph glyph-name="k.superior" horiz-adv-x="704" 
d="M561 537l-248 323l-106 -121v-202h-105v999h105v-678l321 346h129l-262 -286l295 -381h-129z" />
    <glyph glyph-name="l.superior" horiz-adv-x="307" 
d="M207 537h-105v999h105v-999z" />
    <glyph glyph-name="m.superior" horiz-adv-x="1165" 
d="M207 924v-387h-105v667h103v-108q58 121 198 121q78 0 135.5 -37t82.5 -111q26 73 83 110.5t134 37.5q105 0 169 -68t64 -203v-409h-104v387q0 204 -160 204q-168 0 -168 -204v-387h-104v387q0 204 -164 204t-164 -204z" />
    <glyph glyph-name="n.superior" horiz-adv-x="778" 
d="M207 895v-358h-105v667h103v-125q30 68 87.5 103t133.5 35q118 0 188 -74t70 -223v-383h-104v358q0 117 -49 175t-138 58q-186 0 -186 -233z" />
    <glyph glyph-name="o.superior" horiz-adv-x="772" 
d="M387 524q-144 0 -241 97.5t-97 248.5q0 152 97 249.5t241 97.5t240 -97.5t96 -249.5q0 -151 -96 -248.5t-240 -97.5zM387 618q101 0 167.5 70t66.5 182q0 114 -66.5 184t-167.5 70q-103 0 -169 -70t-66 -184q0 -113 66.5 -182.5t168.5 -69.5z" />
    <glyph glyph-name="p.superior" horiz-adv-x="819" 
d="M455 524q-79 0 -144 39.5t-104 108.5v-467h-105v999h103v-137q39 71 104 110.5t146 39.5q136 0 225.5 -96.5t89.5 -250.5q0 -152 -89.5 -249t-225.5 -97zM436 618q100 0 166 70t66 182q0 114 -66 184t-166 70q-101 0 -165 -70t-64 -184q0 -113 64 -182.5t165 -69.5z" />
    <glyph glyph-name="q.superior" horiz-adv-x="819" 
d="M717 1204v-999h-105v463q-41 -67 -105 -105.5t-142 -38.5q-136 0 -226 97t-90 249q0 154 89.5 250.5t226.5 96.5q80 0 144.5 -39t104.5 -109v135h103zM383 618q101 0 165 69.5t64 182.5q0 114 -64 184t-165 70q-100 0 -164.5 -70t-64.5 -184q0 -113 64.5 -182.5
t164.5 -69.5z" />
    <glyph glyph-name="r.superior" horiz-adv-x="509" 
d="M207 883v-346h-105v667h101v-131q59 144 211 144q26 0 57 -7v-106q-30 12 -74 12q-92 0 -141 -58t-49 -175z" />
    <glyph glyph-name="s.superior" horiz-adv-x="671" 
d="M608 721q0 -92 -72 -144.5t-190 -52.5q-125 0 -204 58.5t-79 160.5h101q0 -68 50.5 -104.5t131.5 -36.5q77 0 119.5 30t42.5 87q0 37 -23.5 61t-61.5 35.5t-84 20t-92 20t-84 29.5t-61.5 54.5t-23.5 90.5q0 87 69.5 137t178.5 50q115 0 191.5 -58.5t76.5 -146.5h-100
q0 55 -48 92t-120 37q-67 0 -107.5 -28.5t-40.5 -80.5q0 -40 32 -64t79.5 -33t103.5 -22t103.5 -29.5t79.5 -58t32 -104.5z" />
    <glyph glyph-name="t.superior" horiz-adv-x="520" 
d="M240 770q0 -81 32 -118.5t99 -37.5q43 0 86 15v-90q-62 -15 -105 -15q-104 0 -161.5 55.5t-57.5 186.5v352h-108v86h108v187h107v-187h217v-86h-217v-348z" />
    <glyph glyph-name="u.superior" horiz-adv-x="772" 
d="M569 537v131q-28 -72 -85.5 -108t-133.5 -36q-115 0 -185.5 76t-70.5 227v377h105v-352q0 -240 184 -240t184 240v352h105v-667h-103z" />
    <glyph glyph-name="v.superior" horiz-adv-x="665" 
d="M655 1204l-249 -667h-146l-248 667h105l217 -612l215 612h106z" />
    <glyph glyph-name="w.superior" horiz-adv-x="1017" 
d="M1001 1204l-194 -667h-127l-170 600l-172 -600h-127l-193 667h97l161 -602l173 602h120l172 -602l164 602h96z" />
    <glyph glyph-name="x.superior" horiz-adv-x="692" 
d="M561 537l-219 284l-209 -284h-119l262 344l-247 323h114l203 -266l201 266h119l-250 -323l262 -344h-117z" />
    <glyph glyph-name="y.superior" horiz-adv-x="667" 
d="M395 473q-24 -68 -46 -113t-54 -84.5t-76 -58t-102 -18.5q-38 0 -101 14v84q38 -12 88 -12q71 0 113 36.5t76 116.5l-283 766h103l225 -639l217 639h102z" />
    <glyph glyph-name="z.superior" horiz-adv-x="626" 
d="M580 623v-86h-521v112l406 471h-399v84h487v-110l-410 -471h437z" />
    <glyph glyph-name="hyphen.cap" horiz-adv-x="716" 
d="M590 711h-463v114h463v-114z" />
    <glyph glyph-name="exclamdown.cap" horiz-adv-x="466" 
d="M233 1556q40 0 68.5 -28t28.5 -68t-28.5 -68t-68.5 -28q-41 0 -69.5 28t-28.5 68t28.5 68t69.5 28zM176 1024h113l10 -1024h-133z" />
    <glyph glyph-name="questiondown.cap" horiz-adv-x="1017" 
d="M504 1556q39 0 67.5 -28.5t28.5 -67.5q0 -40 -28 -68t-68 -28q-42 0 -70 28t-28 68q0 39 28 67.5t70 28.5zM76 362q0 66 20 122t52.5 95t71.5 74.5t78.5 69.5t72 71t53.5 88t22 111v31h113v-43q0 -66 -20 -121.5t-51.5 -95.5t-70 -76.5t-77 -70t-70 -69t-51.5 -82.5
t-20 -101q0 -130 80 -201.5t223 -71.5q138 0 226.5 82t88.5 250v39h125v-55q0 -105 -35 -188t-96 -134.5t-139.5 -78.5t-169.5 -27q-200 0 -313 101t-113 281z" />
    <glyph glyph-name="guilsinglleft.cap" horiz-adv-x="655" 
d="M553 367l-451 335v132l451 335v-116l-393 -285l393 -285v-116z" />
    <glyph glyph-name="guilsinglright.cap" horiz-adv-x="655" 
d="M102 1169l451 -335v-132l-451 -335v116l394 285l-394 285v116z" />
    <glyph glyph-name="guillemotleft.cap" horiz-adv-x="1187" 
d="M553 367l-451 335v132l451 335v-116l-393 -285l393 -285v-116zM1085 367l-450 335v132l450 335v-116l-393 -285l393 -285v-116z" />
    <glyph glyph-name="guillemotright.cap" horiz-adv-x="1187" 
d="M635 1169l450 -335v-132l-450 -335v116l393 285l-393 285v116zM102 1169l451 -335v-132l-451 -335v116l394 285l-394 285v116z" />
    <glyph glyph-name="slash.OP" horiz-adv-x="737" 
d="M57 -307h-94l615 1843h94z" />
    <glyph glyph-name="backslash.OP" horiz-adv-x="737" 
d="M680 -307l-614 1843h94l614 -1843h-94z" />
    <glyph glyph-name="endash.cap" horiz-adv-x="1024" 
d="M922 725h-820v86h820v-86z" />
    <glyph glyph-name="emdash.cap" horiz-adv-x="2048" 
d="M1946 725h-1844v86h1844v-86z" />
    <glyph glyph-name="periodcentered.cap" horiz-adv-x="399" 
d="M199 678q-43 0 -72 28.5t-29 71.5t29 72t72 29q45 0 73.5 -29t28.5 -72t-28.5 -71.5t-73.5 -28.5z" />
    <glyph glyph-name="parenleft.cap" horiz-adv-x="696" 
d="M221 768q0 539 332 952h109q-324 -404 -324 -952t324 -952h-109q-332 413 -332 952z" />
    <glyph glyph-name="parenright.cap" horiz-adv-x="696" 
d="M475 768q0 -539 -332 -952h-108q323 403 323 952t-323 952h108q332 -413 332 -952z" />
    <glyph glyph-name="bracketleft.cap" horiz-adv-x="696" 
d="M254 -184v1904h412v-96h-297v-1712h297v-96h-412z" />
    <glyph glyph-name="bracketright.cap" horiz-adv-x="696" 
d="M31 1624v96h411v-1904h-411v96h297v1712h-297z" />
    <glyph glyph-name="braceleft.cap" horiz-adv-x="696" 
d="M176 711h-102v114h102q20 0 41.5 7t44 22.5t37 48t14.5 76.5v430q0 148 76.5 229.5t206.5 81.5h70v-96h-54q-85 0 -134.5 -57t-49.5 -166v-434q0 -127 -113 -199q113 -72 113 -199v-434q0 -109 49.5 -166t134.5 -57h54v-96h-70q-130 0 -206.5 81.5t-76.5 229.5v430
q0 44 -14.5 76.5t-37 48t-44 22.5t-41.5 7z" />
    <glyph glyph-name="braceright.cap" horiz-adv-x="696" 
d="M520 825h103v-114h-103q-20 0 -41.5 -7t-44 -22.5t-37 -48t-14.5 -76.5v-430q0 -148 -76.5 -229.5t-206.5 -81.5h-69v96h53q85 0 134.5 57t49.5 166v434q0 127 113 199q-113 72 -113 199v434q0 109 -49.5 166t-134.5 57h-53v96h69q130 0 206.5 -81.5t76.5 -229.5v-430
q0 -44 14.5 -76.5t37 -48t44 -22.5t41.5 -7z" />
    <glyph glyph-name="at.cap" horiz-adv-x="1763" 
d="M1239 70q-172 -90 -369 -90q-173 0 -320.5 61t-250 166.5t-160 250.5t-57.5 310q0 166 57.5 311t160 250.5t250 166t320.5 60.5q176 0 329 -62t257.5 -167t164.5 -246t60 -297q0 -246 -88.5 -371.5t-226.5 -125.5q-92 0 -149 48t-78 136q-53 -91 -145 -137.5t-197 -46.5
q-140 0 -232 66.5t-92 189.5q0 64 22.5 110t60 72t86.5 43t103.5 25t108.5 14t103 14.5t86.5 23t60 43t22.5 70.5q0 94 -71 145.5t-183 51.5q-117 0 -189.5 -59.5t-72.5 -169.5h-110q0 68 20.5 122.5t55 91t82.5 61t100.5 35.5t111.5 11q73 0 136.5 -17t116 -51.5
t82.5 -94.5t30 -138v-379q0 -106 36 -160.5t103 -54.5q107 0 171.5 110.5t64.5 321.5q0 142 -54 271t-149.5 225.5t-235 153.5t-301.5 57q-211 0 -375 -95t-252.5 -259.5t-88.5 -368.5t88.5 -368.5t252.5 -259.5t375 -95q185 0 338 84zM584 549q0 -81 60 -122.5t165 -41.5
q83 0 154 33t117 103.5t46 164.5v113q-42 -29 -116.5 -45t-144.5 -23.5t-135.5 -22t-105.5 -53.5t-40 -106z" />
    <glyph glyph-name="numero" horiz-adv-x="1984" 
d="M1597 549q-144 0 -240.5 97.5t-96.5 248.5q0 152 96.5 249t240.5 97t240 -97t96 -249q0 -151 -96 -248.5t-240 -97.5zM1040 1229v-1229h-206l-551 1171v-1171h-115v1229h211l547 -1163v1163h114zM1597 643q101 0 167.5 70t66.5 182q0 114 -66.5 184t-167.5 70
q-103 0 -169 -70t-66 -184q0 -113 66.5 -182.5t168.5 -69.5zM1882 227h-571v95h571v-95z" />
    <glyph glyph-name="zero.slash" 
d="M979 467q0 -241 -109 -364t-307 -123q-178 0 -282 98l-37 -78h-97l74 152q-74 121 -74 315v602q0 241 109 364t307 123q179 0 283 -98l37 78h96l-74 -152q74 -121 74 -315v-602zM270 467q0 -97 21 -168l497 1042q-72 103 -225 103q-141 0 -217 -92.5t-76 -282.5v-602z
M856 1069q0 101 -20 168l-498 -1042q72 -103 225 -103q141 0 217 92.5t76 282.5v602z" />
    <glyph glyph-name="numbersign.LP" 
d="M547 0l112 446h-352l-112 -446h-101l113 446h-207v89h229l117 464h-225v88h248l112 449h101l-113 -449h352l113 449h100l-112 -449h204v-88h-227l-117 -464h224v-89h-246l-113 -446h-100zM330 535h352l117 464h-353z" />
    <glyph glyph-name="Euro.LP" 
d="M1073 459q0 -232 -116 -355.5t-312 -123.5t-312 126.5t-116 364.5v59h-176v80h176v328h-176v80h176v47q0 238 116 364.5t312 126.5t312 -123.5t116 -355.5v-59h-123v51q0 189 -79.5 282t-225.5 93q-145 0 -225 -96t-80 -291v-39h397v-80h-397v-328h397v-80h-397v-51
q0 -195 80 -291t225 -96t225 93.5t80 281.5v63h123v-71z" />
    <glyph glyph-name="dollar.LP" 
d="M967 371q0 -177 -100.5 -277.5t-260.5 -111.5v-238h-82v238q-160 12 -262 119.5t-102 287.5v98h123v-84q0 -135 65 -216t176 -93v647l-59 39q-62 39 -107.5 77.5t-86 89t-62 114.5t-21.5 139q0 165 93 254.5t243 99.5v238h82v-238q152 -14 243 -120.5t91 -294.5v-78h-123
v72q0 280 -211 309v-606l94 -62q60 -39 103.5 -76t83 -86t60 -109.5t20.5 -131.5zM311 1200q0 -70 31 -129t73 -97t109 -83v551q-98 -9 -155.5 -72.5t-57.5 -169.5zM618 680l-12 8v-594q111 12 174.5 80t63.5 180q0 106 -59 181.5t-167 144.5z" />
    <glyph glyph-name="cent.LP" 
d="M1071 686q-22 -189 -149.5 -311.5t-311.5 -136.5v-238h-82v238q-203 12 -337 160t-134 370t134 370t337 160v238h82v-238q179 -14 304 -129.5t153 -296.5h-125q-22 132 -112 216t-220 98v-836q135 14 228 105.5t108 230.5h125zM180 768q0 -176 96.5 -291t251.5 -127v836
q-155 -12 -251.5 -127t-96.5 -291z" />
    <glyph glyph-name="sterling.LP" horiz-adv-x="1077" 
d="M971 113v-113h-848v70q141 153 201.5 272.5t60.5 269.5q0 51 -16 101h-224v80h187q-16 28 -54.5 84.5t-60.5 93t-41.5 97.5t-19.5 124q0 173 110 268.5t279 95.5q85 0 156.5 -24t127 -72t86.5 -127t31 -182v-66h-123v58q0 301 -278 301q-118 0 -192 -62.5t-74 -189.5
q0 -56 20 -112.5t45 -95.5t59.5 -94.5t53.5 -96.5h401v-80h-373q13 -50 13 -99q0 -140 -55.5 -261.5t-155.5 -239.5h684z" />
    <glyph glyph-name="florin.LP" horiz-adv-x="1089" 
d="M885 713h-350l-261 -1225h-122l258 1225h-238v80h256l84 401q40 191 136.5 276.5t258.5 85.5q81 0 140 -22v-115q-45 25 -154 25q-105 0 -167.5 -61.5t-90.5 -194.5l-84 -395h334v-80z" />
    <glyph glyph-name="yen.LP" 
d="M922 530h-297v-530h-123v530h-293v80h293v328h-293v80h244l-371 518h125l356 -506l357 506h124l-370 -518h248v-80h-297v-328h297v-80z" />
    <glyph glyph-name="zero.slashLP" 
d="M979 467q0 -241 -109 -364t-307 -123q-178 0 -282 98l-37 -78h-97l74 152q-74 121 -74 315v602q0 241 109 364t307 123q179 0 283 -98l37 78h96l-74 -152q74 -121 74 -315v-602zM270 467q0 -97 21 -168l497 1042q-72 103 -225 103q-141 0 -217 -92.5t-76 -282.5v-602z
M856 1069q0 101 -20 168l-498 -1042q72 -103 225 -103q141 0 217 92.5t76 282.5v602z" />
    <glyph glyph-name="zero.LP" 
d="M563 -20q-198 0 -307 123t-109 364v602q0 241 109 364t307 123t307 -123t109 -364v-602q0 -241 -109 -364t-307 -123zM563 92q141 0 217 92.5t76 282.5v602q0 375 -293 375q-141 0 -217 -92.5t-76 -282.5v-602q0 -375 293 -375z" />
    <glyph glyph-name="one.LP" horiz-adv-x="552" 
d="M262 1450v86h123v-1536h-123v1186h-221v104h74q78 0 112.5 37t34.5 123z" />
    <glyph glyph-name="two.LP" horiz-adv-x="1015" 
d="M901 1151q0 -89 -34.5 -172.5t-90.5 -151.5t-124 -134t-137 -131.5t-127 -132t-97.5 -148.5t-44.5 -168h676v-113h-807v70q0 104 36.5 200t95 171t129 145.5t141.5 136t129.5 130.5t95 141.5t36.5 156.5q0 147 -73.5 220t-188.5 73q-266 0 -266 -326v-110h-123v118
q0 214 108 322t281 108q167 0 276 -106.5t109 -298.5z" />
    <glyph glyph-name="three.LP" horiz-adv-x="1064" 
d="M958 381q0 -188 -118 -294.5t-299 -106.5q-184 0 -305 109.5t-121 303.5v66h123v-51q0 -153 81.5 -234.5t221.5 -81.5q138 0 216.5 77.5t78.5 225.5v33q0 154 -77.5 230.5t-215.5 76.5h-99v119h99q118 0 185 72.5t67 208.5v41q0 131 -70.5 199.5t-183.5 68.5
q-116 0 -189 -65.5t-73 -190.5v-45h-123v57q0 167 109 261.5t276 94.5q106 0 190 -40.5t135.5 -125.5t51.5 -202v-58q0 -119 -55.5 -202t-151.5 -121q116 -39 181.5 -131.5t65.5 -229.5v-65z" />
    <glyph glyph-name="four.LP" horiz-adv-x="1064" 
d="M82 471l496 1065h192v-1065h221v-113h-221v-358h-123v358h-565v113zM188 471h459v989z" />
    <glyph glyph-name="five.LP" horiz-adv-x="991" 
d="M504 936q-116 0 -184 -64.5t-74 -164.5h-119v829h741v-113h-622v-540q39 75 112.5 118t171.5 43q180 0 273.5 -111.5t93.5 -326.5v-180q0 -213 -111 -329.5t-282 -116.5q-173 0 -285.5 113.5t-112.5 316.5v49h123v-33q0 -162 73 -248t202 -86q124 0 197 84.5t73 249.5
v168q0 342 -270 342z" />
    <glyph glyph-name="six.LP" 
d="M979 440q0 -223 -112.5 -341.5t-303.5 -118.5t-303.5 123.5t-112.5 355.5v618q0 232 112.5 355.5t303.5 123.5q187 0 297.5 -117t110.5 -337v-23h-123v15q0 176 -74 263t-211 87q-139 0 -216 -93t-77 -282v-330q49 102 133 150.5t187 48.5q176 0 282.5 -118t106.5 -339
v-41zM270 473v-29q0 -177 76.5 -264.5t216.5 -87.5t216.5 88t76.5 264v29q0 181 -72.5 266.5t-220.5 85.5q-140 0 -216.5 -87.5t-76.5 -264.5z" />
    <glyph glyph-name="seven.LP" horiz-adv-x="872" 
d="M434 88v-88h-123v70q0 118 6.5 222t22.5 199.5t33 173t48 163t56 147t70 148.5t76.5 144.5t87.5 155.5h-662v113h766v-152q-63 -112 -98 -175.5t-82.5 -159t-72 -163.5t-53.5 -163.5t-42.5 -186t-23 -204.5t-9.5 -244z" />
    <glyph glyph-name="eight.LP" horiz-adv-x="1085" 
d="M983 393q0 -194 -124.5 -303.5t-315.5 -109.5t-316 109.5t-125 303.5v66q0 140 70.5 234.5t192.5 135.5q-97 40 -153 120t-56 194v57q0 168 109.5 262t277.5 94t277.5 -94t109.5 -262v-57q0 -114 -56 -194t-153 -120q122 -41 192 -135.5t70 -234.5v-66zM279 1188v-37
q0 -128 71.5 -197t192.5 -69q123 0 193.5 68.5t70.5 197.5v37q0 126 -73 191t-191 65q-116 0 -190 -65.5t-74 -190.5zM225 453v-45q0 -153 86 -234.5t232 -81.5q149 0 233 81t84 235v45q0 159 -83.5 238t-233.5 79q-148 0 -233 -79.5t-85 -237.5z" />
    <glyph glyph-name="nine.LP" 
d="M979 459q0 -232 -112.5 -355.5t-303.5 -123.5q-187 0 -297 117t-110 337v23h123v-15q0 -176 73.5 -263t210.5 -87q139 0 216 93t77 282v330q-49 -102 -132.5 -150.5t-186.5 -48.5q-176 0 -283 118t-107 339v41q0 223 112.5 341.5t303.5 118.5t303.5 -123.5t112.5 -355.5
v-618zM856 1063v29q0 177 -76.5 264.5t-216.5 87.5t-216.5 -88t-76.5 -264v-29q0 -181 72.5 -266.5t220.5 -85.5q140 0 216.5 87.5t76.5 264.5z" />
    <glyph glyph-name="numbersign.OT" 
d="M573 0l93 367h-353l-92 -367h-100l92 367h-213v88h236l90 362h-205v88h227l82 324h100l-81 -324h352l82 324h100l-82 -324h225v-88h-247l-91 -362h218v-88h-240l-92 -367h-101zM336 455h352l90 362h-352z" />
    <glyph glyph-name="Euro.OT" 
d="M1090 442q-21 -230 -137 -346t-296 -116q-167 0 -284 107.5t-156 318.5h-184v79h172q-6 61 -6 129t6 129h-172v80h184q39 211 156 318.5t284 107.5q180 0 296 -116.5t137 -346.5h-123q-18 175 -100.5 263t-209.5 88q-117 0 -199.5 -79t-115.5 -235h387v-80h-401
q-6 -59 -6 -129t6 -129h401v-79h-387q33 -157 115 -235.5t200 -78.5q128 0 210 87t100 263h123z" />
    <glyph glyph-name="dollar.OT" 
d="M973 315q0 -152 -100.5 -240.5t-268.5 -94.5v-236h-80v238q-167 14 -268.5 112t-101.5 264h127q0 -116 66.5 -185t176.5 -83v500q-44 13 -73 22.5t-68.5 26t-65 33.5t-53.5 43t-44.5 56t-27 72t-10.5 91q0 139 95 223t247 92v236h80v-238q152 -15 250 -114t98 -238h-127
q0 93 -61 160t-160 82v-459q38 -11 60 -17.5t57.5 -19.5t57.5 -23.5t51.5 -28t47.5 -35.5t38 -43.5t31 -53.5t18.5 -64.5t7.5 -77.5zM305 934q0 -94 56.5 -144.5t162.5 -84.5v436q-102 -8 -160.5 -61.5t-58.5 -145.5zM848 315q0 55 -18.5 97t-56 70.5t-75 46t-94.5 36.5
v-479q117 6 180.5 64.5t63.5 164.5z" />
    <glyph glyph-name="cent.OT" 
d="M1069 430q-20 -189 -148 -311.5t-313 -136.5v-238h-80v238q-203 12 -338 160t-135 370t135 370t338 160v238h80v-238q180 -14 305.5 -129.5t153.5 -296.5h-127q-22 132 -112.5 217t-219.5 97v-836q136 14 228.5 104.5t107.5 231.5h125zM178 512q0 -176 97 -291t253 -127
v836q-156 -12 -253 -127t-97 -291z" />
    <glyph glyph-name="sterling.OT" 
d="M993 113v-113h-835v72q112 136 154 216t42 191q0 39 -8 66h-180v80h147q-10 19 -35.5 60t-39.5 66.5t-26.5 71.5t-12.5 95q0 155 104 243t262 88q175 0 289.5 -102t114.5 -283v-24h-123v24q0 132 -79.5 202.5t-201.5 70.5q-104 0 -173.5 -58.5t-69.5 -160.5
q0 -59 18 -106.5t51.5 -101.5t46.5 -85h424v-80h-401q6 -27 6 -64q0 -187 -150 -368h676z" />
    <glyph glyph-name="florin.OT" 
d="M844 545h-367l-164 -801h-123l164 801h-207v80h224l53 262q39 191 135 276.5t258 85.5q80 0 139 -22v-115q-45 25 -153 25q-103 0 -165.5 -62t-90.5 -194l-53 -256h350v-80z" />
    <glyph glyph-name="yen.OT" 
d="M915 406h-290v-406h-123v406h-283v79h283v258h-283v80h248l-330 406h127l301 -379l299 379h127l-329 -406h253v-80h-290v-258h290v-79z" />
    <glyph glyph-name="zero.slashOT" 
d="M1022 614q0 -160 -34.5 -282.5t-97 -198.5t-145 -114.5t-182.5 -38.5q-176 0 -291 112l-61 -92h-107l109 164q-109 167 -109 450q0 313 126.5 474t332.5 161q176 0 291 -112l61 92h107l-109 -166q109 -164 109 -449zM227 614q0 -205 62 -335l497 755q-84 103 -223 103
q-153 0 -244.5 -132t-91.5 -391zM899 614q0 208 -61 336l-498 -755q84 -103 223 -103q153 0 244.5 131t91.5 391z" />
    <glyph glyph-name="zero.OT" 
d="M563 -20q-100 0 -182.5 38.5t-145 114.5t-97 198.5t-34.5 282.5q0 313 126.5 474t332.5 161t332.5 -161t126.5 -474q0 -160 -34.5 -282.5t-97 -198.5t-145 -114.5t-182.5 -38.5zM563 92q153 0 244.5 131t91.5 391q0 259 -91.5 391t-244.5 132t-244.5 -132t-91.5 -391
q0 -260 91.5 -391t244.5 -131z" />
    <glyph glyph-name="one.OT" 
d="M541 1135v94h123v-1229h-123v879h-305v104h149q83 0 119.5 35t36.5 117z" />
    <glyph glyph-name="two.OT" 
d="M963 889q0 -77 -35 -143t-91.5 -114t-125 -92t-138.5 -88t-129 -90.5t-99.5 -110.5t-47.5 -138h684v-113h-836v61q0 94 38.5 173.5t99.5 135.5t135 106t148.5 95t135.5 90.5t99.5 103.5t38.5 124q0 114 -78.5 181t-200.5 67q-124 0 -203 -71.5t-79 -209.5v-33h-123v45
q0 179 115 280t290 101q112 0 202 -41t145 -124t55 -195z" />
    <glyph glyph-name="three.OT" 
d="M1022 336q0 -165 -119.5 -260.5t-314.5 -95.5q-196 0 -323.5 100t-127.5 264h123q0 -114 90.5 -183t235.5 -69q142 0 227.5 67.5t85.5 180.5q0 114 -84 182t-235 68h-93v112h93q127 0 201.5 59.5t74.5 156.5q0 100 -78 159.5t-209 59.5t-208.5 -65.5t-77.5 -174.5h-123
q0 162 112.5 257t296.5 95q182 0 296 -90t114 -237q0 -93 -51 -163.5t-144 -107.5q113 -40 175.5 -122.5t62.5 -192.5z" />
    <glyph glyph-name="four.OT" 
d="M66 422l530 807h207v-807h274v-109h-274v-313h-123v313h-614v109zM190 422h490v745z" />
    <glyph glyph-name="five.OT" 
d="M559 735q-116 0 -192 -52.5t-95 -127.5h-118v674h788v-109h-670v-438q45 73 129 115.5t189 42.5q180 0 295.5 -118.5t115.5 -307.5q0 -193 -120.5 -313.5t-317.5 -120.5q-193 0 -311.5 110.5t-118.5 286.5h125q0 -127 83.5 -206t221.5 -79q144 0 230 89t86 233
q0 143 -86.5 232t-233.5 89z" />
    <glyph glyph-name="six.OT" 
d="M1008 383q0 -179 -121 -291t-297 -112q-81 0 -150 21.5t-129.5 70t-103 121t-66.5 180t-24 241.5q0 162 38 286.5t104.5 199t150 112t180.5 37.5q174 0 287.5 -106.5t113.5 -276.5h-123q0 123 -75.5 197t-200.5 74q-161 0 -253.5 -131t-92.5 -394q0 -49 4 -127
q30 150 131.5 225.5t230.5 75.5q166 0 281 -111t115 -292zM590 92q125 0 210 82t85 209t-85 209t-210 82t-210 -82t-85 -209t85 -209t210 -82z" />
    <glyph glyph-name="seven.OT" 
d="M551 72v-72h-123v57q0 585 442 1063h-725v109h832v-148q-98 -105 -170 -205.5t-132.5 -224t-92 -269.5t-31.5 -310z" />
    <glyph glyph-name="eight.OT" 
d="M985 340q0 -163 -115.5 -261.5t-306.5 -98.5t-306.5 98.5t-115.5 261.5q0 106 62 189.5t166 125.5q-84 39 -132.5 110t-48.5 161q0 146 103 234.5t272 88.5t272 -88.5t103 -234.5q0 -90 -48 -161t-132 -110q104 -42 165.5 -125.5t61.5 -189.5zM563 705q117 0 184.5 60
t67.5 157q0 98 -68.5 158.5t-183.5 60.5t-183.5 -60.5t-68.5 -158.5q0 -97 67.5 -157t184.5 -60zM563 88q135 0 217 71t82 185t-82 185t-217 71t-217 -71t-82 -185t82 -185t217 -71z" />
    <glyph glyph-name="nine.OT" 
d="M1012 614q0 -162 -38 -286.5t-104.5 -199t-150 -111.5t-180.5 -37q-174 0 -288 106t-114 276h123q0 -123 76 -196.5t201 -73.5q161 0 253.5 130.5t92.5 393.5q0 49 -4 127q-16 -77 -52 -136.5t-86 -94.5t-106.5 -52.5t-118.5 -17.5q-166 0 -280.5 111.5t-114.5 292.5
q0 179 121 291t297 112q101 0 184.5 -35.5t149.5 -109t102.5 -198.5t36.5 -292zM539 1137q-125 0 -210 -82t-85 -209t85 -209t210 -82t210 82t85 209t-85 209t-210 82z" />
    <glyph glyph-name="numbersign.OP" horiz-adv-x="1167" 
d="M594 0l92 367h-352l-92 -367h-101l92 367h-213v88h236l90 362h-205v88h228l82 324h100l-82 -324h352l82 324h101l-82 -324h225v-88h-248l-90 -362h217v-88h-240l-92 -367h-100zM356 455h353l90 362h-353z" />
    <glyph glyph-name="Euro.OP" horiz-adv-x="1249" 
d="M1098 442q-21 -230 -136.5 -346t-295.5 -116q-168 0 -285.5 107.5t-155.5 318.5h-184v79h172q-6 61 -6 129t6 129h-172v80h184q38 211 155.5 318.5t285.5 107.5q180 0 295.5 -116.5t136.5 -346.5h-123q-18 175 -100 263t-209 88q-117 0 -200 -79t-116 -235h387v-80h-401
q-6 -59 -6 -129t6 -129h401v-79h-387q33 -157 115.5 -235.5t200.5 -78.5q128 0 209.5 87t99.5 263h123z" />
    <glyph glyph-name="dollar.OP" horiz-adv-x="1032" 
d="M926 315q0 -152 -100.5 -240.5t-268.5 -94.5v-236h-80v238q-167 14 -269 112.5t-102 263.5h127q0 -116 67 -185t177 -83v500q-44 13 -73 22.5t-68.5 26t-65 33.5t-53.5 43t-44.5 56t-27 72t-10.5 91q0 139 95 223t247 92v236h80v-238q152 -15 250 -114t98 -238h-127
q0 93 -61 160t-160 82v-459q38 -11 60 -17.5t57.5 -19.5t57.5 -23.5t51.5 -28t47.5 -35.5t38 -43.5t31 -53.5t18.5 -64.5t7.5 -77.5zM258 934q0 -94 56.5 -144.5t162.5 -84.5v436q-102 -8 -160.5 -61.5t-58.5 -145.5zM801 315q0 55 -18.5 97t-56 70.5t-75 46t-94.5 36.5
v-479q117 6 180.5 64.5t63.5 164.5z" />
    <glyph glyph-name="cent.OP" 
d="M1071 430q-22 -189 -149.5 -311.5t-311.5 -136.5v-238h-82v238q-203 12 -337 160t-134 370t134 370t337 160v238h82v-238q179 -14 304 -129.5t153 -296.5h-125q-22 132 -112 216t-220 98v-836q135 14 228 105.5t108 230.5h125zM180 512q0 -176 96.5 -291t251.5 -127v836
q-155 -12 -251.5 -127t-96.5 -291z" />
    <glyph glyph-name="sterling.OP" horiz-adv-x="1036" 
d="M975 113v-113h-836v72q58 71 87.5 110.5t58.5 91t40 99t11 106.5q0 39 -8 66h-181v80h148q-10 19 -35.5 60t-40 67t-27 71.5t-12.5 94.5q0 155 104.5 243t262.5 88q174 0 288.5 -102t114.5 -283v-24h-123v24q0 132 -79 202.5t-201 70.5q-104 0 -174 -58.5t-70 -160.5
q0 -59 18.5 -106.5t51.5 -101t47 -85.5h424v-80h-402q7 -32 7 -64q0 -182 -150 -368h676z" />
    <glyph glyph-name="florin.OP" horiz-adv-x="1089" 
d="M856 545h-367l-163 -801h-123l164 801h-207v80h223l53 262q39 191 135 276.5t258 85.5q81 0 140 -22v-115q-45 25 -154 25q-103 0 -165.5 -62t-90.5 -194l-53 -256h350v-80z" />
    <glyph glyph-name="yen.OP" horiz-adv-x="935" 
d="M819 406h-291v-406h-122v406h-283v79h283v258h-283v80h248l-330 406h127l301 -379l299 379h127l-330 -406h254v-80h-291v-258h291v-79z" />
    <glyph glyph-name="zero.slashOP" 
d="M1022 614q0 -160 -34.5 -282.5t-97 -198.5t-145 -114.5t-182.5 -38.5q-176 0 -291 112l-61 -92h-107l109 164q-109 167 -109 450q0 313 126.5 474t332.5 161q176 0 291 -112l61 92h107l-109 -166q109 -164 109 -449zM227 614q0 -205 62 -335l497 755q-84 103 -223 103
q-153 0 -244.5 -132t-91.5 -391zM899 614q0 208 -61 336l-498 -755q84 -103 223 -103q153 0 244.5 131t91.5 391z" />
    <glyph glyph-name="zero.OP" 
d="M563 -20q-100 0 -182.5 38.5t-145 114.5t-97 198.5t-34.5 282.5q0 313 126.5 474t332.5 161t332.5 -161t126.5 -474q0 -160 -34.5 -282.5t-97 -198.5t-145 -114.5t-182.5 -38.5zM563 92q153 0 244.5 131t91.5 391q0 259 -91.5 391t-244.5 132t-244.5 -132t-91.5 -391
q0 -260 91.5 -391t244.5 -131z" />
    <glyph glyph-name="one.OP" horiz-adv-x="552" 
d="M262 1159v70h123v-1229h-123v920h-221v104h90q69 0 100 31.5t31 103.5z" />
    <glyph glyph-name="two.OP" horiz-adv-x="995" 
d="M907 889q0 -61 -21.5 -114.5t-58.5 -95t-85 -79t-101.5 -71t-107.5 -67t-104 -70.5t-89.5 -77t-66 -91.5t-31.5 -110.5h684v-113h-836v61q0 94 38.5 173.5t99.5 135.5t135 106t148 95t135 90.5t99.5 103.5t38.5 124q0 114 -78 181t-200 67q-124 0 -203.5 -71.5
t-79.5 -209.5v-33h-123v45q0 178 115 279.5t291 101.5q172 0 286.5 -96t114.5 -264z" />
    <glyph glyph-name="three.OP" horiz-adv-x="1085" 
d="M989 336q0 -165 -119.5 -260.5t-314.5 -95.5q-196 0 -323.5 100t-127.5 264h123q0 -114 90.5 -183t235.5 -69q142 0 227.5 67.5t85.5 180.5q0 114 -84 182t-235 68h-92v112h92q127 0 201.5 59.5t74.5 156.5q0 100 -78 159.5t-208 59.5q-132 0 -209.5 -65.5t-77.5 -174.5
h-123q0 161 112.5 256.5t297.5 95.5q182 0 295.5 -90t113.5 -237q0 -93 -50.5 -163.5t-143.5 -107.5q113 -40 175 -122.5t62 -192.5z" />
    <glyph glyph-name="four.OP" horiz-adv-x="1085" 
d="M53 422l531 807h207v-807h274v-109h-274v-313h-123v313h-615v109zM178 422h490v745z" />
    <glyph glyph-name="five.OP" horiz-adv-x="1075" 
d="M553 735q-116 0 -192 -52.5t-95 -127.5h-119v674h789v-109h-672v-440q43 74 129 117t191 43q180 0 295.5 -118.5t115.5 -307.5q0 -193 -121 -313.5t-317 -120.5q-193 0 -311.5 110.5t-118.5 286.5h125q0 -127 83.5 -206t221.5 -79q143 0 229 89t86 233q0 143 -86 232
t-233 89z" />
    <glyph glyph-name="six.OP" horiz-adv-x="1095" 
d="M1001 383q0 -179 -120.5 -291t-296.5 -112q-81 0 -150 21.5t-129.5 70t-103 121t-66.5 180t-24 241.5q0 162 38 286.5t104.5 199t150 112t180.5 37.5q174 0 287.5 -106.5t113.5 -276.5h-123q0 123 -75.5 197t-200.5 74q-161 0 -253.5 -131t-92.5 -394q0 -49 4 -127
q16 77 52 136.5t85.5 94.5t106 52.5t118.5 17.5q166 0 280.5 -111t114.5 -292zM584 92q125 0 210 82t85 209t-85 209t-210 82t-210 -82t-85 -209t85 -209t210 -82z" />
    <glyph glyph-name="seven.OP" horiz-adv-x="872" 
d="M424 72v-72h-123v57q0 585 442 1063h-725v109h832v-148q-98 -105 -170 -205.5t-132.5 -224t-92 -269.5t-31.5 -310z" />
    <glyph glyph-name="eight.OP" horiz-adv-x="1085" 
d="M965 340q0 -163 -115.5 -261.5t-306.5 -98.5t-306.5 98.5t-115.5 261.5q0 106 61.5 189.5t165.5 125.5q-84 39 -132 110t-48 161q0 146 103 234.5t272 88.5t272 -88.5t103 -234.5q0 -90 -48.5 -161t-132.5 -110q104 -42 166 -125.5t62 -189.5zM543 705q117 0 184.5 60
t67.5 157q0 98 -68.5 158.5t-183.5 60.5t-183.5 -60.5t-68.5 -158.5q0 -97 67.5 -157t184.5 -60zM543 88q135 0 217 71t82 185t-82 185t-217 71t-217 -71t-82 -185t82 -185t217 -71z" />
    <glyph glyph-name="nine.OP" horiz-adv-x="1095" 
d="M985 614q0 -162 -38 -286.5t-104.5 -199t-150 -111.5t-180.5 -37q-174 0 -287.5 106t-113.5 276h122q0 -123 76 -196.5t201 -73.5q161 0 253.5 130.5t92.5 393.5q0 49 -4 127q-16 -77 -52 -136.5t-86 -94.5t-106.5 -52.5t-118.5 -17.5q-166 0 -280.5 111.5t-114.5 292.5
q0 179 121 291t297 112q101 0 184.5 -35.5t149.5 -109t102.5 -198.5t36.5 -292zM512 1137q-125 0 -210 -82t-85 -209t85 -209t210 -82t210 82t85 209t-85 209t-210 82z" />
    <glyph glyph-name="plussuperior" horiz-adv-x="665" 
d="M600 891h-231v-244h-72v244h-229v67h229v242h72v-242h231v-67z" />
    <glyph glyph-name="minussuperior" horiz-adv-x="665" 
d="M68 891v67h532v-67h-532z" />
    <glyph glyph-name="multiplysuperior" horiz-adv-x="665" 
d="M553 754l-49 -52l-172 172l-164 -163l-47 49l164 164l-172 170l49 51l172 -172l164 164l47 -50l-162 -161z" />
    <glyph glyph-name="dividesuperior" horiz-adv-x="665" 
d="M272 1135q0 25 18 43t44 18q27 0 44 -18t17 -43q0 -27 -17 -44.5t-44 -17.5q-26 0 -44 18t-18 44zM68 891v67h532v-67h-532zM272 713q0 25 18 42t44 17q27 0 44 -17t17 -42q0 -27 -17 -44.5t-44 -17.5q-26 0 -44 18t-18 44z" />
    <glyph glyph-name="equalsuperior" horiz-adv-x="665" 
d="M68 1022v70h532v-70h-532zM68 758v67h532v-67h-532z" />
    <glyph glyph-name="Eurosuperior" horiz-adv-x="813" 
d="M723 852q0 -158 -78.5 -243t-212.5 -85q-119 0 -194.5 71t-90.5 204h-120v59h116v2v152v2h-116v59h120q15 133 90.5 203t194.5 70q133 0 212 -84.5t79 -239.5h-100q0 120 -50 179t-141 59q-77 0 -124.5 -47t-59.5 -140h229v-59h-233v-2v-152v-2h233v-59h-229
q12 -95 59.5 -142t124.5 -47q90 0 140.5 60.5t50.5 181.5h100z" />
    <glyph glyph-name="zeroslashsuperior" horiz-adv-x="733" 
d="M670 934q0 -203 -83 -306.5t-220 -103.5q-109 0 -187 66l-35 -53h-82l72 108q-72 109 -72 289q0 203 83.5 307.5t220.5 104.5q106 0 184 -66l35 53h84l-72 -108q72 -109 72 -291zM162 934q0 -116 33 -197l303 461q-51 57 -131 57q-94 0 -149.5 -81t-55.5 -240zM571 934
q0 121 -32 199l-303 -461q53 -56 131 -56q94 0 149 79.5t55 238.5z" />
    <glyph glyph-name="plusinferior" horiz-adv-x="665" 
d="M600 -158h-231v-243h-72v243h-229v68h229v242h72v-242h231v-68z" />
    <glyph glyph-name="minusinferior" horiz-adv-x="665" 
d="M68 -158v68h532v-68h-532z" />
    <glyph glyph-name="multiplyinferior" horiz-adv-x="665" 
d="M553 -295l-49 -51l-172 172l-164 -164l-47 49l164 162l-172 172l49 51l172 -172l164 164l47 -49l-162 -164z" />
    <glyph glyph-name="divideinferior" horiz-adv-x="665" 
d="M272 86q0 25 18 43t44 18q27 0 44 -18t17 -43q0 -27 -17 -44t-44 -17q-26 0 -44 17.5t-18 43.5zM68 -158v68h532v-68h-532zM272 -336q0 25 18 42.5t44 17.5q27 0 44 -17.5t17 -42.5q0 -27 -17 -44t-44 -17q-26 0 -44 17.5t-18 43.5z" />
    <glyph glyph-name="equalinferior" horiz-adv-x="665" 
d="M68 -27v70h532v-70h-532zM68 -291v68h532v-68h-532z" />
    <glyph glyph-name="Euroinferior" horiz-adv-x="813" 
d="M723 -197q0 -158 -78.5 -242.5t-212.5 -84.5q-119 0 -194.5 70.5t-90.5 203.5h-120v60h116v2v151v2h-116v60h120q15 133 90.5 202.5t194.5 69.5q133 0 212 -84.5t79 -239.5h-100q0 120 -50 179t-141 59q-77 0 -124.5 -46.5t-59.5 -139.5h229v-60h-233v-2v-151v-2h233v-60
h-229q12 -95 59.5 -141.5t124.5 -46.5q91 0 141 60t50 181h100z" />
    <glyph glyph-name="zeroslashinferior" horiz-adv-x="733" 
d="M670 -115q0 -203 -83 -306t-220 -103q-110 0 -187 65l-35 -53h-82l72 109q-72 109 -72 288q0 203 83.5 307.5t220.5 104.5q106 0 184 -66l35 54h84l-72 -109q72 -109 72 -291zM162 -115q0 -115 33 -196l303 461q-51 57 -131 57q-94 0 -149.5 -81.5t-55.5 -240.5z
M571 -115q0 121 -32 199l-303 -461q52 -55 131 -55q95 0 149.5 79t54.5 238z" />
    <glyph glyph-name="comma.numr" horiz-adv-x="307" 
d="M199 477q0 -72 -82 -194h-60q51 84 66 137q-29 0 -50.5 21.5t-21.5 50.5t21 49t51 20q32 0 54 -24t22 -60z" />
    <glyph glyph-name="period.numr" horiz-adv-x="307" 
d="M123 420q-31 0 -52.5 21.5t-21.5 50.5q0 32 21.5 52.5t52.5 20.5q32 0 53 -20.5t21 -52.5q0 -30 -21 -51t-53 -21z" />
    <glyph glyph-name="parenleft.numr" horiz-adv-x="452" 
d="M133 1118q0 349 215 621h86q-209 -265 -209 -621t209 -618h-86q-215 272 -215 618z" />
    <glyph glyph-name="parenright.numr" horiz-adv-x="452" 
d="M319 1118q0 -344 -213 -618h-88q209 262 209 618t-209 621h88q213 -274 213 -621z" />
    <glyph glyph-name="plus.numr" horiz-adv-x="665" 
d="M600 1094h-231v-244h-72v244h-229v67h229v242h72v-242h231v-67z" />
    <glyph glyph-name="minus.numr" horiz-adv-x="665" 
d="M68 1094v67h532v-67h-532z" />
    <glyph glyph-name="multiply.numr" horiz-adv-x="665" 
d="M553 956l-49 -51l-172 172l-164 -164l-47 50l164 163l-172 170l49 52l172 -172l164 163l47 -49l-162 -162z" />
    <glyph glyph-name="divide.numr" horiz-adv-x="665" 
d="M272 1337q0 25 18 43.5t44 18.5q27 0 44 -18t17 -44q0 -27 -17 -44t-44 -17q-26 0 -44 17.5t-18 43.5zM68 1094v67h532v-67h-532zM272 915q0 25 18 42.5t44 17.5q27 0 44 -17.5t17 -42.5q0 -27 -17 -44t-44 -17q-26 0 -44 17.5t-18 43.5z" />
    <glyph glyph-name="equal.numr" horiz-adv-x="665" 
d="M68 1225v69h532v-69h-532zM68 961v67h532v-67h-532z" />
    <glyph glyph-name="Euro.numr" horiz-adv-x="813" 
d="M723 1055q0 -158 -78.5 -243t-212.5 -85q-119 0 -194.5 70.5t-90.5 203.5h-120v60h116v2v151v3h-116v59h120q15 133 90.5 202.5t194.5 69.5q133 0 212 -84t79 -239h-100q0 120 -50 178.5t-141 58.5q-77 0 -124.5 -46.5t-59.5 -139.5h229v-59h-233v-3v-151v-2h233v-60
h-229q12 -95 59.5 -141.5t124.5 -46.5q90 0 140.5 60.5t50.5 181.5h100z" />
    <glyph glyph-name="dollar.numr" horiz-adv-x="671" 
d="M608 950q0 -101 -66.5 -159.5t-176.5 -63.5v-154h-56v156q-111 9 -178.5 74t-67.5 174h99q0 -71 40 -115t107 -53v301q-43 13 -68.5 21.5t-60 27.5t-53.5 41t-33 57.5t-14 81.5q0 92 64 148t165 61v156h56v-158q102 -11 166.5 -75.5t64.5 -157.5h-98q0 58 -37 99t-96 52
v-276q40 -12 60 -19t54 -21t52.5 -30t38.5 -39.5t29 -56t9 -72.5zM176 1341q0 -55 34 -85t99 -52v262q-61 -5 -97 -37.5t-36 -87.5zM510 946q0 62 -37.5 94t-107.5 54v-287q70 5 107.5 40t37.5 99z" />
    <glyph glyph-name="cent.numr" horiz-adv-x="733" 
d="M698 1024q-12 -125 -94.5 -205.5t-206.5 -89.5v-156h-55v154q-134 9 -220.5 104.5t-86.5 241.5q0 145 87 241t220 105v152h55v-154q121 -9 202.5 -85t96.5 -195h-100q-13 79 -67.5 130t-131.5 60v-510q83 9 137.5 64.5t63.5 142.5h100zM133 1073q0 -107 58 -177.5
t151 -78.5v510q-92 -8 -150.5 -78.5t-58.5 -175.5z" />
    <glyph glyph-name="zeroslash.numr" horiz-adv-x="733" 
d="M670 1137q0 -203 -83 -306.5t-220 -103.5q-109 0 -187 66l-35 -54h-82l72 109q-72 109 -72 289q0 203 83.5 307t220.5 104q107 0 184 -65l35 53h84l-72 -109q72 -109 72 -290zM162 1137q0 -116 33 -197l303 461q-51 57 -131 57q-94 0 -149.5 -81t-55.5 -240zM571 1137
q0 120 -32 198l-303 -461q52 -55 131 -55q94 0 149 79.5t55 238.5z" />
    <glyph glyph-name="zero.numr" horiz-adv-x="733" 
d="M367 727q-137 0 -220.5 103.5t-83.5 306.5t83.5 307t220.5 104t220 -104t83 -307t-83 -306.5t-220 -103.5zM367 819q93 0 146.5 79t53.5 239q0 159 -53.5 240t-146.5 81t-147 -81t-54 -240q0 -160 54 -239t147 -79z" />
    <glyph glyph-name="one.numr" horiz-adv-x="440" 
d="M168 1495v41h104v-797h-106v580h-141v84h55q47 0 67.5 21.5t20.5 70.5z" />
    <glyph glyph-name="two.numr" horiz-adv-x="647" 
d="M592 1311q0 -48 -21.5 -89.5t-56 -72t-76.5 -58.5t-85.5 -56t-80 -57t-62 -67.5t-30.5 -83.5h424v-88h-549v45q0 60 24 111t62.5 87.5t85 69t93.5 61t85.5 56.5t62.5 64t24 76q0 69 -45.5 110t-116.5 41q-76 0 -123 -43t-47 -127v-20h-99v28q0 116 76 183t193 67
q112 0 187 -63t75 -174z" />
    <glyph glyph-name="three.numr" horiz-adv-x="706" 
d="M647 961q0 -108 -79 -171t-208 -63q-133 0 -217 67.5t-84 176.5h103q0 -71 53.5 -114.5t140.5 -43.5t139 42.5t52 109.5q0 69 -51.5 109t-143.5 40h-59v84h59q77 0 121.5 35.5t44.5 93.5q0 60 -46.5 96.5t-125.5 36.5q-78 0 -124 -39.5t-46 -105.5h-98q0 107 73.5 170
t196.5 63t198 -59.5t75 -155.5q0 -122 -125 -174q71 -27 111 -78.5t40 -119.5z" />
    <glyph glyph-name="four.numr" horiz-adv-x="706" 
d="M33 1016l332 520h161v-518h168v-86h-168v-193h-100v193h-393v84zM129 1018h297v467z" />
    <glyph glyph-name="five.numr" horiz-adv-x="698" 
d="M358 1208q-70 0 -116 -32.5t-56 -77.5h-98v438h524v-86h-430v-260q29 45 82 70.5t117 25.5q118 0 195 -76.5t77 -199.5q0 -126 -80.5 -204.5t-210.5 -78.5q-129 0 -207.5 72t-78.5 188h100q0 -76 50.5 -124t135.5 -48q87 0 139 54.5t52 140.5q0 88 -53 143t-142 55z" />
    <glyph glyph-name="six.numr" horiz-adv-x="712" 
d="M657 989q0 -117 -80 -189.5t-198 -72.5q-140 0 -226.5 100.5t-86.5 313.5q0 203 89 305t224 102q116 0 192 -68.5t76 -176.5h-96q-2 71 -48.5 115t-123.5 44q-97 0 -154 -79.5t-57 -239.5q0 -44 2 -62q24 82 87.5 126t141.5 44q108 0 183 -71t75 -191zM379 813
q76 0 127 50t51 126q0 77 -51 127.5t-127 50.5q-75 0 -126.5 -50.5t-51.5 -127.5q0 -76 52 -126t126 -50z" />
    <glyph glyph-name="seven.numr" horiz-adv-x="567" 
d="M287 782v-43h-103v39q0 205 76.5 367.5t206.5 302.5h-455v88h541v-113q-84 -92 -138.5 -178t-91 -206t-36.5 -257z" />
    <glyph glyph-name="eight.numr" horiz-adv-x="706" 
d="M635 965q0 -108 -77 -173t-206 -65q-128 0 -204 65t-76 173q0 67 38 119.5t103 80.5q-52 27 -81.5 71.5t-29.5 100.5q0 95 68 153t182 58q116 0 184 -58t68 -153q0 -115 -110 -172q65 -28 103 -80.5t38 -119.5zM352 1202q71 0 112.5 36t41.5 93q0 59 -42 96t-112 37
q-68 0 -109.5 -37t-41.5 -96q0 -57 41 -93t110 -36zM352 811q84 0 133.5 44t49.5 114t-49.5 113.5t-133.5 43.5q-82 0 -131 -43.5t-49 -113.5t49 -114t131 -44z" />
    <glyph glyph-name="nine.numr" horiz-adv-x="712" 
d="M647 1135q0 -203 -89 -305.5t-224 -102.5q-116 0 -192 69t-76 177h98q0 -71 47 -115.5t123 -44.5q98 0 154.5 80t56.5 240q0 43 -2 61q-24 -84 -88 -128t-142 -44q-107 0 -182.5 72.5t-75.5 191.5q0 117 80.5 189.5t198.5 72.5q140 0 226.5 -100t86.5 -313zM334 1462
q-76 0 -127 -50t-51 -126q0 -77 51 -127.5t127 -50.5q75 0 126.5 50.5t51.5 127.5q0 76 -52 126t-126 50z" />
    <glyph glyph-name="comma.dnom" horiz-adv-x="237" 
d="M199 45q0 -73 -82 -195h-60q51 84 66 138q-29 0 -50.5 21t-21.5 50t21.5 49.5t50.5 20.5q32 0 54 -24t22 -60z" />
    <glyph glyph-name="period.dnom" horiz-adv-x="237" 
d="M123 -12q-31 0 -52.5 21t-21.5 50q0 32 21.5 53t52.5 21q32 0 53 -21t21 -53q0 -30 -21 -50.5t-53 -20.5z" />
    <glyph glyph-name="parenleft.dnom" horiz-adv-x="452" 
d="M133 379q0 348 215 620h86q-209 -265 -209 -620q0 -357 209 -619h-86q-215 272 -215 619z" />
    <glyph glyph-name="parenright.dnom" horiz-adv-x="452" 
d="M319 379q0 -345 -213 -619h-88q209 262 209 619q0 355 -209 620h88q213 -274 213 -620z" />
    <glyph glyph-name="plus.dnom" horiz-adv-x="665" 
d="M600 354h-231v-243h-72v243h-229v68h229v242h72v-242h231v-68z" />
    <glyph glyph-name="minus.dnom" horiz-adv-x="665" 
d="M68 354v68h532v-68h-532z" />
    <glyph glyph-name="multiply.dnom" horiz-adv-x="665" 
d="M553 217l-49 -51l-172 172l-164 -164l-47 49l164 164l-172 170l49 51l172 -172l164 164l47 -49l-162 -162z" />
    <glyph glyph-name="divide.dnom" horiz-adv-x="665" 
d="M272 598q0 25 18 43t44 18q27 0 44 -18t17 -43q0 -27 -17 -44t-44 -17q-26 0 -44 17.5t-18 43.5zM68 354v68h532v-68h-532zM272 176q0 25 18 42.5t44 17.5q27 0 44 -17.5t17 -42.5q0 -27 -17 -44t-44 -17q-26 0 -44 17.5t-18 43.5z" />
    <glyph glyph-name="equal.dnom" horiz-adv-x="665" 
d="M68 485v70h532v-70h-532zM68 221v68h532v-68h-532z" />
    <glyph glyph-name="Euro.dnom" horiz-adv-x="813" 
d="M723 315q0 -158 -78.5 -242.5t-212.5 -84.5q-119 0 -194.5 70.5t-90.5 203.5h-120v60h116v2v151v2h-116v60h120q15 133 90.5 202.5t194.5 69.5q133 0 212 -84.5t79 -239.5h-100q0 120 -50 179t-141 59q-77 0 -124.5 -46.5t-59.5 -139.5h229v-60h-233v-2v-151v-2h233v-60
h-229q12 -95 59.5 -141.5t124.5 -46.5q91 0 141 60t50 181h100z" />
    <glyph glyph-name="dollar.dnom" horiz-adv-x="671" 
d="M608 211q0 -101 -66.5 -159.5t-176.5 -63.5v-154h-56v156q-111 9 -178.5 74t-67.5 174h99q0 -71 40 -115t107 -53v301q-43 13 -68.5 21.5t-60 27.5t-53.5 41t-33 57.5t-14 81.5q0 92 64 148t165 61v156h56v-158q102 -11 166.5 -76t64.5 -158h-98q0 58 -37 99.5t-96 52.5
v-276q40 -12 60 -19t54 -21t52.5 -30t38.5 -39.5t29 -56t9 -72.5zM176 602q0 -55 34 -85t99 -52v262q-61 -5 -97 -37.5t-36 -87.5zM510 207q0 62 -37 93.5t-108 53.5v-286q70 5 107.5 40t37.5 99z" />
    <glyph glyph-name="cent.dnom" horiz-adv-x="733" 
d="M698 285q-12 -125 -94.5 -205.5t-206.5 -89.5v-156h-55v154q-134 9 -220.5 104.5t-86.5 241.5q0 145 87 241t220 105v151h55v-153q121 -9 202.5 -85.5t96.5 -195.5h-100q-13 79 -67.5 130.5t-131.5 60.5v-510q83 9 137.5 64.5t63.5 142.5h100zM133 334q0 -107 58 -177.5
t151 -78.5v510q-92 -8 -150.5 -78.5t-58.5 -175.5z" />
    <glyph glyph-name="zeroslash.dnom" horiz-adv-x="733" 
d="M670 397q0 -203 -83 -306t-220 -103q-110 0 -187 65l-35 -53h-82l72 109q-72 109 -72 288q0 203 83.5 307.5t220.5 104.5q106 0 184 -66l35 54h84l-72 -109q72 -109 72 -291zM162 397q0 -115 33 -196l303 461q-51 57 -131 57q-94 0 -149.5 -81.5t-55.5 -240.5zM571 397
q0 121 -32 199l-303 -461q52 -55 131 -55q95 0 149.5 79t54.5 238z" />
    <glyph glyph-name="zero.dnom" horiz-adv-x="733" 
d="M367 -12q-137 0 -220.5 103t-83.5 306t83.5 307.5t220.5 104.5t220 -104.5t83 -307.5t-83 -306t-220 -103zM367 80q93 0 146.5 78.5t53.5 238.5q0 159 -54 240.5t-146 81.5q-93 0 -147 -81.5t-54 -240.5q0 -160 54 -238.5t147 -78.5z" />
    <glyph glyph-name="one.dnom" horiz-adv-x="360" 
d="M168 756v41h104v-797h-106v580h-141v84h55q47 0 67.5 21.5t20.5 70.5z" />
    <glyph glyph-name="two.dnom" horiz-adv-x="647" 
d="M592 571q0 -48 -21.5 -89.5t-56 -72t-76.5 -58.5t-85.5 -55.5t-80 -56.5t-62 -67.5t-30.5 -83.5h424v-88h-549v45q0 60 24 111t62.5 87.5t85 68.5t93.5 60.5t85.5 57t62.5 64t24 75.5q0 69 -46 110.5t-116 41.5q-76 0 -123 -43t-47 -127v-21h-99v29q0 116 76 183t193 67
q112 0 187 -63.5t75 -174.5z" />
    <glyph glyph-name="three.dnom" horiz-adv-x="706" 
d="M647 221q0 -108 -79 -170.5t-208 -62.5q-133 0 -217 67t-84 176h103q0 -71 53 -114t141 -43q87 0 139 42t52 109q0 69 -51.5 109.5t-143.5 40.5h-59v84h59q77 0 121.5 35.5t44.5 93.5q0 60 -46.5 96.5t-125.5 36.5q-78 0 -124 -40t-46 -106h-98q0 107 73.5 170.5
t196.5 63.5t198 -59.5t75 -155.5q0 -122 -125 -174q71 -26 111 -78.5t40 -120.5z" />
    <glyph glyph-name="four.dnom" horiz-adv-x="706" 
d="M33 276l332 521h161v-518h168v-86h-168v-193h-100v193h-393v83zM129 279h297v466z" />
    <glyph glyph-name="five.dnom" horiz-adv-x="698" 
d="M358 469q-69 0 -115.5 -33t-56.5 -78h-98v439h524v-86h-430v-260q29 45 82 70.5t117 25.5q118 0 195 -77t77 -200q0 -126 -80.5 -204t-210.5 -78q-129 0 -207.5 72t-78.5 188h100q0 -76 50.5 -124t135.5 -48q87 0 139 54t52 140q0 88 -53 143.5t-142 55.5z" />
    <glyph glyph-name="six.dnom" horiz-adv-x="712" 
d="M657 250q0 -117 -80 -189.5t-198 -72.5q-140 0 -226.5 100t-86.5 313q0 203 89 305.5t224 102.5q116 0 192 -69t76 -177h-96q-2 71 -48.5 115.5t-123.5 44.5q-97 0 -154 -80t-57 -240q0 -43 2 -61q24 82 87.5 126t141.5 44q108 0 183 -71t75 -191zM379 74q76 0 127 50
t51 126q0 77 -51 127.5t-127 50.5q-75 0 -126.5 -50.5t-51.5 -127.5q0 -76 52 -126t126 -50z" />
    <glyph glyph-name="seven.dnom" horiz-adv-x="567" 
d="M287 43v-43h-103v39q0 205 76.5 367.5t206.5 302.5h-455v88h541v-113q-84 -92 -138.5 -178t-91 -206t-36.5 -257z" />
    <glyph glyph-name="eight.dnom" horiz-adv-x="706" 
d="M635 225q0 -107 -77 -172t-206 -65q-128 0 -204 64.5t-76 172.5q0 67 38 120t103 81q-52 27 -81.5 71.5t-29.5 100.5q0 95 68 153t182 58q116 0 184 -58t68 -153q0 -115 -110 -172q65 -28 103 -81t38 -120zM352 463q71 0 112.5 36t41.5 93q0 59 -42 96t-112 37
q-68 0 -109.5 -37t-41.5 -96q0 -57 41 -93t110 -36zM352 72q84 0 133.5 43.5t49.5 113.5t-49.5 114t-133.5 44q-82 0 -131 -44t-49 -114t49 -113.5t131 -43.5z" />
    <glyph glyph-name="nine.dnom" horiz-adv-x="712" 
d="M647 395q0 -203 -89 -305t-224 -102q-116 0 -192 68.5t-76 176.5h98q0 -71 47 -115t123 -44q98 0 154.5 79.5t56.5 239.5q0 44 -2 62q-24 -84 -88 -128t-142 -44q-107 0 -182.5 72.5t-75.5 191.5q0 117 80.5 189.5t198.5 72.5q140 0 226.5 -100.5t86.5 -313.5zM334 723
q-76 0 -127 -50t-51 -126q0 -77 51 -127.5t127 -50.5q75 0 126.5 50.5t51.5 127.5q0 76 -52 126t-126 50z" />
    <glyph glyph-name="fraction.OP" horiz-adv-x="348" 
d="M-291 0l844 1229h86l-844 -1229h-86z" />
    <glyph glyph-name="onequarter.OP" horiz-adv-x="1814" 
d="M352 1188v41h105v-797h-107v580h-141v84h55q47 0 67.5 21.5t20.5 70.5zM442 0l844 1229h86l-844 -1229h-86zM1053 276l331 521h162v-518h168v-86h-168v-193h-100v193h-393v83zM1149 279h297v466z" />
    <glyph glyph-name="onehalf.OP" horiz-adv-x="1814" 
d="M352 1188v41h105v-797h-107v580h-141v84h55q47 0 67.5 21.5t20.5 70.5zM442 0l844 1229h86l-844 -1229h-86zM1673 571q0 -48 -21.5 -89.5t-56 -72t-76.5 -58.5t-85 -55.5t-79.5 -56.5t-62 -67.5t-30.5 -83.5h424v-88h-549v45q0 60 24 111t62.5 87.5t85 68.5t93 60.5
t85 57t62.5 64t24 75.5q0 69 -46 110.5t-116 41.5q-76 0 -123 -43t-47 -127v-21h-98v29q0 117 76 183.5t192 66.5q112 0 187 -63.5t75 -174.5z" />
    </font>
</defs>
</svg>
