<svg xmlns="http://www.w3.org/2000/svg" width="23.352" height="23.186" viewBox="0 0 23.352 23.186">
  <g id="noun-phone-7350019" transform="translate(0.442 0.25)">
    <path id="Path_40324" data-name="Path 40324" d="M23,29.3a5.584,5.584,0,0,1-3.133-.955A50.221,50.221,0,0,1,7.583,16.054a5.617,5.617,0,0,1,.677-7.09L9.818,7.406a2.728,2.728,0,0,1,3.851,0l2.7,2.7a1.753,1.753,0,0,1,0,2.5l-1.346,1.346a1.092,1.092,0,0,0-.318.775,1.106,1.106,0,0,0,.318.775l5.4,5.4a1.108,1.108,0,0,0,1.542,0l1.346-1.346a1.814,1.814,0,0,1,2.5,0l2.7,2.7a2.593,2.593,0,0,1,.767,2,3.187,3.187,0,0,1-1,2.08l-1.33,1.33A5.571,5.571,0,0,1,23.011,29.3ZM11.735,8.246a1.081,1.081,0,0,0-.767.318L9.41,10.122a3.984,3.984,0,0,0-.473,5.026A48.422,48.422,0,0,0,20.775,26.986a3.984,3.984,0,0,0,5.026-.473l1.33-1.33a1.63,1.63,0,0,0,.522-1.012,1,1,0,0,0-.294-.759l-2.7-2.7a.149.149,0,0,0-.2,0l-1.346,1.346a2.79,2.79,0,0,1-3.851,0l-5.4-5.4a2.718,2.718,0,0,1,0-3.851l1.346-1.346a.149.149,0,0,0,0-.2l-2.7-2.7a1.1,1.1,0,0,0-.775-.318Z" transform="translate(-6.629 -6.61)" stroke="#000" stroke-width="0.5"/>
  </g>
</svg>
