<svg xmlns="http://www.w3.org/2000/svg" width="22.037" height="22.037" viewBox="0 0 22.037 22.037">
  <g id="Group_15673" data-name="Group 15673" transform="translate(0.25 0.25)">
    <path id="Path_40325" data-name="Path 40325" d="M52.68,25.288H46.4V19.006a.673.673,0,1,0-1.346,0v6.955a.673.673,0,0,0,.673.673H52.68a.673.673,0,0,0,0-1.346Z" transform="translate(-35.405 -14.744)" stroke="#000" stroke-width="0.5"/>
    <path id="Path_40326" data-name="Path 40326" d="M13.268,2.5A10.768,10.768,0,1,0,24.037,13.268,10.78,10.78,0,0,0,13.268,2.5Zm0,20.191a9.422,9.422,0,1,1,9.422-9.422A9.433,9.433,0,0,1,13.268,22.691Z" transform="translate(-2.5 -2.5)" stroke="#000" stroke-width="0.5"/>
  </g>
</svg>
