<svg xmlns="http://www.w3.org/2000/svg" width="20.046" height="26.31" viewBox="0 0 20.046 26.31">
  <g id="noun-location-4547032" transform="translate(0)">
    <path id="Path_40327" data-name="Path 40327" d="M6.506,11.51a7.772,7.772,0,0,1,7.517-8,7.772,7.772,0,0,1,7.517,8,15.086,15.086,0,0,1-4.076,9.828,22.688,22.688,0,0,1-2.855,2.736c-.218.176-.416.327-.586.453-.17-.127-.368-.278-.586-.453a22.689,22.689,0,0,1-2.855-2.736A15.086,15.086,0,0,1,6.506,11.51Zm6.847,15.606s0,0,.67-1.059l-.67,1.059a1.254,1.254,0,0,0,1.338,0l-.669-1.059.669,1.059h0l0,0,.008-.005.025-.016.086-.057c.073-.049.176-.119.306-.21.259-.182.622-.45,1.056-.8a25.188,25.188,0,0,0,3.174-3.042A17.577,17.577,0,0,0,24.046,11.51,10.275,10.275,0,0,0,14.023,1,10.275,10.275,0,0,0,4,11.51,17.577,17.577,0,0,0,8.694,22.987a25.191,25.191,0,0,0,3.174,3.042c.434.348.8.615,1.056.8.129.091.233.161.306.21l.086.057.025.016.008.005,0,0Zm.67-13.587a2.506,2.506,0,1,0-2.506-2.506A2.506,2.506,0,0,0,14.023,13.529Z" transform="translate(-4 -1)" fill-rule="evenodd"/>
  </g>
</svg>
