<svg xmlns="http://www.w3.org/2000/svg" xmlns:xlink="http://www.w3.org/1999/xlink" width="236.156" height="235.275" viewBox="0 0 236.156 235.275">
  <defs>
    <clipPath id="clip-path">
      <rect id="Rectangle_110" data-name="Rectangle 110" width="221.323" height="220.373" fill="#d3cec1"/>
    </clipPath>
  </defs>
  <g id="Group_506" data-name="Group 506" transform="translate(0 15.439) rotate(-4)">
    <path id="Path_971" data-name="Path 971" d="M8.329,0,17.8,3.82,16.574,6.848,10.41,4.36,7.968,10.415l5.339,2.155L12.084,15.6,6.745,13.443,3.3,21.975,0,20.642Z" transform="translate(139.613 5.661)" fill="#d3cec1"/>
    <g id="Group_479" data-name="Group 479" transform="translate(0 0)">
      <g id="Group_478" data-name="Group 478" clip-path="url(#clip-path)">
        <path id="Path_972" data-name="Path 972" d="M12.4,1.841l-7.9,13.082c-1.549,2.566-1.131,4,.469,4.963,1.576.953,3.062.672,4.612-1.894L17.48,4.91l3.047,1.843-7.9,13.081C10.107,24,6.756,24.784,3.275,22.682s-4.345-5.435-1.829-9.6L9.351,0Z" transform="translate(152.799 11.795)" fill="#d3cec1"/>
        <path id="Path_973" data-name="Path 973" d="M8.015,23.769,0,16.979,14.388,0,17.1,2.3,4.827,16.79l5.3,4.49Z" transform="translate(164.302 22.625)" fill="#d3cec1"/>
        <path id="Path_974" data-name="Path 974" d="M7.018,22.68,0,14.869,16.551,0l2.378,2.647L4.807,15.336,9.447,20.5Z" transform="translate(173.395 32.736)" fill="#d3cec1"/>
        <path id="Path_975" data-name="Path 975" d="M18.48,0,24.17,8.477l-2.713,1.818-3.7-5.519L12.826,8.083,16.2,13.11,13.49,14.93,10.117,9.9,4.694,13.541,8.4,19.06,5.689,20.88,0,12.4Z" transform="translate(181.356 44.398)" fill="#d3cec1"/>
        <path id="Path_976" data-name="Path 976" d="M20.822,0l2.3,6.081c1.292,3.414.245,6.6-3.475,8.011l-1.387.525c-3.859,1.462-6.893-.183-8.186-3.6l-1.04-2.75L1.262,11.215,0,7.882ZM19.029,4.488l-6.94,2.627.935,2.472c.651,1.721,1.977,2.457,4.254,1.594l.832-.315c2.111-.8,2.507-2.185,1.854-3.907Z" transform="translate(191.142 65.263)" fill="#d3cec1"/>
        <path id="Path_977" data-name="Path 977" d="M6.508,1.6,13.8.234c5.076-.953,8.049,1.054,8.816,5.138s-1.274,7.034-6.35,7.988l-7.292,1.37C3.9,15.684.925,13.675.156,9.591S1.432,2.558,6.508,1.6M8.316,11.23l7.292-1.37c3.3-.62,4.162-1.96,3.8-3.885-.356-1.9-1.655-2.859-4.951-2.241L7.165,5.1c-3.3.618-4.16,1.96-3.8,3.884.356,1.9,1.655,2.859,4.951,2.241" transform="translate(196.903 83.841)" fill="#d3cec1"/>
        <path id="Path_978" data-name="Path 978" d="M0,18.155l.108-5.369,18.828-2.027L.2,7.979.312,2.608,22.624,0l-.072,3.561L4.262,5.449l18.2,2.71L22.352,13.5,4.062,15.476l18.2,2.621-.072,3.561Z" transform="translate(198.698 101.207)" fill="#d3cec1"/>
        <path id="Path_979" data-name="Path 979" d="M23.908,4.665l-2.14,9.984-3.192-.684,1.393-6.5-5.8-1.243-1.27,5.92L9.7,11.457l1.268-5.922L4.587,4.167l-1.395,6.5L0,9.984,2.141,0Z" transform="translate(195.752 123.769)" fill="#d3cec1"/>
        <path id="Path_980" data-name="Path 980" d="M1.54,8.763l12.3-1.482L3.662,3.317,4.955,0l20.73,8.077-2.433,6.248c-1.324,3.4-4.151,5.1-7.662,3.731l-.831-.323c-3.1-1.206-4.054-3.809-3.492-6.645L0,12.715ZM21.353,10.21l-5.8-2.263L14.514,10.6c-.668,1.715-.259,3.116,1.815,3.925l.276.108c1.908.743,3.045-.056,3.714-1.769Z" transform="translate(190.141 136.108)" fill="#d3cec1"/>
        <path id="Path_981" data-name="Path 981" d="M5.227.666a3.264,3.264,0,1,1-4.552.615A3.254,3.254,0,0,1,5.227.666" transform="translate(184.537 165.75)" fill="#d3cec1"/>
        <path id="Path_982" data-name="Path 982" d="M16.324,17.694,8.21,23.883l-1.98-2.6,5.285-4.029L7.557,12.067,2.98,15.558,1,12.964,5.577,9.472,0,2.16,2.83,0Z" transform="translate(164.711 177.342)" fill="#d3cec1"/>
        <path id="Path_983" data-name="Path 983" d="M16.811,19.429,9.595,5.954C8.18,3.31,6.735,2.94,5.086,3.823c-1.621.868-2.14,2.291-.725,4.933L11.577,22.23,8.439,23.912,1.222,10.438C-1.076,6.146-.039,2.864,3.546.944s6.89-.964,9.189,3.328L19.95,17.747Z" transform="translate(148.575 186.374)" fill="#d3cec1"/>
        <path id="Path_984" data-name="Path 984" d="M0,3.417,9.929,0l7.238,21.036L13.8,22.195,7.626,4.245,1.062,6.5Z" transform="translate(133.59 191.78)" fill="#d3cec1"/>
        <path id="Path_985" data-name="Path 985" d="M0,2.016,10.309,0,14.58,21.839l-3.494.684L7.441,3.887.626,5.219Z" transform="translate(121.666 195.509)" fill="#d3cec1"/>
        <path id="Path_986" data-name="Path 986" d="M11.352,22.215l-10.188.533L.992,19.49l6.636-.347-.309-5.925-6.044.317L1.1,10.276,7.148,9.96l-.34-6.517L.172,3.792,0,.533,10.19,0Z" transform="translate(109.797 197.625)" fill="#d3cec1"/>
        <path id="Path_987" data-name="Path 987" d="M11.634,22.529,5.234,21.4c-3.593-.632-5.8-3.159-5.108-7.074l.258-1.46C1.1,8.8,4.06,7.037,7.655,7.671l2.892.509L11.987,0l3.506.618ZM8.694,18.7l1.287-7.3-2.6-.458c-1.812-.32-3.12.444-3.542,2.839l-.155.876c-.392,2.221.6,3.269,2.41,3.589Z" transform="translate(85.447 197.036)" fill="#d3cec1"/>
        <path id="Path_988" data-name="Path 988" d="M15.829,10.048l-2.544,6.97c-1.771,4.851-5.016,6.384-8.919,4.96s-5.4-4.687-3.628-9.539L3.281,5.47C5.051.617,8.3-.915,12.2.51s5.4,4.687,3.629,9.539m-9.2-3.358-2.544,6.97c-1.149,3.15-.439,4.579,1.4,5.25,1.812.662,3.3.038,4.452-3.114l2.544-6.97c1.149-3.15.439-4.579-1.4-5.25-1.813-.661-3.3-.038-4.454,3.114" transform="translate(68.284 191.874)" fill="#d3cec1"/>
        <path id="Path_989" data-name="Path 989" d="M14.388,0l4.554,2.847-7.916,17.2L23.018,5.394l4.555,2.847-9.2,20.493-3.02-1.887,7.76-16.671L11.449,24.409,6.92,21.578,14.6,4.86,3.02,19.14,0,17.252Z" transform="translate(42.965 180.506)" fill="#d3cec1"/>
        <path id="Path_990" data-name="Path 990" d="M7.476,23.25,0,16.3l2.224-2.391,4.868,4.527,4.042-4.348L6.7,9.967,8.922,7.576,13.356,11.7,17.8,6.917,12.932,2.391,15.156,0l7.476,6.951Z" transform="translate(31.388 170.622)" fill="#d3cec1"/>
        <path id="Path_991" data-name="Path 991" d="M17.481,3.344,12.475,14.666l8.6-6.717,2.189,2.8L5.736,24.444,1.61,19.16c-2.244-2.875-2.261-6.173.706-8.491l.7-.548c2.617-2.044,5.344-1.54,7.495.394L14.87,0ZM6.117,19.63l4.91-3.834L9.273,13.552c-1.131-1.448-2.544-1.813-4.3-.443l-.234.183c-1.613,1.26-1.509,2.646-.376,4.095Z" transform="translate(21.566 158.07)" fill="#d3cec1"/>
        <path id="Path_992" data-name="Path 992" d="M4.472,6.291a3.265,3.265,0,1,1,1.8-4.231,3.257,3.257,0,0,1-1.8,4.231" transform="translate(17.02 142.482)" fill="#d3cec1"/>
        <path id="Path_993" data-name="Path 993" d="M1.138,10.713,0,.573,3.242.208l.74,6.6,6.486-.728L9.825.364,13.068,0l.642,5.719,9.137-1.028.4,3.537Z" transform="translate(0.239 115.87)" fill="#d3cec1"/>
        <path id="Path_994" data-name="Path 994" d="M.161,9.486l15.266.687c3,.134,4.053-.917,4.137-2.785.084-1.838-.876-3.009-3.868-3.144L.428,3.558.587,0,15.854.687c4.862.219,7.153,2.786,6.971,6.848s-2.7,6.414-7.557,6.2L0,13.043Z" transform="translate(-0.002 98.204)" fill="#d3cec1"/>
        <path id="Path_995" data-name="Path 995" d="M23.92.662,21.786,10.944,0,6.423.723,2.939,19.315,6.8,20.725,0Z" transform="translate(1.6 85.118)" fill="#d3cec1"/>
        <path id="Path_996" data-name="Path 996" d="M24.5,1.1l-3.536,9.895L0,3.506,1.2.151l17.889,6.39L21.425,0Z" transform="translate(5.117 73.219)" fill="#d3cec1"/>
        <path id="Path_997" data-name="Path 997" d="M0,9.034,4.754,0,7.643,1.521,4.546,7.4,9.8,10.168l2.82-5.358,2.889,1.521-2.82,5.357,5.777,3.041,3.1-5.883,2.888,1.521L19.694,19.4Z" transform="translate(10.683 53.444)" fill="#d3cec1"/>
        <path id="Path_998" data-name="Path 998" d="M0,7.337,4.252,2.42c2.389-2.761,5.692-3.358,8.7-.754l1.121.97c3.12,2.7,3.119,6.152.729,8.913l-1.922,2.222,6.284,5.438L16.835,21.9Zm4.8-.558,5.613,4.855,1.727-2c1.206-1.393,1.221-2.909-.618-4.5l-.675-.583C9.141,3.076,7.732,3.39,6.528,4.782Z" transform="translate(23.285 34.564)" fill="#d3cec1"/>
        <path id="Path_999" data-name="Path 999" d="M6.977,17.618,2.288,11.87c-3.264-4-2.922-7.573.3-10.2S9.372-.571,12.636,3.43l4.688,5.749c3.262,4,2.92,7.573-.3,10.2s-6.787,2.243-10.048-1.758m7.588-6.189L9.875,5.681C7.758,3.082,6.166,2.963,4.648,4.2c-1.5,1.22-1.721,2.82.4,5.419l4.688,5.749c2.121,2.6,3.711,2.717,5.229,1.48,1.495-1.22,1.719-2.82-.4-5.419" transform="translate(38.109 22.214)" fill="#d3cec1"/>
        <path id="Path_1000" data-name="Path 1000" d="M26.746,21.186,21.97,23.649,11.222,8.052l6.475,17.8-4.776,2.463L0,9.932,3.166,8.3,13.538,23.489,7.256,6.191,12,3.742,22.456,18.89,16.092,1.632,19.257,0Z" transform="translate(50.425 6.577)" fill="#d3cec1"/>
        <path id="Path_1001" data-name="Path 1001" d="M0,2.861,9.795,0l.915,3.133L4.331,5,6,10.691l5.809-1.7.915,3.133-5.809,1.7,1.83,6.265,6.378-1.863.915,3.133-9.8,2.861Z" transform="translate(75.141 2.18)" fill="#d3cec1"/>
        <path id="Path_1002" data-name="Path 1002" d="M12.106,21.826l-7.16-10.11L6.3,22.553,2.77,23,0,.907,6.656.073c3.623-.454,6.465,1.223,6.935,4.963l.111.884c.414,3.3-1.42,5.383-4.185,6.239l6.8,9.139ZM3.94,3.7l.776,6.184,2.828-.355c1.826-.228,2.864-1.256,2.586-3.465l-.037-.294c-.255-2.033-1.5-2.655-3.325-2.425Z" transform="translate(90.786 -0.001)" fill="#d3cec1"/>
        <path id="Path_1003" data-name="Path 1003" d="M.04,2.754A3.264,3.264,0,1,1,2.757,6.46,3.255,3.255,0,0,1,.04,2.754" transform="translate(122.717 10.472)" fill="#d3cec1"/>
      </g>
    </g>
  </g>
</svg>
