<svg id="noun-image-7319336" xmlns="http://www.w3.org/2000/svg" width="33.484" height="26.787" viewBox="0 0 33.484 26.787">
  <path id="Path_40320" data-name="Path 40320" d="M33.26,16.964H32.144V15.848A3.358,3.358,0,0,0,28.8,12.5H6.473a3.358,3.358,0,0,0-3.348,3.348V31.474a3.358,3.358,0,0,0,3.348,3.348H7.589v1.116a3.358,3.358,0,0,0,3.348,3.348H33.26a3.358,3.358,0,0,0,3.348-3.348V20.313A3.358,3.358,0,0,0,33.26,16.964ZM6.473,14.732H28.8a1.119,1.119,0,0,1,1.116,1.116v14.61L24.1,22.98a1.151,1.151,0,0,0-.837-.435,1.205,1.205,0,0,0-.871.357L17.635,28.07,12.88,22.9a1.119,1.119,0,0,0-1.708.078L5.358,30.458V15.848a1.119,1.119,0,0,1,1.116-1.116ZM28.751,32.59H6.518l5.6-7.2,4.688,5.09a1.152,1.152,0,0,0,1.641,0l4.688-5.09,5.6,7.2Zm5.625,3.348a1.119,1.119,0,0,1-1.116,1.116H10.938a1.119,1.119,0,0,1-1.116-1.116V34.822H28.8a3.358,3.358,0,0,0,3.348-3.348V19.2H33.26a1.119,1.119,0,0,1,1.116,1.116Z" transform="translate(-3.125 -12.5)"/>
  <path id="Path_40321" data-name="Path 40321" d="M37.221,28.349a3.627,3.627,0,1,0-3.627-3.627A3.634,3.634,0,0,0,37.221,28.349Zm0-5.022a1.4,1.4,0,1,1-1.4,1.4A1.4,1.4,0,0,1,37.221,23.326Z" transform="translate(-22.712 -18.025)"/>
</svg>
