<svg id="noun-headset-6923114" xmlns="http://www.w3.org/2000/svg" width="22.311" height="22.311" viewBox="0 0 22.311 22.311">
  <path id="Path_40189" data-name="Path 40189" d="M7.214,11.676a7.065,7.065,0,0,1,14.13,0v1.118l-.159,0a1.7,1.7,0,0,0-1.7,1.7V20.6a3.347,3.347,0,0,1-3.346,3.346.744.744,0,1,0,0,1.487,4.836,4.836,0,0,0,4.5-3.065,1.685,1.685,0,0,0,.547.09,4.25,4.25,0,0,0,4.249-4.249V17.041a4.251,4.251,0,0,0-2.6-3.918V11.676a8.552,8.552,0,1,0-17.1,0v1.446a4.251,4.251,0,0,0-2.6,3.918V18.21a4.25,4.25,0,0,0,4.249,4.249,1.7,1.7,0,0,0,1.7-1.7V14.492a1.7,1.7,0,0,0-1.7-1.7l-.159,0Z" transform="translate(-3.123 -3.124)"/>
</svg>
