<svg xmlns="http://www.w3.org/2000/svg" width="28.303" height="22.718" viewBox="0 0 28.303 22.718">
  <g id="Group_15752" data-name="Group 15752" transform="translate(-70.771 -1452.368)">
    <g id="noun-mail-7362573" transform="translate(70.771 1452.368)">
      <path id="Path_40336" data-name="Path 40336" d="M9.416,13.879H28.887A4.427,4.427,0,0,1,33.3,18.294V32.181A4.425,4.425,0,0,1,28.887,36.6H9.416A4.426,4.426,0,0,1,5,32.182V18.3A4.425,4.425,0,0,1,9.416,13.88Zm21.322,3.912c-2.889,2.925-5.77,5.891-8.7,8.766a4.432,4.432,0,0,1-6.238-.009L7.5,18.245V32.182A1.927,1.927,0,0,0,9.415,34.1H28.886A1.926,1.926,0,0,0,30.8,32.182l-.068-14.39Zm-21.561-1.4,8.389,8.395a1.921,1.921,0,0,0,2.709.009l8.356-8.419-19.454.015Z" transform="translate(-5 -13.879)" fill-rule="evenodd"/>
    </g>
  </g>
</svg>
