<svg id="instagram-svgrepo-com" xmlns="http://www.w3.org/2000/svg" width="37.625" height="37.625" viewBox="0 0 37.625 37.625">
  <path id="Path_62" data-name="Path 62" d="M16.261,26.523A10.261,10.261,0,1,0,6,16.261,10.261,10.261,0,0,0,16.261,26.523Zm0-3.42A6.841,6.841,0,1,0,9.42,16.261,6.841,6.841,0,0,0,16.261,23.1Z" transform="translate(2.551 2.551)" fill="#fff" fill-rule="evenodd"/>
  <path id="Path_63" data-name="Path 63" d="M18.71,5a1.71,1.71,0,1,0,1.71,1.71A1.71,1.71,0,0,0,18.71,5Z" transform="translate(10.364 1.841)" fill="#fff"/>
  <path id="Path_64" data-name="Path 64" d="M2.118,6.6C1,8.8,1,11.671,1,17.418v4.789c0,5.747,0,8.62,1.118,10.815A10.261,10.261,0,0,0,6.6,37.506c2.2,1.118,5.068,1.118,10.815,1.118h4.789c5.747,0,8.62,0,10.815-1.118a10.26,10.26,0,0,0,4.484-4.484c1.118-2.195,1.118-5.068,1.118-10.815V17.418c0-5.747,0-8.62-1.118-10.815a10.261,10.261,0,0,0-4.484-4.484C30.827,1,27.954,1,22.207,1H17.418C11.671,1,8.8,1,6.6,2.118A10.261,10.261,0,0,0,2.118,6.6ZM22.207,4.42H17.418c-2.93,0-4.922,0-6.461.128a7.383,7.383,0,0,0-2.8.617,6.841,6.841,0,0,0-2.99,2.99,7.383,7.383,0,0,0-.617,2.8c-.126,1.539-.128,3.531-.128,6.461v4.789c0,2.93,0,4.922.128,6.461a7.383,7.383,0,0,0,.617,2.8,6.841,6.841,0,0,0,2.99,2.989,7.381,7.381,0,0,0,2.8.617c1.539.126,3.531.128,6.461.128h4.789c2.93,0,4.922,0,6.461-.128a7.381,7.381,0,0,0,2.8-.617,6.841,6.841,0,0,0,2.989-2.989,7.38,7.38,0,0,0,.617-2.8c.126-1.54.128-3.531.128-6.461V17.418c0-2.93,0-4.922-.128-6.461a7.38,7.38,0,0,0-.617-2.8,6.841,6.841,0,0,0-2.989-2.99,7.383,7.383,0,0,0-2.8-.617C27.128,4.423,25.137,4.42,22.207,4.42Z" transform="translate(-1 -1)" fill="#fff" fill-rule="evenodd"/>
</svg>
