<svg xmlns="http://www.w3.org/2000/svg" width="59.033" height="52.913" viewBox="0 0 59.033 52.913">
  <g id="Page-1" transform="translate(0 0)">
    <g id="Dribbble-Light-Preview" transform="translate(0)">
      <g id="icons">
        <path id="linkedin-_161_" data-name="linkedin-[#161]" d="M183.033,7371.909H171.226v-18.516c0-5.079-2.5-7.913-6.984-7.913-4.879,0-7.775,2.952-7.775,7.913v18.516H144.661v-34.393h11.807v3.867a14.484,14.484,0,0,1,12.051-5.824c8.35,0,14.513,4.566,14.513,14.016v22.334Zm-51.825-39.893c-3.982,0-7.208-2.916-7.208-6.511s3.226-6.509,7.208-6.509,7.2,2.917,7.2,6.509-3.226,6.511-7.2,6.511ZM124,7371.909h14.758v-34.393H124Z" transform="translate(-124 -7318.996)" fill-rule="evenodd"/>
      </g>
    </g>
  </g>
</svg>
