<svg xmlns="http://www.w3.org/2000/svg" width="34.357" height="24.529" viewBox="0 0 34.357 24.529">
  <g id="noun-link-773139" transform="translate(-3.488 -16.797)">
    <path id="Path_40419" data-name="Path 40419" d="M17,35.551l-1.222,1.222a5.469,5.469,0,0,1-7.734-7.734L12.2,24.886a5.47,5.47,0,0,1,8.97,5.841,1.477,1.477,0,1,0,2.757,1.064A8.425,8.425,0,0,0,10.109,22.8L5.955,26.95A8.424,8.424,0,0,0,17.869,38.863l1.222-1.222A1.477,1.477,0,1,0,17,35.551Zm18.38-16.291a8.434,8.434,0,0,0-11.914,0l-1.222,1.222a1.477,1.477,0,0,0,2.089,2.09l1.222-1.222a5.469,5.469,0,0,1,7.734,7.734L29.14,33.237A5.47,5.47,0,0,1,20.17,27.4a1.477,1.477,0,0,0-2.757-1.064,8.426,8.426,0,0,0,13.815,9l4.153-4.153A8.434,8.434,0,0,0,35.382,19.261Z" transform="translate(0 0)" fill="#cd1718"/>
  </g>
</svg>
