<svg id="Group_15752" data-name="Group 15752" xmlns="http://www.w3.org/2000/svg" width="20.154" height="16.178" viewBox="0 0 20.154 16.178">
  <g id="noun-mail-7362573">
    <path id="Path_40336" data-name="Path 40336" d="M8.145,13.879H22.01a3.152,3.152,0,0,1,3.145,3.144v9.889a3.151,3.151,0,0,1-3.145,3.144H8.145A3.152,3.152,0,0,1,5,26.913V17.024A3.151,3.151,0,0,1,8.145,13.88Zm15.183,2.786c-2.057,2.083-4.109,4.2-6.192,6.242a3.156,3.156,0,0,1-4.442-.006L6.779,16.988v9.925a1.372,1.372,0,0,0,1.366,1.366H22.009a1.372,1.372,0,0,0,1.366-1.366l-.048-10.247Zm-15.354-1,5.974,5.978a1.368,1.368,0,0,0,1.929.006l5.95-5.995-13.853.01Z" transform="translate(-5 -13.879)" fill="#fff" fill-rule="evenodd"/>
  </g>
</svg>
