<svg id="noun-clock-801045" xmlns="http://www.w3.org/2000/svg" width="20.837" height="20.837" viewBox="0 0 20.837 20.837">
  <g id="Group_15946" data-name="Group 15946">
    <g id="Group_15945" data-name="Group 15945">
      <path id="Path_40431" data-name="Path 40431" d="M15.4,4.979A10.419,10.419,0,1,0,25.816,15.4,10.431,10.431,0,0,0,15.4,4.979Zm0,18.755A8.336,8.336,0,1,1,23.734,15.4,8.346,8.346,0,0,1,15.4,23.734Z" transform="translate(-4.979 -4.979)" fill="#fff"/>
      <path id="Path_40432" data-name="Path 40432" d="M47.871,30.466a1.192,1.192,0,0,0,.019-.186V25.069a1.195,1.195,0,1,0-2.39,0v5.212c0,.1-.013,1.258.362,1.595l3.7,3.315a1.195,1.195,0,1,0,1.6-1.779Z" transform="translate(-36.591 -20.111)" fill="#fff"/>
    </g>
  </g>
</svg>
