<svg xmlns="http://www.w3.org/2000/svg" width="24.108" height="22.977" viewBox="0 0 24.108 22.977">
  <path id="Path_40426" data-name="Path 40426" d="M18.89,12.914H1.674A1.682,1.682,0,0,1,0,11.24V9.776A1.181,1.181,0,0,1,1.014,8.59,2.154,2.154,0,0,0,2.869,6.457,2.162,2.162,0,0,0,1.014,4.324,1.2,1.2,0,0,1,0,3.137V1.674A1.682,1.682,0,0,1,1.674,0H18.89a1.682,1.682,0,0,1,1.674,1.674V3.137A1.181,1.181,0,0,1,19.55,4.324a2.154,2.154,0,0,0,0,4.266,1.2,1.2,0,0,1,1.014,1.186V11.24A1.682,1.682,0,0,1,18.89,12.914ZM1.435,9.977V11.24a.237.237,0,0,0,.239.239H18.89a.237.237,0,0,0,.239-.239V9.967a3.587,3.587,0,0,1,0-7.03V1.675a.237.237,0,0,0-.239-.239H1.674a.237.237,0,0,0-.239.239V2.948A3.594,3.594,0,0,1,4.3,6.459,3.612,3.612,0,0,1,1.435,9.978ZM19.359,10.016ZM1.205,10.016ZM19.359,2.9ZM1.205,2.9Z" transform="translate(0 12.941) rotate(-39)" fill="#fff"/>
</svg>
