<svg xmlns="http://www.w3.org/2000/svg" width="283.146" height="283.146" viewBox="0 0 283.146 283.146">
  <g id="MT-Logo_schwarz-01" transform="translate(0)" opacity="0.29">
    <g id="Group_15818" data-name="Group 15818" transform="translate(0 0)">
      <path id="Path_40389" data-name="Path 40389" d="M142.773,1.3C64.821,1.3,1.2,64.746,1.2,142.873a141.573,141.573,0,0,0,283.146,0C284.346,64.746,220.726,1.3,142.773,1.3ZM88.067,32.586a14.636,14.636,0,0,0,11.71,5.943,14.471,14.471,0,0,0,14.507-14.507v-.874a127.1,127.1,0,0,1,28.489-3.321,122.871,122.871,0,1,1-107.491,182.3L54.508,205.1c.7-.7-4.37-4.719-5.069-5.243-6.642-5.593-11.361-5.943-18.177-5.418-.35-.874-.874-1.748-1.223-2.622a42.545,42.545,0,0,0,10.487-.874l.35-2.447-11.885.7A121.126,121.126,0,0,1,19.9,142.7,122.617,122.617,0,0,1,84.047,34.858c-.524,2.1-.524,4.544.7,4.544,4.02.35,6.817,0,8.39-.7a12.169,12.169,0,0,1-4.02-1.923,9.038,9.038,0,0,1-2.622-3.146Zm54.707,246.442A136.274,136.274,0,0,1,86.144,18.778,12.77,12.77,0,0,0,85.1,24.022a17.219,17.219,0,0,0,.35,2.971A129.337,129.337,0,0,0,13.61,142.7c0,71.136,58.028,129.164,129.164,129.164S271.937,213.834,271.937,142.7,214.084,13.535,142.773,13.535a124.548,124.548,0,0,0-30.237,3.67,14.514,14.514,0,0,0-5.768-5.943,136.306,136.306,0,1,1,36.005,267.765Z" transform="translate(-1.2 -1.3)" fill="#8e1920"/>
      <path id="Path_40390" data-name="Path 40390" d="M75.705,92.979a10.381,10.381,0,0,0,1.4-.7,3.612,3.612,0,0,0,2.1-2.622c.524-4.02.524-5.418-1.573-7.341-2.971-2.8-7.516-.35-11.011,3.321-2.1,2.272-2.971,7.516-2.971,7.69l-.175.7h-.7c-5.243-.175-9.788,2.971-13.458,7.341a52.109,52.109,0,0,0-5.243,6.991c-1.573,2.447-3.146,4.719-4.37,6.642-2.272,3.321-1.223,3.67-.7,3.67,1.573.35,4.544-.175,8.215-1.573,7.341-2.622,16.08-7.341,18.177-9.963l4.544-5.943-.175-.35a1.335,1.335,0,0,1-.35-.874,1.478,1.478,0,0,1,0-1.223A11.628,11.628,0,0,1,75.705,92.979Z" transform="translate(26.542 58.382)" fill="#8e1920"/>
      <path id="Path_40391" data-name="Path 40391" d="M52.046,47.655c-2.1,1.049-6.117,4.544-7.69,2.971-2.1-2.1-.874,8.914,1.748,8.564.524,0,0,5.069,1.4,3.5,2.971-3.321,3.845-3.146,5.593-5.243C57.289,52.2,54.493,46.606,52.046,47.655Z" transform="translate(30.276 33.269)" fill="#8e1920"/>
      <path id="Path_40392" data-name="Path 40392" d="M28.2,110.4l.524.874,1.223,1.573,4.544,4.02C51.8,132.073,42.008,113.2,28.2,110.4Z" transform="translate(18.991 80.287)" fill="#8e1920"/>
      <path id="Path_40393" data-name="Path 40393" d="M41.759,107.943c1.223-1.923,3.5-1.049,5.593-1.748l2.622-.7-6.117-.7.175-2.8c-9.438,3.321-6.117,5.593-15.031,4.195a21.84,21.84,0,0,0,1.748,1.573c1.923,1.4,5.069,3.146,5.069,3.146.874,1.049-6.991,2.447-6.117,3.146l1.573,1.573h9.613l1.923,1.573a17.149,17.149,0,0,1,2.971,4.37c.874,2.971-1.4,7.865-1.4,7.865,1.4-.175,2.971-2.272,3.67-4.369a7.824,7.824,0,0,0-2.272-9.263C43.682,113.186,39.836,110.739,41.759,107.943Z" transform="translate(19.589 74.005)" fill="#8e1920"/>
      <path id="Path_40394" data-name="Path 40394" d="M24.5,106.946l6.642-3.146C28.695,103.975,24.5,103.45,24.5,106.946Z" transform="translate(16.224 75.351)" fill="#8e1920"/>
      <path id="Path_40395" data-name="Path 40395" d="M46.623,63.235C52.041,68.3,68.47,59.915,57.284,51.35c-7.69-5.768-22.722-8.04-8.04-7.166,0,0,2.8-6.642,5.593-10.312A56.51,56.51,0,0,1,62,27.23c1.573-2.971-.7-2.1-1.923-2.8-2.1-1.4-3.146-.874-6.117,1.223-4.37,2.971-10.487,8.04-11.885,8.914C23.9,43.835,38.058,55.37,46.623,63.235Z" transform="translate(22.766 15.416)" fill="#8e1920"/>
      <path id="Path_40396" data-name="Path 40396" d="M24.3,106.7l6.991,6.467C29.369,111.244,30.243,106.7,24.3,106.7Z" transform="translate(16.075 77.52)" fill="#8e1920"/>
      <path id="Path_40397" data-name="Path 40397" d="M57.98,43.473c2.622,3.321-3.321,9.089.524,11.011,2.622,1.4,5.069-.7,7.516-1.223-2.622-3.146-2.272-4.894-.874-7.341A5.809,5.809,0,0,1,72.312,43.3l3.5-4.719,6.817-.175,3.5-3.146,2.1-.175s4.719-4.195,3.321-6.816a7.6,7.6,0,0,0-1.049-1.223c-8.04-8.564-23.77-7.341-30.237,2.622-2.272,3.5-2.8,6.292-2.971,10.487,0,1.223-.524,2.1.175,3.146C57.63,43.124,57.805,43.3,57.98,43.473Z" transform="translate(40.597 13.68)" fill="#8e1920"/>
      <path id="Path_40398" data-name="Path 40398" d="M87.717,45.265c.874-.874-.524-4.37-1.573-6.642-.7-1.573-.35-2.8-.175-4.544h0a14.116,14.116,0,0,0,.524-3.321c.35-3.146-3.321,1.573-5.593,2.272-2.622.874-5.243-.7-6.991,1.223-2.622,2.8-2.971,3.5-7.166,4.02-2.8.35-3.845,3.67-3.845,6.816l2.272,2.272-4.02,1.223c-.524.35-1.223,1.748-.524,2.1,3.845,1.748,3.5-.524,8.04,2.622l2.971,1.748,1.923.35c3.321,0,2.447.874,6.117,1.4,1.4.175,3.321-.175,3.321-1.223s-.524-1.4-.35-2.272c0-.35.524-.524.7-.874a16.164,16.164,0,0,0-2.971-1.4,2.055,2.055,0,0,1-.874-1.049,1.282,1.282,0,0,1,1.4-1.049c1.223-.175,2.971.7,3.146.175.175-.874-.175-1.4.175-2.272C84.571,44.915,86.843,46.139,87.717,45.265Z" transform="translate(43.02 19.928)" fill="#8e1920"/>
      <path id="Path_40399" data-name="Path 40399" d="M54.831,43.874l-.175.175c.175.35,0,.874.175,1.4a27.036,27.036,0,0,0,1.049,5.418c.524,1.4,1.748,2.622,2.447,4.02,1.223,2.971-.524,4.719-3.67,7.166C45.043,69.742,45.917,79,43.82,86.346,42.946,89.492,54.831,94.036,62,96.483L76.5,105.4a6.082,6.082,0,0,0,1.223-2.622c4.894-2.971,6.117-11.71,7.341-14.157a61.409,61.409,0,0,0,5.243-14.332c.7-2.447,4.894-5.593,7.516-8.215,2.272.874,4.544,1.748,5.593.874s-1.223-6.816-.7-8.04c1.049-2.272,2.1-2.447,4.02-4.02,2.8-2.272,1.748-2.8-1.4-2.8-3.67,0-7.341.175-10.836-1.049-2.622-.874-5.593,1.748-8.39,1.049a60.466,60.466,0,0,1-12.06-3.845C70.037,46.5,66.891,43.175,62.346,43H59.025C57.627,43.35,56.229,44.049,54.831,43.874Z" transform="translate(30.638 29.884)" fill="#8e1920"/>
      <path id="Path_40400" data-name="Path 40400" d="M83.813,101.662c8.215-8.215-8.04-17.653-18.876-24.295L46.585,71.6l-.175.175c-5.768,5.943-9.263,14.332-5.418,22.372,1.4,2.971,6.642,4.894,9.788,6.467s3.845,0,6.642-1.573c1.573-.874,4.544-.524,5.069-2.1a14.461,14.461,0,0,1,2.971-5.593c3.5-3.67,8.739-6.467,12.759-3.146C81.541,91,79.444,99.39,79.444,99.39c-8.564,2.447-10.662,8.39-8.39,10.487,2.971-.524,2.1,1.748,3.321,1.223.35-.175.874-.35,1.223-.524.524-.35,1.748-.874,2.1-1.573C79.094,105.857,80.143,103.935,83.813,101.662Z" transform="translate(27.348 51.271)" fill="#8e1920"/>
      <path id="Path_40401" data-name="Path 40401" d="M64.758,100.892l-4.37,2.272c-3.146-.175-8.215,5.243-9.963,7.69-.874,1.223-1.748,2.622-2.622,3.845-1.223,1.923-3.321,4.195-3.845,6.467v.175c-8.564,10.662.175,15.206,26.392-20.275,1.4-1.748,2.272-4.544.35-6.467A18.352,18.352,0,0,0,64.758,100.892Z" transform="translate(28.401 68.471)" fill="#8e1920"/>
      <path id="Path_40402" data-name="Path 40402" d="M83.869,64.978c4.719,3.321,11.011-1.748,14.856-.7s13.458,4.195,14.856,3.67c6.117-1.923,15.206-2.447,18.177-1.923s11.536,5.768,17.129,9.963c.874.175.524-2.1,1.573-2.1,1.4,0,6.991.7,5.593-3.146l-11.71-11.71c-4.02-.175-16.6,1.223-20.974-3.321-2.971-3.146-16.954-3.67-20.624-1.4C92.608,49.073,84.568,42.431,78.8,55.89,78.8,55.89,80.548,62.706,83.869,64.978Z" transform="translate(56.831 33.598)" fill="#8e1920"/>
      <path id="Path_40403" data-name="Path 40403" d="M105.995,114.662h0l-2.8-30.587H74.883c1.223,2.447,1.049,3.67-.35,9.613L65.97,128.12c-1.573,6.117-2.1,7.166-4.37,9.613H74.534c-1.223-2.447-1.049-3.67.35-9.613L83.1,95.436h.175l3.845,42.3h14.157l25.518-42.3h.175l-8.215,33.034c-1.223,5.069-2.447,7.166-4.02,9.263h23.945c-.524-2.1-.7-4.195.524-9.263l8.739-35.306c1.223-5.069,2.447-7.166,4.02-9.263H124.521Z" transform="translate(43.968 60.469)" fill="#8e1920"/>
      <path id="Path_40404" data-name="Path 40404" d="M116.7,95.011a14.69,14.69,0,0,1,8.215-2.1h9.263l-8.914,35.655c-1.223,5.069-2.447,7.166-4.02,9.263h23.945c-.524-2.1-.7-4.195.7-9.263L154.8,92.914h9.263c3.845,0,5.243.7,7.166,2.1L172.281,84H121.244Z" transform="translate(85.173 60.544)" fill="#8e1920"/>
    </g>
  </g>
</svg>
