<svg id="Ebene_2" data-name="Ebene 2" xmlns="http://www.w3.org/2000/svg" width="34.325" height="37.436" viewBox="0 0 34.325 37.436">
  <g id="Ebene_1" data-name="Ebene 1">
    <path id="Path_40188" data-name="Path 40188" d="M6.052,3.15A6.807,6.807,0,0,0,0,9.9v20.73a6.807,6.807,0,0,0,7.559,6.764l20.715-2.308a6.807,6.807,0,0,0,6.052-6.764V0Zm1.615,6.5A.953.953,0,0,1,8.512,8.7l3.954-.439v3.97a.95.95,0,0,1-.848.928l-2.9.309a.947.947,0,0,1-1.055-.928Zm19.251,5.647L20.034,30.219a.968.968,0,0,1-.9.619H15.544a.972.972,0,0,1-.9-.619L7.695,15.294a.39.39,0,0,1,.35-.535h4.081a.4.4,0,0,1,.365.251l4.855,10.439,4.833-10.436a.4.4,0,0,1,.365-.254h4.022a.39.39,0,0,1,.353.535Zm.028-4.7a.95.95,0,0,1-.848.928l-2.893.34a.953.953,0,0,1-1.058-.947V8.02a.95.95,0,0,1,.845-.944l3.954-.442Z" fill="#ffffff"/>
  </g>
</svg>
